start_ticks,start_secs,dur_ticks,dur_secs,pitch,fullNoteOctave,velocity,part
0,0.0,159,0.165625,61,C4#,49,2
160,0.166666,159,0.165625,64,E4,49,2
320,0.333333,159,0.165625,69,A4,49,2
480,0.5,159,0.165625,73,C5#,49,1
640,0.666666,159,0.165625,76,E5,49,1
800,0.833333,159,0.165625,78,F5#,49,1
960,1.0,159,0.165625,80,G5#,49,1
1120,1.166666,159,0.165625,75,D5#,49,1
1280,1.333333,159,0.165625,71,B4,49,1
1440,1.5,159,0.165625,68,G4#,49,2
1600,1.666666,159,0.165625,63,D4#,49,2
1760,1.833333,159,0.165625,59,B3,49,2
1920,2.0,159,0.165625,57,A3,49,2
2080,2.166666,159,0.165625,61,C4#,49,2
2240,2.333333,159,0.165625,66,F4#,49,2
2400,2.5,159,0.165625,69,A4,49,1
2560,2.666666,159,0.165625,73,C5#,49,1
2720,2.833333,159,0.165625,75,D5#,49,1
2880,3.0,159,0.165625,76,E5,49,1
3040,3.166666,159,0.165625,71,B4,49,1
3200,3.333333,159,0.165625,68,G4#,49,1
3360,3.5,159,0.165625,64,E4,49,2
3520,3.666666,159,0.165625,59,B3,49,2
3680,3.833333,159,0.165625,56,G3#,49,2
3840,4.0,159,0.165625,54,F3#,49,2
3840,4.0,159,0.165625,54,F3#,49,2
4000,4.166666,159,0.165625,57,A3,49,2
4160,4.333333,639,0.665625,61,C4#,49,2
4320,4.5,479,0.498958,73,C5#,49,1
4480,4.666666,159,0.165625,66,F4#,49,1
4640,4.833333,639,0.665625,69,A4,49,1
4800,5.0,479,0.498958,78,F5#,49,1
4800,5.0,159,0.165625,52,E3,49,2
4800,5.0,159,0.165625,52,E3,49,2
4960,5.166666,159,0.165625,57,A3,49,2
5120,5.333333,639,0.665625,61,C4#,49,2
5280,5.5,479,0.498958,73,C5#,49,1
5440,5.666666,159,0.165625,66,F4#,49,1
5600,5.833333,639,0.665625,69,A4,49,1
5760,6.0,479,0.498958,73,C5#,49,1
5760,6.0,159,0.165625,51,D3#,49,2
5760,6.0,159,0.165625,51,D3#,49,2
5920,6.166666,159,0.165625,57,A3,49,2
6080,6.333333,639,0.665625,61,C4#,49,2
6240,6.5,479,0.498958,73,C5#,49,1
6400,6.666666,159,0.165625,66,F4#,49,1
6560,6.833333,639,0.665625,69,A4,49,1
6720,7.0,479,0.498958,78,F5#,49,1
6720,7.0,159,0.165625,49,C3#,49,2
6720,7.0,159,0.165625,49,C3#,49,2
6880,7.166666,159,0.165625,57,A3,49,2
7040,7.333333,639,0.665625,64,E4,49,2
7200,7.5,959,0.998958,81,A5,49,1
7360,7.666666,159,0.165625,69,A4,49,1
7520,7.833333,159,0.165625,73,C5#,49,1
7680,8.0,159,0.165625,47,B2,49,2
7840,8.166666,159,0.165625,54,F3#,49,2
8000,8.333333,159,0.165625,57,A3,49,2
8160,8.5,1119,1.332081,81,A5,49,1
8160,8.5,159,0.165625,61,C4#,49,2
8320,8.666666,159,0.165625,63,D4#,49,2
8480,8.833333,159,0.198749,66,F4#,49,2
8640,9.033332,159,0.19875,69,A4,49,2
8800,9.233332,159,0.19875,73,C5#,49,2
8960,9.433332,159,0.198749,75,D5#,49,2
9120,9.633331,159,0.19875,73,C5#,49,2
9280,9.833331,159,0.19875,80,G5#,49,1
9280,9.833331,159,0.19875,71,B4,49,2
9440,10.033331,159,0.198749,78,F5#,49,1
9440,10.033331,159,0.198749,69,A4,49,2
9600,10.23333,239,0.248958,40,E2,33,2
9840,10.48333,239,0.248958,47,B2,33,2
10080,10.73333,159,0.165625,76,E5,33,1
10080,10.73333,239,0.248958,52,E3,33,2
10240,10.899996,159,0.165625,78,F5#,33,1
10320,10.98333,239,0.248958,56,G3#,33,2
10400,11.066663,159,0.165625,73,C5#,33,1
10560,11.23333,159,0.165625,76,E5,33,1
10560,11.23333,239,0.248958,59,B3,33,2
10720,11.399996,159,0.165625,71,B4,33,1
10800,11.48333,239,0.248958,56,G3#,33,2
10880,11.566663,159,0.165625,73,C5#,33,1
11040,11.73333,159,0.165625,68,G4#,33,1
11040,11.73333,239,0.248958,52,E3,33,2
11200,11.899996,159,0.165625,71,B4,33,1
11280,11.98333,239,0.248958,47,B2,33,2
11360,12.066663,159,0.165625,66,F4#,33,1
11520,12.23333,159,0.165625,68,G4#,33,1
11520,12.23333,239,0.248958,40,E2,33,2
11680,12.399996,159,0.165625,64,E4,33,1
11760,12.48333,239,0.248958,49,C3#,33,2
11840,12.566663,159,0.165625,68,G4#,33,1
12000,12.73333,959,0.998958,63,D4#,33,1
12000,12.73333,239,0.248958,52,E3,33,2
12240,12.98333,239,0.248958,56,G3#,33,2
12480,13.23333,239,0.248958,61,C4#,33,2
12720,13.48333,239,0.248958,56,G3#,33,2
12960,13.73333,479,0.498958,61,C4#,33,1
12960,13.73333,239,0.248958,52,E3,33,2
13200,13.98333,239,0.248958,49,C3#,33,2
13440,14.23333,239,0.248958,59,B3,33,1
13440,14.23333,239,0.248958,40,E2,33,2
13680,14.48333,239,0.248958,47,B2,33,2
13920,14.73333,159,0.165625,76,E5,33,1
13920,14.73333,239,0.248958,52,E3,33,2
14080,14.899996,159,0.165625,78,F5#,33,1
14160,14.98333,239,0.248958,56,G3#,33,2
14240,15.066663,159,0.165625,73,C5#,33,1
14400,15.23333,159,0.165625,76,E5,33,1
14400,15.23333,239,0.248958,59,B3,33,2
14560,15.399996,159,0.165625,71,B4,33,1
14640,15.48333,239,0.248958,56,G3#,33,2
14720,15.566663,159,0.165625,73,C5#,33,1
14880,15.73333,159,0.165625,68,G4#,33,1
14880,15.73333,239,0.248958,52,E3,33,2
15040,15.899996,159,0.165625,71,B4,33,1
15120,15.98333,239,0.248958,47,B2,33,2
15200,16.066663,159,0.165625,66,F4#,33,1
15360,16.23333,159,0.165625,68,G4#,33,1
15360,16.23333,239,0.248958,40,E2,33,2
15520,16.399996,159,0.165625,64,E4,33,1
15600,16.48333,239,0.248958,49,C3#,33,2
15680,16.566663,159,0.165625,68,G4#,33,1
15840,16.73333,959,0.998958,63,D4#,33,1
15840,16.73333,239,0.248958,52,E3,33,2
16080,16.98333,239,0.248958,56,G3#,33,2
16320,17.23333,239,0.248958,61,C4#,33,2
16560,17.48333,239,0.248958,56,G3#,33,2
16800,17.73333,479,0.498958,61,C4#,33,1
16800,17.73333,239,0.248958,52,E3,33,2
17040,17.98333,239,0.248958,49,C3#,33,2
17280,18.23333,159,0.165625,59,B3,33,1
17280,18.23333,239,0.248958,42,F2#,33,2
17440,18.399996,159,0.165625,57,A3,33,1
17520,18.48333,239,0.248958,49,C3#,33,2
17600,18.566663,159,0.165625,59,B3,33,1
17760,18.73333,719,0.748958,61,C4#,33,1
17760,18.73333,239,0.248958,52,E3,33,2
18000,18.98333,239,0.248958,54,F3#,33,2
18240,19.23333,239,0.248958,57,A3,33,2
18480,19.48333,239,0.248958,64,E4,33,1
18480,19.48333,239,0.248958,54,F3#,33,2
18720,19.73333,239,0.248958,63,D4#,33,1
18720,19.73333,239,0.248958,52,E3,33,2
18960,19.98333,239,0.248958,64,E4,33,1
18960,19.98333,239,0.248958,49,C3#,33,2
19200,20.23333,479,0.498958,61,C4#,33,1
19200,20.23333,239,0.248958,44,G2#,33,2
19440,20.48333,239,0.248958,49,C3#,33,2
19680,20.73333,959,0.998958,68,G4#,33,1
19680,20.73333,239,0.248958,52,E3,33,2
19920,20.98333,239,0.248958,56,G3#,33,2
20160,21.23333,239,0.248958,59,B3,33,2
20400,21.48333,239,0.248958,56,G3#,33,2
20640,21.73333,479,0.498958,64,E4,33,1
20640,21.73333,239,0.248958,52,E3,33,2
20880,21.98333,239,0.248958,49,C3#,33,2
21120,22.23333,159,0.165625,63,D4#,33,1
21120,22.23333,239,0.248958,45,A2,33,2
21280,22.399996,159,0.165625,61,C4#,33,1
21360,22.48333,239,0.248958,52,E3,33,2
21440,22.566663,159,0.165625,63,D4#,33,1
21600,22.73333,719,0.748958,64,E4,33,1
21600,22.73333,239,0.248958,54,F3#,33,2
21840,22.98333,239,0.248958,57,A3,33,2
22080,23.23333,239,0.248958,61,C4#,33,2
22320,23.48333,239,0.248958,68,G4#,33,1
22320,23.48333,239,0.248958,57,A3,33,2
22560,23.73333,239,0.248958,66,F4#,33,1
22560,23.73333,239,0.248958,54,F3#,33,2
22800,23.98333,239,0.248958,68,G4#,33,1
22800,23.98333,239,0.248958,52,E3,33,2
23040,24.23333,479,0.460576,64,E4,33,1
23040,24.23333,239,0.229807,46,A2#,33,2
23280,24.464099,239,0.229807,52,E3,33,2
23520,24.694868,959,0.922114,73,C5#,33,1
23520,24.694868,239,0.229807,56,G3#,33,2
23760,24.925637,239,0.229807,61,C4#,33,2
24000,25.156406,239,0.229807,49,C3#,33,2
24240,25.387175,239,0.229807,54,F3#,33,2
24480,25.617944,159,0.152884,70,A4#,33,1
24480,25.617944,239,0.229807,58,A3#,33,2
24640,25.77179,159,0.152884,73,C5#,33,1
24720,25.848713,239,0.229807,64,E4,33,2
24800,25.925636,159,0.152884,70,A4#,33,1
24960,26.079482,479,0.460576,68,G4#,33,1
24960,26.079482,239,0.229807,52,E3,33,2
25200,26.310251,239,0.229807,58,A3#,33,2
25440,26.54102,959,0.922114,76,E5,33,1
25440,26.54102,239,0.229807,61,C4#,33,2
25680,26.771789,239,0.229807,68,G4#,33,2
25920,27.002558,239,0.229807,54,F3#,33,2
26160,27.233327,239,0.229807,61,C4#,33,2
26400,27.464096,159,0.152884,73,C5#,33,1
26400,27.464096,239,0.229807,64,E4,33,2
26560,27.617942,159,0.152884,76,E5,33,1
26640,27.694865,239,0.229807,70,A4#,33,2
26720,27.771788,159,0.152884,73,C5#,33,1
26880,27.925634,719,0.691345,80,G5#,33,1
26880,27.925634,239,0.229807,58,A3#,33,2
27120,28.156403,239,0.229807,64,E4,33,2
27360,28.387172,239,0.229807,68,G4#,33,2
27600,28.617941,239,0.229807,78,F5#,33,1
27600,28.617941,239,0.229807,73,C5#,33,2
27840,28.84871,719,0.691345,80,G5#,33,1
27840,28.84871,239,0.229807,61,C4#,33,2
28080,29.079479,239,0.229807,66,F4#,33,2
28320,29.310248,239,0.229807,70,A4#,33,2
28560,29.541017,239,0.229807,78,F5#,33,1
28560,29.541017,239,0.229807,76,E5,33,2
28800,29.771786,719,0.691345,80,G5#,33,1
28800,29.771786,239,0.229807,58,A3#,33,2
29040,30.002555,239,0.229807,64,E4,33,2
29280,30.233324,239,0.229807,68,G4#,33,2
29520,30.464093,239,0.229807,78,F5#,33,1
29520,30.464093,239,0.229807,73,C5#,33,2
29760,30.694862,239,0.298749,80,G5#,33,1
29760,30.694862,239,0.298749,61,C4#,33,2
30000,30.994861,479,0.598749,78,F5#,33,1
30000,30.994861,239,0.29875,66,F4#,33,2
30240,31.294861,239,0.298749,70,A4#,33,2
30480,31.59486,239,0.29875,80,G5#,33,1
30480,31.59486,239,0.29875,76,E5,33,2
30720,31.89486,959,0.998958,81,A5,49,1
30720,31.89486,159,0.165625,61,C4#,49,2
30880,32.061526,159,0.165625,64,E4,49,2
31040,32.228193,159,0.165625,69,A4,49,2
31200,32.39486,159,0.165625,73,C5#,49,2
31360,32.561526,159,0.165625,76,E5,49,2
31520,32.728193,159,0.165625,78,F5#,49,2
31680,32.89486,959,0.998958,80,G5#,49,1
31680,32.89486,159,0.165625,80,G5#,49,2
31840,33.061526,159,0.165625,75,D5#,49,2
32000,33.228193,159,0.165625,71,B4,49,2
32160,33.39486,159,0.165625,68,G4#,49,2
32320,33.561526,159,0.165625,63,D4#,49,2
32480,33.728193,159,0.165625,59,B3,49,2
32640,33.89486,959,0.998958,78,F5#,49,1
32640,33.89486,159,0.165625,57,A3,49,2
32800,34.061526,159,0.165625,61,C4#,49,2
32960,34.228193,159,0.165625,66,F4#,49,2
33120,34.39486,159,0.165625,69,A4,49,2
33280,34.561526,159,0.165625,73,C5#,49,2
33440,34.728193,159,0.165625,75,D5#,49,2
33600,34.89486,959,0.998958,76,E5,49,1
33600,34.89486,159,0.165625,76,E5,49,2
33760,35.061526,159,0.165625,71,B4,49,2
33920,35.228193,159,0.165625,68,G4#,49,2
34080,35.39486,159,0.165625,64,E4,49,2
34240,35.561526,159,0.165625,59,B3,49,2
34400,35.728193,159,0.165625,56,G3#,49,2
34560,35.89486,959,0.998958,75,D5#,49,1
34560,35.89486,159,0.165625,55,G3,49,2
34720,36.061526,159,0.165625,61,C4#,49,2
34880,36.228193,159,0.165625,63,D4#,49,2
35040,36.39486,159,0.165625,70,A4#,49,2
35200,36.561526,159,0.165625,63,D4#,49,2
35360,36.728193,159,0.165625,61,C4#,49,2
35520,36.89486,479,0.498958,76,E5,49,1
35520,36.89486,159,0.165625,56,G3#,49,2
35680,37.061526,159,0.165625,61,C4#,49,2
35840,37.228193,159,0.165625,64,E4,49,2
36000,37.39486,239,0.248958,80,G5#,49,1
36000,37.39486,159,0.165625,71,B4,49,2
36160,37.561526,159,0.165625,64,E4,49,2
36240,37.64486,239,0.248958,83,B5,49,1
36320,37.728193,159,0.165625,61,C4#,49,2
36480,37.89486,1199,1.248958,75,D5#,49,1
36480,37.89486,159,0.165625,55,G3,49,2
36640,38.061526,159,0.165625,61,C4#,49,2
36800,38.228193,159,0.165625,63,D4#,49,2
36960,38.39486,159,0.165625,70,A4#,49,2
37120,38.561526,159,0.165625,63,D4#,49,2
37280,38.728193,159,0.165625,61,C4#,49,2
37440,38.89486,159,0.165625,52,E3,49,2
37600,39.061526,159,0.165625,57,A3,49,2
37680,39.14486,239,0.248958,73,C5#,49,1
37760,39.228193,159,0.165625,61,C4#,49,2
37920,39.39486,239,0.248958,76,E5,49,1
37920,39.39486,159,0.165625,68,G4#,49,2
38080,39.561526,159,0.165625,61,C4#,49,2
38160,39.64486,239,0.248958,80,G5#,49,1
38240,39.728193,159,0.165625,57,A3,49,2
38400,39.89486,1199,1.248958,71,B4,49,1
38400,39.89486,159,0.165625,51,D3#,49,2
38560,40.061526,159,0.165625,57,A3,49,2
38720,40.228193,159,0.165625,59,B3,49,2
38880,40.39486,159,0.165625,66,F4#,49,2
39040,40.561526,159,0.165625,59,B3,49,2
39200,40.728193,159,0.165625,57,A3,49,2
39360,40.89486,159,0.165625,49,C3#,49,2
39520,41.061526,159,0.165625,54,F3#,49,2
39600,41.14486,239,0.248958,69,A4,49,1
39680,41.228193,159,0.165625,57,A3,49,2
39840,41.39486,239,0.248958,73,C5#,49,1
39840,41.39486,159,0.165625,64,E4,49,2
40000,41.561526,159,0.165625,57,A3,49,2
40080,41.64486,239,0.248958,76,E5,49,1
40160,41.728193,159,0.165625,54,F3#,49,2
40320,41.89486,959,0.998958,68,G4#,49,1
40320,41.89486,159,0.165625,48,C3,49,2
40480,42.061526,159,0.165625,54,F3#,49,2
40640,42.228193,159,0.165625,56,G3#,49,2
40800,42.39486,159,0.165625,63,D4#,49,2
40960,42.561526,159,0.165625,56,G3#,49,2
41120,42.728193,159,0.165625,54,F3#,49,2
41280,42.89486,159,0.198749,49,C3#,49,2
41440,43.094859,159,0.19875,69,A4,49,1
41440,43.094859,159,0.19875,54,F3#,49,2
41600,43.294859,159,0.19875,73,C5#,49,1
41600,43.294859,159,0.19875,57,A3,49,2
41760,43.494859,159,0.198749,76,E5,49,1
41760,43.494859,159,0.198749,64,E4,49,2
41920,43.694858,159,0.19875,80,G5#,49,1
41920,43.694858,159,0.19875,57,A3,49,2
42080,43.894858,159,0.19875,78,F5#,49,1
42080,43.894858,159,0.19875,54,F3#,49,2
42240,44.094858,479,0.598749,75,D5#,49,1
42240,44.094858,159,0.198749,48,C3,49,2
42400,44.294857,159,0.19875,54,F3#,49,2
42560,44.494857,159,0.19875,56,G3#,49,2
42720,44.694857,479,0.598749,68,G4#,49,1
42720,44.694857,159,0.198749,63,D4#,49,2
42880,44.894856,159,0.19875,56,G3#,49,2
43040,45.094856,159,0.19875,54,F3#,49,2
43200,45.294856,159,0.165625,47,B2,49,2
43360,45.461522,159,0.165625,54,F3#,49,2
43440,45.544856,239,0.248958,66,F4#,49,1
43520,45.628189,159,0.165625,57,A3,49,2
43680,45.794856,239,0.248958,69,A4,49,1
43680,45.794856,159,0.165625,62,D4,49,2
43840,45.961522,159,0.165625,57,A3,49,2
43920,46.044856,239,0.248958,73,C5#,49,1
44000,46.128189,159,0.165625,54,F3#,49,2
44160,46.294856,959,0.998958,64,E4,49,1
44160,46.294856,159,0.165625,47,B2,49,2
44320,46.461522,159,0.165625,52,E3,49,2
44480,46.628189,159,0.165625,56,G3#,49,2
44640,46.794856,159,0.165625,62,D4,49,2
44800,46.961522,159,0.165625,56,G3#,49,2
44960,47.128189,159,0.165625,52,E3,49,2
45120,47.294856,159,0.198749,47,B2,49,2
45280,47.494855,159,0.19875,66,F4#,49,1
45280,47.494855,159,0.19875,54,F3#,49,2
45440,47.694855,159,0.19875,69,A4,49,1
45440,47.694855,159,0.19875,57,A3,49,2
45600,47.894855,159,0.198749,73,C5#,49,1
45600,47.894855,159,0.198749,62,D4,49,2
45760,48.094854,159,0.19875,76,E5,49,1
45760,48.094854,159,0.19875,57,A3,49,2
45920,48.294854,159,0.19875,74,D5,49,1
45920,48.294854,159,0.19875,54,F3#,49,2
46080,48.494854,479,0.598749,68,G4#,49,1
46080,48.494854,159,0.198749,47,B2,49,2
46240,48.694853,159,0.19875,52,E3,49,2
46400,48.894853,159,0.19875,56,G3#,49,2
46560,49.094853,959,1.198748,66,F4#,49,1
46560,49.094853,159,0.198749,62,D4,49,2
46720,49.294852,159,0.19875,56,G3#,49,2
46880,49.494852,159,0.19875,52,E3,49,2
47040,49.694852,159,0.198749,40,E2,49,2
47200,49.894851,159,0.19875,47,B2,49,2
47360,50.094851,159,0.19875,52,E3,49,2
47520,50.294851,479,0.598749,62,D4,49,1
47520,50.294851,159,0.198749,54,F3#,49,2
47680,50.49485,159,0.19875,56,G3#,49,2
47840,50.69485,159,0.19875,59,B3,49,2
48000,50.89485,2399,2.498958,61,C4#,49,1
48000,50.89485,159,0.165625,33,A1,49,2
48160,51.061516,3679,3.832292,45,A2,49,2
48320,51.228183,159,0.165625,52,E3,49,2
48480,51.39485,159,0.165625,55,G3,49,2
48640,51.561516,159,0.165625,57,A3,49,2
48800,51.728183,159,0.165625,59,B3,49,2
48960,51.89485,159,0.165625,57,A3,49,2
49120,52.061516,159,0.165625,52,E3,49,2
49280,52.228183,159,0.165625,55,G3,49,2
49440,52.39485,159,0.165625,57,A3,49,2
49600,52.561516,159,0.165625,59,B3,49,2
49760,52.728183,159,0.165625,57,A3,49,2
49920,52.89485,1919,1.998958,55,G3,49,1
50400,53.39485,479,0.498958,61,C4#,49,1
50880,53.89485,479,0.498958,64,E4,49,1
51360,54.39485,479,0.498958,61,C4#,49,1
51840,54.89485,2399,2.498958,66,F4#,49,1
51840,54.89485,239,0.248958,38,D2,49,2
52080,55.14485,239,0.248958,45,A2,49,2
52320,55.39485,159,0.165625,57,A3,49,1
52320,55.39485,1439,1.498958,54,F3#,49,2
52480,55.561516,159,0.165625,59,B3,49,1
52640,55.728183,159,0.165625,61,C4#,49,1
52800,55.89485,159,0.165625,59,B3,49,1
52960,56.061516,159,0.165625,57,A3,49,1
53120,56.228183,159,0.165625,59,B3,49,1
53280,56.39485,159,0.165625,61,C4#,49,1
53440,56.561516,159,0.165625,59,B3,49,1
53600,56.728183,159,0.165625,57,A3,49,1
53760,56.89485,959,0.953598,59,B3,49,1
53760,56.89485,239,0.248958,35,B1,49,2
54000,57.14485,239,0.248958,47,B2,49,2
54240,57.39485,479,0.453598,66,F4#,49,1
54240,57.39485,239,0.226325,54,F3#,49,2
54480,57.622122,239,0.226326,57,A3,49,2
54720,57.849395,1919,1.817233,63,D4#,49,1
54720,57.849395,479,0.453598,69,A4,49,1
54720,57.849395,479,0.453598,59,B3,49,2
55200,58.30394,479,0.453598,66,F4#,49,1
55680,58.758485,479,0.453598,71,B4,49,1
55680,58.758485,239,0.226325,32,G1#,49,2
55920,58.985757,239,0.226326,44,G2#,49,2
56160,59.21303,479,0.453598,68,G4#,49,1
56160,59.21303,239,0.226325,52,E3,49,2
56400,59.440302,239,0.226326,56,G3#,49,2
56640,59.667575,959,0.908143,64,E4,49,1
56640,59.667575,479,0.453598,71,B4,49,1
56640,59.667575,479,0.453598,59,B3,49,2
57120,60.12212,479,0.453598,68,G4#,49,1
57600,60.576665,2399,2.271778,73,C5#,49,1
57600,60.576665,2399,2.271778,69,A4,49,1
57600,60.576665,159,0.150568,30,F1#,49,2
57760,60.72818,159,0.150568,42,F2#,49,2
57920,60.879695,159,0.150568,49,C3#,49,2
58080,61.03121,159,0.150568,52,E3,49,2
58240,61.182725,159,0.150568,54,F3#,49,2
58400,61.33424,159,0.150568,57,A3,49,2
58560,61.485755,159,0.150568,61,C4#,49,2
58720,61.63727,159,0.150568,64,E4,49,2
58880,61.788785,159,0.150568,66,F4#,49,2
59040,61.9403,159,0.150568,69,A4,49,2
59200,62.091815,159,0.150568,68,G4#,49,2
59360,62.24333,159,0.150568,66,F4#,49,2
59520,62.394845,959,0.908143,64,E4,49,2
60000,62.84939,479,0.453598,69,A4,49,1
60000,62.84939,479,0.453598,66,F4#,49,1
60480,63.303935,479,0.453598,71,B4,49,1
60480,63.303935,479,0.453598,68,G4#,49,1
60480,63.303935,479,0.453598,63,D4#,49,2
60960,63.75848,479,0.453598,73,C5#,49,1
60960,63.75848,479,0.453598,69,A4,49,1
60960,63.75848,479,0.453598,61,C4#,49,2
61440,64.213025,2399,2.271778,73,C5#,49,1
61440,64.213025,2399,2.271778,69,A4,49,1
61440,64.213025,159,0.150568,30,F1#,49,2
61600,64.36454,159,0.150568,42,F2#,49,2
61760,64.516055,159,0.150568,49,C3#,49,2
61920,64.66757,159,0.150568,52,E3,49,2
62080,64.819085,159,0.150568,54,F3#,49,2
62240,64.9706,159,0.150568,57,A3,49,2
62400,65.122115,159,0.150568,61,C4#,49,2
62560,65.27363,159,0.150568,64,E4,49,2
62720,65.425145,159,0.150568,66,F4#,49,2
62880,65.57666,159,0.150568,69,A4,49,2
63040,65.728175,159,0.150568,68,G4#,49,2
63200,65.87969,159,0.150568,66,F4#,49,2
63360,66.031205,959,0.908143,64,E4,49,2
63840,66.48575,159,0.150568,66,F4#,49,1
63840,66.48575,479,0.453598,69,A4,49,1
64000,66.637265,159,0.150568,61,C4#,49,1
64160,66.78878,159,0.150568,64,E4,49,1
64320,66.940295,159,0.150568,68,G4#,49,1
64320,66.940295,479,0.453598,71,B4,49,1
64320,66.940295,959,0.908143,54,F3#,49,2
64480,67.09181,159,0.150568,63,D4#,49,1
64640,67.243325,159,0.150568,66,F4#,49,1
64800,67.39484,159,0.150568,69,A4,49,1
64800,67.39484,479,0.453598,73,C5#,49,1
64960,67.546355,159,0.150568,64,E4,49,1
65120,67.69787,159,0.150568,68,G4#,49,1
65280,67.849385,159,0.150568,71,B4,49,1
65280,67.849385,479,0.453598,75,D5#,49,1
65280,67.849385,239,0.226325,47,B2,49,2
65440,68.0009,159,0.150568,66,F4#,49,1
65600,68.152415,159,0.150568,69,A4,49,1
65760,68.30393,159,0.150568,73,C5#,49,1
65760,68.30393,479,0.453598,76,E5,49,1
65760,68.30393,239,0.226325,54,F3#,49,2
65920,68.455445,159,0.150568,68,G4#,49,1
66080,68.60696,159,0.150568,71,B4,49,1
66240,68.758475,159,0.150568,75,D5#,49,1
66240,68.758475,479,0.453598,78,F5#,49,1
66240,68.758475,239,0.226325,57,A3,49,2
66400,68.90999,159,0.150568,69,A4,49,1
66560,69.061505,159,0.150568,73,C5#,49,1
66720,69.21302,159,0.150568,76,E5,49,1
66720,69.21302,479,0.453598,80,G5#,49,1
66720,69.21302,239,0.226325,59,B3,49,2
66880,69.364535,159,0.150568,71,B4,49,1
67040,69.51605,159,0.150568,75,D5#,49,1
67200,69.667565,159,0.150568,78,F5#,49,1
67200,69.667565,479,0.453598,81,A5,49,1
67200,69.667565,239,0.226325,63,D4#,49,2
67360,69.81908,159,0.150568,73,C5#,49,1
67520,69.970595,159,0.150568,76,E5,49,1
67680,70.12211,159,0.150568,80,G5#,49,1
67680,70.12211,479,0.453598,83,B5,49,1
67680,70.12211,239,0.226325,66,F4#,49,2
67840,70.273625,159,0.150568,75,D5#,49,1
68000,70.42514,159,0.150568,78,F5#,49,1
68160,70.576655,159,0.150568,81,A5,49,1
68160,70.576655,479,0.453598,85,C6#,49,1
68160,70.576655,239,0.226325,69,A4,49,2
68320,70.72817,159,0.150568,76,E5,49,1
68480,70.879685,159,0.150568,80,G5#,49,1
68640,71.0312,159,0.150568,83,B5,49,1
68640,71.0312,479,0.453598,87,D6#,49,1
68640,71.0312,239,0.226325,71,B4,49,2
68800,71.182715,159,0.150568,78,F5#,49,1
68960,71.33423,159,0.150568,81,A5,49,1
69120,71.485745,1919,1.817233,83,B5,49,1
69120,71.485745,1919,1.817233,80,G5#,49,1
69120,71.485745,959,0.908143,90,F6#,49,1
69120,71.485745,239,0.226325,28,E1,49,2
69360,71.713017,239,0.226326,40,E2,49,2
69600,71.94029,239,0.226325,47,B2,49,2
69840,72.167562,239,0.226326,52,E3,49,2
70080,72.394835,959,0.908143,88,E6,49,1
70080,72.394835,239,0.226325,56,G3#,49,2
70320,72.622107,239,0.226326,59,B3,49,2
70560,72.84938,239,0.226325,64,E4,49,2
70800,73.076652,239,0.226326,68,G4#,49,2
71040,73.303925,1919,1.817233,76,E5,49,1
72000,74.213015,959,0.908143,64,E4,49,2
72960,75.122105,1439,1.498958,69,A4,49,1
72960,75.122105,159,0.165625,76,E5,49,1
72960,75.122105,239,0.248958,59,B3,49,2
72960,75.122105,1439,1.498958,66,F4#,49,2
73120,75.288771,159,0.165625,74,D5,49,1
73200,75.372105,239,0.248958,61,C4#,49,2
73280,75.455438,159,0.165625,76,E5,49,1
73440,75.622105,719,0.748958,73,C5#,49,1
73440,75.622105,959,0.998958,62,D4,49,2
74160,76.372105,239,0.248958,71,B4,49,1
74400,76.622105,479,0.498958,68,G4#,49,1
74400,76.622105,239,0.248958,71,B4,49,1
74400,76.622105,479,0.498958,52,E3,49,2
74400,76.622105,479,0.498958,62,D4,49,2
74640,76.872105,239,0.248958,73,C5#,49,1
74880,77.122105,479,0.498958,66,F4#,49,1
74880,77.122105,479,0.498958,69,A4,49,1
74880,77.122105,479,0.498958,61,C4#,49,2
74880,77.122105,479,0.498958,54,F3#,49,2
75360,77.622105,1439,1.498958,63,D4#,49,1
75360,77.622105,959,0.998958,66,F4#,49,1
75360,77.622105,1439,1.498958,57,A3,49,2
75360,77.622105,1439,1.498958,47,B2,49,2
76320,78.622105,479,0.498958,68,G4#,49,1
76800,79.122105,479,0.498958,62,D4,49,1
76800,79.122105,479,0.498958,56,G3#,49,1
76800,79.122105,239,0.248958,66,F4#,49,1
76800,79.122105,479,0.498958,40,E2,49,2
76800,79.122105,479,0.498958,47,B2,49,2
77040,79.372105,239,0.248958,64,E4,49,1
77280,79.622105,1439,1.498958,74,D5,49,1
77280,79.622105,1439,1.498958,71,B4,49,1
77280,79.622105,959,0.998958,78,F5#,49,1
77280,79.622105,1439,1.498958,62,D4,49,2
77280,79.622105,1439,1.498958,56,G3#,49,2
77280,79.622105,959,0.998958,66,F4#,49,2
78240,80.622105,479,0.498958,76,E5,49,1
78240,80.622105,479,0.498958,64,E4,49,2
78720,81.122105,479,0.498958,61,C4#,49,1
78720,81.122105,479,0.498958,57,A3,49,1
78720,81.122105,239,0.248958,66,F4#,49,1
78720,81.122105,479,0.498958,52,E3,49,2
78720,81.122105,479,0.498958,45,A2,49,2
78960,81.372105,239,0.248958,64,E4,49,1
79200,81.622105,1439,1.498958,73,C5#,70,1
79200,81.622105,1439,1.498958,69,A4,70,1
79200,81.622105,719,0.748958,80,G5#,70,1
79200,81.622105,1439,1.498958,64,E4,70,2
79200,81.622105,1439,1.498958,61,C4#,70,2
79200,81.622105,1439,1.498958,52,E3,70,2
79920,82.372105,239,0.248958,83,B5,49,1
80160,82.622105,239,0.248958,81,A5,49,1
80400,82.872105,239,0.248958,78,F5#,49,1
80640,83.122105,1439,1.498958,69,A4,49,1
80640,83.122105,159,0.165625,76,E5,49,1
80640,83.122105,239,0.248958,59,B3,49,2
80640,83.122105,1439,1.498958,66,F4#,49,2
80800,83.288771,159,0.165625,74,D5,49,1
80880,83.372105,239,0.248958,61,C4#,49,2
80960,83.455438,159,0.165625,76,E5,49,1
81120,83.622105,719,0.748958,73,C5#,49,1
81120,83.622105,1439,1.498958,62,D4,49,2
81840,84.372105,239,0.248958,71,B4,49,1
82080,84.622105,479,0.498958,68,G4#,49,1
82080,84.622105,239,0.248958,71,B4,49,1
82080,84.622105,479,0.498958,65,F4,49,2
82320,84.872105,239,0.248958,73,C5#,49,1
82560,85.122105,959,0.998958,64,E4,49,1
82560,85.122105,479,0.498958,69,A4,49,1
82560,85.122105,479,0.498958,61,C4#,49,2
82560,85.122105,479,0.498958,54,F3#,49,2
83040,85.622105,719,0.748958,66,F4#,49,1
83040,85.622105,959,0.998958,57,A3,49,2
83040,85.622105,959,0.998958,47,B2,49,2
83520,86.122105,479,0.498958,63,D4#,49,1
83760,86.372105,239,0.248958,66,F4#,49,1
84000,86.622105,479,0.498958,61,C4#,49,1
84000,86.622105,239,0.248958,66,F4#,49,1
84000,86.622105,479,0.498958,51,D3#,49,2
84000,86.622105,479,0.498958,45,A2,49,2
84240,86.872105,239,0.248958,68,G4#,49,1
84480,87.122105,479,0.498958,59,B3,49,1
84480,87.122105,159,0.165625,66,F4#,49,1
84480,87.122105,479,0.498958,52,E3,49,2
84480,87.122105,479,0.498958,44,G2#,49,2
84640,87.288771,159,0.165625,64,E4,49,1
84800,87.455438,159,0.165625,59,B3,49,1
84960,87.622105,959,0.998958,57,A3,49,1
84960,87.622105,959,0.998958,61,C4#,49,1
84960,87.622105,959,0.998958,52,E3,49,2
84960,87.622105,959,0.998958,42,F2#,49,2
85920,88.622105,479,0.498958,57,A3,49,1
85920,88.622105,479,0.498958,64,E4,49,1
85920,88.622105,479,0.498958,61,C4#,49,1
85920,88.622105,479,0.498958,47,B2,49,2
85920,88.622105,479,0.498958,35,B1,49,2
86400,89.122105,479,0.498958,57,A3,49,1
86400,89.122105,1439,1.498958,64,E4,49,1
86400,89.122105,1439,1.498958,59,B3,49,1
86400,89.122105,959,0.998958,47,B2,49,2
86400,89.122105,959,0.998958,40,E2,49,2
86880,89.622105,959,0.998958,56,G3#,49,1
87360,90.122105,479,0.498958,40,E2,49,2
87840,90.622105,479,0.498958,52,E3,49,2
88320,91.122105,159,0.13802,50,D3,49,1
88480,91.260994,159,0.13802,54,F3#,49,1
88640,91.399883,159,0.13802,57,A3,49,1
88800,91.538772,159,0.13802,61,C4#,49,1
88800,91.538772,959,0.832465,42,F2#,49,2
88960,91.677661,159,0.13802,59,B3,49,1
89120,91.81655,159,0.13802,57,A3,49,1
89280,91.955439,159,0.13802,56,G3#,51,1
89440,92.094328,159,0.13802,59,B3,53,1
89600,92.233217,159,0.13802,62,D4,55,1
89760,92.372106,159,0.13802,66,F4#,57,1
89760,92.372106,479,0.415798,40,E2,57,2
89920,92.510995,159,0.13802,64,E4,59,1
90080,92.649884,159,0.13802,62,D4,61,1
90240,92.788773,159,0.13802,61,C4#,63,1
90400,92.927662,159,0.13802,64,E4,65,1
90560,93.066551,159,0.13802,68,G4#,66,1
90720,93.20544,159,0.13802,71,B4,68,1
90720,93.20544,959,0.832465,45,A2,68,2
90720,93.20544,959,0.832465,33,A1,68,2
90880,93.344329,159,0.13802,69,A4,70,1
91040,93.483218,159,0.13802,68,G4#,72,1
91200,93.622107,159,0.13802,66,F4#,74,1
91360,93.760996,159,0.13802,69,A4,76,1
91520,93.899885,159,0.13802,73,C5#,78,1
91680,94.038774,159,0.13802,76,E5,80,1
91680,94.038774,479,0.415798,50,D3,80,2
91680,94.038774,479,0.415798,38,D2,80,2
91840,94.177663,159,0.13802,74,D5,82,1
92000,94.316552,159,0.13802,73,C5#,84,1
92160,94.455441,159,0.13802,71,B4,86,1
92320,94.59433,159,0.13802,74,D5,90,1
92480,94.733219,159,0.13802,78,F5#,94,1
92640,94.872108,719,0.624132,81,A5,96,1
92640,94.872108,479,0.415798,47,B2,96,2
92640,94.872108,479,0.415798,35,B1,96,2
93120,95.288775,479,0.415798,74,D5,96,1
93120,95.288775,479,0.415798,71,B4,96,1
93120,95.288775,479,0.415798,66,F4#,96,2
93120,95.288775,479,0.415798,62,D4,96,2
93120,95.288775,479,0.415798,59,B3,96,2
93120,95.288775,479,0.415798,54,F3#,96,2
93360,95.497108,239,0.207465,80,G5#,96,1
93600,95.705442,479,0.415798,74,D5,96,1
93600,95.705442,479,0.415798,68,G4#,96,1
93600,95.705442,239,0.207465,78,F5#,96,1
93600,95.705442,479,0.415798,52,E3,96,2
93600,95.705442,479,0.415798,40,E2,96,2
93840,95.913775,239,0.207465,76,E5,96,1
94080,96.122109,959,0.832465,73,C5#,96,1
94080,96.122109,959,0.832465,69,A4,96,1
94080,96.122109,239,0.207465,78,F5#,96,1
94080,96.122109,479,0.415798,45,A2,96,2
94080,96.122109,479,0.415798,33,A1,96,2
94320,96.330442,239,0.207465,76,E5,96,1
94560,96.538776,239,0.207465,74,D5,96,1
94560,96.538776,479,0.415798,52,E3,96,2
94800,96.747109,239,0.207465,73,C5#,96,1
95040,96.955443,959,0.922114,69,A4,96,1
95040,96.955443,239,0.229807,74,D5,96,1
95040,96.955443,239,0.229807,66,F4#,96,2
95280,97.186212,239,0.229807,73,C5#,96,1
95280,97.186212,239,0.229807,64,E4,96,2
95520,97.416981,239,0.229807,71,B4,96,1
95520,97.416981,239,0.229807,62,D4,96,2
95760,97.64775,239,0.229807,69,A4,96,1
95760,97.64775,239,0.229807,61,C4#,96,2
96000,97.878519,159,0.13802,50,D3,49,1
96160,98.017408,159,0.13802,54,F3#,49,1
96320,98.156297,159,0.13802,57,A3,49,1
96480,98.295186,159,0.13802,61,C4#,49,1
96480,98.295186,959,0.832465,42,F2#,49,2
96640,98.434075,159,0.13802,59,B3,49,1
96800,98.572964,159,0.13802,57,A3,49,1
96960,98.711853,159,0.13802,56,G3#,51,1
97120,98.850742,159,0.13802,59,B3,53,1
97280,98.989631,159,0.13802,62,D4,55,1
97440,99.12852,159,0.13802,66,F4#,57,1
97440,99.12852,479,0.415798,40,E2,57,2
97600,99.267409,159,0.13802,64,E4,59,1
97760,99.406298,159,0.13802,62,D4,61,1
97920,99.545187,159,0.13802,61,C4#,63,1
98080,99.684076,159,0.13802,64,E4,65,1
98240,99.822965,159,0.13802,68,G4#,66,1
98400,99.961854,159,0.13802,71,B4,68,1
98400,99.961854,959,0.832465,45,A2,68,2
98400,99.961854,959,0.832465,33,A1,68,2
98560,100.100743,159,0.13802,69,A4,70,1
98720,100.239632,159,0.13802,68,G4#,72,1
98880,100.378521,159,0.13802,66,F4#,74,1
99040,100.51741,159,0.13802,69,A4,76,1
99200,100.656299,159,0.13802,73,C5#,78,1
99360,100.795188,159,0.13802,76,E5,80,1
99360,100.795188,479,0.415798,50,D3,80,2
99360,100.795188,479,0.415798,38,D2,80,2
99520,100.934077,159,0.13802,74,D5,82,1
99680,101.072966,159,0.13802,73,C5#,84,1
99840,101.211855,159,0.13802,71,B4,86,1
100000,101.350744,159,0.13802,74,D5,90,1
100160,101.489633,159,0.13802,78,F5#,94,1
100320,101.628522,719,0.624132,81,A5,96,1
100320,101.628522,239,0.207465,47,B2,96,2
100320,101.628522,239,0.207465,35,B1,96,2
100800,102.045189,959,0.832465,74,D5,96,1
100800,102.045189,959,0.832465,71,B4,96,1
100800,102.045189,959,0.832465,66,F4#,96,2
100800,102.045189,959,0.832465,62,D4,96,2
100800,102.045189,959,0.832465,59,B3,96,2
100800,102.045189,959,0.832465,54,F3#,96,2
101040,102.253522,239,0.207465,80,G5#,96,1
101280,102.461856,239,0.207465,78,F5#,96,1
101520,102.670189,239,0.207465,80,G5#,96,1
101760,102.878523,159,0.13802,71,B4,96,1
101920,103.017412,159,0.13802,74,D5,96,1
102080,103.156301,159,0.13802,78,F5#,96,1
102240,103.29519,719,0.624132,81,A5,96,1
102240,103.29519,239,0.207465,50,D3,96,2
102240,103.29519,239,0.207465,38,D2,96,2
102720,103.711857,959,0.832465,74,D5,96,1
102720,103.711857,959,0.832465,71,B4,96,1
102720,103.711857,959,0.832465,66,F4#,96,2
102720,103.711857,959,0.832465,62,D4,96,2
102720,103.711857,959,0.832465,59,B3,96,2
102720,103.711857,959,0.832465,54,F3#,96,2
102960,103.92019,239,0.207465,80,G5#,96,1
103200,104.128524,239,0.207465,78,F5#,96,1
103440,104.336857,239,0.207465,80,G5#,96,1
103680,104.545191,959,0.998958,68,G4#,49,1
103680,104.545191,159,0.165625,76,E5,49,1
103680,104.545191,959,0.998958,52,E3,49,2
103680,104.545191,1919,1.998958,62,D4,49,2
103840,104.711857,159,0.165625,74,D5,49,1
104000,104.878524,159,0.165625,76,E5,49,1
104160,105.045191,719,0.748958,73,C5#,49,1
104640,105.545191,479,0.498958,66,F4#,49,1
104640,105.545191,479,0.498958,54,F3#,49,2
104880,105.795191,239,0.248958,71,B4,49,1
105120,106.045191,479,0.498958,65,F4,49,1
105120,106.045191,239,0.248958,71,B4,49,1
105120,106.045191,479,0.498958,56,G3#,49,2
105360,106.295191,239,0.248958,73,C5#,49,1
105600,106.545191,959,0.998958,64,E4,49,1
105600,106.545191,479,0.498958,69,A4,49,1
105600,106.545191,959,0.998958,57,A3,49,2
105600,106.545191,959,0.998958,61,C4#,49,2
106080,107.045191,959,0.998958,66,F4#,49,1
106560,107.545191,959,0.998958,63,D4#,49,1
106560,107.545191,959,0.998958,47,B2,49,2
106560,107.545191,959,0.998958,57,A3,49,2
107040,108.045191,479,0.498958,68,G4#,49,1
107520,108.545191,479,0.498958,62,D4,49,1
107520,108.545191,479,0.498958,56,G3#,49,1
107520,108.545191,239,0.248958,66,F4#,49,1
107520,108.545191,479,0.498958,40,E2,49,2
107520,108.545191,479,0.498958,45,A2,49,2
107760,108.795191,239,0.248958,64,E4,49,1
108000,109.045191,1439,1.498958,74,D5,49,1
108000,109.045191,1439,1.498958,71,B4,49,1
108000,109.045191,959,0.998958,78,F5#,49,1
108000,109.045191,1439,1.498958,62,D4,49,2
108000,109.045191,1439,1.498958,56,G3#,49,2
108000,109.045191,959,0.998958,66,F4#,49,2
108960,110.045191,479,0.498958,76,E5,49,1
108960,110.045191,479,0.498958,64,E4,49,2
109440,110.545191,479,0.498958,61,C4#,49,1
109440,110.545191,479,0.498958,57,A3,49,1
109440,110.545191,239,0.248958,66,F4#,49,1
109440,110.545191,479,0.498958,52,E3,49,2
109440,110.545191,479,0.498958,45,A2,49,2
109680,110.795191,239,0.248958,64,E4,49,1
109920,111.045191,1439,1.498958,73,C5#,49,1
109920,111.045191,1439,1.498958,69,A4,49,1
109920,111.045191,719,0.748958,80,G5#,49,1
109920,111.045191,1439,1.498958,64,E4,49,2
109920,111.045191,1439,1.498958,61,C4#,49,2
109920,111.045191,1439,1.498958,57,A3,49,2
109920,111.045191,1439,1.498958,52,E3,49,2
110640,111.795191,239,0.248958,83,B5,49,1
110880,112.045191,239,0.248958,81,A5,49,1
111120,112.295191,239,0.248958,78,F5#,49,1
111360,112.545191,1439,1.498958,69,A4,49,1
111360,112.545191,159,0.165625,76,E5,49,1
111360,112.545191,239,0.248958,59,B3,49,2
111360,112.545191,1439,1.498958,66,F4#,49,2
111520,112.711857,159,0.165625,74,D5,49,1
111600,112.795191,239,0.248958,61,C4#,49,2
111680,112.878524,159,0.165625,76,E5,49,1
111840,113.045191,719,0.748958,73,C5#,49,1
111840,113.045191,1439,1.498958,62,D4,49,2
112560,113.795191,239,0.248958,71,B4,49,1
112800,114.045191,479,0.498958,68,G4#,49,1
112800,114.045191,239,0.248958,71,B4,49,1
112800,114.045191,479,0.498958,65,F4,49,2
113040,114.295191,239,0.248958,73,C5#,49,1
113280,114.545191,959,0.998958,64,E4,49,1
113280,114.545191,479,0.498958,69,A4,49,1
113280,114.545191,959,0.998958,61,C4#,49,2
113280,114.545191,959,0.998958,54,F3#,49,2
113760,115.045191,719,0.748958,68,G4#,49,1
114240,115.545191,479,0.498958,63,D4#,49,1
114240,115.545191,479,0.498958,57,A3,49,2
114240,115.545191,479,0.498958,47,B2,49,2
114480,115.795191,239,0.248958,66,F4#,49,1
114720,116.045191,479,0.498958,61,C4#,49,1
114720,116.045191,239,0.248958,66,F4#,49,1
114720,116.045191,479,0.498958,51,D3#,49,2
114720,116.045191,479,0.498958,45,A2,49,2
114960,116.295191,239,0.248958,68,G4#,49,1
115200,116.545191,479,0.498958,59,B3,49,1
115200,116.545191,159,0.165625,66,F4#,49,1
115200,116.545191,479,0.498958,52,E3,49,2
115200,116.545191,479,0.498958,44,G2#,49,2
115360,116.711857,159,0.165625,64,E4,49,1
115520,116.878524,159,0.165625,59,B3,49,1
115680,117.045191,959,0.998958,61,C4#,49,1
115680,117.045191,959,0.998958,57,A3,49,1
115680,117.045191,959,0.998958,52,E3,49,2
115680,117.045191,959,0.998958,42,F2#,49,2
116640,118.045191,479,0.498958,64,E4,49,1
116640,118.045191,479,0.498958,61,C4#,49,1
116640,118.045191,479,0.498958,57,A3,49,1
116640,118.045191,479,0.498958,47,B2,49,2
116640,118.045191,479,0.498958,35,B1,49,2
117120,118.545191,479,0.498958,57,A3,49,1
117120,118.545191,1439,1.498958,64,E4,49,1
117120,118.545191,1439,1.498958,59,B3,49,1
117120,118.545191,959,0.998958,47,B2,49,2
117120,118.545191,959,0.998958,40,E2,49,2
117600,119.045191,959,0.998958,56,G3#,49,1
118080,119.545191,479,0.498958,40,E2,49,2
118560,120.045191,479,0.498958,52,E3,49,2
119040,120.545191,479,0.498958,60,C4,96,1
119040,120.545191,479,0.498958,55,G3,96,1
119040,120.545191,159,0.165625,67,G4,96,1
119040,120.545191,479,0.498958,48,C3,96,2
119040,120.545191,479,0.498958,40,E2,96,2
119200,120.711857,159,0.165625,65,F4,96,1
119360,120.878524,159,0.165625,67,G4,96,1
119520,121.045191,959,0.998958,64,E4,96,1
119520,121.045191,959,0.998958,60,C4,96,1
119520,121.045191,959,0.998958,57,A3,96,1
119520,121.045191,959,0.998958,48,C3,96,2
119520,121.045191,959,0.998958,41,F2,96,2
120480,122.045191,479,0.498958,59,B3,96,1
120480,122.045191,479,0.498958,53,F3,96,1
120480,122.045191,479,0.498958,62,D4,96,1
120480,122.045191,479,0.498958,43,G2,96,2
120960,122.545191,479,0.498958,57,A3,96,1
120960,122.545191,479,0.498958,52,E3,96,1
120960,122.545191,479,0.498958,60,C4,96,1
120960,122.545191,479,0.498958,45,A2,96,2
121440,123.045191,959,0.998958,53,F3,96,1
121440,123.045191,959,0.998958,50,D3,96,1
121440,123.045191,959,0.998958,55,G3,96,1
121440,123.045191,959,0.998958,47,B2,96,2
122400,124.045191,479,0.498958,57,A3,96,1
122400,124.045191,479,0.498958,52,E3,96,1
122400,124.045191,479,0.498958,60,C4,96,1
122400,124.045191,479,0.498958,45,A2,96,2
122880,124.545191,479,0.498958,59,B3,96,1
122880,124.545191,479,0.498958,53,F3,96,1
122880,124.545191,479,0.498958,62,D4,96,1
122880,124.545191,479,0.498958,43,G2,96,2
123360,125.045191,479,0.498958,57,A3,96,1
123360,125.045191,479,0.498958,65,F4,96,1
123360,125.045191,479,0.498958,60,C4,96,1
123360,125.045191,479,0.498958,41,F2,96,2
123840,125.545191,479,0.498958,55,G3,96,1
123840,125.545191,479,0.498958,67,G4,96,1
123840,125.545191,479,0.498958,60,C4,96,1
123840,125.545191,479,0.498958,40,E2,96,2
124320,126.045191,479,0.498958,65,F4,96,1
124320,126.045191,479,0.498958,60,C4,96,1
124320,126.045191,239,0.248958,69,A4,96,1
124320,126.045191,479,0.498958,50,D3,96,2
124320,126.045191,479,0.498958,38,D2,96,2
124560,126.295191,239,0.248958,72,C5,96,1
124800,126.545191,1919,1.998958,65,F4,96,1
124800,126.545191,959,0.998958,74,D5,96,1
124800,126.545191,959,0.998958,71,B4,96,1
124800,126.545191,239,0.248958,31,G1,96,2
125040,126.795191,239,0.248958,43,G2,96,2
125280,127.045191,239,0.248958,50,D3,96,2
125520,127.295191,239,0.248958,53,F3,96,2
125760,127.545191,959,0.998958,67,G4,96,1
125760,127.545191,239,0.248958,55,G3,96,2
126000,127.795191,239,0.248958,59,B3,96,2
126240,128.045191,239,0.248958,62,D4,96,2
126480,128.295191,239,0.248958,65,F4,96,2
126720,128.545191,3839,4.141735,72,C5,91,1
126720,128.545191,159,0.165625,79,G5,91,1
126720,128.545191,959,0.998958,67,G4,91,2
126720,128.545191,959,0.998958,64,E4,91,2
126880,128.711857,159,0.165625,77,F5,91,1
127040,128.878524,159,0.165625,79,G5,91,1
127200,129.045191,959,0.998958,76,E5,91,1
127680,129.545191,959,0.998958,69,A4,86,2
127680,129.545191,959,0.998958,65,F4,86,2
128160,130.045191,479,0.498958,74,D5,86,1
128640,130.545191,959,1.070309,76,E5,81,1
128640,130.545191,959,1.070309,70,A4#,81,2
128640,130.545191,959,1.070309,67,G4,81,2
129600,131.616617,959,1.070309,77,F5,76,1
129600,131.616617,959,1.070309,69,A4,76,2
129600,131.616617,959,1.070309,65,F4,76,2
130560,132.688043,2879,4.164929,72,C5,70,1
130560,132.688043,159,0.207031,79,G5,70,1
130560,132.688043,3599,5.414929,64,E4,70,2
130560,132.688043,1919,2.498697,67,G4,70,2
130720,132.896376,159,0.207031,77,F5,70,1
130880,133.104709,159,0.207031,79,G5,70,1
131040,133.313043,959,1.248697,76,E5,70,1
132000,134.563043,479,0.623697,79,G5,64,1
132480,135.188043,159,0.276041,80,G5#,58,1
132480,135.188043,1919,3.331595,68,G4#,58,2
132640,135.46582,159,0.276042,78,F5#,58,1
132800,135.743598,159,0.276041,80,G5#,58,1
132960,136.021376,959,1.664929,76,E5,52,1
133440,136.854709,959,1.664929,73,C5#,52,1
133920,137.688042,479,0.831596,80,G5#,52,1
134160,138.104708,239,0.41493,63,D4#,52,2
134400,138.521375,959,0.998958,81,A5,49,1
134400,138.521375,159,0.165625,61,C4#,49,2
134560,138.688041,159,0.165625,64,E4,49,2
134720,138.854708,159,0.165625,69,A4,49,2
134880,139.021375,159,0.165625,73,C5#,49,2
135040,139.188041,159,0.165625,76,E5,49,2
135200,139.354708,159,0.165625,78,F5#,49,2
135360,139.521375,959,0.998958,80,G5#,49,1
135360,139.521375,159,0.165625,80,G5#,49,2
135520,139.688041,159,0.165625,75,D5#,49,2
135680,139.854708,159,0.165625,71,B4,49,2
135840,140.021375,159,0.165625,68,G4#,49,2
136000,140.188041,159,0.165625,63,D4#,49,2
136160,140.354708,159,0.165625,59,B3,49,2
136320,140.521375,959,0.998958,78,F5#,49,1
136320,140.521375,159,0.165625,57,A3,49,2
136480,140.688041,159,0.165625,61,C4#,49,2
136640,140.854708,159,0.165625,66,F4#,49,2
136800,141.021375,159,0.165625,69,A4,49,2
136960,141.188041,159,0.165625,73,C5#,49,2
137120,141.354708,159,0.165625,75,D5#,49,2
137280,141.521375,959,0.998958,76,E5,49,1
137280,141.521375,159,0.165625,76,E5,49,2
137440,141.688041,159,0.165625,71,B4,49,2
137600,141.854708,159,0.165625,68,G4#,49,2
137760,142.021375,159,0.165625,64,E4,49,2
137920,142.188041,159,0.165625,59,B3,49,2
138080,142.354708,159,0.165625,56,G3#,49,2
138240,142.521375,159,0.165625,54,F3#,49,2
138240,142.521375,159,0.165625,54,F3#,49,2
138400,142.688041,159,0.165625,57,A3,49,2
138560,142.854708,639,0.665625,61,C4#,49,2
138720,143.021375,479,0.498958,73,C5#,49,1
138880,143.188041,159,0.165625,66,F4#,49,1
139040,143.354708,639,0.665625,69,A4,49,1
139200,143.521375,479,0.498958,78,F5#,49,1
139200,143.521375,159,0.165625,52,E3,49,2
139200,143.521375,159,0.165625,52,E3,49,2
139360,143.688041,159,0.165625,57,A3,49,2
139520,143.854708,639,0.665625,61,C4#,49,2
139680,144.021375,479,0.498958,73,C5#,49,1
139840,144.188041,159,0.165625,66,F4#,49,1
140000,144.354708,639,0.665625,69,A4,49,1
140160,144.521375,479,0.498958,73,C5#,49,1
140160,144.521375,159,0.165625,51,D3#,49,2
140160,144.521375,159,0.165625,51,D3#,49,2
140320,144.688041,159,0.165625,57,A3,49,2
140480,144.854708,639,0.665625,61,C4#,49,2
140640,145.021375,479,0.498958,73,C5#,49,1
140800,145.188041,159,0.165625,66,F4#,49,1
140960,145.354708,639,0.665625,69,A4,49,1
141120,145.521375,479,0.498958,78,F5#,49,1
141120,145.521375,159,0.165625,49,C3#,49,2
141120,145.521375,159,0.165625,49,C3#,49,2
141280,145.688041,159,0.165625,57,A3,49,2
141440,145.854708,639,0.665625,64,E4,49,2
141600,146.021375,479,0.498958,81,A5,49,1
141760,146.188041,159,0.165625,69,A4,49,1
141920,146.354708,159,0.165625,73,C5#,49,1
142080,146.521375,159,0.165625,47,B2,49,2
142240,146.688041,159,0.165625,54,F3#,49,2
142400,146.854708,159,0.165625,57,A3,49,2
142560,147.021375,1119,1.332031,81,A5,49,1
142560,147.021375,159,0.165625,61,C4#,49,2
142720,147.188041,159,0.165625,63,D4#,49,2
142880,147.354708,159,0.165625,66,F4#,49,2
143040,147.521375,159,0.207031,69,A4,49,2
143200,147.729708,159,0.207031,73,C5#,49,2
143360,147.938041,159,0.207031,75,D5#,49,2
143520,148.146375,159,0.207031,73,C5#,49,2
143680,148.354708,159,0.207031,80,G5#,49,1
143680,148.354708,159,0.207031,71,B4,49,2
143840,148.563041,159,0.207031,78,F5#,49,1
143840,148.563041,159,0.207031,69,A4,49,2
144000,148.771375,239,0.248958,40,E2,49,2
144240,149.021375,239,0.248958,47,B2,49,2
144480,149.271375,159,0.165625,76,E5,49,1
144480,149.271375,239,0.248958,52,E3,49,2
144640,149.438041,159,0.165625,78,F5#,49,1
144720,149.521375,239,0.248958,56,G3#,49,2
144800,149.604708,159,0.165625,73,C5#,49,1
144960,149.771375,159,0.165625,76,E5,49,1
144960,149.771375,239,0.248958,59,B3,49,2
145120,149.938041,159,0.165625,71,B4,49,1
145200,150.021375,239,0.248958,56,G3#,49,2
145280,150.104708,159,0.165625,73,C5#,49,1
145440,150.271375,159,0.165625,68,G4#,49,1
145440,150.271375,239,0.248958,52,E3,49,2
145600,150.438041,159,0.165625,71,B4,49,1
145680,150.521375,239,0.248958,47,B2,49,2
145760,150.604708,159,0.165625,66,F4#,49,1
145920,150.771375,159,0.165625,68,G4#,49,1
145920,150.771375,239,0.248958,40,E2,49,2
146080,150.938041,159,0.165625,64,E4,49,1
146160,151.021375,239,0.248958,49,C3#,49,2
146240,151.104708,159,0.165625,68,G4#,49,1
146400,151.271375,959,0.998958,63,D4#,49,1
146400,151.271375,239,0.248958,52,E3,49,2
146640,151.521375,239,0.248958,56,G3#,49,2
146880,151.771375,239,0.248958,61,C4#,49,2
147120,152.021375,239,0.248958,56,G3#,49,2
147360,152.271375,479,0.498958,61,C4#,49,1
147360,152.271375,239,0.248958,52,E3,49,2
147600,152.521375,239,0.248958,49,C3#,49,2
147840,152.771375,479,0.498958,59,B3,49,1
147840,152.771375,239,0.248958,40,E2,49,2
148080,153.021375,239,0.248958,47,B2,49,2
148320,153.271375,159,0.165625,76,E5,49,1
148320,153.271375,239,0.248958,52,E3,49,2
148480,153.438041,159,0.165625,78,F5#,49,1
148560,153.521375,239,0.248958,56,G3#,49,2
148640,153.604708,159,0.165625,73,C5#,49,1
148800,153.771375,159,0.165625,76,E5,49,1
148800,153.771375,239,0.248958,59,B3,49,2
148960,153.938041,159,0.165625,71,B4,49,1
149040,154.021375,239,0.248958,56,G3#,49,2
149120,154.104708,159,0.165625,73,C5#,49,1
149280,154.271375,159,0.165625,68,G4#,49,1
149280,154.271375,239,0.248958,52,E3,49,2
149440,154.438041,159,0.165625,71,B4,49,1
149520,154.521375,239,0.248958,47,B2,49,2
149600,154.604708,159,0.165625,66,F4#,49,1
149760,154.771375,159,0.165625,68,G4#,49,1
149760,154.771375,239,0.248958,40,E2,49,2
149920,154.938041,159,0.165625,64,E4,49,1
150000,155.021375,239,0.248958,49,C3#,49,2
150080,155.104708,159,0.165625,68,G4#,49,1
150240,155.271375,959,0.998958,63,D4#,49,1
150240,155.271375,239,0.248958,52,E3,49,2
150480,155.521375,239,0.248958,56,G3#,49,2
150720,155.771375,239,0.248958,61,C4#,49,2
150960,156.021375,239,0.248958,56,G3#,49,2
151200,156.271375,479,0.498958,61,C4#,49,1
151200,156.271375,239,0.248958,52,E3,49,2
151440,156.521375,239,0.248958,49,C3#,49,2
151680,156.771375,159,0.165625,59,B3,49,1
151680,156.771375,239,0.248958,42,F2#,49,2
151840,156.938041,159,0.165625,57,A3,49,1
151920,157.021375,239,0.248958,49,C3#,49,2
152000,157.104708,159,0.165625,59,B3,49,1
152160,157.271375,719,0.748958,61,C4#,49,1
152160,157.271375,239,0.248958,52,E3,49,2
152400,157.521375,239,0.248958,54,F3#,49,2
152640,157.771375,239,0.248958,57,A3,49,2
152880,158.021375,239,0.248958,64,E4,49,1
152880,158.021375,239,0.248958,54,F3#,49,2
153120,158.271375,239,0.248958,63,D4#,49,1
153120,158.271375,239,0.248958,52,E3,49,2
153360,158.521375,239,0.248958,64,E4,49,1
153360,158.521375,239,0.248958,47,B2,49,2
153600,158.771375,479,0.498958,61,C4#,49,1
153600,158.771375,239,0.248958,44,G2#,49,2
153840,159.021375,239,0.248958,49,C3#,49,2
154080,159.271375,959,0.998958,68,G4#,49,1
154080,159.271375,239,0.248958,52,E3,49,2
154320,159.521375,239,0.248958,56,G3#,49,2
154560,159.771375,239,0.248958,59,B3,49,2
154800,160.021375,239,0.248958,56,G3#,49,2
155040,160.271375,479,0.498958,64,E4,49,1
155040,160.271375,239,0.248958,52,E3,49,2
155280,160.521375,239,0.248958,49,C3#,49,2
155520,160.771375,159,0.165625,63,D4#,49,1
155520,160.771375,239,0.248958,45,A2,49,2
155680,160.938041,159,0.165625,61,C4#,49,1
155760,161.021375,239,0.248958,52,E3,49,2
155840,161.104708,159,0.165625,63,D4#,49,1
156000,161.271375,719,0.748958,64,E4,49,1
156000,161.271375,239,0.248958,54,F3#,49,2
156240,161.521375,239,0.248958,57,A3,49,2
156480,161.771375,239,0.248958,61,C4#,49,2
156720,162.021375,239,0.248958,68,G4#,49,1
156720,162.021375,239,0.248958,57,A3,49,2
156960,162.271375,239,0.248958,66,F4#,49,1
156960,162.271375,239,0.248958,54,F3#,49,2
157200,162.521375,239,0.248958,68,G4#,49,1
157200,162.521375,239,0.248958,52,E3,49,2
157440,162.771375,479,0.498958,64,E4,49,1
157440,162.771375,239,0.248958,46,A2#,49,2
157680,163.021375,239,0.248958,52,E3,49,2
157920,163.271375,959,0.998958,73,C5#,49,1
157920,163.271375,239,0.248958,56,G3#,49,2
158160,163.521375,239,0.248958,61,C4#,49,2
158400,163.771375,239,0.248958,49,C3#,49,2
158640,164.021375,239,0.248958,54,F3#,49,2
158880,164.271375,159,0.165625,70,A4#,49,1
158880,164.271375,239,0.248958,58,A3#,49,2
159040,164.438041,159,0.165625,73,C5#,49,1
159120,164.521375,239,0.248958,64,E4,49,2
159200,164.604708,159,0.165625,70,A4#,49,1
159360,164.771375,479,0.460576,68,G4#,49,1
159360,164.771375,239,0.229807,52,E3,49,2
159600,165.002144,239,0.229807,58,A3#,49,2
159840,165.232913,959,0.922114,76,E5,49,1
159840,165.232913,239,0.229807,61,C4#,49,2
160080,165.463682,239,0.229807,68,G4#,49,2
160320,165.694451,239,0.229807,54,F3#,49,2
160560,165.92522,239,0.229807,61,C4#,49,2
160800,166.155989,159,0.152884,73,C5#,49,1
160800,166.155989,239,0.229807,64,E4,49,2
160960,166.309835,159,0.152884,76,E5,49,1
161040,166.386758,239,0.229807,70,A4#,49,2
161120,166.463681,159,0.152884,73,C5#,49,1
161280,166.617527,719,0.691345,80,G5#,49,1
161280,166.617527,239,0.229807,58,A3#,49,2
161520,166.848296,239,0.229807,64,E4,49,2
161760,167.079065,239,0.229807,68,G4#,49,2
162000,167.309834,239,0.229807,78,F5#,49,1
162000,167.309834,239,0.229807,73,C5#,49,2
162240,167.540603,719,0.691345,80,G5#,49,1
162240,167.540603,239,0.229807,61,C4#,49,2
162480,167.771372,239,0.229807,66,F4#,49,2
162720,168.002141,239,0.229807,70,A4#,49,2
162960,168.23291,239,0.229807,78,F5#,49,1
162960,168.23291,239,0.229807,76,E5,49,2
163200,168.463679,719,0.691345,80,G5#,49,1
163200,168.463679,239,0.229807,58,A3#,49,2
163440,168.694448,239,0.229807,64,E4,49,2
163680,168.925217,239,0.229807,68,G4#,49,2
163920,169.155986,239,0.229807,78,F5#,49,1
163920,169.155986,239,0.229807,73,C5#,49,2
164160,169.386755,239,0.298749,80,G5#,49,1
164160,169.386755,239,0.298749,61,C4#,49,2
164400,169.686754,479,0.598749,78,F5#,49,1
164400,169.686754,239,0.29875,66,F4#,49,2
164640,169.986754,239,0.298749,70,A4#,49,2
164880,170.286753,239,0.29875,80,G5#,49,1
164880,170.286753,239,0.29875,76,E5,49,2
165120,170.586753,959,0.998958,81,A5,49,1
165120,170.586753,159,0.165625,61,C4#,49,2
165280,170.753419,159,0.165625,64,E4,49,2
165440,170.920086,159,0.165625,69,A4,49,2
165600,171.086753,159,0.165625,73,C5#,49,2
165760,171.253419,159,0.165625,76,E5,49,2
165920,171.420086,159,0.165625,78,F5#,49,2
166080,171.586753,959,0.998958,80,G5#,49,1
166080,171.586753,159,0.165625,80,G5#,49,2
166240,171.753419,159,0.165625,75,D5#,49,2
166400,171.920086,159,0.165625,71,B4,49,2
166560,172.086753,159,0.165625,68,G4#,49,2
166720,172.253419,159,0.165625,63,D4#,49,2
166880,172.420086,159,0.165625,59,B3,49,2
167040,172.586753,959,0.998958,78,F5#,49,1
167040,172.586753,159,0.165625,57,A3,49,2
167200,172.753419,159,0.165625,61,C4#,49,2
167360,172.920086,159,0.165625,66,F4#,49,2
167520,173.086753,159,0.165625,69,A4,49,2
167680,173.253419,159,0.165625,73,C5#,49,2
167840,173.420086,159,0.165625,75,D5#,49,2
168000,173.586753,959,0.998958,76,E5,49,1
168000,173.586753,159,0.165625,76,E5,49,2
168160,173.753419,159,0.165625,71,B4,49,2
168320,173.920086,159,0.165625,68,G4#,49,2
168480,174.086753,159,0.165625,64,E4,49,2
168640,174.253419,159,0.165625,59,B3,49,2
168800,174.420086,159,0.165625,56,G3#,49,2
168960,174.586753,479,0.498958,81,A5,49,1
168960,174.586753,159,0.165625,61,C4#,49,2
168960,174.586753,159,0.165625,61,C4#,49,2
169120,174.753419,159,0.165625,64,E4,49,2
169280,174.920086,159,0.165625,69,A4,49,2
169440,175.086753,479,0.498958,76,E5,49,1
169440,175.086753,239,0.248958,83,B5,49,1
169440,175.086753,159,0.165625,73,C5#,49,2
169600,175.253419,159,0.165625,69,A4,49,2
169680,175.336753,239,0.248958,85,C6#,49,1
169760,175.420086,159,0.165625,64,E4,49,2
169920,175.586753,239,0.248958,81,A5,49,1
169920,175.586753,159,0.165625,59,B3,49,2
169920,175.586753,159,0.165625,59,B3,49,2
170080,175.753419,159,0.165625,63,D4#,49,2
170160,175.836753,239,0.248958,80,G5#,49,1
170240,175.920086,159,0.165625,68,G4#,49,2
170400,176.086753,479,0.498958,75,D5#,49,1
170400,176.086753,239,0.248958,81,A5,49,1
170400,176.086753,159,0.165625,71,B4,49,2
170560,176.253419,159,0.165625,68,G4#,49,2
170640,176.336753,719,0.748958,80,G5#,49,1
170720,176.420086,159,0.165625,63,D4#,49,2
170880,176.586753,959,0.998958,73,C5#,49,1
170880,176.586753,159,0.165625,57,A3,49,2
170880,176.586753,159,0.165625,57,A3,49,2
171040,176.753419,159,0.165625,61,C4#,49,2
171200,176.920086,159,0.165625,66,F4#,49,2
171360,177.086753,959,0.998958,78,F5#,49,1
171360,177.086753,159,0.165625,69,A4,49,2
171520,177.253419,159,0.165625,66,F4#,49,2
171680,177.420086,159,0.165625,61,C4#,49,2
171840,177.586753,959,0.998958,71,B4,49,1
171840,177.586753,159,0.165625,56,G3#,49,2
171840,177.586753,159,0.165625,56,G3#,49,2
172000,177.753419,159,0.165625,59,B3,49,2
172160,177.920086,159,0.165625,64,E4,49,2
172320,178.086753,719,0.748958,76,E5,49,1
172320,178.086753,159,0.165625,68,G4#,49,2
172480,178.253419,159,0.165625,64,E4,49,2
172640,178.420086,159,0.165625,59,B3,49,2
172800,178.586753,159,0.165625,54,F3#,49,2
172800,178.586753,159,0.165625,54,F3#,49,2
172960,178.753419,159,0.165625,57,A3,49,2
173040,178.836753,239,0.248958,74,D5,49,1
173120,178.920086,159,0.165625,62,D4,49,2
173280,179.086753,479,0.498958,69,A4,49,1
173280,179.086753,239,0.248958,76,E5,49,1
173280,179.086753,159,0.165625,66,F4#,49,2
173440,179.253419,159,0.165625,62,D4,49,2
173520,179.336753,239,0.248958,78,F5#,49,1
173600,179.420086,159,0.165625,57,A3,49,2
173760,179.586753,239,0.248958,74,D5,49,1
173760,179.586753,159,0.165625,52,E3,49,2
173760,179.586753,159,0.165625,52,E3,49,2
173920,179.753419,159,0.165625,56,G3#,49,2
174000,179.836753,239,0.248958,73,C5#,49,1
174080,179.920086,159,0.165625,61,C4#,49,2
174240,180.086753,479,0.498958,68,G4#,49,1
174240,180.086753,239,0.248958,74,D5,49,1
174240,180.086753,159,0.165625,64,E4,49,2
174400,180.253419,159,0.165625,61,C4#,49,2
174480,180.336753,719,0.748958,73,C5#,49,1
174560,180.420086,159,0.165625,56,G3#,49,2
174720,180.586753,959,0.998958,66,F4#,49,1
174720,180.586753,159,0.165625,50,D3,49,2
174720,180.586753,159,0.165625,50,D3,49,2
174880,180.753419,159,0.165625,54,F3#,49,2
175040,180.920086,159,0.165625,59,B3,49,2
175200,181.086753,959,0.998958,71,B4,49,1
175200,181.086753,159,0.165625,62,D4,49,2
175360,181.253419,159,0.165625,59,B3,49,2
175520,181.420086,159,0.165625,54,F3#,49,2
175680,181.586753,959,0.998958,64,E4,49,1
175680,181.586753,159,0.165625,49,C3#,49,2
175680,181.586753,159,0.165625,49,C3#,49,2
175840,181.753419,159,0.165625,52,E3,49,2
176000,181.920086,159,0.165625,57,A3,49,2
176160,182.086753,719,0.748958,69,A4,49,1
176160,182.086753,159,0.165625,61,C4#,49,2
176320,182.253419,159,0.165625,57,A3,49,2
176480,182.420086,159,0.165625,52,E3,49,2
176640,182.586753,959,0.998958,62,D4,49,1
176640,182.586753,159,0.165625,47,B2,49,2
176640,182.586753,159,0.165625,47,B2,49,2
176800,182.753419,159,0.165625,53,F3,49,2
176880,182.836753,239,0.248958,68,G4#,49,1
176960,182.920086,159,0.165625,56,G3#,49,2
177120,183.086753,239,0.248958,69,A4,49,1
177120,183.086753,159,0.165625,59,B3,49,2
177280,183.253419,159,0.165625,56,G3#,49,2
177360,183.336753,239,0.248958,68,G4#,49,1
177440,183.420086,159,0.165625,53,F3,49,2
177600,183.586753,959,0.998958,61,C4#,49,1
177600,183.586753,239,0.248958,73,C5#,49,1
177600,183.586753,159,0.165625,45,A2,49,2
177600,183.586753,159,0.165625,45,A2,49,2
177760,183.753419,159,0.165625,49,C3#,49,2
177840,183.836753,239,0.248958,69,A4,49,1
177920,183.920086,159,0.165625,54,F3#,49,2
178080,184.086753,719,0.748958,66,F4#,49,1
178080,184.086753,159,0.165625,57,A3,49,2
178240,184.253419,159,0.165625,54,F3#,49,2
178400,184.420086,159,0.165625,49,C3#,49,2
178560,184.586753,959,0.998958,59,B3,49,1
178560,184.586753,159,0.165625,44,G2#,49,2
178560,184.586753,159,0.165625,44,G2#,49,2
178720,184.753419,159,0.165625,47,B2,49,2
178800,184.836753,239,0.248958,64,E4,49,1
178880,184.920086,159,0.165625,52,E3,49,2
179040,185.086753,239,0.248958,66,F4#,49,1
179040,185.086753,159,0.165625,56,G3#,49,2
179200,185.253419,159,0.165625,52,E3,49,2
179280,185.336753,239,0.248958,64,E4,49,1
179360,185.420086,159,0.165625,47,B2,49,2
179520,185.586753,1919,1.998958,69,A4,49,1
179520,185.586753,159,0.165625,42,F2#,49,2
179680,185.753419,159,0.165625,49,C3#,49,2
179840,185.920086,159,0.165625,52,E3,49,2
180000,186.086753,159,0.165625,54,F3#,49,2
180160,186.253419,159,0.165625,57,A3,49,2
180320,186.420086,159,0.165625,59,B3,49,2
180480,186.586753,159,0.165625,61,C4#,49,2
180640,186.753419,159,0.165625,64,E4,49,2
180800,186.920086,159,0.165625,69,A4,49,2
180960,187.086753,159,0.165625,71,B4,49,2
181120,187.253419,159,0.165625,73,C5#,49,2
181280,187.420086,159,0.165625,76,E5,49,2
181440,187.586753,1919,1.998958,69,A4,49,1
181440,187.586753,159,0.165625,81,A5,49,2
181600,187.753419,159,0.165625,83,B5,49,2
181760,187.920086,159,0.165625,85,C6#,49,2
181920,188.086753,159,0.165625,88,E6,49,2
182080,188.253419,159,0.165625,85,C6#,49,2
182240,188.420086,159,0.165625,83,B5,49,2
182400,188.586753,159,0.165625,81,A5,49,2
182560,188.753419,159,0.165625,76,E5,49,2
182720,188.920086,159,0.165625,73,C5#,49,2
182880,189.086753,159,0.165625,71,B4,49,2
183040,189.253419,159,0.165625,69,A4,49,2
183200,189.420086,159,0.165625,64,E4,49,2
183360,189.586753,1919,1.998958,68,G4#,49,1
183360,189.586753,159,0.165625,35,B1,49,2
183520,189.753419,159,0.165625,47,B2,49,2
183680,189.920086,159,0.165625,51,D3#,49,2
183840,190.086753,159,0.165625,56,G3#,49,2
184000,190.253419,159,0.165625,59,B3,49,2
184160,190.420086,159,0.165625,63,D4#,49,2
184320,190.586753,159,0.165625,68,G4#,49,2
184480,190.753419,159,0.165625,71,B4,49,2
184640,190.920086,159,0.165625,75,D5#,49,2
184800,191.086753,159,0.165625,80,G5#,49,2
184960,191.253419,159,0.165625,83,B5,49,2
185120,191.420086,159,0.165625,71,B4,49,2
185280,191.586753,1919,1.998958,66,F4#,49,1
185280,191.586753,159,0.165625,35,B1,49,2
185440,191.753419,159,0.165625,47,B2,49,2
185600,191.920086,159,0.165625,51,D3#,49,2
185760,192.086753,159,0.165625,57,A3,49,2
185920,192.253419,159,0.165625,59,B3,49,2
186080,192.420086,159,0.165625,63,D4#,49,2
186240,192.586753,159,0.165625,69,A4,49,2
186400,192.753419,159,0.165625,71,B4,49,2
186560,192.920086,159,0.165625,75,D5#,49,2
186720,193.086753,159,0.165625,81,A5,49,2
186880,193.253419,159,0.165625,83,B5,49,2
187040,193.420086,159,0.165625,71,B4,49,2
187200,193.586753,479,0.498958,64,E4,49,1
187200,193.586753,239,0.248958,40,E2,49,2
187440,193.836753,239,0.248958,47,B2,49,2
187680,194.086753,159,0.165625,88,E6,49,1
187680,194.086753,239,0.248958,52,E3,49,2
187840,194.253419,159,0.165625,90,F6#,49,1
187920,194.336753,239,0.248958,56,G3#,49,2
188000,194.420086,159,0.165625,85,C6#,49,1
188160,194.586753,159,0.165625,88,E6,49,1
188160,194.586753,239,0.248958,59,B3,49,2
188320,194.753419,159,0.165625,83,B5,49,1
188400,194.836753,239,0.248958,56,G3#,49,2
188480,194.920086,159,0.165625,85,C6#,49,1
188640,195.086753,159,0.165625,80,G5#,49,1
188640,195.086753,239,0.248958,52,E3,49,2
188800,195.253419,159,0.165625,83,B5,49,1
188880,195.336753,239,0.248958,47,B2,49,2
188960,195.420086,159,0.165625,78,F5#,49,1
189120,195.586753,159,0.165625,80,G5#,49,1
189120,195.586753,239,0.248958,40,E2,49,2
189280,195.753419,159,0.165625,76,E5,49,1
189360,195.836753,239,0.248958,49,C3#,49,2
189440,195.920086,159,0.165625,80,G5#,49,1
189600,196.086753,959,0.998958,75,D5#,49,1
189600,196.086753,239,0.248958,52,E3,49,2
189840,196.336753,239,0.248958,56,G3#,49,2
190080,196.586753,239,0.248958,61,C4#,49,2
190320,196.836753,239,0.248958,56,G3#,49,2
190560,197.086753,479,0.498958,73,C5#,49,1
190560,197.086753,239,0.248958,52,E3,49,2
190800,197.336753,239,0.248958,51,D3#,49,2
191040,197.586753,479,0.498958,71,B4,49,1
191040,197.586753,239,0.248958,40,E2,49,2
191280,197.836753,239,0.248958,47,B2,49,2
191520,198.086753,159,0.165625,76,E5,33,1
191520,198.086753,239,0.248958,52,E3,33,2
191680,198.253419,159,0.165625,78,F5#,33,1
191760,198.336753,239,0.248958,56,G3#,33,2
191840,198.420086,159,0.165625,73,C5#,33,1
192000,198.586753,159,0.165625,76,E5,33,1
192000,198.586753,239,0.248958,59,B3,33,2
192160,198.753419,159,0.165625,71,B4,33,1
192240,198.836753,239,0.248958,56,G3#,33,2
192320,198.920086,159,0.165625,73,C5#,33,1
192480,199.086753,159,0.165625,68,G4#,33,1
192480,199.086753,239,0.248958,52,E3,33,2
192640,199.253419,159,0.165625,71,B4,33,1
192720,199.336753,239,0.248958,47,B2,33,2
192800,199.420086,159,0.165625,66,F4#,33,1
192960,199.586753,159,0.165625,68,G4#,33,1
192960,199.586753,239,0.248958,40,E2,33,2
193120,199.753419,159,0.165625,64,E4,33,1
193200,199.836753,239,0.248958,49,C3#,33,2
193280,199.920086,159,0.165625,68,G4#,33,1
193440,200.086753,959,0.998958,63,D4#,33,1
193440,200.086753,239,0.248958,52,E3,33,2
193680,200.336753,239,0.248958,56,G3#,33,2
193920,200.586753,239,0.248958,61,C4#,33,2
194160,200.836753,239,0.248958,56,G3#,33,2
194400,201.086753,479,0.498958,61,C4#,33,1
194400,201.086753,239,0.248958,52,E3,33,2
194640,201.336753,239,0.248958,51,D3#,33,2
194880,201.586753,479,0.498958,40,E2,33,2
195040,201.753419,159,0.165625,59,B3,33,1
195200,201.920086,159,0.165625,52,E3,33,1
195360,202.086753,479,0.498958,47,B2,33,2
195520,202.253419,159,0.165625,61,C4#,33,1
195680,202.420086,159,0.165625,56,G3#,33,1
195840,202.586753,479,0.498958,52,E3,33,2
196000,202.753419,159,0.165625,64,E4,33,1
196160,202.920086,159,0.165625,59,B3,33,1
196320,203.086753,479,0.498958,56,G3#,33,2
196480,203.253419,159,0.165625,66,F4#,33,1
196640,203.420086,159,0.165625,61,C4#,33,1
196800,203.586753,479,0.498958,52,E3,33,2
196960,203.753419,159,0.165625,71,B4,33,1
197120,203.920086,159,0.165625,64,E4,33,1
197280,204.086753,479,0.498958,59,B3,33,2
197440,204.253419,159,0.165625,73,C5#,33,1
197600,204.420086,159,0.165625,68,G4#,33,1
197760,204.586753,479,0.498958,64,E4,33,2
197920,204.753419,159,0.165625,76,E5,33,1
198080,204.920086,159,0.165625,71,B4,33,1
198240,205.086753,479,0.498958,68,G4#,33,2
198400,205.253419,159,0.165625,78,F5#,33,1
198560,205.420086,159,0.165625,73,C5#,33,1
198720,205.586753,479,0.498958,64,E4,33,2
198880,205.753419,159,0.165625,83,B5,33,1
199040,205.920086,159,0.165625,76,E5,33,1
199200,206.086753,479,0.498958,71,B4,33,2
199360,206.253419,159,0.165625,85,C6#,33,1
199520,206.420086,159,0.165625,80,G5#,33,1
199680,206.586753,479,0.498958,76,E5,33,2
199840,206.753419,159,0.165625,88,E6,33,1
200000,206.920086,159,0.165625,83,B5,33,1
200160,207.086753,479,0.498958,80,G5#,33,2
200320,207.253419,159,0.165625,90,F6#,33,1
200480,207.420086,159,0.165625,85,C6#,33,1
200640,207.586753,479,0.623697,92,G6#,33,1
200640,207.586753,479,0.623697,88,E6,33,1
200640,207.586753,479,0.623697,83,B5,33,2
200640,207.586753,479,0.623697,76,E5,33,2
201120,208.211753,959,1.248697,92,G6#,33,1
201120,208.211753,959,1.248697,88,E6,33,1
201120,208.211753,959,1.248697,83,B5,33,2
201120,208.211753,959,1.248697,76,E5,33,2
202080,209.461753,479,0.831596,92,G6#,33,1
202080,209.461753,479,0.831596,88,E6,33,1
202080,209.461753,479,0.831596,83,B5,33,2
202080,209.461753,479,0.831596,76,E5,33,2
202560,210.295086,479,0.831596,64,E4,33,1
202560,210.295086,479,0.831596,52,E3,33,2
202560,210.295086,479,0.831596,40,E2,33,2
