start_ticks,start_secs,dur_ticks,dur_secs,pitch,fullNoteOctave,velocity,part
0,0.0,239,0.398333,73,C5#,49,1
0,0.0,239,0.398333,69,A4,49,1
0,0.0,455,0.758333,45,A2,49,2
0,0.0,455,0.758333,52,E3,49,2
240,0.4,227,0.378333,71,B4,49,1
240,0.4,227,0.378333,68,G4#,49,1
480,0.8,239,0.398333,66,F4#,49,1
480,0.8,959,1.598333,74,D5,49,1
480,0.8,239,0.398333,66,F4#,49,1
480,0.8,455,0.758333,33,A1,49,2
720,1.2,227,0.378333,62,D4,49,1
960,1.6,239,0.398333,57,A3,49,1
1200,2.0,227,0.378333,54,F3#,49,1
1440,2.4,239,0.398333,73,C5#,49,1
1440,2.4,239,0.398333,69,A4,49,1
1440,2.4,455,0.758333,45,A2,49,2
1440,2.4,455,0.758333,50,D3,49,2
1680,2.8,227,0.378333,71,B4,49,1
1680,2.8,227,0.378333,68,G4#,49,1
1920,3.2,911,1.518333,66,F4#,49,1
1920,3.2,911,1.518333,66,F4#,49,1
1920,3.2,239,0.398333,33,A1,49,2
1983,3.305,895,1.491666,81,A5,49,1
2160,3.6,227,0.378333,50,D3,49,2
2400,4.0,239,0.398333,45,A2,49,2
2640,4.4,227,0.378333,42,F2#,49,2
2880,4.8,359,0.598333,69,A4,49,1
2880,4.8,479,0.798333,66,F4#,49,1
2880,4.8,239,0.398333,38,D2,49,2
3120,5.2,227,0.378333,50,D3,49,2
3240,5.4,113,0.188333,71,B4,54,1
3360,5.6,359,0.598333,71,B4,56,1
3360,5.6,479,0.798333,64,E4,56,1
3360,5.6,479,0.798333,68,G4#,56,1
3360,5.6,239,0.398333,50,D3,49,2
3360,5.6,239,0.398333,52,E3,49,2
3360,5.6,239,0.398333,56,G3#,49,2
3600,6.0,227,0.378333,59,B3,49,2
3720,6.2,113,0.188333,76,E5,62,1
3840,6.4,455,0.758333,76,E5,64,1
3840,6.4,455,0.758333,64,E4,64,1
3840,6.4,455,0.758333,69,A4,64,1
3840,6.4,239,0.398333,49,C3#,49,2
3840,6.4,239,0.398333,52,E3,49,2
4080,6.8,227,0.378333,57,A3,49,2
4320,7.2,455,0.758333,74,D5,59,1
4320,7.2,455,0.758333,66,F4#,59,1
4320,7.2,239,0.398333,35,B1,49,2
4560,7.6,227,0.378333,50,D3,49,2
4800,8.0,455,0.758333,69,A4,54,1
4800,8.0,455,0.758333,61,C4#,54,1
4800,8.0,239,0.398333,40,E2,49,2
5040,8.4,227,0.378333,52,E3,49,2
5280,8.8,455,0.758333,68,G4#,49,1
5280,8.8,455,0.758333,59,B3,49,1
5280,8.8,239,0.398333,52,E3,49,2
5280,8.8,239,0.398333,52,E3,49,2
5520,9.2,227,0.378333,54,F3#,49,2
5760,9.6,239,0.398333,73,C5#,49,1
5760,9.6,479,0.798333,64,E4,49,1
5760,9.6,455,0.758333,55,G3,49,2
5760,9.6,455,0.758333,52,E3,49,2
6000,10.0,227,0.378333,71,B4,49,1
6240,10.4,239,0.398333,69,A4,49,1
6240,10.4,959,1.598333,74,D5,49,1
6240,10.4,239,0.398333,69,A4,49,1
6240,10.4,455,0.758333,42,F2#,49,2
6480,10.8,227,0.378333,62,D4,49,1
6720,11.2,239,0.398333,57,A3,49,1
6960,11.6,227,0.378333,54,F3#,49,1
7200,12.0,239,0.398333,73,C5#,49,1
7200,12.0,479,0.798333,64,E4,49,1
7200,12.0,479,0.798333,69,A4,49,1
7200,12.0,455,0.758333,40,E2,49,2
7440,12.4,227,0.378333,71,B4,49,1
7680,12.8,911,1.518333,81,A5,49,1
7680,12.8,911,1.518333,69,A4,49,1
7680,12.8,911,1.518333,71,B4,49,1
7680,12.8,911,1.518333,78,F5#,49,1
7680,12.8,239,0.398333,39,D2#,49,2
7920,13.2,227,0.378333,47,B2,49,2
8160,13.6,239,0.398333,51,D3#,49,2
8160,13.6,239,0.398333,54,F3#,49,2
8400,14.0,227,0.378333,59,B3,49,2
8640,14.4,359,0.598333,73,C5#,49,1
8640,14.4,479,0.798333,66,F4#,49,1
8640,14.4,479,0.798333,71,B4,49,1
8640,14.4,239,0.398333,45,A2,49,2
8640,14.4,239,0.398333,47,B2,49,2
8880,14.8,227,0.378333,57,A3,49,2
9000,15.0,119,0.198333,75,D5#,54,1
9120,15.2,359,0.598333,75,D5#,56,1
9120,15.2,479,0.798333,66,F4#,56,1
9120,15.2,479,0.798333,71,B4,56,1
9120,15.2,239,0.398333,44,G2#,49,2
9120,15.2,239,0.398333,47,B2,49,2
9360,15.6,227,0.378333,56,G3#,49,2
9480,15.8,119,0.198333,76,E5,62,1
9600,16.0,479,0.798333,76,E5,64,1
9600,16.0,479,0.798333,64,E4,64,1
9600,16.0,479,0.798333,73,C5#,64,1
9600,16.0,239,0.398333,45,A2,49,2
9600,16.0,239,0.398333,54,F3#,49,2
9840,16.4,227,0.378333,57,A3,49,2
10080,16.8,479,0.798333,57,A3,58,1
10080,16.8,479,0.798333,63,D4#,58,1
10080,16.8,479,0.798333,66,F4#,58,1
10080,16.8,479,0.798333,47,B2,58,1
10080,16.8,239,0.398333,47,B2,49,2
10320,17.2,227,0.378333,54,F3#,49,2
10560,17.6,479,0.798333,57,A3,52,1
10560,17.6,479,0.798333,63,D4#,52,1
10560,17.6,479,0.798333,69,A4,52,1
10560,17.6,239,0.398333,40,E2,49,2
10560,17.6,239,0.398333,40,E2,49,2
10800,18.0,455,0.758333,47,B2,49,2
11040,18.4,455,0.758333,56,G3#,46,1
11040,18.4,455,0.758333,64,E4,46,1
11040,18.4,455,0.758333,68,G4#,46,1
11280,18.8,683,1.138333,52,E3,49,2
11520,19.2,239,0.398333,73,C5#,33,1
11520,19.2,239,0.398333,69,A4,33,1
11520,19.2,455,0.758333,45,A2,33,2
11760,19.6,227,0.378333,71,B4,33,1
11760,19.6,227,0.378333,68,G4#,33,1
12000,20.0,239,0.398333,66,F4#,33,1
12000,20.0,959,1.598333,74,D5,33,1
12000,20.0,239,0.398333,66,F4#,33,1
12000,20.0,455,0.758333,33,A1,33,2
12240,20.4,227,0.378333,62,D4,33,1
12480,20.8,239,0.398333,57,A3,33,1
12720,21.2,227,0.378333,54,F3#,33,1
12960,21.6,239,0.398333,73,C5#,33,1
12960,21.6,239,0.398333,69,A4,33,1
12960,21.6,455,0.758333,45,A2,33,2
12960,21.6,455,0.758333,50,D3,33,2
13200,22.0,227,0.378333,71,B4,33,1
13200,22.0,227,0.378333,68,G4#,33,1
13440,22.4,911,1.518333,66,F4#,33,1
13440,22.4,911,1.518333,66,F4#,33,1
13440,22.4,239,0.398333,33,A1,33,2
13503,22.505,895,1.491666,81,A5,33,1
13680,22.8,227,0.378333,50,D3,33,2
13920,23.2,239,0.398333,45,A2,33,2
14160,23.6,227,0.378333,42,F2#,33,2
14400,24.0,359,0.598333,66,F4#,33,1
14400,24.0,359,0.598333,69,A4,33,1
14400,24.0,359,0.598333,69,A4,33,1
14400,24.0,239,0.398333,38,D2,33,2
14640,24.4,227,0.378333,50,D3,33,2
14760,24.6,113,0.188333,65,F4,38,1
14760,24.6,113,0.188333,71,B4,38,1
14880,24.8,359,0.598333,65,F4,40,1
14880,24.8,359,0.598333,71,B4,40,1
14880,24.8,479,0.798333,68,G4#,40,1
14880,24.8,239,0.398333,50,D3,33,2
14880,24.8,239,0.398333,53,F3,33,2
14880,24.8,239,0.398333,56,G3#,33,2
15120,25.2,227,0.378333,59,B3,33,2
15240,25.4,113,0.188333,64,E4,46,1
15240,25.4,113,0.188333,76,E5,46,1
15360,25.6,455,0.758333,64,E4,48,1
15360,25.6,455,0.758333,76,E5,48,1
15360,25.6,227,0.378333,68,G4#,48,1
15360,25.6,239,0.398333,49,C3#,33,2
15360,25.6,239,0.398333,52,E3,33,2
15360,25.6,239,0.398333,59,B3,33,2
15600,26.0,227,0.378333,69,A4,48,1
15600,26.0,227,0.378333,57,A3,33,2
15840,26.4,455,0.758333,66,F4#,48,1
15840,26.4,455,0.758333,74,D5,48,1
15840,26.4,239,0.398333,35,B1,33,2
16080,26.8,227,0.378333,50,D3,33,2
16320,27.2,479,0.798333,69,A4,43,1
16320,27.2,479,0.798333,61,C4#,43,1
16320,27.2,239,0.398333,40,E2,33,2
16560,27.6,227,0.378333,52,E3,33,2
16800,28.0,455,0.758333,68,G4#,38,1
16800,28.0,455,0.758333,59,B3,38,1
16800,28.0,239,0.398333,52,E3,33,2
16800,28.0,239,0.398333,52,E3,33,2
17040,28.4,227,0.378333,54,F3#,33,2
17280,28.8,239,0.398333,73,C5#,33,1
17280,28.8,479,0.798333,64,E4,33,1
17280,28.8,455,0.758333,55,G3,33,2
17280,28.8,455,0.758333,52,E3,33,2
17520,29.2,227,0.378333,71,B4,33,1
17760,29.6,239,0.398333,69,A4,33,1
17760,29.6,959,1.598333,74,D5,33,1
17760,29.6,239,0.398333,69,A4,33,1
17760,29.6,455,0.758333,42,F2#,33,2
18000,30.0,227,0.378333,62,D4,33,1
18240,30.4,239,0.398333,57,A3,33,1
18480,30.8,227,0.378333,54,F3#,33,1
18720,31.2,239,0.398333,73,C5#,33,1
18720,31.2,479,0.798333,64,E4,33,1
18720,31.2,479,0.798333,69,A4,33,1
18720,31.2,455,0.758333,40,E2,33,2
18960,31.6,227,0.378333,71,B4,33,1
19200,32.0,911,1.518333,81,A5,33,1
19200,32.0,911,1.518333,69,A4,33,1
19200,32.0,911,1.518333,71,B4,33,1
19200,32.0,911,1.518333,78,F5#,33,1
19200,32.0,239,0.398333,39,D2#,33,2
19440,32.4,227,0.378333,47,B2,33,2
19680,32.8,239,0.398333,51,D3#,33,2
19680,32.8,239,0.398333,54,F3#,33,2
19920,33.2,227,0.378333,59,B3,33,2
20160,33.6,359,0.598333,68,G4#,33,1
20160,33.6,359,0.598333,73,C5#,33,1
20160,33.6,239,0.398333,45,A2,33,2
20160,33.6,239,0.398333,47,B2,33,2
20400,34.0,227,0.378333,57,A3,33,2
20520,34.2,113,0.188333,66,F4#,42,1
20520,34.2,113,0.188333,71,B4,42,1
20520,34.2,113,0.188333,75,D5#,42,1
20640,34.4,341,0.568333,66,F4#,45,1
20640,34.4,341,0.568333,71,B4,45,1
20640,34.4,341,0.568333,75,D5#,45,1
20640,34.4,239,0.398333,44,G2#,33,2
20640,34.4,239,0.398333,47,B2,33,2
20880,34.8,227,0.378333,56,G3#,33,2
21000,35.0,113,0.188333,64,E4,54,1
21000,35.0,113,0.188333,72,C5,54,1
21000,35.0,113,0.188333,76,E5,54,1
21120,35.2,455,0.758333,64,E4,58,1
21120,35.2,455,0.758333,76,E5,58,1
21120,35.2,227,0.378333,72,C5,58,1
21120,35.2,239,0.398333,45,A2,33,2
21120,35.2,239,0.398333,54,F3#,33,2
21360,35.6,227,0.378333,73,C5#,58,1
21360,35.6,227,0.378333,57,A3,33,2
21600,36.0,239,0.398333,63,D4#,58,1
21600,36.0,479,0.798333,57,A3,58,1
21600,36.0,239,0.398333,63,D4#,58,1
21600,36.0,239,0.398333,47,B2,33,2
21840,36.4,227,0.378333,69,A4,55,1
21840,36.4,227,0.378333,54,F3#,33,2
22080,36.8,479,0.798333,57,A3,51,1
22080,36.8,479,0.798333,63,D4#,51,1
22080,36.8,479,0.798333,69,A4,51,1
22080,36.8,227,0.378333,40,E2,33,2
22080,36.8,227,0.378333,40,E2,33,2
22320,37.2,227,0.378333,47,B2,33,2
22560,37.6,455,0.758333,56,G3#,43,1
22560,37.6,455,0.758333,64,E4,43,1
22560,37.6,455,0.758333,68,G4#,43,1
22560,37.6,227,0.378333,52,E3,33,2
22800,38.0,227,0.378333,47,B2,33,2
23040,38.4,479,0.798333,64,E4,49,1
23040,38.4,1439,2.398333,55,G3,49,1
23040,38.4,1439,2.398333,60,C4,49,1
23040,38.4,239,0.398333,40,E2,49,2
23040,38.4,239,0.398333,40,E2,49,2
23280,38.8,239,0.398333,43,G2,49,2
23520,39.2,479,0.798333,66,F4#,50,1
23520,39.2,239,0.398333,48,C3,49,2
23760,39.6,239,0.398333,52,E3,49,2
24000,40.0,455,0.758333,64,E4,50,1
24000,40.0,239,0.398333,48,C3,49,2
24240,40.4,227,0.378333,43,G2,49,2
24480,40.8,479,0.798333,64,E4,49,1
24480,40.8,1439,2.398333,55,G3,49,1
24480,40.8,1439,2.398333,61,C4#,49,1
24480,40.8,239,0.398333,40,E2,49,2
24480,40.8,239,0.398333,40,E2,49,2
24720,41.2,239,0.398333,43,G2,49,2
24960,41.6,479,0.798333,66,F4#,50,1
24960,41.6,239,0.398333,49,C3#,49,2
25200,42.0,239,0.398333,52,E3,49,2
25440,42.4,455,0.758333,64,E4,49,1
25440,42.4,239,0.398333,49,C3#,49,2
25680,42.8,227,0.378333,43,G2,49,2
25920,43.2,959,1.598333,64,E4,49,1
25920,43.2,479,0.798333,56,G3#,49,1
25920,43.2,959,1.598333,62,D4,49,1
25920,43.2,239,0.398333,40,E2,49,2
25920,43.2,239,0.398333,47,B2,49,2
25920,43.2,239,0.398333,40,E2,49,2
26160,43.6,239,0.398333,52,E3,49,2
26400,44.0,479,0.798333,71,B4,49,1
26400,44.0,239,0.398333,56,G3#,49,2
26400,44.0,239,0.398333,56,G3#,49,2
26640,44.4,239,0.398333,52,E3,49,2
26880,44.8,479,0.798333,69,A4,49,1
26880,44.8,479,0.798333,62,D4,49,1
26880,44.8,479,0.798333,64,E4,49,1
26880,44.8,239,0.398333,57,A3,49,2
26880,44.8,239,0.398333,57,A3,49,2
27120,45.2,239,0.398333,52,E3,49,2
27360,45.6,959,1.598333,68,G4#,50,1
27360,45.6,479,0.798333,62,D4,50,1
27360,45.6,479,0.798333,64,E4,50,1
27360,45.6,239,0.398333,59,B3,49,2
27360,45.6,239,0.398333,59,B3,49,2
27600,46.0,239,0.398333,52,E3,49,2
27840,46.4,479,0.798333,71,B4,50,1
27840,46.4,959,1.598333,62,D4,50,1
27840,46.4,227,0.378333,45,A2,49,2
27840,46.4,227,0.378333,45,A2,49,2
28080,46.8,227,0.378333,52,E3,49,2
28320,47.2,455,0.758333,64,E4,49,1
28320,47.2,227,0.378333,56,G3#,49,2
28560,47.6,227,0.378333,52,E3,49,2
28800,48.0,479,0.798333,69,A4,49,1
28800,48.0,1439,2.398333,60,C4,49,1
28800,48.0,1439,2.398333,65,F4,49,1
28800,48.0,239,0.398333,45,A2,49,2
28800,48.0,239,0.398333,45,A2,49,2
29040,48.4,239,0.398333,48,C3,49,2
29280,48.8,479,0.798333,71,B4,49,1
29280,48.8,239,0.398333,53,F3,49,2
29520,49.2,239,0.398333,57,A3,49,2
29760,49.6,455,0.758333,69,A4,48,1
29760,49.6,239,0.398333,53,F3,49,2
30000,50.0,227,0.378333,48,C3,49,2
30240,50.4,479,0.798333,69,A4,48,1
30240,50.4,1439,2.398333,60,C4,48,1
30240,50.4,1439,2.398333,63,D4#,48,1
30240,50.4,239,0.398333,41,F2,48,2
30240,50.4,239,0.398333,41,F2,48,2
30480,50.8,239,0.398333,48,C3,48,2
30720,51.2,479,0.798333,72,C5,49,1
30720,51.2,239,0.398333,51,D3#,49,2
30960,51.6,239,0.398333,57,A3,49,2
31200,52.0,455,0.758333,69,A4,48,1
31200,52.0,239,0.398333,51,D3#,48,2
31440,52.4,227,0.378333,48,C3,48,2
31680,52.8,455,0.758333,69,A4,48,1
31680,52.8,455,0.758333,60,C4,48,1
31680,52.8,455,0.758333,66,F4#,48,1
31680,52.8,239,0.398333,39,D2#,48,2
31680,52.8,239,0.398333,39,D2#,48,2
31920,53.2,239,0.398333,48,C3,48,2
32160,53.6,479,0.798333,78,F5#,48,1
32160,53.6,239,0.398333,57,A3,48,2
32400,54.0,239,0.398333,51,D3#,48,2
32640,54.4,719,1.198333,72,C5,48,1
32640,54.4,239,0.398333,57,A3,48,2
32880,54.8,239,0.398333,60,C4,48,2
33120,55.2,239,0.398333,66,F4#,48,2
33360,55.6,227,0.378333,69,A4,64,1
33360,55.6,227,0.378333,60,C4,64,2
33600,56.0,959,1.598333,68,G4#,64,1
33600,56.0,239,0.398333,57,A3,64,2
33840,56.4,239,0.398333,60,C4,64,2
34080,56.8,239,0.398333,57,A3,64,2
34320,57.2,239,0.398333,52,E3,64,2
34560,57.6,239,0.398333,66,F4#,64,1
34560,57.6,239,0.398333,48,C3,64,2
34800,58.0,227,0.378333,64,E4,64,1
34800,58.0,227,0.378333,45,A2,64,2
35040,58.4,239,0.398333,68,G4#,64,1
35040,58.4,239,0.398333,68,G4#,64,1
35040,58.4,455,0.758333,40,E2,64,2
35280,58.8,239,0.398333,59,B3,64,1
35520,59.2,239,0.398333,56,G3#,64,1
35760,59.6,239,0.398333,52,E3,64,1
36000,60.0,479,0.798333,69,A4,64,1
36000,60.0,239,0.398333,60,C4,64,1
36240,60.4,239,0.398333,57,A3,64,1
36480,60.8,239,0.398333,70,A4#,64,1
36480,60.8,239,0.398333,70,A4#,64,1
36480,60.8,455,0.758333,40,E2,64,2
36720,61.2,239,0.398333,61,C4#,64,1
36960,61.6,239,0.398333,58,A3#,64,1
37200,62.0,239,0.398333,52,E3,64,1
37440,62.4,239,0.398333,68,G4#,64,1
37440,62.4,239,0.398333,64,E4,64,1
37680,62.8,239,0.398333,66,F4#,64,1
37680,62.8,239,0.398333,61,C4#,64,1
37920,63.2,239,0.398333,71,B4,64,1
37920,63.2,239,0.398333,71,B4,64,1
37920,63.2,455,0.758333,40,E2,64,2
38160,63.6,239,0.398333,62,D4,64,1
38400,64.0,239,0.398333,59,B3,64,1
38640,64.4,239,0.398333,52,E3,64,1
38880,64.8,479,0.798333,72,C5,64,1
38880,64.8,239,0.398333,63,D4#,64,1
39120,65.2,239,0.398333,60,C4,64,1
39360,65.6,239,0.398333,73,C5#,48,1
39360,65.6,239,0.398333,73,C5#,48,1
39360,65.6,455,0.758333,40,E2,48,2
39600,66.0,239,0.398333,64,E4,51,1
39840,66.4,239,0.398333,61,C4#,55,1
40080,66.8,239,0.398333,52,E3,59,1
40320,67.2,239,0.398333,71,B4,63,1
40320,67.2,239,0.398333,67,G4,63,1
40560,67.6,923,1.538333,69,A4,66,1
40560,67.6,239,0.398333,61,C4#,66,1
40800,68.0,683,1.138333,74,D5,70,1
40800,68.0,479,0.798333,42,F2#,70,2
41040,68.4,239,0.398333,62,D4,74,2
41280,68.8,239,0.398333,57,A3,78,2
41520,69.2,479,0.798333,73,C5#,81,1
41520,69.2,719,1.198333,68,G4#,81,1
41520,69.2,239,0.398333,40,E2,81,2
41760,69.6,239,0.398333,52,E3,85,2
42000,70.0,227,0.378333,71,B4,89,1
42000,70.0,227,0.378333,56,G3#,89,2
42240,70.4,959,1.598333,66,F4#,80,1
42240,70.4,239,0.398333,38,D2,80,2
42303,70.505,895,1.491666,81,A5,80,1
42480,70.8,239,0.398333,54,F3#,80,2
42720,71.2,239,0.398333,50,D3,80,2
42720,71.2,239,0.398333,57,A3,80,2
42960,71.6,227,0.378333,54,F3#,80,2
42960,71.6,227,0.378333,62,D4,80,2
43200,72.0,455,0.758333,57,A3,83,1
43200,72.0,455,0.758333,64,E4,83,1
43200,72.0,455,0.758333,69,A4,83,1
43200,72.0,239,0.398333,37,C2#,83,2
43200,72.0,707,1.178333,45,A2,83,2
43440,72.4,239,0.398333,35,B1,83,2
43680,72.8,479,0.798333,68,G4#,83,1
43680,72.8,959,1.598333,57,A3,83,1
43680,72.8,959,1.598333,59,B3,83,1
43680,72.8,911,1.518333,38,D2,83,2
43920,73.2,455,0.758333,45,A2,83,2
44160,73.6,455,0.758333,66,F4#,83,1
44400,74.0,935,1.558333,45,A2,83,2
44640,74.4,239,0.398333,64,E4,83,1
44640,74.4,479,0.798333,52,E3,83,1
44640,74.4,479,0.798333,57,A3,83,1
44640,74.4,239,0.398333,37,C2#,83,2
44880,74.8,227,0.378333,62,D4,83,1
44880,74.8,239,0.398333,35,B1,83,2
45120,75.2,479,0.798333,61,C4#,83,1
45120,75.2,959,1.598333,54,F3#,83,1
45120,75.2,959,1.598333,57,A3,83,1
45120,75.2,911,1.518333,38,D2,83,2
45360,75.6,455,0.758333,45,A2,83,2
45600,76.0,455,0.758333,59,B3,83,1
45840,76.4,935,1.558333,45,A2,83,2
46080,76.8,455,0.758333,69,A4,49,1
46080,76.8,455,0.758333,57,A3,49,1
46080,76.8,455,0.758333,64,E4,49,1
46080,76.8,239,0.398333,37,C2#,49,2
46320,77.2,239,0.398333,35,B1,49,2
46560,77.6,479,0.798333,67,G4,49,1
46560,77.6,959,1.598333,57,A3,49,1
46560,77.6,959,1.598333,59,B3,49,1
46560,77.6,911,1.518333,38,D2,49,2
46800,78.0,455,0.758333,45,A2,49,2
47040,78.4,455,0.758333,65,F4,49,1
47280,78.8,935,1.558333,45,A2,49,2
47520,79.2,239,0.398333,64,E4,49,1
47520,79.2,479,0.798333,52,E3,49,1
47520,79.2,479,0.798333,57,A3,49,1
47520,79.2,239,0.398333,36,C2,49,2
47760,79.6,227,0.378333,62,D4,49,1
47760,79.6,239,0.398333,35,B1,49,2
48000,80.0,479,0.798333,60,C4,49,1
48000,80.0,959,1.598333,53,F3,49,1
48000,80.0,959,1.598333,57,A3,49,1
48000,80.0,911,1.518333,38,D2,49,2
48240,80.4,455,0.758333,45,A2,49,2
48480,80.8,455,0.758333,59,B3,49,1
48720,81.2,227,0.378333,45,A2,49,2
48960,81.6,239,0.398333,80,G5#,49,1
48960,81.6,719,1.198333,69,A4,49,1
48960,81.6,455,0.758333,49,C3#,49,2
48960,81.6,455,0.758333,52,E3,49,2
48960,81.6,455,0.758333,57,A3,49,2
48960,81.6,455,0.758333,64,E4,49,2
48960,81.6,455,0.758333,76,E5,49,2
49200,82.0,227,0.378333,81,A5,49,1
49440,82.4,959,1.598333,74,D5,49,1
49440,82.4,959,1.598333,78,F5#,49,1
49440,82.4,455,0.758333,38,D2,49,2
49440,82.4,455,0.758333,45,A2,49,2
49680,82.8,239,0.398333,68,G4#,49,1
49920,83.2,239,0.398333,69,A4,50,1
49920,83.2,239,0.398333,50,D3,50,2
49920,83.2,239,0.398333,54,F3#,50,2
50160,83.6,227,0.378333,66,F4#,50,1
50160,83.6,227,0.378333,57,A3,50,2
50400,84.0,239,0.398333,80,G5#,49,1
50400,84.0,479,0.798333,76,E5,49,1
50400,84.0,455,0.758333,49,C3#,49,2
50400,84.0,455,0.758333,52,E3,49,2
50400,84.0,455,0.758333,57,A3,49,2
50400,84.0,455,0.758333,64,E4,49,2
50400,84.0,911,1.518333,69,A4,49,2
50640,84.4,227,0.378333,81,A5,49,1
50880,84.8,959,1.598333,71,B4,49,1
50880,84.8,239,0.398333,66,F4#,49,1
50880,84.8,455,0.758333,39,D2#,49,2
50880,84.8,455,0.758333,47,B2,49,2
51120,85.2,239,0.398333,68,G4#,49,1
51360,85.6,239,0.398333,69,A4,50,1
51360,85.6,239,0.398333,51,D3#,50,2
51360,85.6,239,0.398333,54,F3#,50,2
51600,86.0,227,0.378333,66,F4#,50,1
51600,86.0,227,0.378333,59,B3,50,2
51840,86.4,359,0.598333,71,B4,49,1
51840,86.4,479,0.798333,64,E4,49,1
51840,86.4,479,0.798333,69,A4,49,1
51840,86.4,239,0.398333,40,E2,49,2
52080,86.8,227,0.378333,52,E3,49,2
52200,87.0,113,0.188333,73,C5#,49,1
52320,87.2,359,0.598333,73,C5#,49,1
52320,87.2,479,0.798333,64,E4,49,1
52320,87.2,479,0.798333,68,G4#,49,1
52320,87.2,227,0.378333,52,E3,49,2
52320,87.2,227,0.378333,56,G3#,49,2
52560,87.6,227,0.378333,61,C4#,51,2
52680,87.8,113,0.188333,74,D5,52,1
52800,88.0,239,0.398333,74,D5,54,1
52800,88.0,479,0.798333,62,D4,54,1
52800,88.0,479,0.798333,66,F4#,54,1
52800,88.0,227,0.378333,47,B2,54,2
52800,88.0,227,0.378333,54,F3#,54,2
53040,88.4,239,0.398333,73,C5#,56,1
53040,88.4,227,0.378333,59,B3,56,2
53280,88.8,239,0.398333,74,D5,59,1
53280,88.8,479,0.798333,62,D4,59,1
53280,88.8,479,0.798333,64,E4,59,1
53280,88.8,227,0.378333,40,E2,59,2
53280,88.8,227,0.378333,47,B2,59,2
53520,89.2,227,0.378333,68,G4#,61,1
53520,89.2,227,0.378333,52,E3,61,2
53760,89.6,479,0.798333,68,G4#,64,1
53760,89.6,479,0.798333,62,D4,64,1
53760,89.6,239,0.398333,45,A2,64,2
53760,89.6,239,0.398333,45,A2,64,2
54000,90.0,239,0.398333,52,E3,64,2
54240,90.4,455,0.758333,69,A4,64,1
54240,90.4,455,0.758333,61,C4#,64,1
54240,90.4,239,0.398333,57,A3,64,2
54480,90.8,227,0.378333,56,G3#,64,2
54720,91.2,479,0.798333,69,A4,64,1
54720,91.2,479,0.798333,61,C4#,64,1
54720,91.2,1439,2.398333,66,F4#,64,1
54720,91.2,239,0.398333,54,F3#,64,2
54720,91.2,1439,2.398333,45,A2,64,2
54960,91.6,239,0.398333,57,A3,64,2
55200,92.0,479,0.798333,71,B4,65,1
55200,92.0,239,0.398333,61,C4#,65,2
55440,92.4,239,0.398333,57,A3,65,2
55680,92.8,455,0.758333,69,A4,64,1
55680,92.8,239,0.398333,54,F3#,64,2
55920,93.2,227,0.378333,52,E3,64,2
56160,93.6,479,0.798333,69,A4,64,1
56160,93.6,1439,2.398333,62,D4,64,1
56160,93.6,1439,2.398333,66,F4#,64,1
56160,93.6,239,0.398333,50,D3,64,2
56160,93.6,1439,2.398333,45,A2,64,2
56400,94.0,239,0.398333,54,F3#,64,2
56640,94.4,479,0.798333,71,B4,65,1
56640,94.4,239,0.398333,57,A3,65,2
56880,94.8,239,0.398333,54,F3#,65,2
57120,95.2,455,0.758333,69,A4,64,1
57120,95.2,239,0.398333,50,D3,64,2
57360,95.6,227,0.378333,49,C3#,64,2
57600,96.0,479,0.798333,69,A4,64,1
57600,96.0,479,0.798333,62,D4,64,1
57600,96.0,479,0.798333,66,F4#,64,1
57600,96.0,239,0.398333,47,B2,64,2
57600,96.0,959,1.598333,45,A2,64,2
57840,96.4,239,0.398333,50,D3,64,2
58080,96.8,455,0.758333,74,D5,64,1
58080,96.8,455,0.758333,66,F4#,64,1
58080,96.8,455,0.758333,69,A4,64,1
58080,96.8,239,0.398333,54,F3#,64,2
58320,97.2,227,0.378333,57,A3,64,2
58560,97.6,719,1.198333,73,C5#,64,1
58560,97.6,959,1.598333,64,E4,64,1
58560,97.6,959,1.598333,68,G4#,64,1
58560,97.6,239,0.398333,52,E3,64,2
58560,97.6,959,1.598333,45,A2,64,2
58800,98.0,239,0.398333,56,G3#,64,2
59040,98.4,239,0.398333,59,B3,64,2
59280,98.8,227,0.378333,71,B4,64,1
59280,98.8,227,0.378333,62,D4,64,2
59520,99.2,479,0.798333,68,G4#,64,1
59520,99.2,479,0.798333,62,D4,64,1
59520,99.2,239,0.398333,45,A2,64,2
59520,99.2,239,0.398333,45,A2,64,2
59760,99.6,239,0.398333,52,E3,64,2
60000,100.0,455,0.758333,69,A4,64,1
60000,100.0,455,0.758333,61,C4#,64,1
60000,100.0,239,0.398333,57,A3,64,2
60240,100.4,227,0.378333,44,G2#,64,2
60480,100.8,479,0.798333,69,A4,64,1
60480,100.8,1439,2.398333,61,C4#,64,1
60480,100.8,1439,2.398333,66,F4#,64,1
60480,100.8,239,0.398333,42,F2#,64,2
60480,100.8,239,0.398333,42,F2#,64,2
60720,101.2,239,0.398333,49,C3#,64,2
60960,101.6,479,0.798333,71,B4,64,1
60960,101.6,239,0.398333,57,A3,64,2
61200,102.0,239,0.398333,49,C3#,64,2
61440,102.4,455,0.758333,69,A4,64,1
61440,102.4,239,0.398333,42,F2#,64,2
61680,102.8,227,0.378333,40,E2,64,2
61920,103.2,479,0.798333,69,A4,64,1
61920,103.2,1439,2.398333,62,D4,64,1
61920,103.2,1439,2.398333,66,F4#,64,1
61920,103.2,239,0.398333,38,D2,64,2
61920,103.2,239,0.398333,38,D2,64,2
62160,103.6,239,0.398333,45,A2,65,2
62400,104.0,479,0.798333,71,B4,67,1
62400,104.0,239,0.398333,54,F3#,67,2
62640,104.4,239,0.398333,45,A2,69,2
62880,104.8,455,0.758333,69,A4,71,1
62880,104.8,239,0.398333,38,D2,71,2
63120,105.2,239,0.398333,37,C2#,73,2
63360,105.6,479,0.798333,69,A4,75,1
63360,105.6,479,0.798333,62,D4,75,1
63360,105.6,479,0.798333,66,F4#,75,1
63360,105.6,239,0.398333,35,B1,75,2
63360,105.6,239,0.398333,35,B1,75,2
63600,106.0,239,0.398333,47,B2,77,2
63840,106.4,455,0.758333,78,F5#,79,1
63840,106.4,239,0.398333,50,D3,79,2
64080,106.8,239,0.398333,54,F3#,79,2
64320,107.2,719,1.245987,74,D5,79,1
64320,107.2,239,0.398333,57,A3,79,2
64560,107.6,239,0.413782,62,D4,79,2
64800,108.015513,239,0.430474,66,F4#,79,2
65040,108.447788,227,0.425411,71,B4,79,1
65040,108.447788,227,0.425411,62,D4,79,2
65280,108.897562,479,0.958437,68,G4#,76,1
65280,108.897562,959,2.012381,61,C4#,76,1
65280,108.897562,959,2.012381,64,E4,76,1
65280,108.897562,239,0.467527,40,E2,76,2
65520,109.367045,239,0.488954,49,C3#,73,2
65760,109.858045,455,0.997942,69,A4,70,1
65760,109.858045,239,0.512435,52,E3,70,2
66000,110.372624,227,0.510341,57,A3,67,2
66240,110.912192,1391,3.445682,64,E4,58,1
66240,110.912192,239,0.565814,61,C4#,49,1
66240,110.912192,455,1.105682,28,E1,49,2
66240,110.912192,455,1.105682,56,G3#,49,2
66480,111.480374,227,0.5675,59,B3,49,1
66720,112.080374,911,2.2775,62,D4,49,1
66720,112.080374,239,0.5975,28,E1,49,2
66720,112.080374,959,2.3975,54,F3#,49,2
66720,112.080374,959,2.3975,57,A3,49,2
66960,112.680374,239,0.5975,40,E2,49,2
67200,113.280374,239,0.5975,45,A2,49,2
67440,113.880374,227,0.5675,50,D3,49,2
67680,114.480374,1391,3.4775,64,E4,58,1
67680,114.480374,239,0.5975,61,C4#,49,1
67680,114.480374,227,0.5675,40,E2,49,2
67680,114.480374,227,0.5675,40,E2,49,2
67680,114.480374,455,1.1375,56,G3#,49,2
67920,115.080374,227,0.5675,59,B3,49,1
67920,115.080374,227,0.5675,50,D3,49,2
68160,115.680374,911,2.2775,69,A4,49,1
68160,115.680374,959,2.3975,33,A1,49,2
68160,115.680374,911,2.2775,57,A3,49,2
68223,115.837874,895,2.2375,49,C3#,49,2
69120,118.080374,719,1.598333,73,C5#,49,1
69600,119.280374,151,0.251666,42,F2#,49,2
69760,119.54704,151,0.251667,49,C3#,49,2
69840,119.680374,239,0.398333,78,F5#,49,1
69920,119.813707,151,0.251667,57,A3,49,2
70080,120.080374,479,0.798333,76,E5,49,1
70080,120.080374,159,0.265,61,C4#,49,2
70080,120.080374,159,0.265,61,C4#,49,2
70240,120.34704,159,0.265,57,A3,49,2
70400,120.613707,159,0.265,54,F3#,49,2
70560,120.880374,479,0.798333,74,D5,49,1
70560,120.880374,159,0.265,66,F4#,49,2
70560,120.880374,159,0.265,66,F4#,49,2
70720,121.14704,159,0.265,57,A3,49,2
70880,121.413707,159,0.265,54,F3#,49,2
71040,121.680374,479,0.798333,73,C5#,49,1
71040,121.680374,159,0.265,64,E4,49,2
71040,121.680374,159,0.265,64,E4,49,2
71200,121.94704,159,0.265,57,A3,49,2
71360,122.213707,159,0.265,54,F3#,49,2
71520,122.480374,239,0.398333,71,B4,48,1
71520,122.480374,159,0.265,62,D4,48,2
71520,122.480374,159,0.265,62,D4,48,2
71680,122.74704,159,0.265,57,A3,48,2
71760,122.880374,239,0.398333,74,D5,48,1
71840,123.013707,159,0.265,54,F3#,48,2
72000,123.280374,239,0.398333,80,G5#,48,1
72000,123.280374,159,0.265,47,B2,48,2
72160,123.54704,159,0.265,54,F3#,48,2
72240,123.680374,239,0.398333,78,F5#,48,1
72320,123.813707,151,0.251667,57,A3,48,2
72480,124.080374,479,0.798333,71,B4,48,1
72480,124.080374,159,0.265,62,D4,48,2
72480,124.080374,159,0.265,62,D4,48,2
72640,124.34704,159,0.265,57,A3,48,2
72800,124.613707,159,0.265,54,F3#,48,2
72960,124.880374,239,0.398333,69,A4,47,1
72960,124.880374,159,0.265,61,C4#,47,2
72960,124.880374,159,0.265,61,C4#,47,2
73120,125.14704,159,0.265,57,A3,47,2
73200,125.280374,239,0.398333,73,C5#,47,1
73280,125.413707,159,0.265,54,F3#,47,2
73440,125.680374,239,0.398333,78,F5#,47,1
73440,125.680374,159,0.265,49,C3#,47,2
73600,125.94704,159,0.265,52,E3,47,2
73680,126.080374,239,0.398333,76,E5,47,1
73760,126.213707,151,0.251667,57,A3,47,2
73920,126.480374,239,0.398333,69,A4,47,1
73920,126.480374,159,0.265,61,C4#,47,2
73920,126.480374,159,0.265,61,C4#,47,2
74080,126.74704,159,0.265,54,F3#,47,2
74160,126.880374,239,0.398333,68,G4#,47,1
74240,127.013707,159,0.265,50,D3,47,2
74400,127.280374,239,0.398333,76,E5,46,1
74400,127.280374,159,0.265,59,B3,46,2
74400,127.280374,159,0.265,59,B3,46,2
74560,127.54704,159,0.265,54,F3#,46,2
74640,127.680374,239,0.398333,74,D5,46,1
74720,127.813707,159,0.265,44,G2#,46,2
74880,128.080374,239,0.398333,71,B4,46,1
74880,128.080374,159,0.265,49,C3#,46,2
75040,128.34704,159,0.265,53,F3,46,2
75120,128.480374,227,0.378333,68,G4#,46,1
75200,128.613707,151,0.251667,59,B3,46,2
75360,128.880374,239,0.398333,69,A4,49,1
75360,128.880374,239,0.398333,73,C5#,49,1
75360,128.880374,159,0.265,42,F2#,49,2
75520,129.14704,159,0.265,57,A3,49,2
75600,129.280374,239,0.398333,81,A5,49,1
75680,129.413707,159,0.265,54,F3#,49,2
75840,129.680374,479,0.798333,80,G5#,50,1
75840,129.680374,159,0.265,61,C4#,50,2
75840,129.680374,159,0.265,61,C4#,50,2
76000,129.94704,159,0.265,57,A3,50,2
76160,130.213707,159,0.265,54,F3#,50,2
76320,130.480374,455,0.758333,78,F5#,50,1
76320,130.480374,159,0.265,69,A4,50,2
76320,130.480374,159,0.265,69,A4,50,2
76480,130.74704,159,0.265,57,A3,50,2
76640,131.013707,151,0.251667,54,F3#,50,2
76800,131.280374,479,0.798333,76,E5,49,1
76800,131.280374,239,0.398333,68,G4#,49,1
76800,131.280374,159,0.265,38,D2,49,2
76960,131.54704,159,0.265,45,A2,49,2
77120,131.813707,159,0.265,50,D3,49,2
77280,132.080374,239,0.398333,69,A4,49,1
77280,132.080374,239,0.398333,66,F4#,49,1
77280,132.080374,159,0.265,54,F3#,49,2
77440,132.34704,159,0.265,57,A3,49,2
77520,132.480374,239,0.398333,73,C5#,49,1
77600,132.613707,151,0.251667,50,D3,49,2
77760,132.880374,239,0.398333,76,E5,49,1
77760,132.880374,159,0.265,42,F2#,49,2
77920,133.14704,159,0.265,50,D3,49,2
78000,133.280374,239,0.398333,74,D5,49,1
78080,133.413707,151,0.251667,57,A3,49,2
78240,133.680374,479,0.798333,73,C5#,49,1
78240,133.680374,239,0.398333,64,E4,49,1
78240,133.680374,159,0.265,44,G2#,49,2
78400,133.94704,159,0.265,52,E3,49,2
78560,134.213707,151,0.251667,56,G3#,49,2
78720,134.480374,239,0.398333,66,F4#,49,1
78720,134.480374,239,0.398333,63,D4#,49,1
78720,134.480374,159,0.265,44,G2#,49,2
78880,134.74704,159,0.265,51,D3#,49,2
78960,134.880374,239,0.398333,68,G4#,49,1
79040,135.013707,159,0.265,54,F3#,49,2
79200,135.280374,239,0.398333,69,A4,49,1
79200,135.280374,159,0.265,60,C4,49,2
79360,135.54704,159,0.265,54,F3#,48,2
79440,135.680374,239,0.398333,66,F4#,47,1
79520,135.813707,151,0.251667,51,D3#,47,2
79680,136.080374,479,0.798333,61,C4#,45,1
79680,136.080374,479,0.798333,65,F4,45,1
79680,136.080374,159,0.265,37,C2#,45,2
79840,136.34704,159,0.265,44,G2#,44,2
80000,136.613707,159,0.265,49,C3#,42,2
80160,136.880374,719,1.270833,68,G4#,41,1
80160,136.880374,159,0.265,53,F3,41,2
80320,137.14704,159,0.274138,56,G3#,39,2
80480,137.422902,159,0.283927,59,B3,38,2
80640,137.708615,227,0.42037,65,F4,37,2
80880,138.153059,479,0.868554,73,C5#,34,1
81120,138.62328,151,0.251666,42,F2#,49,2
81280,138.889946,151,0.251667,49,C3#,49,2
81360,139.02328,239,0.398333,78,F5#,49,1
81440,139.156613,151,0.251667,57,A3,49,2
81600,139.42328,479,0.798333,76,E5,49,1
81600,139.42328,159,0.265,61,C4#,49,2
81600,139.42328,159,0.265,61,C4#,49,2
81760,139.689946,159,0.265,57,A3,49,2
81920,139.956613,159,0.265,54,F3#,49,2
82080,140.22328,479,0.798333,74,D5,49,1
82080,140.22328,159,0.265,66,F4#,49,2
82080,140.22328,159,0.265,66,F4#,49,2
82240,140.489946,159,0.265,57,A3,49,2
82400,140.756613,159,0.265,54,F3#,49,2
82560,141.02328,479,0.798333,73,C5#,49,1
82560,141.02328,159,0.265,64,E4,49,2
82560,141.02328,159,0.265,64,E4,49,2
82720,141.289946,159,0.265,57,A3,49,2
82880,141.556613,159,0.265,54,F3#,49,2
83040,141.82328,239,0.398333,71,B4,48,1
83040,141.82328,159,0.265,62,D4,48,2
83040,141.82328,159,0.265,62,D4,48,2
83200,142.089946,159,0.265,57,A3,48,2
83280,142.22328,239,0.398333,74,D5,48,1
83360,142.356613,159,0.265,54,F3#,48,2
83520,142.62328,239,0.398333,80,G5#,48,1
83520,142.62328,159,0.265,47,B2,48,2
83680,142.889946,159,0.265,54,F3#,48,2
83760,143.02328,239,0.398333,78,F5#,48,1
83840,143.156613,151,0.251667,57,A3,48,2
84000,143.42328,479,0.798333,71,B4,48,1
84000,143.42328,159,0.265,62,D4,48,2
84000,143.42328,159,0.265,62,D4,48,2
84160,143.689946,159,0.265,57,A3,48,2
84320,143.956613,159,0.265,54,F3#,48,2
84480,144.22328,239,0.398333,69,A4,47,1
84480,144.22328,159,0.265,61,C4#,47,2
84480,144.22328,159,0.265,61,C4#,47,2
84640,144.489946,159,0.265,57,A3,47,2
84720,144.62328,239,0.398333,73,C5#,47,1
84800,144.756613,159,0.265,54,F3#,47,2
84960,145.02328,239,0.398333,78,F5#,47,1
84960,145.02328,159,0.265,49,C3#,47,2
85120,145.289946,159,0.265,52,E3,47,2
85200,145.42328,239,0.398333,76,E5,47,1
85280,145.556613,151,0.251667,57,A3,47,2
85440,145.82328,239,0.398333,69,A4,47,1
85440,145.82328,159,0.265,61,C4#,47,2
85440,145.82328,159,0.265,61,C4#,47,2
85600,146.089946,159,0.265,54,F3#,47,2
85680,146.22328,239,0.398333,68,G4#,47,1
85760,146.356613,159,0.265,50,D3,47,2
85920,146.62328,239,0.398333,76,E5,46,1
85920,146.62328,159,0.265,59,B3,46,2
85920,146.62328,159,0.265,59,B3,46,2
86080,146.889946,159,0.265,54,F3#,46,2
86160,147.02328,239,0.398333,74,D5,46,1
86240,147.156613,159,0.265,44,G2#,46,2
86400,147.42328,239,0.398333,71,B4,46,1
86400,147.42328,159,0.265,49,C3#,46,2
86560,147.689946,159,0.265,53,F3,46,2
86640,147.82328,227,0.378333,68,G4#,46,1
86720,147.956613,151,0.251667,59,B3,46,2
86880,148.22328,239,0.398333,69,A4,49,1
86880,148.22328,239,0.398333,73,C5#,49,1
86880,148.22328,159,0.265,42,F2#,49,2
87040,148.489946,159,0.265,57,A3,49,2
87120,148.62328,239,0.398333,81,A5,49,1
87200,148.756613,159,0.265,54,F3#,49,2
87360,149.02328,479,0.798333,80,G5#,50,1
87360,149.02328,159,0.265,61,C4#,50,2
87360,149.02328,159,0.265,61,C4#,50,2
87520,149.289946,159,0.265,57,A3,50,2
87680,149.556613,159,0.265,54,F3#,50,2
87840,149.82328,455,0.758333,78,F5#,50,1
87840,149.82328,159,0.265,69,A4,50,2
87840,149.82328,159,0.265,69,A4,50,2
88000,150.089946,159,0.265,57,A3,50,2
88160,150.356613,151,0.251667,54,F3#,50,2
88320,150.62328,479,0.798333,76,E5,49,1
88320,150.62328,239,0.398333,68,G4#,49,1
88320,150.62328,159,0.265,38,D2,49,2
88480,150.889946,159,0.265,45,A2,49,2
88640,151.156613,159,0.265,50,D3,49,2
88800,151.42328,239,0.398333,69,A4,49,1
88800,151.42328,239,0.398333,66,F4#,49,1
88800,151.42328,159,0.265,54,F3#,49,2
88960,151.689946,159,0.265,57,A3,49,2
89040,151.82328,239,0.398333,73,C5#,49,1
89120,151.956613,151,0.251667,50,D3,49,2
89280,152.22328,239,0.398333,76,E5,49,1
89280,152.22328,159,0.265,42,F2#,49,2
89440,152.489946,159,0.265,50,D3,49,2
89520,152.62328,239,0.398333,74,D5,49,1
89600,152.756613,151,0.251667,57,A3,49,2
89760,153.02328,479,0.798333,73,C5#,49,1
89760,153.02328,239,0.398333,64,E4,49,1
89760,153.02328,159,0.265,44,G2#,49,2
89920,153.289946,159,0.265,52,E3,49,2
90080,153.556613,151,0.251667,56,G3#,49,2
90240,153.82328,239,0.398333,66,F4#,49,1
90240,153.82328,239,0.398333,63,D4#,49,1
90240,153.82328,159,0.265,44,G2#,49,2
90400,154.089946,159,0.265,51,D3#,49,2
90480,154.22328,239,0.398333,68,G4#,49,1
90560,154.356613,159,0.265,54,F3#,49,2
90720,154.62328,239,0.398333,69,A4,49,1
90720,154.62328,159,0.265,60,C4,49,2
90880,154.889946,159,0.265,54,F3#,48,2
90960,155.02328,239,0.398333,66,F4#,47,1
91040,155.156613,151,0.251667,51,D3#,47,2
91200,155.42328,479,0.798333,61,C4#,45,1
91200,155.42328,479,0.798333,65,F4,45,1
91200,155.42328,159,0.265,37,C2#,45,2
91360,155.689946,159,0.265,44,G2#,44,2
91520,155.956613,159,0.265,49,C3#,42,2
91680,156.22328,719,1.270833,68,G4#,41,1
91680,156.22328,159,0.265,53,F3,41,2
91840,156.489946,159,0.274138,56,G3#,39,2
92000,156.765808,159,0.283927,59,B3,38,2
92160,157.051521,227,0.42037,65,F4,37,2
92400,157.495965,479,0.968137,73,C5#,34,1
92640,157.966186,479,0.997916,66,F4#,33,1
92640,157.966186,479,0.997916,70,A4#,33,1
92640,157.966186,479,0.997916,42,F2#,33,2
92640,157.966186,479,0.997916,49,C3#,33,2
92640,157.966186,479,0.997916,58,A3#,33,2
92880,158.466186,239,0.497916,78,F5#,33,1
93120,158.966186,479,0.997916,65,F4,33,1
93120,158.966186,479,0.997916,70,A4#,33,1
93120,158.966186,479,0.997916,77,F5,33,1
93120,158.966186,479,0.997916,49,C3#,33,2
93120,158.966186,479,0.997916,58,A3#,33,2
93120,158.966186,479,0.997916,61,C4#,33,2
93600,159.966186,479,0.997916,63,D4#,33,1
93600,159.966186,479,0.997916,70,A4#,33,1
93600,159.966186,479,0.997916,75,D5#,33,1
93600,159.966186,479,0.997916,54,F3#,33,2
93600,159.966186,479,0.997916,58,A3#,33,2
93600,159.966186,479,0.997916,66,F4#,33,2
94080,160.966186,479,0.997916,61,C4#,33,1
94080,160.966186,479,0.997916,70,A4#,33,1
94080,160.966186,479,0.997916,73,C5#,33,1
94080,160.966186,479,0.997916,53,F3,33,2
94080,160.966186,479,0.997916,58,A3#,33,2
94080,160.966186,479,0.997916,65,F4,33,2
94560,161.966186,479,0.997916,66,F4#,33,1
94560,161.966186,479,0.997916,70,A4#,33,1
94560,161.966186,479,0.997916,78,F5#,33,1
94560,161.966186,479,0.997916,51,D3#,33,2
94560,161.966186,479,0.997916,58,A3#,33,2
94560,161.966186,479,0.997916,63,D4#,33,2
95040,162.966186,479,0.997916,65,F4,33,1
95040,162.966186,479,0.997916,70,A4#,33,1
95040,162.966186,479,0.997916,77,F5,33,1
95040,162.966186,479,0.997916,49,C3#,33,2
95040,162.966186,479,0.997916,58,A3#,33,2
95040,162.966186,479,0.997916,61,C4#,33,2
95520,163.966186,479,0.997916,63,D4#,33,1
95520,163.966186,479,0.997916,70,A4#,33,1
95520,163.966186,479,0.997916,75,D5#,33,1
95520,163.966186,479,0.997916,54,F3#,33,2
95520,163.966186,479,0.997916,58,A3#,33,2
95520,163.966186,479,0.997916,66,F4#,33,2
96000,164.966186,479,0.997916,61,C4#,33,1
96000,164.966186,479,0.997916,70,A4#,33,1
96000,164.966186,479,0.997916,73,C5#,33,1
96000,164.966186,479,0.997916,53,F3,33,2
96000,164.966186,479,0.997916,58,A3#,33,2
96000,164.966186,479,0.997916,65,F4,33,2
96480,165.966186,479,0.997916,60,C4,33,1
96480,165.966186,479,0.997916,66,F4#,33,1
96480,165.966186,479,0.997916,70,A4#,33,1
96480,165.966186,959,1.997916,72,C5,33,1
96480,165.966186,479,0.997916,51,D3#,33,2
96480,165.966186,479,0.997916,54,F3#,33,2
96480,165.966186,479,0.997916,58,A3#,33,2
96480,165.966186,479,0.997916,63,D4#,33,2
96960,166.966186,479,0.997916,65,F4,33,1
96960,166.966186,479,0.997916,69,A4,33,1
96960,166.966186,479,0.997916,53,F3,33,2
96960,166.966186,479,0.997916,57,A3,33,2
96960,166.966186,479,0.997916,60,C4,33,2
97440,167.966186,1187,2.472916,73,C5#,33,1
97440,167.966186,695,1.447916,61,C4#,33,1
97440,167.966186,479,0.997916,46,A2#,33,2
97440,167.966186,479,0.997916,53,F3,33,2
97440,167.966186,479,0.997916,58,A3#,33,2
97440,167.966186,479,0.997916,61,C4#,33,2
97680,168.466186,695,1.447916,65,F4,33,1
97920,168.966186,239,0.497916,70,A4#,33,1
97920,168.966186,455,0.947916,49,C3#,33,2
97920,168.966186,455,0.947916,53,F3,33,2
97920,168.966186,455,0.947916,59,B3,33,2
98160,169.466186,239,0.497916,68,G4#,33,1
98400,169.966186,455,0.947916,66,F4#,33,1
98400,169.966186,479,0.997916,42,F2#,33,2
98400,169.966186,479,0.997916,49,C3#,33,2
98400,169.966186,479,0.997916,58,A3#,33,2
98640,170.466186,239,0.497916,78,F5#,33,1
98880,170.966186,479,0.997916,65,F4,33,1
98880,170.966186,479,0.997916,70,A4#,33,1
98880,170.966186,479,0.997916,77,F5,33,1
98880,170.966186,479,0.997916,49,C3#,33,2
98880,170.966186,479,0.997916,58,A3#,33,2
98880,170.966186,479,0.997916,61,C4#,33,2
99360,171.966186,479,0.997916,63,D4#,33,1
99360,171.966186,479,0.997916,69,A4,33,1
99360,171.966186,479,0.997916,75,D5#,33,1
99360,171.966186,479,0.997916,54,F3#,33,2
99360,171.966186,479,0.997916,57,A3,33,2
99360,171.966186,479,0.997916,66,F4#,33,2
99840,172.966186,479,0.997916,61,C4#,33,1
99840,172.966186,479,0.997916,68,G4#,33,1
99840,172.966186,479,0.997916,73,C5#,33,1
99840,172.966186,479,0.997916,53,F3,33,2
99840,172.966186,479,0.997916,56,G3#,33,2
99840,172.966186,479,0.997916,65,F4,33,2
100320,173.966186,479,0.997916,66,F4#,33,1
100320,173.966186,479,0.997916,68,G4#,33,1
100320,173.966186,479,0.997916,72,C5,33,1
100320,173.966186,479,0.997916,78,F5#,33,1
100320,173.966186,479,0.997916,51,D3#,33,2
100320,173.966186,479,0.997916,56,G3#,33,2
100320,173.966186,479,0.997916,63,D4#,33,2
100800,174.966186,479,0.997916,65,F4,33,1
100800,174.966186,479,0.997916,68,G4#,33,1
100800,174.966186,479,0.997916,73,C5#,33,1
100800,174.966186,479,0.997916,77,F5,33,1
100800,174.966186,479,0.997916,49,C3#,33,2
100800,174.966186,479,0.997916,56,G3#,33,2
100800,174.966186,479,0.997916,61,C4#,33,2
101280,175.966186,479,0.997916,63,D4#,33,1
101280,175.966186,479,0.997916,71,B4,33,1
101280,175.966186,479,0.997916,75,D5#,33,1
101280,175.966186,479,0.997916,54,F3#,33,2
101280,175.966186,479,0.997916,56,G3#,33,2
101280,175.966186,479,0.997916,59,B3,33,2
101280,175.966186,479,0.997916,66,F4#,33,2
101760,176.966186,479,1.055996,73,C5#,33,1
101760,176.966186,479,1.055996,61,C4#,33,1
101760,176.966186,479,1.055996,68,G4#,33,1
101760,176.966186,479,1.055996,71,B4,33,1
101760,176.966186,479,1.055996,73,C5#,33,1
101760,176.966186,479,1.055996,53,F3,33,2
101760,176.966186,479,1.055996,56,G3#,33,2
101760,176.966186,479,1.055996,59,B3,33,2
101760,176.966186,479,1.055996,65,F4,33,2
102240,178.024387,479,1.123358,61,C4#,33,1
102240,178.024387,479,1.123358,66,F4#,33,1
102240,178.024387,479,1.123358,71,B4,33,1
102240,178.024387,479,1.123358,51,D3#,33,2
102240,178.024387,479,1.123358,54,F3#,33,2
102240,178.024387,479,1.123358,63,D4#,33,2
102720,179.150091,455,1.1375,61,C4#,33,1
102720,179.150091,455,1.1375,66,F4#,33,1
102720,179.150091,455,1.1375,70,A4#,33,1
102720,179.150091,479,1.1975,49,C3#,33,2
102720,179.150091,479,1.1975,54,F3#,33,2
102720,179.150091,479,1.1975,61,C4#,33,2
103200,180.350091,683,1.828159,73,C5#,33,1
103200,180.350091,683,1.828159,61,C4#,33,1
103200,180.350091,683,1.828159,65,F4,33,1
103200,180.350091,683,1.828159,68,G4#,33,1
103200,180.350091,683,1.828159,49,C3#,33,2
103200,180.350091,683,1.828159,53,F3,33,2
103200,180.350091,683,1.828159,56,G3#,33,2
103200,180.350091,683,1.828159,59,B3,33,2
103920,182.277286,455,1.077757,61,C4#,33,1
104160,182.99671,151,0.251666,42,F2#,33,2
104320,183.263376,151,0.251667,49,C3#,33,2
104400,183.39671,227,0.378333,66,F4#,33,1
104480,183.530043,151,0.251667,57,A3,33,2
104640,183.79671,479,0.798333,73,C5#,46,1
104640,183.79671,479,0.798333,64,E4,46,1
104640,183.79671,159,0.265,64,E4,46,2
104800,184.063376,159,0.265,57,A3,46,2
104960,184.330043,151,0.251667,54,F3#,46,2
105120,184.59671,479,0.798333,78,F5#,46,1
105120,184.59671,479,0.798333,62,D4,46,1
105120,184.59671,159,0.265,62,D4,46,2
105280,184.863376,159,0.265,57,A3,47,2
105440,185.130043,151,0.251667,54,F3#,49,2
105600,185.39671,479,0.798333,76,E5,51,1
105600,185.39671,479,0.798333,61,C4#,51,1
105600,185.39671,159,0.265,61,C4#,51,2
105760,185.663376,159,0.265,57,A3,52,2
105920,185.930043,151,0.251667,54,F3#,54,2
106080,186.19671,479,0.798333,74,D5,56,1
106080,186.19671,239,0.398333,59,B3,56,1
106080,186.19671,159,0.265,59,B3,56,2
106240,186.463376,159,0.265,54,F3#,57,2
106320,186.59671,239,0.398333,62,D4,58,1
106400,186.730043,159,0.265,47,B2,59,2
106560,186.99671,239,0.398333,69,A4,61,1
106560,186.99671,159,0.265,35,B1,61,2
106720,187.263376,159,0.265,47,B2,62,2
106800,187.39671,227,0.378333,68,G4#,63,1
106880,187.530043,151,0.251667,50,D3,64,2
107040,187.79671,455,0.758333,74,D5,66,1
107040,187.79671,455,0.758333,59,B3,66,1
107040,187.79671,159,0.265,59,B3,66,2
107200,188.063376,159,0.265,54,F3#,67,2
107360,188.330043,151,0.251667,49,C3#,69,2
107520,188.59671,479,0.798333,73,C5#,71,1
107520,188.59671,239,0.398333,57,A3,71,1
107520,188.59671,159,0.265,57,A3,71,2
107680,188.863376,159,0.265,54,F3#,72,2
107760,188.99671,239,0.398333,61,C4#,73,1
107840,189.130043,159,0.265,45,A2,74,2
108000,189.39671,239,0.398333,68,G4#,76,1
108000,189.39671,159,0.265,33,A1,76,2
108160,189.663376,159,0.265,45,A2,77,2
108240,189.79671,227,0.378333,66,F4#,78,1
108320,189.930043,151,0.251667,49,C3#,79,2
108480,190.19671,479,0.798333,73,C5#,81,1
108480,190.19671,239,0.398333,57,A3,81,1
108480,190.19671,455,0.758333,47,B2,81,2
108480,190.19671,455,0.758333,50,D3,81,2
108720,190.59671,239,0.398333,56,G3#,83,1
108960,190.99671,479,0.798333,71,B4,86,1
108960,190.99671,239,0.398333,64,E4,86,1
108960,190.99671,159,0.265,44,G2#,86,2
109120,191.263376,159,0.265,59,B3,87,2
109200,191.39671,239,0.398333,62,D4,88,1
109280,191.530043,151,0.251667,54,F3#,89,2
109440,191.79671,239,0.398333,59,B3,91,1
109440,191.79671,159,0.265,37,C2#,91,2
109600,192.063376,159,0.265,53,F3,92,2
109680,192.19671,227,0.378333,56,G3#,93,1
109760,192.330043,151,0.251667,49,C3#,94,2
109920,192.59671,239,0.398333,73,C5#,96,1
109920,192.59671,159,0.265,42,F2#,96,2
110080,192.863376,159,0.265,49,C3#,96,2
110160,192.99671,239,0.398333,85,C6#,96,1
110240,193.130043,159,0.265,57,A3,96,2
110400,193.39671,239,0.398333,83,B5,96,1
110400,193.39671,159,0.265,61,C4#,96,2
110400,193.39671,159,0.265,61,C4#,96,2
110560,193.663376,159,0.265,57,A3,96,2
110640,193.79671,239,0.398333,81,A5,96,1
110640,193.79671,239,0.398333,73,C5#,96,2
110720,193.930043,159,0.265,54,F3#,96,2
110880,194.19671,239,0.398333,80,G5#,96,1
110880,194.19671,159,0.265,57,A3,96,2
110880,194.19671,239,0.398333,71,B4,96,2
111040,194.463376,159,0.265,54,F3#,96,2
111120,194.59671,239,0.398333,78,F5#,96,1
111120,194.59671,239,0.398333,69,A4,96,2
111200,194.730043,151,0.251667,49,C3#,96,2
111360,194.99671,455,0.758333,76,E5,96,1
111360,194.99671,455,0.758333,68,G4#,96,1
111360,194.99671,159,0.265,38,D2,96,2
111520,195.263376,159,0.265,45,A2,96,2
111680,195.530043,159,0.265,50,D3,96,2
111840,195.79671,239,0.398333,69,A4,96,1
111840,195.79671,479,0.798333,66,F4#,96,1
111840,195.79671,159,0.265,54,F3#,96,2
112000,196.063376,159,0.265,57,A3,96,2
112080,196.19671,239,0.398333,73,C5#,96,1
112160,196.330043,159,0.265,50,D3,96,2
112320,196.59671,239,0.398333,76,E5,96,1
112320,196.59671,159,0.265,54,F3#,96,2
112480,196.863376,159,0.265,58,A3#,96,2
112560,196.99671,227,0.378333,74,D5,96,1
112640,197.130043,151,0.251667,50,D3,96,2
112800,197.39671,455,0.758333,73,C5#,96,1
112800,197.39671,455,0.758333,64,E4,96,1
112800,197.39671,159,0.265,35,B1,96,2
112960,197.663376,159,0.265,42,F2#,96,2
113120,197.930043,159,0.265,47,B2,96,2
113280,198.19671,239,0.398333,66,F4#,96,1
113280,198.19671,479,0.798333,62,D4,96,1
113280,198.19671,159,0.265,50,D3,96,2
113440,198.463376,159,0.265,54,F3#,96,2
113520,198.59671,239,0.398333,70,A4#,96,1
113600,198.730043,159,0.265,47,B2,96,2
113760,198.99671,239,0.398333,73,C5#,96,1
113760,198.99671,159,0.265,50,D3,96,2
113920,199.263376,159,0.265,55,G3,96,2
114000,199.39671,227,0.378333,71,B4,96,1
114080,199.530043,151,0.251667,47,B2,96,2
114240,199.79671,239,0.398333,69,A4,96,1
114240,199.79671,479,0.798333,61,C4#,96,1
114240,199.79671,159,0.265,37,C2#,96,2
114400,200.063376,159,0.265,49,C3#,96,2
114480,200.19671,239,0.398333,66,F4#,96,1
114560,200.330043,159,0.265,45,A2,96,2
114720,200.59671,239,0.398333,62,D4,96,1
114720,200.59671,479,0.798333,57,A3,96,1
114720,200.59671,159,0.265,54,F3#,96,2
114880,200.863376,159,0.265,49,C3#,96,2
114960,200.99671,239,0.398333,60,C4,96,1
115040,201.130043,151,0.251667,37,C2#,96,2
115200,201.39671,239,0.398333,61,C4#,96,1
115200,201.39671,479,0.798333,56,G3#,96,1
115200,201.39671,159,0.265,53,F3,96,2
115360,201.663376,159,0.265,47,B2,96,2
115440,201.79671,227,0.378333,53,F3,96,1
115520,201.930043,151,0.251667,37,C2#,96,2
115680,202.19671,959,1.598333,42,F2#,96,2
115680,202.19671,479,0.798333,47,B2,96,2
115680,202.19671,479,0.798333,56,G3#,96,2
116160,202.99671,455,0.758333,45,A2,96,2
116160,202.99671,455,0.758333,54,F3#,96,2
116320,203.263376,159,0.265,57,A3,96,1
116480,203.530043,159,0.265,61,C4#,89,1
116640,203.79671,159,0.265,66,F4#,82,1
116800,204.063376,159,0.265,69,A4,75,1
116960,204.330043,151,0.251667,73,C5#,68,1
117120,204.59671,479,0.798333,64,E4,49,1
117120,204.59671,479,0.798333,76,E5,49,1
117120,204.59671,959,1.624484,69,A4,49,1
117120,204.59671,455,0.758333,54,F3#,49,2
117120,204.59671,455,0.758333,57,A3,49,2
117600,205.39671,455,0.78181,62,D4,49,1
117600,205.39671,455,0.78181,74,D5,49,1
117760,205.663376,159,0.273382,42,F2#,49,2
117920,205.938478,159,0.282716,45,A2,49,2
118080,206.222972,159,0.29228,50,D3,49,2
118240,206.51709,159,0.302511,54,F3#,49,2
118400,206.821504,1111,2.439634,57,A3,49,2
118560,207.137459,479,0.981553,62,D4,49,1
118560,207.137459,607,1.277584,40,E2,49,2
119040,208.121062,455,1.099508,61,C4#,49,1
119200,208.491432,159,0.384429,52,E3,49,2
119360,208.878279,151,0.382859,57,A3,49,2
119520,209.283958,159,0.422872,61,C4#,49,2
119680,209.70949,159,0.44463,64,E4,49,2
119840,210.156917,1063,4.374479,69,A4,49,2
120000,210.62973,683,3.415,73,C5#,49,1
120000,210.62973,911,3.915,63,D4#,49,1
120000,210.62973,911,3.915,66,F4#,49,1
120000,210.62973,1367,4.675,52,E3,49,2
120720,214.226396,227,0.378334,71,B4,49,1
120960,214.626396,239,0.398334,73,C5#,33,1
120960,214.626396,479,0.798334,62,D4,33,1
120960,214.626396,479,0.798334,68,G4#,33,1
120960,214.626396,455,0.758334,45,A2,33,2
121200,215.026396,227,0.378334,71,B4,33,1
121440,215.426396,239,0.398334,66,F4#,33,1
121440,215.426396,959,1.598334,74,D5,33,1
121440,215.426396,239,0.398334,66,F4#,33,1
121440,215.426396,455,0.758334,33,A1,33,2
121680,215.826396,227,0.378334,62,D4,33,1
121920,216.226396,239,0.398334,57,A3,33,1
122160,216.626396,227,0.378334,54,F3#,33,1
122400,217.026396,239,0.398334,73,C5#,33,1
122400,217.026396,239,0.398334,69,A4,33,1
122400,217.026396,455,0.758334,45,A2,33,2
122400,217.026396,455,0.758334,50,D3,33,2
122640,217.426396,227,0.378334,71,B4,33,1
122640,217.426396,227,0.378334,68,G4#,33,1
122880,217.826396,959,1.598334,66,F4#,33,1
122880,217.826396,239,0.398334,33,A1,33,2
122943,217.931396,895,1.491667,81,A5,33,1
123120,218.226396,227,0.378334,50,D3,33,2
123360,218.626396,239,0.398334,45,A2,33,2
123600,219.026396,227,0.378334,42,F2#,33,2
123840,219.426396,359,0.598334,71,B4,55,1
123840,219.426396,359,0.598334,80,G5#,55,1
123840,219.426396,239,0.398334,38,D2,55,2
124080,219.826396,227,0.378334,50,D3,55,2
124200,220.026396,113,0.188334,69,A4,55,1
124200,220.026396,113,0.188334,78,F5#,55,1
124320,220.226396,359,0.598334,69,A4,55,1
124320,220.226396,359,0.598334,78,F5#,55,1
124320,220.226396,239,0.398334,54,F3#,55,2
124320,220.226396,239,0.398334,57,A3,55,2
124320,220.226396,479,0.798334,50,D3,55,2
124560,220.626396,227,0.378334,56,G3#,55,2
124560,220.626396,227,0.378334,59,B3,55,2
124680,220.826396,113,0.188334,68,G4#,55,1
124680,220.826396,113,0.188334,77,F5,55,1
124800,221.026396,239,0.398334,68,G4#,55,1
124800,221.026396,239,0.398334,77,F5,55,1
124800,221.026396,239,0.398334,56,G3#,55,2
124800,221.026396,239,0.398334,59,B3,55,2
124800,221.026396,479,0.798334,49,C3#,55,2
125040,221.426396,239,0.398334,69,A4,55,1
125040,221.426396,239,0.398334,76,E5,55,1
125040,221.426396,227,0.378334,57,A3,55,2
125040,221.426396,227,0.378334,61,C4#,55,2
125280,221.826396,239,0.398334,66,F4#,55,1
125280,221.826396,239,0.398334,74,D5,55,1
125280,221.826396,227,0.378334,35,B1,55,2
125520,222.226396,227,0.378334,62,D4,55,1
125520,222.226396,227,0.378334,71,B4,55,1
125520,222.226396,227,0.378334,50,D3,55,2
125760,222.626396,479,0.798334,69,A4,55,1
125760,222.626396,479,0.798334,61,C4#,55,1
125760,222.626396,239,0.398334,40,E2,55,2
126000,223.026396,227,0.378334,52,E3,54,2
126240,223.426396,455,0.758334,68,G4#,53,1
126240,223.426396,455,0.758334,59,B3,53,1
126240,223.426396,239,0.398334,52,E3,53,2
126240,223.426396,239,0.398334,52,E3,53,2
126480,223.826396,227,0.378334,54,F3#,52,2
126720,224.226396,239,0.398334,73,C5#,50,1
126720,224.226396,479,0.798334,64,E4,50,1
126720,224.226396,455,0.758334,55,G3,50,2
126720,224.226396,455,0.758334,52,E3,50,2
126960,224.626396,227,0.378334,71,B4,50,1
127200,225.026396,239,0.398334,69,A4,50,1
127200,225.026396,959,1.598334,74,D5,50,1
127200,225.026396,239,0.398334,69,A4,50,1
127200,225.026396,455,0.758334,42,F2#,50,2
127440,225.426396,227,0.378334,62,D4,50,1
127680,225.826396,239,0.398334,57,A3,50,1
127920,226.226396,227,0.378334,54,F3#,50,1
128160,226.626396,239,0.398334,73,C5#,50,1
128160,226.626396,479,0.798334,64,E4,50,1
128160,226.626396,479,0.798334,69,A4,50,1
128160,226.626396,455,0.758334,40,E2,50,2
128400,227.026396,227,0.378334,71,B4,50,1
128640,227.426396,719,1.198334,83,B5,50,1
128640,227.426396,479,0.798334,69,A4,50,1
128640,227.426396,479,0.798334,71,B4,50,1
128640,227.426396,479,0.798334,78,F5#,50,1
128640,227.426396,239,0.398334,39,D2#,50,2
128640,227.426396,239,0.398334,47,B2,50,2
128880,227.826396,227,0.378334,51,D3#,50,2
129120,228.226396,479,0.798334,69,A4,50,1
129120,228.226396,479,0.798334,71,B4,50,1
129120,228.226396,479,0.798334,75,D5#,50,1
129120,228.226396,239,0.398334,42,F2#,50,2
129120,228.226396,239,0.398334,47,B2,50,2
129360,228.626396,239,0.398334,81,A5,55,1
129360,228.626396,227,0.378334,54,F3#,55,2
129600,229.026396,359,0.598334,80,G5#,61,1
129600,229.026396,359,0.598334,68,G4#,61,1
129600,229.026396,359,0.598334,73,C5#,61,1
129600,229.026396,239,0.398334,45,A2,61,2
129600,229.026396,239,0.398334,47,B2,61,2
129840,229.426396,227,0.378334,59,B3,67,2
129960,229.626396,113,0.188334,78,F5#,70,1
129960,229.626396,113,0.188334,66,F4#,70,1
129960,229.626396,113,0.188334,74,D5,70,1
130080,229.826396,359,0.598334,78,F5#,73,1
130080,229.826396,359,0.598334,66,F4#,73,1
130080,229.826396,359,0.598334,71,B4,73,1
130080,229.826396,359,0.598334,75,D5#,73,1
130080,229.826396,227,0.378334,47,B2,73,2
130080,229.826396,455,0.758334,44,G2#,73,2
130320,230.226396,227,0.378334,52,E3,79,2
130440,230.426396,113,0.188334,76,E5,82,1
130440,230.426396,113,0.188334,64,E4,82,1
130440,230.426396,113,0.188334,72,C5,82,1
130560,230.626396,239,0.398334,72,C5,85,1
130560,230.626396,239,0.398334,76,E5,85,1
130560,230.626396,479,0.798334,64,E4,85,1
130560,230.626396,227,0.378334,52,E3,85,2
130560,230.626396,455,0.758334,45,A2,85,2
130800,231.026396,227,0.378334,73,C5#,77,1
130800,231.026396,227,0.378334,54,F3#,77,2
131040,231.426396,239,0.398334,64,E4,68,1
131040,231.426396,239,0.398334,73,C5#,68,1
131040,231.426396,227,0.378334,54,F3#,68,2
131040,231.426396,455,0.758334,47,B2,68,2
131280,231.826396,227,0.378334,63,D4#,59,1
131280,231.826396,227,0.378334,66,F4#,59,1
131280,231.826396,227,0.378334,57,A3,59,2
131520,232.226396,479,0.798334,57,A3,50,1
131520,232.226396,479,0.798334,63,D4#,50,1
131520,232.226396,479,0.798334,69,A4,50,1
131520,232.226396,227,0.378334,40,E2,50,2
131520,232.226396,227,0.378334,40,E2,50,2
131760,232.626396,227,0.378334,47,B2,50,2
132000,233.026396,455,0.758334,56,G3#,50,1
132000,233.026396,455,0.758334,64,E4,50,1
132000,233.026396,455,0.758334,68,G4#,50,1
132000,233.026396,227,0.378334,52,E3,50,2
132240,233.426396,227,0.378334,47,B2,50,2
132480,233.826396,479,0.798334,64,E4,50,1
132480,233.826396,1439,2.398334,55,G3,50,1
132480,233.826396,1439,2.398334,60,C4,50,1
132480,233.826396,239,0.398334,40,E2,50,2
132480,233.826396,239,0.398334,40,E2,50,2
132720,234.226396,239,0.398334,43,G2,50,2
132960,234.626396,479,0.798334,66,F4#,51,1
132960,234.626396,239,0.398334,48,C3,50,2
133200,235.026396,239,0.398334,52,E3,50,2
133440,235.426396,455,0.758334,64,E4,51,1
133440,235.426396,239,0.398334,48,C3,50,2
133680,235.826396,227,0.378334,43,G2,50,2
133920,236.226396,479,0.798334,64,E4,50,1
133920,236.226396,1439,2.398334,55,G3,50,1
133920,236.226396,1439,2.398334,61,C4#,50,1
133920,236.226396,239,0.398334,40,E2,50,2
133920,236.226396,239,0.398334,40,E2,50,2
134160,236.626396,239,0.398334,43,G2,50,2
134400,237.026396,479,0.798334,66,F4#,51,1
134400,237.026396,239,0.398334,49,C3#,50,2
134640,237.426396,239,0.398334,52,E3,50,2
134880,237.826396,455,0.758334,64,E4,50,1
134880,237.826396,239,0.398334,49,C3#,50,2
135120,238.226396,227,0.378334,43,G2,50,2
135360,238.626396,959,1.598334,64,E4,50,1
135360,238.626396,479,0.798334,56,G3#,50,1
135360,238.626396,959,1.598334,62,D4,50,1
135360,238.626396,239,0.398334,40,E2,50,2
135360,238.626396,239,0.398334,47,B2,50,2
135360,238.626396,239,0.398334,40,E2,50,2
135600,239.026396,239,0.398334,52,E3,50,2
135840,239.426396,479,0.798334,71,B4,50,1
135840,239.426396,239,0.398334,56,G3#,50,2
135840,239.426396,239,0.398334,56,G3#,50,2
136080,239.826396,239,0.398334,52,E3,50,2
136320,240.226396,479,0.798334,69,A4,50,1
136320,240.226396,479,0.798334,62,D4,50,1
136320,240.226396,479,0.798334,64,E4,50,1
136320,240.226396,239,0.398334,57,A3,50,2
136320,240.226396,239,0.398334,57,A3,50,2
136560,240.626396,239,0.398334,52,E3,50,2
136800,241.026396,959,1.598334,68,G4#,51,1
136800,241.026396,479,0.798334,62,D4,51,1
136800,241.026396,479,0.798334,64,E4,51,1
136800,241.026396,239,0.398334,59,B3,50,2
136800,241.026396,239,0.398334,59,B3,50,2
137040,241.426396,239,0.398334,52,E3,50,2
137280,241.826396,479,0.798334,71,B4,51,1
137280,241.826396,959,1.598334,62,D4,51,1
137280,241.826396,227,0.378334,45,A2,50,2
137280,241.826396,227,0.378334,45,A2,50,2
137520,242.226396,227,0.378334,52,E3,50,2
137760,242.626396,455,0.758334,64,E4,50,1
137760,242.626396,227,0.378334,56,G3#,50,2
138000,243.026396,227,0.378334,52,E3,50,2
138240,243.426396,479,0.798334,69,A4,50,1
138240,243.426396,1439,2.398334,60,C4,50,1
138240,243.426396,1439,2.398334,65,F4,50,1
138240,243.426396,239,0.398334,45,A2,50,2
138240,243.426396,239,0.398334,45,A2,50,2
138480,243.826396,239,0.398334,48,C3,50,2
138720,244.226396,479,0.798334,71,B4,50,1
138720,244.226396,239,0.398334,53,F3,50,2
138960,244.626396,239,0.398334,57,A3,50,2
139200,245.026396,455,0.758334,69,A4,49,1
139200,245.026396,239,0.398334,53,F3,50,2
139440,245.426396,227,0.378334,48,C3,50,2
139680,245.826396,479,0.798334,69,A4,49,1
139680,245.826396,1439,2.398334,60,C4,49,1
139680,245.826396,1439,2.398334,63,D4#,49,1
139680,245.826396,239,0.398334,41,F2,49,2
139680,245.826396,239,0.398334,41,F2,49,2
139920,246.226396,239,0.398334,48,C3,49,2
140160,246.626396,479,0.798334,72,C5,50,1
140160,246.626396,239,0.398334,51,D3#,50,2
140400,247.026396,239,0.398334,57,A3,50,2
140640,247.426396,455,0.758334,69,A4,49,1
140640,247.426396,239,0.398334,51,D3#,49,2
140880,247.826396,227,0.378334,48,C3,49,2
141120,248.226396,455,0.758334,69,A4,49,1
141120,248.226396,455,0.758334,60,C4,49,1
141120,248.226396,455,0.758334,66,F4#,49,1
141120,248.226396,239,0.398334,39,D2#,49,2
141120,248.226396,239,0.398334,39,D2#,49,2
141360,248.626396,239,0.398334,48,C3,49,2
141600,249.026396,479,0.798334,78,F5#,49,1
141600,249.026396,239,0.398334,57,A3,49,2
141840,249.426396,239,0.398334,51,D3#,49,2
142080,249.826396,719,1.198334,72,C5,49,1
142080,249.826396,239,0.398334,57,A3,49,2
142320,250.226396,239,0.398334,60,C4,49,2
142560,250.626396,239,0.398334,66,F4#,49,2
142800,251.026396,227,0.378334,69,A4,65,1
142800,251.026396,227,0.378334,60,C4,65,2
143040,251.426396,959,1.598334,68,G4#,65,1
143040,251.426396,239,0.398334,57,A3,65,2
143280,251.826396,239,0.398334,60,C4,65,2
143520,252.226396,239,0.398334,57,A3,65,2
143760,252.626396,239,0.398334,52,E3,65,2
144000,253.026396,239,0.398334,66,F4#,65,1
144000,253.026396,239,0.398334,48,C3,65,2
144240,253.426396,227,0.378334,64,E4,65,1
144240,253.426396,227,0.378334,45,A2,65,2
144480,253.826396,239,0.398334,68,G4#,65,1
144480,253.826396,239,0.398334,68,G4#,65,1
144480,253.826396,455,0.758334,40,E2,65,2
144720,254.226396,239,0.398334,59,B3,65,1
144960,254.626396,239,0.398334,56,G3#,65,1
145200,255.026396,239,0.398334,52,E3,65,1
145440,255.426396,479,0.798334,69,A4,65,1
145440,255.426396,239,0.398334,60,C4,65,1
145680,255.826396,239,0.398334,57,A3,65,1
145920,256.226396,239,0.398334,70,A4#,65,1
145920,256.226396,239,0.398334,70,A4#,65,1
145920,256.226396,455,0.758334,40,E2,65,2
146160,256.626396,239,0.398334,61,C4#,65,1
146400,257.026396,239,0.398334,58,A3#,65,1
146640,257.426396,239,0.398334,52,E3,65,1
146880,257.826396,239,0.398334,68,G4#,65,1
146880,257.826396,239,0.398334,64,E4,65,1
147120,258.226396,239,0.398334,66,F4#,65,1
147120,258.226396,239,0.398334,61,C4#,65,1
147360,258.626396,239,0.398334,71,B4,65,1
147360,258.626396,239,0.398334,71,B4,65,1
147360,258.626396,455,0.758334,40,E2,65,2
147600,259.026396,239,0.398334,62,D4,65,1
147840,259.426396,239,0.398334,59,B3,65,1
148080,259.826396,239,0.398334,52,E3,65,1
148320,260.226396,479,0.798334,72,C5,65,1
148320,260.226396,239,0.398334,63,D4#,65,1
148560,260.626396,239,0.398334,60,C4,65,1
148800,261.026396,239,0.398334,73,C5#,49,1
148800,261.026396,239,0.398334,73,C5#,49,1
148800,261.026396,455,0.758334,40,E2,49,2
149040,261.426396,239,0.398334,64,E4,52,1
149280,261.826396,239,0.398334,61,C4#,56,1
149520,262.226396,239,0.398334,52,E3,60,1
149760,262.626396,239,0.398334,71,B4,64,1
149760,262.626396,239,0.398334,67,G4,64,1
150000,263.026396,923,1.538334,69,A4,67,1
150000,263.026396,239,0.398334,61,C4#,67,1
150240,263.426396,683,1.138334,74,D5,71,1
150240,263.426396,479,0.798334,42,F2#,71,2
150480,263.826396,239,0.398334,62,D4,75,2
150720,264.226396,239,0.398334,57,A3,79,2
150960,264.626396,479,0.798334,73,C5#,82,1
150960,264.626396,719,1.198334,68,G4#,82,1
150960,264.626396,239,0.398334,40,E2,82,2
151200,265.026396,239,0.398334,52,E3,86,2
151440,265.426396,227,0.378334,71,B4,90,1
151440,265.426396,227,0.378334,56,G3#,90,2
151680,265.826396,959,1.598334,66,F4#,80,1
151680,265.826396,239,0.398334,38,D2,80,2
151743,265.931396,895,1.491667,81,A5,80,1
151920,266.226396,239,0.398334,54,F3#,80,2
152160,266.626396,239,0.398334,50,D3,80,2
152160,266.626396,239,0.398334,57,A3,80,2
152400,267.026396,227,0.378334,54,F3#,80,2
152400,267.026396,227,0.378334,62,D4,80,2
152640,267.426396,455,0.758334,57,A3,84,1
152640,267.426396,455,0.758334,64,E4,84,1
152640,267.426396,455,0.758334,69,A4,84,1
152640,267.426396,239,0.398334,37,C2#,84,2
152640,267.426396,707,1.178334,45,A2,84,2
152880,267.826396,239,0.398334,35,B1,84,2
153120,268.226396,479,0.798334,68,G4#,84,1
153120,268.226396,959,1.598334,57,A3,84,1
153120,268.226396,959,1.598334,59,B3,84,1
153120,268.226396,911,1.518334,38,D2,84,2
153360,268.626396,455,0.758334,45,A2,84,2
153600,269.026396,455,0.758334,66,F4#,84,1
153840,269.426396,935,1.558334,45,A2,84,2
154080,269.826396,239,0.398334,64,E4,84,1
154080,269.826396,479,0.798334,52,E3,84,1
154080,269.826396,479,0.798334,57,A3,84,1
154080,269.826396,239,0.398334,37,C2#,84,2
154320,270.226396,227,0.378334,62,D4,84,1
154320,270.226396,239,0.398334,35,B1,84,2
154560,270.626396,479,0.798334,61,C4#,84,1
154560,270.626396,959,1.598334,54,F3#,84,1
154560,270.626396,959,1.598334,57,A3,84,1
154560,270.626396,911,1.518334,38,D2,84,2
154800,271.026396,455,0.758334,45,A2,84,2
155040,271.426396,455,0.758334,59,B3,84,1
155280,271.826396,935,1.558334,45,A2,84,2
155520,272.226396,455,0.758334,69,A4,49,1
155520,272.226396,455,0.758334,57,A3,49,1
155520,272.226396,455,0.758334,64,E4,49,1
155520,272.226396,239,0.398334,37,C2#,49,2
155760,272.626396,239,0.398334,35,B1,49,2
156000,273.026396,479,0.798334,67,G4,49,1
156000,273.026396,959,1.598334,57,A3,49,1
156000,273.026396,959,1.598334,59,B3,49,1
156000,273.026396,911,1.518334,38,D2,49,2
156240,273.426396,455,0.758334,45,A2,49,2
156480,273.826396,455,0.758334,65,F4,49,1
156720,274.226396,935,1.558334,45,A2,49,2
156960,274.626396,239,0.398334,64,E4,49,1
156960,274.626396,479,0.798334,52,E3,49,1
156960,274.626396,479,0.798334,57,A3,49,1
156960,274.626396,239,0.398334,36,C2,49,2
157200,275.026396,227,0.378334,62,D4,49,1
157200,275.026396,239,0.398334,35,B1,49,2
157440,275.426396,479,0.798334,60,C4,49,1
157440,275.426396,959,1.598334,53,F3,49,1
157440,275.426396,959,1.598334,57,A3,49,1
157440,275.426396,911,1.518334,38,D2,49,2
157680,275.826396,455,0.758334,45,A2,49,2
157920,276.226396,455,0.758334,59,B3,49,1
158160,276.626396,227,0.378334,45,A2,49,2
158400,277.026396,239,0.398334,80,G5#,49,1
158400,277.026396,719,1.198334,69,A4,49,1
158400,277.026396,455,0.758334,49,C3#,49,2
158400,277.026396,455,0.758334,52,E3,49,2
158400,277.026396,455,0.758334,57,A3,49,2
158400,277.026396,455,0.758334,64,E4,49,2
158400,277.026396,455,0.758334,76,E5,49,2
158640,277.426396,227,0.378334,81,A5,49,1
158880,277.826396,959,1.598334,74,D5,49,1
158880,277.826396,959,1.598334,78,F5#,49,1
158880,277.826396,455,0.758334,38,D2,49,2
158880,277.826396,455,0.758334,45,A2,49,2
159120,278.226396,239,0.398334,68,G4#,49,1
159360,278.626396,239,0.398334,69,A4,50,1
159360,278.626396,239,0.398334,50,D3,50,2
159360,278.626396,239,0.398334,54,F3#,50,2
159600,279.026396,227,0.378334,66,F4#,50,1
159600,279.026396,227,0.378334,57,A3,50,2
159840,279.426396,239,0.398334,80,G5#,49,1
159840,279.426396,479,0.798334,76,E5,49,1
159840,279.426396,455,0.758334,49,C3#,49,2
159840,279.426396,455,0.758334,52,E3,49,2
159840,279.426396,455,0.758334,57,A3,49,2
159840,279.426396,455,0.758334,64,E4,49,2
159840,279.426396,911,1.518334,69,A4,49,2
160080,279.826396,227,0.378334,81,A5,49,1
160320,280.226396,959,1.598334,71,B4,49,1
160320,280.226396,239,0.398334,66,F4#,49,1
160320,280.226396,455,0.758334,39,D2#,49,2
160320,280.226396,455,0.758334,47,B2,49,2
160560,280.626396,239,0.398334,68,G4#,49,1
160800,281.026396,239,0.398334,69,A4,50,1
160800,281.026396,239,0.398334,51,D3#,50,2
160800,281.026396,239,0.398334,54,F3#,50,2
161040,281.426396,227,0.378334,66,F4#,50,1
161040,281.426396,227,0.378334,59,B3,50,2
161280,281.826396,359,0.598334,71,B4,49,1
161280,281.826396,479,0.798334,64,E4,49,1
161280,281.826396,479,0.798334,69,A4,49,1
161280,281.826396,239,0.398334,40,E2,49,2
161520,282.226396,227,0.378334,52,E3,49,2
161640,282.426396,113,0.188334,73,C5#,49,1
161760,282.626396,359,0.598334,73,C5#,49,1
161760,282.626396,479,0.798334,64,E4,49,1
161760,282.626396,479,0.798334,68,G4#,49,1
161760,282.626396,227,0.378334,52,E3,49,2
161760,282.626396,227,0.378334,56,G3#,49,2
162000,283.026396,227,0.378334,61,C4#,51,2
162120,283.226396,113,0.188334,74,D5,52,1
162240,283.426396,239,0.398334,74,D5,54,1
162240,283.426396,479,0.798334,62,D4,54,1
162240,283.426396,479,0.798334,66,F4#,54,1
162240,283.426396,227,0.378334,47,B2,54,2
162240,283.426396,227,0.378334,54,F3#,54,2
162480,283.826396,239,0.398334,73,C5#,56,1
162480,283.826396,227,0.378334,59,B3,56,2
162720,284.226396,239,0.398334,74,D5,59,1
162720,284.226396,479,0.798334,62,D4,59,1
162720,284.226396,479,0.798334,64,E4,59,1
162720,284.226396,227,0.378334,40,E2,59,2
162720,284.226396,227,0.378334,47,B2,59,2
162960,284.626396,227,0.378334,68,G4#,61,1
162960,284.626396,227,0.378334,52,E3,61,2
163200,285.026396,479,0.798334,68,G4#,64,1
163200,285.026396,479,0.798334,62,D4,64,1
163200,285.026396,239,0.398334,45,A2,64,2
163200,285.026396,239,0.398334,45,A2,64,2
163440,285.426396,239,0.398334,52,E3,64,2
163680,285.826396,455,0.758334,69,A4,64,1
163680,285.826396,455,0.758334,61,C4#,64,1
163680,285.826396,239,0.398334,57,A3,64,2
163920,286.226396,227,0.378334,56,G3#,64,2
164160,286.626396,479,0.798334,69,A4,64,1
164160,286.626396,479,0.798334,61,C4#,64,1
164160,286.626396,1439,2.398334,66,F4#,64,1
164160,286.626396,239,0.398334,54,F3#,64,2
164160,286.626396,1439,2.398334,45,A2,64,2
164400,287.026396,239,0.398334,57,A3,64,2
164640,287.426396,479,0.798334,71,B4,65,1
164640,287.426396,239,0.398334,61,C4#,65,2
164880,287.826396,239,0.398334,57,A3,65,2
165120,288.226396,455,0.758334,69,A4,64,1
165120,288.226396,239,0.398334,54,F3#,64,2
165360,288.626396,227,0.378334,52,E3,64,2
165600,289.026396,479,0.798334,69,A4,64,1
165600,289.026396,1439,2.398334,62,D4,64,1
165600,289.026396,1439,2.398334,66,F4#,64,1
165600,289.026396,239,0.398334,50,D3,64,2
165600,289.026396,1439,2.398334,45,A2,64,2
165840,289.426396,239,0.398334,54,F3#,64,2
166080,289.826396,479,0.798334,71,B4,65,1
166080,289.826396,239,0.398334,57,A3,65,2
166320,290.226396,239,0.398334,54,F3#,65,2
166560,290.626396,455,0.758334,69,A4,64,1
166560,290.626396,239,0.398334,50,D3,64,2
166800,291.026396,227,0.378334,49,C3#,64,2
167040,291.426396,479,0.798334,69,A4,64,1
167040,291.426396,479,0.798334,62,D4,64,1
167040,291.426396,479,0.798334,66,F4#,64,1
167040,291.426396,239,0.398334,47,B2,64,2
167040,291.426396,959,1.598334,45,A2,64,2
167280,291.826396,239,0.398334,50,D3,64,2
167520,292.226396,455,0.758334,74,D5,64,1
167520,292.226396,455,0.758334,66,F4#,64,1
167520,292.226396,455,0.758334,69,A4,64,1
167520,292.226396,239,0.398334,54,F3#,64,2
167760,292.626396,227,0.378334,57,A3,64,2
168000,293.026396,719,1.198334,73,C5#,64,1
168000,293.026396,959,1.598334,64,E4,64,1
168000,293.026396,959,1.598334,68,G4#,64,1
168000,293.026396,239,0.398334,52,E3,64,2
168000,293.026396,959,1.598334,45,A2,64,2
168240,293.426396,239,0.398334,56,G3#,64,2
168480,293.826396,239,0.398334,59,B3,64,2
168720,294.226396,227,0.378334,71,B4,64,1
168720,294.226396,227,0.378334,62,D4,64,2
168960,294.626396,479,0.798334,68,G4#,64,1
168960,294.626396,479,0.798334,62,D4,64,1
168960,294.626396,239,0.398334,45,A2,64,2
168960,294.626396,239,0.398334,45,A2,64,2
169200,295.026396,239,0.398334,52,E3,64,2
169440,295.426396,455,0.758334,69,A4,64,1
169440,295.426396,455,0.758334,61,C4#,64,1
169440,295.426396,239,0.398334,57,A3,64,2
169680,295.826396,227,0.378334,44,G2#,64,2
169920,296.226396,479,0.798334,69,A4,64,1
169920,296.226396,1439,2.398334,61,C4#,64,1
169920,296.226396,1439,2.398334,66,F4#,64,1
169920,296.226396,239,0.398334,42,F2#,64,2
169920,296.226396,239,0.398334,42,F2#,64,2
170160,296.626396,239,0.398334,49,C3#,64,2
170400,297.026396,479,0.798334,71,B4,64,1
170400,297.026396,239,0.398334,57,A3,64,2
170640,297.426396,239,0.398334,49,C3#,64,2
170880,297.826396,455,0.758334,69,A4,64,1
170880,297.826396,239,0.398334,42,F2#,64,2
171120,298.226396,227,0.378334,40,E2,64,2
171360,298.626396,479,0.798334,69,A4,64,1
171360,298.626396,1439,2.398334,62,D4,64,1
171360,298.626396,1439,2.398334,66,F4#,64,1
171360,298.626396,239,0.398334,38,D2,64,2
171360,298.626396,239,0.398334,38,D2,64,2
171600,299.026396,239,0.398334,45,A2,65,2
171840,299.426396,479,0.798334,71,B4,67,1
171840,299.426396,239,0.398334,54,F3#,67,2
172080,299.826396,239,0.398334,45,A2,69,2
172320,300.226396,455,0.758334,69,A4,71,1
172320,300.226396,239,0.398334,38,D2,71,2
172560,300.626396,239,0.398334,37,C2#,73,2
172800,301.026396,479,0.798334,69,A4,75,1
172800,301.026396,479,0.798334,62,D4,75,1
172800,301.026396,479,0.798334,66,F4#,75,1
172800,301.026396,239,0.398334,35,B1,75,2
172800,301.026396,239,0.398334,35,B1,75,2
173040,301.426396,239,0.398334,47,B2,77,2
173280,301.826396,455,0.758334,78,F5#,79,1
173280,301.826396,239,0.398334,50,D3,79,2
173520,302.226396,239,0.398334,54,F3#,79,2
173760,302.626396,719,1.240578,74,D5,79,1
173760,302.626396,239,0.398333,57,A3,79,2
174000,303.026396,239,0.412069,62,D4,79,2
174240,303.44019,239,0.426784,66,F4#,79,2
174480,303.86876,227,0.42037,71,B4,79,1
174480,303.86876,227,0.42037,62,D4,79,2
174720,304.313204,479,0.939538,68,G4#,76,1
174720,304.313204,959,1.961103,61,C4#,76,1
174720,304.313204,959,1.961103,64,E4,76,1
174720,304.313204,239,0.459616,40,E2,76,2
174960,304.774744,239,0.477998,49,C3#,73,2
175200,305.254742,455,0.967391,69,A4,70,1
175200,305.254742,239,0.497916,52,E3,70,2
175440,305.754742,227,0.493478,57,A3,67,2
175680,306.276481,1391,3.161363,64,E4,58,1
175680,306.276481,239,0.543181,61,C4#,49,1
175680,306.276481,455,1.03409,28,E1,49,2
175680,306.276481,455,1.03409,56,G3#,49,2
175920,306.821935,227,0.515909,59,B3,49,1
176160,307.36739,911,2.070454,62,D4,49,1
176160,307.36739,239,0.543181,28,E1,49,2
176160,307.36739,959,2.179545,54,F3#,49,2
176160,307.36739,959,2.179545,57,A3,49,2
176400,307.912844,239,0.543182,40,E2,49,2
176640,308.458299,239,0.543181,45,A2,49,2
176880,309.003753,227,0.515909,50,D3,49,2
177120,309.549208,1391,7.30227,64,E4,58,1
177120,309.549208,239,0.543181,61,C4#,49,1
177120,309.549208,227,0.515909,40,E2,49,2
177120,309.549208,227,0.515909,40,E2,49,2
177120,309.549208,455,1.03409,56,G3#,49,2
177360,310.094662,227,0.515909,59,B3,49,1
177360,310.094662,227,0.515909,50,D3,49,2
177600,310.640117,911,6.211361,69,A4,49,1
177600,310.640117,959,6.538633,33,A1,49,2
177600,310.640117,911,6.211361,57,A3,49,2
177663,311.069662,895,6.10227,49,C3#,49,2
