start_ticks,start_secs,dur_ticks,dur_secs,pitch,fullNoteOctave,velocity,part
0,0.0,2399,4.997916,86,D6,33,1
0,0.0,2879,5.997916,91,G6,33,1
0,0.0,2879,5.997916,98,D7,33,1
0,0.0,4799,9.997916,31,G1,33,2
0,0.0,3839,7.997916,38,D2,33,2
0,0.0,5759,11.997916,43,G2,33,2
480,1.0,479,0.997916,62,D4,33,1
480,1.0,479,0.997916,67,G4,33,1
480,1.0,479,0.997916,74,D5,33,1
480,1.0,479,0.997916,50,D3,33,2
480,1.0,479,0.997916,55,G3,33,2
960,2.0,479,0.997916,64,E4,33,1
960,2.0,479,0.997916,69,A4,33,1
960,2.0,479,0.997916,76,E5,33,1
960,2.0,479,0.997916,52,E3,33,2
960,2.0,479,0.997916,57,A3,33,2
1440,3.0,479,0.997916,71,B4,33,1
1440,3.0,479,0.997916,76,E5,33,1
1440,3.0,479,0.997916,83,B5,33,1
1440,3.0,479,0.997916,59,B3,33,2
1440,3.0,479,0.997916,64,E4,33,2
1920,4.0,479,0.997916,74,D5,33,1
1920,4.0,479,0.997916,79,G5,33,1
1920,4.0,479,0.997916,86,D6,33,1
1920,4.0,479,0.997916,62,D4,33,2
1920,4.0,479,0.997916,67,G4,33,2
2400,5.0,479,0.997916,76,E5,33,1
2400,5.0,479,0.997916,81,A5,33,1
2400,5.0,479,0.997916,88,E6,33,1
2400,5.0,479,0.997916,64,E4,33,2
2400,5.0,479,0.997916,69,A4,33,2
3360,7.0,479,0.997916,38,D2,33,2
3840,8.0,959,1.997916,31,G1,33,2
4800,10.0,959,1.997916,38,D2,33,2
5760,12.0,2399,4.997916,86,D6,33,1
5760,12.0,2879,5.997916,91,G6,33,1
5760,12.0,2879,5.997916,98,D7,33,1
5760,12.0,4799,9.997916,29,F1,33,2
5760,12.0,3839,7.997916,36,C2,33,2
5760,12.0,5759,11.997916,41,F2,33,2
6240,13.0,479,0.997916,62,D4,33,1
6240,13.0,479,0.997916,67,G4,33,1
6240,13.0,479,0.997916,74,D5,33,1
6240,13.0,479,0.997916,50,D3,33,2
6240,13.0,479,0.997916,55,G3,33,2
6720,14.0,479,0.997916,64,E4,33,1
6720,14.0,479,0.997916,69,A4,33,1
6720,14.0,479,0.997916,76,E5,33,1
6720,14.0,479,0.997916,52,E3,33,2
6720,14.0,479,0.997916,57,A3,33,2
7200,15.0,479,0.997916,71,B4,33,1
7200,15.0,479,0.997916,76,E5,33,1
7200,15.0,479,0.997916,83,B5,33,1
7200,15.0,479,0.997916,59,B3,33,2
7200,15.0,479,0.997916,64,E4,33,2
7680,16.0,479,0.997916,74,D5,33,1
7680,16.0,479,0.997916,79,G5,33,1
7680,16.0,479,0.997916,86,D6,33,1
7680,16.0,479,0.997916,62,D4,33,2
7680,16.0,479,0.997916,67,G4,33,2
8160,17.0,479,0.997916,76,E5,33,1
8160,17.0,479,0.997916,81,A5,33,1
8160,17.0,479,0.997916,88,E6,33,1
8160,17.0,479,0.997916,64,E4,33,2
8160,17.0,479,0.997916,69,A4,33,2
9120,19.0,479,0.997916,36,C2,33,2
9600,20.0,959,1.997916,29,F1,33,2
10560,22.0,959,1.997916,36,C2,33,2
11520,24.0,2399,4.997916,86,D6,33,1
11520,24.0,2879,5.997916,91,G6,33,1
11520,24.0,2879,5.997916,98,D7,33,1
11520,24.0,2879,5.997916,28,E1,33,2
11520,24.0,2879,5.997916,35,B1,33,2
11520,24.0,2879,5.997916,40,E2,33,2
12000,25.0,479,0.997916,62,D4,33,1
12000,25.0,479,0.997916,67,G4,33,1
12000,25.0,479,0.997916,74,D5,33,1
12000,25.0,479,0.997916,50,D3,33,2
12000,25.0,479,0.997916,55,G3,33,2
12480,26.0,479,0.997916,64,E4,33,1
12480,26.0,479,0.997916,69,A4,33,1
12480,26.0,479,0.997916,76,E5,33,1
12480,26.0,479,0.997916,52,E3,33,2
12480,26.0,479,0.997916,57,A3,33,2
12960,27.0,479,0.997916,71,B4,33,1
12960,27.0,479,0.997916,76,E5,33,1
12960,27.0,479,0.997916,83,B5,33,1
12960,27.0,479,0.997916,59,B3,33,2
12960,27.0,479,0.997916,64,E4,33,2
13440,28.0,479,0.997916,74,D5,33,1
13440,28.0,479,0.997916,79,G5,33,1
13440,28.0,479,0.997916,86,D6,33,1
13440,28.0,479,0.997916,62,D4,33,2
13440,28.0,479,0.997916,67,G4,33,2
13920,29.0,959,1.997916,76,E5,33,1
13920,29.0,959,1.997916,88,E6,33,1
13920,29.0,959,1.997916,64,E4,33,2
14880,31.0,1439,2.997916,76,E5,33,1
14880,31.0,1439,2.997916,88,E6,33,1
14880,31.0,1439,2.997916,64,E4,33,2
16320,34.0,1919,3.997916,76,E5,33,1
16320,34.0,1919,3.997916,88,E6,33,1
16320,34.0,1919,3.997916,64,E4,33,2
18240,38.0,959,1.997916,88,E6,33,1
18240,38.0,1919,3.997916,76,E5,33,1
18240,38.0,959,1.997916,88,E6,33,1
18240,38.0,959,1.997916,64,E4,33,2
18240,38.0,959,1.997916,64,E4,33,2
19200,40.0,1919,3.997916,85,C6#,33,1
19200,40.0,1919,3.997916,61,C4#,33,2
19200,40.0,959,1.997916,73,C5#,33,2
20160,42.0,1919,3.997916,76,E5,33,1
20160,42.0,1919,3.997916,88,E6,33,1
20160,42.0,1919,3.997916,64,E4,33,2
21120,44.0,959,1.997916,87,D6#,33,1
21120,44.0,959,1.997916,63,D4#,33,2
21120,44.0,959,1.997916,75,D5#,33,2
22080,46.0,959,1.997916,80,G5#,33,1
22080,46.0,959,1.997916,92,G6#,33,1
22080,46.0,959,1.997916,68,G4#,33,2
23040,48.0,959,1.997916,88,E6,33,1
23040,48.0,1919,3.997916,76,E5,33,1
23040,48.0,959,1.997916,88,E6,33,1
23040,48.0,959,1.997916,64,E4,33,2
23040,48.0,959,1.997916,64,E4,33,2
24000,50.0,959,1.997916,85,C6#,33,1
24000,50.0,959,1.997916,61,C4#,33,2
24000,50.0,959,1.997916,73,C5#,33,2
24960,52.0,1919,3.997916,80,G5#,33,1
24960,52.0,1919,3.997916,76,E5,33,1
24960,52.0,1919,3.997916,88,E6,33,1
24960,52.0,1919,3.997916,56,G3#,33,2
24960,52.0,1919,3.997916,68,G4#,33,2
24960,52.0,1919,3.997916,64,E4,33,2
26880,56.0,959,1.997916,82,A5#,33,1
26880,56.0,1919,3.997916,76,E5,33,1
26880,56.0,1919,3.997916,88,E6,33,1
26880,56.0,959,1.997916,58,A3#,33,2
26880,56.0,959,1.997916,70,A4#,33,2
26880,56.0,1919,3.997916,64,E4,33,2
27840,58.0,959,1.997916,87,D6#,33,1
27840,58.0,959,1.997916,63,D4#,33,2
27840,58.0,959,1.997916,75,D5#,33,2
28800,60.0,959,1.997916,83,B5,33,1
28800,60.0,1919,3.997916,76,E5,33,1
28800,60.0,1919,3.997916,88,E6,33,1
28800,60.0,959,1.997916,59,B3,33,2
28800,60.0,959,1.997916,71,B4,33,2
28800,60.0,1919,3.997916,64,E4,33,2
29760,62.0,959,1.997916,80,G5#,33,1
29760,62.0,959,1.997916,56,G3#,33,2
29760,62.0,959,1.997916,68,G4#,33,2
30720,64.0,959,1.997916,82,A5#,33,1
30720,64.0,1919,3.997916,76,E5,33,1
30720,64.0,1919,3.997916,88,E6,33,1
30720,64.0,959,1.997916,58,A3#,33,2
30720,64.0,959,1.997916,70,A4#,33,2
30720,64.0,1919,3.997916,64,E4,33,2
31680,66.0,959,1.997916,87,D6#,33,1
31680,66.0,959,1.997916,63,D4#,33,2
31680,66.0,959,1.997916,75,D5#,33,2
32640,68.0,959,1.997916,85,C6#,33,1
32640,68.0,1919,3.997916,76,E5,33,1
32640,68.0,1919,3.997916,88,E6,33,1
32640,68.0,959,1.997916,61,C4#,33,2
32640,68.0,959,1.997916,73,C5#,33,2
32640,68.0,1919,3.997916,64,E4,33,2
33600,70.0,959,1.997916,87,D6#,33,1
33600,70.0,959,1.997916,63,D4#,33,2
33600,70.0,959,1.997916,75,D5#,33,2
34560,72.0,2879,5.997916,76,E5,33,1
34560,72.0,2879,5.997916,83,B5,33,1
34560,72.0,2879,5.997916,88,E6,33,1
34560,72.0,2879,5.997916,59,B3,33,2
34560,72.0,2879,5.997916,64,E4,33,2
34560,72.0,2879,5.997916,71,B4,33,2
35520,74.0,959,1.997916,28,E1,33,2
35520,74.0,959,1.997916,40,E2,33,2
36000,75.0,1439,2.997916,47,B2,33,2
36480,76.0,959,1.997916,26,D1,33,2
36480,76.0,959,1.997916,38,D2,33,2
37440,78.0,2879,5.997916,95,B6,33,1
37440,78.0,2879,5.997916,100,E7,33,1
37440,78.0,2879,5.997916,107,B7,33,1
37440,78.0,2879,5.997916,24,C1,33,2
37440,78.0,2879,5.997916,31,G1,33,2
37440,78.0,2879,5.997916,36,C2,33,2
37920,79.0,479,0.997916,62,D4,33,1
37920,79.0,479,0.997916,67,G4,33,1
37920,79.0,479,0.997916,74,D5,33,1
37920,79.0,479,0.997916,43,G2,33,2
37920,79.0,479,0.997916,50,D3,33,2
37920,79.0,479,0.997916,57,A3,33,2
38400,80.0,479,0.997916,64,E4,33,1
38400,80.0,479,0.997916,69,A4,33,1
38400,80.0,479,0.997916,76,E5,33,1
38400,80.0,959,1.997916,45,A2,33,2
38400,80.0,959,1.997916,52,E3,33,2
38400,80.0,959,1.997916,59,B3,33,2
38880,81.0,479,0.997916,71,B4,33,1
38880,81.0,479,0.997916,76,E5,33,1
38880,81.0,479,0.997916,83,B5,33,1
39360,82.0,479,0.997916,74,D5,33,1
39360,82.0,479,0.997916,79,G5,33,1
39360,82.0,479,0.997916,86,D6,33,1
39360,82.0,479,0.997916,43,G2,33,2
39360,82.0,479,0.997916,50,D3,33,2
39360,82.0,479,0.997916,57,A3,33,2
39840,83.0,479,0.997916,76,E5,33,1
39840,83.0,479,0.997916,81,A5,33,1
39840,83.0,479,0.997916,88,E6,33,1
39840,83.0,959,1.997916,45,A2,33,2
39840,83.0,959,1.997916,52,E3,33,2
39840,83.0,959,1.997916,59,B3,33,2
40320,84.0,479,0.997916,83,B5,33,1
40320,84.0,479,0.997916,88,E6,33,1
40320,84.0,479,0.997916,95,B6,33,1
40320,84.0,2879,5.997916,24,C1,33,2
40320,84.0,2879,5.997916,31,G1,33,2
40320,84.0,2879,5.997916,36,C2,33,2
40800,85.0,479,0.997916,76,E5,33,1
40800,85.0,479,0.997916,81,A5,33,1
40800,85.0,479,0.997916,88,E6,33,1
40800,85.0,479,0.997916,43,G2,33,2
40800,85.0,479,0.997916,50,D3,33,2
40800,85.0,479,0.997916,57,A3,33,2
41280,86.0,479,0.997916,74,D5,33,1
41280,86.0,479,0.997916,79,G5,33,1
41280,86.0,479,0.997916,86,D6,33,1
41280,86.0,959,1.997916,45,A2,33,2
41280,86.0,959,1.997916,52,E3,33,2
41280,86.0,959,1.997916,59,B3,33,2
41760,87.0,479,0.997916,71,B4,33,1
41760,87.0,479,0.997916,76,E5,33,1
41760,87.0,479,0.997916,83,B5,33,1
42240,88.0,479,0.997916,64,E4,33,1
42240,88.0,479,0.997916,69,A4,33,1
42240,88.0,479,0.997916,76,E5,33,1
42240,88.0,479,0.997916,43,G2,33,2
42240,88.0,479,0.997916,50,D3,33,2
42240,88.0,479,0.997916,57,A3,33,2
42720,89.0,479,0.997916,62,D4,33,1
42720,89.0,479,0.997916,67,G4,33,1
42720,89.0,479,0.997916,74,D5,33,1
42720,89.0,479,0.997916,45,A2,33,2
42720,89.0,479,0.997916,52,E3,33,2
42720,89.0,479,0.997916,59,B3,33,2
43200,90.0,159,0.33125,35,B1,33,2
43200,90.0,2879,5.997916,23,B0,33,2
43360,90.333333,159,0.33125,42,F2#,33,2
43520,90.666666,159,0.33125,35,B1,33,2
43680,91.0,479,0.997916,51,D3#,33,1
43680,91.0,479,0.997916,59,B3,33,1
43680,91.0,479,0.997916,63,D4#,33,1
43680,91.0,479,0.997916,66,F4#,33,1
43680,91.0,159,0.33125,42,F2#,33,2
43840,91.333333,159,0.33125,35,B1,33,2
44000,91.666666,159,0.33125,42,F2#,33,2
44160,92.0,479,0.997916,54,F3#,33,1
44160,92.0,479,0.997916,61,C4#,33,1
44160,92.0,479,0.997916,63,D4#,33,1
44160,92.0,479,0.997916,68,G4#,33,1
44160,92.0,159,0.33125,35,B1,33,2
44320,92.333333,159,0.33125,42,F2#,33,2
44480,92.666666,159,0.33125,54,F3#,33,2
44640,93.0,479,0.997916,63,D4#,33,1
44640,93.0,479,0.997916,66,F4#,33,1
44640,93.0,479,0.997916,71,B4,33,1
44640,93.0,479,0.997916,75,D5#,33,1
44640,93.0,159,0.33125,56,G3#,33,2
44640,93.0,479,0.997916,59,B3,33,2
44800,93.333333,159,0.33125,54,F3#,33,2
44960,93.666666,319,0.664584,47,B2,33,2
45120,94.0,479,0.997916,54,F3#,33,1
45120,94.0,479,0.997916,61,C4#,33,1
45120,94.0,479,0.997916,63,D4#,33,1
45120,94.0,479,0.997916,68,G4#,33,1
45280,94.333333,159,0.33125,42,F2#,33,2
45440,94.666666,159,0.33125,35,B1,33,2
45600,95.0,479,0.997916,51,D3#,33,1
45600,95.0,479,0.997916,59,B3,33,1
45600,95.0,479,0.997916,63,D4#,33,1
45600,95.0,479,0.997916,66,F4#,33,1
45600,95.0,159,0.33125,42,F2#,33,2
45760,95.333333,159,0.33125,35,B1,33,2
45920,95.666666,159,0.33125,42,F2#,33,2
46080,96.0,2879,5.997916,78,F5#,49,1
46080,96.0,2879,5.997916,80,G5#,49,1
46080,96.0,2879,5.997916,87,D6#,49,1
46080,96.0,2879,5.997916,92,G6#,49,1
46080,96.0,1439,2.997916,54,F3#,49,2
46080,96.0,1599,3.33125,56,G3#,49,2
46080,96.0,1919,3.997916,59,B3,49,2
46080,96.0,2879,5.997916,66,F4#,49,2
46080,96.0,2879,5.997916,68,G4#,49,2
46240,96.333333,159,0.33125,23,B0,49,2
46400,96.666666,159,0.33125,35,B1,49,2
46560,97.0,479,0.997916,51,D3#,33,1
46560,97.0,479,0.997916,59,B3,33,1
46560,97.0,479,0.997916,63,D4#,33,1
46560,97.0,479,0.997916,66,F4#,33,1
46560,97.0,159,0.33125,42,F2#,33,2
46720,97.333333,159,0.33125,35,B1,33,2
46880,97.666666,159,0.33125,42,F2#,33,2
47040,98.0,479,0.997916,54,F3#,33,1
47040,98.0,479,0.997916,61,C4#,33,1
47040,98.0,479,0.997916,63,D4#,33,1
47040,98.0,479,0.997916,68,G4#,33,1
47040,98.0,159,0.33125,35,B1,33,2
47200,98.333333,159,0.33125,42,F2#,33,2
47360,98.666666,159,0.33125,54,F3#,33,2
47520,99.0,479,0.997916,63,D4#,33,1
47520,99.0,479,0.997916,66,F4#,33,1
47520,99.0,479,0.997916,71,B4,33,1
47520,99.0,479,0.997916,75,D5#,33,1
47520,99.0,159,0.33125,56,G3#,33,2
47520,99.0,479,0.997916,59,B3,33,2
47680,99.333333,159,0.33125,54,F3#,33,2
47840,99.666666,319,0.664584,47,B2,33,2
48000,100.0,479,0.997916,54,F3#,33,1
48000,100.0,479,0.997916,61,C4#,33,1
48000,100.0,479,0.997916,63,D4#,33,1
48000,100.0,479,0.997916,68,G4#,33,1
48160,100.333333,159,0.33125,42,F2#,33,2
48320,100.666666,159,0.33125,35,B1,33,2
48480,101.0,479,0.997916,51,D3#,33,1
48480,101.0,479,0.997916,59,B3,33,1
48480,101.0,479,0.997916,63,D4#,33,1
48480,101.0,479,0.997916,66,F4#,33,1
48480,101.0,159,0.33125,42,F2#,33,2
48640,101.333333,159,0.33125,35,B1,33,2
48800,101.666666,159,0.33125,42,F2#,33,2
48960,102.0,2879,5.997916,78,F5#,49,1
48960,102.0,2879,5.997916,80,G5#,49,1
48960,102.0,2879,5.997916,87,D6#,49,1
48960,102.0,2879,5.997916,92,G6#,49,1
48960,102.0,1439,2.997916,54,F3#,49,2
48960,102.0,1599,3.33125,56,G3#,49,2
48960,102.0,1919,3.997916,59,B3,49,2
48960,102.0,2879,5.997916,66,F4#,49,2
48960,102.0,2879,5.997916,68,G4#,49,2
49120,102.333333,159,0.33125,23,B0,49,2
49280,102.666666,159,0.33125,35,B1,49,2
49440,103.0,479,0.997916,51,D3#,33,1
49440,103.0,479,0.997916,59,B3,33,1
49440,103.0,479,0.997916,63,D4#,33,1
49440,103.0,479,0.997916,66,F4#,33,1
49440,103.0,159,0.33125,42,F2#,33,2
49600,103.333333,159,0.33125,35,B1,33,2
49760,103.666666,159,0.33125,42,F2#,33,2
49920,104.0,479,0.997916,54,F3#,33,1
49920,104.0,479,0.997916,61,C4#,33,1
49920,104.0,479,0.997916,63,D4#,33,1
49920,104.0,479,0.997916,68,G4#,33,1
49920,104.0,159,0.33125,35,B1,33,2
50080,104.333333,159,0.33125,42,F2#,33,2
50240,104.666666,159,0.33125,54,F3#,33,2
50400,105.0,479,0.997916,63,D4#,33,1
50400,105.0,479,0.997916,66,F4#,33,1
50400,105.0,479,0.997916,71,B4,33,1
50400,105.0,479,0.997916,75,D5#,33,1
50400,105.0,159,0.33125,56,G3#,33,2
50400,105.0,479,0.997916,59,B3,33,2
50560,105.333333,159,0.33125,54,F3#,33,2
50720,105.666666,319,0.664584,47,B2,33,2
50880,106.0,479,0.997916,51,D3#,33,1
50880,106.0,479,0.997916,59,B3,33,1
50880,106.0,479,0.997916,63,D4#,33,1
50880,106.0,479,0.997916,66,F4#,33,1
51040,106.333333,159,0.33125,42,F2#,33,2
51200,106.666666,159,0.33125,35,B1,33,2
51360,107.0,479,0.997916,54,F3#,33,1
51360,107.0,479,0.997916,61,C4#,33,1
51360,107.0,479,0.997916,63,D4#,33,1
51360,107.0,479,0.997916,68,G4#,33,1
51360,107.0,159,0.33125,42,F2#,33,2
51520,107.333333,159,0.33125,35,B1,33,2
51680,107.666666,159,0.33125,42,F2#,33,2
51840,108.0,2879,5.997916,75,D5#,33,1
51840,108.0,2879,5.997916,82,A5#,33,1
51840,108.0,2879,5.997916,87,D6#,33,1
51840,108.0,159,0.33125,28,E1,33,2
51840,108.0,2879,5.997916,27,D1#,33,2
52000,108.333333,159,0.33125,39,D2#,33,2
52160,108.666666,319,0.664584,46,A2#,33,2
52320,109.0,479,0.997916,58,A3#,33,1
52320,109.0,479,0.997916,65,F4,33,1
52320,109.0,479,0.997916,67,G4,33,1
52320,109.0,479,0.997916,70,A4#,33,1
52480,109.333333,159,0.33125,46,A2#,33,2
52640,109.666666,319,0.664584,51,D3#,33,2
52800,110.0,479,0.997916,60,C4,33,1
52800,110.0,479,0.997916,63,D4#,33,1
52800,110.0,479,0.997916,67,G4,33,1
52800,110.0,479,0.997916,72,C5,33,1
52960,110.333333,159,0.33125,51,D3#,33,2
53120,110.666666,159,0.33125,58,A3#,33,2
53280,111.0,479,0.997916,65,F4,33,1
53280,111.0,479,0.997916,67,G4,33,1
53280,111.0,479,0.997916,70,A4#,33,1
53280,111.0,479,0.997916,77,F5,33,1
53280,111.0,119,0.247916,62,D4,33,2
53280,111.0,479,0.997916,51,D3#,33,2
53280,111.0,479,0.997916,55,G3,33,2
53400,111.25,119,0.247916,60,C4,33,2
53520,111.5,239,0.497916,58,A3#,33,2
53760,112.0,479,0.997916,58,A3#,33,1
53760,112.0,479,0.997916,65,F4,33,1
53760,112.0,479,0.997916,67,G4,33,1
53760,112.0,479,0.997916,70,A4#,33,1
53920,112.333333,159,0.33125,46,A2#,33,2
54080,112.666666,319,0.664584,39,D2#,33,2
54240,113.0,479,0.997916,60,C4,33,1
54240,113.0,479,0.997916,63,D4#,33,1
54240,113.0,479,0.997916,67,G4,33,1
54240,113.0,479,0.997916,72,C5,33,1
54400,113.333333,159,0.33125,34,A1#,33,2
54560,113.666666,159,0.33125,27,D1#,33,2
54720,114.0,479,0.997916,67,G4,33,1
54720,114.0,479,0.997916,70,A4#,33,1
54720,114.0,479,0.997916,75,D5#,33,1
54720,114.0,479,0.997916,79,G5,33,1
54720,114.0,199,0.414583,65,F4,33,2
54720,114.0,479,0.997916,51,D3#,33,2
54720,114.0,479,0.997916,55,G3,33,2
54800,114.166666,79,0.164584,63,D4#,33,2
54880,114.333333,79,0.164583,62,D4,33,2
54960,114.5,239,0.497916,60,C4,33,2
55200,115.0,479,0.997916,58,A3#,34,1
55200,115.0,479,0.997916,65,F4,34,1
55200,115.0,479,0.997916,67,G4,34,1
55200,115.0,479,0.997916,70,A4#,34,1
55360,115.333333,159,0.33125,51,D3#,35,2
55520,115.666666,319,0.664584,46,A2#,36,2
55680,116.0,479,0.997916,60,C4,36,1
55680,116.0,479,0.997916,63,D4#,36,1
55680,116.0,479,0.997916,67,G4,36,1
55680,116.0,479,0.997916,72,C5,36,1
55840,116.333333,159,0.33125,39,D2#,37,2
56000,116.666666,159,0.33125,34,A1#,38,2
56160,117.0,479,0.997916,65,F4,38,1
56160,117.0,479,0.997916,67,G4,38,1
56160,117.0,479,0.997916,70,A4#,38,1
56160,117.0,479,0.997916,77,F5,38,1
56160,117.0,59,0.122916,27,D1#,38,2
56160,117.0,479,0.997916,51,D3#,38,2
56160,117.0,479,0.997916,55,G3,38,2
56220,117.125,59,0.122916,62,D4,38,2
56280,117.25,119,0.247916,60,C4,39,2
56400,117.5,239,0.497916,58,A3#,39,2
56640,118.0,479,0.997916,58,A3#,40,1
56640,118.0,479,0.997916,65,F4,40,1
56640,118.0,479,0.997916,67,G4,40,1
56640,118.0,479,0.997916,70,A4#,40,1
56800,118.333333,159,0.33125,46,A2#,41,2
56960,118.666666,319,0.664584,39,D2#,42,2
57120,119.0,479,0.997916,60,C4,42,1
57120,119.0,479,0.997916,63,D4#,42,1
57120,119.0,479,0.997916,67,G4,42,1
57120,119.0,479,0.997916,72,C5,42,1
57280,119.333333,159,0.33125,34,A1#,43,2
57440,119.666666,159,0.33125,27,D1#,44,2
57600,120.0,479,0.997916,67,G4,44,1
57600,120.0,479,0.997916,70,A4#,44,1
57600,120.0,479,0.997916,79,G5,44,1
57600,120.0,119,0.247916,53,F3,44,2
57600,120.0,479,0.997916,55,G3,44,2
57600,120.0,479,0.997916,58,A3#,44,2
57720,120.25,119,0.247916,51,D3#,45,2
57720,120.25,119,0.247916,63,D4#,45,2
57840,120.5,119,0.247916,50,D3,45,2
57840,120.5,119,0.247916,62,D4,45,2
57960,120.75,119,0.247916,48,C3,46,2
57960,120.75,119,0.247916,60,C4,46,2
58080,121.0,479,0.997916,58,A3#,46,1
58080,121.0,479,0.997916,65,F4,46,1
58080,121.0,479,0.997916,67,G4,46,1
58080,121.0,479,0.997916,70,A4#,46,1
58240,121.333333,159,0.33125,46,A2#,47,2
58240,121.333333,159,0.33125,58,A3#,47,2
58400,121.666666,319,0.664584,39,D2#,48,2
58400,121.666666,319,0.664584,51,D3#,48,2
58560,122.0,479,0.997916,60,C4,48,1
58560,122.0,479,0.997916,63,D4#,48,1
58560,122.0,479,0.997916,67,G4,48,1
58560,122.0,479,0.997916,72,C5,48,1
58720,122.333333,159,0.33125,34,A1#,49,2
58720,122.333333,159,0.33125,46,A2#,49,2
58880,122.666666,159,0.33125,27,D1#,50,2
58880,122.666666,159,0.33125,39,D2#,50,2
59040,123.0,479,0.997916,67,G4,50,1
59040,123.0,479,0.997916,70,A4#,50,1
59040,123.0,479,0.997916,79,G5,50,1
59040,123.0,119,0.247916,53,F3,50,2
59040,123.0,119,0.247916,65,F4,50,2
59040,123.0,479,0.997916,55,G3,50,2
59040,123.0,479,0.997916,58,A3#,50,2
59160,123.25,119,0.247916,51,D3#,51,2
59160,123.25,119,0.247916,63,D4#,51,2
59280,123.5,119,0.247916,50,D3,51,2
59280,123.5,119,0.247916,62,D4,51,2
59400,123.75,119,0.247916,48,C3,52,2
59400,123.75,119,0.247916,60,C4,52,2
59520,124.0,479,0.997916,58,A3#,52,1
59520,124.0,479,0.997916,65,F4,52,1
59520,124.0,479,0.997916,67,G4,52,1
59520,124.0,479,0.997916,70,A4#,52,1
59680,124.333333,159,0.33125,46,A2#,53,2
59680,124.333333,159,0.33125,58,A3#,53,2
59840,124.666666,319,0.664584,39,D2#,54,2
59840,124.666666,319,0.664584,51,D3#,54,2
60000,125.0,479,0.997916,60,C4,54,1
60000,125.0,479,0.997916,63,D4#,54,1
60000,125.0,479,0.997916,67,G4,54,1
60000,125.0,479,0.997916,72,C5,54,1
60160,125.333333,159,0.33125,34,A1#,55,2
60160,125.333333,159,0.33125,46,A2#,55,2
60320,125.666666,159,0.33125,27,D1#,55,2
60320,125.666666,159,0.33125,39,D2#,55,2
60480,126.0,1919,3.997916,79,G5,56,1
60480,126.0,2879,5.997916,86,D6,56,1
60480,126.0,2879,5.997916,91,G6,56,1
60480,126.0,2879,5.997916,31,G1,56,2
60480,126.0,2879,5.997916,38,D2,56,2
60480,126.0,2879,5.997916,43,G2,56,2
61440,128.0,959,1.997916,67,G4,60,1
61440,128.0,959,1.997916,79,G5,60,1
61440,128.0,1919,3.997916,72,C5,60,1
61440,128.0,1919,3.997916,74,D5,60,1
61440,128.0,1919,3.997916,60,C4,60,2
61440,128.0,1919,3.997916,62,D4,60,2
61440,128.0,959,1.997916,55,G3,60,2
62400,130.0,959,1.997916,69,A4,64,1
62400,130.0,959,1.997916,81,A5,64,1
62400,130.0,959,1.997916,57,A3,64,2
63360,132.0,1919,3.997916,74,D5,68,1
63360,132.0,1919,3.997916,79,G5,68,1
63360,132.0,1919,3.997916,84,C6,68,1
63360,132.0,1919,3.997916,86,D6,68,1
63360,132.0,959,1.997916,62,D4,68,2
63360,132.0,959,1.997916,65,F4,68,2
63360,132.0,959,1.997916,67,G4,68,2
63360,132.0,959,1.997916,69,A4,68,2
63360,132.0,959,1.997916,72,C5,68,2
64320,134.0,1919,3.997916,60,C4,72,2
64320,134.0,1919,3.997916,62,D4,72,2
64320,134.0,1919,3.997916,65,F4,72,2
64320,134.0,959,1.997916,55,G3,72,2
64320,134.0,959,1.997916,67,G4,72,2
64800,135.0,479,0.997916,86,D6,74,1
64800,135.0,479,0.997916,98,D7,74,1
65280,136.0,479,0.997916,84,C6,76,1
65280,136.0,479,0.997916,96,C7,76,1
65280,136.0,959,1.997916,77,F5,76,1
65280,136.0,959,1.997916,81,A5,76,1
65280,136.0,959,1.997916,57,A3,76,2
65280,136.0,959,1.997916,69,A4,76,2
65760,137.0,479,0.997916,83,B5,78,1
65760,137.0,479,0.997916,95,B6,78,1
66240,138.0,479,0.997916,81,A5,80,1
66240,138.0,479,0.997916,93,A6,80,1
66240,138.0,2879,5.997916,74,D5,80,1
66240,138.0,2399,4.997916,77,F5,80,1
66240,138.0,959,1.997916,62,D4,80,2
66240,138.0,959,1.997916,65,F4,80,2
66240,138.0,959,1.997916,67,G4,80,2
66240,138.0,959,1.997916,69,A4,80,2
66240,138.0,959,1.997916,72,C5,80,2
66240,138.0,959,1.997916,74,D5,80,2
66720,139.0,479,0.997916,83,B5,82,1
66720,139.0,479,0.997916,95,B6,82,1
67200,140.0,479,0.997916,81,A5,84,1
67200,140.0,479,0.997916,93,A6,84,1
67200,140.0,1919,3.997916,60,C4,84,2
67200,140.0,1919,3.997916,62,D4,84,2
67200,140.0,1919,3.997916,65,F4,84,2
67200,140.0,959,1.997916,55,G3,84,2
67200,140.0,959,1.997916,67,G4,84,2
67680,141.0,479,0.997916,79,G5,86,1
67680,141.0,479,0.997916,91,G6,86,1
68160,142.0,479,0.997916,77,F5,88,1
68160,142.0,479,0.997916,89,F6,88,1
68160,142.0,959,1.997916,57,A3,88,2
68160,142.0,959,1.997916,69,A4,88,2
68640,143.0,479,0.997916,76,E5,90,1
68640,143.0,479,0.997916,88,E6,90,1
69120,144.0,959,1.997916,74,D5,92,1
69120,144.0,959,1.997916,81,A5,92,1
69120,144.0,959,1.997916,86,D6,92,1
69120,144.0,959,1.997916,62,D4,92,2
69120,144.0,959,1.997916,65,F4,92,2
69120,144.0,959,1.997916,67,G4,92,2
69120,144.0,959,1.997916,69,A4,92,2
69120,144.0,959,1.997916,72,C5,92,2
70080,146.0,959,1.997916,67,G4,96,1
70080,146.0,959,1.997916,79,G5,96,1
70080,146.0,1919,3.997916,57,A3,96,1
70080,146.0,1919,3.997916,60,C4,96,1
70080,146.0,1919,3.997916,65,F4,96,1
70560,147.0,479,0.997916,38,D2,96,2
70560,147.0,479,0.997916,50,D3,96,2
71040,148.0,959,1.997916,57,A3,96,1
71040,148.0,959,1.997916,69,A4,96,1
71040,148.0,479,0.997916,36,C2,96,2
71040,148.0,479,0.997916,48,C3,96,2
71520,149.0,479,0.997916,35,B1,96,2
71520,149.0,479,0.997916,47,B2,96,2
72000,150.0,959,1.997916,60,C4,96,1
72000,150.0,959,1.997916,62,D4,96,1
72000,150.0,959,1.997916,65,F4,96,1
72000,150.0,959,1.997916,69,A4,96,1
72000,150.0,959,1.997916,74,D5,96,1
72000,150.0,479,0.997916,33,A1,96,2
72000,150.0,479,0.997916,45,A2,96,2
72480,151.0,479,0.997916,35,B1,96,2
72480,151.0,479,0.997916,47,B2,96,2
72960,152.0,959,1.997916,55,G3,96,1
72960,152.0,959,1.997916,67,G4,96,1
72960,152.0,1919,3.997916,57,A3,96,1
72960,152.0,1919,3.997916,60,C4,96,1
72960,152.0,1919,3.997916,62,D4,96,1
72960,152.0,1919,3.997916,65,F4,96,1
72960,152.0,479,0.997916,33,A1,96,2
72960,152.0,479,0.997916,45,A2,96,2
73440,153.0,479,0.997916,31,G1,96,2
73440,153.0,479,0.997916,43,G2,96,2
73920,154.0,959,1.997916,57,A3,96,1
73920,154.0,959,1.997916,69,A4,96,1
73920,154.0,479,0.997916,29,F1,96,2
73920,154.0,479,0.997916,41,F2,96,2
74400,155.0,479,0.997916,28,E1,96,2
74400,155.0,479,0.997916,40,E2,96,2
74880,156.0,959,1.997916,60,C4,96,1
74880,156.0,959,1.997916,62,D4,96,1
74880,156.0,959,1.997916,65,F4,96,1
74880,156.0,959,1.997916,67,G4,96,1
74880,156.0,959,1.997916,69,A4,96,1
74880,156.0,959,1.997916,74,D5,96,1
74880,156.0,479,0.997916,26,D1,96,2
74880,156.0,479,0.997916,38,D2,96,2
75360,157.0,479,0.997916,36,C2,96,2
75360,157.0,479,0.997916,48,C3,96,2
75840,158.0,479,0.997916,33,A1,96,2
75840,158.0,479,0.997916,45,A2,96,2
76320,159.0,479,0.997916,31,G1,96,2
76320,159.0,479,0.997916,43,G2,96,2
76800,160.0,959,1.997916,43,G2,96,1
76800,160.0,479,0.997916,29,F1,96,2
76800,160.0,479,0.997916,41,F2,96,2
77280,161.0,479,0.997916,26,D1,96,2
77280,161.0,479,0.997916,38,D2,96,2
77760,162.0,12479,25.997916,24,C1,96,2
78720,164.0,959,1.997916,60,C4,112,1
78720,164.0,959,1.997916,64,E4,112,1
78720,164.0,959,1.997916,67,G4,112,1
78720,164.0,959,1.997916,72,C5,112,1
78720,164.0,959,1.997916,43,G2,112,2
78720,164.0,959,1.997916,48,C3,112,2
78720,164.0,959,1.997916,52,E3,112,2
78720,164.0,959,1.997916,55,G3,112,2
79680,166.0,959,1.997916,62,D4,112,1
79680,166.0,959,1.997916,65,F4,112,1
79680,166.0,959,1.997916,69,A4,112,1
79680,166.0,959,1.997916,74,D5,112,1
79680,166.0,959,1.997916,45,A2,112,2
79680,166.0,959,1.997916,50,D3,112,2
79680,166.0,959,1.997916,53,F3,112,2
79680,166.0,959,1.997916,57,A3,112,2
80640,168.0,1439,2.997916,67,G4,112,1
80640,168.0,1439,2.997916,71,B4,112,1
80640,168.0,1439,2.997916,74,D5,112,1
80640,168.0,1439,2.997916,79,G5,112,1
80640,168.0,1439,2.997916,50,D3,112,2
80640,168.0,1439,2.997916,55,G3,112,2
80640,168.0,1439,2.997916,59,B3,112,2
80640,168.0,1439,2.997916,62,D4,112,2
82080,171.0,479,0.997916,65,F4,112,1
82080,171.0,479,0.997916,69,A4,112,1
82080,171.0,479,0.997916,72,C5,112,1
82080,171.0,479,0.997916,77,F5,112,1
82080,171.0,479,0.997916,48,C3,112,2
82080,171.0,479,0.997916,53,F3,112,2
82080,171.0,479,0.997916,57,A3,112,2
82080,171.0,479,0.997916,60,C4,112,2
82560,172.0,479,0.997916,64,E4,112,1
82560,172.0,479,0.997916,67,G4,112,1
82560,172.0,479,0.997916,71,B4,112,1
82560,172.0,479,0.997916,76,E5,112,1
82560,172.0,479,0.997916,47,B2,112,2
82560,172.0,479,0.997916,52,E3,112,2
82560,172.0,479,0.997916,55,G3,112,2
82560,172.0,479,0.997916,59,B3,112,2
83040,173.0,479,0.997916,62,D4,112,1
83040,173.0,479,0.997916,65,F4,112,1
83040,173.0,479,0.997916,69,A4,112,1
83040,173.0,479,0.997916,74,D5,112,1
83040,173.0,479,0.997916,45,A2,112,2
83040,173.0,479,0.997916,50,D3,112,2
83040,173.0,479,0.997916,53,F3,112,2
83040,173.0,479,0.997916,57,A3,112,2
83520,174.0,959,1.997916,62,D4,112,1
83520,174.0,959,1.997916,65,F4,112,1
83520,174.0,959,1.997916,69,A4,112,1
83520,174.0,959,1.997916,74,D5,112,1
83520,174.0,959,1.997916,45,A2,112,2
83520,174.0,959,1.997916,50,D3,112,2
83520,174.0,959,1.997916,53,F3,112,2
83520,174.0,959,1.997916,57,A3,112,2
84480,176.0,959,1.997916,57,A3,112,1
84480,176.0,959,1.997916,60,C4,112,1
84480,176.0,959,1.997916,64,E4,112,1
84480,176.0,959,1.997916,69,A4,112,1
84480,176.0,959,1.997916,40,E2,112,2
84480,176.0,959,1.997916,45,A2,112,2
84480,176.0,959,1.997916,48,C3,112,2
84480,176.0,959,1.997916,52,E3,112,2
85440,178.0,959,1.997916,64,E4,112,1
85440,178.0,959,1.997916,67,G4,112,1
85440,178.0,959,1.997916,71,B4,112,1
85440,178.0,959,1.997916,76,E5,112,1
85440,178.0,959,1.997916,47,B2,112,2
85440,178.0,959,1.997916,52,E3,112,2
85440,178.0,959,1.997916,55,G3,112,2
85440,178.0,959,1.997916,59,B3,112,2
86400,180.0,479,0.997916,64,E4,112,1
86400,180.0,479,0.997916,67,G4,112,1
86400,180.0,479,0.997916,71,B4,112,1
86400,180.0,479,0.997916,76,E5,112,1
86400,180.0,479,0.997916,47,B2,112,2
86400,180.0,479,0.997916,52,E3,112,2
86400,180.0,479,0.997916,55,G3,112,2
86400,180.0,479,0.997916,59,B3,112,2
86880,181.0,479,0.997916,65,F4,112,1
86880,181.0,479,0.997916,69,A4,112,1
86880,181.0,479,0.997916,72,C5,112,1
86880,181.0,479,0.997916,77,F5,112,1
86880,181.0,479,0.997916,48,C3,112,2
86880,181.0,479,0.997916,53,F3,112,2
86880,181.0,479,0.997916,57,A3,112,2
86880,181.0,479,0.997916,60,C4,112,2
87360,182.0,1439,2.997916,62,D4,112,1
87360,182.0,1439,2.997916,65,F4,112,1
87360,182.0,1439,2.997916,69,A4,112,1
87360,182.0,1439,2.997916,74,D5,112,1
87360,182.0,1439,2.997916,45,A2,112,2
87360,182.0,1439,2.997916,50,D3,112,2
87360,182.0,1439,2.997916,53,F3,112,2
87360,182.0,1439,2.997916,57,A3,112,2
88800,185.0,479,0.997916,60,C4,112,1
88800,185.0,479,0.997916,64,E4,112,1
88800,185.0,479,0.997916,67,G4,112,1
88800,185.0,479,0.997916,72,C5,112,1
88800,185.0,479,0.997916,43,G2,112,2
88800,185.0,479,0.997916,48,C3,112,2
88800,185.0,479,0.997916,52,E3,112,2
88800,185.0,479,0.997916,55,G3,112,2
89280,186.0,1919,3.997916,60,C4,112,1
89280,186.0,1919,3.997916,64,E4,112,1
89280,186.0,1919,3.997916,67,G4,112,1
89280,186.0,1919,3.997916,72,C5,112,1
89280,186.0,1919,3.997916,43,G2,112,2
89280,186.0,1919,3.997916,48,C3,112,2
89280,186.0,1919,3.997916,52,E3,112,2
89280,186.0,1919,3.997916,55,G3,112,2
90240,188.0,5759,11.997916,24,C1,112,2
91200,190.0,959,1.997916,57,A3,112,1
91200,190.0,959,1.997916,60,C4,112,1
91200,190.0,959,1.997916,64,E4,112,1
91200,190.0,959,1.997916,69,A4,112,1
91200,190.0,959,1.997916,40,E2,112,2
91200,190.0,959,1.997916,45,A2,112,2
91200,190.0,959,1.997916,48,C3,112,2
91200,190.0,959,1.997916,52,E3,112,2
92160,192.0,959,1.997916,58,A3#,112,1
92160,192.0,959,1.997916,62,D4,112,1
92160,192.0,959,1.997916,65,F4,112,1
92160,192.0,959,1.997916,70,A4#,112,1
92160,192.0,959,1.997916,41,F2,112,2
92160,192.0,959,1.997916,46,A2#,112,2
92160,192.0,959,1.997916,50,D3,112,2
92160,192.0,959,1.997916,53,F3,112,2
93120,194.0,959,1.997916,62,D4,112,1
93120,194.0,959,1.997916,65,F4,112,1
93120,194.0,959,1.997916,69,A4,112,1
93120,194.0,959,1.997916,74,D5,112,1
93120,194.0,959,1.997916,45,A2,112,2
93120,194.0,959,1.997916,50,D3,112,2
93120,194.0,959,1.997916,53,F3,112,2
93120,194.0,959,1.997916,57,A3,112,2
94080,196.0,959,1.997916,65,F4,112,1
94080,196.0,959,1.997916,69,A4,112,1
94080,196.0,959,1.997916,72,C5,112,1
94080,196.0,959,1.997916,77,F5,112,1
94080,196.0,959,1.997916,48,C3,112,2
94080,196.0,959,1.997916,53,F3,112,2
94080,196.0,959,1.997916,57,A3,112,2
94080,196.0,959,1.997916,60,C4,112,2
95040,198.0,1919,3.997916,60,C4,112,1
95040,198.0,1919,3.997916,64,E4,112,1
95040,198.0,1919,3.997916,67,G4,112,1
95040,198.0,1919,3.997916,72,C5,112,1
95040,198.0,1919,3.997916,43,G2,112,2
95040,198.0,1919,3.997916,48,C3,112,2
95040,198.0,1919,3.997916,52,E3,112,2
95040,198.0,1919,3.997916,55,G3,112,2
96000,200.0,5759,11.997916,24,C1,112,2
96960,202.0,959,1.997916,57,A3,112,1
96960,202.0,959,1.997916,60,C4,112,1
96960,202.0,959,1.997916,64,E4,112,1
96960,202.0,959,1.997916,69,A4,112,1
96960,202.0,959,1.997916,40,E2,112,2
96960,202.0,959,1.997916,45,A2,112,2
96960,202.0,959,1.997916,48,C3,112,2
96960,202.0,959,1.997916,52,E3,112,2
97920,204.0,959,1.997916,58,A3#,112,1
97920,204.0,959,1.997916,62,D4,112,1
97920,204.0,959,1.997916,65,F4,112,1
97920,204.0,959,1.997916,70,A4#,112,1
97920,204.0,959,1.997916,41,F2,112,2
97920,204.0,959,1.997916,46,A2#,112,2
97920,204.0,959,1.997916,50,D3,112,2
97920,204.0,959,1.997916,53,F3,112,2
98880,206.0,959,1.997916,62,D4,112,1
98880,206.0,959,1.997916,65,F4,112,1
98880,206.0,959,1.997916,69,A4,112,1
98880,206.0,959,1.997916,74,D5,112,1
98880,206.0,959,1.997916,45,A2,112,2
98880,206.0,959,1.997916,50,D3,112,2
98880,206.0,959,1.997916,53,F3,112,2
98880,206.0,959,1.997916,57,A3,112,2
99840,208.0,959,1.997916,65,F4,112,1
99840,208.0,959,1.997916,69,A4,112,1
99840,208.0,959,1.997916,72,C5,112,1
99840,208.0,959,1.997916,77,F5,112,1
99840,208.0,959,1.997916,48,C3,112,2
99840,208.0,959,1.997916,53,F3,112,2
99840,208.0,959,1.997916,57,A3,112,2
99840,208.0,959,1.997916,60,C4,112,2
100800,210.0,1439,2.997916,67,G4,112,1
100800,210.0,1439,2.997916,70,A4#,112,1
100800,210.0,1439,2.997916,74,D5,112,1
100800,210.0,1439,2.997916,79,G5,112,1
100800,210.0,1439,2.997916,50,D3,112,2
100800,210.0,1439,2.997916,55,G3,112,2
100800,210.0,1439,2.997916,58,A3#,112,2
100800,210.0,1439,2.997916,62,D4,112,2
101760,212.0,2879,5.997916,24,C1,112,2
102240,213.0,479,0.997916,65,F4,112,1
102240,213.0,479,0.997916,69,A4,112,1
102240,213.0,479,0.997916,72,C5,112,1
102240,213.0,479,0.997916,77,F5,112,1
102240,213.0,479,0.997916,48,C3,112,2
102240,213.0,479,0.997916,53,F3,112,2
102240,213.0,479,0.997916,57,A3,112,2
102240,213.0,479,0.997916,60,C4,112,2
102720,214.0,479,0.997916,67,G4,112,1
102720,214.0,479,0.997916,70,A4#,112,1
102720,214.0,479,0.997916,74,D5,112,1
102720,214.0,479,0.997916,79,G5,112,1
102720,214.0,479,0.997916,50,D3,112,2
102720,214.0,479,0.997916,55,G3,112,2
102720,214.0,479,0.997916,58,A3#,112,2
102720,214.0,479,0.997916,62,D4,112,2
103200,215.0,479,0.997916,70,A4#,112,1
103200,215.0,479,0.997916,74,D5,112,1
103200,215.0,479,0.997916,77,F5,112,1
103200,215.0,479,0.997916,82,A5#,112,1
103200,215.0,479,0.997916,53,F3,112,2
103200,215.0,479,0.997916,58,A3#,112,2
103200,215.0,479,0.997916,62,D4,112,2
103200,215.0,479,0.997916,65,F4,112,2
103680,216.0,1919,3.997916,67,G4,112,1
103680,216.0,1919,3.997916,70,A4#,112,1
103680,216.0,1919,3.997916,74,D5,112,1
103680,216.0,1919,3.997916,79,G5,112,1
103680,216.0,1919,3.997916,50,D3,112,2
103680,216.0,1919,3.997916,55,G3,112,2
103680,216.0,1919,3.997916,58,A3#,112,2
103680,216.0,1919,3.997916,62,D4,112,2
104640,218.0,2879,5.997916,24,C1,112,2
105600,220.0,959,1.997916,69,A4,112,1
105600,220.0,959,1.997916,72,C5,112,1
105600,220.0,959,1.997916,76,E5,112,1
105600,220.0,959,1.997916,81,A5,112,1
105600,220.0,959,1.997916,52,E3,112,2
105600,220.0,959,1.997916,57,A3,112,2
105600,220.0,959,1.997916,60,C4,112,2
105600,220.0,959,1.997916,64,E4,112,2
106560,222.0,1919,3.997916,65,F4,112,1
106560,222.0,1919,3.997916,69,A4,112,1
106560,222.0,1919,3.997916,77,F5,112,1
106560,222.0,1919,3.997916,48,C3,112,2
106560,222.0,1919,3.997916,53,F3,112,2
106560,222.0,1919,3.997916,57,A3,112,2
106560,222.0,1919,3.997916,60,C4,112,2
107520,224.0,5759,11.997916,24,C1,112,2
108480,226.0,1919,3.997916,65,F4,112,1
108480,226.0,1919,3.997916,69,A4,112,1
108480,226.0,1919,3.997916,72,C5,112,1
108480,226.0,1919,3.997916,77,F5,112,1
108480,226.0,1919,3.997916,48,C3,112,2
108480,226.0,1919,3.997916,53,F3,112,2
108480,226.0,1919,3.997916,57,A3,112,2
108480,226.0,1919,3.997916,60,C4,112,2
110400,230.0,959,1.997916,62,D4,112,1
110400,230.0,959,1.997916,65,F4,112,1
110400,230.0,959,1.997916,69,A4,112,1
110400,230.0,959,1.997916,74,D5,112,1
110400,230.0,959,1.997916,45,A2,112,2
110400,230.0,959,1.997916,50,D3,112,2
110400,230.0,959,1.997916,53,F3,112,2
110400,230.0,959,1.997916,57,A3,112,2
111360,232.0,959,1.997916,64,E4,112,1
111360,232.0,959,1.997916,67,G4,112,1
111360,232.0,959,1.997916,71,B4,112,1
111360,232.0,959,1.997916,76,E5,112,1
111360,232.0,959,1.997916,47,B2,112,2
111360,232.0,959,1.997916,52,E3,112,2
111360,232.0,959,1.997916,55,G3,112,2
111360,232.0,959,1.997916,59,B3,112,2
112320,234.0,1919,3.997916,60,C4,112,1
112320,234.0,5759,11.997916,64,E4,112,1
112320,234.0,2879,5.997916,67,G4,112,1
112320,234.0,4799,9.997916,72,C5,112,1
112320,234.0,5759,11.997916,43,G2,112,2
112320,234.0,5759,11.997916,48,C3,112,2
112320,234.0,5759,11.997916,52,E3,112,2
112320,234.0,5759,11.997916,55,G3,112,2
113280,236.0,959,1.997916,60,C4,112,1
113280,236.0,4799,9.997916,24,C1,112,2
114240,238.0,959,1.997916,62,D4,112,1
115200,240.0,959,1.997916,67,G4,112,1
116160,242.0,959,1.997916,72,C5,112,1
117120,244.0,959,1.997916,74,D5,49,1
118080,246.0,2879,5.997916,67,G4,49,1
118080,246.0,2879,5.997916,72,C5,49,1
118080,246.0,2879,5.997916,74,D5,49,1
118080,246.0,2879,5.997916,79,G5,49,1
118080,246.0,2879,5.997916,55,G3,49,2
118080,246.0,2879,5.997916,60,C4,49,2
118080,246.0,2879,5.997916,62,D4,49,2
119040,248.0,1439,2.997916,84,C6,47,1
119040,248.0,1439,2.997916,86,D6,47,1
119040,248.0,1439,2.997916,96,C7,47,1
119040,248.0,1439,2.997916,98,D7,47,1
119040,248.0,1439,2.997916,34,A1#,47,2
119040,248.0,1439,2.997916,46,A2#,47,2
120960,252.0,2879,5.997916,67,G4,41,1
120960,252.0,2879,5.997916,72,C5,41,1
120960,252.0,2879,5.997916,74,D5,41,1
120960,252.0,2879,5.997916,79,G5,41,1
120960,252.0,2879,5.997916,55,G3,41,2
120960,252.0,2879,5.997916,60,C4,41,2
120960,252.0,2879,5.997916,62,D4,41,2
121920,254.0,1439,2.997916,84,C6,38,1
121920,254.0,1439,2.997916,86,D6,38,1
121920,254.0,1439,2.997916,96,C7,38,1
121920,254.0,1439,2.997916,98,D7,38,1
121920,254.0,959,1.997916,34,A1#,38,2
121920,254.0,959,1.997916,46,A2#,38,2
122880,256.0,479,0.997916,34,A1#,35,2
122880,256.0,479,0.997916,46,A2#,35,2
123840,258.0,2879,5.997916,67,G4,33,1
123840,258.0,2879,5.997916,72,C5,33,1
123840,258.0,2879,5.997916,74,D5,33,1
123840,258.0,2879,5.997916,79,G5,33,1
123840,258.0,2879,5.997916,55,G3,33,2
123840,258.0,2879,5.997916,60,C4,33,2
123840,258.0,2879,5.997916,62,D4,33,2
124800,260.0,1439,2.997916,84,C6,33,1
124800,260.0,1439,2.997916,86,D6,33,1
124800,260.0,1439,2.997916,96,C7,33,1
124800,260.0,1439,2.997916,98,D7,33,1
124800,260.0,1439,2.997916,32,G1#,33,2
124800,260.0,1439,2.997916,44,G2#,33,2
126720,264.0,2879,5.997916,67,G4,33,1
126720,264.0,2879,5.997916,72,C5,33,1
126720,264.0,2879,5.997916,74,D5,33,1
126720,264.0,2879,5.997916,79,G5,33,1
126720,264.0,2879,5.997916,55,G3,33,2
126720,264.0,2879,5.997916,60,C4,33,2
126720,264.0,2879,5.997916,62,D4,33,2
127680,266.0,1439,2.997916,84,C6,33,1
127680,266.0,1439,2.997916,86,D6,33,1
127680,266.0,1439,2.997916,96,C7,33,1
127680,266.0,1439,2.997916,98,D7,33,1
127680,266.0,1919,3.997916,32,G1#,33,2
127680,266.0,1919,3.997916,44,G2#,33,2
129600,270.0,959,1.997916,33,A1,33,2
129600,270.0,959,1.997916,45,A2,33,2
130560,272.0,1919,3.997916,32,G1#,33,2
130560,272.0,1919,3.997916,44,G2#,33,2
132480,276.0,1919,3.997916,52,E3,33,1
132480,276.0,8639,17.997916,32,G1#,33,2
132480,276.0,6719,13.997916,44,G2#,33,2
134400,280.0,1919,3.997916,49,C3#,33,1
136320,284.0,959,1.997916,51,D3#,33,1
137280,286.0,959,1.997916,56,G3#,33,1
138240,288.0,959,1.997916,52,E3,33,1
139200,290.0,959,1.997916,49,C3#,33,1
140160,292.0,1919,3.997916,44,G2#,33,1
141120,294.0,8639,17.997916,32,G1#,33,2
142080,296.0,959,1.997916,46,A2#,33,1
143040,298.0,959,1.997916,51,D3#,33,1
144000,300.0,959,1.997916,47,B2,33,1
144960,302.0,959,1.997916,56,G3#,33,1
144960,302.0,1919,3.997916,52,E3,33,1
144960,302.0,959,1.997916,44,G2#,33,2
145920,304.0,959,1.997916,58,A3#,33,1
145920,304.0,959,1.997916,46,A2#,33,2
146880,306.0,959,1.997916,63,D4#,33,1
146880,306.0,2879,5.997916,52,E3,33,1
146880,306.0,2879,5.997916,56,G3#,33,1
146880,306.0,2879,5.997916,58,A3#,33,1
146880,306.0,959,1.997916,51,D3#,33,2
147840,308.0,959,1.997916,61,C4#,33,1
147840,308.0,959,1.997916,49,C3#,33,2
148800,310.0,959,1.997916,63,D4#,33,1
148800,310.0,959,1.997916,51,D3#,33,2
149760,312.0,959,1.997916,47,B2,33,1
149760,312.0,959,1.997916,52,E3,33,1
149760,312.0,959,1.997916,56,G3#,33,1
149760,312.0,959,1.997916,59,B3,33,1
149760,312.0,5759,11.997916,32,G1#,33,2
150720,314.0,959,1.997916,68,G4#,33,1
150720,314.0,959,1.997916,80,G5#,33,1
150720,314.0,1919,3.997916,76,E5,33,1
150720,314.0,959,1.997916,56,G3#,33,2
150720,314.0,1919,3.997916,64,E4,33,2
151680,316.0,959,1.997916,70,A4#,33,1
151680,316.0,959,1.997916,82,A5#,33,1
151680,316.0,959,1.997916,58,A3#,33,2
152640,318.0,959,1.997916,75,D5#,33,1
152640,318.0,959,1.997916,87,D6#,33,1
152640,318.0,2879,5.997916,80,G5#,33,1
152640,318.0,2879,5.997916,82,A5#,33,1
152640,318.0,959,1.997916,63,D4#,33,2
152640,318.0,2879,5.997916,64,E4,33,2
152640,318.0,2879,5.997916,68,G4#,33,2
152640,318.0,2879,5.997916,70,A4#,33,2
153600,320.0,959,1.997916,73,C5#,33,1
153600,320.0,959,1.997916,85,C6#,33,1
153600,320.0,959,1.997916,61,C4#,33,2
154560,322.0,959,1.997916,75,D5#,33,1
154560,322.0,959,1.997916,87,D6#,33,1
154560,322.0,959,1.997916,63,D4#,33,2
155520,324.0,959,1.997916,78,F5#,33,1
155520,324.0,959,1.997916,81,A5,33,1
155520,324.0,959,1.997916,85,C6#,33,1
155520,324.0,959,1.997916,90,F6#,33,1
155520,324.0,2879,5.997916,32,G1#,33,2
155520,324.0,2879,5.997916,44,G2#,33,2
156480,326.0,959,1.997916,75,D5#,33,1
156480,326.0,959,1.997916,87,D6#,33,1
156480,326.0,2879,5.997916,78,F5#,33,1
156480,326.0,2879,5.997916,81,A5,33,1
156480,326.0,1919,3.997916,54,F3#,33,2
156480,326.0,1919,3.997916,57,A3,33,2
156480,326.0,959,1.997916,49,C3#,33,2
156480,326.0,959,1.997916,61,C4#,33,2
157440,328.0,1439,2.997916,73,C5#,33,1
157440,328.0,1439,2.997916,85,C6#,33,1
157440,328.0,959,1.997916,51,D3#,33,2
157440,328.0,959,1.997916,63,D4#,33,2
158400,330.0,959,1.997916,52,E3,33,2
158400,330.0,959,1.997916,57,A3,33,2
158400,330.0,959,1.997916,61,C4#,33,2
158400,330.0,959,1.997916,66,F4#,33,2
158400,330.0,2879,5.997916,32,G1#,33,2
158400,330.0,2879,5.997916,44,G2#,33,2
158880,331.0,479,0.997916,75,D5#,37,1
158880,331.0,479,0.997916,87,D6#,37,1
159360,332.0,959,1.997916,78,F5#,41,1
159360,332.0,959,1.997916,81,A5,41,1
159360,332.0,959,1.997916,85,C6#,41,1
159360,332.0,959,1.997916,90,F6#,41,1
159360,332.0,1919,3.997916,54,F3#,41,2
159360,332.0,1919,3.997916,57,A3,41,2
159360,332.0,1919,3.997916,61,C4#,41,2
159360,332.0,959,1.997916,51,D3#,41,2
159360,332.0,959,1.997916,63,D4#,41,2
160320,334.0,479,0.997916,75,D5#,49,1
160320,334.0,479,0.997916,87,D6#,49,1
160320,334.0,959,1.997916,78,F5#,49,1
160320,334.0,959,1.997916,81,A5,49,1
160320,334.0,959,1.997916,49,C3#,49,2
160320,334.0,959,1.997916,61,C4#,49,2
160800,335.0,479,0.997916,78,F5#,49,1
160800,335.0,479,0.997916,90,F6#,49,1
161280,336.0,959,1.997916,80,G5#,49,1
161280,336.0,959,1.997916,85,C6#,49,1
161280,336.0,959,1.997916,92,G6#,49,1
161280,336.0,2879,5.997916,32,G1#,49,2
161280,336.0,2879,5.997916,44,G2#,49,2
162240,338.0,959,1.997916,75,D5#,58,1
162240,338.0,959,1.997916,87,D6#,58,1
162240,338.0,1919,3.997916,78,F5#,58,1
162240,338.0,1919,3.997916,81,A5,58,1
162240,338.0,959,1.997916,49,C3#,58,2
162240,338.0,959,1.997916,61,C4#,58,2
162240,338.0,1919,3.997916,54,F3#,58,2
162240,338.0,1919,3.997916,57,A3,58,2
163200,340.0,959,1.997916,73,C5#,67,1
163200,340.0,959,1.997916,85,C6#,67,1
163200,340.0,959,1.997916,51,D3#,67,2
163200,340.0,959,1.997916,63,D4#,67,2
164160,342.0,479,0.997916,73,C5#,77,1
164160,342.0,479,0.997916,85,C6#,77,1
164160,342.0,959,1.997916,78,F5#,77,1
164160,342.0,959,1.997916,81,A5,77,1
164160,342.0,959,1.997916,56,G3#,77,2
164160,342.0,959,1.997916,57,A3,77,2
164160,342.0,959,1.997916,61,C4#,77,2
164160,342.0,959,1.997916,63,D4#,77,2
164160,342.0,959,1.997916,68,G4#,77,2
164640,343.0,479,0.997916,75,D5#,81,1
164640,343.0,479,0.997916,87,D6#,81,1
165120,344.0,959,1.997916,80,G5#,86,1
165120,344.0,959,1.997916,85,C6#,86,1
165120,344.0,959,1.997916,92,G6#,86,1
165120,344.0,959,1.997916,51,D3#,86,2
165120,344.0,959,1.997916,63,D4#,86,2
165120,344.0,1919,3.997916,54,F3#,86,2
165120,344.0,1919,3.997916,57,A3,86,2
165120,344.0,1919,3.997916,61,C4#,86,2
166080,346.0,479,0.997916,78,F5#,96,1
166080,346.0,479,0.997916,90,F6#,96,1
166080,346.0,959,1.997916,87,D6#,96,1
166080,346.0,959,1.997916,49,C3#,96,2
166080,346.0,959,1.997916,61,C4#,96,2
166560,347.0,479,0.997916,80,G5#,96,1
166560,347.0,479,0.997916,92,G6#,96,1
167040,348.0,959,1.997916,85,C6#,96,1
167040,348.0,959,1.997916,97,C7#,96,1
167040,348.0,959,1.997916,87,D6#,96,1
167040,348.0,959,1.997916,90,F6#,96,1
167040,348.0,959,1.997916,61,C4#,96,2
167040,348.0,959,1.997916,63,D4#,96,2
167040,348.0,959,1.997916,66,F4#,96,2
167040,348.0,959,1.997916,69,A4,96,2
167040,348.0,959,1.997916,73,C5#,96,2
167040,348.0,1919,3.997916,32,G1#,96,2
168000,350.0,959,1.997916,80,G5#,96,1
168000,350.0,959,1.997916,92,G6#,96,1
168000,350.0,1919,3.997916,85,C6#,96,1
168000,350.0,1919,3.997916,87,D6#,96,1
168000,350.0,959,1.997916,56,G3#,96,2
168000,350.0,959,1.997916,68,G4#,96,2
168000,350.0,1919,3.997916,57,A3,96,2
168000,350.0,1919,3.997916,61,C4#,96,2
168000,350.0,1919,3.997916,63,D4#,96,2
168960,352.0,959,1.997916,78,F5#,96,1
168960,352.0,959,1.997916,90,F6#,96,1
168960,352.0,958,1.995833,32,G1#,96,2
168960,352.0,959,1.997916,54,F3#,96,2
168960,352.0,959,1.997916,66,F4#,96,2
169920,354.0,1919,3.997916,83,B5,96,1
169920,354.0,1919,3.997916,85,C6#,96,1
169920,354.0,1919,3.997916,87,D6#,96,1
169920,354.0,1919,3.997916,95,B6,96,1
169920,354.0,1919,3.997916,59,B3,96,2
169920,354.0,1919,3.997916,61,C4#,96,2
169920,354.0,1919,3.997916,63,D4#,96,2
169920,354.0,1919,3.997916,66,F4#,96,2
169920,354.0,1919,3.997916,71,B4,96,2
170400,355.0,479,0.997916,32,G1#,99,2
170880,356.0,479,0.997916,44,G2#,102,2
171360,357.0,479,0.997916,51,D3#,105,2
171840,358.0,479,0.997916,78,F5#,108,1
171840,358.0,479,0.997916,90,F6#,108,1
171840,358.0,959,1.997916,85,C6#,108,1
171840,358.0,959,1.997916,87,D6#,108,1
171840,358.0,479,0.997916,54,F3#,108,2
171840,358.0,479,0.997916,66,F4#,108,2
171840,358.0,959,1.997916,57,A3,108,2
171840,358.0,959,1.997916,61,C4#,108,2
171840,358.0,959,1.997916,63,D4#,108,2
172320,359.0,479,0.997916,81,A5,112,1
172320,359.0,479,0.997916,93,A6,112,1
172320,359.0,479,0.997916,57,A3,112,2
172320,359.0,479,0.997916,69,A4,112,2
172560,359.5,3119,6.497916,32,G1#,112,2
172800,360.0,959,1.997916,85,C6#,112,1
172800,360.0,959,1.997916,97,C7#,112,1
172800,360.0,959,1.997916,87,D6#,112,1
172800,360.0,959,1.997916,90,F6#,112,1
172800,360.0,959,1.997916,61,C4#,112,2
172800,360.0,959,1.997916,63,D4#,112,2
172800,360.0,959,1.997916,66,F4#,112,2
172800,360.0,959,1.997916,69,A4,112,2
172800,360.0,959,1.997916,73,C5#,112,2
173760,362.0,959,1.997916,80,G5#,112,1
173760,362.0,959,1.997916,92,G6#,112,1
173760,362.0,1919,3.997916,85,C6#,112,1
173760,362.0,1919,3.997916,87,D6#,112,1
173760,362.0,959,1.997916,56,G3#,112,2
173760,362.0,959,1.997916,68,G4#,112,2
173760,362.0,1919,3.997916,57,A3,112,2
173760,362.0,1919,3.997916,61,C4#,112,2
173760,362.0,1919,3.997916,63,D4#,112,2
174720,364.0,959,1.997916,78,F5#,112,1
174720,364.0,959,1.997916,90,F6#,112,1
174720,364.0,959,1.997916,54,F3#,112,2
174720,364.0,959,1.997916,66,F4#,112,2
175680,366.0,959,1.997916,83,B5,112,1
175680,366.0,959,1.997916,95,B6,112,1
175680,366.0,1919,3.997916,85,C6#,112,1
175680,366.0,1919,3.997916,87,D6#,112,1
175680,366.0,959,1.997916,59,B3,112,2
175680,366.0,959,1.997916,71,B4,112,2
175680,366.0,1919,3.997916,61,C4#,112,2
175680,366.0,1919,3.997916,63,D4#,112,2
175680,366.0,1919,3.997916,66,F4#,112,2
176640,368.0,959,1.997916,78,F5#,105,1
176640,368.0,959,1.997916,90,F6#,105,1
176640,368.0,959,1.997916,54,F3#,105,2
176640,368.0,959,1.997916,66,F4#,105,2
177600,370.0,959,1.997916,63,D4#,97,1
177600,370.0,959,1.997916,67,G4,97,1
177600,370.0,959,1.997916,70,A4#,97,1
177600,370.0,959,1.997916,73,C5#,97,1
177600,370.0,959,1.997916,75,D5#,97,1
177600,370.0,959,1.997916,51,D3#,97,2
177600,370.0,959,1.997916,58,A3#,97,2
177600,370.0,959,1.997916,61,C4#,97,2
178560,372.0,959,1.997916,61,C4#,89,1
178560,372.0,959,1.997916,65,F4,89,1
178560,372.0,959,1.997916,68,G4#,89,1
178560,372.0,959,1.997916,71,B4,89,1
178560,372.0,959,1.997916,73,C5#,89,1
178560,372.0,959,1.997916,49,C3#,89,2
178560,372.0,959,1.997916,56,G3#,89,2
178560,372.0,959,1.997916,59,B3,89,2
179520,374.0,959,1.997916,59,B3,81,1
179520,374.0,959,1.997916,63,D4#,81,1
179520,374.0,959,1.997916,66,F4#,81,1
179520,374.0,959,1.997916,69,A4,81,1
179520,374.0,959,1.997916,71,B4,81,1
179520,374.0,959,1.997916,47,B2,81,2
179520,374.0,959,1.997916,54,F3#,81,2
179520,374.0,959,1.997916,57,A3,81,2
180480,376.0,479,0.997916,57,A3,73,1
180480,376.0,479,0.997916,61,C4#,73,1
180480,376.0,479,0.997916,64,E4,73,1
180480,376.0,479,0.997916,67,G4,73,1
180480,376.0,479,0.997916,69,A4,73,1
180480,376.0,479,0.997916,45,A2,73,2
180480,376.0,479,0.997916,52,E3,73,2
180480,376.0,479,0.997916,55,G3,73,2
180960,377.0,479,0.997916,61,C4#,69,1
180960,377.0,479,0.997916,65,F4,69,1
180960,377.0,479,0.997916,68,G4#,69,1
180960,377.0,479,0.997916,71,B4,69,1
180960,377.0,479,0.997916,73,C5#,69,1
180960,377.0,479,0.997916,49,C3#,69,2
180960,377.0,479,0.997916,56,G3#,69,2
180960,377.0,479,0.997916,59,B3,69,2
181440,378.0,1919,3.997916,56,G3#,65,1
181440,378.0,1919,3.997916,60,C4,65,1
181440,378.0,1919,3.997916,63,D4#,65,1
181440,378.0,1919,3.997916,66,F4#,65,1
181440,378.0,1919,3.997916,68,G4#,65,1
181440,378.0,1919,3.997916,44,G2#,65,2
181440,378.0,1919,3.997916,51,D3#,65,2
181440,378.0,1919,3.997916,54,F3#,65,2
183360,382.0,959,1.997916,51,D3#,49,1
183360,382.0,959,1.997916,54,F3#,49,1
183360,382.0,959,1.997916,58,A3#,49,1
183360,382.0,959,1.997916,61,C4#,49,1
183360,382.0,959,1.997916,63,D4#,49,1
183360,382.0,959,1.997916,39,D2#,49,2
183360,382.0,959,1.997916,46,A2#,49,2
183360,382.0,959,1.997916,49,C3#,49,2
184320,384.0,1919,3.997916,56,G3#,49,1
184320,384.0,1919,3.997916,60,C4,49,1
184320,384.0,1919,3.997916,63,D4#,49,1
184320,384.0,1919,3.997916,66,F4#,49,1
184320,384.0,1919,3.997916,68,G4#,49,1
184320,384.0,1919,3.997916,44,G2#,49,2
184320,384.0,1919,3.997916,51,D3#,49,2
184320,384.0,1919,3.997916,54,F3#,49,2
186240,388.0,959,1.997916,61,C4#,49,1
186240,388.0,959,1.997916,65,F4,49,1
186240,388.0,959,1.997916,68,G4#,49,1
186240,388.0,959,1.997916,71,B4,49,1
186240,388.0,959,1.997916,73,C5#,49,1
186240,388.0,959,1.997916,49,C3#,49,2
186240,388.0,959,1.997916,56,G3#,49,2
186240,388.0,959,1.997916,59,B3,49,2
187200,390.0,2879,5.997916,56,G3#,33,1
187200,390.0,2879,5.997916,60,C4,33,1
187200,390.0,2879,5.997916,63,D4#,33,1
187200,390.0,2879,5.997916,66,F4#,33,1
187200,390.0,2879,5.997916,68,G4#,33,1
187200,390.0,2879,5.997916,44,G2#,33,2
187200,390.0,2879,5.997916,51,D3#,33,2
187200,390.0,2879,5.997916,54,F3#,33,2
188160,392.0,2879,5.997916,32,G1#,33,2
190080,396.0,2879,5.997916,56,G3#,33,1
190080,396.0,2879,5.997916,59,B3,33,1
190080,396.0,2879,5.997916,63,D4#,33,1
190080,396.0,2879,5.997916,66,F4#,33,1
190080,396.0,2879,5.997916,68,G4#,33,1
190080,396.0,2879,5.997916,44,G2#,33,2
190080,396.0,2879,5.997916,51,D3#,33,2
190080,396.0,2879,5.997916,54,F3#,33,2
191040,398.0,1919,3.997916,32,G1#,33,2
192960,402.0,2879,5.997916,30,F1#,33,2
192960,402.0,2879,5.997916,32,G1#,33,2
193920,404.0,1919,3.997916,36,C2,33,1
195840,408.0,2879,5.997916,32,G1#,33,2
196800,410.0,2159,4.497916,36,C2,33,1
198720,414.0,2879,5.997916,30,F1#,33,2
198720,414.0,2879,5.997916,32,G1#,33,2
198960,414.5,239,0.497916,38,D2,33,1
199200,415.0,239,0.497916,36,C2,33,1
199440,415.5,239,0.497916,38,D2,33,1
199680,416.0,239,0.497916,36,C2,33,1
199920,416.5,239,0.497916,38,D2,33,1
200160,417.0,239,0.497916,36,C2,33,1
200400,417.5,239,0.497916,38,D2,33,1
200640,418.0,239,0.497916,36,C2,33,1
200880,418.5,239,0.497916,38,D2,33,1
201120,419.0,239,0.497916,36,C2,33,1
201360,419.5,239,0.497916,38,D2,33,1
201600,420.0,239,0.497916,36,C2,33,2
201840,420.5,239,0.497916,38,D2,33,2
202080,421.0,239,0.497916,36,C2,33,2
202320,421.5,239,0.497916,38,D2,33,2
202560,422.0,239,0.497916,36,C2,33,2
202800,422.5,239,0.497916,38,D2,33,2
203040,423.0,239,0.497916,36,C2,33,2
203280,423.5,239,0.497916,38,D2,33,2
203520,424.0,239,0.497916,36,C2,33,2
203760,424.5,239,0.497916,38,D2,33,2
204000,425.0,239,0.497916,36,C2,33,2
204240,425.5,239,0.497916,38,D2,33,2
204480,426.0,239,0.497916,36,C2,33,2
204720,426.5,239,0.497916,38,D2,33,2
204960,427.0,239,0.497916,36,C2,33,2
205200,427.5,239,0.497916,31,G1,33,2
205440,428.0,959,1.997916,48,C3,33,1
205440,428.0,959,1.997916,52,E3,33,1
205440,428.0,959,1.997916,55,G3,33,1
205440,428.0,959,1.997916,60,C4,33,1
205440,428.0,239,0.497916,24,C1,33,2
205680,428.5,239,0.497916,31,G1,33,2
205920,429.0,239,0.497916,36,C2,33,2
206160,429.5,239,0.497916,38,D2,33,2
206400,430.0,959,1.997916,50,D3,33,1
206400,430.0,959,1.997916,53,F3,33,1
206400,430.0,959,1.997916,57,A3,33,1
206400,430.0,959,1.997916,62,D4,33,1
206400,430.0,239,0.497916,36,C2,33,2
206640,430.5,239,0.497916,31,G1,33,2
206880,431.0,239,0.497916,24,C1,33,2
207120,431.5,239,0.497916,31,G1,33,2
207360,432.0,1439,2.997916,55,G3,33,1
207360,432.0,1439,2.997916,59,B3,33,1
207360,432.0,1439,2.997916,62,D4,33,1
207360,432.0,1439,2.997916,67,G4,33,1
207360,432.0,239,0.497916,36,C2,33,2
207600,432.5,239,0.497916,38,D2,33,2
207840,433.0,239,0.497916,36,C2,33,2
208080,433.5,239,0.497916,31,G1,33,2
208320,434.0,239,0.497916,24,C1,33,2
208560,434.5,239,0.497916,31,G1,33,2
208800,435.0,479,0.997916,53,F3,33,1
208800,435.0,479,0.997916,57,A3,33,1
208800,435.0,479,0.997916,60,C4,33,1
208800,435.0,479,0.997916,65,F4,33,1
208800,435.0,239,0.497916,36,C2,33,2
209040,435.5,239,0.497916,38,D2,33,2
209280,436.0,479,0.997916,52,E3,33,1
209280,436.0,479,0.997916,55,G3,33,1
209280,436.0,479,0.997916,59,B3,33,1
209280,436.0,479,0.997916,64,E4,33,1
209280,436.0,239,0.497916,36,C2,33,2
209520,436.5,239,0.497916,31,G1,33,2
209760,437.0,479,0.997916,50,D3,33,1
209760,437.0,479,0.997916,53,F3,33,1
209760,437.0,479,0.997916,57,A3,33,1
209760,437.0,479,0.997916,62,D4,33,1
209760,437.0,239,0.497916,24,C1,33,2
210000,437.5,239,0.497916,31,G1,33,2
210240,438.0,959,1.997916,50,D3,33,1
210240,438.0,959,1.997916,53,F3,33,1
210240,438.0,959,1.997916,57,A3,33,1
210240,438.0,959,1.997916,62,D4,33,1
210240,438.0,239,0.497916,36,C2,33,2
210480,438.5,239,0.497916,38,D2,33,2
210720,439.0,239,0.497916,36,C2,33,2
210960,439.5,239,0.497916,31,G1,33,2
211200,440.0,959,1.997916,45,A2,33,1
211200,440.0,959,1.997916,48,C3,33,1
211200,440.0,959,1.997916,52,E3,33,1
211200,440.0,959,1.997916,57,A3,33,1
211200,440.0,239,0.497916,24,C1,33,2
211440,440.5,239,0.497916,31,G1,33,2
211680,441.0,239,0.497916,36,C2,33,2
211920,441.5,239,0.497916,38,D2,33,2
212160,442.0,1439,2.997916,52,E3,33,1
212160,442.0,1439,2.997916,55,G3,33,1
212160,442.0,1439,2.997916,59,B3,33,1
212160,442.0,1439,2.997916,64,E4,33,1
212160,442.0,239,0.497916,36,C2,33,2
212400,442.5,239,0.497916,31,G1,33,2
212640,443.0,239,0.497916,24,C1,33,2
212880,443.5,239,0.497916,31,G1,33,2
213120,444.0,239,0.497916,36,C2,33,2
213360,444.5,239,0.497916,38,D2,33,2
213600,445.0,479,0.997916,53,F3,33,1
213600,445.0,479,0.997916,57,A3,33,1
213600,445.0,479,0.997916,60,C4,33,1
213600,445.0,479,0.997916,65,F4,33,1
213600,445.0,239,0.497916,36,C2,33,2
213840,445.5,239,0.497916,31,G1,33,2
214080,446.0,1439,2.997916,50,D3,33,1
214080,446.0,1439,2.997916,57,A3,33,1
214080,446.0,1439,2.997916,62,D4,33,1
214080,446.0,239,0.497916,24,C1,33,2
214320,446.5,239,0.497916,31,G1,33,2
214560,447.0,239,0.497916,36,C2,33,2
214800,447.5,239,0.497916,38,D2,33,2
215040,448.0,239,0.497916,36,C2,33,2
215280,448.5,239,0.497916,31,G1,33,2
215520,449.0,479,0.997916,48,C3,33,1
215520,449.0,479,0.997916,52,E3,33,1
215520,449.0,479,0.997916,55,G3,33,1
215520,449.0,479,0.997916,60,C4,33,1
215520,449.0,239,0.497916,24,C1,33,2
215760,449.5,239,0.497916,31,G1,33,2
216000,450.0,1919,3.997916,48,C3,33,1
216000,450.0,1919,3.997916,52,E3,33,1
216000,450.0,1919,3.997916,55,G3,33,1
216000,450.0,1919,3.997916,60,C4,33,1
216000,450.0,239,0.497916,36,C2,33,2
216240,450.5,239,0.497916,38,D2,33,2
216480,451.0,239,0.497916,36,C2,33,2
216720,451.5,239,0.497916,31,G1,33,2
216960,452.0,239,0.497916,24,C1,33,2
217200,452.5,239,0.497916,31,G1,33,2
217440,453.0,239,0.497916,36,C2,33,2
217680,453.5,239,0.497916,38,D2,33,2
217920,454.0,959,1.997916,45,A2,33,1
217920,454.0,959,1.997916,48,C3,33,1
217920,454.0,959,1.997916,52,E3,33,1
217920,454.0,959,1.997916,57,A3,33,1
217920,454.0,239,0.497916,36,C2,33,2
218160,454.5,239,0.497916,31,G1,33,2
218400,455.0,239,0.497916,24,C1,33,2
218640,455.5,239,0.497916,31,G1,33,2
218880,456.0,959,1.997916,46,A2#,33,1
218880,456.0,959,1.997916,50,D3,33,1
218880,456.0,959,1.997916,53,F3,33,1
218880,456.0,959,1.997916,58,A3#,33,1
218880,456.0,239,0.497916,36,C2,33,2
219120,456.5,239,0.497916,38,D2,33,2
219360,457.0,239,0.497916,36,C2,33,2
219600,457.5,239,0.497916,31,G1,33,2
219840,458.0,959,1.997916,50,D3,33,1
219840,458.0,959,1.997916,53,F3,33,1
219840,458.0,959,1.997916,57,A3,33,1
219840,458.0,959,1.997916,62,D4,33,1
219840,458.0,239,0.497916,24,C1,33,2
220080,458.5,239,0.497916,31,G1,33,2
220320,459.0,239,0.497916,36,C2,33,2
220560,459.5,239,0.497916,38,D2,33,2
220800,460.0,959,1.997916,53,F3,33,1
220800,460.0,959,1.997916,57,A3,33,1
220800,460.0,959,1.997916,60,C4,33,1
220800,460.0,959,1.997916,65,F4,33,1
220800,460.0,239,0.497916,36,C2,33,2
221040,460.5,239,0.497916,31,G1,33,2
221280,461.0,239,0.497916,24,C1,33,2
221520,461.5,239,0.497916,31,G1,33,2
221760,462.0,1919,3.997916,48,C3,33,1
221760,462.0,1919,3.997916,52,E3,33,1
221760,462.0,1919,3.997916,55,G3,33,1
221760,462.0,1919,3.997916,60,C4,33,1
221760,462.0,239,0.497916,36,C2,33,2
222000,462.5,239,0.497916,38,D2,33,2
222240,463.0,239,0.497916,36,C2,33,2
222480,463.5,239,0.497916,31,G1,33,2
222720,464.0,239,0.497916,24,C1,33,2
222960,464.5,239,0.497916,31,G1,33,2
223200,465.0,239,0.497916,36,C2,33,2
223440,465.5,239,0.497916,38,D2,33,2
223680,466.0,959,1.997916,45,A2,33,1
223680,466.0,959,1.997916,48,C3,33,1
223680,466.0,959,1.997916,52,E3,33,1
223680,466.0,959,1.997916,57,A3,33,1
223680,466.0,239,0.497916,36,C2,33,2
223920,466.5,239,0.497916,31,G1,33,2
224160,467.0,239,0.497916,24,C1,33,2
224400,467.5,239,0.497916,31,G1,33,2
224640,468.0,959,1.997916,46,A2#,33,1
224640,468.0,959,1.997916,50,D3,33,1
224640,468.0,959,1.997916,53,F3,33,1
224640,468.0,959,1.997916,58,A3#,33,1
224640,468.0,239,0.497916,36,C2,33,2
224880,468.5,239,0.497916,38,D2,33,2
225120,469.0,239,0.497916,36,C2,33,2
225360,469.5,239,0.497916,31,G1,33,2
225600,470.0,959,1.997916,50,D3,33,1
225600,470.0,959,1.997916,53,F3,33,1
225600,470.0,959,1.997916,57,A3,33,1
225600,470.0,959,1.997916,62,D4,33,1
225600,470.0,239,0.497916,24,C1,33,2
225840,470.5,239,0.497916,31,G1,33,2
226080,471.0,239,0.497916,36,C2,33,2
226320,471.5,239,0.497916,38,D2,33,2
226560,472.0,959,1.997916,53,F3,33,1
226560,472.0,959,1.997916,57,A3,33,1
226560,472.0,959,1.997916,60,C4,33,1
226560,472.0,959,1.997916,65,F4,33,1
226560,472.0,239,0.497916,36,C2,33,2
226800,472.5,239,0.497916,31,G1,33,2
227040,473.0,239,0.497916,24,C1,33,2
227280,473.5,239,0.497916,31,G1,33,2
227520,474.0,1439,2.997916,55,G3,33,1
227520,474.0,1439,2.997916,58,A3#,33,1
227520,474.0,1439,2.997916,62,D4,33,1
227520,474.0,1439,2.997916,67,G4,33,1
227520,474.0,239,0.497916,36,C2,33,2
227760,474.5,239,0.497916,38,D2,33,2
228000,475.0,239,0.497916,36,C2,33,2
228240,475.5,239,0.497916,31,G1,33,2
228480,476.0,239,0.497916,24,C1,33,2
228720,476.5,239,0.497916,31,G1,33,2
228960,477.0,479,0.997916,53,F3,33,1
228960,477.0,479,0.997916,57,A3,33,1
228960,477.0,479,0.997916,60,C4,33,1
228960,477.0,479,0.997916,65,F4,33,1
228960,477.0,239,0.497916,36,C2,33,2
229200,477.5,239,0.497916,38,D2,33,2
229440,478.0,479,0.997916,55,G3,33,1
229440,478.0,479,0.997916,58,A3#,33,1
229440,478.0,479,0.997916,62,D4,33,1
229440,478.0,479,0.997916,67,G4,33,1
229440,478.0,239,0.497916,36,C2,33,2
229680,478.5,239,0.497916,31,G1,33,2
229920,479.0,479,0.997916,58,A3#,33,1
229920,479.0,479,0.997916,62,D4,33,1
229920,479.0,479,0.997916,65,F4,33,1
229920,479.0,479,0.997916,70,A4#,33,1
229920,479.0,239,0.497916,24,C1,33,2
230160,479.5,239,0.497916,31,G1,33,2
230400,480.0,1919,3.997916,55,G3,33,1
230400,480.0,1919,3.997916,58,A3#,33,1
230400,480.0,1919,3.997916,62,D4,33,1
230400,480.0,1919,3.997916,67,G4,33,1
230400,480.0,239,0.497916,36,C2,33,2
230640,480.5,239,0.497916,38,D2,33,2
230880,481.0,239,0.497916,36,C2,33,2
231120,481.5,239,0.497916,31,G1,33,2
231360,482.0,239,0.497916,24,C1,33,2
231600,482.5,239,0.497916,31,G1,33,2
231840,483.0,239,0.497916,36,C2,33,2
232080,483.5,239,0.497916,38,D2,33,2
232320,484.0,959,1.997916,57,A3,33,1
232320,484.0,959,1.997916,60,C4,33,1
232320,484.0,959,1.997916,64,E4,33,1
232320,484.0,959,1.997916,69,A4,33,1
232320,484.0,239,0.497916,36,C2,33,2
232560,484.5,239,0.497916,31,G1,33,2
232800,485.0,239,0.497916,24,C1,33,2
233040,485.5,239,0.497916,31,G1,33,2
233280,486.0,2879,5.997916,53,F3,33,1
233280,486.0,2879,5.997916,57,A3,33,1
233280,486.0,2879,5.997916,60,C4,33,1
233280,486.0,2879,5.997916,65,F4,33,1
233280,486.0,239,0.497916,36,C2,33,2
233520,486.5,239,0.497916,38,D2,33,2
233760,487.0,239,0.497916,36,C2,33,2
234000,487.5,239,0.497916,31,G1,33,2
234240,488.0,239,0.497916,24,C1,33,2
234480,488.5,239,0.497916,31,G1,33,2
234720,489.0,239,0.497916,36,C2,33,2
234960,489.5,239,0.497916,38,D2,33,2
235200,490.0,239,0.497916,36,C2,33,2
235440,490.5,239,0.497916,31,G1,33,2
235680,491.0,239,0.497916,24,C1,33,2
235920,491.5,239,0.497916,31,G1,33,2
236160,492.0,1439,2.997916,50,D3,33,1
236160,492.0,1439,2.997916,53,F3,33,1
236160,492.0,1439,2.997916,57,A3,33,1
236160,492.0,1439,2.997916,62,D4,33,1
236160,492.0,239,0.497916,36,C2,33,2
236400,492.5,239,0.497916,38,D2,33,2
236640,493.0,239,0.497916,36,C2,33,2
236880,493.5,239,0.497916,31,G1,33,2
237120,494.0,239,0.497916,24,C1,33,2
237360,494.5,239,0.497916,31,G1,33,2
237600,495.0,1439,2.997916,52,E3,33,1
237600,495.0,1439,2.997916,55,G3,33,1
237600,495.0,1439,2.997916,59,B3,33,1
237600,495.0,1439,2.997916,64,E4,33,1
237600,495.0,239,0.497916,36,C2,33,2
237840,495.5,239,0.497916,38,D2,33,2
238080,496.0,239,0.497916,36,C2,33,2
238320,496.5,239,0.497916,31,G1,33,2
238560,497.0,239,0.497916,24,C1,33,2
238800,497.5,239,0.497916,31,G1,33,2
239040,498.0,2879,5.997916,36,C2,33,2
239520,499.0,479,0.997916,62,D4,33,1
239520,499.0,479,0.997916,67,G4,33,1
239520,499.0,479,0.997916,72,C5,33,1
239520,499.0,479,0.997916,74,D5,33,1
239520,499.0,479,0.997916,38,D2,33,2
239520,499.0,479,0.997916,43,G2,33,2
239520,499.0,479,0.997916,48,C3,33,2
240000,500.0,479,0.997916,64,E4,33,1
240000,500.0,479,0.997916,69,A4,33,1
240000,500.0,479,0.997916,74,D5,33,1
240000,500.0,479,0.997916,76,E5,33,1
240000,500.0,479,0.997916,52,E3,33,2
240000,500.0,479,0.997916,57,A3,33,2
240000,500.0,479,0.997916,62,D4,33,2
240480,501.0,479,0.997916,71,B4,33,1
240480,501.0,479,0.997916,72,C5,33,1
240480,501.0,479,0.997916,76,E5,33,1
240480,501.0,479,0.997916,83,B5,33,1
240480,501.0,479,0.997916,59,B3,33,2
240480,501.0,479,0.997916,60,C4,33,2
240480,501.0,479,0.997916,67,G4,33,2
240960,502.0,479,0.997916,74,D5,33,1
240960,502.0,479,0.997916,79,G5,33,1
240960,502.0,479,0.997916,84,C6,33,1
240960,502.0,479,0.997916,86,D6,33,1
240960,502.0,479,0.997916,62,D4,33,2
240960,502.0,479,0.997916,67,G4,33,2
240960,502.0,479,0.997916,72,C5,33,2
241440,503.0,479,0.997916,88,E6,33,1
241440,503.0,479,0.997916,93,A6,33,1
241440,503.0,479,0.997916,98,D7,33,1
241440,503.0,479,0.997916,100,E7,33,1
241440,503.0,479,0.997916,64,E4,33,2
241440,503.0,479,0.997916,69,A4,33,2
241440,503.0,479,0.997916,74,D5,33,2
241920,504.0,2879,5.997916,91,G6,33,1
241920,504.0,2879,5.997916,96,C7,33,1
241920,504.0,2879,5.997916,98,D7,33,1
241920,504.0,2879,5.997916,103,G7,33,1
241920,504.0,2879,5.997916,31,G1,33,2
242400,505.0,479,0.997916,62,D4,33,1
242400,505.0,479,0.997916,67,G4,33,1
242400,505.0,479,0.997916,72,C5,33,1
242400,505.0,479,0.997916,74,D5,33,1
242400,505.0,479,0.997916,50,D3,33,2
242400,505.0,479,0.997916,55,G3,33,2
242400,505.0,479,0.997916,60,C4,33,2
242880,506.0,479,0.997916,64,E4,33,1
242880,506.0,479,0.997916,69,A4,33,1
242880,506.0,479,0.997916,74,D5,33,1
242880,506.0,479,0.997916,76,E5,33,1
242880,506.0,479,0.997916,52,E3,33,2
242880,506.0,479,0.997916,57,A3,33,2
242880,506.0,479,0.997916,62,D4,33,2
243360,507.0,479,0.997916,71,B4,33,1
243360,507.0,479,0.997916,72,C5,33,1
243360,507.0,479,0.997916,76,E5,33,1
243360,507.0,479,0.997916,83,B5,33,1
243360,507.0,479,0.997916,59,B3,33,2
243360,507.0,479,0.997916,60,C4,33,2
243360,507.0,479,0.997916,67,G4,33,2
243840,508.0,479,0.997916,74,D5,33,1
243840,508.0,479,0.997916,79,G5,33,1
243840,508.0,479,0.997916,84,C6,33,1
243840,508.0,479,0.997916,86,D6,33,1
243840,508.0,479,0.997916,41,F2,33,2
243840,508.0,479,0.997916,47,B2,33,2
243840,508.0,479,0.997916,52,E3,33,2
244320,509.0,479,0.997916,76,E5,33,1
244320,509.0,479,0.997916,81,A5,33,1
244320,509.0,479,0.997916,86,D6,33,1
244320,509.0,479,0.997916,88,E6,33,1
244320,509.0,479,0.997916,43,G2,33,2
244320,509.0,479,0.997916,48,C3,33,2
244320,509.0,479,0.997916,53,F3,33,2
244800,510.0,959,1.997916,103,G7,33,1
244800,510.0,959,1.997916,108,C8,33,1
244800,510.0,959,1.997916,110,D8,33,1
244800,510.0,959,1.997916,115,G8,33,1
244800,510.0,959,1.997916,55,G3,33,2
244800,510.0,959,1.997916,60,C4,33,2
244800,510.0,959,1.997916,62,D4,33,2
244800,510.0,959,1.997916,67,G4,33,2
245760,512.0,1919,3.997916,79,G5,33,1
245760,512.0,1919,3.997916,84,C6,33,1
245760,512.0,1919,3.997916,88,E6,33,1
245760,512.0,1919,3.997916,91,G6,33,1
245760,512.0,1919,3.997916,52,E3,33,2
245760,512.0,1919,3.997916,55,G3,33,2
245760,512.0,1919,3.997916,60,C4,33,2
245760,512.0,1919,3.997916,64,E4,33,2
246720,514.0,959,1.997916,24,C1,33,2
246720,514.0,959,1.997916,31,G1,33,2
246720,514.0,959,1.997916,36,C2,33,2
247680,516.0,959,1.997916,103,G7,33,1
247680,516.0,959,1.997916,108,C8,33,1
247680,516.0,959,1.997916,110,D8,33,1
247680,516.0,959,1.997916,115,G8,33,1
247680,516.0,959,1.997916,55,G3,33,2
247680,516.0,959,1.997916,60,C4,33,2
247680,516.0,959,1.997916,62,D4,33,2
247680,516.0,959,1.997916,67,G4,33,2
248640,518.0,5279,10.997916,79,G5,33,1
248640,518.0,5279,10.997916,84,C6,33,1
248640,518.0,5279,10.997916,88,E6,33,1
248640,518.0,5279,10.997916,91,G6,33,1
248640,518.0,5279,10.997916,52,E3,33,2
248640,518.0,5279,10.997916,55,G3,33,2
248640,518.0,5279,10.997916,60,C4,33,2
248640,518.0,5279,10.997916,64,E4,33,2
249600,520.0,4319,8.997916,24,C1,33,2
249600,520.0,4319,8.997916,31,G1,33,2
249600,520.0,4319,8.997916,36,C2,33,2
