start_ticks,start_secs,dur_ticks,dur_secs,pitch,fullNoteOctave,velocity,part
0,0.0,3839,3.199166,56,G3#,112,2
0,0.0,3839,3.199166,44,G2#,112,2
3840,3.2,159,0.1325,37,C2#,80,2
3840,3.2,159,0.1325,49,C3#,80,2
4000,3.333333,159,0.1325,56,G3#,80,2
4160,3.466666,159,0.1325,61,C4#,80,2
4320,3.6,159,0.1325,64,E4,80,2
4480,3.733333,159,0.1325,61,C4#,80,2
4640,3.866666,159,0.1325,56,G3#,80,2
4800,4.0,159,0.1325,49,C3#,80,2
4960,4.133333,159,0.1325,56,G3#,80,2
5120,4.266666,159,0.1325,61,C4#,80,2
5280,4.4,159,0.1325,64,E4,80,2
5440,4.533333,159,0.1325,61,C4#,80,2
5600,4.666666,159,0.1325,56,G3#,80,2
5760,4.8,159,0.1325,49,C3#,64,2
5920,4.933333,159,0.1325,56,G3#,64,2
6080,5.066666,159,0.1325,61,C4#,64,2
6240,5.2,159,0.1325,64,E4,64,2
6400,5.333333,159,0.1325,61,C4#,64,2
6560,5.466666,159,0.1325,56,G3#,64,2
6720,5.6,159,0.1325,49,C3#,64,2
6880,5.733333,159,0.1325,56,G3#,64,2
7040,5.866666,159,0.1325,61,C4#,64,2
7200,6.0,159,0.1325,64,E4,64,2
7360,6.133333,159,0.1325,61,C4#,64,2
7520,6.266666,159,0.1325,56,G3#,64,2
7680,6.4,159,0.1325,49,C3#,49,2
7800,6.5,119,0.099166,68,G4#,49,1
7840,6.533333,159,0.1325,56,G3#,49,2
7920,6.6,119,0.099166,69,A4,49,1
8000,6.666666,159,0.1325,61,C4#,49,2
8040,6.7,119,0.099166,68,G4#,49,1
8160,6.8,119,0.099166,67,G4,49,1
8160,6.8,159,0.1325,64,E4,49,2
8280,6.9,119,0.099166,68,G4#,49,1
8320,6.933333,159,0.1325,61,C4#,49,2
8400,7.0,119,0.099166,73,C5#,49,1
8480,7.066666,159,0.1325,56,G3#,49,2
8520,7.1,119,0.099166,76,E5,49,1
8640,7.2,119,0.099166,75,D5#,49,1
8640,7.2,159,0.1325,52,E3,49,2
8760,7.3,119,0.099166,73,C5#,49,1
8800,7.333333,159,0.1325,56,G3#,49,2
8880,7.4,119,0.099166,75,D5#,49,1
8960,7.466666,159,0.1325,61,C4#,49,2
9000,7.5,119,0.099166,73,C5#,49,1
9120,7.6,119,0.099166,72,C5,49,1
9120,7.6,159,0.1325,64,E4,49,2
9240,7.7,119,0.099166,73,C5#,49,1
9280,7.733333,159,0.1325,61,C4#,49,2
9360,7.8,119,0.099166,76,E5,49,1
9440,7.866666,159,0.1325,56,G3#,49,2
9480,7.9,119,0.099166,80,G5#,49,1
9600,8.0,159,0.1325,49,C3#,49,2
9720,8.1,119,0.099166,68,G4#,49,1
9760,8.133333,159,0.1325,56,G3#,49,2
9840,8.2,119,0.099166,69,A4,49,1
9920,8.266666,159,0.1325,61,C4#,49,2
9960,8.3,119,0.099166,68,G4#,49,1
10080,8.4,119,0.099166,67,G4,49,1
10080,8.4,159,0.1325,64,E4,49,2
10200,8.5,119,0.099166,68,G4#,49,1
10240,8.533333,159,0.1325,61,C4#,49,2
10320,8.6,119,0.099166,73,C5#,49,1
10400,8.666666,159,0.1325,56,G3#,49,2
10440,8.7,119,0.099166,76,E5,49,1
10560,8.8,119,0.099166,75,D5#,49,1
10560,8.8,159,0.1325,52,E3,49,2
10680,8.9,119,0.099166,73,C5#,49,1
10720,8.933333,159,0.1325,56,G3#,49,2
10800,9.0,119,0.099166,75,D5#,49,1
10880,9.066666,159,0.1325,61,C4#,49,2
10920,9.1,119,0.099166,73,C5#,49,1
11040,9.2,119,0.099166,72,C5,49,1
11040,9.2,159,0.1325,64,E4,49,2
11160,9.3,119,0.099166,73,C5#,49,1
11200,9.333333,159,0.1325,61,C4#,49,2
11280,9.4,119,0.099166,76,E5,49,1
11360,9.466666,159,0.1325,56,G3#,49,2
11400,9.5,119,0.099166,80,G5#,49,1
11520,9.6,159,0.1325,51,D3#,64,2
11640,9.7,119,0.099166,69,A4,64,1
11680,9.733333,159,0.1325,57,A3,64,2
11760,9.8,119,0.099166,73,C5#,64,1
11840,9.866666,159,0.1325,61,C4#,64,2
11880,9.9,119,0.099166,75,D5#,64,1
12000,10.0,119,0.099166,78,F5#,64,1
12000,10.0,159,0.1325,66,F4#,64,2
12120,10.1,119,0.099166,81,A5,64,1
12160,10.133333,159,0.1325,61,C4#,64,2
12240,10.2,119,0.099166,85,C6#,64,1
12320,10.266666,159,0.1325,57,A3,64,2
12360,10.3,119,0.099166,87,D6#,64,1
12480,10.4,119,0.099166,95,B6,64,1
12480,10.4,159,0.1325,54,F3#,64,2
12600,10.5,119,0.099166,93,A6,64,1
12640,10.533333,159,0.1325,61,C4#,64,2
12720,10.6,119,0.099166,92,G6#,64,1
12800,10.666666,159,0.1325,63,D4#,64,2
12840,10.7,119,0.099166,90,F6#,64,1
12960,10.8,119,0.099166,88,E6,80,1
12960,10.8,159,0.1325,69,A4,80,2
13080,10.9,119,0.099166,87,D6#,80,1
13120,10.933333,159,0.1325,63,D4#,80,2
13200,11.0,119,0.099166,90,F6#,80,1
13280,11.066666,159,0.1325,61,C4#,80,2
13320,11.1,119,0.099166,85,C6#,80,1
13440,11.2,119,0.099166,84,C6,80,1
13440,11.2,159,0.1325,42,F2#,80,2
13560,11.3,119,0.099166,87,D6#,80,1
13600,11.333333,159,0.1325,51,D3#,80,2
13680,11.4,119,0.099166,81,A5,80,1
13760,11.466666,159,0.1325,54,F3#,80,2
13800,11.5,119,0.099166,80,G5#,80,1
13920,11.6,119,0.099166,78,F5#,80,1
13920,11.6,159,0.1325,60,C4,80,2
14040,11.7,119,0.099166,81,A5,80,1
14080,11.733333,159,0.1325,54,F3#,80,2
14160,11.8,119,0.099166,76,E5,80,1
14240,11.866666,159,0.1325,51,D3#,80,2
14280,11.9,119,0.099166,75,D5#,80,1
14400,12.0,119,0.099166,78,F5#,64,1
14400,12.0,159,0.1325,44,G2#,64,2
14520,12.1,119,0.099166,73,C5#,64,1
14560,12.133333,159,0.1325,51,D3#,64,2
14640,12.2,119,0.099166,72,C5,64,1
14720,12.266666,159,0.1325,54,F3#,64,2
14760,12.3,119,0.099166,75,D5#,64,1
14880,12.4,119,0.099166,69,A4,64,1
14880,12.4,159,0.1325,60,C4,64,2
15000,12.5,119,0.099166,68,G4#,64,1
15040,12.533333,159,0.1325,54,F3#,64,2
15120,12.6,119,0.099166,71,B4,64,1
15200,12.666666,159,0.1325,51,D3#,64,2
15240,12.7,239,0.199166,69,A4,64,1
15360,12.8,159,0.1325,49,C3#,49,2
15480,12.9,119,0.099166,68,G4#,49,1
15520,12.933333,159,0.1325,56,G3#,49,2
15600,13.0,119,0.099166,69,A4,49,1
15680,13.066666,159,0.1325,61,C4#,49,2
15720,13.1,119,0.099166,68,G4#,49,1
15840,13.2,119,0.099166,67,G4,49,1
15840,13.2,159,0.1325,64,E4,49,2
15960,13.3,119,0.099166,68,G4#,49,1
16000,13.333333,159,0.1325,61,C4#,49,2
16080,13.4,119,0.099166,73,C5#,49,1
16160,13.466666,159,0.1325,56,G3#,49,2
16200,13.5,119,0.099166,76,E5,49,1
16320,13.6,119,0.099166,75,D5#,49,1
16320,13.6,159,0.1325,52,E3,49,2
16440,13.7,119,0.099166,73,C5#,49,1
16480,13.733333,159,0.1325,56,G3#,49,2
16560,13.8,119,0.099166,75,D5#,49,1
16640,13.866666,159,0.1325,61,C4#,49,2
16680,13.9,119,0.099166,73,C5#,49,1
16800,14.0,119,0.099166,72,C5,49,1
16800,14.0,159,0.1325,64,E4,49,2
16920,14.1,119,0.099166,73,C5#,49,1
16960,14.133333,159,0.1325,61,C4#,49,2
17040,14.2,119,0.099166,76,E5,49,1
17120,14.266666,159,0.1325,56,G3#,49,2
17160,14.3,119,0.099166,80,G5#,49,1
17280,14.4,159,0.1325,49,C3#,49,2
17400,14.5,119,0.099166,68,G4#,49,1
17440,14.533333,159,0.1325,56,G3#,49,2
17520,14.6,119,0.099166,70,A4#,49,1
17600,14.666666,159,0.1325,58,A3#,49,2
17640,14.7,119,0.099166,68,G4#,49,1
17760,14.8,119,0.099166,67,G4,49,1
17760,14.8,159,0.1325,64,E4,49,2
17880,14.9,119,0.099166,68,G4#,49,1
17920,14.933333,159,0.1325,58,A3#,49,2
18000,15.0,119,0.099166,73,C5#,49,1
18080,15.066666,159,0.1325,56,G3#,49,2
18120,15.1,119,0.099166,76,E5,49,1
18240,15.2,119,0.099166,75,D5#,49,1
18240,15.2,159,0.1325,52,E3,49,2
18360,15.3,119,0.099166,73,C5#,49,1
18400,15.333333,159,0.1325,56,G3#,49,2
18480,15.4,119,0.099166,75,D5#,49,1
18560,15.466666,159,0.1325,58,A3#,49,2
18600,15.5,119,0.099166,73,C5#,49,1
18720,15.6,119,0.099166,72,C5,49,1
18720,15.6,159,0.1325,61,C4#,49,2
18840,15.7,119,0.099166,73,C5#,49,1
18880,15.733333,159,0.1325,58,A3#,49,2
18960,15.8,119,0.099166,76,E5,49,1
19040,15.866666,159,0.1325,56,G3#,49,2
19080,15.9,119,0.099166,80,G5#,49,1
19200,16.0,119,0.099166,75,D5#,64,1
19200,16.0,159,0.1325,51,D3#,64,2
19320,16.1,119,0.099166,76,E5,64,1
19360,16.133333,159,0.1325,56,G3#,64,2
19440,16.2,119,0.099166,75,D5#,64,1
19520,16.266666,159,0.1325,59,B3,64,2
19560,16.3,119,0.099166,74,D5,64,1
19680,16.4,119,0.099166,75,D5#,64,1
19680,16.4,159,0.1325,63,D4#,64,2
19800,16.5,119,0.099166,83,B5,64,1
19840,16.533333,159,0.1325,59,B3,64,2
19920,16.6,119,0.099166,82,A5#,64,1
20000,16.666666,159,0.1325,56,G3#,64,2
20040,16.7,119,0.099166,80,G5#,64,1
20160,16.8,119,0.099166,79,G5,80,1
20160,16.8,159,0.1325,51,D3#,80,2
20280,16.9,119,0.099166,88,E6,80,1
20320,16.933333,159,0.1325,58,A3#,80,2
20400,17.0,119,0.099166,87,D6#,80,1
20480,17.066666,159,0.1325,61,C4#,80,2
20520,17.1,119,0.099166,85,C6#,80,1
20640,17.2,119,0.099166,83,B5,80,1
20640,17.2,159,0.1325,67,G4,80,2
20760,17.3,119,0.099166,82,A5#,80,1
20800,17.333333,159,0.1325,61,C4#,80,2
20880,17.4,119,0.099166,80,G5#,80,1
20960,17.466666,159,0.1325,58,A3#,80,2
21000,17.5,119,0.099166,79,G5,80,1
21120,17.6,119,0.099166,82,A5#,64,1
21120,17.6,159,0.1325,44,G2#,64,2
21240,17.7,119,0.099166,80,G5#,64,1
21280,17.733333,159,0.1325,51,D3#,64,2
21360,17.8,119,0.099166,83,B5,64,1
21440,17.866666,159,0.1325,56,G3#,64,2
21480,17.9,119,0.099166,74,D5,64,1
21600,18.0,119,0.099166,76,E5,49,1
21600,18.0,159,0.1325,59,B3,49,2
21720,18.1,119,0.099166,75,D5#,49,1
21760,18.133333,159,0.1325,56,G3#,49,2
21840,18.2,119,0.099166,80,G5#,49,1
21920,18.266666,159,0.1325,51,D3#,49,2
21960,18.3,119,0.099166,70,A4#,49,1
22080,18.4,119,0.099166,73,C5#,33,1
22080,18.4,159,0.1325,44,G2#,33,2
22200,18.5,119,0.099166,71,B4,33,1
22240,18.533333,159,0.1325,51,D3#,33,2
22320,18.6,119,0.099166,75,D5#,33,1
22400,18.666666,159,0.1325,56,G3#,33,2
22440,18.7,119,0.099166,67,G4,33,1
22560,18.8,119,0.099166,69,A4,16,1
22560,18.8,159,0.1325,59,B3,16,2
22680,18.9,119,0.099166,68,G4#,16,1
22720,18.933333,159,0.1325,56,G3#,16,2
22800,19.0,119,0.099166,67,G4,16,1
22880,19.066666,159,0.1325,51,D3#,16,2
22920,19.1,119,0.099166,68,G4#,16,1
23040,19.2,119,0.099166,68,G4#,33,1
23040,19.2,159,0.1325,45,A2,33,2
23160,19.3,119,0.099166,80,G5#,33,1
23200,19.333333,159,0.1325,49,C3#,33,2
23280,19.4,119,0.099166,72,C5,33,1
23360,19.466666,159,0.1325,54,F3#,33,2
23400,19.5,119,0.099166,73,C5#,33,1
23520,19.6,119,0.099166,66,F4#,33,1
23520,19.6,159,0.1325,57,A3,33,2
23640,19.7,119,0.099166,78,F5#,33,1
23680,19.733333,159,0.1325,54,F3#,33,2
23760,19.8,119,0.099166,72,C5,33,1
23840,19.866666,159,0.1325,49,C3#,33,2
23880,19.9,119,0.099166,73,C5#,33,1
24000,20.0,119,0.099166,65,F4,49,1
24000,20.0,159,0.1325,45,A2,49,2
24120,20.1,119,0.099166,77,F5,49,1
24160,20.133333,159,0.1325,49,C3#,49,2
24240,20.2,119,0.099166,72,C5,49,1
24320,20.266666,159,0.1325,54,F3#,49,2
24360,20.3,119,0.099166,73,C5#,49,1
24480,20.4,119,0.099166,66,F4#,49,1
24480,20.4,159,0.1325,57,A3,49,2
24600,20.5,119,0.099166,78,F5#,49,1
24640,20.533333,159,0.1325,54,F3#,49,2
24720,20.6,119,0.099166,72,C5,49,1
24800,20.666666,159,0.1325,49,C3#,49,2
24840,20.7,119,0.099166,73,C5#,49,1
24960,20.8,119,0.099166,61,C4#,64,1
24960,20.8,159,0.1325,47,B2,64,2
25080,20.9,119,0.099166,73,C5#,64,1
25120,20.933333,159,0.1325,54,F3#,64,2
25200,21.0,119,0.099166,66,F4#,64,1
25280,21.066666,159,0.1325,57,A3,64,2
25320,21.1,119,0.099166,69,A4,64,1
25440,21.2,119,0.099166,63,D4#,64,1
25440,21.2,159,0.1325,59,B3,64,2
25560,21.3,119,0.099166,75,D5#,64,1
25600,21.333333,159,0.1325,57,A3,64,2
25680,21.4,119,0.099166,66,F4#,64,1
25760,21.466666,159,0.1325,54,F3#,64,2
25800,21.5,119,0.099166,69,A4,64,1
25920,21.6,119,0.099166,64,E4,80,1
25920,21.6,159,0.1325,40,E2,80,2
26040,21.7,119,0.099166,76,E5,80,1
26080,21.733333,159,0.1325,47,B2,80,2
26160,21.8,119,0.099166,68,G4#,80,1
26240,21.866666,159,0.1325,52,E3,80,2
26280,21.9,119,0.099166,71,B4,80,1
26400,22.0,119,0.099166,68,G4#,80,1
26400,22.0,159,0.1325,56,G3#,80,2
26520,22.1,119,0.099166,80,G5#,80,1
26560,22.133333,159,0.1325,52,E3,80,2
26640,22.2,119,0.099166,71,B4,80,1
26720,22.266666,159,0.1325,47,B2,80,2
26760,22.3,119,0.099166,76,E5,80,1
26880,22.4,119,0.099166,68,G4#,96,1
26880,22.4,159,0.1325,45,A2,96,2
27000,22.5,119,0.099166,80,G5#,96,1
27040,22.533333,159,0.1325,49,C3#,96,2
27120,22.6,119,0.099166,72,C5,96,1
27200,22.666666,159,0.1325,54,F3#,96,2
27240,22.7,119,0.099166,73,C5#,96,1
27360,22.8,119,0.099166,66,F4#,96,1
27360,22.8,159,0.1325,57,A3,96,2
27480,22.9,119,0.099166,78,F5#,96,1
27520,22.933333,159,0.1325,54,F3#,96,2
27600,23.0,119,0.099166,72,C5,96,1
27680,23.066666,159,0.1325,49,C3#,96,2
27720,23.1,119,0.099166,73,C5#,96,1
27840,23.2,119,0.099166,65,F4,96,1
27840,23.2,159,0.1325,45,A2,96,2
27960,23.3,119,0.099166,77,F5,96,1
28000,23.333333,159,0.1325,49,C3#,96,2
28080,23.4,119,0.099166,72,C5,96,1
28160,23.466666,159,0.1325,54,F3#,96,2
28200,23.5,119,0.099166,73,C5#,96,1
28320,23.6,119,0.099166,66,F4#,96,1
28320,23.6,159,0.1325,57,A3,96,2
28440,23.7,119,0.099166,78,F5#,96,1
28480,23.733333,159,0.1325,54,F3#,96,2
28560,23.8,119,0.099166,72,C5,96,1
28640,23.866666,159,0.1325,49,C3#,96,2
28680,23.9,119,0.099166,73,C5#,96,1
28800,24.0,119,0.099166,65,F4,96,1
28800,24.0,159,0.1325,47,B2,96,2
28920,24.1,119,0.099166,77,F5,96,1
28960,24.133333,159,0.1325,51,D3#,96,2
29040,24.2,119,0.099166,71,B4,96,1
29120,24.266666,159,0.1325,57,A3,96,2
29160,24.3,119,0.099166,75,D5#,96,1
29280,24.4,119,0.099166,66,F4#,96,1
29280,24.4,159,0.1325,59,B3,96,2
29400,24.5,119,0.099166,78,F5#,96,1
29440,24.533333,159,0.1325,57,A3,96,2
29520,24.6,119,0.099166,71,B4,96,1
29600,24.666666,159,0.1325,51,D3#,96,2
29640,24.7,119,0.099166,75,D5#,96,1
29760,24.8,119,0.099166,69,A4,96,1
29760,24.8,159,0.1325,40,E2,96,2
29880,24.9,119,0.099166,81,A5,96,1
29920,24.933333,159,0.1325,47,B2,96,2
30000,25.0,119,0.099166,71,B4,96,1
30080,25.066666,159,0.1325,52,E3,96,2
30120,25.1,119,0.099166,76,E5,96,1
30240,25.2,119,0.099166,68,G4#,96,1
30240,25.2,159,0.1325,56,G3#,96,2
30360,25.3,119,0.099166,80,G5#,96,1
30400,25.333333,159,0.1325,52,E3,96,2
30480,25.4,119,0.099166,69,A4,96,1
30560,25.466666,159,0.1325,47,B2,96,2
30600,25.5,119,0.099166,76,E5,96,1
30720,25.6,119,0.099166,68,G4#,49,1
30720,25.6,159,0.1325,45,A2,49,2
30840,25.7,119,0.099166,80,G5#,49,1
30880,25.733333,159,0.1325,49,C3#,49,2
30960,25.8,119,0.099166,72,C5,49,1
31040,25.866666,159,0.1325,54,F3#,49,2
31080,25.9,119,0.099166,73,C5#,49,1
31200,26.0,119,0.099166,66,F4#,49,1
31200,26.0,159,0.1325,57,A3,49,2
31320,26.1,119,0.099166,78,F5#,49,1
31360,26.133333,159,0.1325,54,F3#,49,2
31440,26.2,119,0.099166,72,C5,49,1
31520,26.266666,159,0.1325,49,C3#,49,2
31560,26.3,119,0.099166,73,C5#,49,1
31680,26.4,119,0.099166,65,F4,49,1
31680,26.4,159,0.1325,45,A2,49,2
31800,26.5,119,0.099166,77,F5,49,1
31840,26.533333,159,0.1325,49,C3#,49,2
31920,26.6,119,0.099166,72,C5,49,1
32000,26.666666,159,0.1325,54,F3#,49,2
32040,26.7,119,0.099166,73,C5#,49,1
32160,26.8,119,0.099166,66,F4#,49,1
32160,26.8,159,0.1325,57,A3,49,2
32280,26.9,119,0.099166,78,F5#,49,1
32320,26.933333,159,0.1325,54,F3#,49,2
32400,27.0,119,0.099166,72,C5,49,1
32480,27.066666,159,0.1325,49,C3#,49,2
32520,27.1,119,0.099166,73,C5#,49,1
32640,27.2,119,0.099166,61,C4#,64,1
32640,27.2,159,0.1325,47,B2,64,2
32760,27.3,119,0.099166,73,C5#,64,1
32800,27.333333,159,0.1325,51,D3#,64,2
32880,27.4,119,0.099166,66,F4#,64,1
32960,27.466666,159,0.1325,57,A3,64,2
33000,27.5,119,0.099166,69,A4,64,1
33120,27.6,119,0.099166,63,D4#,64,1
33120,27.6,159,0.1325,59,B3,64,2
33240,27.7,119,0.099166,75,D5#,64,1
33280,27.733333,159,0.1325,57,A3,64,2
33360,27.8,119,0.099166,66,F4#,64,1
33440,27.866666,159,0.1325,51,D3#,64,2
33480,27.9,119,0.099166,69,A4,64,1
33600,28.0,119,0.099166,64,E4,64,1
33600,28.0,159,0.1325,40,E2,64,2
33720,28.1,119,0.099166,76,E5,64,1
33760,28.133333,159,0.1325,47,B2,64,2
33840,28.2,119,0.099166,68,G4#,64,1
33920,28.266666,159,0.1325,52,E3,64,2
33960,28.3,119,0.099166,71,B4,64,1
34080,28.4,119,0.099166,68,G4#,80,1
34080,28.4,159,0.1325,56,G3#,80,2
34200,28.5,119,0.099166,80,G5#,80,1
34240,28.533333,159,0.1325,52,E3,80,2
34320,28.6,119,0.099166,71,B4,80,1
34400,28.666666,159,0.1325,47,B2,80,2
34440,28.7,119,0.099166,76,E5,80,1
34560,28.8,119,0.099166,68,G4#,80,1
34560,28.8,159,0.1325,45,A2,80,2
34680,28.9,119,0.099166,80,G5#,80,1
34720,28.933333,159,0.1325,49,C3#,80,2
34800,29.0,119,0.099166,72,C5,80,1
34880,29.066666,159,0.1325,54,F3#,80,2
34920,29.1,119,0.099166,73,C5#,80,1
35040,29.2,119,0.099166,66,F4#,80,1
35040,29.2,159,0.1325,57,A3,80,2
35160,29.3,119,0.099166,78,F5#,80,1
35200,29.333333,159,0.1325,54,F3#,80,2
35280,29.4,119,0.099166,72,C5,80,1
35360,29.466666,159,0.1325,49,C3#,80,2
35400,29.5,119,0.099166,73,C5#,80,1
35520,29.6,119,0.099166,75,D5#,96,1
35520,29.6,159,0.1325,45,A2,96,2
35640,29.7,119,0.099166,87,D6#,96,1
35680,29.733333,159,0.1325,49,C3#,96,2
35760,29.8,119,0.099166,78,F5#,96,1
35840,29.866666,159,0.1325,54,F3#,96,2
35880,29.9,119,0.099166,81,A5,96,1
36000,30.0,119,0.099166,73,C5#,96,1
36000,30.0,159,0.1325,57,A3,96,2
36120,30.1,119,0.099166,85,C6#,96,1
36160,30.133333,159,0.1325,54,F3#,96,2
36240,30.2,119,0.099166,78,F5#,96,1
36320,30.266666,159,0.1325,49,C3#,96,2
36360,30.3,119,0.099166,81,A5,96,1
36480,30.4,119,0.099166,73,C5#,80,1
36480,30.4,159,0.1325,44,G2#,80,2
36600,30.5,119,0.099166,85,C6#,80,1
36640,30.533333,159,0.1325,51,D3#,80,2
36720,30.6,119,0.099166,75,D5#,80,1
36800,30.666666,159,0.1325,54,F3#,80,2
36840,30.7,119,0.099166,78,F5#,80,1
36960,30.8,119,0.099166,72,C5,80,1
36960,30.8,159,0.1325,60,C4,80,2
37080,30.9,119,0.099166,84,C6,80,1
37120,30.933333,159,0.1325,54,F3#,80,2
37200,31.0,119,0.099166,75,D5#,80,1
37280,31.066666,159,0.1325,51,D3#,80,2
37320,31.1,119,0.099166,78,F5#,80,1
37440,31.2,119,0.099166,72,C5,80,1
37440,31.2,159,0.1325,44,G2#,80,2
37560,31.3,119,0.099166,84,C6,80,1
37600,31.333333,159,0.1325,51,D3#,80,2
37680,31.4,119,0.099166,75,D5#,80,1
37760,31.466666,159,0.1325,54,F3#,80,2
37800,31.5,119,0.099166,78,F5#,80,1
37920,31.6,119,0.099166,72,C5,80,1
37920,31.6,159,0.1325,60,C4,80,2
38040,31.7,119,0.099166,84,C6,80,1
38080,31.733333,159,0.1325,54,F3#,80,2
38160,31.8,119,0.099166,75,D5#,80,1
38240,31.866666,159,0.1325,51,D3#,80,2
38280,31.9,119,0.099166,78,F5#,80,1
38400,32.0,119,0.099166,72,C5,64,1
38400,32.0,159,0.1325,45,A2,64,2
38520,32.1,119,0.099166,84,C6,64,1
38560,32.133333,159,0.1325,51,D3#,64,2
38640,32.2,119,0.099166,75,D5#,64,1
38720,32.266666,159,0.1325,54,F3#,64,2
38760,32.3,119,0.099166,78,F5#,64,1
38880,32.4,119,0.099166,71,B4,64,1
38880,32.4,159,0.1325,59,B3,64,2
39000,32.5,119,0.099166,83,B5,64,1
39040,32.533333,159,0.1325,54,F3#,64,2
39120,32.6,119,0.099166,75,D5#,64,1
39200,32.666666,159,0.1325,51,D3#,64,2
39240,32.7,119,0.099166,78,F5#,64,1
39360,32.8,119,0.099166,71,B4,64,1
39360,32.8,159,0.1325,46,A2#,64,2
39480,32.9,119,0.099166,83,B5,64,1
39520,32.933333,159,0.1325,51,D3#,64,2
39600,33.0,119,0.099166,75,D5#,64,1
39680,33.066666,159,0.1325,54,F3#,64,2
39720,33.1,119,0.099166,78,F5#,64,1
39840,33.2,119,0.099166,70,A4#,64,1
39840,33.2,159,0.1325,58,A3#,64,2
39960,33.3,119,0.099166,82,A5#,64,1
40000,33.333333,159,0.1325,54,F3#,64,2
40080,33.4,119,0.099166,75,D5#,64,1
40160,33.466666,159,0.1325,51,D3#,64,2
40200,33.5,119,0.099166,78,F5#,64,1
40320,33.6,119,0.099166,70,A4#,49,1
40320,33.6,159,0.1325,48,C3,49,2
40440,33.7,119,0.099166,82,A5#,49,1
40480,33.733333,159,0.1325,51,D3#,49,2
40560,33.8,119,0.099166,75,D5#,49,1
40640,33.866666,159,0.1325,54,F3#,49,2
40680,33.9,119,0.099166,78,F5#,49,1
40800,34.0,119,0.099166,69,A4,49,1
40800,34.0,159,0.1325,57,A3,49,2
40920,34.1,119,0.099166,81,A5,49,1
40960,34.133333,159,0.1325,54,F3#,49,2
41040,34.2,119,0.099166,75,D5#,49,1
41120,34.266666,159,0.1325,51,D3#,49,2
41160,34.3,119,0.099166,78,F5#,49,1
41280,34.4,119,0.099166,69,A4,49,1
41280,34.4,159,0.1325,48,C3,49,2
41400,34.5,119,0.099166,81,A5,49,1
41440,34.533333,159,0.1325,51,D3#,49,2
41520,34.6,119,0.099166,75,D5#,49,1
41600,34.666666,159,0.1325,54,F3#,49,2
41640,34.7,119,0.099166,78,F5#,49,1
41760,34.8,119,0.099166,69,A4,49,1
41760,34.8,159,0.1325,57,A3,49,2
41880,34.9,119,0.099166,81,A5,49,1
41920,34.933333,159,0.1325,54,F3#,49,2
42000,35.0,119,0.099166,75,D5#,49,1
42080,35.066666,159,0.1325,51,D3#,49,2
42120,35.1,119,0.099166,78,F5#,49,1
42240,35.2,119,0.099166,72,C5,33,1
42240,35.2,159,0.1325,45,A2,33,2
42360,35.3,119,0.099166,84,C6,33,1
42400,35.333333,159,0.1325,51,D3#,33,2
42480,35.4,119,0.099166,75,D5#,33,1
42560,35.466666,159,0.1325,54,F3#,33,2
42600,35.5,119,0.099166,78,F5#,33,1
42720,35.6,119,0.099166,71,B4,33,1
42720,35.6,159,0.1325,59,B3,33,2
42840,35.7,119,0.099166,83,B5,33,1
42880,35.733333,159,0.1325,54,F3#,33,2
42960,35.8,119,0.099166,75,D5#,33,1
43040,35.866666,159,0.1325,51,D3#,33,2
43080,35.9,119,0.099166,78,F5#,33,1
43200,36.0,119,0.099166,71,B4,33,1
43200,36.0,159,0.1325,46,A2#,33,2
43320,36.1,119,0.099166,83,B5,33,1
43360,36.133333,159,0.1325,51,D3#,33,2
43440,36.2,119,0.099166,75,D5#,33,1
43520,36.266666,159,0.1325,54,F3#,33,2
43560,36.3,119,0.099166,78,F5#,33,1
43680,36.4,119,0.099166,70,A4#,33,1
43680,36.4,159,0.1325,58,A3#,33,2
43800,36.5,119,0.099166,82,A5#,33,1
43840,36.533333,159,0.1325,54,F3#,33,2
43920,36.6,119,0.099166,75,D5#,33,1
44000,36.666666,159,0.1325,51,D3#,33,2
44040,36.7,119,0.099166,78,F5#,33,1
44160,36.8,119,0.099166,70,A4#,33,1
44160,36.8,159,0.1325,47,B2,33,2
44280,36.9,119,0.099166,82,A5#,33,1
44320,36.933333,159,0.1325,51,D3#,33,2
44400,37.0,119,0.099166,75,D5#,33,1
44480,37.066666,159,0.1325,54,F3#,33,2
44520,37.1,119,0.099166,78,F5#,33,1
44640,37.2,119,0.099166,69,A4,33,1
44640,37.2,159,0.1325,57,A3,33,2
44760,37.3,119,0.099166,81,A5,33,1
44800,37.333333,159,0.1325,54,F3#,33,2
44880,37.4,119,0.099166,75,D5#,33,1
44960,37.466666,159,0.1325,51,D3#,33,2
45000,37.5,119,0.099166,78,F5#,33,1
45120,37.6,119,0.123958,69,A4,33,1
45120,37.6,159,0.165625,48,C3,33,2
45240,37.725,119,0.123958,81,A5,33,1
45280,37.766666,159,0.165625,51,D3#,33,2
45360,37.85,119,0.123958,75,D5#,33,1
45440,37.933333,159,0.165625,54,F3#,33,2
45480,37.975,119,0.123958,78,F5#,33,1
45600,38.1,119,0.123958,68,G4#,33,1
45600,38.1,159,0.165625,56,G3#,33,2
45720,38.225,119,0.123958,80,G5#,33,1
45760,38.266666,159,0.165625,54,F3#,33,2
45840,38.35,119,0.123958,75,D5#,33,1
45920,38.433333,159,0.165625,51,D3#,33,2
45960,38.475,119,0.123958,78,F5#,33,1
46080,38.6,159,0.1325,49,C3#,49,2
46200,38.7,119,0.099166,68,G4#,49,1
46240,38.733333,159,0.1325,56,G3#,49,2
46320,38.8,119,0.099166,69,A4,49,1
46400,38.866666,159,0.1325,61,C4#,49,2
46440,38.9,119,0.099166,68,G4#,49,1
46560,39.0,119,0.099166,67,G4,49,1
46560,39.0,159,0.1325,64,E4,49,2
46680,39.1,119,0.099166,68,G4#,49,1
46720,39.133333,159,0.1325,61,C4#,49,2
46800,39.2,119,0.099166,73,C5#,49,1
46880,39.266666,159,0.1325,56,G3#,49,2
46920,39.3,119,0.099166,76,E5,49,1
47040,39.4,119,0.099166,75,D5#,49,1
47040,39.4,159,0.1325,52,E3,49,2
47160,39.5,119,0.099166,73,C5#,49,1
47200,39.533333,159,0.1325,56,G3#,49,2
47280,39.6,119,0.099166,75,D5#,49,1
47360,39.666666,159,0.1325,61,C4#,49,2
47400,39.7,119,0.099166,73,C5#,49,1
47520,39.8,119,0.099166,72,C5,49,1
47520,39.8,159,0.1325,64,E4,49,2
47640,39.9,119,0.099166,73,C5#,49,1
47680,39.933333,159,0.1325,61,C4#,49,2
47760,40.0,119,0.099166,76,E5,49,1
47840,40.066666,159,0.1325,56,G3#,49,2
47880,40.1,119,0.099166,80,G5#,49,1
48000,40.2,159,0.1325,49,C3#,49,2
48120,40.3,119,0.099166,68,G4#,49,1
48160,40.333333,159,0.1325,56,G3#,49,2
48240,40.4,119,0.099166,69,A4,49,1
48320,40.466666,159,0.1325,61,C4#,49,2
48360,40.5,119,0.099166,68,G4#,49,1
48480,40.6,119,0.099166,67,G4,49,1
48480,40.6,159,0.1325,64,E4,49,2
48600,40.7,119,0.099166,68,G4#,49,1
48640,40.733333,159,0.1325,61,C4#,49,2
48720,40.8,119,0.099166,73,C5#,49,1
48800,40.866666,159,0.1325,56,G3#,49,2
48840,40.9,119,0.099166,76,E5,49,1
48960,41.0,119,0.099166,75,D5#,49,1
48960,41.0,159,0.1325,52,E3,49,2
49080,41.1,119,0.099166,73,C5#,49,1
49120,41.133333,159,0.1325,56,G3#,49,2
49200,41.2,119,0.099166,75,D5#,49,1
49280,41.266666,159,0.1325,61,C4#,49,2
49320,41.3,119,0.099166,73,C5#,49,1
49440,41.4,119,0.099166,72,C5,49,1
49440,41.4,159,0.1325,64,E4,49,2
49560,41.5,119,0.099166,73,C5#,49,1
49600,41.533333,159,0.1325,61,C4#,49,2
49680,41.6,119,0.099166,76,E5,49,1
49760,41.666666,159,0.1325,56,G3#,49,2
49800,41.7,119,0.099166,80,G5#,49,1
49920,41.8,159,0.1325,51,D3#,64,2
50040,41.9,119,0.099166,69,A4,64,1
50080,41.933333,159,0.1325,57,A3,64,2
50160,42.0,119,0.099166,73,C5#,64,1
50240,42.066666,159,0.1325,61,C4#,64,2
50280,42.1,119,0.099166,75,D5#,64,1
50400,42.2,119,0.099166,78,F5#,64,1
50400,42.2,159,0.1325,66,F4#,64,2
50520,42.3,119,0.099166,81,A5,64,1
50560,42.333333,159,0.1325,61,C4#,64,2
50640,42.4,119,0.099166,85,C6#,64,1
50720,42.466666,159,0.1325,57,A3,64,2
50760,42.5,119,0.099166,87,D6#,64,1
50880,42.6,119,0.099166,95,B6,64,1
50880,42.6,159,0.1325,54,F3#,64,2
51000,42.7,119,0.099166,93,A6,64,1
51040,42.733333,159,0.1325,61,C4#,64,2
51120,42.8,119,0.099166,92,G6#,64,1
51200,42.866666,159,0.1325,63,D4#,64,2
51240,42.9,119,0.099166,90,F6#,64,1
51360,43.0,119,0.099166,88,E6,80,1
51360,43.0,159,0.1325,69,A4,80,2
51480,43.1,119,0.099166,87,D6#,80,1
51520,43.133333,159,0.1325,63,D4#,80,2
51600,43.2,119,0.099166,90,F6#,80,1
51680,43.266666,159,0.1325,61,C4#,80,2
51720,43.3,119,0.099166,85,C6#,80,1
51840,43.4,119,0.099166,84,C6,80,1
51840,43.4,159,0.1325,42,F2#,80,2
51960,43.5,119,0.099166,87,D6#,80,1
52000,43.533333,159,0.1325,51,D3#,80,2
52080,43.6,119,0.099166,81,A5,80,1
52160,43.666666,159,0.1325,54,F3#,80,2
52200,43.7,119,0.099166,80,G5#,80,1
52320,43.8,119,0.099166,78,F5#,80,1
52320,43.8,159,0.1325,60,C4,80,2
52440,43.9,119,0.099166,81,A5,80,1
52480,43.933333,159,0.1325,54,F3#,80,2
52560,44.0,119,0.099166,76,E5,80,1
52640,44.066666,159,0.1325,51,D3#,80,2
52680,44.1,119,0.099166,75,D5#,80,1
52800,44.2,119,0.099166,78,F5#,64,1
52800,44.2,159,0.1325,44,G2#,64,2
52920,44.3,119,0.099166,73,C5#,64,1
52960,44.333333,159,0.1325,51,D3#,64,2
53040,44.4,119,0.099166,72,C5,64,1
53120,44.466666,159,0.1325,54,F3#,64,2
53160,44.5,119,0.099166,75,D5#,64,1
53280,44.6,119,0.099166,69,A4,64,1
53280,44.6,159,0.1325,60,C4,64,2
53400,44.7,119,0.099166,68,G4#,64,1
53440,44.733333,159,0.1325,54,F3#,64,2
53520,44.8,119,0.099166,71,B4,64,1
53600,44.866666,159,0.1325,51,D3#,64,2
53640,44.9,239,0.199166,69,A4,64,1
53760,45.0,159,0.1325,49,C3#,49,2
53880,45.1,119,0.099166,68,G4#,49,1
53920,45.133333,159,0.1325,56,G3#,49,2
54000,45.2,119,0.099166,69,A4,49,1
54080,45.266666,159,0.1325,61,C4#,49,2
54120,45.3,119,0.099166,68,G4#,49,1
54240,45.4,119,0.099166,67,G4,49,1
54240,45.4,159,0.1325,64,E4,49,2
54360,45.5,119,0.099166,68,G4#,49,1
54400,45.533333,159,0.1325,61,C4#,49,2
54480,45.6,119,0.099166,73,C5#,49,1
54560,45.666666,159,0.1325,56,G3#,49,2
54600,45.7,119,0.099166,76,E5,49,1
54720,45.8,119,0.099166,75,D5#,49,1
54720,45.8,159,0.1325,52,E3,49,2
54840,45.9,119,0.099166,73,C5#,49,1
54880,45.933333,159,0.1325,56,G3#,49,2
54960,46.0,119,0.099166,75,D5#,49,1
55040,46.066666,159,0.1325,61,C4#,49,2
55080,46.1,119,0.099166,73,C5#,49,1
55200,46.2,119,0.099166,72,C5,49,1
55200,46.2,159,0.1325,64,E4,49,2
55320,46.3,119,0.099166,73,C5#,49,1
55360,46.333333,159,0.1325,61,C4#,49,2
55440,46.4,119,0.099166,76,E5,49,1
55520,46.466666,159,0.1325,56,G3#,49,2
55560,46.5,119,0.099166,80,G5#,49,1
55680,46.6,119,0.099166,76,E5,49,1
55680,46.6,159,0.1325,54,F3#,49,2
55800,46.7,119,0.099166,75,D5#,49,1
55840,46.733333,159,0.1325,61,C4#,49,2
55920,46.8,119,0.099166,76,E5,49,1
56000,46.866666,159,0.1325,63,D4#,49,2
56040,46.9,119,0.099166,75,D5#,49,1
56160,47.0,119,0.099166,74,D5,49,1
56160,47.0,159,0.1325,69,A4,49,2
56280,47.1,119,0.099166,75,D5#,49,1
56320,47.133333,159,0.1325,63,D4#,49,2
56400,47.2,119,0.099166,78,F5#,49,1
56480,47.266666,159,0.1325,61,C4#,49,2
56520,47.3,119,0.099166,81,A5,49,1
56640,47.4,119,0.099166,78,F5#,49,1
56640,47.4,159,0.1325,56,G3#,49,2
56760,47.5,119,0.099166,77,F5,49,1
56800,47.533333,159,0.1325,61,C4#,49,2
56880,47.6,119,0.099166,78,F5#,49,1
56960,47.666666,159,0.1325,65,F4,49,2
57000,47.7,119,0.099166,77,F5,49,1
57120,47.8,119,0.099166,76,E5,49,1
57120,47.8,159,0.1325,71,B4,49,2
57240,47.9,119,0.099166,77,F5,49,1
57280,47.933333,159,0.1325,65,F4,49,2
57360,48.0,119,0.099166,80,G5#,49,1
57440,48.066666,159,0.1325,61,C4#,49,2
57480,48.1,119,0.099166,85,C6#,49,1
57600,48.2,159,0.1325,57,A3,64,2
57720,48.3,119,0.099166,73,C5#,64,1
57760,48.333333,159,0.1325,61,C4#,64,2
57840,48.4,119,0.099166,74,D5,64,1
57920,48.466666,159,0.1325,66,F4#,64,2
57960,48.5,119,0.099166,73,C5#,64,1
58080,48.6,119,0.099166,72,C5,64,1
58080,48.6,159,0.1325,69,A4,64,2
58200,48.7,119,0.099166,73,C5#,64,1
58240,48.733333,159,0.1325,66,F4#,64,2
58320,48.8,119,0.099166,78,F5#,64,1
58400,48.866666,159,0.1325,61,C4#,64,2
58440,48.9,119,0.099166,81,A5,64,1
58560,49.0,119,0.099166,78,F5#,64,1
58560,49.0,159,0.1325,56,G3#,64,2
58680,49.1,119,0.099166,77,F5,64,1
58720,49.133333,159,0.1325,61,C4#,64,2
58800,49.2,119,0.099166,78,F5#,64,1
58880,49.266666,159,0.1325,65,F4,64,2
58920,49.3,119,0.099166,77,F5,64,1
59040,49.4,119,0.099166,76,E5,64,1
59040,49.4,159,0.1325,71,B4,64,2
59160,49.5,119,0.099166,77,F5,64,1
59200,49.533333,159,0.1325,65,F4,64,2
59280,49.6,119,0.099166,80,G5#,64,1
59360,49.666666,159,0.1325,61,C4#,64,2
59400,49.7,119,0.099166,85,C6#,64,1
59520,49.8,119,0.099166,80,G5#,64,1
59520,49.8,159,0.1325,57,A3,64,2
59640,49.9,119,0.099166,78,F5#,64,1
59680,49.933333,159,0.1325,61,C4#,64,2
59760,50.0,119,0.099166,80,G5#,64,1
59840,50.066666,159,0.1325,66,F4#,64,2
59880,50.1,119,0.099166,78,F5#,64,1
60000,50.2,119,0.099166,77,F5,64,1
60000,50.2,159,0.1325,69,A4,64,2
60120,50.3,119,0.099166,78,F5#,64,1
60160,50.333333,159,0.1325,66,F4#,64,2
60240,50.4,119,0.099166,81,A5,64,1
60320,50.466666,159,0.1325,61,C4#,64,2
60360,50.5,119,0.099166,85,C6#,64,1
60480,50.6,119,0.099166,81,A5,64,1
60480,50.6,159,0.1325,48,C3,64,2
60600,50.7,119,0.099166,80,G5#,64,1
60640,50.733333,159,0.1325,54,F3#,64,2
60720,50.8,119,0.099166,81,A5,64,1
60800,50.866666,159,0.1325,56,G3#,64,2
60840,50.9,119,0.099166,80,G5#,64,1
60960,51.0,119,0.099166,79,G5,64,1
60960,51.0,159,0.1325,63,D4#,64,2
61080,51.1,119,0.099166,80,G5#,64,1
61120,51.133333,159,0.1325,56,G3#,64,2
61200,51.2,119,0.099166,84,C6,64,1
61280,51.266666,159,0.1325,54,F3#,64,2
61320,51.3,119,0.099166,87,D6#,64,1
61440,51.4,119,0.099166,80,G5#,80,1
61440,51.4,159,0.1325,49,C3#,80,2
61560,51.5,119,0.099166,81,A5,80,1
61600,51.533333,159,0.1325,56,G3#,80,2
61680,51.6,119,0.099166,80,G5#,80,1
61760,51.666666,159,0.1325,61,C4#,80,2
61800,51.7,119,0.099166,79,G5,80,1
61920,51.8,119,0.099166,80,G5#,80,1
61920,51.8,159,0.1325,64,E4,80,2
62040,51.9,119,0.099166,88,E6,80,1
62080,51.933333,159,0.1325,61,C4#,80,2
62160,52.0,119,0.099166,87,D6#,80,1
62240,52.066666,159,0.1325,56,G3#,80,2
62280,52.1,119,0.099166,86,D6,80,1
62400,52.2,119,0.099166,85,C6#,80,1
62400,52.2,159,0.1325,51,D3#,80,2
62520,52.3,119,0.099166,84,C6,80,1
62560,52.333333,159,0.1325,56,G3#,80,2
62640,52.4,119,0.099166,83,B5,80,1
62720,52.466666,159,0.1325,60,C4,80,2
62760,52.5,119,0.099166,82,A5#,80,1
62880,52.6,119,0.099166,81,A5,80,1
62880,52.6,159,0.1325,66,F4#,80,2
63000,52.7,119,0.099166,80,G5#,80,1
63040,52.733333,159,0.1325,60,C4,80,2
63120,52.8,119,0.099166,79,G5,80,1
63200,52.866666,159,0.1325,56,G3#,80,2
63240,52.9,119,0.099166,78,F5#,80,1
63360,53.0,119,0.099166,76,E5,80,1
63360,53.0,159,0.1325,52,E3,80,2
63480,53.1,119,0.099166,78,F5#,80,1
63520,53.133333,159,0.1325,56,G3#,80,2
63600,53.2,119,0.099166,76,E5,80,1
63680,53.266666,159,0.1325,61,C4#,80,2
63720,53.3,119,0.099166,75,D5#,80,1
63840,53.4,119,0.099166,76,E5,80,1
63840,53.4,159,0.1325,64,E4,80,2
63960,53.5,119,0.099166,88,E6,80,1
64000,53.533333,159,0.1325,61,C4#,80,2
64080,53.6,119,0.099166,87,D6#,80,1
64160,53.666666,159,0.1325,56,G3#,80,2
64200,53.7,119,0.099166,86,D6,80,1
64320,53.8,119,0.099166,85,C6#,80,1
64320,53.8,159,0.1325,54,F3#,80,2
64440,53.9,119,0.099166,84,C6,80,1
64480,53.933333,159,0.1325,61,C4#,80,2
64560,54.0,119,0.099166,83,B5,80,1
64640,54.066666,159,0.1325,63,D4#,80,2
64680,54.1,119,0.099166,82,A5#,80,1
64800,54.2,119,0.099166,81,A5,80,1
64800,54.2,159,0.1325,69,A4,80,2
64920,54.3,119,0.099166,80,G5#,80,1
64960,54.333333,159,0.1325,63,D4#,80,2
65040,54.4,119,0.099166,79,G5,80,1
65120,54.466666,159,0.1325,61,C4#,80,2
65160,54.5,119,0.099166,78,F5#,80,1
65280,54.6,59,0.049166,80,G5#,80,1
65280,54.6,119,0.099166,56,G3#,80,2
65280,54.6,119,0.099166,61,C4#,80,2
65280,54.6,119,0.099166,64,E4,80,2
65280,54.6,119,0.099166,68,G4#,80,2
65520,54.8,119,0.099166,92,G6#,96,1
65640,54.9,119,0.099166,91,G6,96,1
65760,55.0,119,0.099166,90,F6#,96,1
65880,55.1,119,0.099166,89,F6,96,1
66000,55.2,119,0.099166,88,E6,96,1
66120,55.3,119,0.099166,87,D6#,96,1
66240,55.4,119,0.099166,86,D6,96,1
66240,55.4,959,0.799166,55,G3,96,2
66240,55.4,959,0.799166,61,C4#,96,2
66240,55.4,959,0.799166,64,E4,96,2
66240,55.4,959,0.799166,69,A4,96,2
66360,55.5,119,0.099166,85,C6#,96,1
66480,55.6,119,0.099166,84,C6,96,1
66600,55.7,119,0.099166,83,B5,96,1
66720,55.8,119,0.099166,82,A5#,96,1
66840,55.9,119,0.099166,81,A5,96,1
66960,56.0,119,0.099166,80,G5#,96,1
67080,56.1,119,0.099166,79,G5,96,1
67200,56.2,119,0.099166,78,F5#,96,1
67320,56.3,119,0.099166,77,F5,96,1
67440,56.4,119,0.099166,76,E5,96,1
67560,56.5,119,0.099166,75,D5#,96,1
67680,56.6,119,0.099166,74,D5,96,1
67800,56.7,119,0.099166,73,C5#,96,1
67920,56.8,119,0.099166,72,C5,96,1
68040,56.9,119,0.099166,71,B4,96,1
68160,57.0,119,0.099166,70,A4#,96,1
68280,57.1,119,0.099166,69,A4,96,1
68400,57.2,119,0.099166,68,G4#,96,1
68520,57.3,119,0.099166,67,G4,96,1
68640,57.4,119,0.099166,66,F4#,96,1
68760,57.5,119,0.099166,64,E4,96,1
68880,57.6,119,0.099166,63,D4#,96,1
69000,57.7,119,0.099166,61,C4#,96,1
69120,57.8,119,0.099166,56,G3#,112,1
69120,57.8,119,0.099166,32,G1#,112,2
69120,57.8,119,0.099166,44,G2#,112,2
69600,58.2,119,0.099166,93,A6,112,1
69600,58.2,479,0.399166,64,E4,112,2
69600,58.2,479,0.399166,76,E5,112,2
69720,58.3,119,0.099166,92,G6#,112,1
69840,58.4,119,0.099166,100,E7,112,1
69960,58.5,119,0.099166,88,E6,112,1
70080,58.6,119,0.099166,90,F6#,112,1
70080,58.6,479,0.399166,61,C4#,112,2
70080,58.6,479,0.399166,73,C5#,112,2
70200,58.7,119,0.099166,88,E6,112,1
70320,58.8,119,0.099166,97,C7#,112,1
70440,58.9,119,0.099166,85,C6#,112,1
70560,59.0,119,0.099166,87,D6#,112,1
70560,59.0,479,0.399166,56,G3#,112,2
70560,59.0,479,0.399166,68,G4#,112,2
70680,59.1,119,0.099166,85,C6#,112,1
70800,59.2,119,0.099166,92,G6#,112,1
70920,59.3,119,0.099166,80,G5#,112,1
71040,59.4,119,0.099166,81,A5,80,1
71040,59.4,479,0.399166,52,E3,80,2
71040,59.4,479,0.399166,64,E4,80,2
71160,59.5,119,0.099166,80,G5#,80,1
71280,59.6,119,0.099166,88,E6,80,1
71400,59.7,119,0.099166,76,E5,80,1
71520,59.8,119,0.099166,78,F5#,80,1
71520,59.8,479,0.399166,49,C3#,80,2
71520,59.8,479,0.399166,61,C4#,80,2
71640,59.9,119,0.099166,76,E5,80,1
71760,60.0,119,0.099166,85,C6#,80,1
71880,60.1,119,0.099166,73,C5#,80,1
72000,60.2,119,0.099166,75,D5#,80,1
72000,60.2,479,0.399166,44,G2#,80,2
72000,60.2,479,0.399166,56,G3#,80,2
72120,60.3,119,0.099166,73,C5#,80,1
72240,60.4,119,0.099166,80,G5#,80,1
72360,60.5,119,0.099166,68,G4#,80,1
72480,60.6,119,0.099166,69,A4,80,1
72480,60.6,479,0.399166,40,E2,80,2
72480,60.6,479,0.399166,52,E3,80,2
72600,60.7,119,0.099166,68,G4#,80,1
72720,60.8,119,0.099166,76,E5,80,1
72840,60.9,119,0.099166,64,E4,80,1
72960,61.0,119,0.099166,66,F4#,64,1
72960,61.0,479,0.399166,37,C2#,64,2
72960,61.0,479,0.399166,49,C3#,64,2
73080,61.1,119,0.099166,64,E4,64,1
73200,61.2,119,0.099166,73,C5#,64,1
73320,61.3,119,0.099166,61,C4#,64,1
73440,61.4,119,0.099166,63,D4#,64,1
73440,61.4,479,0.399166,32,G1#,64,2
73440,61.4,479,0.399166,44,G2#,64,2
73560,61.5,119,0.099166,61,C4#,64,1
73680,61.6,119,0.099166,68,G4#,64,1
73800,61.7,119,0.099166,56,G3#,64,1
73920,61.8,119,0.099166,63,D4#,64,1
73920,61.8,479,0.399166,32,G1#,64,2
73920,61.8,479,0.399166,44,G2#,64,2
74040,61.9,119,0.099166,61,C4#,64,1
74160,62.0,119,0.099166,68,G4#,64,1
74280,62.1,119,0.099166,56,G3#,64,1
74400,62.2,119,0.099166,63,D4#,64,1
74400,62.2,479,0.399166,33,A1,64,2
74400,62.2,479,0.399166,45,A2,64,2
74520,62.3,119,0.099166,61,C4#,64,1
74640,62.4,119,0.099166,69,A4,64,1
74760,62.5,119,0.099166,57,A3,64,1
74880,62.6,119,0.099166,63,D4#,49,1
74880,62.6,479,0.399166,32,G1#,49,2
74880,62.6,479,0.399166,44,G2#,49,2
75000,62.7,119,0.099166,61,C4#,49,1
75120,62.8,119,0.099166,68,G4#,49,1
75240,62.9,119,0.099166,56,G3#,49,1
75360,63.0,119,0.123958,63,D4#,49,1
75360,63.0,479,0.498958,31,G1,49,2
75360,63.0,479,0.498958,43,G2,49,2
75480,63.125,119,0.123958,61,C4#,49,1
75600,63.25,119,0.123958,67,G4,49,1
75720,63.375,119,0.123958,55,G3,49,1
75840,63.5,119,0.123958,63,D4#,49,1
75840,63.5,959,0.998958,32,G1#,49,2
75840,63.5,959,0.998958,44,G2#,49,2
75960,63.625,119,0.123958,61,C4#,49,1
76080,63.75,119,0.123958,68,G4#,49,1
76200,63.875,119,0.123958,56,G3#,49,1
76320,64.0,119,0.123958,63,D4#,49,1
76440,64.125,119,0.123958,60,C4,49,1
76560,64.25,119,0.123958,68,G4#,49,1
76680,64.375,119,0.123958,56,G3#,49,1
76800,64.5,159,0.3975,37,C2#,64,2
76960,64.9,159,0.3975,44,G2#,64,2
77120,65.3,159,0.3975,49,C3#,64,2
77280,65.7,159,0.3975,53,F3,64,2
77440,66.1,159,0.3975,56,G3#,64,2
77600,66.5,159,0.3975,61,C4#,64,2
77760,66.9,159,0.3975,65,F4,80,2
77920,67.3,159,0.3975,61,C4#,80,2
78080,67.7,159,0.3975,56,G3#,80,2
78240,68.1,159,0.3975,53,F3,64,2
78400,68.5,159,0.3975,49,C3#,64,2
78560,68.9,159,0.3975,44,G2#,64,2
78720,69.3,159,0.3975,37,C2#,49,2
78880,69.7,159,0.3975,44,G2#,49,2
79040,70.1,159,0.3975,49,C3#,49,2
79200,70.5,159,0.3975,53,F3,49,2
79360,70.9,159,0.3975,56,G3#,49,2
79520,71.3,159,0.3975,61,C4#,49,2
79680,71.7,159,0.3975,65,F4,49,2
79840,72.1,159,0.3975,61,C4#,49,2
80000,72.5,159,0.3975,56,G3#,49,2
80160,72.9,159,0.3975,53,F3,49,2
80320,73.3,159,0.3975,49,C3#,49,2
80480,73.7,159,0.3975,44,G2#,49,2
80640,74.1,959,1.331945,68,G4#,33,1
80640,74.1,159,0.220833,37,C2#,33,2
80800,74.322222,159,0.220833,56,G3#,33,2
80960,74.544444,159,0.220834,60,C4,33,2
81120,74.766667,159,0.220833,63,D4#,33,2
81280,74.988889,159,0.220833,60,C4,33,2
81440,75.211111,159,0.220834,56,G3#,33,2
81600,75.433334,59,0.081944,70,A4#,64,1
81600,75.433334,159,0.220833,49,C3#,64,2
81660,75.516667,59,0.081944,72,C5,64,1
81720,75.6,119,0.165278,70,A4#,64,1
81760,75.655556,159,0.220833,56,G3#,64,2
81840,75.766667,239,0.331945,68,G4#,64,1
81920,75.877778,159,0.220834,60,C4,64,2
82080,76.100001,239,0.331944,73,C5#,64,1
82080,76.100001,159,0.220833,66,F4#,64,2
82240,76.322223,159,0.220833,60,C4,64,2
82320,76.433334,239,0.331945,75,D5#,64,1
82400,76.544445,159,0.220834,56,G3#,64,2
82560,76.766668,959,1.331945,77,F5,80,1
82560,76.766668,159,0.220833,49,C3#,80,2
82720,76.98889,159,0.220833,56,G3#,80,2
82880,77.211112,159,0.220834,61,C4#,80,2
83040,77.433335,159,0.220833,65,F4,80,2
83200,77.655557,159,0.220833,61,C4#,80,2
83360,77.877779,159,0.220834,56,G3#,80,2
83520,78.100002,959,1.331945,80,G5#,96,1
83520,78.100002,159,0.220833,49,C3#,96,2
83680,78.322224,159,0.220833,56,G3#,96,2
83840,78.544446,159,0.220834,65,F4,96,2
84000,78.766669,159,0.220833,68,G4#,96,2
84160,78.988891,159,0.220833,65,F4,96,2
84320,79.211113,159,0.220834,56,G3#,96,2
84480,79.433336,479,0.665278,78,F5#,96,1
84480,79.433336,159,0.220833,66,F4#,96,2
84640,79.655558,159,0.220833,63,D4#,96,2
84800,79.87778,159,0.220834,56,G3#,96,2
84960,80.100003,479,0.665278,77,F5,96,1
84960,80.100003,159,0.220833,65,F4,96,2
85120,80.322225,159,0.220833,61,C4#,96,2
85280,80.544447,159,0.220834,56,G3#,96,2
85440,80.76667,479,0.665278,75,D5#,80,1
85440,80.76667,159,0.220833,63,D4#,80,2
85600,80.988892,159,0.220833,60,C4,80,2
85760,81.211114,159,0.220834,56,G3#,80,2
85920,81.433337,359,0.498611,77,F5,64,1
85920,81.433337,159,0.220833,61,C4#,64,2
86080,81.655559,159,0.220833,56,G3#,64,2
86240,81.877781,159,0.220834,53,F3,64,2
86280,81.933337,119,0.165278,73,C5#,64,1
86400,82.100004,959,1.331945,68,G4#,49,1
86400,82.100004,159,0.220833,44,G2#,49,2
86560,82.322226,159,0.220833,51,D3#,49,2
86720,82.544448,159,0.220834,56,G3#,49,2
86880,82.766671,159,0.220833,60,C4,49,2
87040,82.988893,159,0.220833,56,G3#,49,2
87200,83.211115,159,0.220834,51,D3#,49,2
87360,83.433338,1919,2.665279,70,A4#,49,1
87360,83.433338,159,0.220833,42,F2#,49,2
87520,83.65556,159,0.220833,54,F3#,49,2
87680,83.877782,159,0.220834,58,A3#,49,2
87840,84.100005,159,0.220833,61,C4#,49,2
88000,84.322227,159,0.220833,58,A3#,49,2
88160,84.544449,159,0.220834,54,F3#,49,2
88320,84.766672,159,0.220833,46,A2#,49,2
88480,84.988894,159,0.220833,53,F3,49,2
88640,85.211116,159,0.220834,58,A3#,49,2
88800,85.433339,159,0.220833,62,D4,49,2
88960,85.655561,159,0.220833,58,A3#,49,2
89120,85.877783,159,0.220834,53,F3,49,2
89280,86.100006,59,0.081944,71,B4,64,1
89280,86.100006,159,0.220833,46,A2#,64,2
89340,86.183339,59,0.081944,73,C5#,64,1
89400,86.266672,119,0.165278,71,B4,64,1
89440,86.322228,159,0.220833,58,A3#,64,2
89520,86.433339,239,0.331945,70,A4#,64,1
89600,86.54445,159,0.220834,62,D4,64,2
89760,86.766673,239,0.331944,75,D5#,64,1
89760,86.766673,159,0.220833,68,G4#,64,2
89920,86.988895,159,0.220833,62,D4,64,2
90000,87.100006,239,0.331945,77,F5,64,1
90080,87.211117,159,0.220834,58,A3#,64,2
90240,87.43334,479,0.665278,78,F5#,80,1
90240,87.43334,159,0.220833,51,D3#,80,2
90400,87.655562,159,0.220833,66,F4#,80,2
90560,87.877784,159,0.220834,58,A3#,80,2
90720,88.100007,479,0.665278,77,F5,80,1
90720,88.100007,159,0.220833,53,F3,80,2
90880,88.322229,159,0.220833,65,F4,80,2
91040,88.544451,159,0.220834,57,A3,80,2
91200,88.766674,479,0.665278,75,D5#,80,1
91200,88.766674,159,0.220833,54,F3#,80,2
91360,88.988896,159,0.220833,63,D4#,80,2
91520,89.211118,159,0.220834,58,A3#,80,2
91680,89.433341,479,0.665278,77,F5,80,1
91680,89.433341,159,0.220833,56,G3#,80,2
91840,89.655563,159,0.220833,66,F4#,80,2
92000,89.877785,159,0.220834,60,C4,80,2
92160,90.100008,959,1.331945,73,C5#,64,1
92160,90.100008,159,0.220833,49,C3#,64,2
92320,90.32223,159,0.220833,56,G3#,64,2
92480,90.544452,159,0.220834,61,C4#,64,2
92640,90.766675,159,0.220833,65,F4,64,2
92800,90.988897,159,0.220833,61,C4#,64,2
92960,91.211119,159,0.220834,56,G3#,64,2
93120,91.433342,59,0.081944,72,C5,64,1
93120,91.433342,159,0.220833,51,D3#,64,2
93180,91.516675,59,0.081944,73,C5#,64,1
93240,91.600008,59,0.081945,75,D5#,64,1
93280,91.655564,159,0.220833,55,G3,64,2
93300,91.683342,59,0.081944,73,C5#,64,1
93360,91.766675,479,0.665278,77,F5,64,1
93440,91.877786,159,0.220834,61,C4#,64,2
93600,92.100009,159,0.220833,63,D4#,64,2
93760,92.322231,159,0.220833,61,C4#,64,2
93840,92.433342,239,0.331945,75,D5#,64,1
93920,92.544453,159,0.220834,55,G3,64,2
94080,92.766676,1919,2.998263,75,D5#,49,1
94080,92.766676,159,0.220833,44,G2#,49,2
94240,92.988898,159,0.220833,51,D3#,49,2
94400,93.21112,159,0.220834,56,G3#,49,2
94560,93.433343,159,0.220833,60,C4,49,2
94720,93.655565,159,0.220833,56,G3#,49,2
94880,93.877787,159,0.220834,51,D3#,49,2
95040,94.10001,159,0.276041,44,G2#,49,2
95200,94.377787,159,0.276042,51,D3#,49,2
95360,94.655565,159,0.276041,54,F3#,49,2
95520,94.933343,159,0.276041,58,A3#,49,2
95680,95.21112,159,0.276042,54,F3#,49,2
95840,95.488898,159,0.276041,51,D3#,49,2
96000,95.766676,959,1.331945,68,G4#,49,1
96000,95.766676,159,0.220833,44,G2#,49,2
96160,95.988898,159,0.220833,51,D3#,49,2
96320,96.21112,159,0.220834,56,G3#,49,2
96480,96.433343,159,0.220833,60,C4,49,2
96640,96.655565,159,0.220833,56,G3#,49,2
96800,96.877787,159,0.220834,51,D3#,49,2
96960,97.10001,59,0.081944,70,A4#,64,1
96960,97.10001,159,0.220833,44,G2#,64,2
97020,97.183343,59,0.081944,72,C5,64,1
97080,97.266676,119,0.165278,70,A4#,64,1
97120,97.322232,159,0.220833,56,G3#,64,2
97200,97.433343,239,0.331945,68,G4#,64,1
97280,97.544454,159,0.220834,60,C4,64,2
97440,97.766677,239,0.331944,73,C5#,64,1
97440,97.766677,159,0.220833,66,F4#,64,2
97600,97.988899,159,0.220833,60,C4,64,2
97680,98.10001,239,0.331945,75,D5#,64,1
97760,98.211121,159,0.220834,56,G3#,64,2
97920,98.433344,959,1.331945,77,F5,64,1
97920,98.433344,159,0.220833,49,C3#,64,2
98080,98.655566,159,0.220833,56,G3#,64,2
98240,98.877788,159,0.220834,61,C4#,64,2
98400,99.100011,159,0.220833,65,F4,64,2
98560,99.322233,159,0.220833,61,C4#,64,2
98720,99.544455,159,0.220834,56,G3#,64,2
98880,99.766678,959,1.331945,80,G5#,80,1
98880,99.766678,159,0.220833,49,C3#,80,2
99040,99.9889,159,0.220833,56,G3#,80,2
99200,100.211122,159,0.220834,65,F4,80,2
99360,100.433345,159,0.220833,68,G4#,80,2
99520,100.655567,159,0.220833,65,F4,80,2
99680,100.877789,159,0.220834,56,G3#,80,2
99840,101.100012,479,0.665278,78,F5#,80,1
99840,101.100012,159,0.220833,66,F4#,80,2
100000,101.322234,159,0.220833,63,D4#,80,2
100160,101.544456,159,0.220834,56,G3#,80,2
100320,101.766679,479,0.665278,77,F5,80,1
100320,101.766679,159,0.220833,65,F4,80,2
100480,101.988901,159,0.220833,61,C4#,80,2
100640,102.211123,159,0.220834,56,G3#,80,2
100800,102.433346,479,0.665278,75,D5#,80,1
100800,102.433346,159,0.220833,63,D4#,80,2
100960,102.655568,159,0.220833,60,C4,80,2
101120,102.87779,159,0.220834,56,G3#,80,2
101280,103.100013,359,0.498611,77,F5,80,1
101280,103.100013,159,0.220833,61,C4#,80,2
101440,103.322235,159,0.220833,56,G3#,80,2
101600,103.544457,159,0.220834,53,F3,80,2
101640,103.600013,119,0.165278,73,C5#,80,1
101760,103.76668,959,1.331945,68,G4#,80,1
101760,103.76668,159,0.220833,44,G2#,80,2
101920,103.988902,159,0.220833,51,D3#,80,2
102080,104.211124,159,0.220834,56,G3#,80,2
102240,104.433347,159,0.220833,60,C4,80,2
102400,104.655569,159,0.220833,56,G3#,80,2
102560,104.877791,159,0.220834,51,D3#,80,2
102720,105.100014,1919,2.665279,70,A4#,80,1
102720,105.100014,159,0.220833,42,F2#,80,2
102880,105.322236,159,0.220833,54,F3#,80,2
103040,105.544458,159,0.220834,58,A3#,80,2
103200,105.766681,159,0.220833,61,C4#,80,2
103360,105.988903,159,0.220833,58,A3#,80,2
103520,106.211125,159,0.220834,54,F3#,80,2
103680,106.433348,159,0.220833,46,A2#,80,2
103840,106.65557,159,0.220833,53,F3,80,2
104000,106.877792,159,0.220834,58,A3#,80,2
104160,107.100015,159,0.220833,62,D4,80,2
104320,107.322237,159,0.220833,58,A3#,80,2
104480,107.544459,159,0.220834,53,F3,80,2
104640,107.766682,59,0.081944,71,B4,80,1
104640,107.766682,159,0.220833,46,A2#,80,2
104700,107.850015,59,0.081944,73,C5#,80,1
104760,107.933348,119,0.165278,71,B4,80,1
104800,107.988904,159,0.220833,58,A3#,80,2
104880,108.100015,239,0.331945,70,A4#,80,1
104960,108.211126,159,0.220834,62,D4,80,2
105120,108.433349,239,0.331944,75,D5#,80,1
105120,108.433349,159,0.220833,68,G4#,80,2
105280,108.655571,159,0.220833,62,D4,80,2
105360,108.766682,239,0.331945,77,F5,80,1
105440,108.877793,159,0.220834,58,A3#,80,2
105600,109.100016,479,0.665278,78,F5#,96,1
105600,109.100016,159,0.220833,51,D3#,96,2
105760,109.322238,159,0.220833,66,F4#,96,2
105920,109.54446,159,0.220834,58,A3#,96,2
106080,109.766683,479,0.665278,77,F5,96,1
106080,109.766683,159,0.220833,53,F3,96,2
106240,109.988905,159,0.220833,65,F4,96,2
106400,110.211127,159,0.220834,57,A3,96,2
106560,110.43335,479,0.665278,75,D5#,80,1
106560,110.43335,159,0.220833,54,F3#,80,2
106720,110.655572,159,0.220833,63,D4#,80,2
106880,110.877794,159,0.220834,58,A3#,80,2
107040,111.100017,479,0.665278,77,F5,80,1
107040,111.100017,159,0.220833,56,G3#,80,2
107200,111.322239,159,0.220833,66,F4#,80,2
107360,111.544461,159,0.220834,60,C4,80,2
107520,111.766684,959,1.331945,73,C5#,64,1
107520,111.766684,159,0.220833,49,C3#,64,2
107680,111.988906,159,0.220833,56,G3#,64,2
107840,112.211128,159,0.220834,61,C4#,64,2
108000,112.433351,159,0.220833,65,F4,64,2
108160,112.655573,159,0.220833,61,C4#,64,2
108320,112.877795,159,0.220834,56,G3#,64,2
108480,113.100018,59,0.081944,72,C5,64,1
108480,113.100018,159,0.220833,49,C3#,64,2
108540,113.183351,59,0.081944,73,C5#,64,1
108600,113.266684,59,0.081945,75,D5#,64,1
108640,113.32224,159,0.220833,56,G3#,64,2
108660,113.350018,59,0.081944,73,C5#,64,1
108720,113.433351,479,0.665278,77,F5,80,1
108800,113.544462,159,0.220834,60,C4,80,2
108960,113.766685,159,0.220833,66,F4#,80,2
109120,113.988907,159,0.220833,60,C4,80,2
109200,114.100018,239,0.331945,75,D5#,80,1
109280,114.211129,159,0.220834,56,G3#,80,2
109440,114.433352,959,1.331945,75,D5#,64,1
109440,114.433352,159,0.220833,49,C3#,64,2
109600,114.655574,159,0.220833,56,G3#,64,2
109760,114.877796,159,0.220834,60,C4,64,2
109920,115.100019,159,0.220833,66,F4#,64,2
110080,115.322241,159,0.220833,60,C4,64,2
110240,115.544463,159,0.220834,56,G3#,64,2
110400,115.766686,479,0.665278,73,C5#,64,1
110400,115.766686,159,0.220833,49,C3#,64,2
110560,115.988908,159,0.220833,56,G3#,64,2
110720,116.21113,159,0.220834,61,C4#,64,2
110880,116.433353,159,0.220833,65,F4,64,2
111040,116.655575,159,0.220833,61,C4#,64,2
111120,116.766686,239,0.331945,80,G5#,96,1
111200,116.877797,159,0.220834,56,G3#,96,2
111360,117.10002,959,1.331945,68,G4#,112,1
111360,117.10002,159,0.220833,44,G2#,112,2
111520,117.322242,159,0.220833,51,D3#,64,2
111680,117.544464,159,0.220834,56,G3#,64,2
111840,117.766687,159,0.220833,60,C4,64,2
112000,117.988909,159,0.220833,56,G3#,64,2
112160,118.211131,159,0.220834,51,D3#,64,2
112320,118.433354,59,0.081944,70,A4#,64,1
112320,118.433354,159,0.220833,44,G2#,64,2
112380,118.516687,59,0.081944,72,C5,64,1
112440,118.60002,239,0.331945,70,A4#,64,1
112480,118.655576,159,0.220833,51,D3#,64,2
112640,118.877798,159,0.220834,55,G3,64,2
112680,118.933354,119,0.165278,69,A4,64,1
112800,119.100021,359,0.498611,70,A4#,80,1
112800,119.100021,159,0.220833,61,C4#,80,2
112960,119.322243,159,0.220833,55,G3,80,2
113120,119.544465,159,0.220834,51,D3#,80,2
113160,119.600021,119,0.165278,72,C5,80,1
113280,119.766688,239,0.331944,68,G4#,96,1
113280,119.766688,159,0.220833,44,G2#,96,2
113440,119.98891,159,0.220833,51,D3#,96,2
113600,120.211132,159,0.220834,56,G3#,96,2
113760,120.433355,616,0.855555,84,C6,112,1
113760,120.433355,159,0.220833,60,C4,112,2
113920,120.655577,159,0.220833,56,G3#,64,2
114080,120.877799,159,0.220834,51,D3#,64,2
114240,121.100022,159,0.220833,49,C3#,64,2
114377,121.290299,136,0.188889,82,A5#,64,1
114400,121.322244,159,0.220833,56,G3#,64,2
114514,121.480577,136,0.188889,80,G5#,64,1
114560,121.544466,159,0.220834,61,C4#,64,2
114651,121.670855,136,0.188889,76,E5,64,1
114720,121.766689,159,0.220833,64,E4,64,2
114788,121.861133,136,0.188889,73,C5#,64,1
114880,121.988911,159,0.220833,61,C4#,64,2
114925,122.051411,205,0.284722,70,A4#,64,1
115040,122.211133,159,0.220834,56,G3#,64,2
115131,122.337522,68,0.094445,80,G5#,64,1
115200,122.433356,959,1.331945,63,D4#,49,1
115200,122.433356,159,0.220833,39,D2#,49,2
115360,122.655578,159,0.220833,51,D3#,49,2
115520,122.8778,159,0.220834,56,G3#,49,2
115680,123.100023,159,0.220833,60,C4,49,2
115840,123.322245,159,0.220833,56,G3#,49,2
116000,123.544467,159,0.220834,51,D3#,49,2
116160,123.76669,45,0.0625,72,C5,49,1
116160,123.76669,159,0.220833,39,D2#,49,2
116206,123.830578,312,0.433334,70,A4#,49,1
116320,123.988912,159,0.220833,51,D3#,49,2
116480,124.211134,159,0.220834,55,G3,49,2
116520,124.26669,119,0.165278,69,A4,49,1
116640,124.433357,359,0.498611,70,A4#,49,1
116640,124.433357,159,0.220833,61,C4#,49,2
116800,124.655579,159,0.220833,55,G3,49,2
116960,124.877801,159,0.220834,51,D3#,49,2
117000,124.933357,119,0.165278,75,D5#,49,1
117120,125.100024,479,0.665278,68,G4#,49,1
117120,125.100024,159,0.220833,44,G2#,49,2
117280,125.322246,159,0.220833,51,D3#,49,2
117440,125.544468,159,0.220834,56,G3#,49,2
117600,125.766691,159,0.220833,60,C4,49,2
117760,125.988913,159,0.220833,56,G3#,49,2
117920,126.211135,159,0.220834,51,D3#,49,2
118080,126.433358,479,0.665278,70,A4#,33,1
118080,126.433358,159,0.220833,42,F2#,33,2
118240,126.65558,159,0.220833,54,F3#,33,2
118400,126.877802,159,0.220834,58,A3#,33,2
118560,127.100025,159,0.220833,73,C5#,33,1
118560,127.100025,159,0.220833,61,C4#,33,2
118720,127.322247,159,0.220833,72,C5,33,1
118720,127.322247,159,0.220833,58,A3#,33,2
118880,127.544469,159,0.220834,70,A4#,33,1
118880,127.544469,159,0.220834,54,F3#,33,2
119040,127.766692,959,1.331945,68,G4#,33,1
119040,127.766692,159,0.220833,44,G2#,33,2
119200,127.988914,159,0.220833,56,G3#,33,2
119360,128.211136,159,0.220834,60,C4,33,2
119520,128.433359,159,0.220833,63,D4#,33,2
119680,128.655581,159,0.220833,60,C4,33,2
119840,128.877803,159,0.220834,56,G3#,33,2
120000,129.100026,59,0.081944,70,A4#,49,1
120000,129.100026,159,0.220833,51,D3#,49,2
120060,129.183359,59,0.081944,72,C5,49,1
120120,129.266692,119,0.165278,70,A4#,49,1
120160,129.322248,159,0.220833,56,G3#,49,2
120240,129.433359,239,0.331945,68,G4#,49,1
120320,129.54447,159,0.220834,60,C4,49,2
120480,129.766693,239,0.331944,73,C5#,49,1
120480,129.766693,159,0.220833,66,F4#,49,2
120640,129.988915,159,0.220833,60,C4,49,2
120720,130.100026,239,0.331945,75,D5#,49,1
120800,130.211137,159,0.220834,56,G3#,49,2
120960,130.43336,959,1.331945,77,F5,64,1
120960,130.43336,159,0.220833,49,C3#,64,2
121120,130.655582,159,0.220833,56,G3#,64,2
121280,130.877804,159,0.220834,61,C4#,64,2
121440,131.100027,159,0.220833,65,F4,64,2
121600,131.322249,159,0.220833,61,C4#,64,2
121760,131.544471,159,0.220834,56,G3#,64,2
121920,131.766694,959,1.331945,80,G5#,64,1
121920,131.766694,159,0.220833,49,C3#,64,2
122080,131.988916,159,0.220833,56,G3#,64,2
122240,132.211138,159,0.220834,65,F4,64,2
122400,132.433361,159,0.220833,68,G4#,64,2
122560,132.655583,159,0.220833,65,F4,64,2
122720,132.877805,159,0.220834,56,G3#,64,2
122880,133.100028,479,0.665278,78,F5#,64,1
122880,133.100028,159,0.220833,66,F4#,64,2
123040,133.32225,159,0.220833,63,D4#,64,2
123200,133.544472,159,0.220834,56,G3#,64,2
123360,133.766695,479,0.665278,77,F5,64,1
123360,133.766695,159,0.220833,65,F4,64,2
123520,133.988917,159,0.220833,61,C4#,64,2
123680,134.211139,159,0.220834,56,G3#,64,2
123840,134.433362,479,0.665278,75,D5#,64,1
123840,134.433362,159,0.220833,63,D4#,64,2
124000,134.655584,159,0.220833,60,C4,64,2
124160,134.877806,159,0.220834,56,G3#,64,2
124320,135.100029,29,0.040277,77,F5,64,1
124320,135.100029,159,0.220833,61,C4#,64,2
124350,135.141695,29,0.040278,75,D5#,64,1
124380,135.183362,29,0.040278,73,C5#,64,1
124410,135.225029,29,0.040277,75,D5#,64,1
124440,135.266695,119,0.165278,77,F5,64,1
124480,135.322251,159,0.220833,56,G3#,64,2
124560,135.433362,239,0.331945,73,C5#,64,1
124640,135.544473,159,0.220834,53,F3,64,2
124800,135.766696,959,1.331945,68,G4#,49,1
124800,135.766696,159,0.220833,44,G2#,49,2
124960,135.988918,159,0.220833,51,D3#,49,2
125120,136.21114,159,0.220834,56,G3#,49,2
125280,136.433363,159,0.220833,60,C4,49,2
125440,136.655585,159,0.220833,56,G3#,49,2
125600,136.877807,159,0.220834,51,D3#,49,2
125760,137.10003,1919,2.665279,70,A4#,49,1
125760,137.10003,159,0.220833,42,F2#,49,2
125920,137.322252,159,0.220833,54,F3#,49,2
126080,137.544474,159,0.220834,58,A3#,49,2
126240,137.766697,159,0.220833,61,C4#,49,2
126400,137.988919,159,0.220833,58,A3#,49,2
126560,138.211141,159,0.220834,54,F3#,49,2
126720,138.433364,159,0.220833,46,A2#,49,2
126880,138.655586,159,0.220833,53,F3,49,2
127040,138.877808,159,0.220834,58,A3#,49,2
127200,139.100031,159,0.220833,62,D4,49,2
127360,139.322253,159,0.220833,58,A3#,49,2
127520,139.544475,159,0.220834,53,F3,49,2
127680,139.766698,59,0.081944,71,B4,49,1
127680,139.766698,159,0.220833,46,A2#,49,2
127740,139.850031,59,0.081944,73,C5#,49,1
127800,139.933364,119,0.165278,71,B4,49,1
127840,139.98892,159,0.220833,58,A3#,49,2
127920,140.100031,239,0.331945,70,A4#,49,1
128000,140.211142,159,0.220834,62,D4,49,2
128160,140.433365,239,0.331944,75,D5#,49,1
128160,140.433365,159,0.220833,68,G4#,49,2
128320,140.655587,159,0.220833,62,D4,49,2
128400,140.766698,239,0.331945,77,F5,49,1
128480,140.877809,159,0.220834,58,A3#,49,2
128640,141.100032,479,0.665278,78,F5#,64,1
128640,141.100032,159,0.220833,51,D3#,64,2
128800,141.322254,159,0.220833,66,F4#,64,2
128960,141.544476,159,0.220834,58,A3#,64,2
129120,141.766699,479,0.665278,77,F5,64,1
129120,141.766699,159,0.220833,53,F3,64,2
129280,141.988921,159,0.220833,65,F4,64,2
129440,142.211143,159,0.220834,57,A3,64,2
129600,142.433366,479,0.665278,75,D5#,64,1
129600,142.433366,159,0.220833,54,F3#,64,2
129760,142.655588,159,0.220833,63,D4#,64,2
129920,142.87781,159,0.220834,58,A3#,64,2
130080,143.100033,479,0.665278,77,F5,64,1
130080,143.100033,159,0.220833,56,G3#,64,2
130240,143.322255,159,0.220833,66,F4#,64,2
130400,143.544477,159,0.220834,60,C4,64,2
130560,143.7667,959,1.331945,73,C5#,64,1
130560,143.7667,159,0.220833,49,C3#,64,2
130720,143.988922,159,0.220833,56,G3#,64,2
130880,144.211144,159,0.220834,61,C4#,64,2
131040,144.433367,159,0.220833,65,F4,64,2
131200,144.655589,159,0.220833,61,C4#,64,2
131360,144.877811,159,0.220834,56,G3#,64,2
131520,145.100034,59,0.081944,72,C5,64,1
131520,145.100034,159,0.220833,49,C3#,64,2
131580,145.183367,59,0.081944,73,C5#,64,1
131640,145.2667,59,0.081945,75,D5#,64,1
131680,145.322256,159,0.220833,56,G3#,64,2
131700,145.350034,59,0.081944,73,C5#,64,1
131760,145.433367,479,0.665278,77,F5,64,1
131840,145.544478,159,0.220834,60,C4,64,2
132000,145.766701,159,0.220833,66,F4#,64,2
132160,145.988923,159,0.220833,60,C4,64,2
132240,146.100034,239,0.331945,75,D5#,64,1
132320,146.211145,159,0.220834,56,G3#,64,2
132480,146.433368,959,1.331945,75,D5#,49,1
132480,146.433368,159,0.220833,49,C3#,49,2
132640,146.65559,159,0.220833,56,G3#,49,2
132800,146.877812,159,0.220834,60,C4,49,2
132960,147.100035,159,0.220833,66,F4#,49,2
133120,147.322257,159,0.220833,60,C4,49,2
133280,147.544479,159,0.220834,56,G3#,49,2
133440,147.766702,479,0.665278,73,C5#,64,1
133440,147.766702,159,0.220833,49,C3#,64,2
133600,147.988924,159,0.220833,56,G3#,64,2
133760,148.211146,159,0.220834,61,C4#,64,2
133920,148.433369,159,0.220833,65,F4,80,2
134080,148.655591,159,0.220833,61,C4#,80,2
134160,148.766702,239,0.331945,80,G5#,80,1
134240,148.877813,159,0.220834,56,G3#,80,2
134400,149.100036,959,1.331945,68,G4#,112,1
134400,149.100036,159,0.220833,44,G2#,112,2
134560,149.322258,159,0.220833,51,D3#,64,2
134720,149.54448,159,0.220834,56,G3#,64,2
134880,149.766703,159,0.220833,60,C4,64,2
135040,149.988925,159,0.220833,56,G3#,64,2
135200,150.211147,159,0.220834,51,D3#,64,2
135360,150.43337,59,0.081944,70,A4#,80,1
135360,150.43337,159,0.220833,44,G2#,80,2
135420,150.516703,59,0.081944,72,C5,80,1
135480,150.600036,239,0.331945,70,A4#,80,1
135520,150.655592,159,0.220833,51,D3#,80,2
135680,150.877814,159,0.220834,55,G3,80,2
135720,150.93337,119,0.165278,69,A4,80,1
135840,151.100037,359,0.498611,70,A4#,80,1
135840,151.100037,159,0.220833,61,C4#,80,2
136000,151.322259,159,0.220833,55,G3,80,2
136160,151.544481,159,0.220834,51,D3#,80,2
136200,151.600037,119,0.165278,72,C5,80,1
136320,151.766704,239,0.331944,68,G4#,96,1
136320,151.766704,159,0.220833,44,G2#,96,2
136480,151.988926,159,0.220833,51,D3#,96,2
136640,152.211148,159,0.220834,56,G3#,96,2
136800,152.433371,548,0.761111,96,C7,112,1
136800,152.433371,159,0.220833,60,C4,112,2
136960,152.655593,159,0.220833,56,G3#,112,2
137120,152.877815,159,0.220834,51,D3#,112,2
137280,153.100038,159,0.220833,49,C3#,112,2
137349,153.195871,68,0.094444,94,A6#,64,1
137417,153.290315,68,0.094445,92,G6#,64,1
137440,153.32226,159,0.220833,56,G3#,64,2
137486,153.386149,68,0.094444,88,E6,64,1
137554,153.480593,68,0.094445,87,D6#,64,1
137600,153.544482,159,0.220834,61,C4#,64,2
137623,153.576427,68,0.094444,85,C6#,64,1
137691,153.670871,68,0.094445,81,A5,64,1
137760,153.766705,68,0.094444,84,C6,64,1
137760,153.766705,159,0.220833,64,E4,64,2
137828,153.861149,68,0.094444,82,A5#,64,1
137897,153.956982,68,0.094445,80,G5#,64,1
137920,153.988927,159,0.220833,61,C4#,64,2
137965,154.051427,68,0.094444,76,E5,64,1
138034,154.14726,68,0.094445,73,C5#,64,1
138080,154.211149,159,0.220834,56,G3#,64,2
138102,154.241705,33,0.045833,70,A4#,64,1
138205,154.38476,33,0.045834,80,G5#,64,1
138240,154.433372,959,1.331945,63,D4#,64,1
138240,154.433372,159,0.220833,39,D2#,64,2
138400,154.655594,159,0.220833,51,D3#,64,2
138560,154.877816,159,0.220834,56,G3#,64,2
138720,155.100039,159,0.220833,60,C4,64,2
138880,155.322261,159,0.220833,56,G3#,64,2
139040,155.544483,159,0.220834,51,D3#,64,2
139200,155.766706,45,0.0625,72,C5,64,1
139200,155.766706,159,0.220833,39,D2#,64,2
139246,155.830594,312,0.433334,70,A4#,64,1
139360,155.988928,159,0.220833,51,D3#,64,2
139520,156.21115,159,0.220834,55,G3,64,2
139560,156.266706,119,0.165278,69,A4,64,1
139680,156.433373,359,0.498611,70,A4#,80,1
139680,156.433373,159,0.220833,61,C4#,80,2
139840,156.655595,159,0.220833,55,G3,80,2
140000,156.877817,159,0.220834,51,D3#,80,2
140040,156.933373,119,0.165278,75,D5#,80,1
140160,157.10004,479,0.665278,68,G4#,96,1
140160,157.10004,159,0.220833,44,G2#,96,2
140320,157.322262,159,0.220833,51,D3#,96,2
140480,157.544484,159,0.220834,56,G3#,96,2
140640,157.766707,159,0.220833,60,C4,96,2
140800,157.988929,159,0.220833,56,G3#,96,2
140960,158.211151,159,0.220834,51,D3#,96,2
141120,158.433374,479,0.665278,70,A4#,33,1
141120,158.433374,159,0.220833,42,F2#,33,2
141280,158.655596,159,0.220833,54,F3#,33,2
141440,158.877818,159,0.220834,58,A3#,33,2
141600,159.100041,159,0.220833,73,C5#,33,1
141600,159.100041,159,0.220833,61,C4#,33,2
141760,159.322263,159,0.220833,72,C5,33,1
141760,159.322263,159,0.220833,58,A3#,33,2
141920,159.544485,159,0.220834,70,A4#,33,1
141920,159.544485,159,0.220834,54,F3#,33,2
142080,159.766708,959,1.331945,68,G4#,33,1
142080,159.766708,159,0.220833,44,G2#,33,2
142240,159.98893,159,0.220833,51,D3#,33,2
142400,160.211152,159,0.220834,56,G3#,33,2
142560,160.433375,159,0.220833,60,C4,33,2
142720,160.655597,159,0.220833,56,G3#,33,2
142880,160.877819,159,0.220834,51,D3#,33,2
143040,161.100042,59,0.081944,70,A4#,33,1
143040,161.100042,159,0.220833,44,G2#,33,2
143100,161.183375,59,0.081944,72,C5,49,1
143160,161.266708,119,0.165278,70,A4#,49,1
143200,161.322264,159,0.220833,56,G3#,49,2
143280,161.433375,239,0.331945,68,G4#,49,1
143360,161.544486,159,0.220834,60,C4,49,2
143520,161.766709,239,0.331944,73,C5#,49,1
143520,161.766709,159,0.220833,66,F4#,49,2
143680,161.988931,159,0.220833,60,C4,49,2
143760,162.100042,239,0.331945,75,D5#,49,1
143840,162.211153,159,0.220834,56,G3#,49,2
144000,162.433376,959,1.331945,77,F5,80,1
144000,162.433376,159,0.220833,49,C3#,80,2
144160,162.655598,159,0.220833,56,G3#,80,2
144320,162.87782,159,0.220834,61,C4#,80,2
144480,163.100043,159,0.220833,65,F4,80,2
144640,163.322265,159,0.220833,61,C4#,80,2
144800,163.544487,159,0.220834,56,G3#,80,2
144960,163.76671,959,1.331945,80,G5#,80,1
144960,163.76671,159,0.220833,49,C3#,80,2
145120,163.988932,159,0.220833,56,G3#,80,2
145280,164.211154,159,0.220834,65,F4,80,2
145440,164.433377,159,0.220833,68,G4#,80,2
145600,164.655599,159,0.220833,65,F4,80,2
145760,164.877821,159,0.220834,56,G3#,80,2
145920,165.100044,479,0.665278,78,F5#,80,1
145920,165.100044,159,0.220833,66,F4#,80,2
146080,165.322266,159,0.220833,63,D4#,80,2
146240,165.544488,159,0.220834,56,G3#,80,2
146400,165.766711,479,0.665278,77,F5,80,1
146400,165.766711,159,0.220833,65,F4,80,2
146560,165.988933,159,0.220833,61,C4#,80,2
146720,166.211155,159,0.220834,56,G3#,80,2
146880,166.433378,479,0.665278,75,D5#,80,1
146880,166.433378,159,0.220833,63,D4#,80,2
147040,166.6556,159,0.220833,60,C4,80,2
147200,166.877822,159,0.220834,56,G3#,80,2
147360,167.100045,29,0.040277,77,F5,80,1
147360,167.100045,159,0.220833,61,C4#,80,2
147390,167.141711,29,0.040278,75,D5#,80,1
147420,167.183378,29,0.040278,73,C5#,80,1
147450,167.225045,29,0.040277,75,D5#,80,1
147480,167.266711,119,0.165278,77,F5,80,1
147520,167.322267,159,0.220833,56,G3#,80,2
147600,167.433378,239,0.331945,73,C5#,80,1
147680,167.544489,159,0.220834,53,F3,80,2
147840,167.766712,959,1.331945,68,G4#,64,1
147840,167.766712,159,0.220833,44,G2#,64,2
148000,167.988934,159,0.220833,51,D3#,64,2
148160,168.211156,159,0.220834,56,G3#,64,2
148320,168.433379,159,0.220833,60,C4,64,2
148480,168.655601,159,0.220833,56,G3#,64,2
148640,168.877823,159,0.220834,51,D3#,64,2
148800,169.100046,1919,2.665279,70,A4#,64,1
148800,169.100046,159,0.220833,42,F2#,64,2
148960,169.322268,159,0.220833,54,F3#,64,2
149120,169.54449,159,0.220834,58,A3#,64,2
149280,169.766713,159,0.220833,61,C4#,64,2
149440,169.988935,159,0.220833,58,A3#,64,2
149600,170.211157,159,0.220834,54,F3#,64,2
149760,170.43338,159,0.220833,46,A2#,64,2
149920,170.655602,159,0.220833,53,F3,64,2
150080,170.877824,159,0.220834,58,A3#,64,2
150240,171.100047,159,0.220833,62,D4,64,2
150400,171.322269,159,0.220833,58,A3#,64,2
150560,171.544491,159,0.220834,53,F3,64,2
150720,171.766714,59,0.081944,71,B4,64,1
150720,171.766714,159,0.220833,46,A2#,64,2
150780,171.850047,59,0.081944,73,C5#,64,1
150840,171.93338,119,0.165278,71,B4,64,1
150880,171.988936,159,0.220833,58,A3#,64,2
150960,172.100047,239,0.331945,70,A4#,64,1
151040,172.211158,159,0.220834,62,D4,64,2
151200,172.433381,239,0.331944,75,D5#,64,1
151200,172.433381,159,0.220833,68,G4#,64,2
151360,172.655603,159,0.220833,62,D4,64,2
151440,172.766714,239,0.331945,77,F5,64,1
151520,172.877825,159,0.220834,58,A3#,64,2
151680,173.100048,479,0.665278,78,F5#,80,1
151680,173.100048,159,0.220833,51,D3#,80,2
151840,173.32227,159,0.220833,66,F4#,80,2
152000,173.544492,159,0.220834,58,A3#,80,2
152160,173.766715,479,0.665278,77,F5,80,1
152160,173.766715,159,0.220833,53,F3,80,2
152320,173.988937,159,0.220833,65,F4,80,2
152480,174.211159,159,0.220834,57,A3,80,2
152640,174.433382,479,0.665278,75,D5#,64,1
152640,174.433382,159,0.220833,54,F3#,64,2
152800,174.655604,159,0.220833,63,D4#,64,2
152960,174.877826,159,0.220834,58,A3#,64,2
153120,175.100049,479,0.665278,77,F5,49,1
153120,175.100049,159,0.220833,56,G3#,49,2
153280,175.322271,159,0.220833,66,F4#,49,2
153440,175.544493,159,0.220834,60,C4,49,2
153600,175.766716,959,1.331945,73,C5#,33,1
153600,175.766716,159,0.220833,49,C3#,33,2
153760,175.988938,159,0.220833,56,G3#,33,2
153920,176.21116,159,0.220834,61,C4#,33,2
154080,176.433383,159,0.220833,65,F4,33,2
154240,176.655605,159,0.220833,61,C4#,33,2
154400,176.877827,159,0.220834,56,G3#,33,2
154560,177.10005,59,0.081944,72,C5,33,1
154560,177.10005,159,0.220833,49,C3#,33,2
154620,177.183383,59,0.081944,73,C5#,33,1
154680,177.266716,59,0.081945,75,D5#,33,1
154720,177.322272,159,0.220833,56,G3#,33,2
154740,177.35005,59,0.081944,73,C5#,33,1
154800,177.433383,479,0.665278,77,F5,33,1
154880,177.544494,159,0.220834,60,C4,33,2
155040,177.766717,159,0.220833,66,F4#,33,2
155200,177.988939,159,0.220833,60,C4,33,2
155280,178.10005,239,0.331945,75,D5#,33,1
155360,178.211161,159,0.220834,56,G3#,33,2
155520,178.433384,1919,3.331595,75,D5#,33,1
155520,178.433384,159,0.276041,49,C3#,33,2
155680,178.711161,159,0.276042,56,G3#,33,2
155840,178.988939,159,0.276041,60,C4,33,2
156000,179.266717,159,0.276041,66,F4#,33,2
156160,179.544494,159,0.276042,60,C4,33,2
156320,179.822272,159,0.276041,56,G3#,33,2
156480,180.10005,159,0.276041,49,C3#,33,2
156640,180.377827,159,0.276042,56,G3#,33,2
156800,180.655605,159,0.276041,60,C4,33,2
156960,180.933383,159,0.276041,66,F4#,33,2
157120,181.21116,159,0.276042,60,C4,33,2
157280,181.488938,159,0.276041,56,G3#,33,2
157440,181.766716,159,0.1325,49,C3#,49,2
157560,181.866716,119,0.099166,68,G4#,49,1
157600,181.900049,159,0.1325,56,G3#,49,2
157680,181.966716,119,0.099166,69,A4,49,1
157760,182.033382,159,0.1325,61,C4#,49,2
157800,182.066716,119,0.099166,68,G4#,49,1
157920,182.166716,119,0.099166,67,G4,49,1
157920,182.166716,159,0.1325,64,E4,49,2
158040,182.266716,119,0.099166,68,G4#,49,1
158080,182.300049,159,0.1325,61,C4#,49,2
158160,182.366716,119,0.099166,73,C5#,49,1
158240,182.433382,159,0.1325,56,G3#,49,2
158280,182.466716,119,0.099166,76,E5,49,1
158400,182.566716,119,0.099166,75,D5#,49,1
158400,182.566716,159,0.1325,52,E3,49,2
158520,182.666716,119,0.099166,73,C5#,49,1
158560,182.700049,159,0.1325,56,G3#,49,2
158640,182.766716,119,0.099166,75,D5#,49,1
158720,182.833382,159,0.1325,61,C4#,49,2
158760,182.866716,119,0.099166,73,C5#,49,1
158880,182.966716,119,0.099166,72,C5,49,1
158880,182.966716,159,0.1325,64,E4,49,2
159000,183.066716,119,0.099166,73,C5#,49,1
159040,183.100049,159,0.1325,61,C4#,49,2
159120,183.166716,119,0.099166,76,E5,49,1
159200,183.233382,159,0.1325,56,G3#,49,2
159240,183.266716,119,0.099166,80,G5#,49,1
159360,183.366716,159,0.1325,49,C3#,49,2
159480,183.466716,119,0.099166,68,G4#,49,1
159520,183.500049,159,0.1325,56,G3#,49,2
159600,183.566716,119,0.099166,69,A4,49,1
159680,183.633382,159,0.1325,61,C4#,49,2
159720,183.666716,119,0.099166,68,G4#,49,1
159840,183.766716,119,0.099166,67,G4,49,1
159840,183.766716,159,0.1325,64,E4,49,2
159960,183.866716,119,0.099166,68,G4#,49,1
160000,183.900049,159,0.1325,61,C4#,49,2
160080,183.966716,119,0.099166,73,C5#,49,1
160160,184.033382,159,0.1325,56,G3#,49,2
160200,184.066716,119,0.099166,76,E5,49,1
160320,184.166716,119,0.099166,75,D5#,49,1
160320,184.166716,159,0.1325,52,E3,49,2
160440,184.266716,119,0.099166,73,C5#,49,1
160480,184.300049,159,0.1325,56,G3#,49,2
160560,184.366716,119,0.099166,75,D5#,49,1
160640,184.433382,159,0.1325,61,C4#,49,2
160680,184.466716,119,0.099166,73,C5#,49,1
160800,184.566716,119,0.099166,72,C5,49,1
160800,184.566716,159,0.1325,64,E4,49,2
160920,184.666716,119,0.099166,73,C5#,49,1
160960,184.700049,159,0.1325,61,C4#,49,2
161040,184.766716,119,0.099166,76,E5,49,1
161120,184.833382,159,0.1325,56,G3#,49,2
161160,184.866716,119,0.099166,80,G5#,49,1
161280,184.966716,159,0.1325,51,D3#,49,2
161400,185.066716,119,0.099166,69,A4,49,1
161440,185.100049,159,0.1325,57,A3,49,2
161520,185.166716,119,0.099166,73,C5#,49,1
161600,185.233382,159,0.1325,61,C4#,49,2
161640,185.266716,119,0.099166,75,D5#,49,1
161760,185.366716,119,0.099166,78,F5#,49,1
161760,185.366716,159,0.1325,66,F4#,49,2
161880,185.466716,119,0.099166,81,A5,49,1
161920,185.500049,159,0.1325,61,C4#,49,2
162000,185.566716,119,0.099166,85,C6#,49,1
162080,185.633382,159,0.1325,57,A3,49,2
162120,185.666716,119,0.099166,87,D6#,49,1
162240,185.766716,119,0.099166,95,B6,49,1
162240,185.766716,159,0.1325,54,F3#,49,2
162360,185.866716,119,0.099166,93,A6,49,1
162400,185.900049,159,0.1325,61,C4#,49,2
162480,185.966716,119,0.099166,92,G6#,49,1
162560,186.033382,159,0.1325,63,D4#,49,2
162600,186.066716,119,0.099166,90,F6#,49,1
162720,186.166716,119,0.099166,88,E6,64,1
162720,186.166716,159,0.1325,69,A4,64,2
162840,186.266716,119,0.099166,87,D6#,64,1
162880,186.300049,159,0.1325,63,D4#,64,2
162960,186.366716,119,0.099166,90,F6#,64,1
163040,186.433382,159,0.1325,61,C4#,64,2
163080,186.466716,119,0.099166,85,C6#,64,1
163200,186.566716,119,0.099166,84,C6,64,1
163200,186.566716,159,0.1325,42,F2#,64,2
163320,186.666716,119,0.099166,87,D6#,64,1
163360,186.700049,159,0.1325,51,D3#,64,2
163440,186.766716,119,0.099166,81,A5,64,1
163520,186.833382,159,0.1325,54,F3#,64,2
163560,186.866716,119,0.099166,80,G5#,64,1
163680,186.966716,119,0.099166,78,F5#,64,1
163680,186.966716,159,0.1325,60,C4,64,2
163800,187.066716,119,0.099166,81,A5,64,1
163840,187.100049,159,0.1325,54,F3#,64,2
163920,187.166716,119,0.099166,76,E5,64,1
164000,187.233382,159,0.1325,51,D3#,64,2
164040,187.266716,119,0.099166,75,D5#,64,1
164160,187.366716,119,0.099166,78,F5#,64,1
164160,187.366716,159,0.1325,44,G2#,64,2
164280,187.466716,119,0.099166,73,C5#,64,1
164320,187.500049,159,0.1325,51,D3#,64,2
164400,187.566716,119,0.099166,72,C5,64,1
164480,187.633382,159,0.1325,54,F3#,64,2
164520,187.666716,119,0.099166,75,D5#,64,1
164640,187.766716,119,0.099166,69,A4,64,1
164640,187.766716,159,0.1325,60,C4,64,2
164760,187.866716,119,0.099166,68,G4#,64,1
164800,187.900049,159,0.1325,54,F3#,64,2
164880,187.966716,119,0.099166,71,B4,64,1
164960,188.033382,159,0.1325,51,D3#,64,2
165000,188.066716,239,0.199166,69,A4,64,1
165120,188.166716,159,0.1325,49,C3#,49,2
165240,188.266716,119,0.099166,68,G4#,49,1
165280,188.300049,159,0.1325,56,G3#,49,2
165360,188.366716,119,0.099166,69,A4,49,1
165440,188.433382,159,0.1325,61,C4#,49,2
165480,188.466716,119,0.099166,68,G4#,49,1
165600,188.566716,119,0.099166,67,G4,49,1
165600,188.566716,159,0.1325,64,E4,49,2
165720,188.666716,119,0.099166,68,G4#,49,1
165760,188.700049,159,0.1325,61,C4#,49,2
165840,188.766716,119,0.099166,73,C5#,49,1
165920,188.833382,159,0.1325,56,G3#,49,2
165960,188.866716,119,0.099166,76,E5,49,1
166080,188.966716,119,0.099166,75,D5#,49,1
166080,188.966716,159,0.1325,52,E3,49,2
166200,189.066716,119,0.099166,73,C5#,49,1
166240,189.100049,159,0.1325,56,G3#,49,2
166320,189.166716,119,0.099166,75,D5#,49,1
166400,189.233382,159,0.1325,61,C4#,49,2
166440,189.266716,119,0.099166,73,C5#,49,1
166560,189.366716,119,0.099166,72,C5,49,1
166560,189.366716,159,0.1325,64,E4,49,2
166680,189.466716,119,0.099166,73,C5#,49,1
166720,189.500049,159,0.1325,61,C4#,49,2
166800,189.566716,119,0.099166,76,E5,49,1
166880,189.633382,159,0.1325,56,G3#,49,2
166920,189.666716,119,0.099166,80,G5#,49,1
167040,189.766716,159,0.1325,49,C3#,49,2
167160,189.866716,119,0.099166,68,G4#,49,1
167200,189.900049,159,0.1325,56,G3#,49,2
167280,189.966716,119,0.099166,70,A4#,49,1
167360,190.033382,159,0.1325,58,A3#,49,2
167400,190.066716,119,0.099166,68,G4#,49,1
167520,190.166716,119,0.099166,67,G4,49,1
167520,190.166716,159,0.1325,64,E4,49,2
167640,190.266716,119,0.099166,68,G4#,49,1
167680,190.300049,159,0.1325,58,A3#,49,2
167760,190.366716,119,0.099166,73,C5#,49,1
167840,190.433382,159,0.1325,56,G3#,49,2
167880,190.466716,119,0.099166,76,E5,49,1
168000,190.566716,119,0.099166,75,D5#,49,1
168000,190.566716,159,0.1325,52,E3,49,2
168120,190.666716,119,0.099166,73,C5#,49,1
168160,190.700049,159,0.1325,56,G3#,49,2
168240,190.766716,119,0.099166,75,D5#,49,1
168320,190.833382,159,0.1325,58,A3#,49,2
168360,190.866716,119,0.099166,73,C5#,49,1
168480,190.966716,119,0.099166,72,C5,49,1
168480,190.966716,159,0.1325,61,C4#,49,2
168600,191.066716,119,0.099166,73,C5#,49,1
168640,191.100049,159,0.1325,58,A3#,49,2
168720,191.166716,119,0.099166,76,E5,49,1
168800,191.233382,159,0.1325,56,G3#,49,2
168840,191.266716,119,0.099166,80,G5#,49,1
168960,191.366716,119,0.099166,75,D5#,64,1
168960,191.366716,159,0.1325,51,D3#,64,2
169080,191.466716,119,0.099166,76,E5,64,1
169120,191.500049,159,0.1325,56,G3#,64,2
169200,191.566716,119,0.099166,75,D5#,64,1
169280,191.633382,159,0.1325,59,B3,64,2
169320,191.666716,119,0.099166,74,D5,64,1
169440,191.766716,119,0.099166,75,D5#,64,1
169440,191.766716,159,0.1325,63,D4#,64,2
169560,191.866716,119,0.099166,83,B5,64,1
169600,191.900049,159,0.1325,59,B3,64,2
169680,191.966716,119,0.099166,82,A5#,64,1
169760,192.033382,159,0.1325,56,G3#,64,2
169800,192.066716,119,0.099166,80,G5#,64,1
169920,192.166716,119,0.099166,79,G5,64,1
169920,192.166716,159,0.1325,51,D3#,64,2
170040,192.266716,119,0.099166,88,E6,64,1
170080,192.300049,159,0.1325,58,A3#,64,2
170160,192.366716,119,0.099166,87,D6#,64,1
170240,192.433382,159,0.1325,61,C4#,64,2
170280,192.466716,119,0.099166,85,C6#,64,1
170400,192.566716,119,0.099166,83,B5,64,1
170400,192.566716,159,0.1325,67,G4,64,2
170520,192.666716,119,0.099166,82,A5#,64,1
170560,192.700049,159,0.1325,61,C4#,64,2
170640,192.766716,119,0.099166,80,G5#,64,1
170720,192.833382,159,0.1325,58,A3#,64,2
170760,192.866716,119,0.099166,79,G5,64,1
170880,192.966716,119,0.099166,82,A5#,80,1
170880,192.966716,159,0.1325,44,G2#,80,2
171000,193.066716,119,0.099166,80,G5#,80,1
171040,193.100049,159,0.1325,51,D3#,80,2
171120,193.166716,119,0.099166,83,B5,80,1
171200,193.233382,159,0.1325,56,G3#,80,2
171240,193.266716,119,0.099166,74,D5,80,1
171360,193.366716,119,0.099166,76,E5,80,1
171360,193.366716,159,0.1325,59,B3,80,2
171480,193.466716,119,0.099166,75,D5#,80,1
171520,193.500049,159,0.1325,56,G3#,80,2
171600,193.566716,119,0.099166,80,G5#,80,1
171680,193.633382,159,0.1325,51,D3#,80,2
171720,193.666716,119,0.099166,70,A4#,80,1
171840,193.766716,119,0.099166,73,C5#,80,1
171840,193.766716,159,0.1325,44,G2#,80,2
171960,193.866716,119,0.099166,71,B4,80,1
172000,193.900049,159,0.1325,51,D3#,80,2
172080,193.966716,119,0.099166,75,D5#,80,1
172160,194.033382,159,0.1325,56,G3#,80,2
172200,194.066716,119,0.099166,67,G4,80,1
172320,194.166716,119,0.099166,69,A4,80,1
172320,194.166716,159,0.1325,59,B3,80,2
172440,194.266716,119,0.099166,68,G4#,80,1
172480,194.300049,159,0.1325,56,G3#,80,2
172560,194.366716,119,0.099166,67,G4,80,1
172640,194.433382,159,0.1325,51,D3#,80,2
172680,194.466716,119,0.099166,68,G4#,80,1
172800,194.566716,119,0.099166,68,G4#,96,1
172800,194.566716,159,0.1325,45,A2,96,2
172920,194.666716,119,0.099166,80,G5#,96,1
172960,194.700049,159,0.1325,49,C3#,96,2
173040,194.766716,119,0.099166,72,C5,96,1
173120,194.833382,159,0.1325,54,F3#,96,2
173160,194.866716,119,0.099166,73,C5#,96,1
173280,194.966716,119,0.099166,66,F4#,96,1
173280,194.966716,159,0.1325,57,A3,96,2
173400,195.066716,119,0.099166,78,F5#,96,1
173440,195.100049,159,0.1325,54,F3#,96,2
173520,195.166716,119,0.099166,72,C5,96,1
173600,195.233382,159,0.1325,49,C3#,96,2
173640,195.266716,119,0.099166,73,C5#,96,1
173760,195.366716,119,0.099166,65,F4,96,1
173760,195.366716,159,0.1325,45,A2,96,2
173880,195.466716,119,0.099166,77,F5,96,1
173920,195.500049,159,0.1325,49,C3#,96,2
174000,195.566716,119,0.099166,72,C5,96,1
174080,195.633382,159,0.1325,54,F3#,96,2
174120,195.666716,119,0.099166,73,C5#,96,1
174240,195.766716,119,0.099166,66,F4#,96,1
174240,195.766716,159,0.1325,57,A3,96,2
174360,195.866716,119,0.099166,78,F5#,96,1
174400,195.900049,159,0.1325,54,F3#,96,2
174480,195.966716,119,0.099166,72,C5,96,1
174560,196.033382,159,0.1325,49,C3#,96,2
174600,196.066716,119,0.099166,73,C5#,96,1
174720,196.166716,119,0.099166,61,C4#,96,1
174720,196.166716,159,0.1325,47,B2,96,2
174840,196.266716,119,0.099166,73,C5#,96,1
174880,196.300049,159,0.1325,54,F3#,96,2
174960,196.366716,119,0.099166,66,F4#,96,1
175040,196.433382,159,0.1325,57,A3,96,2
175080,196.466716,119,0.099166,69,A4,96,1
175200,196.566716,119,0.099166,63,D4#,96,1
175200,196.566716,159,0.1325,59,B3,96,2
175320,196.666716,119,0.099166,75,D5#,96,1
175360,196.700049,159,0.1325,57,A3,96,2
175440,196.766716,119,0.099166,66,F4#,96,1
175520,196.833382,159,0.1325,54,F3#,96,2
175560,196.866716,119,0.099166,69,A4,96,1
175680,196.966716,119,0.099166,64,E4,96,1
175680,196.966716,159,0.1325,40,E2,96,2
175800,197.066716,119,0.099166,76,E5,96,1
175840,197.100049,159,0.1325,47,B2,96,2
175920,197.166716,119,0.099166,68,G4#,96,1
176000,197.233382,159,0.1325,52,E3,96,2
176040,197.266716,119,0.099166,71,B4,96,1
176160,197.366716,119,0.099166,68,G4#,96,1
176160,197.366716,159,0.1325,56,G3#,96,2
176280,197.466716,119,0.099166,80,G5#,96,1
176320,197.500049,159,0.1325,52,E3,96,2
176400,197.566716,119,0.099166,71,B4,96,1
176480,197.633382,159,0.1325,47,B2,96,2
176520,197.666716,119,0.099166,76,E5,96,1
176640,197.766716,119,0.099166,68,G4#,96,1
176640,197.766716,159,0.1325,45,A2,96,2
176760,197.866716,119,0.099166,80,G5#,96,1
176800,197.900049,159,0.1325,49,C3#,96,2
176880,197.966716,119,0.099166,72,C5,96,1
176960,198.033382,159,0.1325,54,F3#,96,2
177000,198.066716,119,0.099166,73,C5#,96,1
177120,198.166716,119,0.099166,66,F4#,96,1
177120,198.166716,159,0.1325,57,A3,96,2
177240,198.266716,119,0.099166,78,F5#,96,1
177280,198.300049,159,0.1325,54,F3#,96,2
177360,198.366716,119,0.099166,72,C5,96,1
177440,198.433382,159,0.1325,49,C3#,96,2
177480,198.466716,119,0.099166,73,C5#,96,1
177600,198.566716,119,0.099166,65,F4,96,1
177600,198.566716,159,0.1325,45,A2,96,2
177720,198.666716,119,0.099166,77,F5,96,1
177760,198.700049,159,0.1325,49,C3#,96,2
177840,198.766716,119,0.099166,72,C5,96,1
177920,198.833382,159,0.1325,54,F3#,96,2
177960,198.866716,119,0.099166,73,C5#,96,1
178080,198.966716,119,0.099166,66,F4#,96,1
178080,198.966716,159,0.1325,57,A3,96,2
178200,199.066716,119,0.099166,78,F5#,96,1
178240,199.100049,159,0.1325,54,F3#,96,2
178320,199.166716,119,0.099166,72,C5,96,1
178400,199.233382,159,0.1325,49,C3#,96,2
178440,199.266716,119,0.099166,73,C5#,96,1
178560,199.366716,119,0.099166,65,F4,96,1
178560,199.366716,159,0.1325,47,B2,96,2
178680,199.466716,119,0.099166,77,F5,96,1
178720,199.500049,159,0.1325,51,D3#,96,2
178800,199.566716,119,0.099166,71,B4,96,1
178880,199.633382,159,0.1325,57,A3,96,2
178920,199.666716,119,0.099166,75,D5#,96,1
179040,199.766716,119,0.099166,66,F4#,96,1
179040,199.766716,159,0.1325,59,B3,96,2
179160,199.866716,119,0.099166,78,F5#,96,1
179200,199.900049,159,0.1325,57,A3,96,2
179280,199.966716,119,0.099166,71,B4,96,1
179360,200.033382,159,0.1325,51,D3#,96,2
179400,200.066716,119,0.099166,75,D5#,96,1
179520,200.166716,119,0.099166,69,A4,96,1
179520,200.166716,159,0.1325,40,E2,96,2
179640,200.266716,119,0.099166,81,A5,96,1
179680,200.300049,159,0.1325,47,B2,96,2
179760,200.366716,119,0.099166,71,B4,96,1
179840,200.433382,159,0.1325,52,E3,96,2
179880,200.466716,119,0.099166,76,E5,96,1
180000,200.566716,119,0.099166,68,G4#,96,1
180000,200.566716,159,0.1325,56,G3#,96,2
180120,200.666716,119,0.099166,80,G5#,96,1
180160,200.700049,159,0.1325,52,E3,96,2
180240,200.766716,119,0.099166,69,A4,96,1
180320,200.833382,159,0.1325,47,B2,96,2
180360,200.866716,119,0.099166,76,E5,96,1
180480,200.966716,119,0.099166,68,G4#,49,1
180480,200.966716,159,0.1325,45,A2,49,2
180600,201.066716,119,0.099166,80,G5#,49,1
180640,201.100049,159,0.1325,49,C3#,49,2
180720,201.166716,119,0.099166,72,C5,49,1
180800,201.233382,159,0.1325,54,F3#,49,2
180840,201.266716,119,0.099166,73,C5#,49,1
180960,201.366716,119,0.099166,66,F4#,49,1
180960,201.366716,159,0.1325,57,A3,49,2
181080,201.466716,119,0.099166,78,F5#,49,1
181120,201.500049,159,0.1325,54,F3#,49,2
181200,201.566716,119,0.099166,72,C5,49,1
181280,201.633382,159,0.1325,49,C3#,49,2
181320,201.666716,119,0.099166,73,C5#,49,1
181440,201.766716,119,0.099166,65,F4,49,1
181440,201.766716,159,0.1325,45,A2,49,2
181560,201.866716,119,0.099166,77,F5,49,1
181600,201.900049,159,0.1325,49,C3#,49,2
181680,201.966716,119,0.099166,72,C5,49,1
181760,202.033382,159,0.1325,54,F3#,49,2
181800,202.066716,119,0.099166,73,C5#,49,1
181920,202.166716,119,0.099166,66,F4#,49,1
181920,202.166716,159,0.1325,57,A3,49,2
182040,202.266716,119,0.099166,78,F5#,49,1
182080,202.300049,159,0.1325,54,F3#,49,2
182160,202.366716,119,0.099166,72,C5,49,1
182240,202.433382,159,0.1325,49,C3#,49,2
182280,202.466716,119,0.099166,73,C5#,49,1
182400,202.566716,119,0.099166,61,C4#,49,1
182400,202.566716,159,0.1325,47,B2,49,2
182520,202.666716,119,0.099166,73,C5#,49,1
182560,202.700049,159,0.1325,51,D3#,49,2
182640,202.766716,119,0.099166,66,F4#,49,1
182720,202.833382,159,0.1325,57,A3,49,2
182760,202.866716,119,0.099166,69,A4,49,1
182880,202.966716,119,0.099166,63,D4#,49,1
182880,202.966716,159,0.1325,59,B3,49,2
183000,203.066716,119,0.099166,75,D5#,49,1
183040,203.100049,159,0.1325,57,A3,49,2
183120,203.166716,119,0.099166,66,F4#,49,1
183200,203.233382,159,0.1325,51,D3#,49,2
183240,203.266716,119,0.099166,69,A4,49,1
183360,203.366716,119,0.099166,64,E4,49,1
183360,203.366716,159,0.1325,40,E2,49,2
183480,203.466716,119,0.099166,76,E5,49,1
183520,203.500049,159,0.1325,47,B2,49,2
183600,203.566716,119,0.099166,68,G4#,49,1
183680,203.633382,159,0.1325,52,E3,49,2
183720,203.666716,119,0.099166,71,B4,49,1
183840,203.766716,119,0.099166,68,G4#,64,1
183840,203.766716,159,0.1325,56,G3#,64,2
183960,203.866716,119,0.099166,80,G5#,64,1
184000,203.900049,159,0.1325,52,E3,64,2
184080,203.966716,119,0.099166,71,B4,64,1
184160,204.033382,159,0.1325,47,B2,64,2
184200,204.066716,119,0.099166,76,E5,64,1
184320,204.166716,119,0.099166,68,G4#,80,1
184320,204.166716,159,0.1325,45,A2,80,2
184440,204.266716,119,0.099166,80,G5#,80,1
184480,204.300049,159,0.1325,49,C3#,80,2
184560,204.366716,119,0.099166,72,C5,80,1
184640,204.433382,159,0.1325,54,F3#,80,2
184680,204.466716,119,0.099166,73,C5#,80,1
184800,204.566716,119,0.099166,66,F4#,80,1
184800,204.566716,159,0.1325,57,A3,80,2
184920,204.666716,119,0.099166,78,F5#,80,1
184960,204.700049,159,0.1325,54,F3#,80,2
185040,204.766716,119,0.099166,72,C5,80,1
185120,204.833382,159,0.1325,49,C3#,80,2
185160,204.866716,119,0.099166,73,C5#,80,1
185280,204.966716,119,0.099166,75,D5#,96,1
185280,204.966716,159,0.1325,45,A2,96,2
185400,205.066716,119,0.099166,87,D6#,96,1
185440,205.100049,159,0.1325,49,C3#,96,2
185520,205.166716,119,0.099166,78,F5#,96,1
185600,205.233382,159,0.1325,54,F3#,96,2
185640,205.266716,119,0.099166,81,A5,96,1
185760,205.366716,119,0.099166,73,C5#,96,1
185760,205.366716,159,0.1325,57,A3,96,2
185880,205.466716,119,0.099166,85,C6#,96,1
185920,205.500049,159,0.1325,54,F3#,96,2
186000,205.566716,119,0.099166,78,F5#,96,1
186080,205.633382,159,0.1325,49,C3#,96,2
186120,205.666716,119,0.099166,81,A5,96,1
186240,205.766716,119,0.099166,73,C5#,80,1
186240,205.766716,159,0.1325,44,G2#,80,2
186360,205.866716,119,0.099166,85,C6#,80,1
186400,205.900049,159,0.1325,51,D3#,80,2
186480,205.966716,119,0.099166,75,D5#,80,1
186560,206.033382,159,0.1325,54,F3#,80,2
186600,206.066716,119,0.099166,78,F5#,80,1
186720,206.166716,119,0.099166,72,C5,80,1
186720,206.166716,159,0.1325,60,C4,80,2
186840,206.266716,119,0.099166,84,C6,80,1
186880,206.300049,159,0.1325,54,F3#,80,2
186960,206.366716,119,0.099166,75,D5#,80,1
187040,206.433382,159,0.1325,51,D3#,80,2
187080,206.466716,119,0.099166,78,F5#,80,1
187200,206.566716,119,0.099166,72,C5,80,1
187200,206.566716,159,0.1325,44,G2#,80,2
187320,206.666716,119,0.099166,84,C6,80,1
187360,206.700049,159,0.1325,51,D3#,80,2
187440,206.766716,119,0.099166,75,D5#,80,1
187520,206.833382,159,0.1325,54,F3#,80,2
187560,206.866716,119,0.099166,78,F5#,80,1
187680,206.966716,119,0.099166,72,C5,80,1
187680,206.966716,159,0.1325,60,C4,80,2
187800,207.066716,119,0.099166,84,C6,80,1
187840,207.100049,159,0.1325,54,F3#,80,2
187920,207.166716,119,0.099166,75,D5#,80,1
188000,207.233382,159,0.1325,51,D3#,80,2
188040,207.266716,119,0.099166,78,F5#,80,1
188160,207.366716,119,0.099166,72,C5,64,1
188160,207.366716,159,0.1325,45,A2,64,2
188280,207.466716,119,0.099166,84,C6,64,1
188320,207.500049,159,0.1325,51,D3#,64,2
188400,207.566716,119,0.099166,75,D5#,64,1
188480,207.633382,159,0.1325,54,F3#,64,2
188520,207.666716,119,0.099166,78,F5#,64,1
188640,207.766716,119,0.099166,71,B4,64,1
188640,207.766716,159,0.1325,59,B3,64,2
188760,207.866716,119,0.099166,83,B5,64,1
188800,207.900049,159,0.1325,54,F3#,64,2
188880,207.966716,119,0.099166,75,D5#,64,1
188960,208.033382,159,0.1325,51,D3#,64,2
189000,208.066716,119,0.099166,78,F5#,64,1
189120,208.166716,119,0.099166,71,B4,64,1
189120,208.166716,159,0.1325,46,A2#,64,2
189240,208.266716,119,0.099166,83,B5,64,1
189280,208.300049,159,0.1325,51,D3#,64,2
189360,208.366716,119,0.099166,75,D5#,64,1
189440,208.433382,159,0.1325,54,F3#,64,2
189480,208.466716,119,0.099166,78,F5#,64,1
189600,208.566716,119,0.099166,70,A4#,64,1
189600,208.566716,159,0.1325,58,A3#,64,2
189720,208.666716,119,0.099166,82,A5#,64,1
189760,208.700049,159,0.1325,54,F3#,64,2
189840,208.766716,119,0.099166,75,D5#,64,1
189920,208.833382,159,0.1325,51,D3#,64,2
189960,208.866716,119,0.099166,78,F5#,64,1
190080,208.966716,119,0.099166,70,A4#,49,1
190080,208.966716,159,0.1325,48,C3,49,2
190200,209.066716,119,0.099166,82,A5#,49,1
190240,209.100049,159,0.1325,51,D3#,49,2
190320,209.166716,119,0.099166,75,D5#,49,1
190400,209.233382,159,0.1325,54,F3#,49,2
190440,209.266716,119,0.099166,78,F5#,49,1
190560,209.366716,119,0.099166,69,A4,49,1
190560,209.366716,159,0.1325,57,A3,49,2
190680,209.466716,119,0.099166,81,A5,49,1
190720,209.500049,159,0.1325,54,F3#,49,2
190800,209.566716,119,0.099166,75,D5#,49,1
190880,209.633382,159,0.1325,51,D3#,49,2
190920,209.666716,119,0.099166,78,F5#,49,1
191040,209.766716,119,0.099166,69,A4,49,1
191040,209.766716,159,0.1325,48,C3,49,2
191160,209.866716,119,0.099166,81,A5,49,1
191200,209.900049,159,0.1325,51,D3#,49,2
191280,209.966716,119,0.099166,75,D5#,49,1
191360,210.033382,159,0.1325,54,F3#,49,2
191400,210.066716,119,0.099166,78,F5#,49,1
191520,210.166716,119,0.099166,69,A4,49,1
191520,210.166716,159,0.1325,57,A3,49,2
191640,210.266716,119,0.099166,81,A5,49,1
191680,210.300049,159,0.1325,54,F3#,49,2
191760,210.366716,119,0.099166,75,D5#,49,1
191840,210.433382,159,0.1325,51,D3#,49,2
191880,210.466716,119,0.099166,78,F5#,49,1
192000,210.566716,119,0.099166,72,C5,33,1
192000,210.566716,159,0.1325,45,A2,33,2
192120,210.666716,119,0.099166,84,C6,33,1
192160,210.700049,159,0.1325,51,D3#,33,2
192240,210.766716,119,0.099166,75,D5#,33,1
192320,210.833382,159,0.1325,54,F3#,33,2
192360,210.866716,119,0.099166,78,F5#,33,1
192480,210.966716,119,0.099166,71,B4,33,1
192480,210.966716,159,0.1325,59,B3,33,2
192600,211.066716,119,0.099166,83,B5,33,1
192640,211.100049,159,0.1325,54,F3#,33,2
192720,211.166716,119,0.099166,75,D5#,33,1
192800,211.233382,159,0.1325,51,D3#,33,2
192840,211.266716,119,0.099166,78,F5#,33,1
192960,211.366716,119,0.099166,71,B4,33,1
192960,211.366716,159,0.1325,46,A2#,33,2
193080,211.466716,119,0.099166,83,B5,33,1
193120,211.500049,159,0.1325,51,D3#,33,2
193200,211.566716,119,0.099166,75,D5#,33,1
193280,211.633382,159,0.1325,54,F3#,33,2
193320,211.666716,119,0.099166,78,F5#,33,1
193440,211.766716,119,0.099166,70,A4#,33,1
193440,211.766716,159,0.1325,58,A3#,33,2
193560,211.866716,119,0.099166,82,A5#,33,1
193600,211.900049,159,0.1325,54,F3#,33,2
193680,211.966716,119,0.099166,75,D5#,33,1
193760,212.033382,159,0.1325,51,D3#,33,2
193800,212.066716,119,0.099166,78,F5#,33,1
193920,212.166716,119,0.099166,70,A4#,33,1
193920,212.166716,159,0.1325,47,B2,33,2
194040,212.266716,119,0.099166,82,A5#,33,1
194080,212.300049,159,0.1325,51,D3#,33,2
194160,212.366716,119,0.099166,75,D5#,33,1
194240,212.433382,159,0.1325,54,F3#,33,2
194280,212.466716,119,0.099166,78,F5#,33,1
194400,212.566716,119,0.099166,69,A4,33,1
194400,212.566716,159,0.1325,57,A3,33,2
194520,212.666716,119,0.099166,81,A5,33,1
194560,212.700049,159,0.1325,54,F3#,33,2
194640,212.766716,119,0.099166,75,D5#,33,1
194720,212.833382,159,0.1325,51,D3#,33,2
194760,212.866716,119,0.099166,78,F5#,33,1
194880,212.966716,119,0.123958,69,A4,33,1
194880,212.966716,159,0.165625,48,C3,33,2
195000,213.091716,119,0.123958,81,A5,33,1
195040,213.133382,159,0.165625,51,D3#,33,2
195120,213.216716,119,0.123958,75,D5#,33,1
195200,213.300049,159,0.165625,54,F3#,33,2
195240,213.341716,119,0.123958,78,F5#,33,1
195360,213.466716,119,0.123958,68,G4#,33,1
195360,213.466716,159,0.165625,56,G3#,33,2
195480,213.591716,119,0.123958,80,G5#,33,1
195520,213.633382,159,0.165625,54,F3#,33,2
195600,213.716716,119,0.123958,75,D5#,33,1
195680,213.800049,159,0.165625,51,D3#,33,2
195720,213.841716,119,0.123958,78,F5#,33,1
195840,213.966716,159,0.1325,49,C3#,49,2
195960,214.066716,119,0.099166,68,G4#,49,1
196000,214.100049,159,0.1325,56,G3#,49,2
196080,214.166716,119,0.099166,69,A4,49,1
196160,214.233382,159,0.1325,61,C4#,49,2
196200,214.266716,119,0.099166,68,G4#,49,1
196320,214.366716,119,0.099166,67,G4,49,1
196320,214.366716,159,0.1325,64,E4,49,2
196440,214.466716,119,0.099166,68,G4#,49,1
196480,214.500049,159,0.1325,61,C4#,49,2
196560,214.566716,119,0.099166,73,C5#,49,1
196640,214.633382,159,0.1325,56,G3#,49,2
196680,214.666716,119,0.099166,76,E5,49,1
196800,214.766716,119,0.099166,75,D5#,49,1
196800,214.766716,159,0.1325,52,E3,49,2
196920,214.866716,119,0.099166,73,C5#,49,1
196960,214.900049,159,0.1325,56,G3#,49,2
197040,214.966716,119,0.099166,75,D5#,49,1
197120,215.033382,159,0.1325,61,C4#,49,2
197160,215.066716,119,0.099166,73,C5#,49,1
197280,215.166716,119,0.099166,72,C5,49,1
197280,215.166716,159,0.1325,64,E4,49,2
197400,215.266716,119,0.099166,73,C5#,49,1
197440,215.300049,159,0.1325,61,C4#,49,2
197520,215.366716,119,0.099166,76,E5,49,1
197600,215.433382,159,0.1325,56,G3#,49,2
197640,215.466716,119,0.099166,80,G5#,49,1
197760,215.566716,159,0.1325,49,C3#,49,2
197880,215.666716,119,0.099166,68,G4#,49,1
197920,215.700049,159,0.1325,56,G3#,49,2
198000,215.766716,119,0.099166,69,A4,49,1
198080,215.833382,159,0.1325,61,C4#,49,2
198120,215.866716,119,0.099166,68,G4#,49,1
198240,215.966716,119,0.099166,67,G4,49,1
198240,215.966716,159,0.1325,64,E4,49,2
198360,216.066716,119,0.099166,68,G4#,49,1
198400,216.100049,159,0.1325,61,C4#,49,2
198480,216.166716,119,0.099166,73,C5#,49,1
198560,216.233382,159,0.1325,56,G3#,49,2
198600,216.266716,119,0.099166,76,E5,49,1
198720,216.366716,119,0.099166,75,D5#,49,1
198720,216.366716,159,0.1325,52,E3,49,2
198840,216.466716,119,0.099166,73,C5#,49,1
198880,216.500049,159,0.1325,56,G3#,49,2
198960,216.566716,119,0.099166,75,D5#,49,1
199040,216.633382,159,0.1325,61,C4#,49,2
199080,216.666716,119,0.099166,73,C5#,49,1
199200,216.766716,119,0.099166,72,C5,49,1
199200,216.766716,159,0.1325,64,E4,49,2
199320,216.866716,119,0.099166,73,C5#,49,1
199360,216.900049,159,0.1325,61,C4#,49,2
199440,216.966716,119,0.099166,76,E5,49,1
199520,217.033382,159,0.1325,56,G3#,49,2
199560,217.066716,119,0.099166,80,G5#,49,1
199680,217.166716,159,0.1325,51,D3#,49,2
199800,217.266716,119,0.099166,69,A4,49,1
199840,217.300049,159,0.1325,57,A3,49,2
199920,217.366716,119,0.099166,73,C5#,49,1
200000,217.433382,159,0.1325,61,C4#,49,2
200040,217.466716,119,0.099166,75,D5#,49,1
200160,217.566716,119,0.099166,78,F5#,49,1
200160,217.566716,159,0.1325,66,F4#,49,2
200280,217.666716,119,0.099166,81,A5,49,1
200320,217.700049,159,0.1325,61,C4#,49,2
200400,217.766716,119,0.099166,85,C6#,49,1
200480,217.833382,159,0.1325,57,A3,49,2
200520,217.866716,119,0.099166,87,D6#,49,1
200640,217.966716,119,0.099166,95,B6,49,1
200640,217.966716,159,0.1325,54,F3#,49,2
200760,218.066716,119,0.099166,93,A6,49,1
200800,218.100049,159,0.1325,61,C4#,49,2
200880,218.166716,119,0.099166,92,G6#,49,1
200960,218.233382,159,0.1325,63,D4#,49,2
201000,218.266716,119,0.099166,90,F6#,49,1
201120,218.366716,119,0.099166,88,E6,64,1
201120,218.366716,159,0.1325,69,A4,64,2
201240,218.466716,119,0.099166,87,D6#,64,1
201280,218.500049,159,0.1325,63,D4#,64,2
201360,218.566716,119,0.099166,90,F6#,64,1
201440,218.633382,159,0.1325,61,C4#,64,2
201480,218.666716,119,0.099166,85,C6#,64,1
201600,218.766716,119,0.099166,84,C6,64,1
201600,218.766716,159,0.1325,42,F2#,64,2
201720,218.866716,119,0.099166,87,D6#,64,1
201760,218.900049,159,0.1325,51,D3#,64,2
201840,218.966716,119,0.099166,81,A5,64,1
201920,219.033382,159,0.1325,54,F3#,64,2
201960,219.066716,119,0.099166,80,G5#,64,1
202080,219.166716,119,0.099166,78,F5#,64,1
202080,219.166716,159,0.1325,60,C4,64,2
202200,219.266716,119,0.099166,81,A5,64,1
202240,219.300049,159,0.1325,54,F3#,64,2
202320,219.366716,119,0.099166,76,E5,64,1
202400,219.433382,159,0.1325,51,D3#,64,2
202440,219.466716,119,0.099166,75,D5#,64,1
202560,219.566716,119,0.099166,78,F5#,64,1
202560,219.566716,159,0.1325,44,G2#,64,2
202680,219.666716,119,0.099166,73,C5#,64,1
202720,219.700049,159,0.1325,51,D3#,64,2
202800,219.766716,119,0.099166,72,C5,64,1
202880,219.833382,159,0.1325,54,F3#,64,2
202920,219.866716,119,0.099166,75,D5#,64,1
203040,219.966716,119,0.099166,69,A4,64,1
203040,219.966716,159,0.1325,60,C4,64,2
203160,220.066716,119,0.099166,68,G4#,64,1
203200,220.100049,159,0.1325,54,F3#,64,2
203280,220.166716,119,0.099166,71,B4,64,1
203360,220.233382,159,0.1325,51,D3#,64,2
203400,220.266716,239,0.199166,69,A4,64,1
203520,220.366716,159,0.1325,49,C3#,49,2
203640,220.466716,119,0.099166,68,G4#,49,1
203680,220.500049,159,0.1325,56,G3#,49,2
203760,220.566716,119,0.099166,69,A4,49,1
203840,220.633382,159,0.1325,61,C4#,49,2
203880,220.666716,119,0.099166,68,G4#,49,1
204000,220.766716,119,0.099166,67,G4,49,1
204000,220.766716,159,0.1325,64,E4,49,2
204120,220.866716,119,0.099166,68,G4#,49,1
204160,220.900049,159,0.1325,61,C4#,49,2
204240,220.966716,119,0.099166,73,C5#,49,1
204320,221.033382,159,0.1325,56,G3#,49,2
204360,221.066716,119,0.099166,76,E5,49,1
204480,221.166716,119,0.099166,75,D5#,49,1
204480,221.166716,159,0.1325,52,E3,49,2
204600,221.266716,119,0.099166,73,C5#,49,1
204640,221.300049,159,0.1325,56,G3#,49,2
204720,221.366716,119,0.099166,75,D5#,49,1
204800,221.433382,159,0.1325,61,C4#,49,2
204840,221.466716,119,0.099166,73,C5#,49,1
204960,221.566716,119,0.099166,72,C5,49,1
204960,221.566716,159,0.1325,64,E4,49,2
205080,221.666716,119,0.099166,73,C5#,49,1
205120,221.700049,159,0.1325,61,C4#,49,2
205200,221.766716,119,0.099166,76,E5,49,1
205280,221.833382,159,0.1325,56,G3#,49,2
205320,221.866716,119,0.099166,80,G5#,49,1
205440,221.966716,119,0.099166,76,E5,49,1
205440,221.966716,159,0.1325,54,F3#,49,2
205560,222.066716,119,0.099166,75,D5#,49,1
205600,222.100049,159,0.1325,61,C4#,49,2
205680,222.166716,119,0.099166,76,E5,49,1
205760,222.233382,159,0.1325,63,D4#,49,2
205800,222.266716,119,0.099166,75,D5#,49,1
205920,222.366716,119,0.099166,74,D5,49,1
205920,222.366716,159,0.1325,69,A4,49,2
206040,222.466716,119,0.099166,75,D5#,49,1
206080,222.500049,159,0.1325,63,D4#,49,2
206160,222.566716,119,0.099166,78,F5#,49,1
206240,222.633382,159,0.1325,61,C4#,49,2
206280,222.666716,119,0.099166,81,A5,49,1
206400,222.766716,119,0.099166,78,F5#,49,1
206400,222.766716,159,0.1325,56,G3#,49,2
206520,222.866716,119,0.099166,77,F5,49,1
206560,222.900049,159,0.1325,61,C4#,49,2
206640,222.966716,119,0.099166,78,F5#,49,1
206720,223.033382,159,0.1325,65,F4,49,2
206760,223.066716,119,0.099166,77,F5,49,1
206880,223.166716,119,0.099166,76,E5,49,1
206880,223.166716,159,0.1325,71,B4,49,2
207000,223.266716,119,0.099166,77,F5,49,1
207040,223.300049,159,0.1325,65,F4,49,2
207120,223.366716,119,0.099166,80,G5#,49,1
207200,223.433382,159,0.1325,61,C4#,49,2
207240,223.466716,119,0.099166,85,C6#,49,1
207360,223.566716,159,0.1325,57,A3,64,2
207480,223.666716,119,0.099166,73,C5#,64,1
207520,223.700049,159,0.1325,61,C4#,64,2
207600,223.766716,119,0.099166,74,D5,64,1
207680,223.833382,159,0.1325,66,F4#,64,2
207720,223.866716,119,0.099166,73,C5#,64,1
207840,223.966716,119,0.099166,72,C5,64,1
207840,223.966716,159,0.1325,69,A4,64,2
207960,224.066716,119,0.099166,73,C5#,64,1
208000,224.100049,159,0.1325,66,F4#,64,2
208080,224.166716,119,0.099166,78,F5#,64,1
208160,224.233382,159,0.1325,61,C4#,64,2
208200,224.266716,119,0.099166,81,A5,64,1
208320,224.366716,119,0.099166,78,F5#,64,1
208320,224.366716,159,0.1325,56,G3#,64,2
208440,224.466716,119,0.099166,77,F5,64,1
208480,224.500049,159,0.1325,61,C4#,64,2
208560,224.566716,119,0.099166,78,F5#,64,1
208640,224.633382,159,0.1325,65,F4,64,2
208680,224.666716,119,0.099166,77,F5,64,1
208800,224.766716,119,0.099166,76,E5,64,1
208800,224.766716,159,0.1325,71,B4,64,2
208920,224.866716,119,0.099166,77,F5,64,1
208960,224.900049,159,0.1325,65,F4,64,2
209040,224.966716,119,0.099166,80,G5#,64,1
209120,225.033382,159,0.1325,61,C4#,64,2
209160,225.066716,119,0.099166,85,C6#,64,1
209280,225.166716,119,0.099166,80,G5#,64,1
209280,225.166716,159,0.1325,57,A3,64,2
209400,225.266716,119,0.099166,78,F5#,64,1
209440,225.300049,159,0.1325,61,C4#,64,2
209520,225.366716,119,0.099166,80,G5#,64,1
209600,225.433382,159,0.1325,66,F4#,64,2
209640,225.466716,119,0.099166,78,F5#,64,1
209760,225.566716,119,0.099166,77,F5,64,1
209760,225.566716,159,0.1325,69,A4,64,2
209880,225.666716,119,0.099166,78,F5#,64,1
209920,225.700049,159,0.1325,66,F4#,64,2
210000,225.766716,119,0.099166,81,A5,64,1
210080,225.833382,159,0.1325,61,C4#,64,2
210120,225.866716,119,0.099166,85,C6#,64,1
210240,225.966716,119,0.099166,81,A5,64,1
210240,225.966716,159,0.1325,48,C3,64,2
210360,226.066716,119,0.099166,80,G5#,64,1
210400,226.100049,159,0.1325,54,F3#,64,2
210480,226.166716,119,0.099166,81,A5,64,1
210560,226.233382,159,0.1325,56,G3#,64,2
210600,226.266716,119,0.099166,80,G5#,64,1
210720,226.366716,119,0.099166,79,G5,64,1
210720,226.366716,159,0.1325,63,D4#,64,2
210840,226.466716,119,0.099166,80,G5#,64,1
210880,226.500049,159,0.1325,56,G3#,64,2
210960,226.566716,119,0.099166,84,C6,64,1
211040,226.633382,159,0.1325,54,F3#,64,2
211080,226.666716,119,0.099166,87,D6#,64,1
211200,226.766716,119,0.099166,80,G5#,80,1
211200,226.766716,159,0.1325,49,C3#,80,2
211320,226.866716,119,0.099166,81,A5,80,1
211360,226.900049,159,0.1325,56,G3#,80,2
211440,226.966716,119,0.099166,80,G5#,80,1
211520,227.033382,159,0.1325,61,C4#,80,2
211560,227.066716,119,0.099166,79,G5,80,1
211680,227.166716,119,0.099166,80,G5#,80,1
211680,227.166716,159,0.1325,64,E4,80,2
211800,227.266716,119,0.099166,88,E6,80,1
211840,227.300049,159,0.1325,61,C4#,80,2
211920,227.366716,119,0.099166,87,D6#,80,1
212000,227.433382,159,0.1325,56,G3#,80,2
212040,227.466716,119,0.099166,86,D6,80,1
212160,227.566716,119,0.099166,85,C6#,80,1
212160,227.566716,159,0.1325,51,D3#,80,2
212280,227.666716,119,0.099166,84,C6,80,1
212320,227.700049,159,0.1325,56,G3#,80,2
212400,227.766716,119,0.099166,83,B5,80,1
212480,227.833382,159,0.1325,60,C4,80,2
212520,227.866716,119,0.099166,82,A5#,80,1
212640,227.966716,119,0.099166,81,A5,80,1
212640,227.966716,159,0.1325,66,F4#,80,2
212760,228.066716,119,0.099166,80,G5#,80,1
212800,228.100049,159,0.1325,60,C4,80,2
212880,228.166716,119,0.099166,79,G5,80,1
212960,228.233382,159,0.1325,56,G3#,80,2
213000,228.266716,119,0.099166,78,F5#,80,1
213120,228.366716,119,0.099166,76,E5,80,1
213120,228.366716,159,0.1325,52,E3,80,2
213240,228.466716,119,0.099166,78,F5#,80,1
213280,228.500049,159,0.1325,56,G3#,80,2
213360,228.566716,119,0.099166,76,E5,80,1
213440,228.633382,159,0.1325,61,C4#,80,2
213480,228.666716,119,0.099166,75,D5#,80,1
213600,228.766716,119,0.099166,76,E5,80,1
213600,228.766716,159,0.1325,64,E4,80,2
213720,228.866716,119,0.099166,88,E6,80,1
213760,228.900049,159,0.1325,61,C4#,80,2
213840,228.966716,119,0.099166,87,D6#,80,1
213920,229.033382,159,0.1325,56,G3#,80,2
213960,229.066716,119,0.099166,86,D6,80,1
214080,229.166716,119,0.099166,85,C6#,80,1
214080,229.166716,159,0.1325,54,F3#,80,2
214200,229.266716,119,0.099166,84,C6,80,1
214240,229.300049,159,0.1325,61,C4#,80,2
214320,229.366716,119,0.099166,83,B5,80,1
214400,229.433382,159,0.1325,63,D4#,80,2
214440,229.466716,119,0.099166,82,A5#,80,1
214560,229.566716,119,0.099166,81,A5,80,1
214560,229.566716,159,0.1325,69,A4,80,2
214680,229.666716,119,0.099166,80,G5#,80,1
214720,229.700049,159,0.1325,63,D4#,80,2
214800,229.766716,119,0.099166,79,G5,80,1
214880,229.833382,159,0.1325,61,C4#,80,2
214920,229.866716,119,0.099166,78,F5#,80,1
215040,229.966716,59,0.049166,80,G5#,80,1
215040,229.966716,119,0.099166,56,G3#,80,2
215040,229.966716,119,0.099166,61,C4#,80,2
215040,229.966716,119,0.099166,64,E4,80,2
215040,229.966716,119,0.099166,68,G4#,80,2
215280,230.166716,119,0.099166,92,G6#,96,1
215400,230.266716,119,0.099166,91,G6,96,1
215520,230.366716,119,0.099166,90,F6#,96,1
215640,230.466716,119,0.099166,89,F6,96,1
215760,230.566716,119,0.099166,88,E6,96,1
215880,230.666716,119,0.099166,87,D6#,96,1
216000,230.766716,119,0.099166,86,D6,96,1
216000,230.766716,959,0.799166,55,G3,96,2
216000,230.766716,959,0.799166,61,C4#,96,2
216000,230.766716,959,0.799166,64,E4,96,2
216000,230.766716,959,0.799166,69,A4,96,2
216120,230.866716,119,0.099166,85,C6#,96,1
216240,230.966716,119,0.099166,84,C6,96,1
216360,231.066716,119,0.099166,83,B5,96,1
216480,231.166716,119,0.099166,82,A5#,96,1
216600,231.266716,119,0.099166,81,A5,96,1
216720,231.366716,119,0.099166,80,G5#,96,1
216840,231.466716,119,0.099166,79,G5,96,1
216960,231.566716,119,0.099166,78,F5#,96,1
217080,231.666716,119,0.099166,77,F5,96,1
217200,231.766716,119,0.099166,76,E5,96,1
217320,231.866716,119,0.099166,75,D5#,96,1
217440,231.966716,119,0.099166,74,D5,96,1
217560,232.066716,119,0.099166,73,C5#,96,1
217680,232.166716,119,0.099166,72,C5,96,1
217800,232.266716,119,0.099166,71,B4,96,1
217920,232.366716,119,0.099166,70,A4#,96,1
218040,232.466716,119,0.099166,69,A4,96,1
218160,232.566716,119,0.099166,68,G4#,96,1
218280,232.666716,119,0.099166,67,G4,96,1
218400,232.766716,119,0.099166,66,F4#,96,1
218520,232.866716,119,0.099166,64,E4,96,1
218640,232.966716,119,0.099166,63,D4#,96,1
218760,233.066716,119,0.099166,61,C4#,96,1
218880,233.166716,119,0.099166,56,G3#,112,1
218880,233.166716,119,0.099166,32,G1#,112,2
218880,233.166716,119,0.099166,44,G2#,112,2
219360,233.566716,119,0.099166,93,A6,112,1
219360,233.566716,479,0.399166,64,E4,112,2
219360,233.566716,479,0.399166,76,E5,112,2
219480,233.666716,119,0.099166,92,G6#,112,1
219600,233.766716,119,0.099166,100,E7,112,1
219720,233.866716,119,0.099166,88,E6,112,1
219840,233.966716,119,0.099166,90,F6#,112,1
219840,233.966716,479,0.399166,61,C4#,112,2
219840,233.966716,479,0.399166,73,C5#,112,2
219960,234.066716,119,0.099166,88,E6,112,1
220080,234.166716,119,0.099166,97,C7#,112,1
220200,234.266716,119,0.099166,85,C6#,112,1
220320,234.366716,119,0.099166,87,D6#,112,1
220320,234.366716,479,0.399166,56,G3#,112,2
220320,234.366716,479,0.399166,68,G4#,112,2
220440,234.466716,119,0.099166,85,C6#,112,1
220560,234.566716,119,0.099166,92,G6#,112,1
220680,234.666716,119,0.099166,80,G5#,112,1
220800,234.766716,119,0.099166,81,A5,112,1
220800,234.766716,479,0.399166,52,E3,112,2
220800,234.766716,479,0.399166,64,E4,112,2
220920,234.866716,119,0.099166,80,G5#,112,1
221040,234.966716,119,0.099166,88,E6,112,1
221160,235.066716,119,0.099166,76,E5,112,1
221280,235.166716,119,0.099166,78,F5#,112,1
221280,235.166716,479,0.399166,49,C3#,112,2
221280,235.166716,479,0.399166,61,C4#,112,2
221400,235.266716,119,0.099166,76,E5,112,1
221520,235.366716,119,0.099166,85,C6#,112,1
221640,235.466716,119,0.099166,73,C5#,112,1
221760,235.566716,119,0.099166,75,D5#,112,1
221760,235.566716,479,0.399166,44,G2#,112,2
221760,235.566716,479,0.399166,56,G3#,112,2
221880,235.666716,119,0.099166,73,C5#,112,1
222000,235.766716,119,0.099166,80,G5#,112,1
222120,235.866716,119,0.099166,68,G4#,112,1
222240,235.966716,119,0.099166,69,A4,112,1
222240,235.966716,479,0.399166,40,E2,112,2
222240,235.966716,479,0.399166,52,E3,112,2
222360,236.066716,119,0.099166,68,G4#,112,1
222480,236.166716,119,0.099166,76,E5,112,1
222600,236.266716,119,0.099166,64,E4,112,1
222720,236.366716,119,0.099166,66,F4#,112,1
222720,236.366716,479,0.399166,37,C2#,112,2
222720,236.366716,479,0.399166,49,C3#,112,2
222840,236.466716,119,0.099166,64,E4,112,1
222960,236.566716,119,0.099166,73,C5#,112,1
223080,236.666716,119,0.099166,61,C4#,112,1
223200,236.766716,119,0.099166,63,D4#,112,1
223200,236.766716,479,0.399166,32,G1#,112,2
223200,236.766716,479,0.399166,44,G2#,112,2
223320,236.866716,119,0.099166,61,C4#,112,1
223440,236.966716,119,0.099166,68,G4#,112,1
223560,237.066716,119,0.099166,56,G3#,112,1
223680,237.166716,119,0.099166,63,D4#,112,1
223680,237.166716,479,0.399166,32,G1#,112,2
223680,237.166716,479,0.399166,44,G2#,112,2
223800,237.266716,119,0.099166,61,C4#,112,1
223920,237.366716,119,0.099166,68,G4#,112,1
224040,237.466716,119,0.099166,56,G3#,112,1
224160,237.566716,119,0.099166,63,D4#,112,1
224160,237.566716,479,0.399166,33,A1,112,2
224160,237.566716,479,0.399166,45,A2,112,2
224280,237.666716,119,0.099166,61,C4#,112,1
224400,237.766716,119,0.099166,69,A4,112,1
224520,237.866716,119,0.099166,57,A3,112,1
224640,237.966716,119,0.099166,63,D4#,112,1
224640,237.966716,479,0.399166,32,G1#,112,2
224640,237.966716,479,0.399166,44,G2#,112,2
224760,238.066716,119,0.099166,61,C4#,112,1
224880,238.166716,119,0.099166,68,G4#,112,1
225000,238.266716,119,0.099166,56,G3#,112,1
225120,238.366716,119,0.099166,63,D4#,112,1
225120,238.366716,479,0.399166,31,G1,112,2
225120,238.366716,479,0.399166,43,G2,112,2
225240,238.466716,119,0.099166,61,C4#,112,1
225360,238.566716,119,0.099166,67,G4,112,1
225480,238.666716,119,0.099166,55,G3,112,1
225600,238.766716,119,0.099166,63,D4#,112,1
225600,238.766716,959,0.799166,32,G1#,112,2
225600,238.766716,959,0.799166,44,G2#,112,2
225720,238.866716,119,0.099166,61,C4#,112,1
225840,238.966716,119,0.099166,68,G4#,112,1
225960,239.066716,119,0.099166,56,G3#,112,1
226080,239.166716,119,0.099166,63,D4#,112,1
226200,239.266716,119,0.099166,60,C4,112,1
226320,239.366716,119,0.099166,68,G4#,112,1
226440,239.466716,119,0.099166,56,G3#,112,1
226560,239.566716,119,0.099166,63,D4#,112,1
226560,239.566716,239,0.199166,37,C2#,112,2
226680,239.666716,119,0.099166,61,C4#,112,1
226800,239.766716,119,0.099166,68,G4#,112,1
226800,239.766716,239,0.199166,52,E3,112,2
226920,239.866716,119,0.099166,56,G3#,112,1
227040,239.966716,119,0.099166,69,A4,112,1
227040,239.966716,239,0.199166,49,C3#,112,2
227160,240.066716,119,0.099166,68,G4#,112,1
227280,240.166716,119,0.099166,76,E5,112,1
227280,240.166716,239,0.199166,44,G2#,112,2
227400,240.266716,119,0.099166,64,E4,112,1
227520,240.366716,119,0.099166,69,A4,112,1
227520,240.366716,239,0.199166,37,C2#,112,2
227640,240.466716,119,0.099166,68,G4#,112,1
227760,240.566716,119,0.099166,76,E5,112,1
227760,240.566716,239,0.199166,54,F3#,112,2
227880,240.666716,119,0.099166,64,E4,112,1
228000,240.766716,119,0.099166,69,A4,112,1
228000,240.766716,239,0.199166,48,C3,112,2
228120,240.866716,119,0.099166,68,G4#,112,1
228240,240.966716,119,0.099166,75,D5#,112,1
228240,240.966716,239,0.199166,44,G2#,112,2
228360,241.066716,119,0.099166,63,D4#,112,1
228480,241.166716,119,0.099166,69,A4,112,1
228480,241.166716,239,0.199166,37,C2#,112,2
228600,241.266716,119,0.099166,68,G4#,112,1
228720,241.366716,119,0.099166,75,D5#,112,1
228720,241.366716,239,0.199166,52,E3,112,2
228840,241.466716,119,0.099166,63,D4#,112,1
228960,241.566716,119,0.099166,69,A4,112,1
228960,241.566716,239,0.199166,49,C3#,112,2
229080,241.666716,119,0.099166,68,G4#,112,1
229200,241.766716,119,0.099166,73,C5#,112,1
229200,241.766716,239,0.199166,44,G2#,112,2
229320,241.866716,119,0.099166,61,C4#,112,1
229440,241.966716,119,0.099166,64,E4,112,1
229440,241.966716,239,0.199166,37,C2#,112,2
229560,242.066716,119,0.099166,63,D4#,112,1
229680,242.166716,119,0.099166,68,G4#,112,1
229680,242.166716,239,0.199166,54,F3#,112,2
229800,242.266716,119,0.099166,56,G3#,112,1
229920,242.366716,119,0.099166,64,E4,112,1
229920,242.366716,239,0.199166,48,C3,112,2
230040,242.466716,119,0.099166,63,D4#,112,1
230160,242.566716,119,0.099166,68,G4#,112,1
230160,242.566716,239,0.199166,44,G2#,112,2
230280,242.666716,119,0.099166,56,G3#,112,1
230400,242.766716,119,0.099166,63,D4#,112,1
230400,242.766716,239,0.199166,37,C2#,112,2
230520,242.866716,119,0.099166,61,C4#,112,1
230640,242.966716,119,0.099166,68,G4#,112,1
230640,242.966716,239,0.199166,52,E3,112,2
230760,243.066716,119,0.099166,56,G3#,112,1
230880,243.166716,119,0.099166,69,A4,112,1
230880,243.166716,239,0.199166,49,C3#,112,2
231000,243.266716,119,0.099166,68,G4#,112,1
231120,243.366716,119,0.099166,76,E5,112,1
231120,243.366716,239,0.199166,44,G2#,112,2
231240,243.466716,119,0.099166,64,E4,112,1
231360,243.566716,119,0.099166,69,A4,112,1
231360,243.566716,239,0.199166,37,C2#,112,2
231480,243.666716,119,0.099166,68,G4#,112,1
231600,243.766716,119,0.099166,76,E5,112,1
231600,243.766716,239,0.199166,54,F3#,112,2
231720,243.866716,119,0.099166,64,E4,112,1
231840,243.966716,119,0.099166,69,A4,112,1
231840,243.966716,239,0.199166,48,C3,112,2
231960,244.066716,119,0.099166,68,G4#,112,1
232080,244.166716,119,0.099166,75,D5#,112,1
232080,244.166716,239,0.199166,44,G2#,112,2
232200,244.266716,119,0.099166,63,D4#,112,1
232320,244.366716,119,0.099166,69,A4,112,1
232320,244.366716,239,0.199166,37,C2#,112,2
232440,244.466716,119,0.099166,68,G4#,112,1
232560,244.566716,119,0.099166,75,D5#,112,1
232560,244.566716,239,0.199166,52,E3,112,2
232680,244.666716,119,0.099166,63,D4#,112,1
232800,244.766716,119,0.099166,69,A4,112,1
232800,244.766716,239,0.199166,49,C3#,112,2
232920,244.866716,119,0.099166,68,G4#,112,1
233040,244.966716,119,0.099166,73,C5#,112,1
233040,244.966716,239,0.199166,44,G2#,112,2
233160,245.066716,119,0.099166,61,C4#,112,1
233280,245.166716,119,0.099166,64,E4,49,1
233280,245.166716,239,0.199166,37,C2#,49,2
233400,245.266716,119,0.099166,63,D4#,49,1
233520,245.366716,119,0.099166,68,G4#,49,1
233520,245.366716,239,0.199166,54,F3#,49,2
233640,245.466716,119,0.099166,56,G3#,49,1
233760,245.566716,119,0.099166,64,E4,49,1
233760,245.566716,239,0.199166,48,C3,49,2
233880,245.666716,119,0.099166,63,D4#,49,1
234000,245.766716,119,0.099166,68,G4#,49,1
234000,245.766716,239,0.199166,44,G2#,49,2
234120,245.866716,119,0.099166,56,G3#,49,1
234240,245.966716,119,0.099166,63,D4#,49,1
234240,245.966716,239,0.199166,37,C2#,49,2
234360,246.066716,119,0.099166,61,C4#,49,1
234480,246.166716,119,0.099166,68,G4#,49,1
234480,246.166716,239,0.199166,52,E3,49,2
234600,246.266716,119,0.099166,56,G3#,49,1
234720,246.366716,119,0.099166,69,A4,49,1
234720,246.366716,239,0.199166,49,C3#,49,2
234840,246.466716,119,0.099166,68,G4#,49,1
234960,246.566716,119,0.099166,76,E5,49,1
234960,246.566716,239,0.199166,44,G2#,49,2
235080,246.666716,119,0.099166,64,E4,49,1
235200,246.766716,119,0.099166,66,F4#,49,1
235200,246.766716,239,0.199166,37,C2#,49,2
235320,246.866716,119,0.099166,64,E4,49,1
235440,246.966716,119,0.099166,73,C5#,49,1
235440,246.966716,239,0.199166,56,G3#,49,2
235560,247.066716,119,0.099166,61,C4#,49,1
235680,247.166716,119,0.099166,69,A4,49,1
235680,247.166716,239,0.199166,49,C3#,49,2
235800,247.266716,119,0.099166,68,G4#,49,1
235920,247.366716,119,0.099166,76,E5,49,1
235920,247.366716,239,0.199166,44,G2#,49,2
236040,247.466716,119,0.099166,64,E4,49,1
236160,247.566716,119,0.099166,63,D4#,49,1
236160,247.566716,239,0.199166,37,C2#,49,2
236280,247.666716,119,0.099166,61,C4#,49,1
236400,247.766716,119,0.099166,68,G4#,49,1
236400,247.766716,239,0.199166,52,E3,49,2
236520,247.866716,119,0.099166,56,G3#,49,1
236640,247.966716,119,0.099166,69,A4,49,1
236640,247.966716,239,0.199166,49,C3#,49,2
236760,248.066716,119,0.099166,68,G4#,49,1
236880,248.166716,119,0.099166,76,E5,49,1
236880,248.166716,239,0.199166,44,G2#,49,2
237000,248.266716,119,0.099166,64,E4,49,1
237120,248.366716,119,0.099166,66,F4#,49,1
237120,248.366716,239,0.199166,37,C2#,49,2
237240,248.466716,119,0.099166,64,E4,49,1
237360,248.566716,119,0.099166,73,C5#,49,1
237360,248.566716,239,0.199166,56,G3#,49,2
237480,248.666716,119,0.099166,61,C4#,49,1
237600,248.766716,119,0.099166,69,A4,49,1
237600,248.766716,239,0.199166,49,C3#,49,2
237720,248.866716,119,0.099166,68,G4#,49,1
237840,248.966716,119,0.099166,76,E5,49,1
237840,248.966716,239,0.199166,44,G2#,49,2
237960,249.066716,119,0.099166,64,E4,49,1
238080,249.166716,119,0.099166,66,F4#,49,1
238080,249.166716,239,0.199166,37,C2#,49,2
238200,249.266716,119,0.099166,64,E4,49,1
238320,249.366716,119,0.099166,73,C5#,49,1
238320,249.366716,239,0.199166,52,E3,49,2
238440,249.466716,119,0.099166,61,C4#,49,1
238560,249.566716,119,0.099166,69,A4,49,1
238560,249.566716,239,0.199166,49,C3#,49,2
238680,249.666716,119,0.099166,68,G4#,49,1
238800,249.766716,119,0.099166,73,C5#,49,1
238800,249.766716,239,0.199166,44,G2#,49,2
238920,249.866716,119,0.099166,61,C4#,49,1
239040,249.966716,119,0.099166,66,F4#,49,1
239040,249.966716,239,0.199166,37,C2#,49,2
239160,250.066716,119,0.099166,64,E4,49,1
239280,250.166716,119,0.099166,73,C5#,49,1
239280,250.166716,239,0.199166,52,E3,49,2
239400,250.266716,119,0.099166,61,C4#,49,1
239520,250.366716,119,0.099166,69,A4,49,1
239520,250.366716,239,0.199166,49,C3#,49,2
239640,250.466716,119,0.099166,68,G4#,49,1
239760,250.566716,119,0.099166,73,C5#,49,1
239760,250.566716,239,0.199166,44,G2#,49,2
239880,250.666716,119,0.099166,61,C4#,49,1
240000,250.766716,119,0.099166,66,F4#,49,1
240000,250.766716,239,0.199166,37,C2#,49,2
240120,250.866716,119,0.099166,64,E4,49,1
240240,250.966716,119,0.099166,73,C5#,49,1
240240,250.966716,239,0.199166,52,E3,49,2
240360,251.066716,119,0.099166,61,C4#,49,1
240480,251.166716,119,0.099166,69,A4,49,1
240480,251.166716,239,0.199166,49,C3#,49,2
240600,251.266716,119,0.099166,68,G4#,49,1
240720,251.366716,119,0.099166,73,C5#,49,1
240720,251.366716,239,0.199166,44,G2#,49,2
240840,251.466716,119,0.099166,61,C4#,49,1
240960,251.566716,119,0.099166,66,F4#,49,1
240960,251.566716,239,0.199166,37,C2#,49,2
241080,251.666716,119,0.099166,64,E4,49,1
241200,251.766716,119,0.099166,73,C5#,49,1
241200,251.766716,239,0.199166,52,E3,49,2
241320,251.866716,119,0.099166,61,C4#,49,1
241440,251.966716,119,0.099166,69,A4,49,1
241440,251.966716,239,0.199166,49,C3#,49,2
241560,252.066716,119,0.099166,68,G4#,49,1
241680,252.166716,119,0.099166,73,C5#,49,1
241680,252.166716,239,0.199166,44,G2#,49,2
241800,252.266716,119,0.099166,61,C4#,49,1
241920,252.366716,119,0.099166,63,D4#,49,1
241920,252.366716,239,0.199166,37,C2#,49,2
242040,252.466716,119,0.099166,61,C4#,49,1
242160,252.566716,119,0.099166,68,G4#,49,1
242280,252.666716,119,0.099166,56,G3#,49,1
242400,252.766716,119,0.099166,63,D4#,49,1
242520,252.866716,119,0.099166,61,C4#,49,1
242640,252.966716,119,0.099166,68,G4#,49,1
242760,253.066716,119,0.099166,56,G3#,49,1
242880,253.166716,119,0.099166,63,D4#,49,1
243000,253.266716,119,0.099166,61,C4#,49,1
243120,253.366716,119,0.099166,68,G4#,49,1
243240,253.466716,119,0.099166,56,G3#,49,1
243360,253.566716,119,0.099166,63,D4#,49,1
243480,253.666716,119,0.099166,61,C4#,49,1
243600,253.766716,119,0.099166,68,G4#,49,1
243720,253.866716,119,0.099166,56,G3#,49,1
243840,253.966716,119,0.099166,63,D4#,49,1
243960,254.066716,119,0.099166,61,C4#,49,1
244080,254.166716,119,0.099166,68,G4#,49,1
244200,254.266716,119,0.099166,56,G3#,49,1
244320,254.366716,119,0.099166,63,D4#,49,1
244440,254.466716,119,0.099166,61,C4#,49,1
244560,254.566716,119,0.099166,68,G4#,49,1
244680,254.666716,119,0.099166,56,G3#,49,1
244800,254.766716,119,0.099166,63,D4#,49,1
244920,254.866716,119,0.099166,61,C4#,49,1
245040,254.966716,119,0.099166,68,G4#,49,1
245160,255.066716,119,0.099166,56,G3#,49,1
245280,255.166716,119,0.099166,63,D4#,49,1
245400,255.266716,119,0.099166,61,C4#,49,1
245520,255.366716,119,0.099166,68,G4#,49,1
245640,255.466716,119,0.099166,56,G3#,49,1
245760,255.566716,119,0.099166,63,D4#,33,1
245760,255.566716,1919,1.599166,37,C2#,33,2
245760,255.566716,1919,1.599166,44,G2#,33,2
245880,255.666716,119,0.099166,61,C4#,33,1
246000,255.766716,119,0.099166,68,G4#,33,1
246120,255.866716,119,0.099166,56,G3#,33,1
246240,255.966716,119,0.099166,63,D4#,33,1
246360,256.066716,119,0.099166,61,C4#,33,1
246480,256.166716,119,0.099166,68,G4#,33,1
246600,256.266716,119,0.099166,56,G3#,33,1
246720,256.366716,119,0.099166,63,D4#,33,1
246840,256.466716,119,0.099166,61,C4#,33,1
246960,256.566716,119,0.099166,68,G4#,33,1
247080,256.666716,119,0.099166,56,G3#,33,1
247200,256.766716,119,0.099166,63,D4#,33,1
247320,256.866716,119,0.099166,61,C4#,33,1
247440,256.966716,119,0.099166,68,G4#,33,1
247560,257.066716,119,0.099166,56,G3#,33,1
247680,257.166716,119,0.099166,63,D4#,33,1
247680,257.166716,479,0.399166,46,A2#,33,2
247800,257.266716,119,0.099166,61,C4#,33,1
247920,257.366716,119,0.099166,68,G4#,33,1
248040,257.466716,119,0.099166,56,G3#,33,1
248160,257.566716,119,0.099166,63,D4#,33,1
248160,257.566716,479,0.399166,44,G2#,33,2
248280,257.666716,119,0.099166,61,C4#,33,1
248400,257.766716,119,0.099166,68,G4#,33,1
248520,257.866716,119,0.099166,56,G3#,33,1
248640,257.966716,119,0.099166,63,D4#,33,1
248640,257.966716,479,0.399166,49,C3#,33,2
248760,258.066716,119,0.099166,61,C4#,33,1
248880,258.166716,119,0.099166,68,G4#,33,1
249000,258.266716,119,0.099166,56,G3#,33,1
249120,258.366716,119,0.099166,63,D4#,33,1
249120,258.366716,479,0.399166,51,D3#,33,2
249240,258.466716,119,0.099166,61,C4#,33,1
249360,258.566716,119,0.099166,68,G4#,33,1
249480,258.666716,119,0.099166,56,G3#,33,1
249600,258.766716,119,0.099166,63,D4#,33,1
249600,258.766716,1919,1.599166,53,F3,33,2
249720,258.866716,119,0.099166,61,C4#,33,1
249840,258.966716,119,0.099166,68,G4#,33,1
249960,259.066716,119,0.099166,56,G3#,33,1
250080,259.166716,119,0.099166,63,D4#,33,1
250200,259.266716,119,0.099166,61,C4#,33,1
250320,259.366716,119,0.099166,68,G4#,33,1
250440,259.466716,119,0.099166,56,G3#,33,1
250560,259.566716,119,0.099166,63,D4#,33,1
250680,259.666716,119,0.099166,61,C4#,33,1
250800,259.766716,119,0.099166,68,G4#,33,1
250920,259.866716,119,0.099166,56,G3#,33,1
251040,259.966716,119,0.099166,63,D4#,33,1
251160,260.066716,119,0.099166,61,C4#,33,1
251280,260.166716,119,0.099166,68,G4#,33,1
251400,260.266716,119,0.099166,56,G3#,33,1
251520,260.366716,119,0.099166,63,D4#,33,1
251520,260.366716,1919,1.599166,56,G3#,33,2
251640,260.466716,119,0.099166,61,C4#,33,1
251760,260.566716,119,0.099166,68,G4#,33,1
251880,260.666716,119,0.099166,56,G3#,33,1
252000,260.766716,119,0.099166,63,D4#,33,1
252120,260.866716,119,0.099166,61,C4#,33,1
252240,260.966716,119,0.099166,68,G4#,33,1
252360,261.066716,119,0.099166,56,G3#,33,1
252480,261.166716,119,0.099166,63,D4#,33,1
252600,261.266716,119,0.099166,61,C4#,33,1
252720,261.366716,119,0.099166,68,G4#,33,1
252840,261.466716,119,0.099166,56,G3#,33,1
252960,261.566716,119,0.099166,63,D4#,33,1
253080,261.666716,119,0.099166,61,C4#,33,1
253200,261.766716,119,0.099166,68,G4#,33,1
253320,261.866716,119,0.099166,56,G3#,33,1
253440,261.966716,119,0.099166,63,D4#,33,1
253440,261.966716,959,0.799166,54,F3#,33,2
253560,262.066716,119,0.099166,61,C4#,33,1
253680,262.166716,119,0.099166,68,G4#,33,1
253800,262.266716,119,0.099166,56,G3#,33,1
253920,262.366716,119,0.099166,63,D4#,33,1
254040,262.466716,119,0.099166,61,C4#,33,1
254160,262.566716,119,0.099166,68,G4#,33,1
254280,262.666716,119,0.099166,56,G3#,33,1
254400,262.766716,119,0.099166,63,D4#,33,1
254400,262.766716,959,0.799166,53,F3,33,2
254520,262.866716,119,0.099166,61,C4#,33,1
254640,262.966716,119,0.099166,68,G4#,33,1
254760,263.066716,119,0.099166,56,G3#,33,1
254880,263.166716,119,0.099166,63,D4#,33,1
255000,263.266716,119,0.099166,61,C4#,33,1
255120,263.366716,119,0.099166,68,G4#,33,1
255240,263.466716,119,0.099166,56,G3#,33,1
255360,263.566716,119,0.099166,63,D4#,33,1
255360,263.566716,959,0.799166,51,D3#,33,2
255480,263.666716,119,0.099166,61,C4#,33,1
255600,263.766716,119,0.099166,68,G4#,33,1
255720,263.866716,119,0.099166,56,G3#,33,1
255840,263.966716,119,0.099166,63,D4#,33,1
255960,264.066716,119,0.099166,61,C4#,33,1
256080,264.166716,119,0.099166,68,G4#,33,1
256200,264.266716,119,0.099166,56,G3#,33,1
256320,264.366716,119,0.099166,63,D4#,33,1
256320,264.366716,479,0.399166,53,F3,33,2
256440,264.466716,119,0.099166,61,C4#,33,1
256560,264.566716,119,0.099166,68,G4#,33,1
256680,264.666716,119,0.099166,56,G3#,33,1
256800,264.766716,119,0.099166,63,D4#,33,1
256800,264.766716,479,0.399166,49,C3#,33,2
256920,264.866716,119,0.099166,61,C4#,33,1
257040,264.966716,119,0.099166,68,G4#,33,1
257160,265.066716,119,0.099166,56,G3#,33,1
257280,265.166716,119,0.099166,63,D4#,33,1
257280,265.166716,1919,1.599166,44,G2#,33,2
257400,265.266716,119,0.099166,61,C4#,33,1
257520,265.366716,119,0.099166,68,G4#,33,1
257640,265.466716,119,0.099166,53,F3,33,1
257760,265.566716,119,0.099166,63,D4#,33,1
257880,265.666716,119,0.099166,61,C4#,33,1
258000,265.766716,119,0.099166,68,G4#,33,1
258120,265.866716,119,0.099166,53,F3,33,1
258240,265.966716,119,0.099166,63,D4#,33,1
258360,266.066716,119,0.099166,61,C4#,33,1
258480,266.166716,119,0.099166,68,G4#,33,1
258600,266.266716,119,0.099166,53,F3,33,1
258720,266.366716,119,0.099166,63,D4#,33,1
258840,266.466716,119,0.099166,61,C4#,33,1
258960,266.566716,119,0.099166,68,G4#,33,1
259080,266.666716,119,0.099166,53,F3,33,1
259200,266.766716,119,0.123958,65,F4,33,1
259200,266.766716,1919,1.998958,32,G1#,33,2
259200,266.766716,1919,1.998958,44,G2#,33,2
259320,266.891716,119,0.123958,63,D4#,33,1
259440,267.016716,119,0.123958,68,G4#,33,1
259560,267.141716,119,0.123958,54,F3#,33,1
259680,267.266716,119,0.123958,65,F4,33,1
259800,267.391716,119,0.123958,63,D4#,33,1
259920,267.516716,119,0.123958,68,G4#,33,1
260040,267.641716,119,0.123958,54,F3#,33,1
260160,267.766716,119,0.123958,65,F4,33,1
260280,267.891716,119,0.123958,63,D4#,33,1
260400,268.016716,119,0.123958,68,G4#,33,1
260520,268.141716,119,0.123958,54,F3#,33,1
260640,268.266716,119,0.123958,65,F4,33,1
260760,268.391716,119,0.123958,63,D4#,33,1
260880,268.516716,119,0.123958,68,G4#,33,1
261000,268.641716,119,0.123958,54,F3#,33,1
261120,268.766716,1919,1.998958,37,C2#,33,1
261183,268.832341,1855,1.932291,44,G2#,33,1
261246,268.897966,1792,1.866666,54,F3#,33,1
261312,268.966716,1727,1.798958,56,G3#,33,1
261375,269.032341,1663,1.732291,60,C4,33,1
261438,269.097966,1600,1.666666,63,D4#,33,1
263040,270.766716,1919,1.998958,37,C2#,33,1
263103,270.832341,1855,1.932291,44,G2#,33,1
263166,270.897966,1792,1.866666,53,F3,33,1
263232,270.966716,1727,1.798958,56,G3#,33,1
263295,271.032341,1663,1.732291,61,C4#,33,1
