start_ticks,start_secs,dur_ticks,dur_secs,pitch,fullNoteOctave,velocity,part
0,0.0,119,0.123958,71,B4,80,1
120,0.125,359,0.373958,71,B4,80,1
120,0.125,479,0.498958,55,G3,80,2
240,0.25,119,0.123958,59,B3,80,1
360,0.375,119,0.123958,62,D4,80,1
480,0.5,239,0.248958,67,G4,80,1
480,0.5,119,0.123958,72,C5,80,1
600,0.625,59,0.061458,74,D5,80,1
600,0.625,479,0.498958,57,A3,80,2
660,0.6875,59,0.061458,72,C5,80,1
720,0.75,119,0.123958,67,G4,80,1
720,0.75,59,0.061458,74,D5,80,1
780,0.8125,59,0.061458,72,C5,80,1
840,0.875,119,0.123958,66,F4#,80,1
840,0.875,59,0.061458,74,D5,80,1
900,0.9375,59,0.061458,72,C5,80,1
960,1.0,119,0.123958,64,E4,80,1
960,1.0,59,0.061458,71,B4,80,1
1020,1.0625,59,0.061458,72,C5,80,1
1080,1.125,599,0.623958,74,D5,80,1
1080,1.125,719,0.748958,59,B3,80,2
1200,1.25,119,0.123958,62,D4,80,1
1320,1.375,119,0.123958,66,F4#,80,1
1440,1.5,1319,1.373958,67,G4,80,1
1560,1.625,239,0.248958,71,B4,80,1
1680,1.75,119,0.123958,74,D5,80,1
1800,1.875,119,0.123958,78,F5#,80,1
1800,1.875,239,0.248958,59,B3,80,2
1920,2.0,119,0.123958,79,G5,80,1
2040,2.125,119,0.123958,76,E5,80,1
2040,2.125,239,0.248958,60,C4,80,2
2160,2.25,119,0.123958,79,G5,80,1
2280,2.375,119,0.123958,74,D5,80,1
2280,2.375,239,0.248958,59,B3,80,2
2400,2.5,119,0.123958,79,G5,80,1
2520,2.625,119,0.123958,72,C5,80,1
2520,2.625,479,0.498958,57,A3,80,2
2640,2.75,119,0.123958,71,B4,80,1
2760,2.875,239,0.248958,66,F4#,80,1
2760,2.875,119,0.123958,72,C5,80,1
2880,3.0,119,0.123958,81,A5,80,1
3000,3.125,119,0.123958,72,C5,80,1
3000,3.125,479,0.498958,55,G3,80,2
3120,3.25,119,0.123958,71,B4,80,1
3240,3.375,239,0.248958,59,B3,80,1
3240,3.375,119,0.123958,69,A4,80,1
3360,3.5,119,0.123958,67,G4,80,1
3480,3.625,239,0.248958,62,D4,80,1
3480,3.625,599,0.623958,71,B4,80,1
3600,3.75,119,0.123958,54,F3#,80,2
3720,3.875,239,0.248958,67,G4,80,1
3720,3.875,119,0.123958,52,E3,80,2
3840,4.0,119,0.123958,50,D3,80,2
3960,4.125,239,0.248958,64,E4,80,1
3960,4.125,719,0.748958,49,C3#,80,2
4080,4.25,119,0.123958,76,E5,80,1
4200,4.375,239,0.248958,52,E3,80,1
4200,4.375,119,0.123958,69,A4,80,1
4320,4.5,119,0.123958,76,E5,80,1
4440,4.625,479,0.498958,57,A3,80,1
4440,4.625,119,0.123958,67,G4,80,1
4560,4.75,119,0.123958,66,F4#,80,1
4680,4.875,119,0.123958,67,G4,80,1
4680,4.875,239,0.248958,49,C3#,80,2
4800,5.0,119,0.123958,76,E5,80,1
4920,5.125,119,0.123958,67,G4,80,1
4920,5.125,719,0.748958,50,D3,80,2
5040,5.25,119,0.123958,66,F4#,80,1
5160,5.375,239,0.248958,54,F3#,80,1
5160,5.375,119,0.123958,64,E4,80,1
5280,5.5,119,0.123958,62,D4,80,1
5400,5.625,479,0.498958,57,A3,80,1
5400,5.625,119,0.123958,64,E4,80,1
5520,5.75,119,0.123958,66,F4#,80,1
5640,5.875,119,0.123958,67,G4,80,1
5640,5.875,239,0.248958,48,C3,80,2
5760,6.0,119,0.123958,66,F4#,80,1
5880,6.125,239,0.248958,50,D3,80,1
5880,6.125,119,0.123958,67,G4,80,1
5880,6.125,479,0.498958,47,B2,80,2
6000,6.25,119,0.123958,69,A4,80,1
6120,6.375,479,0.498958,55,G3,80,1
6120,6.375,119,0.123958,67,G4,80,1
6240,6.5,119,0.123958,69,A4,80,1
6360,6.625,59,0.061458,71,B4,80,1
6360,6.625,479,0.498958,45,A2,80,2
6420,6.6875,59,0.061458,71,B4,80,1
6480,6.75,59,0.061458,69,A4,80,1
6540,6.8125,59,0.061458,71,B4,80,1
6600,6.875,239,0.248958,54,F3#,80,1
6600,6.875,59,0.061458,71,B4,80,1
6660,6.9375,59,0.061458,69,A4,80,1
6720,7.0,59,0.061458,67,G4,80,1
6780,7.0625,59,0.061458,69,A4,80,1
6840,7.125,479,0.498958,55,G3,80,1
6840,7.125,599,0.623958,71,B4,80,1
6960,7.25,119,0.123958,43,G2,80,2
7080,7.375,119,0.123958,47,B2,80,2
7200,7.5,119,0.123958,50,D3,80,2
7320,7.625,239,0.248958,55,G3,80,2
7440,7.75,119,0.123958,71,B4,80,1
7560,7.875,119,0.123958,76,E5,80,1
7560,7.875,119,0.123958,57,A3,80,2
7680,8.0,119,0.123958,75,D5#,80,1
7680,8.0,119,0.123958,59,B3,80,2
7800,8.125,119,0.123958,76,E5,80,1
7800,8.125,239,0.248958,60,C4,80,2
7920,8.25,119,0.123958,78,F5#,80,1
8040,8.375,479,0.498958,64,E4,80,1
8040,8.375,119,0.123958,76,E5,80,1
8040,8.375,239,0.248958,55,G3,80,2
8160,8.5,119,0.123958,78,F5#,80,1
8280,8.625,59,0.061458,79,G5,80,1
8280,8.625,239,0.248958,57,A3,80,2
8340,8.6875,59,0.061458,78,F5#,80,1
8400,8.75,59,0.061458,79,G5,80,1
8460,8.8125,59,0.061458,78,F5#,80,1
8520,8.875,239,0.248958,63,D4#,80,1
8520,8.875,59,0.061458,79,G5,80,1
8520,8.875,239,0.248958,59,B3,80,2
8580,8.9375,59,0.061458,78,F5#,80,1
8640,9.0,59,0.061458,76,E5,80,1
8700,9.0625,59,0.061458,78,F5#,80,1
8760,9.125,479,0.498958,64,E4,80,1
8760,9.125,599,0.623958,79,G5,80,1
8760,9.125,119,0.123958,64,E4,80,2
8880,9.25,119,0.123958,59,B3,80,2
9000,9.375,119,0.123958,55,G3,80,2
9120,9.5,119,0.123958,59,B3,80,2
9240,9.625,239,0.248958,52,E3,80,2
9360,9.75,119,0.123958,78,F5#,80,1
9480,9.875,119,0.123958,76,E5,80,1
9480,9.875,239,0.248958,55,G3,80,2
9600,10.0,119,0.123958,74,D5,80,1
9720,10.125,119,0.123958,73,C5#,80,1
9720,10.125,719,0.748958,57,A3,80,2
9840,10.25,119,0.123958,76,E5,80,1
9960,10.375,239,0.248958,59,B3,80,1
9960,10.375,119,0.123958,71,B4,80,1
10080,10.5,119,0.123958,76,E5,80,1
10200,10.625,479,0.498958,61,C4#,80,1
10200,10.625,119,0.123958,69,A4,80,1
10320,10.75,119,0.123958,79,G5,80,1
10440,10.875,119,0.123958,78,F5#,80,1
10440,10.875,239,0.248958,57,A3,80,2
10560,11.0,119,0.123958,76,E5,80,1
10680,11.125,1199,1.248958,62,D4,80,1
10680,11.125,119,0.123958,78,F5#,80,1
10680,11.125,239,0.248958,50,D3,80,2
10800,11.25,119,0.123958,81,A5,80,1
10920,11.375,119,0.123958,76,E5,80,1
10920,11.375,239,0.248958,52,E3,80,2
11040,11.5,119,0.123958,81,A5,80,1
11160,11.625,119,0.123958,74,D5,80,1
11160,11.625,239,0.248958,54,F3#,80,2
11280,11.75,119,0.123958,72,C5,80,1
11400,11.875,119,0.123958,71,B4,80,1
11400,11.875,239,0.248958,50,D3,80,2
11520,12.0,119,0.123958,69,A4,80,1
11640,12.125,119,0.123958,71,B4,80,1
11640,12.125,959,0.998958,55,G3,80,2
11760,12.25,119,0.123958,74,D5,80,1
11880,12.375,239,0.248958,60,C4,80,1
11880,12.375,119,0.123958,69,A4,80,1
12000,12.5,119,0.123958,74,D5,80,1
12120,12.625,239,0.248958,59,B3,80,1
12120,12.625,119,0.123958,67,G4,80,1
12240,12.75,119,0.123958,74,D5,80,1
12360,12.875,239,0.248958,57,A3,80,1
12360,12.875,119,0.123958,66,F4#,80,1
12480,13.0,119,0.123958,74,D5,80,1
12600,13.125,719,0.748958,55,G3,80,1
12600,13.125,119,0.123958,64,E4,80,1
12600,13.125,239,0.248958,55,G3,80,2
12720,13.25,119,0.123958,74,D5,80,1
12840,13.375,119,0.123958,73,C5#,80,1
12840,13.375,239,0.248958,52,E3,80,2
12960,13.5,119,0.123958,71,B4,80,1
13080,13.625,119,0.123958,73,C5#,80,1
13080,13.625,239,0.248958,45,A2,80,2
13200,13.75,119,0.123958,76,E5,80,1
13320,13.875,239,0.248958,52,E3,80,1
13320,13.875,119,0.123958,69,A4,80,1
13320,13.875,239,0.248958,49,C3#,80,2
13440,14.0,119,0.123958,79,G5,80,1
13560,14.125,119,0.123958,78,F5#,80,1
13560,14.125,359,0.373958,50,D3,80,2
13680,14.25,119,0.123958,76,E5,80,1
13800,14.375,119,0.123958,78,F5#,80,1
13800,14.375,239,0.248958,43,G2,80,2
13920,14.5,119,0.123958,74,D5,80,1
13920,14.5,119,0.123958,52,E3,80,2
14040,14.625,359,0.373958,73,C5#,80,1
14040,14.625,479,0.498958,45,A2,80,2
14040,14.625,239,0.248958,54,F3#,80,2
14280,14.875,239,0.248958,55,G3,80,2
14400,15.0,119,0.123958,74,D5,80,1
14520,15.125,479,0.498958,74,D5,80,1
14520,15.125,119,0.123958,50,D3,80,2
14520,15.125,119,0.123958,54,F3#,80,2
14640,15.25,119,0.123958,62,D4,80,2
14760,15.375,119,0.123958,52,E3,80,2
14760,15.375,119,0.123958,55,G3,80,2
14880,15.5,119,0.123958,62,D4,80,2
15000,15.625,119,0.123958,54,F3#,80,2
15000,15.625,119,0.123958,57,A3,80,2
15120,15.75,119,0.123958,78,F5#,80,1
15120,15.75,119,0.123958,62,D4,80,2
15240,15.875,119,0.123958,81,A5,80,1
15240,15.875,119,0.123958,50,D3,80,2
15240,15.875,119,0.123958,54,F3#,80,2
15360,16.0,119,0.123958,84,C6,80,1
15360,16.0,119,0.123958,62,D4,80,2
15480,16.125,359,0.373958,83,B5,80,1
15480,16.125,119,0.123958,55,G3,80,2
15600,16.25,119,0.123958,62,D4,80,2
15720,16.375,119,0.123958,57,A3,80,2
15840,16.5,119,0.123958,81,A5,80,1
15840,16.5,119,0.123958,62,D4,80,2
15960,16.625,119,0.123958,79,G5,80,1
15960,16.625,119,0.123958,59,B3,80,2
16080,16.75,119,0.123958,78,F5#,80,1
16080,16.75,119,0.123958,62,D4,80,2
16200,16.875,119,0.123958,76,E5,80,1
16200,16.875,119,0.123958,55,G3,80,2
16320,17.0,119,0.123958,74,D5,80,1
16320,17.0,119,0.123958,62,D4,80,2
16440,17.125,359,0.373958,79,G5,80,1
16440,17.125,119,0.123958,52,E3,80,2
16560,17.25,119,0.123958,62,D4,80,2
16680,17.375,119,0.123958,54,F3#,80,2
16800,17.5,119,0.123958,78,F5#,80,1
16800,17.5,119,0.123958,62,D4,80,2
16920,17.625,119,0.123958,76,E5,80,1
16920,17.625,119,0.123958,55,G3,80,2
17040,17.75,119,0.123958,74,D5,80,1
17040,17.75,119,0.123958,62,D4,80,2
17160,17.875,119,0.123958,73,C5#,80,1
17160,17.875,119,0.123958,52,E3,80,2
17280,18.0,119,0.123958,71,B4,80,1
17280,18.0,119,0.123958,62,D4,80,2
17400,18.125,119,0.123958,73,C5#,80,1
17400,18.125,119,0.123958,57,A3,80,2
17520,18.25,119,0.123958,69,A4,80,1
17520,18.25,119,0.123958,61,C4#,80,2
17640,18.375,119,0.123958,74,D5,80,1
17640,18.375,119,0.123958,59,B3,80,2
17760,18.5,119,0.123958,69,A4,80,1
17760,18.5,119,0.123958,62,D4,80,2
17880,18.625,119,0.123958,76,E5,80,1
17880,18.625,119,0.123958,61,C4#,80,2
18000,18.75,119,0.123958,69,A4,80,1
18000,18.75,119,0.123958,64,E4,80,2
18120,18.875,119,0.123958,79,G5,80,1
18120,18.875,119,0.123958,57,A3,80,2
18240,19.0,119,0.123958,76,E5,80,1
18240,19.0,119,0.123958,61,C4#,80,2
18360,19.125,119,0.123958,77,F5,80,1
18360,19.125,239,0.248958,62,D4,80,2
18480,19.25,119,0.123958,69,A4,80,1
18600,19.375,119,0.123958,74,D5,80,1
18600,19.375,239,0.248958,60,C4,80,2
18720,19.5,119,0.123958,76,E5,80,1
18840,19.625,119,0.123958,77,F5,80,1
18840,19.625,239,0.248958,58,A3#,80,2
18960,19.75,119,0.123958,74,D5,80,1
19080,19.875,119,0.123958,78,F5#,80,1
19080,19.875,239,0.248958,57,A3,80,2
19200,20.0,119,0.123958,74,D5,80,1
19320,20.125,119,0.123958,79,G5,80,1
19320,20.125,239,0.248958,58,A3#,80,2
19440,20.25,119,0.123958,74,D5,80,1
19560,20.375,119,0.123958,82,A5#,80,1
19560,20.375,239,0.248958,55,G3,80,2
19680,20.5,119,0.123958,81,A5,80,1
19800,20.625,119,0.123958,80,G5#,80,1
19800,20.625,239,0.248958,52,E3,80,2
19920,20.75,119,0.123958,74,D5,80,1
20040,20.875,119,0.123958,73,C5#,80,1
20040,20.875,239,0.248958,57,A3,80,2
20160,21.0,119,0.123958,79,G5,80,1
20280,21.125,119,0.123958,78,F5#,80,1
20280,21.125,239,0.248958,62,D4,80,2
20400,21.25,119,0.123958,72,C5,80,1
20520,21.375,239,0.248958,71,B4,80,1
20520,21.375,239,0.248958,55,G3,80,2
20640,21.5,119,0.123958,67,G4,80,1
20640,21.5,119,0.123958,76,E5,80,1
20760,21.625,239,0.248958,66,F4#,80,1
20760,21.625,239,0.248958,69,A4,80,1
20760,21.625,479,0.498958,57,A3,80,2
20880,21.75,119,0.123958,74,D5,80,1
21000,21.875,239,0.248958,64,E4,80,1
21000,21.875,359,0.373958,67,G4,80,1
21120,22.0,119,0.123958,73,C5#,80,1
21240,22.125,959,0.998958,74,D5,80,1
21240,22.125,479,0.498958,62,D4,80,2
21360,22.25,119,0.123958,67,G4,80,1
21480,22.375,1559,1.623958,69,A4,80,1
21600,22.5,119,0.123958,64,E4,80,1
21720,22.625,1319,1.373958,66,F4#,80,1
21840,22.75,119,0.123958,61,C4#,80,2
21960,22.875,1079,1.123958,62,D4,80,2
22080,23.0,119,0.123958,57,A3,80,2
22200,23.125,839,0.873958,74,D5,80,1
22200,23.125,839,0.873958,50,D3,80,2
23040,24.0,119,0.123958,71,B4,80,1
23160,24.125,119,0.123958,55,G3,80,1
23160,24.125,359,0.373958,71,B4,80,1
23160,24.125,479,0.498958,55,G3,80,2
23280,24.25,119,0.123958,59,B3,80,1
23400,24.375,119,0.123958,62,D4,80,1
23520,24.5,239,0.248958,67,G4,80,1
23520,24.5,119,0.123958,72,C5,80,1
23640,24.625,59,0.061458,74,D5,80,1
23640,24.625,479,0.498958,57,A3,80,2
23700,24.6875,59,0.061458,72,C5,80,1
23760,24.75,119,0.123958,67,G4,80,1
23760,24.75,59,0.061458,74,D5,80,1
23820,24.8125,59,0.061458,72,C5,80,1
23880,24.875,119,0.123958,66,F4#,80,1
23880,24.875,59,0.061458,74,D5,80,1
23940,24.9375,59,0.061458,72,C5,80,1
24000,25.0,119,0.123958,64,E4,80,1
24000,25.0,59,0.061458,71,B4,80,1
24060,25.0625,59,0.061458,72,C5,80,1
24120,25.125,599,0.623958,74,D5,80,1
24120,25.125,719,0.748958,59,B3,80,2
24240,25.25,119,0.123958,62,D4,80,1
24360,25.375,119,0.123958,66,F4#,80,1
24480,25.5,1319,1.373958,67,G4,80,1
24600,25.625,239,0.248958,71,B4,80,1
24720,25.75,119,0.123958,74,D5,80,1
24840,25.875,119,0.123958,78,F5#,80,1
24840,25.875,239,0.248958,59,B3,80,2
24960,26.0,119,0.123958,79,G5,80,1
25080,26.125,119,0.123958,76,E5,80,1
25080,26.125,239,0.248958,60,C4,80,2
25200,26.25,119,0.123958,79,G5,80,1
25320,26.375,119,0.123958,74,D5,80,1
25320,26.375,239,0.248958,59,B3,80,2
25440,26.5,119,0.123958,79,G5,80,1
25560,26.625,119,0.123958,72,C5,80,1
25560,26.625,479,0.498958,57,A3,80,2
25680,26.75,119,0.123958,71,B4,80,1
25800,26.875,239,0.248958,66,F4#,80,1
25800,26.875,119,0.123958,72,C5,80,1
25920,27.0,119,0.123958,81,A5,80,1
26040,27.125,119,0.123958,72,C5,80,1
26040,27.125,479,0.498958,55,G3,80,2
26160,27.25,119,0.123958,71,B4,80,1
26280,27.375,239,0.248958,59,B3,80,1
26280,27.375,119,0.123958,69,A4,80,1
26400,27.5,119,0.123958,67,G4,80,1
26520,27.625,239,0.248958,62,D4,80,1
26520,27.625,599,0.623958,71,B4,80,1
26640,27.75,119,0.123958,54,F3#,80,2
26760,27.875,239,0.248958,67,G4,80,1
26760,27.875,119,0.123958,52,E3,80,2
26880,28.0,119,0.123958,50,D3,80,2
27000,28.125,239,0.248958,64,E4,80,1
27000,28.125,719,0.748958,49,C3#,80,2
27120,28.25,119,0.123958,76,E5,80,1
27240,28.375,239,0.248958,52,E3,80,1
27240,28.375,119,0.123958,69,A4,80,1
27360,28.5,119,0.123958,76,E5,80,1
27480,28.625,479,0.498958,57,A3,80,1
27480,28.625,119,0.123958,67,G4,80,1
27600,28.75,119,0.123958,66,F4#,80,1
27720,28.875,119,0.123958,67,G4,80,1
27720,28.875,239,0.248958,49,C3#,80,2
27840,29.0,119,0.123958,76,E5,80,1
27960,29.125,119,0.123958,67,G4,80,1
27960,29.125,719,0.748958,50,D3,80,2
28080,29.25,119,0.123958,66,F4#,80,1
28200,29.375,239,0.248958,54,F3#,80,1
28200,29.375,119,0.123958,64,E4,80,1
28320,29.5,119,0.123958,62,D4,80,1
28440,29.625,479,0.498958,57,A3,80,1
28440,29.625,119,0.123958,64,E4,80,1
28560,29.75,119,0.123958,66,F4#,80,1
28680,29.875,119,0.123958,67,G4,80,1
28680,29.875,239,0.248958,48,C3,80,2
28800,30.0,119,0.123958,66,F4#,80,1
28920,30.125,239,0.248958,50,D3,80,1
28920,30.125,119,0.123958,67,G4,80,1
28920,30.125,479,0.498958,47,B2,80,2
29040,30.25,119,0.123958,69,A4,80,1
29160,30.375,479,0.498958,55,G3,80,1
29160,30.375,119,0.123958,67,G4,80,1
29280,30.5,119,0.123958,69,A4,80,1
29400,30.625,59,0.061458,71,B4,80,1
29400,30.625,479,0.498958,45,A2,80,2
29460,30.6875,59,0.061458,71,B4,80,1
29520,30.75,59,0.061458,69,A4,80,1
29580,30.8125,59,0.061458,71,B4,80,1
29640,30.875,239,0.248958,54,F3#,80,1
29640,30.875,59,0.061458,71,B4,80,1
29700,30.9375,59,0.061458,69,A4,80,1
29760,31.0,59,0.061458,67,G4,80,1
29820,31.0625,59,0.061458,69,A4,80,1
29880,31.125,479,0.498958,55,G3,80,1
29880,31.125,599,0.623958,71,B4,80,1
30000,31.25,119,0.123958,43,G2,80,2
30120,31.375,119,0.123958,47,B2,80,2
30240,31.5,119,0.123958,50,D3,80,2
30360,31.625,239,0.248958,55,G3,80,2
30480,31.75,119,0.123958,71,B4,80,1
30600,31.875,119,0.123958,76,E5,80,1
30600,31.875,119,0.123958,57,A3,80,2
30720,32.0,119,0.123958,75,D5#,80,1
30720,32.0,119,0.123958,59,B3,80,2
30840,32.125,119,0.123958,76,E5,80,1
30840,32.125,239,0.248958,60,C4,80,2
30960,32.25,119,0.123958,78,F5#,80,1
31080,32.375,479,0.498958,64,E4,80,1
31080,32.375,119,0.123958,76,E5,80,1
31080,32.375,239,0.248958,55,G3,80,2
31200,32.5,119,0.123958,78,F5#,80,1
31320,32.625,59,0.061458,79,G5,80,1
31320,32.625,239,0.248958,57,A3,80,2
31380,32.6875,59,0.061458,78,F5#,80,1
31440,32.75,59,0.061458,79,G5,80,1
31500,32.8125,59,0.061458,78,F5#,80,1
31560,32.875,239,0.248958,63,D4#,80,1
31560,32.875,59,0.061458,79,G5,80,1
31560,32.875,239,0.248958,59,B3,80,2
31620,32.9375,59,0.061458,78,F5#,80,1
31680,33.0,59,0.061458,76,E5,80,1
31740,33.0625,59,0.061458,78,F5#,80,1
31800,33.125,479,0.498958,64,E4,80,1
31800,33.125,599,0.623958,79,G5,80,1
31800,33.125,119,0.123958,64,E4,80,2
31920,33.25,119,0.123958,59,B3,80,2
32040,33.375,119,0.123958,55,G3,80,2
32160,33.5,119,0.123958,59,B3,80,2
32280,33.625,239,0.248958,52,E3,80,2
32400,33.75,119,0.123958,78,F5#,80,1
32520,33.875,119,0.123958,76,E5,80,1
32520,33.875,239,0.248958,55,G3,80,2
32640,34.0,119,0.123958,74,D5,80,1
32760,34.125,119,0.123958,73,C5#,80,1
32760,34.125,719,0.748958,57,A3,80,2
32880,34.25,119,0.123958,76,E5,80,1
33000,34.375,239,0.248958,59,B3,80,1
33000,34.375,119,0.123958,71,B4,80,1
33120,34.5,119,0.123958,76,E5,80,1
33240,34.625,479,0.498958,61,C4#,80,1
33240,34.625,119,0.123958,69,A4,80,1
33360,34.75,119,0.123958,79,G5,80,1
33480,34.875,119,0.123958,78,F5#,80,1
33480,34.875,239,0.248958,57,A3,80,2
33600,35.0,119,0.123958,76,E5,80,1
33720,35.125,1199,1.248958,62,D4,80,1
33720,35.125,119,0.123958,78,F5#,80,1
33720,35.125,239,0.248958,50,D3,80,2
33840,35.25,119,0.123958,81,A5,80,1
33960,35.375,119,0.123958,76,E5,80,1
33960,35.375,239,0.248958,52,E3,80,2
34080,35.5,119,0.123958,81,A5,80,1
34200,35.625,119,0.123958,74,D5,80,1
34200,35.625,239,0.248958,54,F3#,80,2
34320,35.75,119,0.123958,72,C5,80,1
34440,35.875,119,0.123958,71,B4,80,1
34440,35.875,239,0.248958,50,D3,80,2
34560,36.0,119,0.123958,69,A4,80,1
34680,36.125,119,0.123958,71,B4,80,1
34680,36.125,959,0.998958,55,G3,80,2
34800,36.25,119,0.123958,74,D5,80,1
34920,36.375,239,0.248958,60,C4,80,1
34920,36.375,119,0.123958,69,A4,80,1
35040,36.5,119,0.123958,74,D5,80,1
35160,36.625,239,0.248958,59,B3,80,1
35160,36.625,119,0.123958,67,G4,80,1
35280,36.75,119,0.123958,74,D5,80,1
35400,36.875,239,0.248958,57,A3,80,1
35400,36.875,119,0.123958,66,F4#,80,1
35520,37.0,119,0.123958,74,D5,80,1
35640,37.125,719,0.748958,55,G3,80,1
35640,37.125,119,0.123958,64,E4,80,1
35640,37.125,239,0.248958,55,G3,80,2
35760,37.25,119,0.123958,74,D5,80,1
35880,37.375,119,0.123958,73,C5#,80,1
35880,37.375,239,0.248958,52,E3,80,2
36000,37.5,119,0.123958,71,B4,80,1
36120,37.625,119,0.123958,73,C5#,80,1
36120,37.625,239,0.248958,45,A2,80,2
36240,37.75,119,0.123958,76,E5,80,1
36360,37.875,239,0.248958,52,E3,80,1
36360,37.875,119,0.123958,69,A4,80,1
36360,37.875,239,0.248958,49,C3#,80,2
36480,38.0,119,0.123958,79,G5,80,1
36600,38.125,119,0.123958,78,F5#,80,1
36600,38.125,359,0.373958,50,D3,80,2
36720,38.25,119,0.123958,76,E5,80,1
36840,38.375,119,0.123958,78,F5#,80,1
36840,38.375,239,0.248958,43,G2,80,2
36960,38.5,119,0.123958,74,D5,80,1
36960,38.5,119,0.123958,52,E3,80,2
37080,38.625,359,0.373958,73,C5#,80,1
37080,38.625,479,0.498958,45,A2,80,2
37080,38.625,239,0.248958,54,F3#,80,2
37320,38.875,239,0.248958,55,G3,80,2
37440,39.0,119,0.123958,74,D5,80,1
37560,39.125,479,0.498958,74,D5,80,1
37560,39.125,119,0.123958,50,D3,80,2
37560,39.125,119,0.123958,54,F3#,80,2
37680,39.25,119,0.123958,62,D4,80,2
37800,39.375,119,0.123958,52,E3,80,2
37800,39.375,119,0.123958,55,G3,80,2
37920,39.5,119,0.123958,62,D4,80,2
38040,39.625,119,0.123958,54,F3#,80,2
38040,39.625,119,0.123958,57,A3,80,2
38160,39.75,119,0.123958,78,F5#,80,1
38160,39.75,119,0.123958,62,D4,80,2
38280,39.875,119,0.123958,81,A5,80,1
38280,39.875,119,0.123958,50,D3,80,2
38280,39.875,119,0.123958,54,F3#,80,2
38400,40.0,119,0.123958,84,C6,80,1
38400,40.0,119,0.123958,62,D4,80,2
38520,40.125,359,0.373958,83,B5,80,1
38520,40.125,119,0.123958,55,G3,80,2
38640,40.25,119,0.123958,62,D4,80,2
38760,40.375,119,0.123958,57,A3,80,2
38880,40.5,119,0.123958,81,A5,80,1
38880,40.5,119,0.123958,62,D4,80,2
39000,40.625,119,0.123958,79,G5,80,1
39000,40.625,119,0.123958,59,B3,80,2
39120,40.75,119,0.123958,78,F5#,80,1
39120,40.75,119,0.123958,62,D4,80,2
39240,40.875,119,0.123958,76,E5,80,1
39240,40.875,119,0.123958,55,G3,80,2
39360,41.0,119,0.123958,74,D5,80,1
39360,41.0,119,0.123958,62,D4,80,2
39480,41.125,359,0.373958,79,G5,80,1
39480,41.125,119,0.123958,52,E3,80,2
39600,41.25,119,0.123958,62,D4,80,2
39720,41.375,119,0.123958,54,F3#,80,2
39840,41.5,119,0.123958,78,F5#,80,1
39840,41.5,119,0.123958,62,D4,80,2
39960,41.625,119,0.123958,76,E5,80,1
39960,41.625,119,0.123958,55,G3,80,2
40080,41.75,119,0.123958,74,D5,80,1
40080,41.75,119,0.123958,62,D4,80,2
40200,41.875,119,0.123958,73,C5#,80,1
40200,41.875,119,0.123958,52,E3,80,2
40320,42.0,119,0.123958,71,B4,80,1
40320,42.0,119,0.123958,62,D4,80,2
40440,42.125,119,0.123958,73,C5#,80,1
40440,42.125,119,0.123958,57,A3,80,2
40560,42.25,119,0.123958,69,A4,80,1
40560,42.25,119,0.123958,61,C4#,80,2
40680,42.375,119,0.123958,74,D5,80,1
40680,42.375,119,0.123958,59,B3,80,2
40800,42.5,119,0.123958,69,A4,80,1
40800,42.5,119,0.123958,62,D4,80,2
40920,42.625,119,0.123958,76,E5,80,1
40920,42.625,119,0.123958,61,C4#,80,2
41040,42.75,119,0.123958,69,A4,80,1
41040,42.75,119,0.123958,64,E4,80,2
41160,42.875,119,0.123958,79,G5,80,1
41160,42.875,119,0.123958,57,A3,80,2
41280,43.0,119,0.123958,76,E5,80,1
41280,43.0,119,0.123958,61,C4#,80,2
41400,43.125,119,0.123958,77,F5,80,1
41400,43.125,239,0.248958,62,D4,80,2
41520,43.25,119,0.123958,69,A4,80,1
41640,43.375,119,0.123958,74,D5,80,1
41640,43.375,239,0.248958,60,C4,80,2
41760,43.5,119,0.123958,76,E5,80,1
41880,43.625,119,0.123958,77,F5,80,1
41880,43.625,239,0.248958,58,A3#,80,2
42000,43.75,119,0.123958,74,D5,80,1
42120,43.875,119,0.123958,78,F5#,80,1
42120,43.875,239,0.248958,57,A3,80,2
42240,44.0,119,0.123958,74,D5,80,1
42360,44.125,119,0.123958,79,G5,80,1
42360,44.125,239,0.248958,58,A3#,80,2
42480,44.25,119,0.123958,74,D5,80,1
42600,44.375,119,0.123958,82,A5#,80,1
42600,44.375,239,0.248958,55,G3,80,2
42720,44.5,119,0.123958,81,A5,80,1
42840,44.625,119,0.123958,80,G5#,80,1
42840,44.625,239,0.248958,52,E3,80,2
42960,44.75,119,0.123958,74,D5,80,1
43080,44.875,119,0.123958,73,C5#,80,1
43080,44.875,239,0.248958,57,A3,80,2
43200,45.0,119,0.123958,79,G5,80,1
43320,45.125,119,0.123958,78,F5#,80,1
43320,45.125,239,0.248958,62,D4,80,2
43440,45.25,119,0.123958,72,C5,80,1
43560,45.375,239,0.248958,71,B4,80,1
43560,45.375,239,0.248958,55,G3,80,2
43680,45.5,119,0.123958,67,G4,80,1
43680,45.5,119,0.123958,76,E5,80,1
43800,45.625,239,0.248958,66,F4#,80,1
43800,45.625,239,0.248958,69,A4,80,1
43800,45.625,479,0.498958,57,A3,80,2
43920,45.75,119,0.123958,74,D5,80,1
44040,45.875,239,0.248958,64,E4,80,1
44040,45.875,359,0.373958,67,G4,80,1
44160,46.0,119,0.123958,73,C5#,80,1
44280,46.125,959,0.998958,74,D5,80,1
44280,46.125,479,0.498958,62,D4,80,2
44400,46.25,119,0.123958,67,G4,80,1
44520,46.375,1559,1.623958,69,A4,80,1
44640,46.5,119,0.123958,64,E4,80,1
44760,46.625,1319,1.373958,66,F4#,80,1
44880,46.75,119,0.123958,61,C4#,80,2
45000,46.875,1079,1.123958,62,D4,80,2
45120,47.0,119,0.123958,57,A3,80,2
45240,47.125,839,0.873958,74,D5,80,1
45240,47.125,839,0.873958,50,D3,80,2
46080,48.0,119,0.123958,78,F5#,80,1
46200,48.125,359,0.373958,69,A4,80,1
46200,48.125,359,0.373958,74,D5,80,1
46200,48.125,359,0.373958,78,F5#,80,1
46200,48.125,119,0.123958,50,D3,80,2
46320,48.25,119,0.123958,54,F3#,80,2
46440,48.375,119,0.123958,57,A3,80,2
46560,48.5,119,0.123958,79,G5,80,1
46560,48.5,119,0.123958,60,C4,80,2
46680,48.625,59,0.061458,81,A5,80,1
46680,48.625,119,0.123958,59,B3,80,2
46740,48.6875,59,0.061458,79,G5,80,1
46800,48.75,59,0.061458,81,A5,80,1
46800,48.75,119,0.123958,57,A3,80,2
46860,48.8125,59,0.061458,79,G5,80,1
46920,48.875,59,0.061458,81,A5,80,1
46920,48.875,119,0.123958,59,B3,80,2
46980,48.9375,59,0.061458,79,G5,80,1
47040,49.0,59,0.061458,78,F5#,80,1
47040,49.0,119,0.123958,55,G3,80,2
47100,49.0625,59,0.061458,79,G5,80,1
47160,49.125,119,0.123958,54,F3#,80,1
47160,49.125,599,0.623958,81,A5,80,1
47160,49.125,719,0.748958,54,F3#,80,2
47280,49.25,119,0.123958,57,A3,80,1
47400,49.375,119,0.123958,60,C4,80,1
47520,49.5,119,0.123958,64,E4,80,1
47640,49.625,239,0.248958,62,D4,80,1
47760,49.75,119,0.123958,72,C5,80,1
47880,49.875,239,0.248958,57,A3,80,1
47880,49.875,119,0.123958,74,D5,80,1
47880,49.875,239,0.248958,54,F3#,80,2
48000,50.0,119,0.123958,69,A4,80,1
48120,50.125,119,0.123958,71,B4,80,1
48120,50.125,239,0.248958,55,G3,80,2
48240,50.25,119,0.123958,75,D5#,80,1
48360,50.375,119,0.123958,76,E5,80,1
48360,50.375,239,0.248958,48,C3,80,2
48360,50.375,479,0.498958,52,E3,80,2
48480,50.5,119,0.123958,79,G5,80,1
48600,50.625,119,0.123958,78,F5#,80,1
48600,50.625,239,0.248958,45,A2,80,2
48720,50.75,119,0.123958,72,C5,80,1
48840,50.875,119,0.123958,71,B4,80,1
48840,50.875,239,0.248958,47,B2,80,2
48840,50.875,239,0.248958,51,D3#,80,2
48960,51.0,119,0.123958,81,A5,80,1
49080,51.125,119,0.123958,79,G5,80,1
49080,51.125,479,0.498958,40,E2,80,2
49080,51.125,479,0.498958,52,E3,80,2
49200,51.25,119,0.123958,75,D5#,80,1
49320,51.375,119,0.123958,76,E5,80,1
49440,51.5,119,0.123958,79,G5,80,1
49560,51.625,59,0.061458,72,C5,80,1
49620,51.6875,59,0.061458,71,B4,80,1
49680,51.75,239,0.248958,72,C5,80,1
49680,51.75,119,0.123958,52,E3,80,2
49800,51.875,119,0.123958,54,F3#,80,2
49920,52.0,119,0.123958,72,C5,80,1
49920,52.0,119,0.123958,50,D3,80,2
50040,52.125,119,0.123958,72,C5,80,1
50040,52.125,239,0.248958,55,G3,80,2
50160,52.25,119,0.123958,69,A4,80,1
50280,52.375,119,0.123958,71,B4,80,1
50280,52.375,239,0.248958,43,G2,80,2
50400,52.5,119,0.123958,76,E5,80,1
50520,52.625,59,0.061458,71,B4,80,1
50580,52.6875,59,0.061458,69,A4,80,1
50640,52.75,59,0.061458,71,B4,80,1
50640,52.75,119,0.123958,49,C3#,80,2
50700,52.8125,59,0.061458,69,A4,80,1
50760,52.875,59,0.061458,71,B4,80,1
50760,52.875,119,0.123958,51,D3#,80,2
50820,52.9375,59,0.061458,69,A4,80,1
50880,53.0,119,0.123958,69,A4,80,1
50880,53.0,119,0.123958,47,B2,80,2
51000,53.125,119,0.123958,69,A4,80,1
51000,53.125,239,0.248958,52,E3,80,2
51120,53.25,119,0.123958,66,F4#,80,1
51240,53.375,119,0.123958,67,G4,80,1
51240,53.375,239,0.248958,40,E2,80,2
51360,53.5,119,0.123958,72,C5,80,1
51480,53.625,59,0.061458,65,F4,80,1
51540,53.6875,59,0.061458,64,E4,80,1
51600,53.75,239,0.248958,65,F4,80,1
51600,53.75,119,0.123958,45,A2,80,2
51720,53.875,119,0.123958,47,B2,80,2
51840,54.0,119,0.123958,65,F4,80,1
51840,54.0,119,0.123958,43,G2,80,2
51960,54.125,119,0.123958,65,F4,80,1
51960,54.125,239,0.248958,48,C3,80,2
52080,54.25,119,0.123958,63,D4#,80,1
52200,54.375,119,0.123958,64,E4,80,1
52200,54.375,239,0.248958,49,C3#,80,2
52320,54.5,119,0.123958,69,A4,80,1
52440,54.625,119,0.123958,67,G4,80,1
52440,54.625,239,0.248958,50,D3,80,2
52560,54.75,119,0.123958,64,E4,80,1
52680,54.875,119,0.123958,66,F4#,80,1
52680,54.875,239,0.248958,51,D3#,80,2
52800,55.0,119,0.123958,71,B4,80,1
52920,55.125,119,0.123958,69,A4,80,1
52920,55.125,239,0.248958,52,E3,80,2
53040,55.25,119,0.123958,66,F4#,80,1
53160,55.375,119,0.123958,67,G4,80,1
53160,55.375,239,0.248958,40,E2,80,2
53280,55.5,119,0.123958,72,C5,80,1
53400,55.625,119,0.123958,71,B4,80,1
53400,55.625,239,0.248958,42,F2#,80,2
53520,55.75,119,0.123958,67,G4,80,1
53640,55.875,119,0.123958,69,A4,80,1
53640,55.875,239,0.248958,54,F3#,80,2
53760,56.0,119,0.123958,74,D5,80,1
53880,56.125,119,0.123958,72,C5,80,1
53880,56.125,239,0.248958,55,G3,80,2
54000,56.25,119,0.123958,69,A4,80,1
54120,56.375,119,0.123958,71,B4,80,1
54120,56.375,239,0.248958,43,G2,80,2
54240,56.5,119,0.123958,74,D5,80,1
54360,56.625,359,0.373958,79,G5,80,1
54480,56.75,359,0.373958,52,E3,80,2
54600,56.875,119,0.123958,55,G3,80,2
54720,57.0,119,0.123958,79,G5,80,1
54720,57.0,119,0.123958,59,B3,80,2
54840,57.125,119,0.123958,79,G5,80,1
54840,57.125,479,0.498958,48,C3,80,2
54960,57.25,119,0.123958,71,B4,80,1
55080,57.375,119,0.123958,72,C5,80,1
55080,57.375,239,0.248958,55,G3,80,2
55200,57.5,119,0.123958,76,E5,80,1
55320,57.625,599,0.623958,69,A4,80,1
55320,57.625,479,0.498958,60,C4,80,2
55440,57.75,119,0.123958,79,G5,80,1
55560,57.875,119,0.123958,78,F5#,80,1
55560,57.875,239,0.248958,57,A3,80,2
55680,58.0,119,0.123958,81,A5,80,1
55800,58.125,359,0.373958,75,D5#,80,1
55800,58.125,479,0.498958,59,B3,80,2
55920,58.25,119,0.123958,69,A4,80,1
56040,58.375,239,0.248958,67,G4,80,1
56040,58.375,239,0.248958,52,E3,80,2
56160,58.5,119,0.123958,76,E5,80,1
56280,58.625,479,0.498958,66,F4#,80,1
56280,58.625,479,0.498958,59,B3,80,2
56400,58.75,359,0.373958,71,B4,80,1
56520,58.875,119,0.123958,76,E5,80,1
56520,58.875,239,0.248958,47,B2,80,2
56640,59.0,119,0.123958,75,D5#,80,1
56760,59.125,1079,1.123958,76,E5,80,1
56760,59.125,359,0.373958,52,E3,80,2
56760,59.125,239,0.248958,59,B3,80,2
56880,59.25,839,0.873958,71,B4,80,1
57000,59.375,719,0.748958,67,G4,80,1
57120,59.5,119,0.123958,59,B3,80,2
57240,59.625,119,0.123958,64,E4,80,2
57360,59.75,119,0.123958,61,C4#,80,2
57480,59.875,119,0.123958,62,D4,80,2
57600,60.0,119,0.123958,59,B3,80,2
57720,60.125,479,0.498958,61,C4#,80,2
57840,60.25,119,0.123958,69,A4,80,1
57960,60.375,119,0.123958,71,B4,80,1
58080,60.5,119,0.123958,67,G4,80,1
58200,60.625,119,0.123958,69,A4,80,1
58320,60.75,119,0.123958,66,F4#,80,1
58320,60.75,119,0.123958,57,A3,80,2
58440,60.875,119,0.123958,67,G4,80,1
58440,60.875,119,0.123958,59,B3,80,2
58560,61.0,119,0.123958,76,E5,80,1
58560,61.0,119,0.123958,61,C4#,80,2
58680,61.125,119,0.123958,67,G4,80,1
58680,61.125,479,0.498958,62,D4,80,2
58800,61.25,119,0.123958,64,E4,80,1
58920,61.375,719,0.748958,66,F4#,80,1
59040,61.5,119,0.123958,69,A4,80,1
59160,61.625,479,0.498958,72,C5,80,1
59280,61.75,119,0.123958,57,A3,80,2
59400,61.875,119,0.123958,54,F3#,80,2
59520,62.0,119,0.123958,50,D3,80,2
59640,62.125,479,0.498958,55,G3,80,2
59760,62.25,119,0.123958,69,A4,80,1
59880,62.375,119,0.123958,71,B4,80,1
60000,62.5,119,0.123958,74,D5,80,1
60120,62.625,599,0.623958,77,F5,80,1
60240,62.75,119,0.123958,72,C5,80,1
60240,62.75,119,0.123958,57,A3,80,2
60360,62.875,119,0.123958,74,D5,80,1
60360,62.875,119,0.123958,59,B3,80,2
60480,63.0,119,0.123958,71,B4,80,1
60480,63.0,119,0.123958,55,G3,80,2
60600,63.125,479,0.498958,67,G4,80,1
60600,63.125,479,0.498958,60,C4,80,2
60720,63.25,119,0.123958,71,B4,80,1
60840,63.375,119,0.123958,72,C5,80,1
60960,63.5,119,0.123958,76,E5,80,1
61080,63.625,239,0.248958,78,F5#,80,1
61200,63.75,239,0.248958,74,D5,80,1
61200,63.75,119,0.123958,57,A3,80,2
61320,63.875,239,0.248958,79,G5,80,1
61320,63.875,119,0.123958,59,B3,80,2
61440,64.0,239,0.248958,74,D5,80,1
61440,64.0,119,0.123958,62,D4,80,2
61560,64.125,239,0.248958,81,A5,80,1
61560,64.125,119,0.123958,54,F3#,80,2
61680,64.25,239,0.248958,74,D5,80,1
61680,64.25,119,0.123958,57,A3,80,2
61800,64.375,239,0.248958,83,B5,80,1
61800,64.375,119,0.123958,55,G3,80,2
61920,64.5,239,0.248958,74,D5,80,1
61920,64.5,119,0.123958,59,B3,80,2
62040,64.625,359,0.373958,76,E5,80,1
62040,64.625,119,0.123958,48,C3,80,2
62160,64.75,119,0.123958,71,B4,80,1
62160,64.75,119,0.123958,52,E3,80,2
62280,64.875,599,0.623958,72,C5,80,1
62280,64.875,119,0.123958,45,A2,80,2
62400,65.0,119,0.123958,81,A5,80,1
62400,65.0,119,0.123958,48,C3,80,2
62520,65.125,119,0.123958,79,G5,80,1
62520,65.125,479,0.498958,50,D3,80,2
62640,65.25,119,0.123958,76,E5,80,1
62760,65.375,239,0.248958,78,F5#,80,1
62760,65.375,839,0.873958,38,D2,80,2
62880,65.5,239,0.248958,69,A4,80,1
63000,65.625,239,0.248958,71,B4,80,1
63000,65.625,239,0.248958,43,G2,80,2
63120,65.75,239,0.248958,67,G4,80,1
63240,65.875,239,0.248958,76,E5,80,1
63240,65.875,239,0.248958,49,C3#,80,2
63360,66.0,119,0.123958,67,G4,80,1
63480,66.125,119,0.123958,66,F4#,80,1
63480,66.125,119,0.123958,50,D3,80,2
63600,66.25,119,0.123958,62,D4,80,1
63600,66.25,119,0.123958,54,F3#,80,2
63720,66.375,119,0.123958,67,G4,80,1
63720,66.375,119,0.123958,52,E3,80,2
63840,66.5,119,0.123958,62,D4,80,1
63840,66.5,119,0.123958,55,G3,80,2
63960,66.625,119,0.123958,69,A4,80,1
63960,66.625,119,0.123958,54,F3#,80,2
64080,66.75,119,0.123958,62,D4,80,1
64080,66.75,119,0.123958,57,A3,80,2
64200,66.875,119,0.123958,72,C5,80,1
64200,66.875,119,0.123958,50,D3,80,2
64320,67.0,119,0.123958,69,A4,80,1
64320,67.0,119,0.123958,54,F3#,80,2
64440,67.125,119,0.123958,70,A4#,80,1
64440,67.125,239,0.248958,55,G3,80,2
64560,67.25,119,0.123958,62,D4,80,1
64680,67.375,119,0.123958,67,G4,80,1
64680,67.375,239,0.248958,53,F3,80,2
64800,67.5,119,0.123958,69,A4,80,1
64920,67.625,119,0.123958,70,A4#,80,1
64920,67.625,239,0.248958,51,D3#,80,2
65040,67.75,119,0.123958,67,G4,80,1
65160,67.875,119,0.123958,71,B4,80,1
65160,67.875,239,0.248958,50,D3,80,2
65280,68.0,119,0.123958,67,G4,80,1
65400,68.125,119,0.123958,72,C5,80,1
65400,68.125,239,0.248958,51,D3#,80,2
65520,68.25,119,0.123958,67,G4,80,1
65640,68.375,119,0.123958,75,D5#,80,1
65640,68.375,239,0.248958,48,C3,80,2
65760,68.5,119,0.123958,74,D5,80,1
65880,68.625,119,0.123958,73,C5#,80,1
65880,68.625,239,0.248958,45,A2,80,2
66000,68.75,119,0.123958,67,G4,80,1
66120,68.875,119,0.123958,66,F4#,80,1
66120,68.875,239,0.248958,50,D3,80,2
66240,69.0,119,0.123958,72,C5,80,1
66360,69.125,119,0.123958,71,B4,80,1
66360,69.125,239,0.248958,55,G3,80,2
66480,69.25,119,0.123958,65,F4,80,1
66600,69.375,239,0.248958,64,E4,80,1
66600,69.375,239,0.248958,48,C3,80,2
66720,69.5,119,0.123958,60,C4,80,1
66720,69.5,119,0.123958,69,A4,80,1
66840,69.625,239,0.248958,59,B3,80,1
66840,69.625,239,0.248958,62,D4,80,1
66840,69.625,479,0.498958,50,D3,80,2
66960,69.75,119,0.123958,67,G4,80,1
67080,69.875,239,0.248958,57,A3,80,1
67080,69.875,359,0.373958,60,C4,80,1
67200,70.0,119,0.123958,66,F4#,80,1
67320,70.125,959,0.998958,67,G4,80,1
67320,70.125,479,0.498958,55,G3,80,2
67440,70.25,119,0.123958,60,C4,80,1
67560,70.375,1559,1.623958,62,D4,80,1
67680,70.5,119,0.123958,57,A3,80,1
67800,70.625,1319,1.373958,59,B3,80,1
67920,70.75,119,0.123958,54,F3#,80,2
68040,70.875,1079,1.123958,55,G3,80,2
68160,71.0,119,0.123958,50,D3,80,2
68280,71.125,839,0.873958,67,G4,80,1
68280,71.125,839,0.873958,43,G2,80,2
69120,72.0,119,0.123958,78,F5#,80,1
69240,72.125,359,0.373958,69,A4,80,1
69240,72.125,359,0.373958,74,D5,80,1
69240,72.125,359,0.373958,78,F5#,80,1
69240,72.125,119,0.123958,50,D3,80,2
69360,72.25,119,0.123958,54,F3#,80,2
69480,72.375,119,0.123958,57,A3,80,2
69600,72.5,119,0.123958,79,G5,80,1
69600,72.5,119,0.123958,60,C4,80,2
69720,72.625,59,0.061458,81,A5,80,1
69720,72.625,119,0.123958,59,B3,80,2
69780,72.6875,59,0.061458,79,G5,80,1
69840,72.75,59,0.061458,81,A5,80,1
69840,72.75,119,0.123958,57,A3,80,2
69900,72.8125,59,0.061458,79,G5,80,1
69960,72.875,59,0.061458,81,A5,80,1
69960,72.875,119,0.123958,59,B3,80,2
70020,72.9375,59,0.061458,79,G5,80,1
70080,73.0,59,0.061458,78,F5#,80,1
70080,73.0,119,0.123958,55,G3,80,2
70140,73.0625,59,0.061458,79,G5,80,1
70200,73.125,119,0.123958,54,F3#,80,1
70200,73.125,599,0.623958,81,A5,80,1
70200,73.125,719,0.748958,54,F3#,80,2
70320,73.25,119,0.123958,57,A3,80,1
70440,73.375,119,0.123958,60,C4,80,1
70560,73.5,119,0.123958,64,E4,80,1
70680,73.625,239,0.248958,62,D4,80,1
70800,73.75,119,0.123958,72,C5,80,1
70920,73.875,239,0.248958,57,A3,80,1
70920,73.875,119,0.123958,74,D5,80,1
70920,73.875,239,0.248958,54,F3#,80,2
71040,74.0,119,0.123958,69,A4,80,1
71160,74.125,119,0.123958,71,B4,80,1
71160,74.125,239,0.248958,55,G3,80,2
71280,74.25,119,0.123958,75,D5#,80,1
71400,74.375,119,0.123958,76,E5,80,1
71400,74.375,239,0.248958,48,C3,80,2
71400,74.375,479,0.498958,52,E3,80,2
71520,74.5,119,0.123958,79,G5,80,1
71640,74.625,119,0.123958,78,F5#,80,1
71640,74.625,239,0.248958,45,A2,80,2
71760,74.75,119,0.123958,72,C5,80,1
71880,74.875,119,0.123958,71,B4,80,1
71880,74.875,239,0.248958,47,B2,80,2
71880,74.875,239,0.248958,51,D3#,80,2
72000,75.0,119,0.123958,81,A5,80,1
72120,75.125,119,0.123958,79,G5,80,1
72120,75.125,479,0.498958,40,E2,80,2
72120,75.125,479,0.498958,52,E3,80,2
72240,75.25,119,0.123958,75,D5#,80,1
72360,75.375,119,0.123958,76,E5,80,1
72480,75.5,119,0.123958,79,G5,80,1
72600,75.625,59,0.061458,72,C5,80,1
72660,75.6875,59,0.061458,71,B4,80,1
72720,75.75,239,0.248958,72,C5,80,1
72720,75.75,119,0.123958,52,E3,80,2
72840,75.875,119,0.123958,54,F3#,80,2
72960,76.0,119,0.123958,72,C5,80,1
72960,76.0,119,0.123958,50,D3,80,2
73080,76.125,119,0.123958,72,C5,80,1
73080,76.125,239,0.248958,55,G3,80,2
73200,76.25,119,0.123958,69,A4,80,1
73320,76.375,119,0.123958,71,B4,80,1
73320,76.375,239,0.248958,43,G2,80,2
73440,76.5,119,0.123958,76,E5,80,1
73560,76.625,59,0.061458,71,B4,80,1
73620,76.6875,59,0.061458,69,A4,80,1
73680,76.75,59,0.061458,71,B4,80,1
73680,76.75,119,0.123958,49,C3#,80,2
73740,76.8125,59,0.061458,69,A4,80,1
73800,76.875,59,0.061458,71,B4,80,1
73800,76.875,119,0.123958,51,D3#,80,2
73860,76.9375,59,0.061458,69,A4,80,1
73920,77.0,119,0.123958,69,A4,80,1
73920,77.0,119,0.123958,47,B2,80,2
74040,77.125,119,0.123958,69,A4,80,1
74040,77.125,239,0.248958,52,E3,80,2
74160,77.25,119,0.123958,66,F4#,80,1
74280,77.375,119,0.123958,67,G4,80,1
74280,77.375,239,0.248958,40,E2,80,2
74400,77.5,119,0.123958,72,C5,80,1
74520,77.625,59,0.061458,65,F4,80,1
74580,77.6875,59,0.061458,64,E4,80,1
74640,77.75,239,0.248958,65,F4,80,1
74640,77.75,119,0.123958,45,A2,80,2
74760,77.875,119,0.123958,47,B2,80,2
74880,78.0,119,0.123958,65,F4,80,1
74880,78.0,119,0.123958,43,G2,80,2
75000,78.125,119,0.123958,65,F4,80,1
75000,78.125,239,0.248958,48,C3,80,2
75120,78.25,119,0.123958,63,D4#,80,1
75240,78.375,119,0.123958,64,E4,80,1
75240,78.375,239,0.248958,49,C3#,80,2
75360,78.5,119,0.123958,69,A4,80,1
75480,78.625,119,0.123958,67,G4,80,1
75480,78.625,239,0.248958,50,D3,80,2
75600,78.75,119,0.123958,64,E4,80,1
75720,78.875,119,0.123958,66,F4#,80,1
75720,78.875,239,0.248958,51,D3#,80,2
75840,79.0,119,0.123958,71,B4,80,1
75960,79.125,119,0.123958,69,A4,80,1
75960,79.125,239,0.248958,52,E3,80,2
76080,79.25,119,0.123958,66,F4#,80,1
76200,79.375,119,0.123958,67,G4,80,1
76200,79.375,239,0.248958,40,E2,80,2
76320,79.5,119,0.123958,72,C5,80,1
76440,79.625,119,0.123958,71,B4,80,1
76440,79.625,239,0.248958,42,F2#,80,2
76560,79.75,119,0.123958,67,G4,80,1
76680,79.875,119,0.123958,69,A4,80,1
76680,79.875,239,0.248958,54,F3#,80,2
76800,80.0,119,0.123958,74,D5,80,1
76920,80.125,119,0.123958,72,C5,80,1
76920,80.125,239,0.248958,55,G3,80,2
77040,80.25,119,0.123958,69,A4,80,1
77160,80.375,119,0.123958,71,B4,80,1
77160,80.375,239,0.248958,43,G2,80,2
77280,80.5,119,0.123958,74,D5,80,1
77400,80.625,359,0.373958,79,G5,80,1
77520,80.75,359,0.373958,52,E3,80,2
77640,80.875,119,0.123958,55,G3,80,2
77760,81.0,119,0.123958,79,G5,80,1
77760,81.0,119,0.123958,59,B3,80,2
77880,81.125,119,0.123958,79,G5,80,1
77880,81.125,479,0.498958,48,C3,80,2
78000,81.25,119,0.123958,71,B4,80,1
78120,81.375,119,0.123958,72,C5,80,1
78120,81.375,239,0.248958,55,G3,80,2
78240,81.5,119,0.123958,76,E5,80,1
78360,81.625,599,0.623958,69,A4,80,1
78360,81.625,479,0.498958,60,C4,80,2
78480,81.75,119,0.123958,79,G5,80,1
78600,81.875,119,0.123958,78,F5#,80,1
78600,81.875,239,0.248958,57,A3,80,2
78720,82.0,119,0.123958,81,A5,80,1
78840,82.125,359,0.373958,75,D5#,80,1
78840,82.125,479,0.498958,59,B3,80,2
78960,82.25,119,0.123958,69,A4,80,1
79080,82.375,239,0.248958,67,G4,80,1
79080,82.375,239,0.248958,52,E3,80,2
79200,82.5,119,0.123958,76,E5,80,1
79320,82.625,479,0.498958,66,F4#,80,1
79320,82.625,479,0.498958,59,B3,80,2
79440,82.75,359,0.373958,71,B4,80,1
79560,82.875,119,0.123958,76,E5,80,1
79560,82.875,239,0.248958,47,B2,80,2
79680,83.0,119,0.123958,75,D5#,80,1
79800,83.125,1079,1.123958,76,E5,80,1
79800,83.125,359,0.373958,52,E3,80,2
79800,83.125,239,0.248958,59,B3,80,2
79920,83.25,839,0.873958,71,B4,80,1
80040,83.375,719,0.748958,67,G4,80,1
80160,83.5,119,0.123958,59,B3,80,2
80280,83.625,119,0.123958,64,E4,80,2
80400,83.75,119,0.123958,61,C4#,80,2
80520,83.875,119,0.123958,62,D4,80,2
80640,84.0,119,0.123958,59,B3,80,2
80760,84.125,479,0.498958,61,C4#,80,2
80880,84.25,119,0.123958,69,A4,80,1
81000,84.375,119,0.123958,71,B4,80,1
81120,84.5,119,0.123958,67,G4,80,1
81240,84.625,119,0.123958,69,A4,80,1
81360,84.75,119,0.123958,66,F4#,80,1
81360,84.75,119,0.123958,57,A3,80,2
81480,84.875,119,0.123958,67,G4,80,1
81480,84.875,119,0.123958,59,B3,80,2
81600,85.0,119,0.123958,76,E5,80,1
81600,85.0,119,0.123958,61,C4#,80,2
81720,85.125,119,0.123958,67,G4,80,1
81720,85.125,479,0.498958,62,D4,80,2
81840,85.25,119,0.123958,64,E4,80,1
81960,85.375,719,0.748958,66,F4#,80,1
82080,85.5,119,0.123958,69,A4,80,1
82200,85.625,479,0.498958,72,C5,80,1
82320,85.75,119,0.123958,57,A3,80,2
82440,85.875,119,0.123958,54,F3#,80,2
82560,86.0,119,0.123958,50,D3,80,2
82680,86.125,479,0.498958,55,G3,80,2
82800,86.25,119,0.123958,69,A4,80,1
82920,86.375,119,0.123958,71,B4,80,1
83040,86.5,119,0.123958,74,D5,80,1
83160,86.625,599,0.623958,77,F5,80,1
83280,86.75,119,0.123958,72,C5,80,1
83280,86.75,119,0.123958,57,A3,80,2
83400,86.875,119,0.123958,74,D5,80,1
83400,86.875,119,0.123958,59,B3,80,2
83520,87.0,119,0.123958,71,B4,80,1
83520,87.0,119,0.123958,55,G3,80,2
83640,87.125,479,0.498958,67,G4,80,1
83640,87.125,479,0.498958,60,C4,80,2
83760,87.25,119,0.123958,71,B4,80,1
83880,87.375,119,0.123958,72,C5,80,1
84000,87.5,119,0.123958,76,E5,80,1
84120,87.625,239,0.248958,78,F5#,80,1
84240,87.75,239,0.248958,74,D5,80,1
84240,87.75,119,0.123958,57,A3,80,2
84360,87.875,239,0.248958,79,G5,80,1
84360,87.875,119,0.123958,59,B3,80,2
84480,88.0,239,0.248958,74,D5,80,1
84480,88.0,119,0.123958,62,D4,80,2
84600,88.125,239,0.248958,81,A5,80,1
84600,88.125,119,0.123958,54,F3#,80,2
84720,88.25,239,0.248958,74,D5,80,1
84720,88.25,119,0.123958,57,A3,80,2
84840,88.375,239,0.248958,83,B5,80,1
84840,88.375,119,0.123958,55,G3,80,2
84960,88.5,239,0.248958,74,D5,80,1
84960,88.5,119,0.123958,59,B3,80,2
85080,88.625,359,0.373958,76,E5,80,1
85080,88.625,119,0.123958,48,C3,80,2
85200,88.75,119,0.123958,71,B4,80,1
85200,88.75,119,0.123958,52,E3,80,2
85320,88.875,599,0.623958,72,C5,80,1
85320,88.875,119,0.123958,45,A2,80,2
85440,89.0,119,0.123958,81,A5,80,1
85440,89.0,119,0.123958,48,C3,80,2
85560,89.125,119,0.123958,79,G5,80,1
85560,89.125,479,0.498958,50,D3,80,2
85680,89.25,119,0.123958,76,E5,80,1
85800,89.375,239,0.248958,78,F5#,80,1
85800,89.375,839,0.873958,38,D2,80,2
85920,89.5,239,0.248958,69,A4,80,1
86040,89.625,239,0.248958,71,B4,80,1
86040,89.625,239,0.248958,43,G2,80,2
86160,89.75,239,0.248958,67,G4,80,1
86280,89.875,239,0.248958,76,E5,80,1
86280,89.875,239,0.248958,49,C3#,80,2
86400,90.0,119,0.123958,67,G4,80,1
86520,90.125,119,0.123958,66,F4#,80,1
86520,90.125,119,0.123958,50,D3,80,2
86640,90.25,119,0.123958,62,D4,80,1
86640,90.25,119,0.123958,54,F3#,80,2
86760,90.375,119,0.123958,67,G4,80,1
86760,90.375,119,0.123958,52,E3,80,2
86880,90.5,119,0.123958,62,D4,80,1
86880,90.5,119,0.123958,55,G3,80,2
87000,90.625,119,0.123958,69,A4,80,1
87000,90.625,119,0.123958,54,F3#,80,2
87120,90.75,119,0.123958,62,D4,80,1
87120,90.75,119,0.123958,57,A3,80,2
87240,90.875,119,0.123958,72,C5,80,1
87240,90.875,119,0.123958,50,D3,80,2
87360,91.0,119,0.123958,69,A4,80,1
87360,91.0,119,0.123958,54,F3#,80,2
87480,91.125,119,0.123958,70,A4#,80,1
87480,91.125,239,0.248958,55,G3,80,2
87600,91.25,119,0.123958,62,D4,80,1
87720,91.375,119,0.123958,67,G4,80,1
87720,91.375,239,0.248958,53,F3,80,2
87840,91.5,119,0.123958,69,A4,80,1
87960,91.625,119,0.123958,70,A4#,80,1
87960,91.625,239,0.248958,51,D3#,80,2
88080,91.75,119,0.123958,67,G4,80,1
88200,91.875,119,0.123958,71,B4,80,1
88200,91.875,239,0.248958,50,D3,80,2
88320,92.0,119,0.123958,67,G4,80,1
88440,92.125,119,0.123958,72,C5,80,1
88440,92.125,239,0.248958,51,D3#,80,2
88560,92.25,119,0.123958,67,G4,80,1
88680,92.375,119,0.123958,75,D5#,80,1
88680,92.375,239,0.248958,48,C3,80,2
88800,92.5,119,0.123958,74,D5,80,1
88920,92.625,119,0.123958,73,C5#,80,1
88920,92.625,239,0.248958,45,A2,80,2
89040,92.75,119,0.123958,67,G4,80,1
89160,92.875,119,0.123958,66,F4#,80,1
89160,92.875,239,0.248958,50,D3,80,2
89280,93.0,119,0.123958,72,C5,80,1
89400,93.125,119,0.123958,71,B4,80,1
89400,93.125,239,0.248958,55,G3,80,2
89520,93.25,119,0.123958,65,F4,80,1
89640,93.375,239,0.248958,64,E4,80,1
89640,93.375,239,0.248958,48,C3,80,2
89760,93.5,119,0.123958,60,C4,80,1
89760,93.5,119,0.123958,69,A4,80,1
89880,93.625,239,0.248958,59,B3,80,1
89880,93.625,239,0.248958,62,D4,80,1
89880,93.625,479,0.498958,50,D3,80,2
90000,93.75,119,0.123958,67,G4,80,1
90120,93.875,239,0.248958,57,A3,80,1
90120,93.875,479,0.498958,60,C4,80,1
90240,94.0,119,0.123958,66,F4#,80,1
90360,94.125,1799,1.873958,67,G4,80,1
90360,94.125,479,0.498958,55,G3,80,2
90600,94.375,1559,1.623958,62,D4,80,1
90720,94.5,119,0.123958,57,A3,80,1
90840,94.625,1319,1.373958,59,B3,80,1
90960,94.75,119,0.123958,54,F3#,80,2
91080,94.875,1079,1.123958,55,G3,80,2
91200,95.0,119,0.123958,50,D3,80,2
91320,95.125,839,0.873958,43,G2,80,2
