start_ticks,start_secs,dur_ticks,dur_secs,pitch,fullNoteOctave,velocity,part
0,0.0,1439,2.366771,43,G2,33,2
480,0.789472,959,1.577299,66,F4#,33,1
480,0.789472,959,1.577299,62,D4,33,1
480,0.789472,959,1.577299,59,B3,33,1
1440,2.368416,1439,2.366771,38,D2,33,2
1920,3.157888,959,1.577299,66,F4#,33,1
1920,3.157888,959,1.577299,61,C4#,33,1
1920,3.157888,959,1.577299,57,A3,33,1
2880,4.736832,1439,2.366771,43,G2,33,2
3360,5.526304,959,1.577299,66,F4#,33,1
3360,5.526304,959,1.577299,62,D4,33,1
3360,5.526304,959,1.577299,59,B3,33,1
4320,7.105248,1439,2.366771,38,D2,33,2
4800,7.89472,959,1.577299,66,F4#,33,1
4800,7.89472,959,1.577299,61,C4#,33,1
4800,7.89472,959,1.577299,57,A3,33,1
5760,9.473664,1439,2.366771,43,G2,33,2
6240,10.263136,479,0.787827,78,F5#,33,1
6240,10.263136,959,1.577299,66,F4#,33,1
6240,10.263136,959,1.577299,62,D4,33,1
6240,10.263136,959,1.577299,59,B3,33,1
6720,11.052608,479,0.787827,81,A5,33,1
7200,11.84208,479,0.787827,79,G5,33,1
7200,11.84208,1439,2.366771,38,D2,33,2
7680,12.631552,479,0.787827,78,F5#,33,1
7680,12.631552,959,1.577299,66,F4#,33,1
7680,12.631552,959,1.577299,61,C4#,33,1
7680,12.631552,959,1.577299,57,A3,33,1
8160,13.421024,479,0.787827,73,C5#,33,1
8640,14.210496,479,0.787827,71,B4,33,1
8640,14.210496,1439,2.366771,43,G2,33,2
9120,14.999968,479,0.787827,73,C5#,33,1
9120,14.999968,959,1.577299,66,F4#,33,1
9120,14.999968,959,1.577299,62,D4,33,1
9120,14.999968,959,1.577299,59,B3,33,1
9600,15.78944,479,0.787827,74,D5,33,1
10080,16.578912,1439,2.366771,69,A4,33,1
10080,16.578912,1439,2.366771,38,D2,33,2
10560,17.368384,959,1.577299,66,F4#,33,1
10560,17.368384,959,1.577299,61,C4#,33,1
10560,17.368384,959,1.577299,57,A3,33,1
11520,18.947328,1439,2.366771,66,F4#,33,1
11520,18.947328,1439,2.366771,43,G2,33,2
12000,19.7368,959,1.577299,66,F4#,33,1
12000,19.7368,959,1.577299,62,D4,33,1
12000,19.7368,959,1.577299,59,B3,33,1
12960,21.315744,1439,2.366771,38,D2,33,2
13440,22.105216,959,1.577299,66,F4#,33,1
13440,22.105216,959,1.577299,61,C4#,33,1
13440,22.105216,959,1.577299,57,A3,33,1
14400,23.68416,1439,2.366771,43,G2,33,2
14880,24.473632,959,1.577299,66,F4#,33,1
14880,24.473632,959,1.577299,62,D4,33,1
14880,24.473632,959,1.577299,59,B3,33,1
15840,26.052576,1439,2.366771,38,D2,33,2
16320,26.842048,959,1.577299,66,F4#,33,1
16320,26.842048,959,1.577299,61,C4#,33,1
16320,26.842048,959,1.577299,57,A3,33,1
17280,28.420992,1439,2.366771,43,G2,33,2
17760,29.210464,479,0.787827,78,F5#,33,1
17760,29.210464,959,1.577299,66,F4#,33,1
17760,29.210464,959,1.577299,62,D4,33,1
17760,29.210464,959,1.577299,59,B3,33,1
18240,29.999936,479,0.787827,81,A5,33,1
18720,30.789408,479,0.787827,79,G5,33,1
18720,30.789408,1439,2.366771,38,D2,33,2
19200,31.57888,479,0.787827,78,F5#,33,1
19200,31.57888,959,1.577299,66,F4#,33,1
19200,31.57888,959,1.577299,61,C4#,33,1
19200,31.57888,959,1.577299,57,A3,33,1
19680,32.368352,479,0.787827,73,C5#,33,1
20160,33.157824,479,0.787827,71,B4,33,1
20160,33.157824,1439,2.366771,43,G2,33,2
20640,33.947296,479,0.787827,73,C5#,33,1
20640,33.947296,959,1.577299,66,F4#,33,1
20640,33.947296,959,1.577299,62,D4,33,1
20640,33.947296,959,1.577299,59,B3,33,1
21120,34.736768,479,0.787827,74,D5,33,1
21600,35.52624,1439,2.366771,69,A4,33,1
21600,35.52624,1439,2.366771,38,D2,33,2
22080,36.315712,959,1.577299,66,F4#,33,1
22080,36.315712,959,1.577299,61,C4#,33,1
22080,36.315712,959,1.577299,57,A3,33,1
23040,37.894656,1439,2.366771,73,C5#,33,1
23040,37.894656,1439,2.366771,42,F2#,33,2
23520,38.684128,959,1.577299,66,F4#,33,1
23520,38.684128,959,1.577299,61,C4#,33,1
23520,38.684128,959,1.577299,57,A3,33,1
24480,40.263072,1439,2.366771,78,F5#,64,1
24480,40.263072,1439,2.366771,35,B1,64,2
24960,41.052544,959,1.577299,66,F4#,64,1
24960,41.052544,959,1.577299,62,D4,64,1
24960,41.052544,959,1.577299,59,B3,64,1
25920,42.631488,4319,7.103603,64,E4,64,1
25920,42.631488,1439,2.366771,40,E2,64,2
26400,43.42096,959,1.577299,59,B3,64,2
26400,43.42096,959,1.577299,55,G3,64,2
27360,44.999904,1439,2.366771,40,E2,64,2
27840,45.789376,959,1.577299,67,G4,64,2
27840,45.789376,959,1.577299,62,D4,64,2
27840,45.789376,959,1.577299,59,B3,64,2
28800,47.36832,1439,2.366771,38,D2,64,2
29280,48.157792,959,1.577299,62,D4,64,2
29280,48.157792,959,1.577299,57,A3,64,2
29280,48.157792,959,1.577299,53,F3,64,2
30240,49.736736,479,0.787827,69,A4,49,1
30240,49.736736,1439,2.366771,33,A1,49,2
30720,50.526208,479,0.787827,71,B4,49,1
30720,50.526208,959,1.577299,64,E4,49,2
30720,50.526208,959,1.577299,60,C4,49,2
30720,50.526208,959,1.577299,57,A3,49,2
31200,51.31568,479,0.787827,72,C5,49,1
31680,52.105152,479,0.787827,76,E5,49,1
31680,52.105152,1439,2.366771,38,D2,49,2
32160,52.894624,479,0.787827,74,D5,49,1
32160,52.894624,959,1.577299,64,E4,49,2
32160,52.894624,959,1.577299,59,B3,49,2
32160,52.894624,959,1.577299,55,G3,49,2
32640,53.684096,479,0.787827,71,B4,49,1
33120,54.473568,479,0.787827,74,D5,49,1
33120,54.473568,1439,2.366771,38,D2,49,2
33600,55.26304,479,0.787827,72,C5,49,1
33600,55.26304,959,1.577299,64,E4,49,2
33600,55.26304,959,1.577299,59,B3,49,2
33600,55.26304,959,1.577299,55,G3,49,2
33600,55.26304,959,1.577299,50,D3,49,2
34080,56.052512,479,0.787827,71,B4,49,1
34560,56.841984,2399,3.945715,74,D5,49,1
34560,56.841984,1439,2.366771,38,D2,49,2
35040,57.631456,959,1.577299,62,D4,49,2
35040,57.631456,959,1.577299,57,A3,49,2
35040,57.631456,959,1.577299,52,E3,49,2
35040,57.631456,959,1.577299,48,C3,49,2
36000,59.2104,1439,2.366771,38,D2,49,2
36480,59.999872,959,1.577299,62,D4,49,2
36480,59.999872,959,1.577299,57,A3,49,2
36480,59.999872,959,1.577299,54,F3#,49,2
36480,59.999872,959,1.577299,48,C3,49,2
36960,60.789344,479,0.787827,74,D5,49,1
37440,61.578816,479,0.787827,76,E5,49,1
37440,61.578816,1439,2.366771,38,D2,49,2
37920,62.368288,479,0.787827,77,F5,49,1
37920,62.368288,959,1.577299,65,F4,49,2
37920,62.368288,959,1.577299,60,C4,49,2
37920,62.368288,959,1.577299,57,A3,49,2
38400,63.15776,479,0.787827,79,G5,49,1
38880,63.947232,479,0.787827,81,A5,49,1
38880,63.947232,1439,2.366771,38,D2,49,2
39360,64.736704,479,0.787827,72,C5,49,1
39360,64.736704,959,1.577299,64,E4,49,2
39360,64.736704,959,1.577299,60,C4,49,2
39360,64.736704,959,1.577299,57,A3,49,2
39840,65.526176,479,0.787827,74,D5,49,1
40320,66.315648,479,0.787827,76,E5,49,1
40320,66.315648,1439,2.366771,38,D2,49,2
40800,67.10512,479,0.787827,74,D5,49,1
40800,67.10512,959,1.577299,64,E4,49,2
40800,67.10512,959,1.577299,59,B3,49,2
40800,67.10512,959,1.577299,55,G3,49,2
40800,67.10512,959,1.577299,50,D3,49,2
41280,67.894592,479,0.787827,71,B4,49,1
41760,68.684064,2399,3.945715,74,D5,33,1
41760,68.684064,1439,2.366771,38,D2,33,2
42240,69.473536,959,1.577299,62,D4,33,2
42240,69.473536,959,1.577299,57,A3,33,2
42240,69.473536,959,1.577299,52,E3,33,2
42240,69.473536,959,1.577299,48,C3,33,2
43200,71.05248,1439,2.366771,38,D2,33,2
43680,71.841952,959,1.577299,62,D4,33,2
43680,71.841952,959,1.577299,57,A3,33,2
43680,71.841952,959,1.577299,54,F3#,33,2
43680,71.841952,959,1.577299,48,C3,33,2
44160,72.631424,479,0.787827,74,D5,33,1
44640,73.420896,1439,2.366771,79,G5,33,1
44640,73.420896,1439,2.366771,40,E2,33,2
45120,74.210368,959,1.577299,67,G4,33,1
45120,74.210368,959,1.577299,64,E4,33,1
45120,74.210368,959,1.577299,59,B3,33,1
46080,75.789312,1439,2.366771,78,F5#,33,1
46080,75.789312,1439,2.366771,42,F2#,33,2
46560,76.578784,959,1.577299,66,F4#,33,1
46560,76.578784,959,1.577299,61,C4#,33,1
46560,76.578784,959,1.577299,57,A3,33,1
47520,78.157728,479,0.787827,71,B4,33,1
47520,78.157728,1439,2.366771,35,B1,33,2
48000,78.9472,479,0.787827,69,A4,33,1
48000,78.9472,959,1.577299,66,F4#,33,1
48000,78.9472,959,1.577299,62,D4,33,1
48000,78.9472,959,1.577299,59,B3,33,1
48480,79.736672,479,0.787827,71,B4,33,1
48960,80.526144,479,0.787827,73,C5#,33,1
48960,80.526144,1439,2.366771,40,E2,33,2
49440,81.315616,479,0.787827,74,D5,33,1
49440,81.315616,959,1.577299,69,A4,33,1
49440,81.315616,959,1.577299,64,E4,33,1
49440,81.315616,959,1.577299,61,C4#,33,1
49920,82.105088,479,0.787827,76,E5,33,1
50400,82.89456,479,0.787827,73,C5#,33,1
50400,82.89456,1439,2.366771,40,E2,33,2
50880,83.684032,479,0.787827,74,D5,33,1
50880,83.684032,959,1.577299,69,A4,33,1
50880,83.684032,959,1.577299,66,F4#,33,1
50880,83.684032,959,1.577299,61,C4#,33,1
50880,83.684032,959,1.577299,57,A3,33,1
51360,84.473504,479,0.787827,76,E5,33,1
51840,85.262976,1439,2.366771,66,F4#,33,1
51840,85.262976,1439,2.366771,40,E2,33,2
52320,86.052448,479,0.787827,62,D4,33,1
52320,86.052448,479,0.787827,57,A3,33,1
52320,86.052448,479,0.787827,47,B2,33,2
52800,86.84192,479,0.787827,67,G4,33,1
52800,86.84192,479,0.787827,62,D4,33,1
52800,86.84192,479,0.787827,59,B3,33,1
52800,86.84192,479,0.787827,52,E3,33,2
53280,87.631392,1439,2.366771,72,C5,33,1
53280,87.631392,1439,2.366771,69,A4,33,1
53280,87.631392,1439,2.366771,64,E4,33,1
53280,87.631392,1439,2.366771,60,C4,33,1
53280,87.631392,1439,2.366771,55,G3,33,2
53280,87.631392,1439,2.366771,45,A2,33,2
54720,89.999808,1439,2.366771,74,D5,33,1
54720,89.999808,1439,2.366771,69,A4,33,1
54720,89.999808,1439,2.366771,66,F4#,33,1
54720,89.999808,1439,2.366771,62,D4,33,1
54720,89.999808,1439,2.366771,50,D3,33,2
54720,89.999808,1439,2.366771,45,A2,33,2
54720,89.999808,1439,2.366771,38,D2,33,2
56160,92.368224,1439,2.366771,43,G2,33,2
56640,93.157696,959,1.577299,66,F4#,33,1
56640,93.157696,959,1.577299,62,D4,33,1
56640,93.157696,959,1.577299,59,B3,33,1
57600,94.73664,1439,2.366771,38,D2,33,2
58080,95.526112,959,1.577299,66,F4#,33,1
58080,95.526112,959,1.577299,61,C4#,33,1
58080,95.526112,959,1.577299,57,A3,33,1
59040,97.105056,1439,2.366771,43,G2,33,2
59520,97.894528,959,1.577299,66,F4#,33,1
59520,97.894528,959,1.577299,62,D4,33,1
59520,97.894528,959,1.577299,59,B3,33,1
60480,99.473472,1439,2.366771,38,D2,33,2
60960,100.262944,959,1.577299,66,F4#,33,1
60960,100.262944,959,1.577299,61,C4#,33,1
60960,100.262944,959,1.577299,57,A3,33,1
61920,101.841888,1439,2.366771,43,G2,33,2
62400,102.63136,479,0.787827,78,F5#,33,1
62400,102.63136,959,1.577299,66,F4#,33,1
62400,102.63136,959,1.577299,62,D4,33,1
62400,102.63136,959,1.577299,59,B3,33,1
62880,103.420832,479,0.787827,81,A5,33,1
63360,104.210304,479,0.787827,79,G5,33,1
63360,104.210304,1439,2.366771,38,D2,33,2
63840,104.999776,479,0.787827,78,F5#,33,1
63840,104.999776,959,1.577299,66,F4#,33,1
63840,104.999776,959,1.577299,61,C4#,33,1
63840,104.999776,959,1.577299,57,A3,33,1
64320,105.789248,479,0.787827,73,C5#,33,1
64800,106.57872,479,0.787827,71,B4,33,1
64800,106.57872,1439,2.366771,43,G2,33,2
65280,107.368192,479,0.787827,73,C5#,33,1
65280,107.368192,959,1.577299,66,F4#,33,1
65280,107.368192,959,1.577299,62,D4,33,1
65280,107.368192,959,1.577299,59,B3,33,1
65760,108.157664,479,0.787827,74,D5,33,1
66240,108.947136,1439,2.366771,69,A4,33,1
66240,108.947136,1439,2.366771,38,D2,33,2
66720,109.736608,959,1.577299,66,F4#,33,1
66720,109.736608,959,1.577299,61,C4#,33,1
66720,109.736608,959,1.577299,57,A3,33,1
67680,111.315552,1439,2.366771,66,F4#,33,1
67680,111.315552,1439,2.366771,43,G2,33,2
68160,112.105024,959,1.577299,66,F4#,33,1
68160,112.105024,959,1.577299,62,D4,33,1
68160,112.105024,959,1.577299,59,B3,33,1
69120,113.683968,1439,2.366771,38,D2,33,2
69600,114.47344,959,1.577299,66,F4#,33,1
69600,114.47344,959,1.577299,61,C4#,33,1
69600,114.47344,959,1.577299,57,A3,33,1
70560,116.052384,1439,2.366771,43,G2,33,2
71040,116.841856,959,1.577299,66,F4#,33,1
71040,116.841856,959,1.577299,62,D4,33,1
71040,116.841856,959,1.577299,59,B3,33,1
72000,118.4208,1439,2.366771,38,D2,33,2
72480,119.210272,959,1.577299,66,F4#,33,1
72480,119.210272,959,1.577299,61,C4#,33,1
72480,119.210272,959,1.577299,57,A3,33,1
73440,120.789216,1439,2.366771,43,G2,33,2
73920,121.578688,479,0.787827,78,F5#,33,1
73920,121.578688,959,1.577299,66,F4#,33,1
73920,121.578688,959,1.577299,62,D4,33,1
73920,121.578688,959,1.577299,59,B3,33,1
74400,122.36816,479,0.787827,81,A5,33,1
74880,123.157632,479,0.787827,79,G5,33,1
74880,123.157632,1439,2.366771,38,D2,33,2
75360,123.947104,479,0.787827,78,F5#,33,1
75360,123.947104,959,1.577299,66,F4#,33,1
75360,123.947104,959,1.577299,61,C4#,33,1
75360,123.947104,959,1.577299,57,A3,33,1
75840,124.736576,479,0.787827,73,C5#,33,1
76320,125.526048,479,0.787827,71,B4,33,1
76320,125.526048,1439,2.366771,43,G2,33,2
76800,126.31552,479,0.787827,73,C5#,33,1
76800,126.31552,959,1.577299,66,F4#,33,1
76800,126.31552,959,1.577299,62,D4,33,1
76800,126.31552,959,1.577299,59,B3,33,1
77280,127.104992,479,0.787827,74,D5,33,1
77760,127.894464,1439,2.366771,69,A4,33,1
77760,127.894464,1439,2.366771,38,D2,33,2
78240,128.683936,959,1.577299,66,F4#,33,1
78240,128.683936,959,1.577299,61,C4#,33,1
78240,128.683936,959,1.577299,57,A3,33,1
79200,130.26288,1439,2.366771,73,C5#,33,1
79200,130.26288,1439,2.366771,42,F2#,33,2
79680,131.052352,959,1.577299,66,F4#,33,1
79680,131.052352,959,1.577299,61,C4#,33,1
79680,131.052352,959,1.577299,57,A3,33,1
80640,132.631296,1439,2.366771,78,F5#,64,1
80640,132.631296,1439,2.366771,35,B1,64,2
81120,133.420768,959,1.577299,66,F4#,64,1
81120,133.420768,959,1.577299,62,D4,64,1
81120,133.420768,959,1.577299,59,B3,64,1
82080,134.999712,4319,7.103603,64,E4,64,1
82080,134.999712,1439,2.366771,40,E2,64,2
82560,135.789184,959,1.577299,59,B3,64,2
82560,135.789184,959,1.577299,55,G3,64,2
83520,137.368128,1439,2.366771,40,E2,64,2
84000,138.1576,959,1.577299,67,G4,64,2
84000,138.1576,959,1.577299,62,D4,64,2
84000,138.1576,959,1.577299,59,B3,64,2
84960,139.736544,1439,2.366771,38,D2,64,2
85440,140.526016,959,1.577299,62,D4,64,2
85440,140.526016,959,1.577299,57,A3,64,2
85440,140.526016,959,1.577299,53,F3,64,2
86400,142.10496,479,0.787827,69,A4,49,1
86400,142.10496,1439,2.366771,33,A1,49,2
86880,142.894432,479,0.787827,71,B4,49,1
86880,142.894432,959,1.577299,64,E4,49,2
86880,142.894432,959,1.577299,60,C4,49,2
86880,142.894432,959,1.577299,57,A3,49,2
87360,143.683904,479,0.787827,72,C5,49,1
87840,144.473376,479,0.787827,76,E5,49,1
87840,144.473376,1439,2.366771,38,D2,49,2
88320,145.262848,479,0.787827,74,D5,49,1
88320,145.262848,959,1.577299,64,E4,49,2
88320,145.262848,959,1.577299,59,B3,49,2
88320,145.262848,959,1.577299,55,G3,49,2
88800,146.05232,479,0.787827,71,B4,49,1
89280,146.841792,479,0.787827,74,D5,49,1
89280,146.841792,1439,2.366771,38,D2,49,2
89760,147.631264,479,0.787827,72,C5,49,1
89760,147.631264,959,1.577299,64,E4,49,2
89760,147.631264,959,1.577299,59,B3,49,2
89760,147.631264,959,1.577299,55,G3,49,2
89760,147.631264,959,1.577299,50,D3,49,2
90240,148.420736,479,0.787827,71,B4,49,1
90720,149.210208,2399,3.945715,74,D5,49,1
90720,149.210208,1439,2.366771,38,D2,49,2
91200,149.99968,959,1.577299,62,D4,49,2
91200,149.99968,959,1.577299,57,A3,49,2
91200,149.99968,959,1.577299,52,E3,49,2
91200,149.99968,959,1.577299,48,C3,49,2
92160,151.578624,1439,2.366771,38,D2,49,2
92640,152.368096,959,1.577299,62,D4,49,2
92640,152.368096,959,1.577299,57,A3,49,2
92640,152.368096,959,1.577299,54,F3#,49,2
92640,152.368096,959,1.577299,48,C3,49,2
93120,153.157568,479,0.787827,74,D5,49,1
93600,153.94704,479,0.787827,76,E5,49,1
93600,153.94704,1439,2.366771,38,D2,49,2
94080,154.736512,479,0.787827,77,F5,49,1
94080,154.736512,959,1.577299,65,F4,49,2
94080,154.736512,959,1.577299,60,C4,49,2
94080,154.736512,959,1.577299,57,A3,49,2
94560,155.525984,479,0.787827,79,G5,49,1
95040,156.315456,479,0.787827,81,A5,49,1
95040,156.315456,1439,2.366771,38,D2,49,2
95520,157.104928,479,0.787827,72,C5,49,1
95520,157.104928,959,1.577299,64,E4,49,2
95520,157.104928,959,1.577299,60,C4,49,2
95520,157.104928,959,1.577299,57,A3,49,2
96000,157.8944,479,0.787827,74,D5,49,1
96480,158.683872,479,0.787827,76,E5,49,1
96480,158.683872,1439,2.366771,38,D2,49,2
96960,159.473344,479,0.787827,74,D5,49,1
96960,159.473344,959,1.577299,64,E4,49,2
96960,159.473344,959,1.577299,59,B3,49,2
96960,159.473344,959,1.577299,55,G3,49,2
96960,159.473344,959,1.577299,50,D3,49,2
97440,160.262816,479,0.787827,71,B4,49,1
97920,161.052288,2399,3.945715,74,D5,33,1
97920,161.052288,1439,2.366771,38,D2,33,2
98400,161.84176,959,1.577299,62,D4,33,2
98400,161.84176,959,1.577299,57,A3,33,2
98400,161.84176,959,1.577299,52,E3,33,2
98400,161.84176,959,1.577299,48,C3,33,2
99360,163.420704,1439,2.366771,38,D2,33,2
99840,164.210176,959,1.577299,62,D4,33,2
99840,164.210176,959,1.577299,57,A3,33,2
99840,164.210176,959,1.577299,54,F3#,33,2
99840,164.210176,959,1.577299,48,C3,33,2
100320,164.999648,479,0.787827,74,D5,33,1
100800,165.78912,1439,2.366771,79,G5,33,1
100800,165.78912,1439,2.366771,40,E2,33,2
101280,166.578592,959,1.577299,67,G4,33,1
101280,166.578592,959,1.577299,64,E4,33,1
101280,166.578592,959,1.577299,59,B3,33,1
102240,168.157536,1439,2.366771,77,F5,33,1
102240,168.157536,1439,2.366771,40,E2,33,2
102720,168.947008,959,1.577299,69,A4,33,1
102720,168.947008,959,1.577299,65,F4,33,1
102720,168.947008,959,1.577299,62,D4,33,1
102720,168.947008,959,1.577299,57,A3,33,1
103680,170.525952,479,0.787827,71,B4,33,1
103680,170.525952,1439,2.366771,40,E2,33,2
104160,171.315424,479,0.787827,72,C5,33,1
104160,171.315424,959,1.577299,65,F4,33,1
104160,171.315424,959,1.577299,60,C4,33,1
104160,171.315424,959,1.577299,57,A3,33,1
104640,172.104896,479,0.787827,77,F5,33,1
105120,172.894368,479,0.787827,76,E5,33,1
105120,172.894368,1439,2.366771,40,E2,33,2
105600,173.68384,479,0.787827,74,D5,33,1
105600,173.68384,959,1.577299,69,A4,33,1
105600,173.68384,959,1.577299,64,E4,33,1
105600,173.68384,959,1.577299,60,C4,33,1
106080,174.473312,479,0.787827,72,C5,33,1
106560,175.262784,479,0.787827,76,E5,33,1
106560,175.262784,1439,2.366771,40,E2,33,2
107040,176.052256,479,0.787827,74,D5,33,1
107040,176.052256,959,1.577299,69,A4,33,1
107040,176.052256,959,1.577299,65,F4,33,1
107040,176.052256,959,1.577299,60,C4,33,1
107040,176.052256,959,1.577299,57,A3,33,1
107520,176.841728,479,0.787827,72,C5,33,1
108000,177.6312,1439,2.366771,65,F4,33,1
108000,177.6312,1439,2.366771,40,E2,33,2
108480,178.420672,479,0.787827,62,D4,33,1
108480,178.420672,479,0.787827,57,A3,33,1
108480,178.420672,479,0.787827,47,B2,33,2
108960,179.210144,479,0.787827,67,G4,33,1
108960,179.210144,479,0.787827,62,D4,33,1
108960,179.210144,479,0.787827,59,B3,33,1
108960,179.210144,479,0.787827,52,E3,33,2
109440,179.999616,1439,2.366771,72,C5,33,1
109440,179.999616,1439,2.366771,69,A4,33,1
109440,179.999616,1439,2.366771,64,E4,33,1
109440,179.999616,1439,2.366771,60,C4,33,1
109440,179.999616,1439,2.366771,55,G3,33,2
109440,179.999616,1439,2.366771,45,A2,33,2
110880,182.368032,1439,2.366771,74,D5,16,1
110880,182.368032,1439,2.366771,69,A4,16,1
110880,182.368032,1439,2.366771,65,F4,16,1
110880,182.368032,1439,2.366771,62,D4,16,1
110880,182.368032,1439,2.366771,50,D3,16,2
110880,182.368032,1439,2.366771,45,A2,16,2
110880,182.368032,1439,2.366771,38,D2,16,2
