start_ticks,start_secs,dur_ticks,dur_secs,pitch,fullNoteOctave,velocity,part
240,0.25,119,0.123958,65,F4,80,1
480,0.5,119,0.123958,69,A4,80,1
720,0.75,119,0.123958,65,F4,80,1
960,1.0,119,0.123958,72,C5,80,1
1200,1.25,119,0.123958,65,F4,80,1
1440,1.5,239,0.248958,77,F5,80,1
1680,1.75,119,0.123958,76,E5,80,1
1680,1.75,119,0.123958,53,F3,80,2
1800,1.875,119,0.123958,74,D5,80,1
1920,2.0,119,0.123958,72,C5,80,1
1920,2.0,119,0.123958,57,A3,80,2
2040,2.125,119,0.123958,74,D5,80,1
2160,2.25,119,0.123958,72,C5,80,1
2160,2.25,119,0.123958,53,F3,80,2
2280,2.375,119,0.123958,70,A4#,80,1
2400,2.5,119,0.123958,69,A4,80,1
2400,2.5,119,0.123958,60,C4,80,2
2520,2.625,119,0.123958,70,A4#,80,1
2640,2.75,119,0.123958,69,A4,80,1
2640,2.75,119,0.123958,53,F3,80,2
2760,2.875,119,0.123958,67,G4,80,1
2880,3.0,239,0.248958,65,F4,80,1
2880,3.0,239,0.248958,65,F4,80,2
3120,3.25,119,0.123958,69,A4,80,1
3120,3.25,119,0.123958,64,E4,80,2
3240,3.375,119,0.123958,62,D4,80,2
3360,3.5,119,0.123958,72,C5,80,1
3360,3.5,119,0.123958,60,C4,80,2
3480,3.625,119,0.123958,62,D4,80,2
3600,3.75,119,0.123958,69,A4,80,1
3600,3.75,119,0.123958,60,C4,80,2
3720,3.875,119,0.123958,58,A3#,80,2
3840,4.0,119,0.123958,77,F5,80,1
3840,4.0,119,0.123958,57,A3,80,2
3960,4.125,119,0.123958,58,A3#,80,2
4080,4.25,119,0.123958,72,C5,80,1
4080,4.25,119,0.123958,57,A3,80,2
4200,4.375,119,0.123958,55,G3,80,2
4320,4.5,119,0.123958,81,A5,80,1
4320,4.5,239,0.248958,53,F3,80,2
4440,4.625,119,0.123958,84,C6,80,1
4560,4.75,119,0.123958,82,A5#,80,1
4560,4.75,119,0.123958,57,A3,80,2
4680,4.875,119,0.123958,84,C6,80,1
4800,5.0,119,0.123958,81,A5,80,1
4800,5.0,119,0.123958,60,C4,80,2
4920,5.125,119,0.123958,84,C6,80,1
5040,5.25,119,0.123958,82,A5#,80,1
5040,5.25,119,0.123958,57,A3,80,2
5160,5.375,119,0.123958,84,C6,80,1
5280,5.5,119,0.123958,81,A5,80,1
5280,5.5,119,0.123958,65,F4,80,2
5400,5.625,119,0.123958,84,C6,80,1
5520,5.75,119,0.123958,82,A5#,80,1
5520,5.75,119,0.123958,60,C4,80,2
5640,5.875,119,0.123958,84,C6,80,1
5760,6.0,119,0.123958,77,F5,80,1
5760,6.0,119,0.123958,69,A4,80,2
5880,6.125,119,0.123958,81,A5,80,1
5880,6.125,119,0.123958,72,C5,80,2
6000,6.25,119,0.123958,79,G5,80,1
6000,6.25,119,0.123958,70,A4#,80,2
6120,6.375,119,0.123958,81,A5,80,1
6120,6.375,119,0.123958,72,C5,80,2
6240,6.5,119,0.123958,77,F5,80,1
6240,6.5,119,0.123958,69,A4,80,2
6360,6.625,119,0.123958,81,A5,80,1
6360,6.625,119,0.123958,72,C5,80,2
6480,6.75,119,0.123958,79,G5,80,1
6480,6.75,119,0.123958,70,A4#,80,2
6600,6.875,119,0.123958,81,A5,80,1
6600,6.875,119,0.123958,72,C5,80,2
6720,7.0,119,0.123958,77,F5,80,1
6720,7.0,119,0.123958,69,A4,80,2
6840,7.125,119,0.123958,81,A5,80,1
6840,7.125,119,0.123958,72,C5,80,2
6960,7.25,119,0.123958,79,G5,80,1
6960,7.25,119,0.123958,70,A4#,80,2
7080,7.375,119,0.123958,81,A5,80,1
7080,7.375,119,0.123958,72,C5,80,2
7200,7.5,119,0.123958,74,D5,80,1
7200,7.5,119,0.123958,65,F4,80,2
7320,7.625,119,0.123958,77,F5,80,1
7320,7.625,119,0.123958,69,A4,80,2
7440,7.75,119,0.123958,76,E5,80,1
7440,7.75,119,0.123958,67,G4,80,2
7560,7.875,119,0.123958,77,F5,80,1
7560,7.875,119,0.123958,69,A4,80,2
7680,8.0,119,0.123958,74,D5,80,1
7680,8.0,119,0.123958,65,F4,80,2
7800,8.125,119,0.123958,77,F5,80,1
7800,8.125,119,0.123958,69,A4,80,2
7920,8.25,119,0.123958,76,E5,80,1
7920,8.25,119,0.123958,67,G4,80,2
8040,8.375,119,0.123958,77,F5,80,1
8040,8.375,119,0.123958,69,A4,80,2
8160,8.5,119,0.123958,74,D5,80,1
8160,8.5,119,0.123958,65,F4,80,2
8280,8.625,119,0.123958,77,F5,80,1
8280,8.625,119,0.123958,69,A4,80,2
8400,8.75,119,0.123958,76,E5,80,1
8400,8.75,119,0.123958,67,G4,80,2
8520,8.875,119,0.123958,77,F5,80,1
8520,8.875,119,0.123958,69,A4,80,2
8640,9.0,239,0.248958,71,B4,80,1
8640,9.0,119,0.123958,62,D4,80,2
8760,9.125,119,0.123958,65,F4,80,2
8880,9.25,119,0.123958,67,G4,80,1
8880,9.25,119,0.123958,64,E4,80,2
9000,9.375,119,0.123958,65,F4,80,2
9120,9.5,119,0.123958,74,D5,80,1
9120,9.5,119,0.123958,62,D4,80,2
9240,9.625,119,0.123958,65,F4,80,2
9360,9.75,119,0.123958,71,B4,80,1
9360,9.75,119,0.123958,64,E4,80,2
9480,9.875,119,0.123958,65,F4,80,2
9600,10.0,119,0.123958,77,F5,80,1
9600,10.0,119,0.123958,62,D4,80,2
9720,10.125,119,0.123958,65,F4,80,2
9840,10.25,119,0.123958,74,D5,80,1
9840,10.25,119,0.123958,64,E4,80,2
9960,10.375,119,0.123958,65,F4,80,2
10080,10.5,119,0.123958,79,G5,80,1
10080,10.5,239,0.248958,59,B3,80,2
10200,10.625,119,0.123958,81,A5,80,1
10320,10.75,119,0.123958,79,G5,80,1
10320,10.75,119,0.123958,55,G3,80,2
10440,10.875,119,0.123958,77,F5,80,1
10560,11.0,119,0.123958,76,E5,80,1
10560,11.0,119,0.123958,60,C4,80,2
10680,11.125,119,0.123958,77,F5,80,1
10800,11.25,119,0.123958,76,E5,80,1
10800,11.25,119,0.123958,55,G3,80,2
10920,11.375,119,0.123958,74,D5,80,1
11040,11.5,119,0.123958,72,C5,80,1
11040,11.5,119,0.123958,64,E4,80,2
11160,11.625,119,0.123958,74,D5,80,1
11280,11.75,119,0.123958,72,C5,80,1
11280,11.75,119,0.123958,60,C4,80,2
11400,11.875,119,0.123958,70,A4#,80,1
11520,12.0,239,0.248958,69,A4,80,1
11520,12.0,119,0.123958,65,F4,80,2
11640,12.125,119,0.123958,67,G4,80,2
11760,12.25,119,0.123958,74,D5,80,1
11760,12.25,119,0.123958,65,F4,80,2
11880,12.375,119,0.123958,72,C5,80,1
11880,12.375,119,0.123958,64,E4,80,2
12000,12.5,119,0.123958,71,B4,80,1
12000,12.5,119,0.123958,62,D4,80,2
12120,12.625,119,0.123958,72,C5,80,1
12120,12.625,119,0.123958,64,E4,80,2
12240,12.75,119,0.123958,71,B4,80,1
12240,12.75,119,0.123958,62,D4,80,2
12360,12.875,119,0.123958,69,A4,80,1
12360,12.875,119,0.123958,60,C4,80,2
12480,13.0,119,0.123958,67,G4,80,1
12480,13.0,119,0.123958,59,B3,80,2
12600,13.125,119,0.123958,69,A4,80,1
12600,13.125,119,0.123958,60,C4,80,2
12720,13.25,119,0.123958,67,G4,80,1
12720,13.25,119,0.123958,59,B3,80,2
12840,13.375,119,0.123958,65,F4,80,1
12840,13.375,119,0.123958,57,A3,80,2
12960,13.5,119,0.123958,64,E4,80,1
12960,13.5,239,0.248958,55,G3,80,2
13080,13.625,119,0.123958,65,F4,80,1
13200,13.75,119,0.123958,64,E4,80,1
13200,13.75,119,0.123958,60,C4,80,2
13320,13.875,119,0.123958,62,D4,80,1
13320,13.875,119,0.123958,59,B3,80,2
13440,14.0,119,0.123958,60,C4,80,1
13440,14.0,119,0.123958,57,A3,80,2
13560,14.125,119,0.123958,59,B3,80,2
13680,14.25,119,0.123958,72,C5,80,1
13680,14.25,119,0.123958,57,A3,80,2
13800,14.375,119,0.123958,71,B4,80,1
13800,14.375,119,0.123958,55,G3,80,2
13920,14.5,119,0.123958,72,C5,80,1
13920,14.5,119,0.123958,53,F3,80,2
14040,14.625,119,0.123958,55,G3,80,2
14160,14.75,119,0.123958,64,E4,80,1
14160,14.75,119,0.123958,53,F3,80,2
14280,14.875,119,0.123958,52,E3,80,2
14400,15.0,119,0.123958,65,F4,80,1
14400,15.0,119,0.123958,50,D3,80,2
14520,15.125,119,0.123958,52,E3,80,2
14640,15.25,119,0.123958,72,C5,80,1
14640,15.25,119,0.123958,50,D3,80,2
14760,15.375,119,0.123958,48,C3,80,2
14880,15.5,119,0.123958,64,E4,80,1
14880,15.5,119,0.123958,55,G3,80,2
15000,15.625,119,0.123958,53,F3,80,2
15120,15.75,119,0.123958,72,C5,80,1
15120,15.75,119,0.123958,52,E3,80,2
15240,15.875,119,0.123958,53,F3,80,2
15360,16.0,119,0.123958,62,D4,80,1
15360,16.0,119,0.123958,55,G3,80,2
15600,16.25,119,0.123958,71,B4,80,1
15600,16.25,119,0.123958,43,G2,80,2
15840,16.5,239,0.248958,72,C5,80,1
16080,16.75,119,0.123958,48,C3,80,2
16320,17.0,119,0.123958,52,E3,80,2
16560,17.25,119,0.123958,48,C3,80,2
16800,17.5,119,0.123958,55,G3,80,2
17040,17.75,119,0.123958,48,C3,80,2
17280,18.0,239,0.248958,60,C4,80,2
17520,18.25,119,0.123958,72,C5,80,1
17520,18.25,119,0.123958,59,B3,80,2
17640,18.375,119,0.123958,57,A3,80,2
17760,18.5,119,0.123958,76,E5,80,1
17760,18.5,119,0.123958,55,G3,80,2
17880,18.625,119,0.123958,57,A3,80,2
18000,18.75,119,0.123958,72,C5,80,1
18000,18.75,119,0.123958,55,G3,80,2
18120,18.875,119,0.123958,53,F3,80,2
18240,19.0,119,0.123958,79,G5,80,1
18240,19.0,119,0.123958,52,E3,80,2
18360,19.125,119,0.123958,53,F3,80,2
18480,19.25,119,0.123958,72,C5,80,1
18480,19.25,119,0.123958,52,E3,80,2
18600,19.375,119,0.123958,50,D3,80,2
18720,19.5,239,0.248958,84,C6,80,1
18720,19.5,239,0.248958,48,C3,80,2
18960,19.75,119,0.123958,83,B5,80,1
18960,19.75,119,0.123958,52,E3,80,2
19080,19.875,119,0.123958,81,A5,80,1
19200,20.0,119,0.123958,79,G5,80,1
19200,20.0,119,0.123958,55,G3,80,2
19320,20.125,119,0.123958,81,A5,80,1
19440,20.25,119,0.123958,79,G5,80,1
19440,20.25,119,0.123958,52,E3,80,2
19560,20.375,119,0.123958,77,F5,80,1
19680,20.5,119,0.123958,76,E5,80,1
19680,20.5,119,0.123958,60,C4,80,2
19800,20.625,119,0.123958,77,F5,80,1
19920,20.75,119,0.123958,76,E5,80,1
19920,20.75,119,0.123958,55,G3,80,2
20040,20.875,119,0.123958,74,D5,80,1
20160,21.0,119,0.123958,72,C5,80,1
20160,21.0,119,0.123958,63,D4#,80,2
20280,21.125,119,0.123958,70,A4#,80,1
20400,21.25,119,0.123958,72,C5,80,1
20400,21.25,119,0.123958,54,F3#,80,2
20520,21.375,119,0.123958,81,A5,80,1
20640,21.5,119,0.123958,72,C5,80,1
20640,21.5,119,0.123958,63,D4#,80,2
20760,21.625,119,0.123958,81,A5,80,1
20880,21.75,119,0.123958,70,A4#,80,1
20880,21.75,119,0.123958,54,F3#,80,2
21000,21.875,119,0.123958,81,A5,80,1
21120,22.0,119,0.123958,72,C5,80,1
21120,22.0,119,0.123958,63,D4#,80,2
21240,22.125,119,0.123958,81,A5,80,1
21360,22.25,119,0.123958,69,A4,80,1
21360,22.25,119,0.123958,54,F3#,80,2
21480,22.375,119,0.123958,81,A5,80,1
21600,22.5,239,0.248958,70,A4#,80,1
21600,22.5,239,0.248958,55,G3,80,2
21840,22.75,119,0.123958,67,G4,80,1
21840,22.75,119,0.123958,53,F3,80,2
21960,22.875,119,0.123958,51,D3#,80,2
22080,23.0,119,0.123958,70,A4#,80,1
22080,23.0,119,0.123958,50,D3,80,2
22200,23.125,119,0.123958,51,D3#,80,2
22320,23.25,119,0.123958,67,G4,80,1
22320,23.25,119,0.123958,50,D3,80,2
22440,23.375,119,0.123958,48,C3,80,2
22560,23.5,119,0.123958,74,D5,80,1
22560,23.5,119,0.123958,46,A2#,80,2
22680,23.625,119,0.123958,48,C3,80,2
22800,23.75,119,0.123958,67,G4,80,1
22800,23.75,119,0.123958,46,A2#,80,2
22920,23.875,119,0.123958,45,A2,80,2
23040,24.0,239,0.248958,79,G5,80,1
23040,24.0,239,0.248958,43,G2,80,2
23280,24.25,119,0.123958,77,F5,80,1
23280,24.25,119,0.123958,55,G3,80,2
23400,24.375,119,0.123958,75,D5#,80,1
23520,24.5,119,0.123958,74,D5,80,1
23520,24.5,119,0.123958,58,A3#,80,2
23640,24.625,119,0.123958,75,D5#,80,1
23760,24.75,119,0.123958,74,D5,80,1
23760,24.75,119,0.123958,55,G3,80,2
23880,24.875,119,0.123958,72,C5,80,1
24000,25.0,119,0.123958,70,A4#,80,1
24000,25.0,119,0.123958,62,D4,80,2
24120,25.125,119,0.123958,72,C5,80,1
24240,25.25,119,0.123958,70,A4#,80,1
24240,25.25,119,0.123958,55,G3,80,2
24360,25.375,119,0.123958,69,A4,80,1
24480,25.5,239,0.248958,67,G4,80,1
24480,25.5,239,0.248958,67,G4,80,2
24720,25.75,119,0.123958,70,A4#,80,1
24720,25.75,119,0.123958,65,F4,80,2
24840,25.875,119,0.123958,63,D4#,80,2
24960,26.0,119,0.123958,74,D5,80,1
24960,26.0,119,0.123958,62,D4,80,2
25080,26.125,119,0.123958,63,D4#,80,2
25200,26.25,119,0.123958,70,A4#,80,1
25200,26.25,119,0.123958,62,D4,80,2
25320,26.375,119,0.123958,60,C4,80,2
25440,26.5,119,0.123958,79,G5,80,1
25440,26.5,119,0.123958,58,A3#,80,2
25560,26.625,119,0.123958,60,C4,80,2
25680,26.75,119,0.123958,74,D5,80,1
25680,26.75,119,0.123958,58,A3#,80,2
25800,26.875,119,0.123958,57,A3,80,2
25920,27.0,119,0.123958,82,A5#,80,1
25920,27.0,119,0.123958,55,G3,80,2
26040,27.125,119,0.123958,53,F3,80,2
26160,27.25,119,0.123958,73,C5#,80,1
26160,27.25,119,0.123958,55,G3,80,2
26280,27.375,119,0.123958,64,E4,80,2
26400,27.5,119,0.123958,82,A5#,80,1
26400,27.5,119,0.123958,55,G3,80,2
26520,27.625,119,0.123958,64,E4,80,2
26640,27.75,119,0.123958,73,C5#,80,1
26640,27.75,119,0.123958,53,F3,80,2
26760,27.875,119,0.123958,64,E4,80,2
26880,28.0,119,0.123958,82,A5#,80,1
26880,28.0,119,0.123958,55,G3,80,2
27000,28.125,119,0.123958,64,E4,80,2
27120,28.25,119,0.123958,73,C5#,80,1
27120,28.25,119,0.123958,52,E3,80,2
27240,28.375,119,0.123958,64,E4,80,2
27360,28.5,119,0.123958,74,D5,80,1
27360,28.5,119,0.123958,53,F3,80,2
27480,28.625,119,0.123958,52,E3,80,2
27600,28.75,119,0.123958,69,A4,80,1
27600,28.75,119,0.123958,53,F3,80,2
27720,28.875,119,0.123958,62,D4,80,2
27840,29.0,119,0.123958,77,F5,80,1
27840,29.0,119,0.123958,53,F3,80,2
27960,29.125,119,0.123958,62,D4,80,2
28080,29.25,119,0.123958,74,D5,80,1
28080,29.25,119,0.123958,52,E3,80,2
28200,29.375,119,0.123958,62,D4,80,2
28320,29.5,119,0.123958,81,A5,80,1
28320,29.5,119,0.123958,53,F3,80,2
28440,29.625,119,0.123958,62,D4,80,2
28560,29.75,119,0.123958,77,F5,80,1
28560,29.75,119,0.123958,50,D3,80,2
28680,29.875,119,0.123958,62,D4,80,2
28800,30.0,119,0.123958,79,G5,80,1
28800,30.0,119,0.123958,58,A3#,80,2
28920,30.125,119,0.123958,77,F5,80,1
29040,30.25,119,0.123958,79,G5,80,1
29040,30.25,119,0.123958,55,G3,80,2
29160,30.375,119,0.123958,82,A5#,80,1
29280,30.5,119,0.123958,76,E5,80,1
29280,30.5,119,0.123958,52,E3,80,2
29400,30.625,119,0.123958,82,A5#,80,1
29520,30.75,119,0.123958,74,D5,80,1
29520,30.75,119,0.123958,55,G3,80,2
29640,30.875,119,0.123958,82,A5#,80,1
29760,31.0,119,0.123958,76,E5,80,1
29760,31.0,119,0.123958,48,C3,80,2
29880,31.125,119,0.123958,82,A5#,80,1
30000,31.25,119,0.123958,72,C5,80,1
30000,31.25,119,0.123958,52,E3,80,2
30120,31.375,119,0.123958,82,A5#,80,1
30240,31.5,119,0.123958,77,F5,80,1
30240,31.5,119,0.123958,57,A3,80,2
30360,31.625,119,0.123958,76,E5,80,1
30480,31.75,119,0.123958,77,F5,80,1
30480,31.75,119,0.123958,53,F3,80,2
30600,31.875,119,0.123958,81,A5,80,1
30720,32.0,119,0.123958,71,B4,80,1
30720,32.0,119,0.123958,50,D3,80,2
30840,32.125,119,0.123958,81,A5,80,1
30960,32.25,119,0.123958,73,C5#,80,1
30960,32.25,119,0.123958,53,F3,80,2
31080,32.375,119,0.123958,81,A5,80,1
31200,32.5,119,0.123958,74,D5,80,1
31200,32.5,119,0.123958,47,B2,80,2
31320,32.625,119,0.123958,81,A5,80,1
31440,32.75,119,0.123958,71,B4,80,1
31440,32.75,119,0.123958,50,D3,80,2
31560,32.875,119,0.123958,81,A5,80,1
31680,33.0,119,0.123958,76,E5,80,1
31680,33.0,119,0.123958,55,G3,80,2
31800,33.125,119,0.123958,74,D5,80,1
31920,33.25,119,0.123958,76,E5,80,1
31920,33.25,119,0.123958,52,E3,80,2
32040,33.375,119,0.123958,79,G5,80,1
32160,33.5,119,0.123958,69,A4,80,1
32160,33.5,119,0.123958,49,C3#,80,2
32280,33.625,119,0.123958,79,G5,80,1
32400,33.75,119,0.123958,71,B4,80,1
32400,33.75,119,0.123958,52,E3,80,2
32520,33.875,119,0.123958,79,G5,80,1
32640,34.0,119,0.123958,73,C5#,80,1
32640,34.0,119,0.123958,45,A2,80,2
32760,34.125,119,0.123958,79,G5,80,1
32880,34.25,119,0.123958,69,A4,80,1
32880,34.25,119,0.123958,49,C3#,80,2
33000,34.375,119,0.123958,79,G5,80,1
33120,34.5,119,0.123958,77,F5,80,1
33120,34.5,119,0.123958,38,D2,80,2
33240,34.625,119,0.123958,50,D3,80,2
33360,34.75,119,0.123958,74,D5,80,1
33360,34.75,119,0.123958,48,C3,80,2
33480,34.875,119,0.123958,50,D3,80,2
33600,35.0,119,0.123958,70,A4#,80,1
33600,35.0,119,0.123958,43,G2,80,2
33720,35.125,119,0.123958,50,D3,80,2
33840,35.25,119,0.123958,74,D5,80,1
33840,35.25,119,0.123958,45,A2,80,2
33960,35.375,119,0.123958,50,D3,80,2
34080,35.5,119,0.123958,67,G4,80,1
34080,35.5,119,0.123958,46,A2#,80,2
34200,35.625,119,0.123958,50,D3,80,2
34320,35.75,119,0.123958,77,F5,80,1
34320,35.75,119,0.123958,43,G2,80,2
34440,35.875,119,0.123958,50,D3,80,2
34560,36.0,119,0.123958,76,E5,80,1
34560,36.0,119,0.123958,36,C2,80,2
34680,36.125,119,0.123958,48,C3,80,2
34800,36.25,119,0.123958,72,C5,80,1
34800,36.25,119,0.123958,46,A2#,80,2
34920,36.375,119,0.123958,48,C3,80,2
35040,36.5,119,0.123958,69,A4,80,1
35040,36.5,119,0.123958,41,F2,80,2
35160,36.625,119,0.123958,48,C3,80,2
35280,36.75,119,0.123958,72,C5,80,1
35280,36.75,119,0.123958,43,G2,80,2
35400,36.875,119,0.123958,48,C3,80,2
35520,37.0,119,0.123958,65,F4,80,1
35520,37.0,119,0.123958,45,A2,80,2
35640,37.125,119,0.123958,48,C3,80,2
35760,37.25,119,0.123958,75,D5#,80,1
35760,37.25,119,0.123958,41,F2,80,2
35880,37.375,119,0.123958,48,C3,80,2
36000,37.5,119,0.123958,74,D5,80,1
36000,37.5,239,0.248958,46,A2#,80,2
36120,37.625,119,0.123958,77,F5,80,1
36240,37.75,119,0.123958,75,D5#,80,1
36240,37.75,119,0.123958,50,D3,80,2
36360,37.875,119,0.123958,77,F5,80,1
36480,38.0,119,0.123958,74,D5,80,1
36480,38.0,119,0.123958,53,F3,80,2
36600,38.125,119,0.123958,77,F5,80,1
36720,38.25,119,0.123958,75,D5#,80,1
36720,38.25,119,0.123958,50,D3,80,2
36840,38.375,119,0.123958,77,F5,80,1
36960,38.5,119,0.123958,74,D5,80,1
36960,38.5,119,0.123958,58,A3#,80,2
37080,38.625,119,0.123958,77,F5,80,1
37200,38.75,119,0.123958,75,D5#,80,1
37200,38.75,119,0.123958,53,F3,80,2
37320,38.875,119,0.123958,77,F5,80,1
37440,39.0,119,0.123958,70,A4#,80,1
37440,39.0,119,0.123958,62,D4,80,2
37560,39.125,119,0.123958,74,D5,80,1
37560,39.125,119,0.123958,65,F4,80,2
37680,39.25,119,0.123958,72,C5,80,1
37680,39.25,119,0.123958,63,D4#,80,2
37800,39.375,119,0.123958,74,D5,80,1
37800,39.375,119,0.123958,65,F4,80,2
37920,39.5,119,0.123958,70,A4#,80,1
37920,39.5,119,0.123958,62,D4,80,2
38040,39.625,119,0.123958,74,D5,80,1
38040,39.625,119,0.123958,65,F4,80,2
38160,39.75,119,0.123958,72,C5,80,1
38160,39.75,119,0.123958,63,D4#,80,2
38280,39.875,119,0.123958,74,D5,80,1
38280,39.875,119,0.123958,65,F4,80,2
38400,40.0,119,0.123958,70,A4#,80,1
38400,40.0,119,0.123958,62,D4,80,2
38520,40.125,119,0.123958,74,D5,80,1
38520,40.125,119,0.123958,65,F4,80,2
38640,40.25,119,0.123958,72,C5,80,1
38640,40.25,119,0.123958,63,D4#,80,2
38760,40.375,119,0.123958,74,D5,80,1
38760,40.375,119,0.123958,65,F4,80,2
38880,40.5,119,0.123958,67,G4,80,1
38880,40.5,119,0.123958,58,A3#,80,2
39000,40.625,119,0.123958,70,A4#,80,1
39000,40.625,119,0.123958,62,D4,80,2
39120,40.75,119,0.123958,69,A4,80,1
39120,40.75,119,0.123958,60,C4,80,2
39240,40.875,119,0.123958,70,A4#,80,1
39240,40.875,119,0.123958,62,D4,80,2
39360,41.0,119,0.123958,67,G4,80,1
39360,41.0,119,0.123958,58,A3#,80,2
39480,41.125,119,0.123958,70,A4#,80,1
39480,41.125,119,0.123958,62,D4,80,2
39600,41.25,119,0.123958,69,A4,80,1
39600,41.25,119,0.123958,60,C4,80,2
39720,41.375,119,0.123958,70,A4#,80,1
39720,41.375,119,0.123958,62,D4,80,2
39840,41.5,119,0.123958,67,G4,80,1
39840,41.5,119,0.123958,58,A3#,80,2
39960,41.625,119,0.123958,70,A4#,80,1
39960,41.625,119,0.123958,62,D4,80,2
40080,41.75,119,0.123958,69,A4,80,1
40080,41.75,119,0.123958,60,C4,80,2
40200,41.875,119,0.123958,70,A4#,80,1
40200,41.875,119,0.123958,62,D4,80,2
40320,42.0,239,0.248958,64,E4,80,1
40320,42.0,119,0.123958,55,G3,80,2
40440,42.125,119,0.123958,58,A3#,80,2
40560,42.25,119,0.123958,60,C4,80,1
40560,42.25,119,0.123958,57,A3,80,2
40680,42.375,119,0.123958,58,A3#,80,2
40800,42.5,119,0.123958,67,G4,80,1
40800,42.5,119,0.123958,55,G3,80,2
40920,42.625,119,0.123958,58,A3#,80,2
41040,42.75,119,0.123958,64,E4,80,1
41040,42.75,119,0.123958,57,A3,80,2
41160,42.875,119,0.123958,58,A3#,80,2
41280,43.0,119,0.123958,70,A4#,80,1
41280,43.0,119,0.123958,55,G3,80,2
41400,43.125,119,0.123958,58,A3#,80,2
41520,43.25,119,0.123958,67,G4,80,1
41520,43.25,119,0.123958,57,A3,80,2
41640,43.375,119,0.123958,58,A3#,80,2
41760,43.5,119,0.123958,72,C5,80,1
41760,43.5,239,0.248958,52,E3,80,2
41880,43.625,119,0.123958,74,D5,80,1
42000,43.75,119,0.123958,72,C5,80,1
42000,43.75,119,0.123958,48,C3,80,2
42120,43.875,119,0.123958,70,A4#,80,1
42240,44.0,119,0.123958,69,A4,80,1
42240,44.0,119,0.123958,53,F3,80,2
42360,44.125,119,0.123958,70,A4#,80,1
42480,44.25,119,0.123958,69,A4,80,1
42480,44.25,119,0.123958,48,C3,80,2
42600,44.375,119,0.123958,67,G4,80,1
42720,44.5,119,0.123958,65,F4,80,1
42720,44.5,119,0.123958,57,A3,80,2
42840,44.625,119,0.123958,67,G4,80,1
42960,44.75,119,0.123958,65,F4,80,1
42960,44.75,119,0.123958,53,F3,80,2
43080,44.875,119,0.123958,63,D4#,80,1
43200,45.0,239,0.248958,62,D4,80,1
43200,45.0,119,0.123958,58,A3#,80,2
43320,45.125,119,0.123958,60,C4,80,2
43440,45.25,119,0.123958,67,G4,80,1
43440,45.25,119,0.123958,58,A3#,80,2
43560,45.375,119,0.123958,65,F4,80,1
43560,45.375,119,0.123958,57,A3,80,2
43680,45.5,119,0.123958,64,E4,80,1
43680,45.5,119,0.123958,55,G3,80,2
43800,45.625,119,0.123958,65,F4,80,1
43800,45.625,119,0.123958,57,A3,80,2
43920,45.75,119,0.123958,64,E4,80,1
43920,45.75,119,0.123958,55,G3,80,2
44040,45.875,119,0.123958,62,D4,80,1
44040,45.875,119,0.123958,53,F3,80,2
44160,46.0,119,0.123958,60,C4,80,1
44160,46.0,119,0.123958,52,E3,80,2
44280,46.125,119,0.123958,62,D4,80,1
44280,46.125,119,0.123958,53,F3,80,2
44400,46.25,119,0.123958,60,C4,80,1
44400,46.25,119,0.123958,52,E3,80,2
44520,46.375,119,0.123958,58,A3#,80,1
44520,46.375,119,0.123958,50,D3,80,2
44640,46.5,119,0.123958,57,A3,80,1
44640,46.5,239,0.248958,48,C3,80,2
44760,46.625,119,0.123958,58,A3#,80,1
44880,46.75,119,0.123958,57,A3,80,1
44880,46.75,119,0.123958,53,F3,80,2
45000,46.875,119,0.123958,55,G3,80,1
45000,46.875,119,0.123958,52,E3,80,2
45120,47.0,119,0.123958,53,F3,80,1
45120,47.0,119,0.123958,50,D3,80,2
45240,47.125,119,0.123958,52,E3,80,2
45360,47.25,119,0.123958,65,F4,80,1
45360,47.25,119,0.123958,50,D3,80,2
45480,47.375,119,0.123958,64,E4,80,1
45480,47.375,119,0.123958,48,C3,80,2
45600,47.5,119,0.123958,65,F4,80,1
45600,47.5,119,0.123958,46,A2#,80,2
45720,47.625,119,0.123958,48,C3,80,2
45840,47.75,119,0.123958,57,A3,80,1
45840,47.75,119,0.123958,46,A2#,80,2
45960,47.875,119,0.123958,45,A2,80,2
46080,48.0,119,0.123958,58,A3#,80,1
46080,48.0,119,0.123958,43,G2,80,2
46200,48.125,119,0.123958,45,A2,80,2
46320,48.25,119,0.123958,65,F4,80,1
46320,48.25,119,0.123958,43,G2,80,2
46440,48.375,119,0.123958,41,F2,80,2
46560,48.5,119,0.123958,57,A3,80,1
46560,48.5,119,0.123958,48,C3,80,2
46680,48.625,119,0.123958,46,A2#,80,2
46800,48.75,119,0.123958,65,F4,80,1
46800,48.75,119,0.123958,45,A2,80,2
46920,48.875,119,0.123958,46,A2#,80,2
47040,49.0,119,0.123958,55,G3,80,1
47040,49.0,119,0.123958,48,C3,80,2
47280,49.25,119,0.123958,64,E4,80,1
47280,49.25,119,0.123958,36,C2,80,2
47520,49.5,479,0.997916,57,A3,80,1
47520,49.5,479,0.997916,60,C4,80,1
47520,49.5,479,0.997916,65,F4,80,1
47520,49.5,479,0.997916,41,F2,80,2
