start_ticks,start_secs,dur_ticks,dur_secs,pitch,fullNoteOctave,velocity,part
0,0.0,239,0.248958,57,A3,49,2
0,0.0,3839,3.998958,53,F3,49,2
240,0.25,239,0.248958,60,C4,49,2
480,0.5,239,0.248958,57,A3,49,2
720,0.75,239,0.248958,60,C4,49,2
960,1.0,239,0.248958,57,A3,49,2
1200,1.25,239,0.248958,60,C4,49,2
1440,1.5,239,0.248958,57,A3,49,2
1680,1.75,227,0.236458,60,C4,49,2
1920,2.0,239,0.248958,57,A3,49,2
2160,2.25,239,0.248958,60,C4,49,2
2400,2.5,239,0.248958,57,A3,49,2
2640,2.75,239,0.248958,60,C4,49,2
2880,3.0,239,0.248958,57,A3,49,2
3120,3.25,239,0.248958,60,C4,49,2
3360,3.5,239,0.248958,57,A3,49,2
3600,3.75,227,0.236458,60,C4,49,2
3840,4.0,3647,3.798958,36,C2,49,1
3840,4.0,239,0.248958,57,A3,49,2
3840,4.0,3839,3.998958,52,E3,49,2
4080,4.25,239,0.248958,60,C4,49,2
4320,4.5,239,0.248958,57,A3,49,2
4560,4.75,239,0.248958,60,C4,49,2
4800,5.0,239,0.248958,57,A3,49,2
5040,5.25,239,0.248958,60,C4,49,2
5280,5.5,239,0.248958,57,A3,49,2
5520,5.75,227,0.236458,60,C4,49,2
5760,6.0,239,0.248958,57,A3,49,2
6000,6.25,239,0.248958,60,C4,49,2
6240,6.5,239,0.248958,57,A3,49,2
6480,6.75,239,0.248958,60,C4,49,2
6720,7.0,239,0.248958,57,A3,49,2
6960,7.25,239,0.248958,60,C4,49,2
7200,7.5,239,0.248958,57,A3,49,2
7440,7.75,227,0.236458,60,C4,49,2
7680,8.0,159,0.165625,72,C5,64,1
7680,8.0,239,0.248958,57,A3,64,2
7680,8.0,3839,3.998958,53,F3,64,2
7840,8.166666,159,0.165625,69,A4,64,1
7920,8.25,239,0.248958,60,C4,64,2
8000,8.333333,159,0.165625,72,C5,64,1
8160,8.5,159,0.165625,69,A4,64,1
8160,8.5,239,0.248958,57,A3,64,2
8320,8.666666,159,0.165625,72,C5,64,1
8400,8.75,239,0.248958,60,C4,64,2
8480,8.833333,159,0.165625,69,A4,64,1
8640,9.0,159,0.165625,72,C5,64,1
8640,9.0,239,0.248958,57,A3,64,2
8800,9.166666,159,0.165625,69,A4,64,1
8880,9.25,239,0.248958,60,C4,64,2
8960,9.333333,159,0.165625,72,C5,64,1
9120,9.5,159,0.165625,69,A4,64,1
9120,9.5,239,0.248958,57,A3,64,2
9280,9.666666,159,0.165625,72,C5,64,1
9360,9.75,227,0.236458,60,C4,64,2
9440,9.833333,159,0.165625,69,A4,64,1
9600,10.0,159,0.165625,72,C5,64,1
9600,10.0,239,0.248958,57,A3,64,2
9760,10.166666,159,0.165625,69,A4,64,1
9840,10.25,239,0.248958,60,C4,64,2
9920,10.333333,159,0.165625,72,C5,64,1
10080,10.5,159,0.165625,69,A4,64,1
10080,10.5,239,0.248958,57,A3,64,2
10240,10.666666,159,0.165625,72,C5,64,1
10320,10.75,239,0.248958,60,C4,64,2
10400,10.833333,159,0.165625,69,A4,64,1
10560,11.0,159,0.165625,72,C5,64,1
10560,11.0,239,0.248958,57,A3,64,2
10720,11.166666,159,0.165625,69,A4,64,1
10800,11.25,239,0.248958,60,C4,64,2
10880,11.333333,159,0.165625,72,C5,64,1
11040,11.5,159,0.165625,69,A4,64,1
11040,11.5,239,0.248958,57,A3,64,2
11200,11.666666,159,0.165625,72,C5,64,1
11280,11.75,227,0.236458,60,C4,64,2
11360,11.833333,151,0.157292,69,A4,64,1
11520,12.0,159,0.165625,72,C5,64,1
11520,12.0,239,0.248958,57,A3,64,2
11520,12.0,3839,3.998958,52,E3,64,2
11680,12.166666,159,0.165625,64,E4,64,1
11760,12.25,239,0.248958,60,C4,64,2
11840,12.333333,159,0.165625,72,C5,64,1
12000,12.5,159,0.165625,64,E4,64,1
12000,12.5,239,0.248958,57,A3,64,2
12160,12.666666,159,0.165625,72,C5,64,1
12240,12.75,239,0.248958,60,C4,64,2
12320,12.833333,159,0.165625,64,E4,64,1
12480,13.0,159,0.165625,72,C5,64,1
12480,13.0,239,0.248958,57,A3,64,2
12640,13.166666,159,0.165625,64,E4,64,1
12720,13.25,239,0.248958,60,C4,64,2
12800,13.333333,159,0.165625,72,C5,64,1
12960,13.5,159,0.165625,64,E4,64,1
12960,13.5,239,0.248958,57,A3,64,2
13120,13.666666,159,0.165625,72,C5,64,1
13200,13.75,227,0.236458,60,C4,64,2
13280,13.833333,159,0.165625,64,E4,64,1
13440,14.0,159,0.165625,72,C5,64,1
13440,14.0,239,0.248958,57,A3,64,2
13600,14.166666,159,0.165625,64,E4,64,1
13680,14.25,239,0.248958,60,C4,64,2
13760,14.333333,159,0.165625,72,C5,64,1
13920,14.5,159,0.165625,64,E4,64,1
13920,14.5,239,0.248958,57,A3,64,2
14080,14.666666,159,0.165625,72,C5,64,1
14160,14.75,239,0.248958,60,C4,64,2
14240,14.833333,159,0.165625,64,E4,64,1
14400,15.0,159,0.165625,72,C5,64,1
14400,15.0,239,0.248958,57,A3,64,2
14560,15.166666,159,0.165625,64,E4,64,1
14640,15.25,239,0.248958,60,C4,64,2
14720,15.333333,159,0.165625,72,C5,64,1
14880,15.5,159,0.165625,64,E4,64,1
14880,15.5,239,0.248958,57,A3,64,2
15040,15.666666,159,0.165625,72,C5,64,1
15120,15.75,227,0.236458,60,C4,64,2
15200,15.833333,151,0.157292,64,E4,64,1
15360,16.0,159,0.165625,72,C5,64,1
15360,16.0,239,0.248958,57,A3,64,2
15360,16.0,3839,3.998958,53,F3,64,2
15520,16.166666,159,0.165625,69,A4,64,1
15600,16.25,239,0.248958,60,C4,64,2
15680,16.333333,159,0.165625,72,C5,64,1
15840,16.5,159,0.165625,69,A4,64,1
15840,16.5,239,0.248958,57,A3,64,2
16000,16.666666,159,0.165625,72,C5,64,1
16080,16.75,239,0.248958,60,C4,64,2
16160,16.833333,159,0.165625,69,A4,64,1
16320,17.0,159,0.165625,72,C5,64,1
16320,17.0,239,0.248958,57,A3,64,2
16480,17.166666,159,0.165625,69,A4,64,1
16560,17.25,239,0.248958,60,C4,64,2
16640,17.333333,159,0.165625,72,C5,64,1
16800,17.5,159,0.165625,69,A4,64,1
16800,17.5,239,0.248958,57,A3,64,2
16960,17.666666,159,0.165625,72,C5,64,1
17040,17.75,227,0.236458,60,C4,64,2
17120,17.833333,159,0.165625,69,A4,64,1
17280,18.0,159,0.165625,72,C5,64,1
17280,18.0,239,0.248958,57,A3,64,2
17440,18.166666,159,0.165625,69,A4,64,1
17520,18.25,239,0.248958,60,C4,64,2
17600,18.333333,159,0.165625,72,C5,64,1
17760,18.5,159,0.165625,69,A4,64,1
17760,18.5,239,0.248958,57,A3,64,2
17920,18.666666,159,0.165625,72,C5,64,1
18000,18.75,239,0.248958,60,C4,64,2
18080,18.833333,159,0.165625,69,A4,64,1
18240,19.0,159,0.165625,72,C5,64,1
18240,19.0,239,0.248958,57,A3,64,2
18400,19.166666,159,0.165625,69,A4,64,1
18480,19.25,239,0.248958,60,C4,64,2
18560,19.333333,159,0.165625,72,C5,64,1
18720,19.5,159,0.165625,69,A4,64,1
18720,19.5,239,0.248958,57,A3,64,2
18880,19.666666,159,0.165625,72,C5,64,1
18960,19.75,227,0.236458,60,C4,64,2
19040,19.833333,151,0.157292,69,A4,64,1
19200,20.0,159,0.165625,72,C5,64,1
19200,20.0,239,0.248958,57,A3,64,2
19200,20.0,3839,3.998958,52,E3,64,2
19360,20.166666,159,0.165625,64,E4,64,1
19440,20.25,239,0.248958,60,C4,64,2
19520,20.333333,159,0.165625,72,C5,64,1
19680,20.5,159,0.165625,64,E4,64,1
19680,20.5,239,0.248958,57,A3,64,2
19840,20.666666,159,0.165625,72,C5,64,1
19920,20.75,239,0.248958,60,C4,64,2
20000,20.833333,159,0.165625,64,E4,64,1
20160,21.0,159,0.165625,72,C5,64,1
20160,21.0,239,0.248958,57,A3,64,2
20320,21.166666,159,0.165625,64,E4,64,1
20400,21.25,239,0.248958,60,C4,64,2
20480,21.333333,159,0.165625,72,C5,64,1
20640,21.5,159,0.165625,64,E4,64,1
20640,21.5,239,0.248958,57,A3,64,2
20800,21.666666,159,0.165625,72,C5,64,1
20880,21.75,227,0.236458,60,C4,64,2
20960,21.833333,159,0.165625,64,E4,64,1
21120,22.0,159,0.165625,72,C5,64,1
21120,22.0,239,0.248958,57,A3,64,2
21280,22.166666,159,0.165625,64,E4,64,1
21360,22.25,239,0.248958,60,C4,64,2
21440,22.333333,159,0.165625,72,C5,64,1
21600,22.5,159,0.165625,64,E4,64,1
21600,22.5,239,0.248958,57,A3,64,2
21760,22.666666,159,0.165625,72,C5,64,1
21840,22.75,239,0.248958,60,C4,64,2
21920,22.833333,159,0.165625,64,E4,64,1
22080,23.0,159,0.165625,72,C5,64,1
22080,23.0,239,0.248958,57,A3,64,2
22240,23.166666,159,0.165625,64,E4,64,1
22320,23.25,239,0.248958,60,C4,64,2
22400,23.333333,159,0.165625,72,C5,64,1
22560,23.5,159,0.165625,64,E4,64,1
22560,23.5,239,0.248958,57,A3,64,2
22720,23.666666,159,0.165625,72,C5,64,1
22800,23.75,227,0.236458,60,C4,64,2
22880,23.833333,151,0.157292,64,E4,64,1
23040,24.0,159,0.165625,72,C5,64,1
23040,24.0,239,0.248958,57,A3,64,2
23040,24.0,1919,1.998958,53,F3,64,2
23200,24.166666,159,0.165625,69,A4,64,1
23280,24.25,239,0.248958,60,C4,64,2
23360,24.333333,159,0.165625,72,C5,64,1
23520,24.5,159,0.165625,69,A4,64,1
23520,24.5,239,0.248958,57,A3,64,2
23680,24.666666,159,0.165625,72,C5,64,1
23760,24.75,239,0.248958,60,C4,64,2
23840,24.833333,159,0.165625,69,A4,64,1
24000,25.0,159,0.165625,72,C5,64,1
24000,25.0,239,0.248958,57,A3,64,2
24160,25.166666,159,0.165625,69,A4,64,1
24240,25.25,239,0.248958,60,C4,64,2
24320,25.333333,159,0.165625,72,C5,64,1
24480,25.5,159,0.165625,69,A4,64,1
24480,25.5,239,0.248958,57,A3,64,2
24640,25.666666,159,0.165625,72,C5,64,1
24720,25.75,227,0.236458,60,C4,64,2
24800,25.833333,159,0.165625,69,A4,64,1
24960,26.0,159,0.165625,72,C5,64,1
24960,26.0,239,0.248958,55,G3,64,2
24960,26.0,239,0.248958,55,G3,64,2
25120,26.166666,159,0.165625,67,G4,64,1
25200,26.25,239,0.248958,60,C4,64,2
25280,26.333333,159,0.165625,72,C5,64,1
25440,26.5,159,0.165625,67,G4,64,1
25440,26.5,239,0.248958,55,G3,64,2
25440,26.5,239,0.248958,55,G3,64,2
25600,26.666666,159,0.165625,72,C5,64,1
25680,26.75,239,0.248958,60,C4,64,2
25760,26.833333,159,0.165625,67,G4,64,1
25920,27.0,159,0.165625,72,C5,64,1
25920,27.0,239,0.248958,57,A3,64,2
25920,27.0,479,0.498958,53,F3,64,2
26080,27.166666,159,0.165625,69,A4,64,1
26160,27.25,239,0.248958,60,C4,64,2
26240,27.333333,159,0.165625,72,C5,64,1
26400,27.5,159,0.165625,69,A4,64,1
26400,27.5,239,0.248958,57,A3,64,2
26400,27.5,479,0.498958,53,F3,64,2
26560,27.666666,159,0.165625,72,C5,64,1
26640,27.75,227,0.236458,60,C4,64,2
26720,27.833333,151,0.157292,69,A4,64,1
26880,28.0,159,0.165625,72,C5,64,1
26880,28.0,239,0.248958,57,A3,64,2
26880,28.0,3839,3.998958,52,E3,64,2
27040,28.166666,159,0.165625,64,E4,64,1
27120,28.25,239,0.248958,60,C4,64,2
27200,28.333333,159,0.165625,72,C5,64,1
27360,28.5,159,0.165625,64,E4,64,1
27360,28.5,239,0.248958,57,A3,64,2
27520,28.666666,159,0.165625,72,C5,64,1
27600,28.75,239,0.248958,60,C4,64,2
27680,28.833333,159,0.165625,64,E4,64,1
27840,29.0,159,0.165625,72,C5,64,1
27840,29.0,239,0.248958,57,A3,64,2
28000,29.166666,159,0.165625,64,E4,64,1
28080,29.25,239,0.248958,60,C4,64,2
28160,29.333333,159,0.165625,72,C5,64,1
28320,29.5,159,0.165625,64,E4,64,1
28320,29.5,239,0.248958,57,A3,64,2
28480,29.666666,159,0.165625,72,C5,64,1
28560,29.75,227,0.236458,60,C4,64,2
28640,29.833333,159,0.165625,64,E4,64,1
28800,30.0,159,0.165625,72,C5,64,1
28800,30.0,239,0.248958,57,A3,64,2
28960,30.166666,159,0.165625,64,E4,64,1
29040,30.25,239,0.248958,60,C4,64,2
29120,30.333333,159,0.165625,72,C5,64,1
29280,30.5,159,0.165625,64,E4,64,1
29280,30.5,239,0.248958,57,A3,64,2
29440,30.666666,159,0.165625,72,C5,64,1
29520,30.75,239,0.248958,60,C4,64,2
29600,30.833333,159,0.165625,64,E4,64,1
29760,31.0,159,0.165625,72,C5,64,1
29760,31.0,239,0.248958,57,A3,64,2
29920,31.166666,159,0.165625,64,E4,64,1
30000,31.25,239,0.248958,60,C4,64,2
30080,31.333333,159,0.165625,72,C5,64,1
30240,31.5,159,0.165625,64,E4,64,1
30240,31.5,239,0.248958,57,A3,64,2
30400,31.666666,159,0.165625,72,C5,64,1
30480,31.75,227,0.236458,60,C4,64,2
30560,31.833333,151,0.157292,64,E4,64,1
30720,32.0,159,0.165625,72,C5,64,1
30720,32.0,239,0.248958,57,A3,64,2
30720,32.0,1919,1.998958,53,F3,64,2
30880,32.166666,159,0.165625,69,A4,64,1
30960,32.25,239,0.248958,60,C4,64,2
31040,32.333333,159,0.165625,72,C5,64,1
31200,32.5,159,0.165625,69,A4,64,1
31200,32.5,239,0.248958,57,A3,64,2
31360,32.666666,159,0.165625,72,C5,64,1
31440,32.75,239,0.248958,60,C4,64,2
31520,32.833333,159,0.165625,69,A4,64,1
31680,33.0,159,0.165625,72,C5,64,1
31680,33.0,239,0.248958,57,A3,64,2
31840,33.166666,159,0.165625,69,A4,64,1
31920,33.25,239,0.248958,60,C4,64,2
32000,33.333333,159,0.165625,72,C5,64,1
32160,33.5,159,0.165625,69,A4,64,1
32160,33.5,239,0.248958,57,A3,64,2
32320,33.666666,159,0.165625,72,C5,64,1
32400,33.75,227,0.236458,60,C4,64,2
32480,33.833333,159,0.165625,69,A4,64,1
32640,34.0,159,0.165625,72,C5,64,1
32640,34.0,239,0.248958,55,G3,64,2
32640,34.0,239,0.248958,55,G3,64,2
32800,34.166666,159,0.165625,67,G4,64,1
32880,34.25,239,0.248958,60,C4,64,2
32960,34.333333,159,0.165625,72,C5,64,1
33120,34.5,159,0.165625,67,G4,64,1
33120,34.5,239,0.248958,55,G3,64,2
33120,34.5,239,0.248958,55,G3,64,2
33280,34.666666,159,0.165625,72,C5,64,1
33360,34.75,239,0.248958,60,C4,64,2
33440,34.833333,159,0.165625,67,G4,64,1
33600,35.0,159,0.165625,72,C5,64,1
33600,35.0,239,0.248958,57,A3,64,2
33600,35.0,479,0.498958,53,F3,64,2
33760,35.166666,159,0.165625,69,A4,64,1
33840,35.25,239,0.248958,60,C4,64,2
33920,35.333333,159,0.165625,72,C5,64,1
34080,35.5,159,0.165625,69,A4,64,1
34080,35.5,239,0.248958,57,A3,64,2
34080,35.5,479,0.498958,53,F3,64,2
34240,35.666666,159,0.165625,72,C5,64,1
34320,35.75,227,0.236458,60,C4,64,2
34400,35.833333,151,0.157292,69,A4,64,1
34560,36.0,159,0.165625,72,C5,64,1
34560,36.0,239,0.248958,57,A3,64,2
34560,36.0,3839,3.998958,52,E3,64,2
34720,36.166666,159,0.165625,64,E4,64,1
34800,36.25,239,0.248958,60,C4,64,2
34880,36.333333,159,0.165625,72,C5,64,1
35040,36.5,159,0.165625,64,E4,64,1
35040,36.5,239,0.248958,57,A3,64,2
35200,36.666666,159,0.165625,72,C5,64,1
35280,36.75,239,0.248958,60,C4,64,2
35360,36.833333,159,0.165625,64,E4,64,1
35520,37.0,159,0.165625,72,C5,64,1
35520,37.0,239,0.248958,57,A3,64,2
35680,37.166666,159,0.165625,64,E4,64,1
35760,37.25,239,0.248958,60,C4,64,2
35840,37.333333,159,0.165625,72,C5,64,1
36000,37.5,159,0.165625,64,E4,64,1
36000,37.5,239,0.248958,57,A3,64,2
36160,37.666666,159,0.165625,72,C5,64,1
36240,37.75,227,0.236458,60,C4,64,2
36320,37.833333,159,0.165625,64,E4,64,1
36480,38.0,159,0.165625,72,C5,64,1
36480,38.0,239,0.248958,57,A3,64,2
36640,38.166666,159,0.165625,64,E4,64,1
36720,38.25,239,0.248958,60,C4,64,2
36800,38.333333,159,0.165625,72,C5,64,1
36960,38.5,159,0.165625,64,E4,64,1
36960,38.5,239,0.248958,57,A3,64,2
37120,38.666666,159,0.165625,72,C5,64,1
37200,38.75,239,0.248958,60,C4,64,2
37280,38.833333,159,0.165625,64,E4,64,1
37440,39.0,159,0.165625,72,C5,64,1
37440,39.0,239,0.248958,57,A3,64,2
37600,39.166666,159,0.165625,64,E4,64,1
37680,39.25,239,0.248958,60,C4,64,2
37760,39.333333,159,0.165625,72,C5,64,1
37920,39.5,159,0.165625,64,E4,64,1
37920,39.5,239,0.248958,57,A3,64,2
38080,39.666666,159,0.165625,72,C5,64,1
38160,39.75,227,0.236458,60,C4,64,2
38240,39.833333,151,0.157292,64,E4,64,1
38400,40.0,151,0.157291,72,C5,64,1
38400,40.0,227,0.236458,57,A3,64,2
38400,40.0,1823,1.898958,53,F3,64,2
38560,40.166666,151,0.157292,69,A4,64,1
38640,40.25,227,0.236458,60,C4,64,2
38720,40.333333,151,0.157292,72,C5,64,1
38880,40.5,151,0.157291,69,A4,64,1
38880,40.5,227,0.236458,57,A3,64,2
39040,40.666666,151,0.157292,72,C5,64,1
39120,40.75,227,0.236458,60,C4,64,2
39200,40.833333,151,0.157292,69,A4,64,1
39360,41.0,151,0.157291,72,C5,64,1
39360,41.0,227,0.236458,57,A3,64,2
39520,41.166666,151,0.157292,69,A4,64,1
39600,41.25,227,0.236458,60,C4,64,2
39680,41.333333,151,0.157292,72,C5,64,1
39840,41.5,151,0.157291,69,A4,64,1
39840,41.5,227,0.236458,57,A3,64,2
40000,41.666666,151,0.157292,72,C5,64,1
40080,41.75,227,0.236458,60,C4,64,2
40160,41.833333,151,0.157292,69,A4,64,1
40320,42.0,151,0.157291,72,C5,64,1
40320,42.0,227,0.236458,55,G3,64,2
40320,42.0,227,0.236458,55,G3,64,2
40480,42.166666,151,0.157292,67,G4,64,1
40560,42.25,227,0.236458,60,C4,64,2
40640,42.333333,151,0.157292,72,C5,64,1
40800,42.5,151,0.157291,67,G4,64,1
40800,42.5,227,0.236458,55,G3,64,2
40800,42.5,227,0.236458,55,G3,64,2
40960,42.666666,151,0.157292,72,C5,64,1
41040,42.75,227,0.236458,60,C4,64,2
41120,42.833333,151,0.157292,67,G4,64,1
41280,43.0,151,0.157291,72,C5,64,1
41280,43.0,227,0.236458,57,A3,64,2
41280,43.0,455,0.473958,53,F3,64,2
41440,43.166666,151,0.157292,69,A4,64,1
41520,43.25,227,0.236458,60,C4,64,2
41600,43.333333,151,0.157292,72,C5,64,1
41760,43.5,151,0.157291,69,A4,64,1
41760,43.5,227,0.236458,57,A3,64,2
41760,43.5,455,0.473958,53,F3,64,2
41920,43.666666,151,0.157292,72,C5,64,1
42000,43.75,227,0.236458,60,C4,64,2
42080,43.833333,151,0.157292,69,A4,64,1
42240,44.0,151,0.157291,72,C5,64,1
42240,44.0,227,0.236458,57,A3,64,2
42240,44.0,3647,3.798958,52,E3,64,2
42400,44.166666,151,0.157292,64,E4,64,1
42480,44.25,227,0.236458,60,C4,64,2
42560,44.333333,151,0.157292,72,C5,64,1
42720,44.5,151,0.157291,64,E4,64,1
42720,44.5,227,0.236458,57,A3,64,2
42880,44.666666,151,0.157292,72,C5,64,1
42960,44.75,227,0.236458,60,C4,64,2
43040,44.833333,151,0.157292,64,E4,64,1
43200,45.0,151,0.157291,72,C5,64,1
43200,45.0,227,0.236458,57,A3,64,2
43360,45.166666,151,0.157292,64,E4,64,1
43440,45.25,227,0.236458,60,C4,64,2
43520,45.333333,151,0.157292,72,C5,64,1
43680,45.5,151,0.157291,64,E4,64,1
43680,45.5,227,0.236458,57,A3,64,2
43840,45.666666,151,0.157292,72,C5,64,1
43920,45.75,227,0.236458,60,C4,64,2
44000,45.833333,151,0.157292,64,E4,64,1
44160,46.0,151,0.157291,72,C5,64,1
44160,46.0,227,0.236458,57,A3,64,2
44320,46.166666,151,0.157292,64,E4,64,1
44400,46.25,227,0.236458,60,C4,64,2
44480,46.333333,151,0.157292,72,C5,64,1
44640,46.5,151,0.157291,64,E4,64,1
44640,46.5,227,0.236458,57,A3,64,2
44800,46.666666,151,0.157292,72,C5,64,1
44880,46.75,227,0.236458,60,C4,64,2
44960,46.833333,151,0.157292,64,E4,64,1
45120,47.0,151,0.157291,72,C5,64,1
45120,47.0,227,0.236458,57,A3,64,2
45280,47.166666,151,0.157292,64,E4,64,1
45360,47.25,227,0.236458,60,C4,64,2
45440,47.333333,151,0.157292,72,C5,64,1
45600,47.5,151,0.157291,64,E4,64,1
45600,47.5,227,0.236458,57,A3,64,2
45760,47.666666,151,0.157292,72,C5,64,1
45840,47.75,227,0.236458,60,C4,64,2
45920,47.833333,151,0.157292,64,E4,64,1
46080,48.0,151,0.157291,70,A4#,64,1
46080,48.0,227,0.236458,58,A3#,64,2
46080,48.0,3647,3.798958,55,G3,64,2
46240,48.166666,151,0.157292,67,G4,64,1
46320,48.25,227,0.236458,62,D4,64,2
46400,48.333333,151,0.157292,70,A4#,64,1
46560,48.5,151,0.157291,67,G4,64,1
46560,48.5,227,0.236458,58,A3#,64,2
46720,48.666666,151,0.157292,70,A4#,64,1
46800,48.75,227,0.236458,62,D4,64,2
46880,48.833333,151,0.157292,67,G4,64,1
47040,49.0,151,0.157291,70,A4#,64,1
47040,49.0,227,0.236458,58,A3#,64,2
47200,49.166666,151,0.157292,67,G4,64,1
47280,49.25,227,0.236458,62,D4,64,2
47360,49.333333,151,0.157292,70,A4#,64,1
47520,49.5,151,0.157291,67,G4,64,1
47520,49.5,227,0.236458,58,A3#,64,2
47680,49.666666,151,0.157292,70,A4#,64,1
47760,49.75,227,0.236458,62,D4,64,2
47840,49.833333,151,0.157292,67,G4,64,1
48000,50.0,151,0.157291,74,D5,64,1
48000,50.0,227,0.236458,58,A3#,64,2
48160,50.166666,151,0.157292,67,G4,64,1
48240,50.25,227,0.236458,62,D4,64,2
48320,50.333333,151,0.157292,74,D5,64,1
48480,50.5,151,0.157291,67,G4,64,1
48480,50.5,227,0.236458,58,A3#,64,2
48640,50.666666,151,0.157292,74,D5,64,1
48720,50.75,227,0.236458,62,D4,64,2
48800,50.833333,151,0.157292,67,G4,64,1
48960,51.0,151,0.157291,74,D5,64,1
48960,51.0,227,0.236458,58,A3#,64,2
49120,51.166666,151,0.157292,67,G4,64,1
49200,51.25,227,0.236458,62,D4,64,2
49280,51.333333,151,0.157292,74,D5,64,1
49440,51.5,151,0.157291,67,G4,64,1
49440,51.5,227,0.236458,58,A3#,64,2
49600,51.666666,151,0.157292,74,D5,64,1
49680,51.75,227,0.236458,62,D4,64,2
49760,51.833333,151,0.157292,67,G4,64,1
49920,52.0,151,0.157291,72,C5,64,1
49920,52.0,227,0.236458,57,A3,64,2
49920,52.0,3647,3.798958,53,F3,64,2
50080,52.166666,151,0.157292,69,A4,64,1
50160,52.25,227,0.236458,60,C4,64,2
50240,52.333333,151,0.157292,72,C5,64,1
50400,52.5,151,0.157291,69,A4,64,1
50400,52.5,227,0.236458,57,A3,64,2
50560,52.666666,151,0.157292,72,C5,64,1
50640,52.75,227,0.236458,60,C4,64,2
50720,52.833333,151,0.157292,69,A4,64,1
50880,53.0,151,0.157291,72,C5,64,1
50880,53.0,227,0.236458,57,A3,64,2
51040,53.166666,151,0.157292,69,A4,64,1
51120,53.25,227,0.236458,60,C4,64,2
51200,53.333333,151,0.157292,72,C5,64,1
51360,53.5,151,0.157291,69,A4,64,1
51360,53.5,227,0.236458,57,A3,64,2
51520,53.666666,151,0.157292,72,C5,64,1
51600,53.75,227,0.236458,60,C4,64,2
51680,53.833333,151,0.157292,69,A4,64,1
51840,54.0,151,0.157291,72,C5,64,1
51840,54.0,227,0.236458,57,A3,64,2
52000,54.166666,151,0.157292,69,A4,64,1
52080,54.25,227,0.236458,60,C4,64,2
52160,54.333333,151,0.157292,72,C5,64,1
52320,54.5,151,0.157291,69,A4,64,1
52320,54.5,227,0.236458,57,A3,64,2
52480,54.666666,151,0.157292,72,C5,64,1
52560,54.75,227,0.236458,60,C4,64,2
52640,54.833333,151,0.157292,69,A4,64,1
52800,55.0,151,0.157291,72,C5,64,1
52800,55.0,227,0.236458,57,A3,64,2
52960,55.166666,151,0.157292,69,A4,64,1
53040,55.25,227,0.236458,60,C4,64,2
53120,55.333333,151,0.157292,72,C5,64,1
53280,55.5,151,0.157291,69,A4,64,1
53280,55.5,227,0.236458,57,A3,64,2
53440,55.666666,151,0.157292,72,C5,64,1
53520,55.75,227,0.236458,60,C4,64,2
53600,55.833333,151,0.157292,69,A4,64,1
53760,56.0,151,0.157291,70,A4#,64,1
53760,56.0,227,0.236458,58,A3#,64,2
53760,56.0,3647,3.798958,55,G3,64,2
53920,56.166666,151,0.157292,67,G4,64,1
54000,56.25,227,0.236458,62,D4,64,2
54080,56.333333,151,0.157292,70,A4#,64,1
54240,56.5,151,0.157291,67,G4,64,1
54240,56.5,227,0.236458,58,A3#,64,2
54400,56.666666,151,0.157292,70,A4#,64,1
54480,56.75,227,0.236458,62,D4,64,2
54560,56.833333,151,0.157292,67,G4,64,1
54720,57.0,151,0.157291,70,A4#,64,1
54720,57.0,227,0.236458,58,A3#,64,2
54880,57.166666,151,0.157292,67,G4,64,1
54960,57.25,227,0.236458,62,D4,64,2
55040,57.333333,151,0.157292,70,A4#,64,1
55200,57.5,151,0.157291,67,G4,64,1
55200,57.5,227,0.236458,58,A3#,64,2
55360,57.666666,151,0.157292,70,A4#,64,1
55440,57.75,227,0.236458,62,D4,64,2
55520,57.833333,151,0.157292,67,G4,64,1
55680,58.0,151,0.157291,74,D5,64,1
55680,58.0,227,0.236458,58,A3#,64,2
55840,58.166666,151,0.157292,67,G4,64,1
55920,58.25,227,0.236458,62,D4,64,2
56000,58.333333,151,0.157292,74,D5,64,1
56160,58.5,151,0.157291,67,G4,64,1
56160,58.5,227,0.236458,58,A3#,64,2
56320,58.666666,151,0.157292,74,D5,64,1
56400,58.75,227,0.236458,62,D4,64,2
56480,58.833333,151,0.157292,67,G4,64,1
56640,59.0,151,0.157291,74,D5,64,1
56640,59.0,227,0.236458,58,A3#,64,2
56800,59.166666,151,0.157292,67,G4,64,1
56880,59.25,227,0.236458,62,D4,64,2
56960,59.333333,151,0.157292,74,D5,64,1
57120,59.5,151,0.157291,67,G4,64,1
57120,59.5,227,0.236458,58,A3#,64,2
57280,59.666666,151,0.157292,74,D5,64,1
57360,59.75,227,0.236458,62,D4,64,2
57440,59.833333,151,0.157292,67,G4,64,1
57600,60.0,151,0.157291,72,C5,64,1
57600,60.0,227,0.236458,57,A3,64,2
57600,60.0,3647,3.798958,53,F3,64,2
57760,60.166666,151,0.157292,69,A4,64,1
57840,60.25,227,0.236458,60,C4,64,2
57920,60.333333,151,0.157292,72,C5,64,1
58080,60.5,151,0.157291,69,A4,64,1
58080,60.5,227,0.236458,57,A3,64,2
58240,60.666666,151,0.157292,72,C5,64,1
58320,60.75,227,0.236458,60,C4,64,2
58400,60.833333,151,0.157292,69,A4,64,1
58560,61.0,151,0.157291,72,C5,64,1
58560,61.0,227,0.236458,57,A3,64,2
58720,61.166666,151,0.157292,69,A4,64,1
58800,61.25,227,0.236458,60,C4,64,2
58880,61.333333,151,0.157292,72,C5,64,1
59040,61.5,151,0.157291,69,A4,64,1
59040,61.5,227,0.236458,57,A3,64,2
59200,61.666666,151,0.157292,72,C5,64,1
59280,61.75,227,0.236458,60,C4,64,2
59360,61.833333,151,0.157292,69,A4,64,1
59520,62.0,151,0.157291,72,C5,64,1
59520,62.0,227,0.236458,57,A3,64,2
59680,62.166666,151,0.157292,69,A4,64,1
59760,62.25,227,0.236458,60,C4,64,2
59840,62.333333,151,0.157292,72,C5,64,1
60000,62.5,151,0.157291,69,A4,64,1
60000,62.5,227,0.236458,57,A3,64,2
60160,62.666666,151,0.157292,72,C5,64,1
60240,62.75,227,0.236458,60,C4,64,2
60320,62.833333,151,0.157292,69,A4,64,1
60480,63.0,151,0.157291,72,C5,64,1
60480,63.0,227,0.236458,57,A3,64,2
60640,63.166666,151,0.157292,69,A4,64,1
60720,63.25,227,0.236458,60,C4,64,2
60800,63.333333,151,0.157292,72,C5,64,1
60960,63.5,151,0.157291,69,A4,64,1
60960,63.5,227,0.236458,57,A3,64,2
61120,63.666666,151,0.157292,72,C5,64,1
61200,63.75,227,0.236458,60,C4,64,2
61280,63.833333,151,0.157292,69,A4,64,1
61440,64.0,151,0.157291,70,A4#,64,1
61440,64.0,227,0.236458,58,A3#,64,2
61440,64.0,1823,1.898958,55,G3,64,2
61600,64.166666,151,0.157292,67,G4,64,1
61680,64.25,227,0.236458,62,D4,64,2
61760,64.333333,151,0.157292,70,A4#,64,1
61920,64.5,151,0.157291,67,G4,64,1
61920,64.5,227,0.236458,58,A3#,64,2
62080,64.666666,151,0.157292,70,A4#,64,1
62160,64.75,227,0.236458,62,D4,64,2
62240,64.833333,151,0.157292,67,G4,64,1
62400,65.0,151,0.157291,70,A4#,64,1
62400,65.0,227,0.236458,58,A3#,64,2
62560,65.166666,151,0.157292,67,G4,64,1
62640,65.25,227,0.236458,62,D4,64,2
62720,65.333333,151,0.157292,70,A4#,64,1
62880,65.5,151,0.157291,67,G4,64,1
62880,65.5,227,0.236458,58,A3#,64,2
63040,65.666666,151,0.157292,70,A4#,64,1
63120,65.75,227,0.236458,62,D4,64,2
63200,65.833333,151,0.157292,67,G4,64,1
63360,66.0,151,0.157291,74,D5,64,1
63360,66.0,227,0.236458,58,A3#,64,2
63360,66.0,455,0.473958,53,F3,64,2
63520,66.166666,151,0.157292,67,G4,64,1
63600,66.25,227,0.236458,62,D4,64,2
63680,66.333333,151,0.157292,74,D5,64,1
63840,66.5,151,0.157291,67,G4,64,1
63840,66.5,227,0.236458,58,A3#,64,2
63840,66.5,455,0.473958,53,F3,64,2
64000,66.666666,151,0.157292,74,D5,64,1
64080,66.75,227,0.236458,62,D4,64,2
64160,66.833333,151,0.157292,67,G4,64,1
64320,67.0,151,0.157291,74,D5,64,1
64320,67.0,227,0.236458,58,A3#,64,2
64320,67.0,455,0.473958,55,G3,64,2
64480,67.166666,151,0.157292,67,G4,64,1
64560,67.25,227,0.236458,62,D4,64,2
64640,67.333333,151,0.157292,74,D5,64,1
64800,67.5,151,0.157291,67,G4,64,1
64800,67.5,227,0.236458,58,A3#,64,2
64800,67.5,455,0.473958,55,G3,64,2
64960,67.666666,151,0.157292,74,D5,64,1
65040,67.75,227,0.236458,62,D4,64,2
65120,67.833333,151,0.157292,67,G4,64,1
65280,68.0,151,0.157291,72,C5,64,1
65280,68.0,227,0.236458,57,A3,64,2
65280,68.0,3647,3.798958,53,F3,64,2
65440,68.166666,151,0.157292,69,A4,64,1
65520,68.25,227,0.236458,60,C4,64,2
65600,68.333333,151,0.157292,72,C5,64,1
65760,68.5,151,0.157291,69,A4,64,1
65760,68.5,227,0.236458,57,A3,64,2
65920,68.666666,151,0.157292,72,C5,64,1
66000,68.75,227,0.236458,60,C4,64,2
66080,68.833333,151,0.157292,69,A4,64,1
66240,69.0,151,0.157291,72,C5,64,1
66240,69.0,227,0.236458,57,A3,64,2
66400,69.166666,151,0.157292,69,A4,64,1
66480,69.25,227,0.236458,60,C4,64,2
66560,69.333333,151,0.157292,72,C5,64,1
66720,69.5,151,0.157291,69,A4,64,1
66720,69.5,227,0.236458,57,A3,64,2
66880,69.666666,151,0.157292,72,C5,64,1
66960,69.75,227,0.236458,60,C4,64,2
67040,69.833333,151,0.157292,69,A4,64,1
67200,70.0,151,0.157291,72,C5,64,1
67200,70.0,227,0.236458,57,A3,64,2
67360,70.166666,151,0.157292,69,A4,64,1
67440,70.25,227,0.236458,60,C4,64,2
67520,70.333333,151,0.157292,72,C5,64,1
67680,70.5,151,0.157291,69,A4,64,1
67680,70.5,227,0.236458,57,A3,64,2
67840,70.666666,151,0.157292,72,C5,64,1
67920,70.75,227,0.236458,60,C4,64,2
68000,70.833333,151,0.157292,69,A4,64,1
68160,71.0,151,0.157291,72,C5,64,1
68160,71.0,227,0.236458,57,A3,64,2
68320,71.166666,151,0.157292,69,A4,64,1
68400,71.25,227,0.236458,60,C4,64,2
68480,71.333333,151,0.157292,72,C5,64,1
68640,71.5,151,0.157291,69,A4,64,1
68640,71.5,227,0.236458,57,A3,64,2
68800,71.666666,151,0.157292,72,C5,64,1
68880,71.75,227,0.236458,60,C4,64,2
68960,71.833333,151,0.157292,69,A4,64,1
69120,72.0,239,0.248958,57,A3,49,2
69120,72.0,3839,3.998958,53,F3,49,2
69360,72.25,239,0.248958,60,C4,49,2
69600,72.5,239,0.248958,57,A3,49,2
69840,72.75,239,0.248958,60,C4,49,2
70080,73.0,239,0.248958,57,A3,49,2
70320,73.25,239,0.248958,60,C4,49,2
70560,73.5,239,0.248958,57,A3,49,2
70800,73.75,227,0.236458,60,C4,49,2
71040,74.0,239,0.248958,57,A3,49,2
71280,74.25,239,0.248958,60,C4,49,2
71520,74.5,239,0.248958,57,A3,49,2
71760,74.75,239,0.248958,60,C4,49,2
72000,75.0,239,0.248958,57,A3,49,2
72240,75.25,239,0.248958,60,C4,49,2
72480,75.5,239,0.248958,57,A3,49,2
72720,75.75,227,0.236458,60,C4,49,2
72960,76.0,3647,3.798958,36,C2,49,1
72960,76.0,239,0.248958,57,A3,49,2
72960,76.0,3839,3.998958,52,E3,49,2
73200,76.25,239,0.248958,60,C4,49,2
73440,76.5,239,0.248958,57,A3,49,2
73680,76.75,239,0.248958,60,C4,49,2
73920,77.0,239,0.248958,57,A3,49,2
74160,77.25,239,0.248958,60,C4,49,2
74400,77.5,239,0.248958,57,A3,49,2
74640,77.75,227,0.236458,60,C4,49,2
74880,78.0,239,0.248958,57,A3,49,2
75120,78.25,239,0.248958,60,C4,49,2
75360,78.5,239,0.248958,57,A3,49,2
75600,78.75,239,0.248958,60,C4,49,2
75840,79.0,239,0.248958,57,A3,49,2
76080,79.25,239,0.248958,60,C4,49,2
76320,79.5,239,0.248958,57,A3,49,2
76560,79.75,227,0.236458,60,C4,49,2
76800,80.0,159,0.165625,72,C5,64,1
76800,80.0,239,0.248958,57,A3,64,2
76800,80.0,3839,3.998958,53,F3,64,2
76960,80.166666,159,0.165625,69,A4,64,1
77040,80.25,239,0.248958,60,C4,64,2
77120,80.333333,159,0.165625,72,C5,64,1
77280,80.5,159,0.165625,69,A4,64,1
77280,80.5,239,0.248958,57,A3,64,2
77440,80.666666,159,0.165625,72,C5,64,1
77520,80.75,239,0.248958,60,C4,64,2
77600,80.833333,159,0.165625,69,A4,64,1
77760,81.0,159,0.165625,72,C5,64,1
77760,81.0,239,0.248958,57,A3,64,2
77920,81.166666,159,0.165625,69,A4,64,1
78000,81.25,239,0.248958,60,C4,64,2
78080,81.333333,159,0.165625,72,C5,64,1
78240,81.5,159,0.165625,69,A4,64,1
78240,81.5,239,0.248958,57,A3,64,2
78400,81.666666,159,0.165625,72,C5,64,1
78480,81.75,227,0.236458,60,C4,64,2
78560,81.833333,159,0.165625,69,A4,64,1
78720,82.0,159,0.165625,72,C5,64,1
78720,82.0,239,0.248958,57,A3,64,2
78880,82.166666,159,0.165625,69,A4,64,1
78960,82.25,239,0.248958,60,C4,64,2
79040,82.333333,159,0.165625,72,C5,64,1
79200,82.5,159,0.165625,69,A4,64,1
79200,82.5,239,0.248958,57,A3,64,2
79360,82.666666,159,0.165625,72,C5,64,1
79440,82.75,239,0.248958,60,C4,64,2
79520,82.833333,159,0.165625,69,A4,64,1
79680,83.0,159,0.165625,72,C5,64,1
79680,83.0,239,0.248958,57,A3,64,2
79840,83.166666,159,0.165625,69,A4,64,1
79920,83.25,239,0.248958,60,C4,64,2
80000,83.333333,159,0.165625,72,C5,64,1
80160,83.5,159,0.165625,69,A4,64,1
80160,83.5,239,0.248958,57,A3,64,2
80320,83.666666,159,0.165625,72,C5,64,1
80400,83.75,227,0.236458,60,C4,64,2
80480,83.833333,151,0.157292,69,A4,64,1
80640,84.0,159,0.165625,72,C5,64,1
80640,84.0,239,0.248958,57,A3,64,2
80640,84.0,3839,3.998958,52,E3,64,2
80800,84.166666,159,0.165625,64,E4,64,1
80880,84.25,239,0.248958,60,C4,64,2
80960,84.333333,159,0.165625,72,C5,64,1
81120,84.5,159,0.165625,64,E4,64,1
81120,84.5,239,0.248958,57,A3,64,2
81280,84.666666,159,0.165625,72,C5,64,1
81360,84.75,239,0.248958,60,C4,64,2
81440,84.833333,159,0.165625,64,E4,64,1
81600,85.0,159,0.165625,72,C5,64,1
81600,85.0,239,0.248958,57,A3,64,2
81760,85.166666,159,0.165625,64,E4,64,1
81840,85.25,239,0.248958,60,C4,64,2
81920,85.333333,159,0.165625,72,C5,64,1
82080,85.5,159,0.165625,64,E4,64,1
82080,85.5,239,0.248958,57,A3,64,2
82240,85.666666,159,0.165625,72,C5,64,1
82320,85.75,227,0.236458,60,C4,64,2
82400,85.833333,159,0.165625,64,E4,64,1
82560,86.0,159,0.165625,72,C5,64,1
82560,86.0,239,0.248958,57,A3,64,2
82720,86.166666,159,0.165625,64,E4,64,1
82800,86.25,239,0.248958,60,C4,64,2
82880,86.333333,159,0.165625,72,C5,64,1
83040,86.5,159,0.165625,64,E4,64,1
83040,86.5,239,0.248958,57,A3,64,2
83200,86.666666,159,0.165625,72,C5,64,1
83280,86.75,239,0.248958,60,C4,64,2
83360,86.833333,159,0.165625,64,E4,64,1
83520,87.0,159,0.165625,72,C5,64,1
83520,87.0,239,0.248958,57,A3,64,2
83680,87.166666,159,0.165625,64,E4,64,1
83760,87.25,239,0.248958,60,C4,64,2
83840,87.333333,159,0.165625,72,C5,64,1
84000,87.5,159,0.165625,64,E4,64,1
84000,87.5,239,0.248958,57,A3,64,2
84160,87.666666,159,0.165625,72,C5,64,1
84240,87.75,227,0.236458,60,C4,64,2
84320,87.833333,151,0.157292,64,E4,64,1
84480,88.0,159,0.165625,72,C5,64,1
84480,88.0,239,0.248958,57,A3,64,2
84480,88.0,3839,3.998958,53,F3,64,2
84640,88.166666,159,0.165625,69,A4,64,1
84720,88.25,239,0.248958,60,C4,64,2
84800,88.333333,159,0.165625,72,C5,64,1
84960,88.5,159,0.165625,69,A4,64,1
84960,88.5,239,0.248958,57,A3,64,2
85120,88.666666,159,0.165625,72,C5,64,1
85200,88.75,239,0.248958,60,C4,64,2
85280,88.833333,159,0.165625,69,A4,64,1
85440,89.0,159,0.165625,72,C5,64,1
85440,89.0,239,0.248958,57,A3,64,2
85600,89.166666,159,0.165625,69,A4,64,1
85680,89.25,239,0.248958,60,C4,64,2
85760,89.333333,159,0.165625,72,C5,64,1
85920,89.5,159,0.165625,69,A4,64,1
85920,89.5,239,0.248958,57,A3,64,2
86080,89.666666,159,0.165625,72,C5,64,1
86160,89.75,227,0.236458,60,C4,64,2
86240,89.833333,159,0.165625,69,A4,64,1
86400,90.0,159,0.165625,72,C5,64,1
86400,90.0,239,0.248958,57,A3,64,2
86560,90.166666,159,0.165625,69,A4,64,1
86640,90.25,239,0.248958,60,C4,64,2
86720,90.333333,159,0.165625,72,C5,64,1
86880,90.5,159,0.165625,69,A4,64,1
86880,90.5,239,0.248958,57,A3,64,2
87040,90.666666,159,0.165625,72,C5,64,1
87120,90.75,239,0.248958,60,C4,64,2
87200,90.833333,159,0.165625,69,A4,64,1
87360,91.0,159,0.165625,72,C5,64,1
87360,91.0,239,0.248958,57,A3,64,2
87520,91.166666,159,0.165625,69,A4,64,1
87600,91.25,239,0.248958,60,C4,64,2
87680,91.333333,159,0.165625,72,C5,64,1
87840,91.5,159,0.165625,69,A4,64,1
87840,91.5,239,0.248958,57,A3,64,2
88000,91.666666,159,0.165625,72,C5,64,1
88080,91.75,227,0.236458,60,C4,64,2
88160,91.833333,151,0.157292,69,A4,64,1
88320,92.0,159,0.165625,72,C5,64,1
88320,92.0,239,0.248958,57,A3,64,2
88320,92.0,3839,3.998958,52,E3,64,2
88480,92.166666,159,0.165625,64,E4,64,1
88560,92.25,239,0.248958,60,C4,64,2
88640,92.333333,159,0.165625,72,C5,64,1
88800,92.5,159,0.165625,64,E4,64,1
88800,92.5,239,0.248958,57,A3,64,2
88960,92.666666,159,0.165625,72,C5,64,1
89040,92.75,239,0.248958,60,C4,64,2
89120,92.833333,159,0.165625,64,E4,64,1
89280,93.0,159,0.165625,72,C5,64,1
89280,93.0,239,0.248958,57,A3,64,2
89440,93.166666,159,0.165625,64,E4,64,1
89520,93.25,239,0.248958,60,C4,64,2
89600,93.333333,159,0.165625,72,C5,64,1
89760,93.5,159,0.165625,64,E4,64,1
89760,93.5,239,0.248958,57,A3,64,2
89920,93.666666,159,0.165625,72,C5,64,1
90000,93.75,227,0.236458,60,C4,64,2
90080,93.833333,159,0.165625,64,E4,64,1
90240,94.0,159,0.165625,72,C5,64,1
90240,94.0,239,0.248958,57,A3,64,2
90400,94.166666,159,0.165625,64,E4,64,1
90480,94.25,239,0.248958,60,C4,64,2
90560,94.333333,159,0.165625,72,C5,64,1
90720,94.5,159,0.165625,64,E4,64,1
90720,94.5,239,0.248958,57,A3,64,2
90880,94.666666,159,0.165625,72,C5,64,1
90960,94.75,239,0.248958,60,C4,64,2
91040,94.833333,159,0.165625,64,E4,64,1
91200,95.0,159,0.165625,72,C5,64,1
91200,95.0,239,0.248958,57,A3,64,2
91360,95.166666,159,0.165625,64,E4,64,1
91440,95.25,239,0.248958,60,C4,64,2
91520,95.333333,159,0.165625,72,C5,64,1
91680,95.5,159,0.165625,64,E4,64,1
91680,95.5,239,0.248958,57,A3,64,2
91840,95.666666,159,0.165625,72,C5,64,1
91920,95.75,227,0.236458,60,C4,64,2
92000,95.833333,151,0.157292,64,E4,64,1
92160,96.0,159,0.165625,72,C5,64,1
92160,96.0,239,0.248958,57,A3,64,2
92160,96.0,1919,1.998958,53,F3,64,2
92320,96.166666,159,0.165625,69,A4,64,1
92400,96.25,239,0.248958,60,C4,64,2
92480,96.333333,159,0.165625,72,C5,64,1
92640,96.5,159,0.165625,69,A4,64,1
92640,96.5,239,0.248958,57,A3,64,2
92800,96.666666,159,0.165625,72,C5,64,1
92880,96.75,239,0.248958,60,C4,64,2
92960,96.833333,159,0.165625,69,A4,64,1
93120,97.0,159,0.165625,72,C5,64,1
93120,97.0,239,0.248958,57,A3,64,2
93280,97.166666,159,0.165625,69,A4,64,1
93360,97.25,239,0.248958,60,C4,64,2
93440,97.333333,159,0.165625,72,C5,64,1
93600,97.5,159,0.165625,69,A4,64,1
93600,97.5,239,0.248958,57,A3,64,2
93760,97.666666,159,0.165625,72,C5,64,1
93840,97.75,227,0.236458,60,C4,64,2
93920,97.833333,159,0.165625,69,A4,64,1
94080,98.0,159,0.165625,72,C5,64,1
94080,98.0,239,0.248958,55,G3,64,2
94080,98.0,239,0.248958,55,G3,64,2
94240,98.166666,159,0.165625,67,G4,64,1
94320,98.25,239,0.248958,60,C4,64,2
94400,98.333333,159,0.165625,72,C5,64,1
94560,98.5,159,0.165625,67,G4,64,1
94560,98.5,239,0.248958,55,G3,64,2
94560,98.5,239,0.248958,55,G3,64,2
94720,98.666666,159,0.165625,72,C5,64,1
94800,98.75,239,0.248958,60,C4,64,2
94880,98.833333,159,0.165625,67,G4,64,1
95040,99.0,159,0.165625,72,C5,64,1
95040,99.0,239,0.248958,57,A3,64,2
95040,99.0,479,0.498958,53,F3,64,2
95200,99.166666,159,0.165625,69,A4,64,1
95280,99.25,239,0.248958,60,C4,64,2
95360,99.333333,159,0.165625,72,C5,64,1
95520,99.5,159,0.165625,69,A4,64,1
95520,99.5,239,0.248958,57,A3,64,2
95520,99.5,479,0.498958,53,F3,64,2
95680,99.666666,159,0.165625,72,C5,64,1
95760,99.75,227,0.236458,60,C4,64,2
95840,99.833333,151,0.157292,69,A4,64,1
96000,100.0,159,0.165625,72,C5,64,1
96000,100.0,239,0.248958,57,A3,64,2
96000,100.0,3839,3.998958,52,E3,64,2
96160,100.166666,159,0.165625,64,E4,64,1
96240,100.25,239,0.248958,60,C4,64,2
96320,100.333333,159,0.165625,72,C5,64,1
96480,100.5,159,0.165625,64,E4,64,1
96480,100.5,239,0.248958,57,A3,64,2
96640,100.666666,159,0.165625,72,C5,64,1
96720,100.75,239,0.248958,60,C4,64,2
96800,100.833333,159,0.165625,64,E4,64,1
96960,101.0,159,0.165625,72,C5,64,1
96960,101.0,239,0.248958,57,A3,64,2
97120,101.166666,159,0.165625,64,E4,64,1
97200,101.25,239,0.248958,60,C4,64,2
97280,101.333333,159,0.165625,72,C5,64,1
97440,101.5,159,0.165625,64,E4,64,1
97440,101.5,239,0.248958,57,A3,64,2
97600,101.666666,159,0.165625,72,C5,64,1
97680,101.75,227,0.236458,60,C4,64,2
97760,101.833333,159,0.165625,64,E4,64,1
97920,102.0,159,0.165625,72,C5,64,1
97920,102.0,239,0.248958,57,A3,64,2
98080,102.166666,159,0.165625,64,E4,64,1
98160,102.25,239,0.248958,60,C4,64,2
98240,102.333333,159,0.165625,72,C5,64,1
98400,102.5,159,0.165625,64,E4,64,1
98400,102.5,239,0.248958,57,A3,64,2
98560,102.666666,159,0.165625,72,C5,64,1
98640,102.75,239,0.248958,60,C4,64,2
98720,102.833333,159,0.165625,64,E4,64,1
98880,103.0,159,0.165625,72,C5,64,1
98880,103.0,239,0.248958,57,A3,64,2
99040,103.166666,159,0.165625,64,E4,64,1
99120,103.25,239,0.248958,60,C4,64,2
99200,103.333333,159,0.165625,72,C5,64,1
99360,103.5,159,0.165625,64,E4,64,1
99360,103.5,239,0.248958,57,A3,64,2
99520,103.666666,159,0.165625,72,C5,64,1
99600,103.75,227,0.236458,60,C4,64,2
99680,103.833333,151,0.157292,64,E4,64,1
99840,104.0,159,0.165625,72,C5,64,1
99840,104.0,239,0.248958,57,A3,64,2
99840,104.0,1919,1.998958,53,F3,64,2
100000,104.166666,159,0.165625,69,A4,64,1
100080,104.25,239,0.248958,60,C4,64,2
100160,104.333333,159,0.165625,72,C5,64,1
100320,104.5,159,0.165625,69,A4,64,1
100320,104.5,239,0.248958,57,A3,64,2
100480,104.666666,159,0.165625,72,C5,64,1
100560,104.75,239,0.248958,60,C4,64,2
100640,104.833333,159,0.165625,69,A4,64,1
100800,105.0,159,0.165625,72,C5,64,1
100800,105.0,239,0.248958,57,A3,64,2
100960,105.166666,159,0.165625,69,A4,64,1
101040,105.25,239,0.248958,60,C4,64,2
101120,105.333333,159,0.165625,72,C5,64,1
101280,105.5,159,0.165625,69,A4,64,1
101280,105.5,239,0.248958,57,A3,64,2
101440,105.666666,159,0.165625,72,C5,64,1
101520,105.75,227,0.236458,60,C4,64,2
101600,105.833333,159,0.165625,69,A4,64,1
101760,106.0,159,0.165625,72,C5,64,1
101760,106.0,239,0.248958,55,G3,64,2
101760,106.0,239,0.248958,55,G3,64,2
101920,106.166666,159,0.165625,67,G4,64,1
102000,106.25,239,0.248958,60,C4,64,2
102080,106.333333,159,0.165625,72,C5,64,1
102240,106.5,159,0.165625,67,G4,64,1
102240,106.5,239,0.248958,55,G3,64,2
102240,106.5,239,0.248958,55,G3,64,2
102400,106.666666,159,0.165625,72,C5,64,1
102480,106.75,239,0.248958,60,C4,64,2
102560,106.833333,159,0.165625,67,G4,64,1
102720,107.0,159,0.165625,72,C5,64,1
102720,107.0,239,0.248958,57,A3,64,2
102720,107.0,479,0.498958,53,F3,64,2
102880,107.166666,159,0.165625,69,A4,64,1
102960,107.25,239,0.248958,60,C4,64,2
103040,107.333333,159,0.165625,72,C5,64,1
103200,107.5,159,0.165625,69,A4,64,1
103200,107.5,239,0.248958,57,A3,64,2
103200,107.5,479,0.498958,53,F3,64,2
103360,107.666666,159,0.165625,72,C5,64,1
103440,107.75,227,0.236458,60,C4,64,2
103520,107.833333,151,0.157292,69,A4,64,1
103680,108.0,159,0.165625,72,C5,64,1
103680,108.0,239,0.248958,57,A3,64,2
103680,108.0,3839,3.998958,52,E3,64,2
103840,108.166666,159,0.165625,64,E4,64,1
103920,108.25,239,0.248958,60,C4,64,2
104000,108.333333,159,0.165625,72,C5,64,1
104160,108.5,159,0.165625,64,E4,64,1
104160,108.5,239,0.248958,57,A3,64,2
104320,108.666666,159,0.165625,72,C5,64,1
104400,108.75,239,0.248958,60,C4,64,2
104480,108.833333,159,0.165625,64,E4,64,1
104640,109.0,159,0.165625,72,C5,64,1
104640,109.0,239,0.248958,57,A3,64,2
104800,109.166666,159,0.165625,64,E4,64,1
104880,109.25,239,0.248958,60,C4,64,2
104960,109.333333,159,0.165625,72,C5,64,1
105120,109.5,159,0.165625,64,E4,64,1
105120,109.5,239,0.248958,57,A3,64,2
105280,109.666666,159,0.165625,72,C5,64,1
105360,109.75,227,0.236458,60,C4,64,2
105440,109.833333,159,0.165625,64,E4,64,1
105600,110.0,159,0.165625,72,C5,64,1
105600,110.0,239,0.248958,57,A3,64,2
105760,110.166666,159,0.165625,64,E4,64,1
105840,110.25,239,0.248958,60,C4,64,2
105920,110.333333,159,0.165625,72,C5,64,1
106080,110.5,159,0.165625,64,E4,64,1
106080,110.5,239,0.248958,57,A3,64,2
106240,110.666666,159,0.165625,72,C5,64,1
106320,110.75,239,0.248958,60,C4,64,2
106400,110.833333,159,0.165625,64,E4,64,1
106560,111.0,159,0.165625,72,C5,64,1
106560,111.0,239,0.248958,57,A3,64,2
106720,111.166666,159,0.165625,64,E4,64,1
106800,111.25,239,0.248958,60,C4,64,2
106880,111.333333,159,0.165625,72,C5,64,1
107040,111.5,159,0.165625,64,E4,64,1
107040,111.5,239,0.248958,57,A3,64,2
107200,111.666666,159,0.165625,72,C5,64,1
107280,111.75,227,0.236458,60,C4,64,2
107360,111.833333,151,0.157292,64,E4,64,1
107520,112.0,151,0.157291,72,C5,64,1
107520,112.0,227,0.236458,57,A3,64,2
107520,112.0,1823,1.898958,53,F3,64,2
107680,112.166666,151,0.157292,69,A4,64,1
107760,112.25,227,0.236458,60,C4,64,2
107840,112.333333,151,0.157292,72,C5,64,1
108000,112.5,151,0.157291,69,A4,64,1
108000,112.5,227,0.236458,57,A3,64,2
108160,112.666666,151,0.157292,72,C5,64,1
108240,112.75,227,0.236458,60,C4,64,2
108320,112.833333,151,0.157292,69,A4,64,1
108480,113.0,151,0.157291,72,C5,64,1
108480,113.0,227,0.236458,57,A3,64,2
108640,113.166666,151,0.157292,69,A4,64,1
108720,113.25,227,0.236458,60,C4,64,2
108800,113.333333,151,0.157292,72,C5,64,1
108960,113.5,151,0.157291,69,A4,64,1
108960,113.5,227,0.236458,57,A3,64,2
109120,113.666666,151,0.157292,72,C5,64,1
109200,113.75,227,0.236458,60,C4,64,2
109280,113.833333,151,0.157292,69,A4,64,1
109440,114.0,151,0.157291,72,C5,64,1
109440,114.0,227,0.236458,55,G3,64,2
109440,114.0,227,0.236458,55,G3,64,2
109600,114.166666,151,0.157292,67,G4,64,1
109680,114.25,227,0.236458,60,C4,64,2
109760,114.333333,151,0.157292,72,C5,64,1
109920,114.5,151,0.157291,67,G4,64,1
109920,114.5,227,0.236458,55,G3,64,2
109920,114.5,227,0.236458,55,G3,64,2
110080,114.666666,151,0.157292,72,C5,64,1
110160,114.75,227,0.236458,60,C4,64,2
110240,114.833333,151,0.157292,67,G4,64,1
110400,115.0,151,0.157291,72,C5,64,1
110400,115.0,227,0.236458,57,A3,64,2
110400,115.0,455,0.473958,53,F3,64,2
110560,115.166666,151,0.157292,69,A4,64,1
110640,115.25,227,0.236458,60,C4,64,2
110720,115.333333,151,0.157292,72,C5,64,1
110880,115.5,151,0.157291,69,A4,64,1
110880,115.5,227,0.236458,57,A3,64,2
110880,115.5,455,0.473958,53,F3,64,2
111040,115.666666,151,0.157292,72,C5,64,1
111120,115.75,227,0.236458,60,C4,64,2
111200,115.833333,151,0.157292,69,A4,64,1
111360,116.0,151,0.157291,72,C5,64,1
111360,116.0,227,0.236458,57,A3,64,2
111360,116.0,3647,3.798958,52,E3,64,2
111520,116.166666,151,0.157292,64,E4,64,1
111600,116.25,227,0.236458,60,C4,64,2
111680,116.333333,151,0.157292,72,C5,64,1
111840,116.5,151,0.157291,64,E4,64,1
111840,116.5,227,0.236458,57,A3,64,2
112000,116.666666,151,0.157292,72,C5,64,1
112080,116.75,227,0.236458,60,C4,64,2
112160,116.833333,151,0.157292,64,E4,64,1
112320,117.0,151,0.157291,72,C5,64,1
112320,117.0,227,0.236458,57,A3,64,2
112480,117.166666,151,0.157292,64,E4,64,1
112560,117.25,227,0.236458,60,C4,64,2
112640,117.333333,151,0.157292,72,C5,64,1
112800,117.5,151,0.157291,64,E4,64,1
112800,117.5,227,0.236458,57,A3,64,2
112960,117.666666,151,0.157292,72,C5,64,1
113040,117.75,227,0.236458,60,C4,64,2
113120,117.833333,151,0.157292,64,E4,64,1
113280,118.0,151,0.157291,72,C5,64,1
113280,118.0,227,0.236458,57,A3,64,2
113440,118.166666,151,0.157292,64,E4,64,1
113520,118.25,227,0.236458,60,C4,64,2
113600,118.333333,151,0.157292,72,C5,64,1
113760,118.5,151,0.157291,64,E4,64,1
113760,118.5,227,0.236458,57,A3,64,2
113920,118.666666,151,0.157292,72,C5,64,1
114000,118.75,227,0.236458,60,C4,64,2
114080,118.833333,151,0.157292,64,E4,64,1
114240,119.0,151,0.157291,72,C5,64,1
114240,119.0,227,0.236458,57,A3,64,2
114400,119.166666,151,0.157292,64,E4,64,1
114480,119.25,227,0.236458,60,C4,64,2
114560,119.333333,151,0.157292,72,C5,64,1
114720,119.5,151,0.157291,64,E4,64,1
114720,119.5,227,0.236458,57,A3,64,2
114880,119.666666,151,0.157292,72,C5,64,1
114960,119.75,227,0.236458,60,C4,64,2
115040,119.833333,151,0.157292,64,E4,64,1
115200,120.0,151,0.157291,70,A4#,64,1
115200,120.0,227,0.236458,58,A3#,64,2
115200,120.0,3647,3.798958,55,G3,64,2
115360,120.166666,151,0.157292,67,G4,64,1
115440,120.25,227,0.236458,62,D4,64,2
115520,120.333333,151,0.157292,70,A4#,64,1
115680,120.5,151,0.157291,67,G4,64,1
115680,120.5,227,0.236458,58,A3#,64,2
115840,120.666666,151,0.157292,70,A4#,64,1
115920,120.75,227,0.236458,62,D4,64,2
116000,120.833333,151,0.157292,67,G4,64,1
116160,121.0,151,0.157291,70,A4#,64,1
116160,121.0,227,0.236458,58,A3#,64,2
116320,121.166666,151,0.157292,67,G4,64,1
116400,121.25,227,0.236458,62,D4,64,2
116480,121.333333,151,0.157292,70,A4#,64,1
116640,121.5,151,0.157291,67,G4,64,1
116640,121.5,227,0.236458,58,A3#,64,2
116800,121.666666,151,0.157292,70,A4#,64,1
116880,121.75,227,0.236458,62,D4,64,2
116960,121.833333,151,0.157292,67,G4,64,1
117120,122.0,151,0.157291,74,D5,64,1
117120,122.0,227,0.236458,58,A3#,64,2
117280,122.166666,151,0.157292,67,G4,64,1
117360,122.25,227,0.236458,62,D4,64,2
117440,122.333333,151,0.157292,74,D5,64,1
117600,122.5,151,0.157291,67,G4,64,1
117600,122.5,227,0.236458,58,A3#,64,2
117760,122.666666,151,0.157292,74,D5,64,1
117840,122.75,227,0.236458,62,D4,64,2
117920,122.833333,151,0.157292,67,G4,64,1
118080,123.0,151,0.157291,74,D5,64,1
118080,123.0,227,0.236458,58,A3#,64,2
118240,123.166666,151,0.157292,67,G4,64,1
118320,123.25,227,0.236458,62,D4,64,2
118400,123.333333,151,0.157292,74,D5,64,1
118560,123.5,151,0.157291,67,G4,64,1
118560,123.5,227,0.236458,58,A3#,64,2
118720,123.666666,151,0.157292,74,D5,64,1
118800,123.75,227,0.236458,62,D4,64,2
118880,123.833333,151,0.157292,67,G4,64,1
119040,124.0,151,0.157291,72,C5,64,1
119040,124.0,227,0.236458,57,A3,64,2
119040,124.0,3647,3.798958,53,F3,64,2
119200,124.166666,151,0.157292,69,A4,64,1
119280,124.25,227,0.236458,60,C4,64,2
119360,124.333333,151,0.157292,72,C5,64,1
119520,124.5,151,0.157291,69,A4,64,1
119520,124.5,227,0.236458,57,A3,64,2
119680,124.666666,151,0.157292,72,C5,64,1
119760,124.75,227,0.236458,60,C4,64,2
119840,124.833333,151,0.157292,69,A4,64,1
120000,125.0,151,0.157291,72,C5,64,1
120000,125.0,227,0.236458,57,A3,64,2
120160,125.166666,151,0.157292,69,A4,64,1
120240,125.25,227,0.236458,60,C4,64,2
120320,125.333333,151,0.157292,72,C5,64,1
120480,125.5,151,0.157291,69,A4,64,1
120480,125.5,227,0.236458,57,A3,64,2
120640,125.666666,151,0.157292,72,C5,64,1
120720,125.75,227,0.236458,60,C4,64,2
120800,125.833333,151,0.157292,69,A4,64,1
120960,126.0,151,0.157291,72,C5,64,1
120960,126.0,227,0.236458,57,A3,64,2
121120,126.166666,151,0.157292,69,A4,64,1
121200,126.25,227,0.236458,60,C4,64,2
121280,126.333333,151,0.157292,72,C5,64,1
121440,126.5,151,0.157291,69,A4,64,1
121440,126.5,227,0.236458,57,A3,64,2
121600,126.666666,151,0.157292,72,C5,64,1
121680,126.75,227,0.236458,60,C4,64,2
121760,126.833333,151,0.157292,69,A4,64,1
121920,127.0,151,0.157291,72,C5,64,1
121920,127.0,227,0.236458,57,A3,64,2
122080,127.166666,151,0.157292,69,A4,64,1
122160,127.25,227,0.236458,60,C4,64,2
122240,127.333333,151,0.157292,72,C5,64,1
122400,127.5,151,0.157291,69,A4,64,1
122400,127.5,227,0.236458,57,A3,64,2
122560,127.666666,151,0.157292,72,C5,64,1
122640,127.75,227,0.236458,60,C4,64,2
122720,127.833333,151,0.157292,69,A4,64,1
122880,128.0,151,0.157291,70,A4#,64,1
122880,128.0,227,0.236458,58,A3#,64,2
122880,128.0,3647,3.798958,55,G3,64,2
123040,128.166666,151,0.157292,67,G4,64,1
123120,128.25,227,0.236458,62,D4,64,2
123200,128.333333,151,0.157292,70,A4#,64,1
123360,128.5,151,0.157291,67,G4,64,1
123360,128.5,227,0.236458,58,A3#,64,2
123520,128.666666,151,0.157292,70,A4#,64,1
123600,128.75,227,0.236458,62,D4,64,2
123680,128.833333,151,0.157292,67,G4,64,1
123840,129.0,151,0.157291,70,A4#,64,1
123840,129.0,227,0.236458,58,A3#,64,2
124000,129.166666,151,0.157292,67,G4,64,1
124080,129.25,227,0.236458,62,D4,64,2
124160,129.333333,151,0.157292,70,A4#,64,1
124320,129.5,151,0.157291,67,G4,64,1
124320,129.5,227,0.236458,58,A3#,64,2
124480,129.666666,151,0.157292,70,A4#,64,1
124560,129.75,227,0.236458,62,D4,64,2
124640,129.833333,151,0.157292,67,G4,64,1
124800,130.0,151,0.157291,74,D5,64,1
124800,130.0,227,0.236458,58,A3#,64,2
124960,130.166666,151,0.157292,67,G4,64,1
125040,130.25,227,0.236458,62,D4,64,2
125120,130.333333,151,0.157292,74,D5,64,1
125280,130.5,151,0.157291,67,G4,64,1
125280,130.5,227,0.236458,58,A3#,64,2
125440,130.666666,151,0.157292,74,D5,64,1
125520,130.75,227,0.236458,62,D4,64,2
125600,130.833333,151,0.157292,67,G4,64,1
125760,131.0,151,0.157291,74,D5,64,1
125760,131.0,227,0.236458,58,A3#,64,2
125920,131.166666,151,0.157292,67,G4,64,1
126000,131.25,227,0.236458,62,D4,64,2
126080,131.333333,151,0.157292,74,D5,64,1
126240,131.5,151,0.157291,67,G4,64,1
126240,131.5,227,0.236458,58,A3#,64,2
126400,131.666666,151,0.157292,74,D5,64,1
126480,131.75,227,0.236458,62,D4,64,2
126560,131.833333,151,0.157292,67,G4,64,1
126720,132.0,151,0.157291,72,C5,64,1
126720,132.0,227,0.236458,57,A3,64,2
126720,132.0,3647,3.798958,53,F3,64,2
126880,132.166666,151,0.157292,69,A4,64,1
126960,132.25,227,0.236458,60,C4,64,2
127040,132.333333,151,0.157292,72,C5,64,1
127200,132.5,151,0.157291,69,A4,64,1
127200,132.5,227,0.236458,57,A3,64,2
127360,132.666666,151,0.157292,72,C5,64,1
127440,132.75,227,0.236458,60,C4,64,2
127520,132.833333,151,0.157292,69,A4,64,1
127680,133.0,151,0.157291,72,C5,64,1
127680,133.0,227,0.236458,57,A3,64,2
127840,133.166666,151,0.157292,69,A4,64,1
127920,133.25,227,0.236458,60,C4,64,2
128000,133.333333,151,0.157292,72,C5,64,1
128160,133.5,151,0.157291,69,A4,64,1
128160,133.5,227,0.236458,57,A3,64,2
128320,133.666666,151,0.157292,72,C5,64,1
128400,133.75,227,0.236458,60,C4,64,2
128480,133.833333,151,0.157292,69,A4,64,1
128640,134.0,151,0.157291,72,C5,64,1
128640,134.0,227,0.236458,57,A3,64,2
128800,134.166666,151,0.157292,69,A4,64,1
128880,134.25,227,0.236458,60,C4,64,2
128960,134.333333,151,0.157292,72,C5,64,1
129120,134.5,151,0.157291,69,A4,64,1
129120,134.5,227,0.236458,57,A3,64,2
129280,134.666666,151,0.157292,72,C5,64,1
129360,134.75,227,0.236458,60,C4,64,2
129440,134.833333,151,0.157292,69,A4,64,1
129600,135.0,151,0.157291,72,C5,64,1
129600,135.0,227,0.236458,57,A3,64,2
129760,135.166666,151,0.157292,69,A4,64,1
129840,135.25,227,0.236458,60,C4,64,2
129920,135.333333,151,0.157292,72,C5,64,1
130080,135.5,151,0.157291,69,A4,64,1
130080,135.5,227,0.236458,57,A3,64,2
130240,135.666666,151,0.157292,72,C5,64,1
130320,135.75,227,0.236458,60,C4,64,2
130400,135.833333,151,0.157292,69,A4,64,1
130560,136.0,151,0.157291,70,A4#,64,1
130560,136.0,227,0.236458,58,A3#,64,2
130560,136.0,1823,1.898958,55,G3,64,2
130720,136.166666,151,0.157292,67,G4,64,1
130800,136.25,227,0.236458,62,D4,64,2
130880,136.333333,151,0.157292,70,A4#,64,1
131040,136.5,151,0.157291,67,G4,64,1
131040,136.5,227,0.236458,58,A3#,64,2
131200,136.666666,151,0.157292,70,A4#,64,1
131280,136.75,227,0.236458,62,D4,64,2
131360,136.833333,151,0.157292,67,G4,64,1
131520,137.0,151,0.157291,70,A4#,64,1
131520,137.0,227,0.236458,58,A3#,64,2
131680,137.166666,151,0.157292,67,G4,64,1
131760,137.25,227,0.236458,62,D4,64,2
131840,137.333333,151,0.157292,70,A4#,64,1
132000,137.5,151,0.157291,67,G4,64,1
132000,137.5,227,0.236458,58,A3#,64,2
132160,137.666666,151,0.157292,70,A4#,64,1
132240,137.75,227,0.236458,62,D4,64,2
132320,137.833333,151,0.157292,67,G4,64,1
132480,138.0,151,0.157291,74,D5,64,1
132480,138.0,227,0.236458,58,A3#,64,2
132480,138.0,455,0.473958,53,F3,64,2
132640,138.166666,151,0.157292,67,G4,64,1
132720,138.25,227,0.236458,62,D4,64,2
132800,138.333333,151,0.157292,74,D5,64,1
132960,138.5,151,0.157291,67,G4,64,1
132960,138.5,227,0.236458,58,A3#,64,2
132960,138.5,455,0.473958,53,F3,64,2
133120,138.666666,151,0.157292,74,D5,64,1
133200,138.75,227,0.236458,62,D4,64,2
133280,138.833333,151,0.157292,67,G4,64,1
133440,139.0,151,0.157291,74,D5,64,1
133440,139.0,227,0.236458,58,A3#,64,2
133440,139.0,455,0.473958,55,G3,64,2
133600,139.166666,151,0.157292,67,G4,64,1
133680,139.25,227,0.236458,62,D4,64,2
133760,139.333333,151,0.157292,74,D5,64,1
133920,139.5,151,0.157291,67,G4,64,1
133920,139.5,227,0.236458,58,A3#,64,2
133920,139.5,455,0.473958,55,G3,64,2
134080,139.666666,151,0.157292,74,D5,64,1
134160,139.75,227,0.236458,62,D4,64,2
134240,139.833333,151,0.157292,67,G4,64,1
134400,140.0,151,0.157291,72,C5,64,1
134400,140.0,227,0.236458,57,A3,64,2
134400,140.0,3647,3.798958,53,F3,64,2
134560,140.166666,151,0.157292,69,A4,64,1
134640,140.25,227,0.236458,60,C4,64,2
134720,140.333333,151,0.157292,72,C5,64,1
134880,140.5,151,0.157291,69,A4,64,1
134880,140.5,227,0.236458,57,A3,64,2
135040,140.666666,151,0.157292,72,C5,64,1
135120,140.75,227,0.236458,60,C4,64,2
135200,140.833333,151,0.157292,69,A4,64,1
135360,141.0,151,0.157291,72,C5,64,1
135360,141.0,227,0.236458,57,A3,64,2
135520,141.166666,151,0.157292,69,A4,64,1
135600,141.25,227,0.236458,60,C4,64,2
135680,141.333333,151,0.157292,72,C5,64,1
135840,141.5,151,0.157291,69,A4,64,1
135840,141.5,227,0.236458,57,A3,64,2
136000,141.666666,151,0.157292,72,C5,64,1
136080,141.75,227,0.236458,60,C4,64,2
136160,141.833333,151,0.157292,69,A4,64,1
136320,142.0,151,0.157291,72,C5,64,1
136320,142.0,227,0.236458,57,A3,64,2
136480,142.166666,151,0.157292,69,A4,64,1
136560,142.25,227,0.236458,60,C4,64,2
136640,142.333333,151,0.157292,72,C5,64,1
136800,142.5,151,0.157291,69,A4,64,1
136800,142.5,227,0.236458,57,A3,64,2
136960,142.666666,151,0.157292,72,C5,64,1
137040,142.75,227,0.236458,60,C4,64,2
137120,142.833333,151,0.157292,69,A4,64,1
137280,143.0,151,0.157291,72,C5,64,1
137280,143.0,227,0.236458,57,A3,64,2
137440,143.166666,151,0.157292,69,A4,64,1
137520,143.25,227,0.236458,60,C4,64,2
137600,143.333333,151,0.157292,72,C5,64,1
137760,143.5,151,0.157291,69,A4,64,1
137760,143.5,227,0.236458,57,A3,64,2
137920,143.666666,151,0.157292,72,C5,64,1
138000,143.75,227,0.236458,60,C4,64,2
138080,143.833333,151,0.157292,69,A4,64,1
138240,144.0,239,0.248958,57,A3,49,2
138240,144.0,3839,3.998958,53,F3,49,2
138480,144.25,239,0.248958,60,C4,49,2
138720,144.5,239,0.248958,57,A3,49,2
138960,144.75,239,0.248958,60,C4,49,2
139200,145.0,239,0.248958,57,A3,49,2
139440,145.25,239,0.248958,60,C4,49,2
139680,145.5,239,0.248958,57,A3,49,2
139920,145.75,227,0.236458,60,C4,49,2
140160,146.0,239,0.248958,57,A3,49,2
140400,146.25,239,0.248958,60,C4,49,2
140640,146.5,239,0.248958,57,A3,49,2
140880,146.75,239,0.248958,60,C4,49,2
141120,147.0,239,0.248958,57,A3,49,2
141360,147.25,239,0.248958,60,C4,49,2
141600,147.5,239,0.248958,57,A3,49,2
141840,147.75,227,0.236458,60,C4,49,2
142080,148.0,3647,4.774621,36,C2,49,1
142080,148.0,239,0.248958,57,A3,49,2
142080,148.0,3839,7.174617,52,E3,49,2
142320,148.25,239,0.248958,60,C4,49,2
142560,148.5,239,0.248958,57,A3,49,2
142800,148.75,239,0.248958,60,C4,49,2
143040,149.0,239,0.248958,57,A3,49,2
143280,149.25,239,0.248958,60,C4,49,2
143520,149.5,239,0.248958,57,A3,49,2
143760,149.75,227,0.236458,60,C4,49,2
144000,150.0,239,0.271591,57,A3,49,2
144240,150.272728,239,0.271591,60,C4,47,2
144480,150.545456,239,0.298749,57,A3,45,2
144720,150.845455,239,0.29875,60,C4,43,2
144960,151.145455,239,0.331944,57,A3,40,2
145200,151.478788,239,0.331945,60,C4,38,2
145440,151.812122,239,0.373438,57,A3,36,2
145680,152.187123,227,2.837494,60,C4,33,2
145920,155.187117,119,0.082638,69,A4,96,1
145920,155.187117,119,0.082638,53,F3,96,2
146040,155.27045,119,0.082639,72,C5,96,1
146040,155.27045,119,0.082639,48,C3,96,2
146160,155.353783,119,0.082639,76,E5,96,1
146160,155.353783,119,0.082639,45,A2,96,2
146280,155.437116,119,0.082639,77,F5,96,1
146280,155.437116,119,0.082639,41,F2,96,2
146400,155.52045,119,0.082638,76,E5,96,1
146400,155.52045,119,0.082638,45,A2,96,2
146520,155.603783,113,0.078472,72,C5,96,1
146520,155.603783,113,0.078472,48,C3,96,2
146640,155.687116,119,0.082639,69,A4,96,1
146640,155.687116,119,0.082639,53,F3,96,2
146760,155.770449,119,0.082639,72,C5,96,1
146760,155.770449,119,0.082639,48,C3,96,2
146880,155.853783,119,0.082638,76,E5,96,1
146880,155.853783,119,0.082638,45,A2,96,2
147000,155.937116,119,0.082639,77,F5,96,1
147000,155.937116,119,0.082639,41,F2,96,2
147120,156.020449,119,0.082639,76,E5,96,1
147120,156.020449,119,0.082639,45,A2,96,2
147240,156.103782,113,0.078472,72,C5,96,1
147240,156.103782,113,0.078472,48,C3,96,2
147360,156.187116,119,0.082638,69,A4,96,1
147360,156.187116,119,0.082638,53,F3,96,2
147480,156.270449,119,0.082639,72,C5,96,1
147480,156.270449,119,0.082639,48,C3,96,2
147600,156.353782,119,0.082639,76,E5,96,1
147600,156.353782,119,0.082639,45,A2,96,2
147720,156.437115,119,0.082639,77,F5,96,1
147720,156.437115,119,0.082639,41,F2,96,2
147840,156.520449,119,0.082638,76,E5,96,1
147840,156.520449,119,0.082638,45,A2,96,2
147960,156.603782,113,0.078472,72,C5,96,1
147960,156.603782,113,0.078472,48,C3,96,2
148080,156.687115,119,0.082639,69,A4,96,1
148080,156.687115,119,0.082639,53,F3,96,2
148200,156.770448,119,0.082639,72,C5,96,1
148200,156.770448,119,0.082639,48,C3,96,2
148320,156.853782,119,0.082638,76,E5,96,1
148320,156.853782,119,0.082638,45,A2,96,2
148440,156.937115,119,0.082639,77,F5,96,1
148440,156.937115,119,0.082639,41,F2,96,2
148560,157.020448,119,0.082639,76,E5,96,1
148560,157.020448,119,0.082639,45,A2,96,2
148680,157.103781,113,0.078472,72,C5,96,1
148680,157.103781,113,0.078472,48,C3,96,2
148800,157.187115,119,0.082638,69,A4,96,1
148800,157.187115,119,0.082638,53,F3,96,2
148920,157.270448,119,0.082639,72,C5,96,1
148920,157.270448,119,0.082639,48,C3,96,2
149040,157.353781,119,0.082639,76,E5,96,1
149040,157.353781,119,0.082639,45,A2,96,2
149160,157.437114,119,0.082639,77,F5,96,1
149160,157.437114,119,0.082639,41,F2,96,2
149280,157.520448,119,0.082638,76,E5,96,1
149280,157.520448,119,0.082638,45,A2,96,2
149400,157.603781,113,0.078472,72,C5,96,1
149400,157.603781,113,0.078472,48,C3,96,2
149520,157.687114,119,0.082639,69,A4,96,1
149520,157.687114,119,0.082639,53,F3,96,2
149640,157.770447,119,0.082639,72,C5,96,1
149640,157.770447,119,0.082639,48,C3,96,2
149760,157.853781,119,0.082638,76,E5,96,1
149760,157.853781,119,0.082638,45,A2,96,2
149880,157.937114,119,0.082639,77,F5,96,1
149880,157.937114,119,0.082639,41,F2,96,2
150000,158.020447,119,0.082639,76,E5,96,1
150000,158.020447,119,0.082639,45,A2,96,2
150120,158.10378,113,0.078472,72,C5,96,1
150120,158.10378,113,0.078472,48,C3,96,2
150240,158.187114,119,0.082638,69,A4,96,1
150240,158.187114,119,0.082638,53,F3,96,2
150360,158.270447,119,0.082639,72,C5,96,1
150360,158.270447,119,0.082639,48,C3,96,2
150480,158.35378,119,0.082639,76,E5,96,1
150480,158.35378,119,0.082639,45,A2,96,2
150600,158.437113,119,0.082639,77,F5,96,1
150600,158.437113,119,0.082639,41,F2,96,2
150720,158.520447,119,0.082638,76,E5,96,1
150720,158.520447,119,0.082638,45,A2,96,2
150840,158.60378,113,0.078472,72,C5,96,1
150840,158.60378,113,0.078472,48,C3,96,2
150960,158.687113,119,0.082639,69,A4,96,1
150960,158.687113,119,0.082639,53,F3,96,2
151080,158.770446,119,0.082639,72,C5,96,1
151080,158.770446,119,0.082639,48,C3,96,2
151200,158.85378,119,0.082638,76,E5,96,1
151200,158.85378,119,0.082638,45,A2,96,2
151320,158.937113,119,0.082639,77,F5,96,1
151320,158.937113,119,0.082639,41,F2,96,2
151440,159.020446,119,0.082639,76,E5,96,1
151440,159.020446,119,0.082639,45,A2,96,2
151560,159.103779,113,0.078472,72,C5,96,1
151560,159.103779,113,0.078472,48,C3,96,2
151680,159.187113,119,0.082638,69,A4,96,1
151680,159.187113,119,0.082638,52,E3,96,2
151800,159.270446,119,0.082639,72,C5,96,1
151800,159.270446,119,0.082639,48,C3,96,2
151920,159.353779,119,0.082639,76,E5,96,1
151920,159.353779,119,0.082639,45,A2,96,2
152040,159.437112,119,0.082639,81,A5,96,1
152040,159.437112,119,0.082639,40,E2,96,2
152160,159.520446,119,0.082638,76,E5,96,1
152160,159.520446,119,0.082638,45,A2,96,2
152280,159.603779,113,0.078472,72,C5,96,1
152280,159.603779,113,0.078472,48,C3,96,2
152400,159.687112,119,0.082639,69,A4,96,1
152400,159.687112,119,0.082639,52,E3,96,2
152520,159.770445,119,0.082639,72,C5,96,1
152520,159.770445,119,0.082639,48,C3,96,2
152640,159.853779,119,0.082638,76,E5,96,1
152640,159.853779,119,0.082638,45,A2,96,2
152760,159.937112,119,0.082639,81,A5,96,1
152760,159.937112,119,0.082639,40,E2,96,2
152880,160.020445,119,0.082639,76,E5,96,1
152880,160.020445,119,0.082639,45,A2,96,2
153000,160.103778,113,0.078472,72,C5,96,1
153000,160.103778,113,0.078472,48,C3,96,2
153120,160.187112,119,0.082638,69,A4,96,1
153120,160.187112,119,0.082638,52,E3,96,2
153240,160.270445,119,0.082639,72,C5,96,1
153240,160.270445,119,0.082639,48,C3,96,2
153360,160.353778,119,0.082639,76,E5,96,1
153360,160.353778,119,0.082639,45,A2,96,2
153480,160.437111,119,0.082639,81,A5,96,1
153480,160.437111,119,0.082639,40,E2,96,2
153600,160.520445,119,0.082638,76,E5,96,1
153600,160.520445,119,0.082638,45,A2,96,2
153720,160.603778,113,0.078472,72,C5,96,1
153720,160.603778,113,0.078472,48,C3,96,2
153840,160.687111,119,0.082639,69,A4,96,1
153840,160.687111,119,0.082639,52,E3,96,2
153960,160.770444,119,0.082639,72,C5,96,1
153960,160.770444,119,0.082639,48,C3,96,2
154080,160.853778,119,0.082638,76,E5,96,1
154080,160.853778,119,0.082638,45,A2,96,2
154200,160.937111,119,0.082639,81,A5,96,1
154200,160.937111,119,0.082639,40,E2,96,2
154320,161.020444,119,0.082639,76,E5,96,1
154320,161.020444,119,0.082639,45,A2,96,2
154440,161.103777,113,0.078472,72,C5,96,1
154440,161.103777,113,0.078472,48,C3,96,2
154560,161.187111,119,0.082638,69,A4,96,1
154560,161.187111,119,0.082638,52,E3,96,2
154680,161.270444,119,0.082639,72,C5,96,1
154680,161.270444,119,0.082639,48,C3,96,2
154800,161.353777,119,0.082639,76,E5,96,1
154800,161.353777,119,0.082639,45,A2,96,2
154920,161.43711,119,0.082639,81,A5,96,1
154920,161.43711,119,0.082639,40,E2,96,2
155040,161.520444,119,0.082638,76,E5,96,1
155040,161.520444,119,0.082638,45,A2,96,2
155160,161.603777,119,0.082639,81,A5,96,1
155160,161.603777,119,0.082639,40,E2,96,2
155280,161.68711,119,0.082639,76,E5,96,1
155280,161.68711,119,0.082639,45,A2,96,2
155400,161.770443,113,0.078472,72,C5,96,1
155400,161.770443,113,0.078472,48,C3,96,2
155520,161.853777,119,0.082638,69,A4,96,1
155520,161.853777,119,0.082638,52,E3,96,2
155640,161.93711,119,0.082639,72,C5,96,1
155640,161.93711,119,0.082639,48,C3,96,2
155760,162.020443,119,0.082639,76,E5,96,1
155760,162.020443,119,0.082639,45,A2,96,2
155880,162.103776,119,0.082639,81,A5,96,1
155880,162.103776,119,0.082639,40,E2,96,2
156000,162.18711,119,0.082638,76,E5,96,1
156000,162.18711,119,0.082638,45,A2,96,2
156120,162.270443,113,0.078472,72,C5,96,1
156120,162.270443,113,0.078472,48,C3,96,2
156240,162.353776,119,0.082639,69,A4,96,1
156240,162.353776,119,0.082639,52,E3,96,2
156360,162.437109,119,0.082639,72,C5,96,1
156360,162.437109,119,0.082639,48,C3,96,2
156480,162.520443,119,0.082638,76,E5,96,1
156480,162.520443,119,0.082638,45,A2,96,2
156600,162.603776,119,0.082639,81,A5,96,1
156600,162.603776,119,0.082639,40,E2,96,2
156720,162.687109,119,0.082639,76,E5,96,1
156720,162.687109,119,0.082639,45,A2,96,2
156840,162.770442,119,0.082639,81,A5,96,1
156840,162.770442,119,0.082639,40,E2,96,2
156960,162.853776,119,0.082638,76,E5,96,1
156960,162.853776,119,0.082638,45,A2,96,2
157080,162.937109,113,0.078472,72,C5,96,1
157080,162.937109,113,0.078472,48,C3,96,2
157200,163.020442,119,0.082639,69,A4,96,1
157200,163.020442,119,0.082639,52,E3,96,2
157320,163.103775,119,0.082639,72,C5,96,1
157320,163.103775,119,0.082639,48,C3,96,2
157440,163.187109,119,0.082638,76,E5,96,1
157440,163.187109,119,0.082638,45,A2,96,2
157560,163.270442,119,0.082639,81,A5,96,1
157560,163.270442,119,0.082639,40,E2,96,2
157680,163.353775,119,0.082639,76,E5,96,1
157680,163.353775,119,0.082639,45,A2,96,2
157800,163.437108,113,0.078472,72,C5,96,1
157800,163.437108,113,0.078472,48,C3,96,2
157920,163.520442,119,0.082638,69,A4,96,1
157920,163.520442,119,0.082638,53,F3,96,2
158040,163.603775,119,0.082639,72,C5,96,1
158040,163.603775,119,0.082639,48,C3,96,2
158160,163.687108,119,0.082639,76,E5,96,1
158160,163.687108,119,0.082639,45,A2,96,2
158280,163.770441,119,0.082639,77,F5,96,1
158280,163.770441,119,0.082639,41,F2,96,2
158400,163.853775,119,0.082638,76,E5,96,1
158400,163.853775,119,0.082638,45,A2,96,2
158520,163.937108,113,0.078472,72,C5,96,1
158520,163.937108,113,0.078472,48,C3,96,2
158640,164.020441,119,0.082639,69,A4,96,1
158640,164.020441,119,0.082639,53,F3,96,2
158760,164.103774,119,0.082639,72,C5,96,1
158760,164.103774,119,0.082639,48,C3,96,2
158880,164.187108,119,0.082638,76,E5,96,1
158880,164.187108,119,0.082638,45,A2,96,2
159000,164.270441,119,0.082639,77,F5,96,1
159000,164.270441,119,0.082639,41,F2,96,2
159120,164.353774,119,0.082639,76,E5,96,1
159120,164.353774,119,0.082639,45,A2,96,2
159240,164.437107,113,0.078472,72,C5,96,1
159240,164.437107,113,0.078472,48,C3,96,2
159360,164.520441,119,0.082638,69,A4,96,1
159360,164.520441,119,0.082638,53,F3,96,2
159480,164.603774,119,0.082639,72,C5,96,1
159480,164.603774,119,0.082639,48,C3,96,2
159600,164.687107,119,0.082639,76,E5,96,1
159600,164.687107,119,0.082639,45,A2,96,2
159720,164.77044,119,0.082639,77,F5,96,1
159720,164.77044,119,0.082639,41,F2,96,2
159840,164.853774,119,0.082638,76,E5,96,1
159840,164.853774,119,0.082638,45,A2,96,2
159960,164.937107,113,0.078472,72,C5,96,1
159960,164.937107,113,0.078472,48,C3,96,2
160080,165.02044,119,0.082639,69,A4,96,1
160080,165.02044,119,0.082639,53,F3,96,2
160200,165.103773,119,0.082639,72,C5,96,1
160200,165.103773,119,0.082639,48,C3,96,2
160320,165.187107,119,0.082638,76,E5,96,1
160320,165.187107,119,0.082638,45,A2,96,2
160440,165.27044,119,0.082639,77,F5,96,1
160440,165.27044,119,0.082639,41,F2,96,2
160560,165.353773,119,0.082639,76,E5,96,1
160560,165.353773,119,0.082639,45,A2,96,2
160680,165.437106,113,0.078472,72,C5,96,1
160680,165.437106,113,0.078472,48,C3,96,2
160800,165.52044,119,0.082638,69,A4,96,1
160800,165.52044,119,0.082638,53,F3,96,2
160920,165.603773,119,0.082639,72,C5,96,1
160920,165.603773,119,0.082639,48,C3,96,2
161040,165.687106,119,0.082639,76,E5,96,1
161040,165.687106,119,0.082639,45,A2,96,2
161160,165.770439,119,0.082639,77,F5,96,1
161160,165.770439,119,0.082639,41,F2,96,2
161280,165.853773,119,0.082638,76,E5,96,1
161280,165.853773,119,0.082638,45,A2,96,2
161400,165.937106,113,0.078472,72,C5,96,1
161400,165.937106,113,0.078472,48,C3,96,2
161520,166.020439,119,0.082639,69,A4,96,1
161520,166.020439,119,0.082639,53,F3,96,2
161640,166.103772,119,0.082639,72,C5,96,1
161640,166.103772,119,0.082639,48,C3,96,2
161760,166.187106,119,0.082638,76,E5,96,1
161760,166.187106,119,0.082638,45,A2,96,2
161880,166.270439,119,0.082639,77,F5,96,1
161880,166.270439,119,0.082639,41,F2,96,2
162000,166.353772,119,0.082639,76,E5,96,1
162000,166.353772,119,0.082639,45,A2,96,2
162120,166.437105,113,0.078472,72,C5,96,1
162120,166.437105,113,0.078472,48,C3,96,2
162240,166.520439,119,0.082638,69,A4,96,1
162240,166.520439,119,0.082638,53,F3,96,2
162360,166.603772,119,0.082639,72,C5,96,1
162360,166.603772,119,0.082639,48,C3,96,2
162480,166.687105,119,0.082639,76,E5,96,1
162480,166.687105,119,0.082639,45,A2,96,2
162600,166.770438,119,0.082639,77,F5,96,1
162600,166.770438,119,0.082639,41,F2,96,2
162720,166.853772,119,0.082638,76,E5,96,1
162720,166.853772,119,0.082638,45,A2,96,2
162840,166.937105,113,0.078472,72,C5,96,1
162840,166.937105,113,0.078472,48,C3,96,2
162960,167.020438,119,0.082639,69,A4,96,1
162960,167.020438,119,0.082639,53,F3,96,2
163080,167.103771,119,0.082639,72,C5,96,1
163080,167.103771,119,0.082639,48,C3,96,2
163200,167.187105,119,0.082638,76,E5,96,1
163200,167.187105,119,0.082638,45,A2,96,2
163320,167.270438,119,0.082639,77,F5,96,1
163320,167.270438,119,0.082639,41,F2,96,2
163440,167.353771,119,0.082639,76,E5,96,1
163440,167.353771,119,0.082639,45,A2,96,2
163560,167.437104,113,0.078472,72,C5,96,1
163560,167.437104,113,0.078472,48,C3,96,2
163680,167.520438,119,0.082638,69,A4,96,1
163680,167.520438,119,0.082638,52,E3,96,2
163800,167.603771,119,0.082639,72,C5,96,1
163800,167.603771,119,0.082639,48,C3,96,2
163920,167.687104,119,0.082639,76,E5,96,1
163920,167.687104,119,0.082639,45,A2,96,2
164040,167.770437,119,0.082639,81,A5,96,1
164040,167.770437,119,0.082639,40,E2,96,2
164160,167.853771,119,0.082638,76,E5,96,1
164160,167.853771,119,0.082638,45,A2,96,2
164280,167.937104,113,0.078472,72,C5,96,1
164280,167.937104,113,0.078472,48,C3,96,2
164400,168.020437,119,0.082639,69,A4,96,1
164400,168.020437,119,0.082639,52,E3,96,2
164520,168.10377,119,0.082639,72,C5,96,1
164520,168.10377,119,0.082639,48,C3,96,2
164640,168.187104,119,0.082638,76,E5,96,1
164640,168.187104,119,0.082638,45,A2,96,2
164760,168.270437,119,0.082639,81,A5,96,1
164760,168.270437,119,0.082639,40,E2,96,2
164880,168.35377,119,0.082639,76,E5,96,1
164880,168.35377,119,0.082639,45,A2,96,2
165000,168.437103,113,0.078472,72,C5,96,1
165000,168.437103,113,0.078472,48,C3,96,2
165120,168.520437,119,0.082638,69,A4,96,1
165120,168.520437,119,0.082638,52,E3,96,2
165240,168.60377,119,0.082639,72,C5,96,1
165240,168.60377,119,0.082639,48,C3,96,2
165360,168.687103,119,0.082639,76,E5,96,1
165360,168.687103,119,0.082639,45,A2,96,2
165480,168.770436,119,0.082639,81,A5,96,1
165480,168.770436,119,0.082639,40,E2,96,2
165600,168.85377,119,0.082638,76,E5,96,1
165600,168.85377,119,0.082638,45,A2,96,2
165720,168.937103,113,0.078472,72,C5,96,1
165720,168.937103,113,0.078472,48,C3,96,2
165840,169.020436,119,0.082639,69,A4,96,1
165840,169.020436,119,0.082639,52,E3,96,2
165960,169.103769,119,0.082639,72,C5,96,1
165960,169.103769,119,0.082639,48,C3,96,2
166080,169.187103,119,0.082638,76,E5,96,1
166080,169.187103,119,0.082638,45,A2,96,2
166200,169.270436,119,0.082639,81,A5,96,1
166200,169.270436,119,0.082639,40,E2,96,2
166320,169.353769,119,0.082639,76,E5,96,1
166320,169.353769,119,0.082639,45,A2,96,2
166440,169.437102,113,0.078472,72,C5,96,1
166440,169.437102,113,0.078472,48,C3,96,2
166560,169.520436,119,0.082638,69,A4,96,1
166560,169.520436,119,0.082638,52,E3,96,2
166680,169.603769,119,0.082639,72,C5,96,1
166680,169.603769,119,0.082639,48,C3,96,2
166800,169.687102,119,0.082639,76,E5,96,1
166800,169.687102,119,0.082639,45,A2,96,2
166920,169.770435,119,0.082639,81,A5,96,1
166920,169.770435,119,0.082639,40,E2,96,2
167040,169.853769,119,0.082638,76,E5,96,1
167040,169.853769,119,0.082638,45,A2,96,2
167160,169.937102,119,0.082639,81,A5,96,1
167160,169.937102,119,0.082639,40,E2,96,2
167280,170.020435,119,0.082639,76,E5,96,1
167280,170.020435,119,0.082639,45,A2,96,2
167400,170.103768,113,0.078472,72,C5,96,1
167400,170.103768,113,0.078472,48,C3,96,2
167520,170.187102,119,0.082638,69,A4,96,1
167520,170.187102,119,0.082638,52,E3,96,2
167640,170.270435,119,0.082639,72,C5,96,1
167640,170.270435,119,0.082639,48,C3,96,2
167760,170.353768,119,0.082639,76,E5,96,1
167760,170.353768,119,0.082639,45,A2,96,2
167880,170.437101,119,0.082639,81,A5,96,1
167880,170.437101,119,0.082639,40,E2,96,2
168000,170.520435,119,0.082638,76,E5,96,1
168000,170.520435,119,0.082638,45,A2,96,2
168120,170.603768,113,0.078472,72,C5,96,1
168120,170.603768,113,0.078472,48,C3,96,2
168240,170.687101,119,0.082639,69,A4,96,1
168240,170.687101,119,0.082639,52,E3,96,2
168360,170.770434,119,0.082639,72,C5,96,1
168360,170.770434,119,0.082639,48,C3,96,2
168480,170.853768,119,0.082638,76,E5,96,1
168480,170.853768,119,0.082638,45,A2,96,2
168600,170.937101,119,0.082639,81,A5,96,1
168600,170.937101,119,0.082639,40,E2,96,2
168720,171.020434,119,0.082639,76,E5,96,1
168720,171.020434,119,0.082639,45,A2,96,2
168840,171.103767,119,0.082639,81,A5,96,1
168840,171.103767,119,0.082639,40,E2,96,2
168960,171.187101,119,0.082638,76,E5,96,1
168960,171.187101,119,0.082638,45,A2,96,2
169080,171.270434,113,0.078472,72,C5,96,1
169080,171.270434,113,0.078472,48,C3,96,2
169200,171.353767,119,0.082639,69,A4,96,1
169200,171.353767,119,0.082639,52,E3,96,2
169320,171.4371,119,0.082639,72,C5,96,1
169320,171.4371,119,0.082639,48,C3,96,2
169440,171.520434,119,0.082638,76,E5,96,1
169440,171.520434,119,0.082638,45,A2,96,2
169560,171.603767,119,0.082639,81,A5,96,1
169560,171.603767,119,0.082639,40,E2,96,2
169680,171.6871,119,0.082639,76,E5,96,1
169680,171.6871,119,0.082639,45,A2,96,2
169800,171.770433,113,0.078472,72,C5,96,1
169800,171.770433,113,0.078472,48,C3,96,2
169920,171.853767,119,0.082638,69,A4,96,1
169920,171.853767,119,0.082638,53,F3,96,2
170040,171.9371,119,0.082639,72,C5,96,1
170040,171.9371,119,0.082639,48,C3,96,2
170160,172.020433,119,0.082639,76,E5,96,1
170160,172.020433,119,0.082639,45,A2,96,2
170280,172.103766,119,0.082639,77,F5,96,1
170280,172.103766,119,0.082639,41,F2,96,2
170400,172.1871,119,0.082638,76,E5,96,1
170400,172.1871,119,0.082638,45,A2,96,2
170520,172.270433,113,0.078472,72,C5,96,1
170520,172.270433,113,0.078472,48,C3,96,2
170640,172.353766,119,0.082639,69,A4,96,1
170640,172.353766,119,0.082639,53,F3,96,2
170760,172.437099,119,0.082639,72,C5,96,1
170760,172.437099,119,0.082639,48,C3,96,2
170880,172.520433,119,0.082638,76,E5,96,1
170880,172.520433,119,0.082638,45,A2,96,2
171000,172.603766,119,0.082639,77,F5,96,1
171000,172.603766,119,0.082639,41,F2,96,2
171120,172.687099,119,0.082639,76,E5,96,1
171120,172.687099,119,0.082639,45,A2,96,2
171240,172.770432,113,0.078472,72,C5,96,1
171240,172.770432,113,0.078472,48,C3,96,2
171360,172.853766,119,0.082638,69,A4,96,1
171360,172.853766,119,0.082638,53,F3,96,2
171480,172.937099,119,0.082639,72,C5,96,1
171480,172.937099,119,0.082639,48,C3,96,2
171600,173.020432,119,0.082639,76,E5,96,1
171600,173.020432,119,0.082639,45,A2,96,2
171720,173.103765,119,0.082639,77,F5,96,1
171720,173.103765,119,0.082639,41,F2,96,2
171840,173.187099,119,0.082638,76,E5,96,1
171840,173.187099,119,0.082638,45,A2,96,2
171960,173.270432,113,0.078472,72,C5,96,1
171960,173.270432,113,0.078472,48,C3,96,2
172080,173.353765,119,0.082639,69,A4,96,1
172080,173.353765,119,0.082639,53,F3,96,2
172200,173.437098,119,0.082639,72,C5,96,1
172200,173.437098,119,0.082639,48,C3,96,2
172320,173.520432,119,0.082638,76,E5,96,1
172320,173.520432,119,0.082638,45,A2,96,2
172440,173.603765,119,0.082639,77,F5,96,1
172440,173.603765,119,0.082639,41,F2,96,2
172560,173.687098,119,0.082639,76,E5,96,1
172560,173.687098,119,0.082639,45,A2,96,2
172680,173.770431,113,0.078472,72,C5,96,1
172680,173.770431,113,0.078472,48,C3,96,2
172800,173.853765,119,0.082638,67,G4,96,1
172800,173.853765,119,0.082638,55,G3,96,2
172920,173.937098,119,0.082639,72,C5,96,1
172920,173.937098,119,0.082639,48,C3,96,2
173040,174.020431,119,0.082639,76,E5,96,1
173040,174.020431,119,0.082639,45,A2,96,2
173160,174.103764,119,0.082639,77,F5,96,1
173160,174.103764,119,0.082639,43,G2,96,2
173280,174.187098,119,0.082638,76,E5,96,1
173280,174.187098,119,0.082638,45,A2,96,2
173400,174.270431,113,0.078472,72,C5,96,1
173400,174.270431,113,0.078472,48,C3,96,2
173520,174.353764,119,0.082639,67,G4,96,1
173520,174.353764,119,0.082639,55,G3,96,2
173640,174.437097,119,0.082639,72,C5,96,1
173640,174.437097,119,0.082639,48,C3,96,2
173760,174.520431,119,0.082638,76,E5,96,1
173760,174.520431,119,0.082638,45,A2,96,2
173880,174.603764,119,0.082639,77,F5,96,1
173880,174.603764,119,0.082639,43,G2,96,2
174000,174.687097,119,0.082639,76,E5,96,1
174000,174.687097,119,0.082639,45,A2,96,2
174120,174.77043,113,0.078472,72,C5,96,1
174120,174.77043,113,0.078472,48,C3,96,2
174240,174.853764,119,0.082638,69,A4,96,1
174240,174.853764,119,0.082638,53,F3,96,2
174360,174.937097,119,0.082639,72,C5,96,1
174360,174.937097,119,0.082639,48,C3,96,2
174480,175.02043,119,0.082639,76,E5,96,1
174480,175.02043,119,0.082639,45,A2,96,2
174600,175.103763,119,0.082639,77,F5,96,1
174600,175.103763,119,0.082639,41,F2,96,2
174720,175.187097,119,0.082638,76,E5,96,1
174720,175.187097,119,0.082638,45,A2,96,2
174840,175.27043,113,0.078472,72,C5,96,1
174840,175.27043,113,0.078472,48,C3,96,2
174960,175.353763,119,0.082639,69,A4,96,1
174960,175.353763,119,0.082639,53,F3,96,2
175080,175.437096,119,0.082639,72,C5,96,1
175080,175.437096,119,0.082639,48,C3,96,2
175200,175.52043,119,0.082638,76,E5,96,1
175200,175.52043,119,0.082638,45,A2,96,2
175320,175.603763,119,0.082639,77,F5,96,1
175320,175.603763,119,0.082639,41,F2,96,2
175440,175.687096,119,0.082639,76,E5,96,1
175440,175.687096,119,0.082639,45,A2,96,2
175560,175.770429,113,0.078472,72,C5,96,1
175560,175.770429,113,0.078472,48,C3,96,2
175680,175.853763,119,0.082638,69,A4,96,1
175680,175.853763,119,0.082638,52,E3,96,2
175800,175.937096,119,0.082639,72,C5,96,1
175800,175.937096,119,0.082639,48,C3,96,2
175920,176.020429,119,0.082639,76,E5,96,1
175920,176.020429,119,0.082639,45,A2,96,2
176040,176.103762,119,0.082639,81,A5,96,1
176040,176.103762,119,0.082639,40,E2,96,2
176160,176.187096,119,0.082638,76,E5,96,1
176160,176.187096,119,0.082638,45,A2,96,2
176280,176.270429,113,0.078472,72,C5,96,1
176280,176.270429,113,0.078472,48,C3,96,2
176400,176.353762,119,0.082639,69,A4,96,1
176400,176.353762,119,0.082639,52,E3,96,2
176520,176.437095,119,0.082639,72,C5,96,1
176520,176.437095,119,0.082639,48,C3,96,2
176640,176.520429,119,0.082638,76,E5,96,1
176640,176.520429,119,0.082638,45,A2,96,2
176760,176.603762,119,0.082639,81,A5,96,1
176760,176.603762,119,0.082639,40,E2,96,2
176880,176.687095,119,0.082639,76,E5,96,1
176880,176.687095,119,0.082639,45,A2,96,2
177000,176.770428,113,0.078472,72,C5,96,1
177000,176.770428,113,0.078472,48,C3,96,2
177120,176.853762,119,0.082638,69,A4,96,1
177120,176.853762,119,0.082638,52,E3,96,2
177240,176.937095,119,0.082639,72,C5,96,1
177240,176.937095,119,0.082639,48,C3,96,2
177360,177.020428,119,0.082639,76,E5,96,1
177360,177.020428,119,0.082639,45,A2,96,2
177480,177.103761,119,0.082639,81,A5,96,1
177480,177.103761,119,0.082639,40,E2,96,2
177600,177.187095,119,0.082638,76,E5,96,1
177600,177.187095,119,0.082638,45,A2,96,2
177720,177.270428,113,0.078472,72,C5,96,1
177720,177.270428,113,0.078472,48,C3,96,2
177840,177.353761,119,0.082639,69,A4,96,1
177840,177.353761,119,0.082639,52,E3,96,2
177960,177.437094,119,0.082639,72,C5,96,1
177960,177.437094,119,0.082639,48,C3,96,2
178080,177.520428,119,0.082638,76,E5,96,1
178080,177.520428,119,0.082638,45,A2,96,2
178200,177.603761,119,0.082639,81,A5,96,1
178200,177.603761,119,0.082639,40,E2,96,2
178320,177.687094,119,0.082639,76,E5,96,1
178320,177.687094,119,0.082639,45,A2,96,2
178440,177.770427,113,0.078472,72,C5,96,1
178440,177.770427,113,0.078472,48,C3,96,2
178560,177.853761,119,0.082638,69,A4,96,1
178560,177.853761,119,0.082638,52,E3,96,2
178680,177.937094,119,0.082639,72,C5,96,1
178680,177.937094,119,0.082639,48,C3,96,2
178800,178.020427,119,0.082639,76,E5,96,1
178800,178.020427,119,0.082639,45,A2,96,2
178920,178.10376,119,0.082639,81,A5,96,1
178920,178.10376,119,0.082639,40,E2,96,2
179040,178.187094,119,0.082638,76,E5,96,1
179040,178.187094,119,0.082638,45,A2,96,2
179160,178.270427,119,0.082639,81,A5,96,1
179160,178.270427,119,0.082639,40,E2,96,2
179280,178.35376,119,0.082639,76,E5,96,1
179280,178.35376,119,0.082639,45,A2,96,2
179400,178.437093,113,0.078472,72,C5,96,1
179400,178.437093,113,0.078472,48,C3,96,2
179520,178.520427,119,0.082638,69,A4,96,1
179520,178.520427,119,0.082638,52,E3,96,2
179640,178.60376,119,0.082639,72,C5,96,1
179640,178.60376,119,0.082639,48,C3,96,2
179760,178.687093,119,0.082639,76,E5,96,1
179760,178.687093,119,0.082639,45,A2,96,2
179880,178.770426,119,0.082639,81,A5,96,1
179880,178.770426,119,0.082639,40,E2,96,2
180000,178.85376,119,0.082638,76,E5,96,1
180000,178.85376,119,0.082638,45,A2,96,2
180120,178.937093,113,0.078472,72,C5,96,1
180120,178.937093,113,0.078472,48,C3,96,2
180240,179.020426,119,0.082639,69,A4,96,1
180240,179.020426,119,0.082639,52,E3,96,2
180360,179.103759,119,0.082639,72,C5,96,1
180360,179.103759,119,0.082639,48,C3,96,2
180480,179.187093,119,0.082638,76,E5,96,1
180480,179.187093,119,0.082638,45,A2,96,2
180600,179.270426,119,0.082639,81,A5,96,1
180600,179.270426,119,0.082639,40,E2,96,2
180720,179.353759,119,0.082639,76,E5,96,1
180720,179.353759,119,0.082639,45,A2,96,2
180840,179.437092,119,0.082639,81,A5,96,1
180840,179.437092,119,0.082639,40,E2,96,2
180960,179.520426,119,0.082638,76,E5,96,1
180960,179.520426,119,0.082638,45,A2,96,2
181080,179.603759,113,0.078472,72,C5,96,1
181080,179.603759,113,0.078472,48,C3,96,2
181200,179.687092,119,0.082639,69,A4,96,1
181200,179.687092,119,0.082639,52,E3,96,2
181320,179.770425,119,0.082639,72,C5,96,1
181320,179.770425,119,0.082639,48,C3,96,2
181440,179.853759,119,0.082638,76,E5,96,1
181440,179.853759,119,0.082638,45,A2,96,2
181560,179.937092,119,0.082639,81,A5,96,1
181560,179.937092,119,0.082639,40,E2,96,2
181680,180.020425,119,0.082639,76,E5,96,1
181680,180.020425,119,0.082639,45,A2,96,2
181800,180.103758,113,0.078472,72,C5,96,1
181800,180.103758,113,0.078472,48,C3,96,2
181920,180.187092,119,0.082638,69,A4,96,1
181920,180.187092,119,0.082638,53,F3,96,2
182040,180.270425,119,0.082639,72,C5,96,1
182040,180.270425,119,0.082639,48,C3,96,2
182160,180.353758,119,0.082639,76,E5,96,1
182160,180.353758,119,0.082639,45,A2,96,2
182280,180.437091,119,0.082639,77,F5,96,1
182280,180.437091,119,0.082639,41,F2,96,2
182400,180.520425,119,0.082638,76,E5,96,1
182400,180.520425,119,0.082638,45,A2,96,2
182520,180.603758,113,0.078472,72,C5,96,1
182520,180.603758,113,0.078472,48,C3,96,2
182640,180.687091,119,0.082639,69,A4,96,1
182640,180.687091,119,0.082639,53,F3,96,2
182760,180.770424,119,0.082639,72,C5,96,1
182760,180.770424,119,0.082639,48,C3,96,2
182880,180.853758,119,0.082638,76,E5,96,1
182880,180.853758,119,0.082638,45,A2,96,2
183000,180.937091,119,0.082639,77,F5,96,1
183000,180.937091,119,0.082639,41,F2,96,2
183120,181.020424,119,0.082639,76,E5,96,1
183120,181.020424,119,0.082639,45,A2,96,2
183240,181.103757,113,0.078472,72,C5,96,1
183240,181.103757,113,0.078472,48,C3,96,2
183360,181.187091,119,0.082638,69,A4,96,1
183360,181.187091,119,0.082638,53,F3,96,2
183480,181.270424,119,0.082639,72,C5,96,1
183480,181.270424,119,0.082639,48,C3,96,2
183600,181.353757,119,0.082639,76,E5,96,1
183600,181.353757,119,0.082639,45,A2,96,2
183720,181.43709,119,0.082639,77,F5,96,1
183720,181.43709,119,0.082639,41,F2,96,2
183840,181.520424,119,0.082638,76,E5,96,1
183840,181.520424,119,0.082638,45,A2,96,2
183960,181.603757,113,0.078472,72,C5,96,1
183960,181.603757,113,0.078472,48,C3,96,2
184080,181.68709,119,0.082639,69,A4,96,1
184080,181.68709,119,0.082639,53,F3,96,2
184200,181.770423,119,0.082639,72,C5,96,1
184200,181.770423,119,0.082639,48,C3,96,2
184320,181.853757,119,0.082638,76,E5,96,1
184320,181.853757,119,0.082638,45,A2,96,2
184440,181.93709,119,0.082639,77,F5,96,1
184440,181.93709,119,0.082639,41,F2,96,2
184560,182.020423,119,0.082639,76,E5,96,1
184560,182.020423,119,0.082639,45,A2,96,2
184680,182.103756,113,0.078472,72,C5,96,1
184680,182.103756,113,0.078472,48,C3,96,2
184800,182.18709,119,0.082638,67,G4,96,1
184800,182.18709,119,0.082638,55,G3,96,2
184920,182.270423,119,0.082639,72,C5,96,1
184920,182.270423,119,0.082639,48,C3,96,2
185040,182.353756,119,0.082639,76,E5,96,1
185040,182.353756,119,0.082639,45,A2,96,2
185160,182.437089,119,0.082639,77,F5,96,1
185160,182.437089,119,0.082639,43,G2,96,2
185280,182.520423,119,0.082638,76,E5,96,1
185280,182.520423,119,0.082638,45,A2,96,2
185400,182.603756,113,0.078472,72,C5,96,1
185400,182.603756,113,0.078472,48,C3,96,2
185520,182.687089,119,0.082639,67,G4,96,1
185520,182.687089,119,0.082639,55,G3,96,2
185640,182.770422,119,0.082639,72,C5,96,1
185640,182.770422,119,0.082639,48,C3,96,2
185760,182.853756,119,0.082638,76,E5,96,1
185760,182.853756,119,0.082638,45,A2,96,2
185880,182.937089,119,0.082639,77,F5,96,1
185880,182.937089,119,0.082639,43,G2,96,2
186000,183.020422,119,0.082639,76,E5,96,1
186000,183.020422,119,0.082639,45,A2,96,2
186120,183.103755,113,0.078472,72,C5,96,1
186120,183.103755,113,0.078472,48,C3,96,2
186240,183.187089,119,0.082638,69,A4,96,1
186240,183.187089,119,0.082638,53,F3,96,2
186360,183.270422,119,0.082639,72,C5,96,1
186360,183.270422,119,0.082639,48,C3,96,2
186480,183.353755,119,0.082639,76,E5,96,1
186480,183.353755,119,0.082639,45,A2,96,2
186600,183.437088,119,0.082639,77,F5,96,1
186600,183.437088,119,0.082639,41,F2,96,2
186720,183.520422,119,0.082638,76,E5,96,1
186720,183.520422,119,0.082638,45,A2,96,2
186840,183.603755,113,0.078472,72,C5,96,1
186840,183.603755,113,0.078472,48,C3,96,2
186960,183.687088,119,0.082639,69,A4,96,1
186960,183.687088,119,0.082639,53,F3,96,2
187080,183.770421,119,0.082639,72,C5,96,1
187080,183.770421,119,0.082639,48,C3,96,2
187200,183.853755,119,0.082638,76,E5,96,1
187200,183.853755,119,0.082638,45,A2,96,2
187320,183.937088,119,0.082639,77,F5,96,1
187320,183.937088,119,0.082639,41,F2,96,2
187440,184.020421,119,0.082639,76,E5,96,1
187440,184.020421,119,0.082639,45,A2,96,2
187560,184.103754,113,0.078472,72,C5,96,1
187560,184.103754,113,0.078472,48,C3,96,2
187680,184.187088,119,0.082638,69,A4,96,1
187680,184.187088,119,0.082638,52,E3,96,2
187800,184.270421,119,0.082639,72,C5,96,1
187800,184.270421,119,0.082639,48,C3,96,2
187920,184.353754,119,0.082639,76,E5,96,1
187920,184.353754,119,0.082639,45,A2,96,2
188040,184.437087,119,0.082639,81,A5,96,1
188040,184.437087,119,0.082639,40,E2,96,2
188160,184.520421,119,0.082638,76,E5,96,1
188160,184.520421,119,0.082638,45,A2,96,2
188280,184.603754,113,0.078472,72,C5,96,1
188280,184.603754,113,0.078472,48,C3,96,2
188400,184.687087,119,0.082639,69,A4,96,1
188400,184.687087,119,0.082639,52,E3,96,2
188520,184.77042,119,0.082639,72,C5,96,1
188520,184.77042,119,0.082639,48,C3,96,2
188640,184.853754,119,0.082638,76,E5,96,1
188640,184.853754,119,0.082638,45,A2,96,2
188760,184.937087,119,0.082639,81,A5,96,1
188760,184.937087,119,0.082639,40,E2,96,2
188880,185.02042,119,0.082639,76,E5,96,1
188880,185.02042,119,0.082639,45,A2,96,2
189000,185.103753,113,0.078472,72,C5,96,1
189000,185.103753,113,0.078472,48,C3,96,2
189120,185.187087,119,0.082638,69,A4,96,1
189120,185.187087,119,0.082638,52,E3,96,2
189240,185.27042,119,0.082639,72,C5,96,1
189240,185.27042,119,0.082639,48,C3,96,2
189360,185.353753,119,0.082639,76,E5,96,1
189360,185.353753,119,0.082639,45,A2,96,2
189480,185.437086,119,0.082639,81,A5,96,1
189480,185.437086,119,0.082639,40,E2,96,2
189600,185.52042,119,0.082638,76,E5,96,1
189600,185.52042,119,0.082638,45,A2,96,2
189720,185.603753,113,0.078472,72,C5,96,1
189720,185.603753,113,0.078472,48,C3,96,2
189840,185.687086,119,0.082639,69,A4,96,1
189840,185.687086,119,0.082639,52,E3,96,2
189960,185.770419,119,0.082639,72,C5,96,1
189960,185.770419,119,0.082639,48,C3,96,2
190080,185.853753,119,0.082638,76,E5,96,1
190080,185.853753,119,0.082638,45,A2,96,2
190200,185.937086,119,0.082639,81,A5,96,1
190200,185.937086,119,0.082639,40,E2,96,2
190320,186.020419,119,0.082639,76,E5,96,1
190320,186.020419,119,0.082639,45,A2,96,2
190440,186.103752,113,0.078472,72,C5,96,1
190440,186.103752,113,0.078472,48,C3,96,2
190560,186.187086,119,0.082638,69,A4,96,1
190560,186.187086,119,0.082638,52,E3,96,2
190680,186.270419,119,0.082639,72,C5,96,1
190680,186.270419,119,0.082639,48,C3,96,2
190800,186.353752,119,0.082639,76,E5,96,1
190800,186.353752,119,0.082639,45,A2,96,2
190920,186.437085,119,0.082639,81,A5,96,1
190920,186.437085,119,0.082639,40,E2,96,2
191040,186.520419,119,0.082638,76,E5,96,1
191040,186.520419,119,0.082638,45,A2,96,2
191160,186.603752,119,0.082639,81,A5,96,1
191160,186.603752,119,0.082639,40,E2,96,2
191280,186.687085,119,0.082639,76,E5,96,1
191280,186.687085,119,0.082639,45,A2,96,2
191400,186.770418,113,0.078472,72,C5,96,1
191400,186.770418,113,0.078472,48,C3,96,2
191520,186.853752,119,0.082638,69,A4,96,1
191520,186.853752,119,0.082638,52,E3,96,2
191640,186.937085,119,0.082639,72,C5,96,1
191640,186.937085,119,0.082639,48,C3,96,2
191760,187.020418,119,0.082639,76,E5,96,1
191760,187.020418,119,0.082639,45,A2,96,2
191880,187.103751,119,0.082639,81,A5,96,1
191880,187.103751,119,0.082639,40,E2,96,2
192000,187.187085,119,0.082638,76,E5,96,1
192000,187.187085,119,0.082638,45,A2,96,2
192120,187.270418,113,0.078472,72,C5,96,1
192120,187.270418,113,0.078472,48,C3,96,2
192240,187.353751,119,0.082639,69,A4,96,1
192240,187.353751,119,0.082639,52,E3,96,2
192360,187.437084,119,0.082639,72,C5,96,1
192360,187.437084,119,0.082639,48,C3,96,2
192480,187.520418,119,0.082638,76,E5,96,1
192480,187.520418,119,0.082638,45,A2,96,2
192600,187.603751,119,0.082639,81,A5,96,1
192600,187.603751,119,0.082639,40,E2,96,2
192720,187.687084,119,0.082639,76,E5,96,1
192720,187.687084,119,0.082639,45,A2,96,2
192840,187.770417,119,0.082639,81,A5,96,1
192840,187.770417,119,0.082639,40,E2,96,2
192960,187.853751,119,0.082638,76,E5,96,1
192960,187.853751,119,0.082638,45,A2,96,2
193080,187.937084,113,0.078472,72,C5,96,1
193080,187.937084,113,0.078472,48,C3,96,2
193200,188.020417,119,0.082639,69,A4,96,1
193200,188.020417,119,0.082639,52,E3,96,2
193320,188.10375,119,0.082639,72,C5,96,1
193320,188.10375,119,0.082639,48,C3,96,2
193440,188.187084,119,0.082638,76,E5,96,1
193440,188.187084,119,0.082638,45,A2,96,2
193560,188.270417,119,0.082639,81,A5,96,1
193560,188.270417,119,0.082639,40,E2,96,2
193680,188.35375,119,0.082639,76,E5,96,1
193680,188.35375,119,0.082639,45,A2,96,2
193800,188.437083,113,0.078472,72,C5,96,1
193800,188.437083,113,0.078472,48,C3,96,2
193920,188.520417,113,0.078472,69,A4,96,1
193920,188.520417,113,0.078472,53,F3,96,2
194040,188.60375,113,0.078472,72,C5,96,1
194040,188.60375,113,0.078472,48,C3,96,2
194160,188.687083,113,0.078472,76,E5,96,1
194160,188.687083,113,0.078472,45,A2,96,2
194280,188.770416,113,0.078472,77,F5,96,1
194280,188.770416,113,0.078472,41,F2,96,2
194400,188.85375,113,0.078472,76,E5,96,1
194400,188.85375,113,0.078472,45,A2,96,2
194520,188.937083,113,0.078472,72,C5,96,1
194520,188.937083,113,0.078472,48,C3,96,2
194640,189.020416,113,0.078472,69,A4,96,1
194640,189.020416,113,0.078472,53,F3,96,2
194760,189.103749,113,0.078472,72,C5,96,1
194760,189.103749,113,0.078472,48,C3,96,2
194880,189.187083,113,0.078472,76,E5,96,1
194880,189.187083,113,0.078472,45,A2,96,2
195000,189.270416,113,0.078472,77,F5,96,1
195000,189.270416,113,0.078472,41,F2,96,2
195120,189.353749,113,0.078472,76,E5,96,1
195120,189.353749,113,0.078472,45,A2,96,2
195240,189.437082,113,0.078472,72,C5,96,1
195240,189.437082,113,0.078472,48,C3,96,2
195360,189.520416,113,0.078472,69,A4,96,1
195360,189.520416,113,0.078472,53,F3,96,2
195480,189.603749,113,0.078472,72,C5,96,1
195480,189.603749,113,0.078472,48,C3,96,2
195600,189.687082,113,0.078472,76,E5,96,1
195600,189.687082,113,0.078472,45,A2,96,2
195720,189.770415,113,0.078472,77,F5,96,1
195720,189.770415,113,0.078472,41,F2,96,2
195840,189.853749,113,0.078472,76,E5,96,1
195840,189.853749,113,0.078472,45,A2,96,2
195960,189.937082,113,0.078472,72,C5,96,1
195960,189.937082,113,0.078472,48,C3,96,2
196080,190.020415,113,0.078472,69,A4,96,1
196080,190.020415,113,0.078472,53,F3,96,2
196200,190.103748,113,0.078472,72,C5,96,1
196200,190.103748,113,0.078472,48,C3,96,2
196320,190.187082,113,0.078472,76,E5,96,1
196320,190.187082,113,0.078472,45,A2,96,2
196440,190.270415,113,0.078472,77,F5,96,1
196440,190.270415,113,0.078472,41,F2,96,2
196560,190.353748,113,0.078472,76,E5,96,1
196560,190.353748,113,0.078472,45,A2,96,2
196680,190.437081,113,0.078472,72,C5,96,1
196680,190.437081,113,0.078472,48,C3,96,2
196800,190.520415,113,0.078472,67,G4,96,1
196800,190.520415,113,0.078472,55,G3,96,2
196920,190.603748,113,0.078472,72,C5,96,1
196920,190.603748,113,0.078472,48,C3,96,2
197040,190.687081,113,0.078472,76,E5,96,1
197040,190.687081,113,0.078472,45,A2,96,2
197160,190.770414,113,0.078472,77,F5,96,1
197160,190.770414,113,0.078472,43,G2,96,2
197280,190.853748,113,0.078472,76,E5,96,1
197280,190.853748,113,0.078472,45,A2,96,2
197400,190.937081,113,0.078472,72,C5,96,1
197400,190.937081,113,0.078472,48,C3,96,2
197520,191.020414,113,0.078472,67,G4,96,1
197520,191.020414,113,0.078472,55,G3,96,2
197640,191.103747,113,0.078472,72,C5,96,1
197640,191.103747,113,0.078472,48,C3,96,2
197760,191.187081,113,0.078472,76,E5,96,1
197760,191.187081,113,0.078472,45,A2,96,2
197880,191.270414,113,0.078472,77,F5,96,1
197880,191.270414,113,0.078472,43,G2,96,2
198000,191.353747,113,0.078472,76,E5,96,1
198000,191.353747,113,0.078472,45,A2,96,2
198120,191.43708,113,0.078472,72,C5,96,1
198120,191.43708,113,0.078472,48,C3,96,2
198240,191.520414,113,0.078472,69,A4,96,1
198240,191.520414,113,0.078472,53,F3,96,2
198360,191.603747,113,0.078472,72,C5,96,1
198360,191.603747,113,0.078472,48,C3,96,2
198480,191.68708,113,0.078472,76,E5,96,1
198480,191.68708,113,0.078472,45,A2,96,2
198600,191.770413,113,0.078472,77,F5,96,1
198600,191.770413,113,0.078472,41,F2,96,2
198720,191.853747,113,0.078472,76,E5,96,1
198720,191.853747,113,0.078472,45,A2,96,2
198840,191.93708,113,0.078472,72,C5,96,1
198840,191.93708,113,0.078472,48,C3,96,2
198960,192.020413,113,0.078472,69,A4,96,1
198960,192.020413,113,0.078472,53,F3,96,2
199080,192.103746,113,0.078472,72,C5,96,1
199080,192.103746,113,0.078472,48,C3,96,2
199200,192.18708,113,0.078472,76,E5,96,1
199200,192.18708,113,0.078472,45,A2,96,2
199320,192.270413,113,0.078472,77,F5,96,1
199320,192.270413,113,0.078472,41,F2,96,2
199440,192.353746,113,0.078472,76,E5,96,1
199440,192.353746,113,0.078472,45,A2,96,2
199560,192.437079,113,0.078472,72,C5,96,1
199560,192.437079,113,0.078472,48,C3,96,2
199680,192.520413,113,0.078472,69,A4,96,1
199680,192.520413,113,0.078472,52,E3,96,2
199800,192.603746,113,0.078472,72,C5,96,1
199800,192.603746,113,0.078472,48,C3,96,2
199920,192.687079,113,0.078472,76,E5,96,1
199920,192.687079,113,0.078472,45,A2,96,2
200040,192.770412,113,0.078472,81,A5,96,1
200040,192.770412,113,0.078472,40,E2,96,2
200160,192.853746,113,0.078472,76,E5,96,1
200160,192.853746,113,0.078472,45,A2,96,2
200280,192.937079,113,0.078472,72,C5,96,1
200280,192.937079,113,0.078472,48,C3,96,2
200400,193.020412,113,0.078472,69,A4,96,1
200400,193.020412,113,0.078472,52,E3,96,2
200520,193.103745,113,0.078472,72,C5,96,1
200520,193.103745,113,0.078472,48,C3,96,2
200640,193.187079,113,0.078472,76,E5,96,1
200640,193.187079,113,0.078472,45,A2,96,2
200760,193.270412,113,0.078472,81,A5,96,1
200760,193.270412,113,0.078472,40,E2,96,2
200880,193.353745,113,0.078472,76,E5,96,1
200880,193.353745,113,0.078472,45,A2,96,2
201000,193.437078,113,0.078472,72,C5,96,1
201000,193.437078,113,0.078472,48,C3,96,2
201120,193.520412,113,0.078472,69,A4,96,1
201120,193.520412,113,0.078472,52,E3,96,2
201240,193.603745,113,0.078472,72,C5,96,1
201240,193.603745,113,0.078472,48,C3,96,2
201360,193.687078,113,0.078472,76,E5,96,1
201360,193.687078,113,0.078472,45,A2,96,2
201480,193.770411,113,0.078472,81,A5,96,1
201480,193.770411,113,0.078472,40,E2,96,2
201600,193.853745,113,0.078472,76,E5,96,1
201600,193.853745,113,0.078472,45,A2,96,2
201720,193.937078,113,0.078472,72,C5,96,1
201720,193.937078,113,0.078472,48,C3,96,2
201840,194.020411,113,0.078472,69,A4,96,1
201840,194.020411,113,0.078472,52,E3,96,2
201960,194.103744,113,0.078472,72,C5,96,1
201960,194.103744,113,0.078472,48,C3,96,2
202080,194.187078,113,0.078472,76,E5,96,1
202080,194.187078,113,0.078472,45,A2,96,2
202200,194.270411,113,0.078472,81,A5,96,1
202200,194.270411,113,0.078472,40,E2,96,2
202320,194.353744,113,0.078472,76,E5,96,1
202320,194.353744,113,0.078472,45,A2,96,2
202440,194.437077,113,0.078472,72,C5,96,1
202440,194.437077,113,0.078472,48,C3,96,2
202560,194.520411,113,0.078472,69,A4,96,1
202560,194.520411,113,0.078472,52,E3,96,2
202680,194.603744,113,0.078472,72,C5,96,1
202680,194.603744,113,0.078472,48,C3,96,2
202800,194.687077,113,0.078472,76,E5,96,1
202800,194.687077,113,0.078472,45,A2,96,2
202920,194.77041,113,0.078472,81,A5,96,1
202920,194.77041,113,0.078472,40,E2,96,2
203040,194.853744,113,0.078472,76,E5,96,1
203040,194.853744,113,0.078472,45,A2,96,2
203160,194.937077,113,0.078472,81,A5,96,1
203160,194.937077,113,0.078472,40,E2,96,2
203280,195.02041,113,0.078472,76,E5,96,1
203280,195.02041,113,0.078472,45,A2,96,2
203400,195.103743,113,0.078472,72,C5,96,1
203400,195.103743,113,0.078472,48,C3,96,2
203520,195.187077,113,0.078472,69,A4,96,1
203520,195.187077,113,0.078472,52,E3,96,2
203640,195.27041,113,0.078472,72,C5,96,1
203640,195.27041,113,0.078472,48,C3,96,2
203760,195.353743,113,0.078472,76,E5,96,1
203760,195.353743,113,0.078472,45,A2,96,2
203880,195.437076,113,0.078472,81,A5,96,1
203880,195.437076,113,0.078472,40,E2,96,2
204000,195.52041,113,0.078472,76,E5,96,1
204000,195.52041,113,0.078472,45,A2,96,2
204120,195.603743,113,0.078472,72,C5,96,1
204120,195.603743,113,0.078472,48,C3,96,2
204240,195.687076,113,0.078472,69,A4,96,1
204240,195.687076,113,0.078472,52,E3,96,2
204360,195.770409,113,0.078472,72,C5,96,1
204360,195.770409,113,0.078472,48,C3,96,2
204480,195.853743,113,0.078472,76,E5,96,1
204480,195.853743,113,0.078472,45,A2,96,2
204600,195.937076,113,0.078472,81,A5,96,1
204600,195.937076,113,0.078472,40,E2,96,2
204720,196.020409,113,0.078472,76,E5,96,1
204720,196.020409,113,0.078472,45,A2,96,2
204840,196.103742,113,0.078472,81,A5,96,1
204840,196.103742,113,0.078472,40,E2,96,2
204960,196.187076,113,0.078472,76,E5,96,1
204960,196.187076,113,0.078472,45,A2,96,2
205080,196.270409,113,0.078472,72,C5,96,1
205080,196.270409,113,0.078472,48,C3,96,2
205200,196.353742,113,0.078472,69,A4,96,1
205200,196.353742,113,0.078472,52,E3,96,2
205320,196.437075,113,0.078472,72,C5,96,1
205320,196.437075,113,0.078472,48,C3,96,2
205440,196.520409,113,0.078472,76,E5,96,1
205440,196.520409,113,0.078472,45,A2,96,2
205560,196.603742,113,0.078472,81,A5,96,1
205560,196.603742,113,0.078472,40,E2,96,2
205680,196.687075,113,0.078472,76,E5,96,1
205680,196.687075,113,0.078472,45,A2,96,2
205800,196.770408,113,0.078472,72,C5,96,1
205800,196.770408,113,0.078472,48,C3,96,2
205920,196.853742,113,0.078472,67,G4,96,1
205920,196.853742,113,0.078472,55,G3,96,2
206040,196.937075,113,0.078472,70,A4#,96,1
206040,196.937075,113,0.078472,50,D3,96,2
206160,197.020408,113,0.078472,74,D5,96,1
206160,197.020408,113,0.078472,46,A2#,96,2
206280,197.103741,113,0.078472,77,F5,96,1
206280,197.103741,113,0.078472,43,G2,96,2
206400,197.187075,113,0.078472,74,D5,96,1
206400,197.187075,113,0.078472,46,A2#,96,2
206520,197.270408,113,0.078472,70,A4#,96,1
206520,197.270408,113,0.078472,50,D3,96,2
206640,197.353741,113,0.078472,67,G4,96,1
206640,197.353741,113,0.078472,55,G3,96,2
206760,197.437074,113,0.078472,70,A4#,96,1
206760,197.437074,113,0.078472,50,D3,96,2
206880,197.520408,113,0.078472,74,D5,96,1
206880,197.520408,113,0.078472,46,A2#,96,2
207000,197.603741,113,0.078472,77,F5,96,1
207000,197.603741,113,0.078472,43,G2,96,2
207120,197.687074,113,0.078472,74,D5,96,1
207120,197.687074,113,0.078472,46,A2#,96,2
207240,197.770407,113,0.078472,70,A4#,96,1
207240,197.770407,113,0.078472,50,D3,96,2
207360,197.853741,113,0.078472,67,G4,96,1
207360,197.853741,113,0.078472,55,G3,96,2
207480,197.937074,113,0.078472,70,A4#,96,1
207480,197.937074,113,0.078472,50,D3,96,2
207600,198.020407,113,0.078472,74,D5,96,1
207600,198.020407,113,0.078472,46,A2#,96,2
207720,198.10374,113,0.078472,77,F5,96,1
207720,198.10374,113,0.078472,43,G2,96,2
207840,198.187074,113,0.078472,74,D5,96,1
207840,198.187074,113,0.078472,46,A2#,96,2
207960,198.270407,113,0.078472,70,A4#,96,1
207960,198.270407,113,0.078472,50,D3,96,2
208080,198.35374,113,0.078472,67,G4,96,1
208080,198.35374,113,0.078472,55,G3,96,2
208200,198.437073,113,0.078472,70,A4#,96,1
208200,198.437073,113,0.078472,50,D3,96,2
208320,198.520407,113,0.078472,74,D5,96,1
208320,198.520407,113,0.078472,46,A2#,96,2
208440,198.60374,113,0.078472,77,F5,96,1
208440,198.60374,113,0.078472,43,G2,96,2
208560,198.687073,113,0.078472,74,D5,96,1
208560,198.687073,113,0.078472,46,A2#,96,2
208680,198.770406,113,0.078472,70,A4#,96,1
208680,198.770406,113,0.078472,50,D3,96,2
208800,198.85374,113,0.078472,67,G4,96,1
208800,198.85374,113,0.078472,55,G3,96,2
208920,198.937073,113,0.078472,70,A4#,96,1
208920,198.937073,113,0.078472,50,D3,96,2
209040,199.020406,113,0.078472,74,D5,96,1
209040,199.020406,113,0.078472,46,A2#,96,2
209160,199.103739,113,0.078472,77,F5,96,1
209160,199.103739,113,0.078472,43,G2,96,2
209280,199.187073,113,0.078472,74,D5,96,1
209280,199.187073,113,0.078472,46,A2#,96,2
209400,199.270406,113,0.078472,70,A4#,96,1
209400,199.270406,113,0.078472,50,D3,96,2
209520,199.353739,113,0.078472,67,G4,96,1
209520,199.353739,113,0.078472,55,G3,96,2
209640,199.437072,113,0.078472,70,A4#,96,1
209640,199.437072,113,0.078472,50,D3,96,2
209760,199.520406,113,0.078472,74,D5,96,1
209760,199.520406,113,0.078472,46,A2#,96,2
209880,199.603739,113,0.078472,77,F5,96,1
209880,199.603739,113,0.078472,43,G2,96,2
210000,199.687072,113,0.078472,74,D5,96,1
210000,199.687072,113,0.078472,46,A2#,96,2
210120,199.770405,113,0.078472,70,A4#,96,1
210120,199.770405,113,0.078472,50,D3,96,2
210240,199.853739,113,0.078472,67,G4,96,1
210240,199.853739,113,0.078472,55,G3,96,2
210360,199.937072,113,0.078472,70,A4#,96,1
210360,199.937072,113,0.078472,50,D3,96,2
210480,200.020405,113,0.078472,74,D5,96,1
210480,200.020405,113,0.078472,46,A2#,96,2
210600,200.103738,113,0.078472,77,F5,96,1
210600,200.103738,113,0.078472,43,G2,96,2
210720,200.187072,113,0.078472,74,D5,96,1
210720,200.187072,113,0.078472,46,A2#,96,2
210840,200.270405,113,0.078472,70,A4#,96,1
210840,200.270405,113,0.078472,50,D3,96,2
210960,200.353738,113,0.078472,67,G4,96,1
210960,200.353738,113,0.078472,55,G3,96,2
211080,200.437071,113,0.078472,70,A4#,96,1
211080,200.437071,113,0.078472,50,D3,96,2
211200,200.520405,113,0.078472,74,D5,96,1
211200,200.520405,113,0.078472,46,A2#,96,2
211320,200.603738,113,0.078472,77,F5,96,1
211320,200.603738,113,0.078472,43,G2,96,2
211440,200.687071,113,0.078472,74,D5,96,1
211440,200.687071,113,0.078472,46,A2#,96,2
211560,200.770404,113,0.078472,70,A4#,96,1
211560,200.770404,113,0.078472,50,D3,96,2
211680,200.853738,113,0.078472,69,A4,96,1
211680,200.853738,113,0.078472,53,F3,96,2
211800,200.937071,113,0.078472,72,C5,96,1
211800,200.937071,113,0.078472,48,C3,96,2
211920,201.020404,113,0.078472,76,E5,96,1
211920,201.020404,113,0.078472,45,A2,96,2
212040,201.103737,113,0.078472,77,F5,96,1
212040,201.103737,113,0.078472,41,F2,96,2
212160,201.187071,113,0.078472,76,E5,96,1
212160,201.187071,113,0.078472,45,A2,96,2
212280,201.270404,113,0.078472,72,C5,96,1
212280,201.270404,113,0.078472,48,C3,96,2
212400,201.353737,113,0.078472,69,A4,96,1
212400,201.353737,113,0.078472,53,F3,96,2
212520,201.43707,113,0.078472,72,C5,96,1
212520,201.43707,113,0.078472,48,C3,96,2
212640,201.520404,113,0.078472,76,E5,96,1
212640,201.520404,113,0.078472,45,A2,96,2
212760,201.603737,113,0.078472,77,F5,96,1
212760,201.603737,113,0.078472,41,F2,96,2
212880,201.68707,113,0.078472,76,E5,96,1
212880,201.68707,113,0.078472,45,A2,96,2
213000,201.770403,113,0.078472,72,C5,96,1
213000,201.770403,113,0.078472,48,C3,96,2
213120,201.853737,113,0.078472,69,A4,96,1
213120,201.853737,113,0.078472,53,F3,96,2
213240,201.93707,113,0.078472,72,C5,96,1
213240,201.93707,113,0.078472,48,C3,96,2
213360,202.020403,113,0.078472,76,E5,96,1
213360,202.020403,113,0.078472,45,A2,96,2
213480,202.103736,113,0.078472,77,F5,96,1
213480,202.103736,113,0.078472,41,F2,96,2
213600,202.18707,113,0.078472,76,E5,96,1
213600,202.18707,113,0.078472,45,A2,96,2
213720,202.270403,113,0.078472,72,C5,96,1
213720,202.270403,113,0.078472,48,C3,96,2
213840,202.353736,113,0.078472,69,A4,96,1
213840,202.353736,113,0.078472,53,F3,96,2
213960,202.437069,113,0.078472,72,C5,96,1
213960,202.437069,113,0.078472,48,C3,96,2
214080,202.520403,113,0.078472,76,E5,96,1
214080,202.520403,113,0.078472,45,A2,96,2
214200,202.603736,113,0.078472,77,F5,96,1
214200,202.603736,113,0.078472,41,F2,96,2
214320,202.687069,113,0.078472,76,E5,96,1
214320,202.687069,113,0.078472,45,A2,96,2
214440,202.770402,113,0.078472,72,C5,96,1
214440,202.770402,113,0.078472,48,C3,96,2
214560,202.853736,113,0.078472,69,A4,96,1
214560,202.853736,113,0.078472,53,F3,96,2
214680,202.937069,113,0.078472,72,C5,96,1
214680,202.937069,113,0.078472,48,C3,96,2
214800,203.020402,113,0.078472,76,E5,96,1
214800,203.020402,113,0.078472,45,A2,96,2
214920,203.103735,113,0.078472,77,F5,96,1
214920,203.103735,113,0.078472,41,F2,96,2
215040,203.187069,113,0.078472,76,E5,96,1
215040,203.187069,113,0.078472,45,A2,96,2
215160,203.270402,113,0.078472,77,F5,96,1
215160,203.270402,113,0.078472,41,F2,96,2
215280,203.353735,113,0.078472,76,E5,96,1
215280,203.353735,113,0.078472,45,A2,96,2
215400,203.437068,113,0.078472,72,C5,96,1
215400,203.437068,113,0.078472,48,C3,96,2
215520,203.520402,113,0.078472,69,A4,96,1
215520,203.520402,113,0.078472,53,F3,96,2
215640,203.603735,113,0.078472,72,C5,96,1
215640,203.603735,113,0.078472,48,C3,96,2
215760,203.687068,113,0.078472,76,E5,96,1
215760,203.687068,113,0.078472,45,A2,96,2
215880,203.770401,113,0.078472,77,F5,96,1
215880,203.770401,113,0.078472,41,F2,96,2
216000,203.853735,113,0.078472,76,E5,96,1
216000,203.853735,113,0.078472,45,A2,96,2
216120,203.937068,113,0.078472,72,C5,96,1
216120,203.937068,113,0.078472,48,C3,96,2
216240,204.020401,113,0.078472,69,A4,96,1
216240,204.020401,113,0.078472,53,F3,96,2
216360,204.103734,113,0.078472,72,C5,96,1
216360,204.103734,113,0.078472,48,C3,96,2
216480,204.187068,113,0.078472,76,E5,96,1
216480,204.187068,113,0.078472,45,A2,96,2
216600,204.270401,113,0.078472,77,F5,96,1
216600,204.270401,113,0.078472,41,F2,96,2
216720,204.353734,113,0.078472,76,E5,96,1
216720,204.353734,113,0.078472,45,A2,96,2
216840,204.437067,113,0.078472,77,F5,96,1
216840,204.437067,113,0.078472,41,F2,96,2
216960,204.520401,113,0.078472,76,E5,96,1
216960,204.520401,113,0.078472,45,A2,96,2
217080,204.603734,113,0.078472,72,C5,96,1
217080,204.603734,113,0.078472,48,C3,96,2
217200,204.687067,113,0.078472,69,A4,96,1
217200,204.687067,113,0.078472,53,F3,96,2
217320,204.7704,113,0.078472,72,C5,96,1
217320,204.7704,113,0.078472,48,C3,96,2
217440,204.853734,113,0.078472,76,E5,96,1
217440,204.853734,113,0.078472,45,A2,96,2
217560,204.937067,113,0.078472,77,F5,96,1
217560,204.937067,113,0.078472,41,F2,96,2
217680,205.0204,113,0.078472,76,E5,96,1
217680,205.0204,113,0.078472,45,A2,96,2
217800,205.103733,113,0.078472,72,C5,96,1
217800,205.103733,113,0.078472,48,C3,96,2
217920,205.187067,113,0.078472,67,G4,96,1
217920,205.187067,113,0.078472,55,G3,96,2
218040,205.2704,113,0.078472,70,A4#,96,1
218040,205.2704,113,0.078472,50,D3,96,2
218160,205.353733,113,0.078472,74,D5,96,1
218160,205.353733,113,0.078472,46,A2#,96,2
218280,205.437066,113,0.078472,77,F5,96,1
218280,205.437066,113,0.078472,43,G2,96,2
218400,205.5204,113,0.078472,74,D5,96,1
218400,205.5204,113,0.078472,46,A2#,96,2
218520,205.603733,113,0.078472,70,A4#,96,1
218520,205.603733,113,0.078472,50,D3,96,2
218640,205.687066,113,0.078472,67,G4,96,1
218640,205.687066,113,0.078472,55,G3,96,2
218760,205.770399,113,0.078472,70,A4#,96,1
218760,205.770399,113,0.078472,50,D3,96,2
218880,205.853733,113,0.078472,74,D5,96,1
218880,205.853733,113,0.078472,46,A2#,96,2
219000,205.937066,113,0.078472,77,F5,96,1
219000,205.937066,113,0.078472,43,G2,96,2
219120,206.020399,113,0.078472,74,D5,96,1
219120,206.020399,113,0.078472,46,A2#,96,2
219240,206.103732,113,0.078472,70,A4#,96,1
219240,206.103732,113,0.078472,50,D3,96,2
219360,206.187066,113,0.078472,67,G4,96,1
219360,206.187066,113,0.078472,55,G3,96,2
219480,206.270399,113,0.078472,70,A4#,96,1
219480,206.270399,113,0.078472,50,D3,96,2
219600,206.353732,113,0.078472,74,D5,96,1
219600,206.353732,113,0.078472,46,A2#,96,2
219720,206.437065,113,0.078472,77,F5,96,1
219720,206.437065,113,0.078472,43,G2,96,2
219840,206.520399,113,0.078472,74,D5,96,1
219840,206.520399,113,0.078472,46,A2#,96,2
219960,206.603732,113,0.078472,70,A4#,96,1
219960,206.603732,113,0.078472,50,D3,96,2
220080,206.687065,113,0.078472,67,G4,96,1
220080,206.687065,113,0.078472,55,G3,96,2
220200,206.770398,113,0.078472,70,A4#,96,1
220200,206.770398,113,0.078472,50,D3,96,2
220320,206.853732,113,0.078472,74,D5,96,1
220320,206.853732,113,0.078472,46,A2#,96,2
220440,206.937065,113,0.078472,77,F5,96,1
220440,206.937065,113,0.078472,43,G2,96,2
220560,207.020398,113,0.078472,74,D5,96,1
220560,207.020398,113,0.078472,46,A2#,96,2
220680,207.103731,113,0.078472,70,A4#,96,1
220680,207.103731,113,0.078472,50,D3,96,2
220800,207.187065,113,0.078472,67,G4,96,1
220800,207.187065,113,0.078472,55,G3,96,2
220920,207.270398,113,0.078472,70,A4#,96,1
220920,207.270398,113,0.078472,50,D3,96,2
221040,207.353731,113,0.078472,74,D5,96,1
221040,207.353731,113,0.078472,46,A2#,96,2
221160,207.437064,113,0.078472,77,F5,96,1
221160,207.437064,113,0.078472,43,G2,96,2
221280,207.520398,113,0.078472,74,D5,96,1
221280,207.520398,113,0.078472,46,A2#,96,2
221400,207.603731,113,0.078472,70,A4#,96,1
221400,207.603731,113,0.078472,50,D3,96,2
221520,207.687064,113,0.078472,67,G4,96,1
221520,207.687064,113,0.078472,55,G3,96,2
221640,207.770397,113,0.078472,70,A4#,96,1
221640,207.770397,113,0.078472,50,D3,96,2
221760,207.853731,113,0.078472,74,D5,96,1
221760,207.853731,113,0.078472,46,A2#,96,2
221880,207.937064,113,0.078472,77,F5,96,1
221880,207.937064,113,0.078472,43,G2,96,2
222000,208.020397,113,0.078472,74,D5,96,1
222000,208.020397,113,0.078472,46,A2#,96,2
222120,208.10373,113,0.078472,70,A4#,96,1
222120,208.10373,113,0.078472,50,D3,96,2
222240,208.187064,113,0.078472,67,G4,96,1
222240,208.187064,113,0.078472,55,G3,96,2
222360,208.270397,113,0.078472,70,A4#,96,1
222360,208.270397,113,0.078472,50,D3,96,2
222480,208.35373,113,0.078472,74,D5,96,1
222480,208.35373,113,0.078472,46,A2#,96,2
222600,208.437063,113,0.078472,77,F5,96,1
222600,208.437063,113,0.078472,43,G2,96,2
222720,208.520397,113,0.078472,74,D5,96,1
222720,208.520397,113,0.078472,46,A2#,96,2
222840,208.60373,113,0.078472,70,A4#,96,1
222840,208.60373,113,0.078472,50,D3,96,2
222960,208.687063,113,0.078472,67,G4,96,1
222960,208.687063,113,0.078472,55,G3,96,2
223080,208.770396,113,0.078472,70,A4#,96,1
223080,208.770396,113,0.078472,50,D3,96,2
223200,208.85373,113,0.078472,74,D5,96,1
223200,208.85373,113,0.078472,46,A2#,96,2
223320,208.937063,113,0.078472,77,F5,96,1
223320,208.937063,113,0.078472,43,G2,96,2
223440,209.020396,113,0.078472,74,D5,96,1
223440,209.020396,113,0.078472,46,A2#,96,2
223560,209.103729,113,0.078472,70,A4#,96,1
223560,209.103729,113,0.078472,50,D3,96,2
223680,209.187063,113,0.078472,69,A4,96,1
223680,209.187063,113,0.078472,53,F3,96,2
223800,209.270396,113,0.078472,72,C5,96,1
223800,209.270396,113,0.078472,48,C3,96,2
223920,209.353729,113,0.078472,76,E5,96,1
223920,209.353729,113,0.078472,45,A2,96,2
224040,209.437062,113,0.078472,77,F5,96,1
224040,209.437062,113,0.078472,41,F2,96,2
224160,209.520396,113,0.078472,76,E5,96,1
224160,209.520396,113,0.078472,45,A2,96,2
224280,209.603729,113,0.078472,72,C5,96,1
224280,209.603729,113,0.078472,48,C3,96,2
224400,209.687062,113,0.078472,69,A4,96,1
224400,209.687062,113,0.078472,53,F3,96,2
224520,209.770395,113,0.078472,72,C5,96,1
224520,209.770395,113,0.078472,48,C3,96,2
224640,209.853729,113,0.078472,76,E5,96,1
224640,209.853729,113,0.078472,45,A2,96,2
224760,209.937062,113,0.078472,77,F5,96,1
224760,209.937062,113,0.078472,41,F2,96,2
224880,210.020395,113,0.078472,76,E5,96,1
224880,210.020395,113,0.078472,45,A2,96,2
225000,210.103728,113,0.078472,72,C5,96,1
225000,210.103728,113,0.078472,48,C3,96,2
225120,210.187062,113,0.078472,69,A4,96,1
225120,210.187062,113,0.078472,53,F3,96,2
225240,210.270395,113,0.078472,72,C5,96,1
225240,210.270395,113,0.078472,48,C3,96,2
225360,210.353728,113,0.078472,76,E5,96,1
225360,210.353728,113,0.078472,45,A2,96,2
225480,210.437061,113,0.078472,77,F5,96,1
225480,210.437061,113,0.078472,41,F2,96,2
225600,210.520395,113,0.078472,76,E5,96,1
225600,210.520395,113,0.078472,45,A2,96,2
225720,210.603728,113,0.078472,72,C5,96,1
225720,210.603728,113,0.078472,48,C3,96,2
225840,210.687061,113,0.078472,69,A4,96,1
225840,210.687061,113,0.078472,53,F3,96,2
225960,210.770394,113,0.078472,72,C5,96,1
225960,210.770394,113,0.078472,48,C3,96,2
226080,210.853728,113,0.078472,76,E5,96,1
226080,210.853728,113,0.078472,45,A2,96,2
226200,210.937061,113,0.078472,77,F5,96,1
226200,210.937061,113,0.078472,41,F2,96,2
226320,211.020394,113,0.078472,76,E5,96,1
226320,211.020394,113,0.078472,45,A2,96,2
226440,211.103727,113,0.078472,72,C5,96,1
226440,211.103727,113,0.078472,48,C3,96,2
226560,211.187061,113,0.078472,69,A4,96,1
226560,211.187061,113,0.078472,53,F3,96,2
226680,211.270394,113,0.078472,72,C5,96,1
226680,211.270394,113,0.078472,48,C3,96,2
226800,211.353727,113,0.078472,76,E5,96,1
226800,211.353727,113,0.078472,45,A2,96,2
226920,211.43706,113,0.078472,77,F5,96,1
226920,211.43706,113,0.078472,41,F2,96,2
227040,211.520394,113,0.078472,76,E5,96,1
227040,211.520394,113,0.078472,45,A2,96,2
227160,211.603727,113,0.078472,77,F5,96,1
227160,211.603727,113,0.078472,41,F2,96,2
227280,211.68706,113,0.078472,76,E5,96,1
227280,211.68706,113,0.078472,45,A2,96,2
227400,211.770393,113,0.078472,72,C5,96,1
227400,211.770393,113,0.078472,48,C3,96,2
227520,211.853727,113,0.078472,69,A4,96,1
227520,211.853727,113,0.078472,53,F3,96,2
227640,211.93706,113,0.078472,72,C5,96,1
227640,211.93706,113,0.078472,48,C3,96,2
227760,212.020393,113,0.078472,76,E5,96,1
227760,212.020393,113,0.078472,45,A2,96,2
227880,212.103726,113,0.078472,77,F5,96,1
227880,212.103726,113,0.078472,41,F2,96,2
228000,212.18706,113,0.078472,76,E5,96,1
228000,212.18706,113,0.078472,45,A2,96,2
228120,212.270393,113,0.078472,72,C5,96,1
228120,212.270393,113,0.078472,48,C3,96,2
228240,212.353726,113,0.078472,69,A4,96,1
228240,212.353726,113,0.078472,53,F3,96,2
228360,212.437059,113,0.078472,72,C5,96,1
228360,212.437059,113,0.078472,48,C3,96,2
228480,212.520393,113,0.078472,76,E5,96,1
228480,212.520393,113,0.078472,45,A2,96,2
228600,212.603726,113,0.078472,77,F5,96,1
228600,212.603726,113,0.078472,41,F2,96,2
228720,212.687059,113,0.078472,76,E5,96,1
228720,212.687059,113,0.078472,45,A2,96,2
228840,212.770392,113,0.078472,77,F5,96,1
228840,212.770392,113,0.078472,41,F2,96,2
228960,212.853726,113,0.078472,76,E5,96,1
228960,212.853726,113,0.078472,45,A2,96,2
229080,212.937059,113,0.078472,72,C5,96,1
229080,212.937059,113,0.078472,48,C3,96,2
229200,213.020392,113,0.078472,69,A4,96,1
229200,213.020392,113,0.078472,53,F3,96,2
229320,213.103725,113,0.078472,72,C5,96,1
229320,213.103725,113,0.078472,48,C3,96,2
229440,213.187059,113,0.078472,76,E5,96,1
229440,213.187059,113,0.078472,45,A2,96,2
229560,213.270392,113,0.078472,77,F5,96,1
229560,213.270392,113,0.078472,41,F2,96,2
229680,213.353725,113,0.078472,76,E5,96,1
229680,213.353725,113,0.078472,45,A2,96,2
229800,213.437058,113,0.078472,72,C5,96,1
229800,213.437058,113,0.078472,48,C3,96,2
229920,213.520392,113,0.078472,67,G4,96,1
229920,213.520392,113,0.078472,55,G3,96,2
230040,213.603725,113,0.078472,70,A4#,96,1
230040,213.603725,113,0.078472,50,D3,96,2
230160,213.687058,113,0.078472,74,D5,96,1
230160,213.687058,113,0.078472,46,A2#,96,2
230280,213.770391,113,0.078472,77,F5,96,1
230280,213.770391,113,0.078472,43,G2,96,2
230400,213.853725,113,0.078472,74,D5,96,1
230400,213.853725,113,0.078472,46,A2#,96,2
230520,213.937058,113,0.078472,70,A4#,96,1
230520,213.937058,113,0.078472,50,D3,96,2
230640,214.020391,113,0.078472,67,G4,96,1
230640,214.020391,113,0.078472,55,G3,96,2
230760,214.103724,113,0.078472,70,A4#,96,1
230760,214.103724,113,0.078472,50,D3,96,2
230880,214.187058,113,0.078472,74,D5,96,1
230880,214.187058,113,0.078472,46,A2#,96,2
231000,214.270391,113,0.078472,77,F5,96,1
231000,214.270391,113,0.078472,43,G2,96,2
231120,214.353724,113,0.078472,74,D5,96,1
231120,214.353724,113,0.078472,46,A2#,96,2
231240,214.437057,113,0.078472,70,A4#,96,1
231240,214.437057,113,0.078472,50,D3,96,2
231360,214.520391,113,0.078472,67,G4,96,1
231360,214.520391,113,0.078472,55,G3,96,2
231480,214.603724,113,0.078472,70,A4#,96,1
231480,214.603724,113,0.078472,50,D3,96,2
231600,214.687057,113,0.078472,74,D5,96,1
231600,214.687057,113,0.078472,46,A2#,96,2
231720,214.77039,113,0.078472,77,F5,96,1
231720,214.77039,113,0.078472,43,G2,96,2
231840,214.853724,113,0.078472,74,D5,96,1
231840,214.853724,113,0.078472,46,A2#,96,2
231960,214.937057,113,0.078472,70,A4#,96,1
231960,214.937057,113,0.078472,50,D3,96,2
232080,215.02039,113,0.078472,67,G4,96,1
232080,215.02039,113,0.078472,55,G3,96,2
232200,215.103723,113,0.078472,70,A4#,96,1
232200,215.103723,113,0.078472,50,D3,96,2
232320,215.187057,113,0.078472,74,D5,96,1
232320,215.187057,113,0.078472,46,A2#,96,2
232440,215.27039,113,0.078472,77,F5,96,1
232440,215.27039,113,0.078472,43,G2,96,2
232560,215.353723,113,0.078472,74,D5,96,1
232560,215.353723,113,0.078472,46,A2#,96,2
232680,215.437056,113,0.078472,70,A4#,96,1
232680,215.437056,113,0.078472,50,D3,96,2
232800,215.52039,113,0.078472,67,G4,96,1
232800,215.52039,113,0.078472,55,G3,96,2
232920,215.603723,113,0.078472,70,A4#,96,1
232920,215.603723,113,0.078472,49,C3#,96,2
233040,215.687056,113,0.078472,73,C5#,96,1
233040,215.687056,113,0.078472,46,A2#,96,2
233160,215.770389,113,0.078472,77,F5,96,1
233160,215.770389,113,0.078472,43,G2,96,2
233280,215.853723,113,0.078472,73,C5#,96,1
233280,215.853723,113,0.078472,46,A2#,96,2
233400,215.937056,113,0.078472,70,A4#,96,1
233400,215.937056,113,0.078472,49,C3#,96,2
233520,216.020389,113,0.078472,67,G4,96,1
233520,216.020389,113,0.078472,55,G3,96,2
233640,216.103722,113,0.078472,70,A4#,96,1
233640,216.103722,113,0.078472,49,C3#,96,2
233760,216.187056,113,0.078472,73,C5#,96,1
233760,216.187056,113,0.078472,46,A2#,96,2
233880,216.270389,113,0.078472,77,F5,96,1
233880,216.270389,113,0.078472,43,G2,96,2
234000,216.353722,113,0.078472,73,C5#,96,1
234000,216.353722,113,0.078472,46,A2#,96,2
234120,216.437055,113,0.078472,70,A4#,96,1
234120,216.437055,113,0.078472,49,C3#,96,2
234240,216.520389,113,0.078472,67,G4,96,1
234240,216.520389,113,0.078472,55,G3,96,2
234360,216.603722,113,0.078472,70,A4#,96,1
234360,216.603722,113,0.078472,49,C3#,96,2
234480,216.687055,113,0.078472,73,C5#,96,1
234480,216.687055,113,0.078472,46,A2#,96,2
234600,216.770388,113,0.078472,77,F5,96,1
234600,216.770388,113,0.078472,43,G2,96,2
234720,216.853722,113,0.078472,73,C5#,96,1
234720,216.853722,113,0.078472,46,A2#,96,2
234840,216.937055,113,0.078472,70,A4#,96,1
234840,216.937055,113,0.078472,49,C3#,96,2
234960,217.020388,113,0.078472,67,G4,96,1
234960,217.020388,113,0.078472,55,G3,96,2
235080,217.103721,113,0.078472,70,A4#,96,1
235080,217.103721,113,0.078472,49,C3#,96,2
235200,217.187055,113,0.078472,73,C5#,96,1
235200,217.187055,113,0.078472,46,A2#,96,2
235320,217.270388,113,0.078472,77,F5,96,1
235320,217.270388,113,0.078472,43,G2,96,2
235440,217.353721,113,0.078472,73,C5#,96,1
235440,217.353721,113,0.078472,46,A2#,96,2
235560,217.437054,113,0.078472,70,A4#,96,1
235560,217.437054,113,0.078472,49,C3#,96,2
235680,217.520388,113,0.078472,69,A4,96,1
235680,217.520388,113,0.078472,53,F3,96,2
235800,217.603721,113,0.078472,72,C5,96,1
235800,217.603721,113,0.078472,48,C3,96,2
235920,217.687054,113,0.078472,76,E5,96,1
235920,217.687054,113,0.078472,45,A2,96,2
236040,217.770387,113,0.078472,77,F5,96,1
236040,217.770387,113,0.078472,41,F2,96,2
236160,217.853721,113,0.078472,76,E5,96,1
236160,217.853721,113,0.078472,45,A2,96,2
236280,217.937054,113,0.078472,72,C5,96,1
236280,217.937054,113,0.078472,48,C3,96,2
236400,218.020387,113,0.078472,69,A4,96,1
236400,218.020387,113,0.078472,53,F3,96,2
236520,218.10372,113,0.078472,72,C5,96,1
236520,218.10372,113,0.078472,48,C3,96,2
236640,218.187054,113,0.078472,76,E5,96,1
236640,218.187054,113,0.078472,45,A2,96,2
236760,218.270387,113,0.078472,77,F5,96,1
236760,218.270387,113,0.078472,41,F2,96,2
236880,218.35372,113,0.078472,76,E5,96,1
236880,218.35372,113,0.078472,45,A2,96,2
237000,218.437053,113,0.078472,72,C5,96,1
237000,218.437053,113,0.078472,48,C3,96,2
237120,218.520387,113,0.078472,69,A4,96,1
237120,218.520387,113,0.078472,53,F3,96,2
237240,218.60372,113,0.078472,72,C5,96,1
237240,218.60372,113,0.078472,48,C3,96,2
237360,218.687053,113,0.078472,76,E5,96,1
237360,218.687053,113,0.078472,45,A2,96,2
237480,218.770386,113,0.078472,77,F5,96,1
237480,218.770386,113,0.078472,41,F2,96,2
237600,218.85372,113,0.078472,76,E5,96,1
237600,218.85372,113,0.078472,45,A2,96,2
237720,218.937053,113,0.078472,72,C5,96,1
237720,218.937053,113,0.078472,48,C3,96,2
237840,219.020386,113,0.078472,69,A4,96,1
237840,219.020386,113,0.078472,53,F3,96,2
237960,219.103719,113,0.078472,72,C5,96,1
237960,219.103719,113,0.078472,48,C3,96,2
238080,219.187053,113,0.078472,76,E5,96,1
238080,219.187053,113,0.078472,45,A2,96,2
238200,219.270386,113,0.078472,77,F5,96,1
238200,219.270386,113,0.078472,41,F2,96,2
238320,219.353719,113,0.078472,76,E5,96,1
238320,219.353719,113,0.078472,45,A2,96,2
238440,219.437052,113,0.078472,72,C5,96,1
238440,219.437052,113,0.078472,48,C3,96,2
238560,219.520386,113,0.078472,69,A4,96,1
238560,219.520386,113,0.078472,53,F3,96,2
238680,219.603719,113,0.078472,72,C5,96,1
238680,219.603719,113,0.078472,48,C3,96,2
238800,219.687052,113,0.078472,76,E5,96,1
238800,219.687052,113,0.078472,45,A2,96,2
238920,219.770385,113,0.078472,77,F5,96,1
238920,219.770385,113,0.078472,41,F2,96,2
239040,219.853719,113,0.078472,76,E5,96,1
239040,219.853719,113,0.078472,45,A2,96,2
239160,219.937052,113,0.078472,77,F5,96,1
239160,219.937052,113,0.078472,41,F2,96,2
239280,220.020385,113,0.078472,76,E5,96,1
239280,220.020385,113,0.078472,45,A2,96,2
239400,220.103718,113,0.078472,72,C5,96,1
239400,220.103718,113,0.078472,48,C3,96,2
239520,220.187052,113,0.078472,69,A4,96,1
239520,220.187052,113,0.078472,53,F3,96,2
239640,220.270385,113,0.078472,72,C5,96,1
239640,220.270385,113,0.078472,48,C3,96,2
239760,220.353718,113,0.078472,76,E5,96,1
239760,220.353718,113,0.078472,45,A2,96,2
239880,220.437051,113,0.078472,77,F5,96,1
239880,220.437051,113,0.078472,41,F2,96,2
240000,220.520385,113,0.078472,76,E5,96,1
240000,220.520385,113,0.078472,45,A2,96,2
240120,220.603718,113,0.078472,72,C5,96,1
240120,220.603718,113,0.078472,48,C3,96,2
240240,220.687051,113,0.078472,69,A4,96,1
240240,220.687051,113,0.078472,53,F3,96,2
240360,220.770384,113,0.078472,72,C5,96,1
240360,220.770384,113,0.078472,48,C3,96,2
240480,220.853718,113,0.078472,76,E5,96,1
240480,220.853718,113,0.078472,45,A2,96,2
240600,220.937051,113,0.078472,77,F5,96,1
240600,220.937051,113,0.078472,41,F2,96,2
240720,221.020384,113,0.078472,76,E5,96,1
240720,221.020384,113,0.078472,45,A2,96,2
240840,221.103717,113,0.078472,77,F5,96,1
240840,221.103717,113,0.078472,41,F2,96,2
240960,221.187051,113,0.078472,76,E5,96,1
240960,221.187051,113,0.078472,45,A2,96,2
241080,221.270384,113,0.078472,72,C5,96,1
241080,221.270384,113,0.078472,48,C3,96,2
241200,221.353717,113,0.078472,69,A4,96,1
241200,221.353717,113,0.078472,53,F3,96,2
241320,221.43705,113,0.078472,72,C5,96,1
241320,221.43705,113,0.078472,48,C3,96,2
241440,221.520384,113,0.078472,76,E5,96,1
241440,221.520384,113,0.078472,45,A2,96,2
241560,221.603717,113,0.078472,77,F5,96,1
241560,221.603717,113,0.078472,41,F2,96,2
241680,221.68705,113,0.078472,76,E5,96,1
241680,221.68705,113,0.078472,45,A2,96,2
241800,221.770383,113,2.825,72,C5,96,1
241800,221.770383,113,2.825,48,C3,96,2
241920,224.770383,239,0.248958,57,A3,49,2
241920,224.770383,3839,3.998958,53,F3,49,2
242160,225.020383,239,0.248958,60,C4,49,2
242400,225.270383,239,0.248958,57,A3,49,2
242640,225.520383,239,0.248958,60,C4,49,2
242880,225.770383,239,0.248958,57,A3,49,2
243120,226.020383,239,0.248958,60,C4,49,2
243360,226.270383,239,0.248958,57,A3,49,2
243600,226.520383,227,0.236458,60,C4,49,2
243840,226.770383,239,0.248958,57,A3,49,2
244080,227.020383,239,0.248958,60,C4,49,2
244320,227.270383,239,0.248958,57,A3,49,2
244560,227.520383,239,0.248958,60,C4,49,2
244800,227.770383,239,0.248958,57,A3,49,2
245040,228.020383,239,0.248958,60,C4,49,2
245280,228.270383,239,0.248958,57,A3,49,2
245520,228.520383,227,0.236458,60,C4,49,2
245760,228.770383,3647,3.798958,36,C2,49,1
245760,228.770383,239,0.248958,57,A3,49,2
245760,228.770383,3839,3.998958,52,E3,49,2
246000,229.020383,239,0.248958,60,C4,49,2
246240,229.270383,239,0.248958,57,A3,49,2
246480,229.520383,239,0.248958,60,C4,49,2
246720,229.770383,239,0.248958,57,A3,49,2
246960,230.020383,239,0.248958,60,C4,49,2
247200,230.270383,239,0.248958,57,A3,49,2
247440,230.520383,227,0.236458,60,C4,49,2
247680,230.770383,239,0.248958,57,A3,49,2
247920,231.020383,239,0.248958,60,C4,49,2
248160,231.270383,239,0.248958,57,A3,49,2
248400,231.520383,239,0.248958,60,C4,49,2
248640,231.770383,239,0.248958,57,A3,49,2
248880,232.020383,239,0.248958,60,C4,49,2
249120,232.270383,239,0.248958,57,A3,49,2
249360,232.520383,227,0.236458,60,C4,49,2
249600,232.770383,79,0.082291,69,A4,64,1
249600,232.770383,239,0.248958,57,A3,64,2
249600,232.770383,3839,3.998958,53,F3,64,2
249680,232.853716,79,0.082292,72,C5,64,1
249760,232.937049,79,0.082292,76,E5,64,1
249840,233.020383,79,0.082291,77,F5,64,1
249840,233.020383,239,0.248958,60,C4,64,2
249920,233.103716,79,0.082292,76,E5,64,1
250000,233.187049,79,0.082292,72,C5,64,1
250080,233.270383,79,0.082291,69,A4,64,1
250080,233.270383,239,0.248958,57,A3,64,2
250160,233.353716,79,0.082292,72,C5,64,1
250240,233.437049,79,0.082292,76,E5,64,1
250320,233.520383,79,0.082291,77,F5,64,1
250320,233.520383,239,0.248958,60,C4,64,2
250400,233.603716,79,0.082292,76,E5,64,1
250480,233.687049,79,0.082292,72,C5,64,1
250560,233.770383,79,0.082291,69,A4,64,1
250560,233.770383,239,0.248958,57,A3,64,2
250640,233.853716,79,0.082292,72,C5,64,1
250720,233.937049,79,0.082292,76,E5,64,1
250800,234.020383,79,0.082291,77,F5,64,1
250800,234.020383,239,0.248958,60,C4,64,2
250880,234.103716,79,0.082292,76,E5,64,1
250960,234.187049,79,0.082292,72,C5,64,1
251040,234.270383,79,0.082291,69,A4,64,1
251040,234.270383,239,0.248958,57,A3,64,2
251120,234.353716,79,0.082292,72,C5,64,1
251200,234.437049,79,0.082292,76,E5,64,1
251280,234.520383,79,0.082291,77,F5,64,1
251280,234.520383,227,0.236458,60,C4,64,2
251360,234.603716,79,0.082292,76,E5,64,1
251440,234.687049,75,0.078125,72,C5,64,1
251520,234.770383,79,0.082291,69,A4,64,1
251520,234.770383,239,0.248958,57,A3,64,2
251600,234.853716,79,0.082292,72,C5,64,1
251680,234.937049,79,0.082292,76,E5,64,1
251760,235.020383,79,0.082291,77,F5,64,1
251760,235.020383,239,0.248958,60,C4,64,2
251840,235.103716,79,0.082292,76,E5,64,1
251920,235.187049,79,0.082292,72,C5,64,1
252000,235.270383,79,0.082291,69,A4,64,1
252000,235.270383,239,0.248958,57,A3,64,2
252080,235.353716,79,0.082292,72,C5,64,1
252160,235.437049,79,0.082292,76,E5,64,1
252240,235.520383,79,0.082291,77,F5,64,1
252240,235.520383,239,0.248958,60,C4,64,2
252320,235.603716,79,0.082292,76,E5,64,1
252400,235.687049,79,0.082292,72,C5,64,1
252480,235.770383,79,0.082291,69,A4,64,1
252480,235.770383,239,0.248958,57,A3,64,2
252560,235.853716,79,0.082292,72,C5,64,1
252640,235.937049,79,0.082292,76,E5,64,1
252720,236.020383,79,0.082291,77,F5,64,1
252720,236.020383,239,0.248958,60,C4,64,2
252800,236.103716,79,0.082292,76,E5,64,1
252880,236.187049,79,0.082292,72,C5,64,1
252960,236.270383,79,0.082291,69,A4,64,1
252960,236.270383,239,0.248958,57,A3,64,2
253040,236.353716,79,0.082292,72,C5,64,1
253120,236.437049,79,0.082292,76,E5,64,1
253200,236.520383,79,0.082291,77,F5,64,1
253200,236.520383,227,0.236458,60,C4,64,2
253280,236.603716,79,0.082292,76,E5,64,1
253360,236.687049,75,0.078125,72,C5,64,1
253440,236.770383,79,0.082291,69,A4,64,1
253440,236.770383,239,0.248958,57,A3,64,2
253440,236.770383,3839,3.998958,52,E3,64,2
253520,236.853716,79,0.082292,72,C5,64,1
253600,236.937049,79,0.082292,76,E5,64,1
253680,237.020383,79,0.082291,81,A5,64,1
253680,237.020383,239,0.248958,60,C4,64,2
253760,237.103716,79,0.082292,76,E5,64,1
253840,237.187049,79,0.082292,72,C5,64,1
253920,237.270383,79,0.082291,69,A4,64,1
253920,237.270383,239,0.248958,57,A3,64,2
254000,237.353716,79,0.082292,72,C5,64,1
254080,237.437049,79,0.082292,76,E5,64,1
254160,237.520383,79,0.082291,81,A5,64,1
254160,237.520383,239,0.248958,60,C4,64,2
254240,237.603716,79,0.082292,76,E5,64,1
254320,237.687049,79,0.082292,72,C5,64,1
254400,237.770383,79,0.082291,69,A4,64,1
254400,237.770383,239,0.248958,57,A3,64,2
254480,237.853716,79,0.082292,72,C5,64,1
254560,237.937049,79,0.082292,76,E5,64,1
254640,238.020383,79,0.082291,81,A5,64,1
254640,238.020383,239,0.248958,60,C4,64,2
254720,238.103716,79,0.082292,76,E5,64,1
254800,238.187049,79,0.082292,72,C5,64,1
254880,238.270383,79,0.082291,69,A4,64,1
254880,238.270383,239,0.248958,57,A3,64,2
254960,238.353716,79,0.082292,72,C5,64,1
255040,238.437049,79,0.082292,76,E5,64,1
255120,238.520383,79,0.082291,81,A5,64,1
255120,238.520383,227,0.236458,60,C4,64,2
255200,238.603716,79,0.082292,76,E5,64,1
255280,238.687049,75,0.078125,72,C5,64,1
255360,238.770383,79,0.082291,69,A4,64,1
255360,238.770383,239,0.248958,57,A3,64,2
255440,238.853716,79,0.082292,72,C5,64,1
255520,238.937049,79,0.082292,76,E5,64,1
255600,239.020383,79,0.082291,81,A5,64,1
255600,239.020383,239,0.248958,60,C4,64,2
255680,239.103716,79,0.082292,76,E5,64,1
255760,239.187049,79,0.082292,72,C5,64,1
255840,239.270383,79,0.082291,69,A4,64,1
255840,239.270383,239,0.248958,57,A3,64,2
255920,239.353716,79,0.082292,72,C5,64,1
256000,239.437049,79,0.082292,76,E5,64,1
256080,239.520383,79,0.082291,81,A5,64,1
256080,239.520383,239,0.248958,60,C4,64,2
256160,239.603716,79,0.082292,76,E5,64,1
256240,239.687049,79,0.082292,72,C5,64,1
256320,239.770383,79,0.082291,69,A4,64,1
256320,239.770383,239,0.248958,57,A3,64,2
256400,239.853716,79,0.082292,72,C5,64,1
256480,239.937049,79,0.082292,76,E5,64,1
256560,240.020383,79,0.082291,81,A5,64,1
256560,240.020383,239,0.248958,60,C4,64,2
256640,240.103716,79,0.082292,76,E5,64,1
256720,240.187049,79,0.082292,72,C5,64,1
256800,240.270383,79,0.082291,69,A4,64,1
256800,240.270383,239,0.248958,57,A3,64,2
256880,240.353716,79,0.082292,72,C5,64,1
256960,240.437049,79,0.082292,76,E5,64,1
257040,240.520383,79,0.082291,81,A5,64,1
257040,240.520383,227,0.236458,60,C4,64,2
257120,240.603716,79,0.082292,76,E5,64,1
257200,240.687049,75,0.078125,72,C5,64,1
257280,240.770383,79,0.082291,69,A4,64,1
257280,240.770383,239,0.248958,57,A3,64,2
257280,240.770383,3839,3.998958,53,F3,64,2
257360,240.853716,79,0.082292,72,C5,64,1
257440,240.937049,79,0.082292,76,E5,64,1
257520,241.020383,79,0.082291,77,F5,64,1
257520,241.020383,239,0.248958,60,C4,64,2
257600,241.103716,79,0.082292,76,E5,64,1
257680,241.187049,79,0.082292,72,C5,64,1
257760,241.270383,79,0.082291,69,A4,64,1
257760,241.270383,239,0.248958,57,A3,64,2
257840,241.353716,79,0.082292,72,C5,64,1
257920,241.437049,79,0.082292,76,E5,64,1
258000,241.520383,79,0.082291,77,F5,64,1
258000,241.520383,239,0.248958,60,C4,64,2
258080,241.603716,79,0.082292,76,E5,64,1
258160,241.687049,79,0.082292,72,C5,64,1
258240,241.770383,79,0.082291,69,A4,64,1
258240,241.770383,239,0.248958,57,A3,64,2
258320,241.853716,79,0.082292,72,C5,64,1
258400,241.937049,79,0.082292,76,E5,64,1
258480,242.020383,79,0.082291,77,F5,64,1
258480,242.020383,239,0.248958,60,C4,64,2
258560,242.103716,79,0.082292,76,E5,64,1
258640,242.187049,79,0.082292,72,C5,64,1
258720,242.270383,79,0.082291,69,A4,64,1
258720,242.270383,239,0.248958,57,A3,64,2
258800,242.353716,79,0.082292,72,C5,64,1
258880,242.437049,79,0.082292,76,E5,64,1
258960,242.520383,79,0.082291,77,F5,64,1
258960,242.520383,227,0.236458,60,C4,64,2
259040,242.603716,79,0.082292,76,E5,64,1
259120,242.687049,75,0.078125,72,C5,64,1
259200,242.770383,79,0.082291,69,A4,64,1
259200,242.770383,239,0.248958,57,A3,64,2
259280,242.853716,79,0.082292,72,C5,64,1
259360,242.937049,79,0.082292,76,E5,64,1
259440,243.020383,79,0.082291,77,F5,64,1
259440,243.020383,239,0.248958,60,C4,64,2
259520,243.103716,79,0.082292,76,E5,64,1
259600,243.187049,79,0.082292,72,C5,64,1
259680,243.270383,79,0.082291,69,A4,64,1
259680,243.270383,239,0.248958,57,A3,64,2
259760,243.353716,79,0.082292,72,C5,64,1
259840,243.437049,79,0.082292,76,E5,64,1
259920,243.520383,79,0.082291,77,F5,64,1
259920,243.520383,239,0.248958,60,C4,64,2
260000,243.603716,79,0.082292,76,E5,64,1
260080,243.687049,79,0.082292,72,C5,64,1
260160,243.770383,79,0.082291,69,A4,64,1
260160,243.770383,239,0.248958,57,A3,64,2
260240,243.853716,79,0.082292,72,C5,64,1
260320,243.937049,79,0.082292,76,E5,64,1
260400,244.020383,79,0.082291,77,F5,64,1
260400,244.020383,239,0.248958,60,C4,64,2
260480,244.103716,79,0.082292,76,E5,64,1
260560,244.187049,79,0.082292,72,C5,64,1
260640,244.270383,79,0.082291,69,A4,64,1
260640,244.270383,239,0.248958,57,A3,64,2
260720,244.353716,79,0.082292,72,C5,64,1
260800,244.437049,79,0.082292,76,E5,64,1
260880,244.520383,79,0.082291,77,F5,64,1
260880,244.520383,227,0.236458,60,C4,64,2
260960,244.603716,79,0.082292,76,E5,64,1
261040,244.687049,75,0.078125,72,C5,64,1
261120,244.770383,79,0.082291,69,A4,64,1
261120,244.770383,239,0.248958,57,A3,64,2
261120,244.770383,3839,3.998958,52,E3,64,2
261200,244.853716,79,0.082292,72,C5,64,1
261280,244.937049,79,0.082292,76,E5,64,1
261360,245.020383,79,0.082291,81,A5,64,1
261360,245.020383,239,0.248958,60,C4,64,2
261440,245.103716,79,0.082292,76,E5,64,1
261520,245.187049,79,0.082292,72,C5,64,1
261600,245.270383,79,0.082291,69,A4,64,1
261600,245.270383,239,0.248958,57,A3,64,2
261680,245.353716,79,0.082292,72,C5,64,1
261760,245.437049,79,0.082292,76,E5,64,1
261840,245.520383,79,0.082291,81,A5,64,1
261840,245.520383,239,0.248958,60,C4,64,2
261920,245.603716,79,0.082292,76,E5,64,1
262000,245.687049,79,0.082292,72,C5,64,1
262080,245.770383,79,0.082291,69,A4,64,1
262080,245.770383,239,0.248958,57,A3,64,2
262160,245.853716,79,0.082292,72,C5,64,1
262240,245.937049,79,0.082292,76,E5,64,1
262320,246.020383,79,0.082291,81,A5,64,1
262320,246.020383,239,0.248958,60,C4,64,2
262400,246.103716,79,0.082292,76,E5,64,1
262480,246.187049,79,0.082292,72,C5,64,1
262560,246.270383,79,0.082291,69,A4,64,1
262560,246.270383,239,0.248958,57,A3,64,2
262640,246.353716,79,0.082292,72,C5,64,1
262720,246.437049,79,0.082292,76,E5,64,1
262800,246.520383,79,0.082291,81,A5,64,1
262800,246.520383,227,0.236458,60,C4,64,2
262880,246.603716,79,0.082292,76,E5,64,1
262960,246.687049,75,0.078125,72,C5,64,1
263040,246.770383,79,0.082291,69,A4,64,1
263040,246.770383,239,0.248958,57,A3,64,2
263120,246.853716,79,0.082292,72,C5,64,1
263200,246.937049,79,0.082292,76,E5,64,1
263280,247.020383,79,0.082291,81,A5,64,1
263280,247.020383,239,0.248958,60,C4,64,2
263360,247.103716,79,0.082292,76,E5,64,1
263440,247.187049,79,0.082292,72,C5,64,1
263520,247.270383,79,0.082291,69,A4,64,1
263520,247.270383,239,0.248958,57,A3,64,2
263600,247.353716,79,0.082292,72,C5,64,1
263680,247.437049,79,0.082292,76,E5,64,1
263760,247.520383,79,0.082291,81,A5,64,1
263760,247.520383,239,0.248958,60,C4,64,2
263840,247.603716,79,0.082292,76,E5,64,1
263920,247.687049,79,0.082292,72,C5,64,1
264000,247.770383,79,0.082291,69,A4,64,1
264000,247.770383,239,0.248958,57,A3,64,2
264080,247.853716,79,0.082292,72,C5,64,1
264160,247.937049,79,0.082292,76,E5,64,1
264240,248.020383,79,0.082291,81,A5,64,1
264240,248.020383,239,0.248958,60,C4,64,2
264320,248.103716,79,0.082292,76,E5,64,1
264400,248.187049,79,0.082292,72,C5,64,1
264480,248.270383,79,0.082291,69,A4,64,1
264480,248.270383,239,0.248958,57,A3,64,2
264560,248.353716,79,0.082292,72,C5,64,1
264640,248.437049,79,0.082292,76,E5,64,1
264720,248.520383,79,0.082291,81,A5,64,1
264720,248.520383,227,0.236458,60,C4,64,2
264800,248.603716,79,0.082292,76,E5,64,1
264880,248.687049,75,0.078125,72,C5,64,1
264960,248.770383,79,0.082291,69,A4,64,1
264960,248.770383,239,0.248958,57,A3,64,2
264960,248.770383,1919,1.998958,53,F3,64,2
265040,248.853716,79,0.082292,72,C5,64,1
265120,248.937049,79,0.082292,76,E5,64,1
265200,249.020383,79,0.082291,77,F5,64,1
265200,249.020383,239,0.248958,60,C4,64,2
265280,249.103716,79,0.082292,76,E5,64,1
265360,249.187049,79,0.082292,72,C5,64,1
265440,249.270383,79,0.082291,69,A4,64,1
265440,249.270383,239,0.248958,57,A3,64,2
265520,249.353716,79,0.082292,72,C5,64,1
265600,249.437049,79,0.082292,76,E5,64,1
265680,249.520383,79,0.082291,77,F5,64,1
265680,249.520383,239,0.248958,60,C4,64,2
265760,249.603716,79,0.082292,76,E5,64,1
265840,249.687049,79,0.082292,72,C5,64,1
265920,249.770383,79,0.082291,69,A4,64,1
265920,249.770383,239,0.248958,57,A3,64,2
266000,249.853716,79,0.082292,72,C5,64,1
266080,249.937049,79,0.082292,76,E5,64,1
266160,250.020383,79,0.082291,77,F5,64,1
266160,250.020383,239,0.248958,60,C4,64,2
266240,250.103716,79,0.082292,76,E5,64,1
266320,250.187049,79,0.082292,72,C5,64,1
266400,250.270383,79,0.082291,69,A4,64,1
266400,250.270383,239,0.248958,57,A3,64,2
266480,250.353716,79,0.082292,72,C5,64,1
266560,250.437049,79,0.082292,76,E5,64,1
266640,250.520383,79,0.082291,77,F5,64,1
266640,250.520383,227,0.236458,60,C4,64,2
266720,250.603716,79,0.082292,76,E5,64,1
266800,250.687049,75,0.078125,72,C5,64,1
266880,250.770383,79,0.082291,67,G4,64,1
266880,250.770383,239,0.248958,57,A3,64,2
266880,250.770383,479,0.498958,55,G3,64,2
266960,250.853716,79,0.082292,72,C5,64,1
267040,250.937049,79,0.082292,76,E5,64,1
267120,251.020383,79,0.082291,77,F5,64,1
267120,251.020383,239,0.248958,60,C4,64,2
267200,251.103716,79,0.082292,76,E5,64,1
267280,251.187049,79,0.082292,72,C5,64,1
267360,251.270383,79,0.082291,67,G4,64,1
267360,251.270383,239,0.248958,57,A3,64,2
267360,251.270383,479,0.498958,55,G3,64,2
267440,251.353716,79,0.082292,72,C5,64,1
267520,251.437049,79,0.082292,76,E5,64,1
267600,251.520383,79,0.082291,77,F5,64,1
267600,251.520383,239,0.248958,60,C4,64,2
267680,251.603716,79,0.082292,76,E5,64,1
267760,251.687049,79,0.082292,72,C5,64,1
267840,251.770383,79,0.082291,69,A4,64,1
267840,251.770383,239,0.248958,57,A3,64,2
267840,251.770383,479,0.498958,53,F3,64,2
267920,251.853716,79,0.082292,72,C5,64,1
268000,251.937049,79,0.082292,76,E5,64,1
268080,252.020383,79,0.082291,77,F5,64,1
268080,252.020383,239,0.248958,60,C4,64,2
268160,252.103716,79,0.082292,76,E5,64,1
268240,252.187049,79,0.082292,72,C5,64,1
268320,252.270383,79,0.082291,69,A4,64,1
268320,252.270383,239,0.248958,57,A3,64,2
268320,252.270383,479,0.498958,53,F3,64,2
268400,252.353716,79,0.082292,72,C5,64,1
268480,252.437049,79,0.082292,76,E5,64,1
268560,252.520383,79,0.082291,77,F5,64,1
268560,252.520383,227,0.236458,60,C4,64,2
268640,252.603716,79,0.082292,76,E5,64,1
268720,252.687049,75,0.078125,72,C5,64,1
268800,252.770383,79,0.082291,69,A4,64,1
268800,252.770383,239,0.248958,57,A3,64,2
268800,252.770383,3839,3.998958,52,E3,64,2
268880,252.853716,79,0.082292,72,C5,64,1
268960,252.937049,79,0.082292,76,E5,64,1
269040,253.020383,79,0.082291,81,A5,64,1
269040,253.020383,239,0.248958,60,C4,64,2
269120,253.103716,79,0.082292,76,E5,64,1
269200,253.187049,79,0.082292,72,C5,64,1
269280,253.270383,79,0.082291,69,A4,64,1
269280,253.270383,239,0.248958,57,A3,64,2
269360,253.353716,79,0.082292,72,C5,64,1
269440,253.437049,79,0.082292,76,E5,64,1
269520,253.520383,79,0.082291,81,A5,64,1
269520,253.520383,239,0.248958,60,C4,64,2
269600,253.603716,79,0.082292,76,E5,64,1
269680,253.687049,79,0.082292,72,C5,64,1
269760,253.770383,79,0.082291,69,A4,64,1
269760,253.770383,239,0.248958,57,A3,64,2
269840,253.853716,79,0.082292,72,C5,64,1
269920,253.937049,79,0.082292,76,E5,64,1
270000,254.020383,79,0.082291,81,A5,64,1
270000,254.020383,239,0.248958,60,C4,64,2
270080,254.103716,79,0.082292,76,E5,64,1
270160,254.187049,79,0.082292,72,C5,64,1
270240,254.270383,79,0.082291,69,A4,64,1
270240,254.270383,239,0.248958,57,A3,64,2
270320,254.353716,79,0.082292,72,C5,64,1
270400,254.437049,79,0.082292,76,E5,64,1
270480,254.520383,79,0.082291,81,A5,64,1
270480,254.520383,227,0.236458,60,C4,64,2
270560,254.603716,79,0.082292,76,E5,64,1
270640,254.687049,75,0.078125,72,C5,64,1
270720,254.770383,79,0.082291,69,A4,64,1
270720,254.770383,239,0.248958,57,A3,64,2
270800,254.853716,79,0.082292,72,C5,64,1
270880,254.937049,79,0.082292,76,E5,64,1
270960,255.020383,79,0.082291,81,A5,64,1
270960,255.020383,239,0.248958,60,C4,64,2
271040,255.103716,79,0.082292,76,E5,64,1
271120,255.187049,79,0.082292,72,C5,64,1
271200,255.270383,79,0.082291,69,A4,64,1
271200,255.270383,239,0.248958,57,A3,64,2
271280,255.353716,79,0.082292,72,C5,64,1
271360,255.437049,79,0.082292,76,E5,64,1
271440,255.520383,79,0.082291,81,A5,64,1
271440,255.520383,239,0.248958,60,C4,64,2
271520,255.603716,79,0.082292,76,E5,64,1
271600,255.687049,79,0.082292,72,C5,64,1
271680,255.770383,79,0.082291,69,A4,64,1
271680,255.770383,239,0.248958,57,A3,64,2
271760,255.853716,79,0.082292,72,C5,64,1
271840,255.937049,79,0.082292,76,E5,64,1
271920,256.020383,79,0.082291,81,A5,64,1
271920,256.020383,239,0.248958,60,C4,64,2
272000,256.103716,79,0.082292,76,E5,64,1
272080,256.187049,79,0.082292,72,C5,64,1
272160,256.270383,79,0.082291,69,A4,64,1
272160,256.270383,239,0.248958,57,A3,64,2
272240,256.353716,79,0.082292,72,C5,64,1
272320,256.437049,79,0.082292,76,E5,64,1
272400,256.520383,79,0.082291,81,A5,64,1
272400,256.520383,227,0.236458,60,C4,64,2
272480,256.603716,79,0.082292,76,E5,64,1
272560,256.687049,75,0.078125,72,C5,64,1
272640,256.770383,79,0.082291,69,A4,64,1
272640,256.770383,239,0.248958,57,A3,64,2
272640,256.770383,1919,1.998958,53,F3,64,2
272720,256.853716,79,0.082292,72,C5,64,1
272800,256.937049,79,0.082292,76,E5,64,1
272880,257.020383,79,0.082291,77,F5,64,1
272880,257.020383,239,0.248958,60,C4,64,2
272960,257.103716,79,0.082292,76,E5,64,1
273040,257.187049,79,0.082292,72,C5,64,1
273120,257.270383,79,0.082291,69,A4,64,1
273120,257.270383,239,0.248958,57,A3,64,2
273200,257.353716,79,0.082292,72,C5,64,1
273280,257.437049,79,0.082292,76,E5,64,1
273360,257.520383,79,0.082291,77,F5,64,1
273360,257.520383,239,0.248958,60,C4,64,2
273440,257.603716,79,0.082292,76,E5,64,1
273520,257.687049,79,0.082292,72,C5,64,1
273600,257.770383,79,0.082291,69,A4,64,1
273600,257.770383,239,0.248958,57,A3,64,2
273680,257.853716,79,0.082292,72,C5,64,1
273760,257.937049,79,0.082292,76,E5,64,1
273840,258.020383,79,0.082291,77,F5,64,1
273840,258.020383,239,0.248958,60,C4,64,2
273920,258.103716,79,0.082292,76,E5,64,1
274000,258.187049,79,0.082292,72,C5,64,1
274080,258.270383,79,0.082291,69,A4,64,1
274080,258.270383,239,0.248958,57,A3,64,2
274160,258.353716,79,0.082292,72,C5,64,1
274240,258.437049,79,0.082292,76,E5,64,1
274320,258.520383,79,0.082291,77,F5,64,1
274320,258.520383,227,0.236458,60,C4,64,2
274400,258.603716,79,0.082292,76,E5,64,1
274480,258.687049,75,0.078125,72,C5,64,1
274560,258.770383,79,0.082291,67,G4,64,1
274560,258.770383,239,0.248958,57,A3,64,2
274560,258.770383,479,0.498958,55,G3,64,2
274640,258.853716,79,0.082292,72,C5,64,1
274720,258.937049,79,0.082292,76,E5,64,1
274800,259.020383,79,0.082291,77,F5,64,1
274800,259.020383,239,0.248958,60,C4,64,2
274880,259.103716,79,0.082292,76,E5,64,1
274960,259.187049,79,0.082292,72,C5,64,1
275040,259.270383,79,0.082291,67,G4,64,1
275040,259.270383,239,0.248958,57,A3,64,2
275040,259.270383,479,0.498958,55,G3,64,2
275120,259.353716,79,0.082292,72,C5,64,1
275200,259.437049,79,0.082292,76,E5,64,1
275280,259.520383,79,0.082291,77,F5,64,1
275280,259.520383,239,0.248958,60,C4,64,2
275360,259.603716,79,0.082292,76,E5,64,1
275440,259.687049,79,0.082292,72,C5,64,1
275520,259.770383,79,0.082291,69,A4,64,1
275520,259.770383,239,0.248958,57,A3,64,2
275520,259.770383,479,0.498958,53,F3,64,2
275600,259.853716,79,0.082292,72,C5,64,1
275680,259.937049,79,0.082292,76,E5,64,1
275760,260.020383,79,0.082291,77,F5,64,1
275760,260.020383,239,0.248958,60,C4,64,2
275840,260.103716,79,0.082292,76,E5,64,1
275920,260.187049,79,0.082292,72,C5,64,1
276000,260.270383,79,0.082291,69,A4,64,1
276000,260.270383,239,0.248958,57,A3,64,2
276000,260.270383,479,0.498958,53,F3,64,2
276080,260.353716,79,0.082292,72,C5,64,1
276160,260.437049,79,0.082292,76,E5,64,1
276240,260.520383,79,0.082291,77,F5,64,1
276240,260.520383,227,0.236458,60,C4,64,2
276320,260.603716,79,0.082292,76,E5,64,1
276400,260.687049,75,0.078125,72,C5,64,1
276480,260.770383,79,0.082291,69,A4,64,1
276480,260.770383,239,0.248958,57,A3,64,2
276480,260.770383,3839,3.998958,52,E3,64,2
276560,260.853716,79,0.082292,72,C5,64,1
276640,260.937049,79,0.082292,76,E5,64,1
276720,261.020383,79,0.082291,81,A5,64,1
276720,261.020383,239,0.248958,60,C4,64,2
276800,261.103716,79,0.082292,76,E5,64,1
276880,261.187049,79,0.082292,72,C5,64,1
276960,261.270383,79,0.082291,69,A4,64,1
276960,261.270383,239,0.248958,57,A3,64,2
277040,261.353716,79,0.082292,72,C5,64,1
277120,261.437049,79,0.082292,76,E5,64,1
277200,261.520383,79,0.082291,81,A5,64,1
277200,261.520383,239,0.248958,60,C4,64,2
277280,261.603716,79,0.082292,76,E5,64,1
277360,261.687049,79,0.082292,72,C5,64,1
277440,261.770383,79,0.082291,69,A4,64,1
277440,261.770383,239,0.248958,57,A3,64,2
277520,261.853716,79,0.082292,72,C5,64,1
277600,261.937049,79,0.082292,76,E5,64,1
277680,262.020383,79,0.082291,81,A5,64,1
277680,262.020383,239,0.248958,60,C4,64,2
277760,262.103716,79,0.082292,76,E5,64,1
277840,262.187049,79,0.082292,72,C5,64,1
277920,262.270383,79,0.082291,69,A4,64,1
277920,262.270383,239,0.248958,57,A3,64,2
278000,262.353716,79,0.082292,72,C5,64,1
278080,262.437049,79,0.082292,76,E5,64,1
278160,262.520383,79,0.082291,81,A5,64,1
278160,262.520383,227,0.236458,60,C4,64,2
278240,262.603716,79,0.082292,76,E5,64,1
278320,262.687049,75,0.078125,72,C5,64,1
278400,262.770383,79,0.082291,69,A4,64,1
278400,262.770383,239,0.248958,57,A3,64,2
278480,262.853716,79,0.082292,72,C5,64,1
278560,262.937049,79,0.082292,76,E5,64,1
278640,263.020383,79,0.082291,81,A5,64,1
278640,263.020383,239,0.248958,60,C4,64,2
278720,263.103716,79,0.082292,76,E5,64,1
278800,263.187049,79,0.082292,72,C5,64,1
278880,263.270383,79,0.082291,69,A4,64,1
278880,263.270383,239,0.248958,57,A3,64,2
278960,263.353716,79,0.082292,72,C5,64,1
279040,263.437049,79,0.082292,76,E5,64,1
279120,263.520383,79,0.082291,81,A5,64,1
279120,263.520383,239,0.248958,60,C4,64,2
279200,263.603716,79,0.082292,76,E5,64,1
279280,263.687049,79,0.082292,72,C5,64,1
279360,263.770383,79,0.082291,69,A4,64,1
279360,263.770383,239,0.248958,57,A3,64,2
279440,263.853716,79,0.082292,72,C5,64,1
279520,263.937049,79,0.082292,76,E5,64,1
279600,264.020383,79,0.082291,81,A5,64,1
279600,264.020383,239,0.248958,60,C4,64,2
279680,264.103716,79,0.082292,76,E5,64,1
279760,264.187049,79,0.082292,72,C5,64,1
279840,264.270383,79,0.082291,69,A4,64,1
279840,264.270383,239,0.248958,57,A3,64,2
279920,264.353716,79,0.082292,72,C5,64,1
280000,264.437049,79,0.082292,76,E5,64,1
280080,264.520383,79,0.082291,81,A5,64,1
280080,264.520383,227,0.236458,60,C4,64,2
280160,264.603716,79,0.082292,76,E5,64,1
280240,264.687049,75,0.078125,72,C5,64,1
280320,264.770383,75,0.078125,69,A4,64,1
280320,264.770383,227,0.236458,57,A3,64,2
280320,264.770383,1823,1.898958,53,F3,64,2
280400,264.853716,75,0.078125,72,C5,64,1
280480,264.937049,75,0.078125,76,E5,64,1
280560,265.020383,75,0.078125,77,F5,64,1
280560,265.020383,227,0.236458,60,C4,64,2
280640,265.103716,75,0.078125,76,E5,64,1
280720,265.187049,75,0.078125,72,C5,64,1
280800,265.270383,75,0.078125,69,A4,64,1
280800,265.270383,227,0.236458,57,A3,64,2
280880,265.353716,75,0.078125,72,C5,64,1
280960,265.437049,75,0.078125,76,E5,64,1
281040,265.520383,75,0.078125,77,F5,64,1
281040,265.520383,227,0.236458,60,C4,64,2
281120,265.603716,75,0.078125,76,E5,64,1
281200,265.687049,75,0.078125,72,C5,64,1
281280,265.770383,75,0.078125,69,A4,64,1
281280,265.770383,227,0.236458,57,A3,64,2
281360,265.853716,75,0.078125,72,C5,64,1
281440,265.937049,75,0.078125,76,E5,64,1
281520,266.020383,75,0.078125,77,F5,64,1
281520,266.020383,227,0.236458,60,C4,64,2
281600,266.103716,75,0.078125,76,E5,64,1
281680,266.187049,75,0.078125,72,C5,64,1
281760,266.270383,75,0.078125,69,A4,64,1
281760,266.270383,227,0.236458,57,A3,64,2
281840,266.353716,75,0.078125,72,C5,64,1
281920,266.437049,75,0.078125,76,E5,64,1
282000,266.520383,75,0.078125,77,F5,64,1
282000,266.520383,227,0.236458,60,C4,64,2
282080,266.603716,75,0.078125,76,E5,64,1
282160,266.687049,75,0.078125,72,C5,64,1
282240,266.770383,75,0.078125,67,G4,64,1
282240,266.770383,227,0.236458,57,A3,64,2
282240,266.770383,455,0.473958,55,G3,64,2
282320,266.853716,75,0.078125,72,C5,64,1
282400,266.937049,75,0.078125,76,E5,64,1
282480,267.020383,75,0.078125,77,F5,64,1
282480,267.020383,227,0.236458,60,C4,64,2
282560,267.103716,75,0.078125,76,E5,64,1
282640,267.187049,75,0.078125,72,C5,64,1
282720,267.270383,75,0.078125,67,G4,64,1
282720,267.270383,227,0.236458,57,A3,64,2
282720,267.270383,455,0.473958,55,G3,64,2
282800,267.353716,75,0.078125,72,C5,64,1
282880,267.437049,75,0.078125,76,E5,64,1
282960,267.520383,75,0.078125,77,F5,64,1
282960,267.520383,227,0.236458,60,C4,64,2
283040,267.603716,75,0.078125,76,E5,64,1
283120,267.687049,75,0.078125,72,C5,64,1
283200,267.770383,75,0.078125,69,A4,64,1
283200,267.770383,227,0.236458,57,A3,64,2
283200,267.770383,455,0.473958,53,F3,64,2
283280,267.853716,75,0.078125,72,C5,64,1
283360,267.937049,75,0.078125,76,E5,64,1
283440,268.020383,75,0.078125,77,F5,64,1
283440,268.020383,227,0.236458,60,C4,64,2
283520,268.103716,75,0.078125,76,E5,64,1
283600,268.187049,75,0.078125,72,C5,64,1
283680,268.270383,75,0.078125,69,A4,64,1
283680,268.270383,227,0.236458,57,A3,64,2
283680,268.270383,455,0.473958,53,F3,64,2
283760,268.353716,75,0.078125,72,C5,64,1
283840,268.437049,75,0.078125,76,E5,64,1
283920,268.520383,75,0.078125,77,F5,64,1
283920,268.520383,227,0.236458,60,C4,64,2
284000,268.603716,75,0.078125,76,E5,64,1
284080,268.687049,75,0.078125,72,C5,64,1
284160,268.770383,75,0.078125,69,A4,64,1
284160,268.770383,227,0.236458,57,A3,64,2
284160,268.770383,3647,3.798958,52,E3,64,2
284240,268.853716,75,0.078125,72,C5,64,1
284320,268.937049,75,0.078125,76,E5,64,1
284400,269.020383,75,0.078125,81,A5,64,1
284400,269.020383,227,0.236458,60,C4,64,2
284480,269.103716,75,0.078125,76,E5,64,1
284560,269.187049,75,0.078125,72,C5,64,1
284640,269.270383,75,0.078125,69,A4,64,1
284640,269.270383,227,0.236458,57,A3,64,2
284720,269.353716,75,0.078125,72,C5,64,1
284800,269.437049,75,0.078125,76,E5,64,1
284880,269.520383,75,0.078125,81,A5,64,1
284880,269.520383,227,0.236458,60,C4,64,2
284960,269.603716,75,0.078125,76,E5,64,1
285040,269.687049,75,0.078125,72,C5,64,1
285120,269.770383,75,0.078125,69,A4,64,1
285120,269.770383,227,0.236458,57,A3,64,2
285200,269.853716,75,0.078125,72,C5,64,1
285280,269.937049,75,0.078125,76,E5,64,1
285360,270.020383,75,0.078125,81,A5,64,1
285360,270.020383,227,0.236458,60,C4,64,2
285440,270.103716,75,0.078125,76,E5,64,1
285520,270.187049,75,0.078125,72,C5,64,1
285600,270.270383,75,0.078125,69,A4,64,1
285600,270.270383,227,0.236458,57,A3,64,2
285680,270.353716,75,0.078125,72,C5,64,1
285760,270.437049,75,0.078125,76,E5,64,1
285840,270.520383,75,0.078125,81,A5,64,1
285840,270.520383,227,0.236458,60,C4,64,2
285920,270.603716,75,0.078125,76,E5,64,1
286000,270.687049,75,0.078125,72,C5,64,1
286080,270.770383,75,0.078125,69,A4,64,1
286080,270.770383,227,0.236458,57,A3,64,2
286160,270.853716,75,0.078125,72,C5,64,1
286240,270.937049,75,0.078125,76,E5,64,1
286320,271.020383,75,0.078125,81,A5,64,1
286320,271.020383,227,0.236458,60,C4,64,2
286400,271.103716,75,0.078125,76,E5,64,1
286480,271.187049,75,0.078125,72,C5,64,1
286560,271.270383,75,0.078125,69,A4,64,1
286560,271.270383,227,0.236458,57,A3,64,2
286640,271.353716,75,0.078125,72,C5,64,1
286720,271.437049,75,0.078125,76,E5,64,1
286800,271.520383,75,0.078125,81,A5,64,1
286800,271.520383,227,0.236458,60,C4,64,2
286880,271.603716,75,0.078125,76,E5,64,1
286960,271.687049,75,0.078125,72,C5,64,1
287040,271.770383,75,0.078125,69,A4,64,1
287040,271.770383,227,0.236458,57,A3,64,2
287120,271.853716,75,0.078125,72,C5,64,1
287200,271.937049,75,0.078125,76,E5,64,1
287280,272.020383,75,0.078125,81,A5,64,1
287280,272.020383,227,0.236458,60,C4,64,2
287360,272.103716,75,0.078125,76,E5,64,1
287440,272.187049,75,0.078125,72,C5,64,1
287520,272.270383,75,0.078125,69,A4,64,1
287520,272.270383,227,0.236458,57,A3,64,2
287600,272.353716,75,0.078125,72,C5,64,1
287680,272.437049,75,0.078125,76,E5,64,1
287760,272.520383,75,0.078125,81,A5,64,1
287760,272.520383,227,0.236458,60,C4,64,2
287840,272.603716,75,0.078125,76,E5,64,1
287920,272.687049,75,0.078125,72,C5,64,1
288000,272.770383,75,0.078125,67,G4,64,1
288000,272.770383,227,0.236458,58,A3#,64,2
288000,272.770383,3647,3.798958,55,G3,64,2
288080,272.853716,75,0.078125,70,A4#,64,1
288160,272.937049,75,0.078125,74,D5,64,1
288240,273.020383,75,0.078125,77,F5,64,1
288240,273.020383,227,0.236458,62,D4,64,2
288320,273.103716,75,0.078125,74,D5,64,1
288400,273.187049,75,0.078125,70,A4#,64,1
288480,273.270383,75,0.078125,67,G4,64,1
288480,273.270383,227,0.236458,58,A3#,64,2
288560,273.353716,75,0.078125,70,A4#,64,1
288640,273.437049,75,0.078125,74,D5,64,1
288720,273.520383,75,0.078125,77,F5,64,1
288720,273.520383,227,0.236458,62,D4,64,2
288800,273.603716,75,0.078125,74,D5,64,1
288880,273.687049,75,0.078125,70,A4#,64,1
288960,273.770383,75,0.078125,67,G4,64,1
288960,273.770383,227,0.236458,58,A3#,64,2
289040,273.853716,75,0.078125,70,A4#,64,1
289120,273.937049,75,0.078125,74,D5,64,1
289200,274.020383,75,0.078125,77,F5,64,1
289200,274.020383,227,0.236458,62,D4,64,2
289280,274.103716,75,0.078125,74,D5,64,1
289360,274.187049,75,0.078125,70,A4#,64,1
289440,274.270383,75,0.078125,67,G4,64,1
289440,274.270383,227,0.236458,58,A3#,64,2
289520,274.353716,75,0.078125,70,A4#,64,1
289600,274.437049,75,0.078125,74,D5,64,1
289680,274.520383,75,0.078125,77,F5,64,1
289680,274.520383,227,0.236458,62,D4,64,2
289760,274.603716,75,0.078125,74,D5,64,1
289840,274.687049,75,0.078125,70,A4#,64,1
289920,274.770383,75,0.078125,67,G4,64,1
289920,274.770383,227,0.236458,58,A3#,64,2
290000,274.853716,75,0.078125,70,A4#,64,1
290080,274.937049,75,0.078125,74,D5,64,1
290160,275.020383,75,0.078125,77,F5,64,1
290160,275.020383,227,0.236458,62,D4,64,2
290240,275.103716,75,0.078125,74,D5,64,1
290320,275.187049,75,0.078125,70,A4#,64,1
290400,275.270383,75,0.078125,67,G4,64,1
290400,275.270383,227,0.236458,58,A3#,64,2
290480,275.353716,75,0.078125,70,A4#,64,1
290560,275.437049,75,0.078125,74,D5,64,1
290640,275.520383,75,0.078125,77,F5,64,1
290640,275.520383,227,0.236458,62,D4,64,2
290720,275.603716,75,0.078125,74,D5,64,1
290800,275.687049,75,0.078125,70,A4#,64,1
290880,275.770383,75,0.078125,67,G4,64,1
290880,275.770383,227,0.236458,58,A3#,64,2
290960,275.853716,75,0.078125,70,A4#,64,1
291040,275.937049,75,0.078125,74,D5,64,1
291120,276.020383,75,0.078125,77,F5,64,1
291120,276.020383,227,0.236458,62,D4,64,2
291200,276.103716,75,0.078125,74,D5,64,1
291280,276.187049,75,0.078125,70,A4#,64,1
291360,276.270383,75,0.078125,67,G4,64,1
291360,276.270383,227,0.236458,58,A3#,64,2
291440,276.353716,75,0.078125,70,A4#,64,1
291520,276.437049,75,0.078125,74,D5,64,1
291600,276.520383,75,0.078125,77,F5,64,1
291600,276.520383,227,0.236458,62,D4,64,2
291680,276.603716,75,0.078125,74,D5,64,1
291760,276.687049,75,0.078125,70,A4#,64,1
291840,276.770383,75,0.078125,69,A4,64,1
291840,276.770383,227,0.236458,57,A3,64,2
291840,276.770383,3647,3.798958,53,F3,64,2
291920,276.853716,75,0.078125,72,C5,64,1
292000,276.937049,75,0.078125,76,E5,64,1
292080,277.020383,75,0.078125,77,F5,64,1
292080,277.020383,227,0.236458,60,C4,64,2
292160,277.103716,75,0.078125,76,E5,64,1
292240,277.187049,75,0.078125,72,C5,64,1
292320,277.270383,75,0.078125,69,A4,64,1
292320,277.270383,227,0.236458,57,A3,64,2
292400,277.353716,75,0.078125,72,C5,64,1
292480,277.437049,75,0.078125,76,E5,64,1
292560,277.520383,75,0.078125,77,F5,64,1
292560,277.520383,227,0.236458,60,C4,64,2
292640,277.603716,75,0.078125,76,E5,64,1
292720,277.687049,75,0.078125,72,C5,64,1
292800,277.770383,75,0.078125,69,A4,64,1
292800,277.770383,227,0.236458,57,A3,64,2
292880,277.853716,75,0.078125,72,C5,64,1
292960,277.937049,75,0.078125,76,E5,64,1
293040,278.020383,75,0.078125,77,F5,64,1
293040,278.020383,227,0.236458,60,C4,64,2
293120,278.103716,75,0.078125,76,E5,64,1
293200,278.187049,75,0.078125,72,C5,64,1
293280,278.270383,75,0.078125,69,A4,64,1
293280,278.270383,227,0.236458,57,A3,64,2
293360,278.353716,75,0.078125,72,C5,64,1
293440,278.437049,75,0.078125,76,E5,64,1
293520,278.520383,75,0.078125,77,F5,64,1
293520,278.520383,227,0.236458,60,C4,64,2
293600,278.603716,75,0.078125,76,E5,64,1
293680,278.687049,75,0.078125,72,C5,64,1
293760,278.770383,75,0.078125,69,A4,64,1
293760,278.770383,227,0.236458,57,A3,64,2
293840,278.853716,75,0.078125,72,C5,64,1
293920,278.937049,75,0.078125,76,E5,64,1
294000,279.020383,75,0.078125,77,F5,64,1
294000,279.020383,227,0.236458,60,C4,64,2
294080,279.103716,75,0.078125,76,E5,64,1
294160,279.187049,75,0.078125,72,C5,64,1
294240,279.270383,75,0.078125,69,A4,64,1
294240,279.270383,227,0.236458,57,A3,64,2
294320,279.353716,75,0.078125,72,C5,64,1
294400,279.437049,75,0.078125,76,E5,64,1
294480,279.520383,75,0.078125,77,F5,64,1
294480,279.520383,227,0.236458,60,C4,64,2
294560,279.603716,75,0.078125,76,E5,64,1
294640,279.687049,75,0.078125,72,C5,64,1
294720,279.770383,75,0.078125,69,A4,64,1
294720,279.770383,227,0.236458,57,A3,64,2
294800,279.853716,75,0.078125,72,C5,64,1
294880,279.937049,75,0.078125,76,E5,64,1
294960,280.020383,75,0.078125,77,F5,64,1
294960,280.020383,227,0.236458,60,C4,64,2
295040,280.103716,75,0.078125,76,E5,64,1
295120,280.187049,75,0.078125,72,C5,64,1
295200,280.270383,75,0.078125,69,A4,64,1
295200,280.270383,227,0.236458,57,A3,64,2
295280,280.353716,75,0.078125,72,C5,64,1
295360,280.437049,75,0.078125,76,E5,64,1
295440,280.520383,75,0.078125,77,F5,64,1
295440,280.520383,227,0.236458,60,C4,64,2
295520,280.603716,75,0.078125,76,E5,64,1
295600,280.687049,75,0.078125,72,C5,64,1
295680,280.770383,75,0.078125,67,G4,64,1
295680,280.770383,227,0.236458,58,A3#,64,2
295680,280.770383,3647,3.798958,55,G3,64,2
295760,280.853716,75,0.078125,70,A4#,64,1
295840,280.937049,75,0.078125,74,D5,64,1
295920,281.020383,75,0.078125,77,F5,64,1
295920,281.020383,227,0.236458,62,D4,64,2
296000,281.103716,75,0.078125,74,D5,64,1
296080,281.187049,75,0.078125,70,A4#,64,1
296160,281.270383,75,0.078125,67,G4,64,1
296160,281.270383,227,0.236458,58,A3#,64,2
296240,281.353716,75,0.078125,70,A4#,64,1
296320,281.437049,75,0.078125,74,D5,64,1
296400,281.520383,75,0.078125,77,F5,64,1
296400,281.520383,227,0.236458,62,D4,64,2
296480,281.603716,75,0.078125,74,D5,64,1
296560,281.687049,75,0.078125,70,A4#,64,1
296640,281.770383,75,0.078125,67,G4,64,1
296640,281.770383,227,0.236458,58,A3#,64,2
296720,281.853716,75,0.078125,70,A4#,64,1
296800,281.937049,75,0.078125,74,D5,64,1
296880,282.020383,75,0.078125,77,F5,64,1
296880,282.020383,227,0.236458,62,D4,64,2
296960,282.103716,75,0.078125,74,D5,64,1
297040,282.187049,75,0.078125,70,A4#,64,1
297120,282.270383,75,0.078125,67,G4,64,1
297120,282.270383,227,0.236458,58,A3#,64,2
297200,282.353716,75,0.078125,70,A4#,64,1
297280,282.437049,75,0.078125,74,D5,64,1
297360,282.520383,75,0.078125,77,F5,64,1
297360,282.520383,227,0.236458,62,D4,64,2
297440,282.603716,75,0.078125,74,D5,64,1
297520,282.687049,75,0.078125,70,A4#,64,1
297600,282.770383,75,0.078125,67,G4,64,1
297600,282.770383,227,0.236458,58,A3#,64,2
297680,282.853716,75,0.078125,70,A4#,64,1
297760,282.937049,75,0.078125,74,D5,64,1
297840,283.020383,75,0.078125,77,F5,64,1
297840,283.020383,227,0.236458,62,D4,64,2
297920,283.103716,75,0.078125,74,D5,64,1
298000,283.187049,75,0.078125,70,A4#,64,1
298080,283.270383,75,0.078125,67,G4,64,1
298080,283.270383,227,0.236458,58,A3#,64,2
298160,283.353716,75,0.078125,70,A4#,64,1
298240,283.437049,75,0.078125,74,D5,64,1
298320,283.520383,75,0.078125,77,F5,64,1
298320,283.520383,227,0.236458,62,D4,64,2
298400,283.603716,75,0.078125,74,D5,64,1
298480,283.687049,75,0.078125,70,A4#,64,1
298560,283.770383,75,0.078125,67,G4,64,1
298560,283.770383,227,0.236458,58,A3#,64,2
298640,283.853716,75,0.078125,70,A4#,64,1
298720,283.937049,75,0.078125,74,D5,64,1
298800,284.020383,75,0.078125,77,F5,64,1
298800,284.020383,227,0.236458,62,D4,64,2
298880,284.103716,75,0.078125,74,D5,64,1
298960,284.187049,75,0.078125,70,A4#,64,1
299040,284.270383,75,0.078125,67,G4,64,1
299040,284.270383,227,0.236458,58,A3#,64,2
299120,284.353716,75,0.078125,70,A4#,64,1
299200,284.437049,75,0.078125,74,D5,64,1
299280,284.520383,75,0.078125,77,F5,64,1
299280,284.520383,227,0.236458,62,D4,64,2
299360,284.603716,75,0.078125,74,D5,64,1
299440,284.687049,75,0.078125,70,A4#,64,1
299520,284.770383,75,0.078125,69,A4,64,1
299520,284.770383,227,0.236458,57,A3,64,2
299520,284.770383,3647,3.798958,53,F3,64,2
299600,284.853716,75,0.078125,72,C5,64,1
299680,284.937049,75,0.078125,76,E5,64,1
299760,285.020383,75,0.078125,77,F5,64,1
299760,285.020383,227,0.236458,60,C4,64,2
299840,285.103716,75,0.078125,76,E5,64,1
299920,285.187049,75,0.078125,72,C5,64,1
300000,285.270383,75,0.078125,69,A4,64,1
300000,285.270383,227,0.236458,57,A3,64,2
300080,285.353716,75,0.078125,72,C5,64,1
300160,285.437049,75,0.078125,76,E5,64,1
300240,285.520383,75,0.078125,77,F5,64,1
300240,285.520383,227,0.236458,60,C4,64,2
300320,285.603716,75,0.078125,76,E5,64,1
300400,285.687049,75,0.078125,72,C5,64,1
300480,285.770383,75,0.078125,69,A4,64,1
300480,285.770383,227,0.236458,57,A3,64,2
300560,285.853716,75,0.078125,72,C5,64,1
300640,285.937049,75,0.078125,76,E5,64,1
300720,286.020383,75,0.078125,77,F5,64,1
300720,286.020383,227,0.236458,60,C4,64,2
300800,286.103716,75,0.078125,76,E5,64,1
300880,286.187049,75,0.078125,72,C5,64,1
300960,286.270383,75,0.078125,69,A4,64,1
300960,286.270383,227,0.236458,57,A3,64,2
301040,286.353716,75,0.078125,72,C5,64,1
301120,286.437049,75,0.078125,76,E5,64,1
301200,286.520383,75,0.078125,77,F5,64,1
301200,286.520383,227,0.236458,60,C4,64,2
301280,286.603716,75,0.078125,76,E5,64,1
301360,286.687049,75,0.078125,72,C5,64,1
301440,286.770383,75,0.078125,69,A4,64,1
301440,286.770383,227,0.236458,57,A3,64,2
301520,286.853716,75,0.078125,72,C5,64,1
301600,286.937049,75,0.078125,76,E5,64,1
301680,287.020383,75,0.078125,77,F5,64,1
301680,287.020383,227,0.236458,60,C4,64,2
301760,287.103716,75,0.078125,76,E5,64,1
301840,287.187049,75,0.078125,72,C5,64,1
301920,287.270383,75,0.078125,69,A4,64,1
301920,287.270383,227,0.236458,57,A3,64,2
302000,287.353716,75,0.078125,72,C5,64,1
302080,287.437049,75,0.078125,76,E5,64,1
302160,287.520383,75,0.078125,77,F5,64,1
302160,287.520383,227,0.236458,60,C4,64,2
302240,287.603716,75,0.078125,76,E5,64,1
302320,287.687049,75,0.078125,72,C5,64,1
302400,287.770383,75,0.078125,69,A4,64,1
302400,287.770383,227,0.236458,57,A3,64,2
302480,287.853716,75,0.078125,72,C5,64,1
302560,287.937049,75,0.078125,76,E5,64,1
302640,288.020383,75,0.078125,77,F5,64,1
302640,288.020383,227,0.236458,60,C4,64,2
302720,288.103716,75,0.078125,76,E5,64,1
302800,288.187049,75,0.078125,72,C5,64,1
302880,288.270383,75,0.078125,69,A4,64,1
302880,288.270383,227,0.236458,57,A3,64,2
302960,288.353716,75,0.078125,72,C5,64,1
303040,288.437049,75,0.078125,76,E5,64,1
303120,288.520383,75,0.078125,77,F5,64,1
303120,288.520383,227,0.236458,60,C4,64,2
303200,288.603716,75,0.078125,76,E5,64,1
303280,288.687049,75,0.078125,72,C5,64,1
303360,288.770383,75,0.078125,67,G4,64,1
303360,288.770383,227,0.236458,58,A3#,64,2
303360,288.770383,1823,1.898958,55,G3,64,2
303440,288.853716,75,0.078125,70,A4#,64,1
303520,288.937049,75,0.078125,74,D5,64,1
303600,289.020383,75,0.078125,77,F5,64,1
303600,289.020383,227,0.236458,62,D4,64,2
303680,289.103716,75,0.078125,74,D5,64,1
303760,289.187049,75,0.078125,70,A4#,64,1
303840,289.270383,75,0.078125,67,G4,64,1
303840,289.270383,227,0.236458,58,A3#,64,2
303920,289.353716,75,0.078125,70,A4#,64,1
304000,289.437049,75,0.078125,74,D5,64,1
304080,289.520383,75,0.078125,77,F5,64,1
304080,289.520383,227,0.236458,62,D4,64,2
304160,289.603716,75,0.078125,74,D5,64,1
304240,289.687049,75,0.078125,70,A4#,64,1
304320,289.770383,75,0.078125,67,G4,64,1
304320,289.770383,227,0.236458,58,A3#,64,2
304400,289.853716,75,0.078125,70,A4#,64,1
304480,289.937049,75,0.078125,74,D5,64,1
304560,290.020383,75,0.078125,77,F5,64,1
304560,290.020383,227,0.236458,62,D4,64,2
304640,290.103716,75,0.078125,74,D5,64,1
304720,290.187049,75,0.078125,70,A4#,64,1
304800,290.270383,75,0.078125,67,G4,64,1
304800,290.270383,227,0.236458,58,A3#,64,2
304880,290.353716,75,0.078125,70,A4#,64,1
304960,290.437049,75,0.078125,74,D5,64,1
305040,290.520383,75,0.078125,77,F5,64,1
305040,290.520383,227,0.236458,62,D4,64,2
305120,290.603716,75,0.078125,74,D5,64,1
305200,290.687049,75,0.078125,70,A4#,64,1
305280,290.770383,75,0.078125,69,A4,64,1
305280,290.770383,227,0.236458,58,A3#,64,2
305280,290.770383,455,0.473958,53,F3,64,2
305360,290.853716,75,0.078125,72,C5,64,1
305440,290.937049,75,0.078125,76,E5,64,1
305520,291.020383,75,0.078125,77,F5,64,1
305520,291.020383,227,0.236458,62,D4,64,2
305600,291.103716,75,0.078125,76,E5,64,1
305680,291.187049,75,0.078125,72,C5,64,1
305760,291.270383,75,0.078125,69,A4,64,1
305760,291.270383,227,0.236458,58,A3#,64,2
305760,291.270383,455,0.473958,53,F3,64,2
305840,291.353716,75,0.078125,72,C5,64,1
305920,291.437049,75,0.078125,76,E5,64,1
306000,291.520383,75,0.078125,77,F5,64,1
306000,291.520383,227,0.236458,62,D4,64,2
306080,291.603716,75,0.078125,76,E5,64,1
306160,291.687049,75,0.078125,72,C5,64,1
306240,291.770383,75,0.078125,69,A4,64,1
306240,291.770383,227,0.236458,58,A3#,64,2
306240,291.770383,455,0.473958,55,G3,64,2
306320,291.853716,75,0.078125,72,C5,64,1
306400,291.937049,75,0.078125,76,E5,64,1
306480,292.020383,75,0.078125,77,F5,64,1
306480,292.020383,227,0.236458,62,D4,64,2
306560,292.103716,75,0.078125,76,E5,64,1
306640,292.187049,75,0.078125,72,C5,64,1
306720,292.270383,75,0.078125,69,A4,64,1
306720,292.270383,227,0.236458,58,A3#,64,2
306720,292.270383,455,0.473958,55,G3,64,2
306800,292.353716,75,0.078125,72,C5,64,1
306880,292.437049,75,0.078125,76,E5,64,1
306960,292.520383,75,0.078125,77,F5,64,1
306960,292.520383,227,0.236458,62,D4,64,2
307040,292.603716,75,0.078125,76,E5,64,1
307120,292.687049,75,0.078125,72,C5,64,1
307200,292.770383,75,0.078125,69,A4,64,1
307200,292.770383,227,0.236458,57,A3,64,2
307200,292.770383,3647,3.798958,53,F3,64,2
307280,292.853716,75,0.078125,72,C5,64,1
307360,292.937049,75,0.078125,76,E5,64,1
307440,293.020383,75,0.078125,77,F5,64,1
307440,293.020383,227,0.236458,60,C4,64,2
307520,293.103716,75,0.078125,76,E5,64,1
307600,293.187049,75,0.078125,72,C5,64,1
307680,293.270383,75,0.078125,69,A4,64,1
307680,293.270383,227,0.236458,57,A3,64,2
307760,293.353716,75,0.078125,72,C5,64,1
307840,293.437049,75,0.078125,76,E5,64,1
307920,293.520383,75,0.078125,77,F5,64,1
307920,293.520383,227,0.236458,60,C4,64,2
308000,293.603716,75,0.078125,76,E5,64,1
308080,293.687049,75,0.078125,72,C5,64,1
308160,293.770383,75,0.078125,69,A4,64,1
308160,293.770383,227,0.236458,57,A3,64,2
308240,293.853716,75,0.078125,72,C5,64,1
308320,293.937049,75,0.078125,76,E5,64,1
308400,294.020383,75,0.078125,77,F5,64,1
308400,294.020383,227,0.236458,60,C4,64,2
308480,294.103716,75,0.078125,76,E5,64,1
308560,294.187049,75,0.078125,72,C5,64,1
308640,294.270383,75,0.078125,69,A4,64,1
308640,294.270383,227,0.236458,57,A3,64,2
308720,294.353716,75,0.078125,72,C5,64,1
308800,294.437049,75,0.078125,76,E5,64,1
308880,294.520383,75,0.078125,77,F5,64,1
308880,294.520383,227,0.236458,60,C4,64,2
308960,294.603716,75,0.078125,76,E5,64,1
309040,294.687049,75,0.078125,72,C5,64,1
309120,294.770383,75,0.078125,69,A4,64,1
309120,294.770383,227,0.236458,57,A3,64,2
309200,294.853716,75,0.078125,72,C5,64,1
309280,294.937049,75,0.078125,76,E5,64,1
309360,295.020383,75,0.078125,77,F5,64,1
309360,295.020383,227,0.236458,60,C4,64,2
309440,295.103716,75,0.078125,76,E5,64,1
309520,295.187049,75,0.078125,72,C5,64,1
309600,295.270383,75,0.078125,69,A4,64,1
309600,295.270383,227,0.236458,57,A3,64,2
309680,295.353716,75,0.078125,72,C5,64,1
309760,295.437049,75,0.078125,76,E5,64,1
309840,295.520383,75,0.078125,77,F5,64,1
309840,295.520383,227,0.236458,60,C4,64,2
309920,295.603716,75,0.078125,76,E5,64,1
310000,295.687049,75,0.078125,72,C5,64,1
310080,295.770383,75,0.078125,69,A4,64,1
310080,295.770383,227,0.236458,57,A3,64,2
310160,295.853716,75,0.078125,72,C5,64,1
310240,295.937049,75,0.078125,76,E5,64,1
310320,296.020383,75,0.078125,77,F5,64,1
310320,296.020383,227,0.236458,60,C4,64,2
310400,296.103716,75,0.078125,76,E5,64,1
310480,296.187049,75,0.078125,72,C5,64,1
310560,296.270383,75,0.078125,69,A4,64,1
310560,296.270383,227,0.236458,57,A3,64,2
310640,296.353716,75,0.078125,72,C5,64,1
310720,296.437049,75,0.078125,76,E5,64,1
310800,296.520383,75,0.078125,77,F5,64,1
310800,296.520383,227,0.236458,60,C4,64,2
310880,296.603716,75,0.078125,76,E5,64,1
310960,296.687049,75,0.078125,72,C5,64,1
311040,296.770383,239,0.248958,57,A3,49,2
311040,296.770383,3839,3.998958,53,F3,49,2
311280,297.020383,239,0.248958,60,C4,49,2
311520,297.270383,239,0.248958,57,A3,49,2
311760,297.520383,239,0.248958,60,C4,49,2
312000,297.770383,239,0.248958,57,A3,49,2
312240,298.020383,239,0.248958,60,C4,49,2
312480,298.270383,239,0.248958,57,A3,49,2
312720,298.520383,227,0.236458,60,C4,49,2
312960,298.770383,239,0.248958,57,A3,49,2
313200,299.020383,239,0.248958,60,C4,49,2
313440,299.270383,239,0.248958,57,A3,49,2
313680,299.520383,239,0.248958,60,C4,49,2
313920,299.770383,239,0.248958,57,A3,49,2
314160,300.020383,239,0.248958,60,C4,49,2
314400,300.270383,239,0.248958,57,A3,49,2
314640,300.520383,227,0.236458,60,C4,49,2
314880,300.770383,3647,3.798958,36,C2,49,1
314880,300.770383,239,0.248958,57,A3,49,2
314880,300.770383,3839,3.998958,52,E3,49,2
315120,301.020383,239,0.248958,60,C4,49,2
315360,301.270383,239,0.248958,57,A3,49,2
315600,301.520383,239,0.248958,60,C4,49,2
315840,301.770383,239,0.248958,57,A3,49,2
316080,302.020383,239,0.248958,60,C4,49,2
316320,302.270383,239,0.248958,57,A3,49,2
316560,302.520383,227,0.236458,60,C4,49,2
316800,302.770383,239,0.248958,57,A3,49,2
317040,303.020383,239,0.248958,60,C4,49,2
317280,303.270383,239,0.248958,57,A3,49,2
317520,303.520383,239,0.248958,60,C4,49,2
317760,303.770383,239,0.248958,57,A3,49,2
318000,304.020383,239,0.248958,60,C4,49,2
318240,304.270383,239,0.248958,57,A3,49,2
318480,304.520383,227,0.236458,60,C4,49,2
318720,304.770383,79,0.082291,69,A4,64,1
318720,304.770383,239,0.248958,57,A3,64,2
318720,304.770383,3839,3.998958,53,F3,64,2
318800,304.853716,79,0.082292,72,C5,64,1
318880,304.937049,79,0.082292,76,E5,64,1
318960,305.020383,79,0.082291,77,F5,64,1
318960,305.020383,239,0.248958,60,C4,64,2
319040,305.103716,79,0.082292,76,E5,64,1
319120,305.187049,79,0.082292,72,C5,64,1
319200,305.270383,79,0.082291,69,A4,64,1
319200,305.270383,239,0.248958,57,A3,64,2
319280,305.353716,79,0.082292,72,C5,64,1
319360,305.437049,79,0.082292,76,E5,64,1
319440,305.520383,79,0.082291,77,F5,64,1
319440,305.520383,239,0.248958,60,C4,64,2
319520,305.603716,79,0.082292,76,E5,64,1
319600,305.687049,79,0.082292,72,C5,64,1
319680,305.770383,79,0.082291,69,A4,64,1
319680,305.770383,239,0.248958,57,A3,64,2
319760,305.853716,79,0.082292,72,C5,64,1
319840,305.937049,79,0.082292,76,E5,64,1
319920,306.020383,79,0.082291,77,F5,64,1
319920,306.020383,239,0.248958,60,C4,64,2
320000,306.103716,79,0.082292,76,E5,64,1
320080,306.187049,79,0.082292,72,C5,64,1
320160,306.270383,79,0.082291,69,A4,64,1
320160,306.270383,239,0.248958,57,A3,64,2
320240,306.353716,79,0.082292,72,C5,64,1
320320,306.437049,79,0.082292,76,E5,64,1
320400,306.520383,79,0.082291,77,F5,64,1
320400,306.520383,227,0.236458,60,C4,64,2
320480,306.603716,79,0.082292,76,E5,64,1
320560,306.687049,75,0.078125,72,C5,64,1
320640,306.770383,79,0.082291,69,A4,64,1
320640,306.770383,239,0.248958,57,A3,64,2
320720,306.853716,79,0.082292,72,C5,64,1
320800,306.937049,79,0.082292,76,E5,64,1
320880,307.020383,79,0.082291,77,F5,64,1
320880,307.020383,239,0.248958,60,C4,64,2
320960,307.103716,79,0.082292,76,E5,64,1
321040,307.187049,79,0.082292,72,C5,64,1
321120,307.270383,79,0.082291,69,A4,64,1
321120,307.270383,239,0.248958,57,A3,64,2
321200,307.353716,79,0.082292,72,C5,64,1
321280,307.437049,79,0.082292,76,E5,64,1
321360,307.520383,79,0.082291,77,F5,64,1
321360,307.520383,239,0.248958,60,C4,64,2
321440,307.603716,79,0.082292,76,E5,64,1
321520,307.687049,79,0.082292,72,C5,64,1
321600,307.770383,79,0.082291,69,A4,64,1
321600,307.770383,239,0.248958,57,A3,64,2
321680,307.853716,79,0.082292,72,C5,64,1
321760,307.937049,79,0.082292,76,E5,64,1
321840,308.020383,79,0.082291,77,F5,64,1
321840,308.020383,239,0.248958,60,C4,64,2
321920,308.103716,79,0.082292,76,E5,64,1
322000,308.187049,79,0.082292,72,C5,64,1
322080,308.270383,79,0.082291,69,A4,64,1
322080,308.270383,239,0.248958,57,A3,64,2
322160,308.353716,79,0.082292,72,C5,64,1
322240,308.437049,79,0.082292,76,E5,64,1
322320,308.520383,79,0.082291,77,F5,64,1
322320,308.520383,227,0.236458,60,C4,64,2
322400,308.603716,79,0.082292,76,E5,64,1
322480,308.687049,75,0.078125,72,C5,64,1
322560,308.770383,79,0.082291,69,A4,64,1
322560,308.770383,239,0.248958,57,A3,64,2
322560,308.770383,3839,3.998958,52,E3,64,2
322640,308.853716,79,0.082292,72,C5,64,1
322720,308.937049,79,0.082292,76,E5,64,1
322800,309.020383,79,0.082291,81,A5,64,1
322800,309.020383,239,0.248958,60,C4,64,2
322880,309.103716,79,0.082292,76,E5,64,1
322960,309.187049,79,0.082292,72,C5,64,1
323040,309.270383,79,0.082291,69,A4,64,1
323040,309.270383,239,0.248958,57,A3,64,2
323120,309.353716,79,0.082292,72,C5,64,1
323200,309.437049,79,0.082292,76,E5,64,1
323280,309.520383,79,0.082291,81,A5,64,1
323280,309.520383,239,0.248958,60,C4,64,2
323360,309.603716,79,0.082292,76,E5,64,1
323440,309.687049,79,0.082292,72,C5,64,1
323520,309.770383,79,0.082291,69,A4,64,1
323520,309.770383,239,0.248958,57,A3,64,2
323600,309.853716,79,0.082292,72,C5,64,1
323680,309.937049,79,0.082292,76,E5,64,1
323760,310.020383,79,0.082291,81,A5,64,1
323760,310.020383,239,0.248958,60,C4,64,2
323840,310.103716,79,0.082292,76,E5,64,1
323920,310.187049,79,0.082292,72,C5,64,1
324000,310.270383,79,0.082291,69,A4,64,1
324000,310.270383,239,0.248958,57,A3,64,2
324080,310.353716,79,0.082292,72,C5,64,1
324160,310.437049,79,0.082292,76,E5,64,1
324240,310.520383,79,0.082291,81,A5,64,1
324240,310.520383,227,0.236458,60,C4,64,2
324320,310.603716,79,0.082292,76,E5,64,1
324400,310.687049,75,0.078125,72,C5,64,1
324480,310.770383,79,0.082291,69,A4,64,1
324480,310.770383,239,0.248958,57,A3,64,2
324560,310.853716,79,0.082292,72,C5,64,1
324640,310.937049,79,0.082292,76,E5,64,1
324720,311.020383,79,0.082291,81,A5,64,1
324720,311.020383,239,0.248958,60,C4,64,2
324800,311.103716,79,0.082292,76,E5,64,1
324880,311.187049,79,0.082292,72,C5,64,1
324960,311.270383,79,0.082291,69,A4,64,1
324960,311.270383,239,0.248958,57,A3,64,2
325040,311.353716,79,0.082292,72,C5,64,1
325120,311.437049,79,0.082292,76,E5,64,1
325200,311.520383,79,0.082291,81,A5,64,1
325200,311.520383,239,0.248958,60,C4,64,2
325280,311.603716,79,0.082292,76,E5,64,1
325360,311.687049,79,0.082292,72,C5,64,1
325440,311.770383,79,0.082291,69,A4,64,1
325440,311.770383,239,0.248958,57,A3,64,2
325520,311.853716,79,0.082292,72,C5,64,1
325600,311.937049,79,0.082292,76,E5,64,1
325680,312.020383,79,0.082291,81,A5,64,1
325680,312.020383,239,0.248958,60,C4,64,2
325760,312.103716,79,0.082292,76,E5,64,1
325840,312.187049,79,0.082292,72,C5,64,1
325920,312.270383,79,0.082291,69,A4,64,1
325920,312.270383,239,0.248958,57,A3,64,2
326000,312.353716,79,0.082292,72,C5,64,1
326080,312.437049,79,0.082292,76,E5,64,1
326160,312.520383,79,0.082291,81,A5,64,1
326160,312.520383,227,0.236458,60,C4,64,2
326240,312.603716,79,0.082292,76,E5,64,1
326320,312.687049,75,0.078125,72,C5,64,1
326400,312.770383,79,0.082291,69,A4,64,1
326400,312.770383,239,0.248958,57,A3,64,2
326400,312.770383,3839,3.998958,53,F3,64,2
326480,312.853716,79,0.082292,72,C5,64,1
326560,312.937049,79,0.082292,76,E5,64,1
326640,313.020383,79,0.082291,77,F5,64,1
326640,313.020383,239,0.248958,60,C4,64,2
326720,313.103716,79,0.082292,76,E5,64,1
326800,313.187049,79,0.082292,72,C5,64,1
326880,313.270383,79,0.082291,69,A4,64,1
326880,313.270383,239,0.248958,57,A3,64,2
326960,313.353716,79,0.082292,72,C5,64,1
327040,313.437049,79,0.082292,76,E5,64,1
327120,313.520383,79,0.082291,77,F5,64,1
327120,313.520383,239,0.248958,60,C4,64,2
327200,313.603716,79,0.082292,76,E5,64,1
327280,313.687049,79,0.082292,72,C5,64,1
327360,313.770383,79,0.082291,69,A4,64,1
327360,313.770383,239,0.248958,57,A3,64,2
327440,313.853716,79,0.082292,72,C5,64,1
327520,313.937049,79,0.082292,76,E5,64,1
327600,314.020383,79,0.082291,77,F5,64,1
327600,314.020383,239,0.248958,60,C4,64,2
327680,314.103716,79,0.082292,76,E5,64,1
327760,314.187049,79,0.082292,72,C5,64,1
327840,314.270383,79,0.082291,69,A4,64,1
327840,314.270383,239,0.248958,57,A3,64,2
327920,314.353716,79,0.082292,72,C5,64,1
328000,314.437049,79,0.082292,76,E5,64,1
328080,314.520383,79,0.082291,77,F5,64,1
328080,314.520383,227,0.236458,60,C4,64,2
328160,314.603716,79,0.082292,76,E5,64,1
328240,314.687049,75,0.078125,72,C5,64,1
328320,314.770383,79,0.082291,69,A4,64,1
328320,314.770383,239,0.248958,57,A3,64,2
328400,314.853716,79,0.082292,72,C5,64,1
328480,314.937049,79,0.082292,76,E5,64,1
328560,315.020383,79,0.082291,77,F5,64,1
328560,315.020383,239,0.248958,60,C4,64,2
328640,315.103716,79,0.082292,76,E5,64,1
328720,315.187049,79,0.082292,72,C5,64,1
328800,315.270383,79,0.082291,69,A4,64,1
328800,315.270383,239,0.248958,57,A3,64,2
328880,315.353716,79,0.082292,72,C5,64,1
328960,315.437049,79,0.082292,76,E5,64,1
329040,315.520383,79,0.082291,77,F5,64,1
329040,315.520383,239,0.248958,60,C4,64,2
329120,315.603716,79,0.082292,76,E5,64,1
329200,315.687049,79,0.082292,72,C5,64,1
329280,315.770383,79,0.082291,69,A4,64,1
329280,315.770383,239,0.248958,57,A3,64,2
329360,315.853716,79,0.082292,72,C5,64,1
329440,315.937049,79,0.082292,76,E5,64,1
329520,316.020383,79,0.082291,77,F5,64,1
329520,316.020383,239,0.248958,60,C4,64,2
329600,316.103716,79,0.082292,76,E5,64,1
329680,316.187049,79,0.082292,72,C5,64,1
329760,316.270383,79,0.082291,69,A4,64,1
329760,316.270383,239,0.248958,57,A3,64,2
329840,316.353716,79,0.082292,72,C5,64,1
329920,316.437049,79,0.082292,76,E5,64,1
330000,316.520383,79,0.082291,77,F5,64,1
330000,316.520383,227,0.236458,60,C4,64,2
330080,316.603716,79,0.082292,76,E5,64,1
330160,316.687049,75,0.078125,72,C5,64,1
330240,316.770383,79,0.082291,69,A4,64,1
330240,316.770383,239,0.248958,57,A3,64,2
330240,316.770383,3839,3.998958,52,E3,64,2
330320,316.853716,79,0.082292,72,C5,64,1
330400,316.937049,79,0.082292,76,E5,64,1
330480,317.020383,79,0.082291,81,A5,64,1
330480,317.020383,239,0.248958,60,C4,64,2
330560,317.103716,79,0.082292,76,E5,64,1
330640,317.187049,79,0.082292,72,C5,64,1
330720,317.270383,79,0.082291,69,A4,64,1
330720,317.270383,239,0.248958,57,A3,64,2
330800,317.353716,79,0.082292,72,C5,64,1
330880,317.437049,79,0.082292,76,E5,64,1
330960,317.520383,79,0.082291,81,A5,64,1
330960,317.520383,239,0.248958,60,C4,64,2
331040,317.603716,79,0.082292,76,E5,64,1
331120,317.687049,79,0.082292,72,C5,64,1
331200,317.770383,79,0.082291,69,A4,64,1
331200,317.770383,239,0.248958,57,A3,64,2
331280,317.853716,79,0.082292,72,C5,64,1
331360,317.937049,79,0.082292,76,E5,64,1
331440,318.020383,79,0.082291,81,A5,64,1
331440,318.020383,239,0.248958,60,C4,64,2
331520,318.103716,79,0.082292,76,E5,64,1
331600,318.187049,79,0.082292,72,C5,64,1
331680,318.270383,79,0.082291,69,A4,64,1
331680,318.270383,239,0.248958,57,A3,64,2
331760,318.353716,79,0.082292,72,C5,64,1
331840,318.437049,79,0.082292,76,E5,64,1
331920,318.520383,79,0.082291,81,A5,64,1
331920,318.520383,227,0.236458,60,C4,64,2
332000,318.603716,79,0.082292,76,E5,64,1
332080,318.687049,75,0.078125,72,C5,64,1
332160,318.770383,79,0.082291,69,A4,64,1
332160,318.770383,239,0.248958,57,A3,64,2
332240,318.853716,79,0.082292,72,C5,64,1
332320,318.937049,79,0.082292,76,E5,64,1
332400,319.020383,79,0.082291,81,A5,64,1
332400,319.020383,239,0.248958,60,C4,64,2
332480,319.103716,79,0.082292,76,E5,64,1
332560,319.187049,79,0.082292,72,C5,64,1
332640,319.270383,79,0.082291,69,A4,64,1
332640,319.270383,239,0.248958,57,A3,64,2
332720,319.353716,79,0.082292,72,C5,64,1
332800,319.437049,79,0.082292,76,E5,64,1
332880,319.520383,79,0.082291,81,A5,64,1
332880,319.520383,239,0.248958,60,C4,64,2
332960,319.603716,79,0.082292,76,E5,64,1
333040,319.687049,79,0.082292,72,C5,64,1
333120,319.770383,79,0.082291,69,A4,64,1
333120,319.770383,239,0.248958,57,A3,64,2
333200,319.853716,79,0.082292,72,C5,64,1
333280,319.937049,79,0.082292,76,E5,64,1
333360,320.020383,79,0.082291,81,A5,64,1
333360,320.020383,239,0.248958,60,C4,64,2
333440,320.103716,79,0.082292,76,E5,64,1
333520,320.187049,79,0.082292,72,C5,64,1
333600,320.270383,79,0.082291,69,A4,64,1
333600,320.270383,239,0.248958,57,A3,64,2
333680,320.353716,79,0.082292,72,C5,64,1
333760,320.437049,79,0.082292,76,E5,64,1
333840,320.520383,79,0.082291,81,A5,64,1
333840,320.520383,227,0.236458,60,C4,64,2
333920,320.603716,79,0.082292,76,E5,64,1
334000,320.687049,75,0.078125,72,C5,64,1
334080,320.770383,79,0.082291,69,A4,64,1
334080,320.770383,239,0.248958,57,A3,64,2
334080,320.770383,1919,1.998958,53,F3,64,2
334160,320.853716,79,0.082292,72,C5,64,1
334240,320.937049,79,0.082292,76,E5,64,1
334320,321.020383,79,0.082291,77,F5,64,1
334320,321.020383,239,0.248958,60,C4,64,2
334400,321.103716,79,0.082292,76,E5,64,1
334480,321.187049,79,0.082292,72,C5,64,1
334560,321.270383,79,0.082291,69,A4,64,1
334560,321.270383,239,0.248958,57,A3,64,2
334640,321.353716,79,0.082292,72,C5,64,1
334720,321.437049,79,0.082292,76,E5,64,1
334800,321.520383,79,0.082291,77,F5,64,1
334800,321.520383,239,0.248958,60,C4,64,2
334880,321.603716,79,0.082292,76,E5,64,1
334960,321.687049,79,0.082292,72,C5,64,1
335040,321.770383,79,0.082291,69,A4,64,1
335040,321.770383,239,0.248958,57,A3,64,2
335120,321.853716,79,0.082292,72,C5,64,1
335200,321.937049,79,0.082292,76,E5,64,1
335280,322.020383,79,0.082291,77,F5,64,1
335280,322.020383,239,0.248958,60,C4,64,2
335360,322.103716,79,0.082292,76,E5,64,1
335440,322.187049,79,0.082292,72,C5,64,1
335520,322.270383,79,0.082291,69,A4,64,1
335520,322.270383,239,0.248958,57,A3,64,2
335600,322.353716,79,0.082292,72,C5,64,1
335680,322.437049,79,0.082292,76,E5,64,1
335760,322.520383,79,0.082291,77,F5,64,1
335760,322.520383,227,0.236458,60,C4,64,2
335840,322.603716,79,0.082292,76,E5,64,1
335920,322.687049,75,0.078125,72,C5,64,1
336000,322.770383,79,0.082291,67,G4,64,1
336000,322.770383,239,0.248958,57,A3,64,2
336000,322.770383,479,0.498958,55,G3,64,2
336080,322.853716,79,0.082292,72,C5,64,1
336160,322.937049,79,0.082292,76,E5,64,1
336240,323.020383,79,0.082291,77,F5,64,1
336240,323.020383,239,0.248958,60,C4,64,2
336320,323.103716,79,0.082292,76,E5,64,1
336400,323.187049,79,0.082292,72,C5,64,1
336480,323.270383,79,0.082291,67,G4,64,1
336480,323.270383,239,0.248958,57,A3,64,2
336480,323.270383,479,0.498958,55,G3,64,2
336560,323.353716,79,0.082292,72,C5,64,1
336640,323.437049,79,0.082292,76,E5,64,1
336720,323.520383,79,0.082291,77,F5,64,1
336720,323.520383,239,0.248958,60,C4,64,2
336800,323.603716,79,0.082292,76,E5,64,1
336880,323.687049,79,0.082292,72,C5,64,1
336960,323.770383,79,0.082291,69,A4,64,1
336960,323.770383,239,0.248958,57,A3,64,2
336960,323.770383,479,0.498958,53,F3,64,2
337040,323.853716,79,0.082292,72,C5,64,1
337120,323.937049,79,0.082292,76,E5,64,1
337200,324.020383,79,0.082291,77,F5,64,1
337200,324.020383,239,0.248958,60,C4,64,2
337280,324.103716,79,0.082292,76,E5,64,1
337360,324.187049,79,0.082292,72,C5,64,1
337440,324.270383,79,0.082291,69,A4,64,1
337440,324.270383,239,0.248958,57,A3,64,2
337440,324.270383,479,0.498958,53,F3,64,2
337520,324.353716,79,0.082292,72,C5,64,1
337600,324.437049,79,0.082292,76,E5,64,1
337680,324.520383,79,0.082291,77,F5,64,1
337680,324.520383,227,0.236458,60,C4,64,2
337760,324.603716,79,0.082292,76,E5,64,1
337840,324.687049,75,0.078125,72,C5,64,1
337920,324.770383,79,0.082291,69,A4,64,1
337920,324.770383,239,0.248958,57,A3,64,2
337920,324.770383,3839,3.998958,52,E3,64,2
338000,324.853716,79,0.082292,72,C5,64,1
338080,324.937049,79,0.082292,76,E5,64,1
338160,325.020383,79,0.082291,81,A5,64,1
338160,325.020383,239,0.248958,60,C4,64,2
338240,325.103716,79,0.082292,76,E5,64,1
338320,325.187049,79,0.082292,72,C5,64,1
338400,325.270383,79,0.082291,69,A4,64,1
338400,325.270383,239,0.248958,57,A3,64,2
338480,325.353716,79,0.082292,72,C5,64,1
338560,325.437049,79,0.082292,76,E5,64,1
338640,325.520383,79,0.082291,81,A5,64,1
338640,325.520383,239,0.248958,60,C4,64,2
338720,325.603716,79,0.082292,76,E5,64,1
338800,325.687049,79,0.082292,72,C5,64,1
338880,325.770383,79,0.082291,69,A4,64,1
338880,325.770383,239,0.248958,57,A3,64,2
338960,325.853716,79,0.082292,72,C5,64,1
339040,325.937049,79,0.082292,76,E5,64,1
339120,326.020383,79,0.082291,81,A5,64,1
339120,326.020383,239,0.248958,60,C4,64,2
339200,326.103716,79,0.082292,76,E5,64,1
339280,326.187049,79,0.082292,72,C5,64,1
339360,326.270383,79,0.082291,69,A4,64,1
339360,326.270383,239,0.248958,57,A3,64,2
339440,326.353716,79,0.082292,72,C5,64,1
339520,326.437049,79,0.082292,76,E5,64,1
339600,326.520383,79,0.082291,81,A5,64,1
339600,326.520383,227,0.236458,60,C4,64,2
339680,326.603716,79,0.082292,76,E5,64,1
339760,326.687049,75,0.078125,72,C5,64,1
339840,326.770383,79,0.082291,69,A4,64,1
339840,326.770383,239,0.248958,57,A3,64,2
339920,326.853716,79,0.082292,72,C5,64,1
340000,326.937049,79,0.082292,76,E5,64,1
340080,327.020383,79,0.082291,81,A5,64,1
340080,327.020383,239,0.248958,60,C4,64,2
340160,327.103716,79,0.082292,76,E5,64,1
340240,327.187049,79,0.082292,72,C5,64,1
340320,327.270383,79,0.082291,69,A4,64,1
340320,327.270383,239,0.248958,57,A3,64,2
340400,327.353716,79,0.082292,72,C5,64,1
340480,327.437049,79,0.082292,76,E5,64,1
340560,327.520383,79,0.082291,81,A5,64,1
340560,327.520383,239,0.248958,60,C4,64,2
340640,327.603716,79,0.082292,76,E5,64,1
340720,327.687049,79,0.082292,72,C5,64,1
340800,327.770383,79,0.082291,69,A4,64,1
340800,327.770383,239,0.248958,57,A3,64,2
340880,327.853716,79,0.082292,72,C5,64,1
340960,327.937049,79,0.082292,76,E5,64,1
341040,328.020383,79,0.082291,81,A5,64,1
341040,328.020383,239,0.248958,60,C4,64,2
341120,328.103716,79,0.082292,76,E5,64,1
341200,328.187049,79,0.082292,72,C5,64,1
341280,328.270383,79,0.082291,69,A4,64,1
341280,328.270383,239,0.248958,57,A3,64,2
341360,328.353716,79,0.082292,72,C5,64,1
341440,328.437049,79,0.082292,76,E5,64,1
341520,328.520383,79,0.082291,81,A5,64,1
341520,328.520383,227,0.236458,60,C4,64,2
341600,328.603716,79,0.082292,76,E5,64,1
341680,328.687049,75,0.078125,72,C5,64,1
341760,328.770383,79,0.082291,69,A4,64,1
341760,328.770383,239,0.248958,57,A3,64,2
341760,328.770383,1919,1.998958,53,F3,64,2
341840,328.853716,79,0.082292,72,C5,64,1
341920,328.937049,79,0.082292,76,E5,64,1
342000,329.020383,79,0.082291,77,F5,64,1
342000,329.020383,239,0.248958,60,C4,64,2
342080,329.103716,79,0.082292,76,E5,64,1
342160,329.187049,79,0.082292,72,C5,64,1
342240,329.270383,79,0.082291,69,A4,64,1
342240,329.270383,239,0.248958,57,A3,64,2
342320,329.353716,79,0.082292,72,C5,64,1
342400,329.437049,79,0.082292,76,E5,64,1
342480,329.520383,79,0.082291,77,F5,64,1
342480,329.520383,239,0.248958,60,C4,64,2
342560,329.603716,79,0.082292,76,E5,64,1
342640,329.687049,79,0.082292,72,C5,64,1
342720,329.770383,79,0.082291,69,A4,64,1
342720,329.770383,239,0.248958,57,A3,64,2
342800,329.853716,79,0.082292,72,C5,64,1
342880,329.937049,79,0.082292,76,E5,64,1
342960,330.020383,79,0.082291,77,F5,64,1
342960,330.020383,239,0.248958,60,C4,64,2
343040,330.103716,79,0.082292,76,E5,64,1
343120,330.187049,79,0.082292,72,C5,64,1
343200,330.270383,79,0.082291,69,A4,64,1
343200,330.270383,239,0.248958,57,A3,64,2
343280,330.353716,79,0.082292,72,C5,64,1
343360,330.437049,79,0.082292,76,E5,64,1
343440,330.520383,79,0.082291,77,F5,64,1
343440,330.520383,227,0.236458,60,C4,64,2
343520,330.603716,79,0.082292,76,E5,64,1
343600,330.687049,75,0.078125,72,C5,64,1
343680,330.770383,79,0.082291,67,G4,64,1
343680,330.770383,239,0.248958,57,A3,64,2
343680,330.770383,479,0.498958,55,G3,64,2
343760,330.853716,79,0.082292,72,C5,64,1
343840,330.937049,79,0.082292,76,E5,64,1
343920,331.020383,79,0.082291,77,F5,64,1
343920,331.020383,239,0.248958,60,C4,64,2
344000,331.103716,79,0.082292,76,E5,64,1
344080,331.187049,79,0.082292,72,C5,64,1
344160,331.270383,79,0.082291,67,G4,64,1
344160,331.270383,239,0.248958,57,A3,64,2
344160,331.270383,479,0.498958,55,G3,64,2
344240,331.353716,79,0.082292,72,C5,64,1
344320,331.437049,79,0.082292,76,E5,64,1
344400,331.520383,79,0.082291,77,F5,64,1
344400,331.520383,239,0.248958,60,C4,64,2
344480,331.603716,79,0.082292,76,E5,64,1
344560,331.687049,79,0.082292,72,C5,64,1
344640,331.770383,79,0.082291,69,A4,64,1
344640,331.770383,239,0.248958,57,A3,64,2
344640,331.770383,479,0.498958,53,F3,64,2
344720,331.853716,79,0.082292,72,C5,64,1
344800,331.937049,79,0.082292,76,E5,64,1
344880,332.020383,79,0.082291,77,F5,64,1
344880,332.020383,239,0.248958,60,C4,64,2
344960,332.103716,79,0.082292,76,E5,64,1
345040,332.187049,79,0.082292,72,C5,64,1
345120,332.270383,79,0.082291,69,A4,64,1
345120,332.270383,239,0.248958,57,A3,64,2
345120,332.270383,479,0.498958,53,F3,64,2
345200,332.353716,79,0.082292,72,C5,64,1
345280,332.437049,79,0.082292,76,E5,64,1
345360,332.520383,79,0.082291,77,F5,64,1
345360,332.520383,227,0.236458,60,C4,64,2
345440,332.603716,79,0.082292,76,E5,64,1
345520,332.687049,75,0.078125,72,C5,64,1
345600,332.770383,79,0.082291,69,A4,64,1
345600,332.770383,239,0.248958,57,A3,64,2
345600,332.770383,3839,3.998958,52,E3,64,2
345680,332.853716,79,0.082292,72,C5,64,1
345760,332.937049,79,0.082292,76,E5,64,1
345840,333.020383,79,0.082291,81,A5,64,1
345840,333.020383,239,0.248958,60,C4,64,2
345920,333.103716,79,0.082292,76,E5,64,1
346000,333.187049,79,0.082292,72,C5,64,1
346080,333.270383,79,0.082291,69,A4,64,1
346080,333.270383,239,0.248958,57,A3,64,2
346160,333.353716,79,0.082292,72,C5,64,1
346240,333.437049,79,0.082292,76,E5,64,1
346320,333.520383,79,0.082291,81,A5,64,1
346320,333.520383,239,0.248958,60,C4,64,2
346400,333.603716,79,0.082292,76,E5,64,1
346480,333.687049,79,0.082292,72,C5,64,1
346560,333.770383,79,0.082291,69,A4,64,1
346560,333.770383,239,0.248958,57,A3,64,2
346640,333.853716,79,0.082292,72,C5,64,1
346720,333.937049,79,0.082292,76,E5,64,1
346800,334.020383,79,0.082291,81,A5,64,1
346800,334.020383,239,0.248958,60,C4,64,2
346880,334.103716,79,0.082292,76,E5,64,1
346960,334.187049,79,0.082292,72,C5,64,1
347040,334.270383,79,0.082291,69,A4,64,1
347040,334.270383,239,0.248958,57,A3,64,2
347120,334.353716,79,0.082292,72,C5,64,1
347200,334.437049,79,0.082292,76,E5,64,1
347280,334.520383,79,0.082291,81,A5,64,1
347280,334.520383,227,0.236458,60,C4,64,2
347360,334.603716,79,0.082292,76,E5,64,1
347440,334.687049,75,0.078125,72,C5,64,1
347520,334.770383,79,0.082291,69,A4,64,1
347520,334.770383,239,0.248958,57,A3,64,2
347600,334.853716,79,0.082292,72,C5,64,1
347680,334.937049,79,0.082292,76,E5,64,1
347760,335.020383,79,0.082291,81,A5,64,1
347760,335.020383,239,0.248958,60,C4,64,2
347840,335.103716,79,0.082292,76,E5,64,1
347920,335.187049,79,0.082292,72,C5,64,1
348000,335.270383,79,0.082291,69,A4,64,1
348000,335.270383,239,0.248958,57,A3,64,2
348080,335.353716,79,0.082292,72,C5,64,1
348160,335.437049,79,0.082292,76,E5,64,1
348240,335.520383,79,0.082291,81,A5,64,1
348240,335.520383,239,0.248958,60,C4,64,2
348320,335.603716,79,0.082292,76,E5,64,1
348400,335.687049,79,0.082292,72,C5,64,1
348480,335.770383,79,0.082291,69,A4,64,1
348480,335.770383,239,0.248958,57,A3,64,2
348560,335.853716,79,0.082292,72,C5,64,1
348640,335.937049,79,0.082292,76,E5,64,1
348720,336.020383,79,0.082291,81,A5,64,1
348720,336.020383,239,0.248958,60,C4,64,2
348800,336.103716,79,0.082292,76,E5,64,1
348880,336.187049,79,0.082292,72,C5,64,1
348960,336.270383,79,0.082291,69,A4,64,1
348960,336.270383,239,0.248958,57,A3,64,2
349040,336.353716,79,0.082292,72,C5,64,1
349120,336.437049,79,0.082292,76,E5,64,1
349200,336.520383,79,0.082291,81,A5,64,1
349200,336.520383,227,0.236458,60,C4,64,2
349280,336.603716,79,0.082292,76,E5,64,1
349360,336.687049,75,0.078125,72,C5,64,1
349440,336.770383,75,0.078125,69,A4,64,1
349440,336.770383,227,0.236458,57,A3,64,2
349440,336.770383,1823,1.898958,53,F3,64,2
349520,336.853716,75,0.078125,72,C5,64,1
349600,336.937049,75,0.078125,76,E5,64,1
349680,337.020383,75,0.078125,77,F5,64,1
349680,337.020383,227,0.236458,60,C4,64,2
349760,337.103716,75,0.078125,76,E5,64,1
349840,337.187049,75,0.078125,72,C5,64,1
349920,337.270383,75,0.078125,69,A4,64,1
349920,337.270383,227,0.236458,57,A3,64,2
350000,337.353716,75,0.078125,72,C5,64,1
350080,337.437049,75,0.078125,76,E5,64,1
350160,337.520383,75,0.078125,77,F5,64,1
350160,337.520383,227,0.236458,60,C4,64,2
350240,337.603716,75,0.078125,76,E5,64,1
350320,337.687049,75,0.078125,72,C5,64,1
350400,337.770383,75,0.078125,69,A4,64,1
350400,337.770383,227,0.236458,57,A3,64,2
350480,337.853716,75,0.078125,72,C5,64,1
350560,337.937049,75,0.078125,76,E5,64,1
350640,338.020383,75,0.078125,77,F5,64,1
350640,338.020383,227,0.236458,60,C4,64,2
350720,338.103716,75,0.078125,76,E5,64,1
350800,338.187049,75,0.078125,72,C5,64,1
350880,338.270383,75,0.078125,69,A4,64,1
350880,338.270383,227,0.236458,57,A3,64,2
350960,338.353716,75,0.078125,72,C5,64,1
351040,338.437049,75,0.078125,76,E5,64,1
351120,338.520383,75,0.078125,77,F5,64,1
351120,338.520383,227,0.236458,60,C4,64,2
351200,338.603716,75,0.078125,76,E5,64,1
351280,338.687049,75,0.078125,72,C5,64,1
351360,338.770383,75,0.078125,67,G4,64,1
351360,338.770383,227,0.236458,57,A3,64,2
351360,338.770383,455,0.473958,55,G3,64,2
351440,338.853716,75,0.078125,72,C5,64,1
351520,338.937049,75,0.078125,76,E5,64,1
351600,339.020383,75,0.078125,77,F5,64,1
351600,339.020383,227,0.236458,60,C4,64,2
351680,339.103716,75,0.078125,76,E5,64,1
351760,339.187049,75,0.078125,72,C5,64,1
351840,339.270383,75,0.078125,67,G4,64,1
351840,339.270383,227,0.236458,57,A3,64,2
351840,339.270383,455,0.473958,55,G3,64,2
351920,339.353716,75,0.078125,72,C5,64,1
352000,339.437049,75,0.078125,76,E5,64,1
352080,339.520383,75,0.078125,77,F5,64,1
352080,339.520383,227,0.236458,60,C4,64,2
352160,339.603716,75,0.078125,76,E5,64,1
352240,339.687049,75,0.078125,72,C5,64,1
352320,339.770383,75,0.078125,69,A4,64,1
352320,339.770383,227,0.236458,57,A3,64,2
352320,339.770383,455,0.473958,53,F3,64,2
352400,339.853716,75,0.078125,72,C5,64,1
352480,339.937049,75,0.078125,76,E5,64,1
352560,340.020383,75,0.078125,77,F5,64,1
352560,340.020383,227,0.236458,60,C4,64,2
352640,340.103716,75,0.078125,76,E5,64,1
352720,340.187049,75,0.078125,72,C5,64,1
352800,340.270383,75,0.078125,69,A4,64,1
352800,340.270383,227,0.236458,57,A3,64,2
352800,340.270383,455,0.473958,53,F3,64,2
352880,340.353716,75,0.078125,72,C5,64,1
352960,340.437049,75,0.078125,76,E5,64,1
353040,340.520383,75,0.078125,77,F5,64,1
353040,340.520383,227,0.236458,60,C4,64,2
353120,340.603716,75,0.078125,76,E5,64,1
353200,340.687049,75,0.078125,72,C5,64,1
353280,340.770383,75,0.078125,69,A4,64,1
353280,340.770383,227,0.236458,57,A3,64,2
353280,340.770383,3647,3.798958,52,E3,64,2
353360,340.853716,75,0.078125,72,C5,64,1
353440,340.937049,75,0.078125,76,E5,64,1
353520,341.020383,75,0.078125,81,A5,64,1
353520,341.020383,227,0.236458,60,C4,64,2
353600,341.103716,75,0.078125,76,E5,64,1
353680,341.187049,75,0.078125,72,C5,64,1
353760,341.270383,75,0.078125,69,A4,64,1
353760,341.270383,227,0.236458,57,A3,64,2
353840,341.353716,75,0.078125,72,C5,64,1
353920,341.437049,75,0.078125,76,E5,64,1
354000,341.520383,75,0.078125,81,A5,64,1
354000,341.520383,227,0.236458,60,C4,64,2
354080,341.603716,75,0.078125,76,E5,64,1
354160,341.687049,75,0.078125,72,C5,64,1
354240,341.770383,75,0.078125,69,A4,64,1
354240,341.770383,227,0.236458,57,A3,64,2
354320,341.853716,75,0.078125,72,C5,64,1
354400,341.937049,75,0.078125,76,E5,64,1
354480,342.020383,75,0.078125,81,A5,64,1
354480,342.020383,227,0.236458,60,C4,64,2
354560,342.103716,75,0.078125,76,E5,64,1
354640,342.187049,75,0.078125,72,C5,64,1
354720,342.270383,75,0.078125,69,A4,64,1
354720,342.270383,227,0.236458,57,A3,64,2
354800,342.353716,75,0.078125,72,C5,64,1
354880,342.437049,75,0.078125,76,E5,64,1
354960,342.520383,75,0.078125,81,A5,64,1
354960,342.520383,227,0.236458,60,C4,64,2
355040,342.603716,75,0.078125,76,E5,64,1
355120,342.687049,75,0.078125,72,C5,64,1
355200,342.770383,75,0.078125,69,A4,64,1
355200,342.770383,227,0.236458,57,A3,64,2
355280,342.853716,75,0.078125,72,C5,64,1
355360,342.937049,75,0.078125,76,E5,64,1
355440,343.020383,75,0.078125,81,A5,64,1
355440,343.020383,227,0.236458,60,C4,64,2
355520,343.103716,75,0.078125,76,E5,64,1
355600,343.187049,75,0.078125,72,C5,64,1
355680,343.270383,75,0.078125,69,A4,64,1
355680,343.270383,227,0.236458,57,A3,64,2
355760,343.353716,75,0.078125,72,C5,64,1
355840,343.437049,75,0.078125,76,E5,64,1
355920,343.520383,75,0.078125,81,A5,64,1
355920,343.520383,227,0.236458,60,C4,64,2
356000,343.603716,75,0.078125,76,E5,64,1
356080,343.687049,75,0.078125,72,C5,64,1
356160,343.770383,75,0.078125,69,A4,64,1
356160,343.770383,227,0.236458,57,A3,64,2
356240,343.853716,75,0.078125,72,C5,64,1
356320,343.937049,75,0.078125,76,E5,64,1
356400,344.020383,75,0.078125,81,A5,64,1
356400,344.020383,227,0.236458,60,C4,64,2
356480,344.103716,75,0.078125,76,E5,64,1
356560,344.187049,75,0.078125,72,C5,64,1
356640,344.270383,75,0.078125,69,A4,64,1
356640,344.270383,227,0.236458,57,A3,64,2
356720,344.353716,75,0.078125,72,C5,64,1
356800,344.437049,75,0.078125,76,E5,64,1
356880,344.520383,75,0.078125,81,A5,64,1
356880,344.520383,227,0.236458,60,C4,64,2
356960,344.603716,75,0.078125,76,E5,64,1
357040,344.687049,75,0.078125,72,C5,64,1
357120,344.770383,75,0.078125,67,G4,64,1
357120,344.770383,227,0.236458,58,A3#,64,2
357120,344.770383,3647,3.798958,55,G3,64,2
357200,344.853716,75,0.078125,70,A4#,64,1
357280,344.937049,75,0.078125,74,D5,64,1
357360,345.020383,75,0.078125,77,F5,64,1
357360,345.020383,227,0.236458,62,D4,64,2
357440,345.103716,75,0.078125,74,D5,64,1
357520,345.187049,75,0.078125,70,A4#,64,1
357600,345.270383,75,0.078125,67,G4,64,1
357600,345.270383,227,0.236458,58,A3#,64,2
357680,345.353716,75,0.078125,70,A4#,64,1
357760,345.437049,75,0.078125,74,D5,64,1
357840,345.520383,75,0.078125,77,F5,64,1
357840,345.520383,227,0.236458,62,D4,64,2
357920,345.603716,75,0.078125,74,D5,64,1
358000,345.687049,75,0.078125,70,A4#,64,1
358080,345.770383,75,0.078125,67,G4,64,1
358080,345.770383,227,0.236458,58,A3#,64,2
358160,345.853716,75,0.078125,70,A4#,64,1
358240,345.937049,75,0.078125,74,D5,64,1
358320,346.020383,75,0.078125,77,F5,64,1
358320,346.020383,227,0.236458,62,D4,64,2
358400,346.103716,75,0.078125,74,D5,64,1
358480,346.187049,75,0.078125,70,A4#,64,1
358560,346.270383,75,0.078125,67,G4,64,1
358560,346.270383,227,0.236458,58,A3#,64,2
358640,346.353716,75,0.078125,70,A4#,64,1
358720,346.437049,75,0.078125,74,D5,64,1
358800,346.520383,75,0.078125,77,F5,64,1
358800,346.520383,227,0.236458,62,D4,64,2
358880,346.603716,75,0.078125,74,D5,64,1
358960,346.687049,75,0.078125,70,A4#,64,1
359040,346.770383,75,0.078125,67,G4,64,1
359040,346.770383,227,0.236458,58,A3#,64,2
359120,346.853716,75,0.078125,70,A4#,64,1
359200,346.937049,75,0.078125,74,D5,64,1
359280,347.020383,75,0.078125,77,F5,64,1
359280,347.020383,227,0.236458,62,D4,64,2
359360,347.103716,75,0.078125,74,D5,64,1
359440,347.187049,75,0.078125,70,A4#,64,1
359520,347.270383,75,0.078125,67,G4,64,1
359520,347.270383,227,0.236458,58,A3#,64,2
359600,347.353716,75,0.078125,70,A4#,64,1
359680,347.437049,75,0.078125,74,D5,64,1
359760,347.520383,75,0.078125,77,F5,64,1
359760,347.520383,227,0.236458,62,D4,64,2
359840,347.603716,75,0.078125,74,D5,64,1
359920,347.687049,75,0.078125,70,A4#,64,1
360000,347.770383,75,0.078125,67,G4,64,1
360000,347.770383,227,0.236458,58,A3#,64,2
360080,347.853716,75,0.078125,70,A4#,64,1
360160,347.937049,75,0.078125,74,D5,64,1
360240,348.020383,75,0.078125,77,F5,64,1
360240,348.020383,227,0.236458,62,D4,64,2
360320,348.103716,75,0.078125,74,D5,64,1
360400,348.187049,75,0.078125,70,A4#,64,1
360480,348.270383,75,0.078125,67,G4,64,1
360480,348.270383,227,0.236458,58,A3#,64,2
360560,348.353716,75,0.078125,70,A4#,64,1
360640,348.437049,75,0.078125,74,D5,64,1
360720,348.520383,75,0.078125,77,F5,64,1
360720,348.520383,227,0.236458,62,D4,64,2
360800,348.603716,75,0.078125,74,D5,64,1
360880,348.687049,75,0.078125,70,A4#,64,1
360960,348.770383,75,0.078125,69,A4,64,1
360960,348.770383,227,0.236458,57,A3,64,2
360960,348.770383,3647,3.798958,53,F3,64,2
361040,348.853716,75,0.078125,72,C5,64,1
361120,348.937049,75,0.078125,76,E5,64,1
361200,349.020383,75,0.078125,77,F5,64,1
361200,349.020383,227,0.236458,60,C4,64,2
361280,349.103716,75,0.078125,76,E5,64,1
361360,349.187049,75,0.078125,72,C5,64,1
361440,349.270383,75,0.078125,69,A4,64,1
361440,349.270383,227,0.236458,57,A3,64,2
361520,349.353716,75,0.078125,72,C5,64,1
361600,349.437049,75,0.078125,76,E5,64,1
361680,349.520383,75,0.078125,77,F5,64,1
361680,349.520383,227,0.236458,60,C4,64,2
361760,349.603716,75,0.078125,76,E5,64,1
361840,349.687049,75,0.078125,72,C5,64,1
361920,349.770383,75,0.078125,69,A4,64,1
361920,349.770383,227,0.236458,57,A3,64,2
362000,349.853716,75,0.078125,72,C5,64,1
362080,349.937049,75,0.078125,76,E5,64,1
362160,350.020383,75,0.078125,77,F5,64,1
362160,350.020383,227,0.236458,60,C4,64,2
362240,350.103716,75,0.078125,76,E5,64,1
362320,350.187049,75,0.078125,72,C5,64,1
362400,350.270383,75,0.078125,69,A4,64,1
362400,350.270383,227,0.236458,57,A3,64,2
362480,350.353716,75,0.078125,72,C5,64,1
362560,350.437049,75,0.078125,76,E5,64,1
362640,350.520383,75,0.078125,77,F5,64,1
362640,350.520383,227,0.236458,60,C4,64,2
362720,350.603716,75,0.078125,76,E5,64,1
362800,350.687049,75,0.078125,72,C5,64,1
362880,350.770383,75,0.078125,69,A4,64,1
362880,350.770383,227,0.236458,57,A3,64,2
362960,350.853716,75,0.078125,72,C5,64,1
363040,350.937049,75,0.078125,76,E5,64,1
363120,351.020383,75,0.078125,77,F5,64,1
363120,351.020383,227,0.236458,60,C4,64,2
363200,351.103716,75,0.078125,76,E5,64,1
363280,351.187049,75,0.078125,72,C5,64,1
363360,351.270383,75,0.078125,69,A4,64,1
363360,351.270383,227,0.236458,57,A3,64,2
363440,351.353716,75,0.078125,72,C5,64,1
363520,351.437049,75,0.078125,76,E5,64,1
363600,351.520383,75,0.078125,77,F5,64,1
363600,351.520383,227,0.236458,60,C4,64,2
363680,351.603716,75,0.078125,76,E5,64,1
363760,351.687049,75,0.078125,72,C5,64,1
363840,351.770383,75,0.078125,69,A4,64,1
363840,351.770383,227,0.236458,57,A3,64,2
363920,351.853716,75,0.078125,72,C5,64,1
364000,351.937049,75,0.078125,76,E5,64,1
364080,352.020383,75,0.078125,77,F5,64,1
364080,352.020383,227,0.236458,60,C4,64,2
364160,352.103716,75,0.078125,76,E5,64,1
364240,352.187049,75,0.078125,72,C5,64,1
364320,352.270383,75,0.078125,69,A4,64,1
364320,352.270383,227,0.236458,57,A3,64,2
364400,352.353716,75,0.078125,72,C5,64,1
364480,352.437049,75,0.078125,76,E5,64,1
364560,352.520383,75,0.078125,77,F5,64,1
364560,352.520383,227,0.236458,60,C4,64,2
364640,352.603716,75,0.078125,76,E5,64,1
364720,352.687049,75,0.078125,72,C5,64,1
364800,352.770383,75,0.078125,67,G4,64,1
364800,352.770383,227,0.236458,58,A3#,64,2
364800,352.770383,3647,3.798958,55,G3,64,2
364880,352.853716,75,0.078125,70,A4#,64,1
364960,352.937049,75,0.078125,74,D5,64,1
365040,353.020383,75,0.078125,77,F5,64,1
365040,353.020383,227,0.236458,62,D4,64,2
365120,353.103716,75,0.078125,74,D5,64,1
365200,353.187049,75,0.078125,70,A4#,64,1
365280,353.270383,75,0.078125,67,G4,64,1
365280,353.270383,227,0.236458,58,A3#,64,2
365360,353.353716,75,0.078125,70,A4#,64,1
365440,353.437049,75,0.078125,74,D5,64,1
365520,353.520383,75,0.078125,77,F5,64,1
365520,353.520383,227,0.236458,62,D4,64,2
365600,353.603716,75,0.078125,74,D5,64,1
365680,353.687049,75,0.078125,70,A4#,64,1
365760,353.770383,75,0.078125,67,G4,64,1
365760,353.770383,227,0.236458,58,A3#,64,2
365840,353.853716,75,0.078125,70,A4#,64,1
365920,353.937049,75,0.078125,74,D5,64,1
366000,354.020383,75,0.078125,77,F5,64,1
366000,354.020383,227,0.236458,62,D4,64,2
366080,354.103716,75,0.078125,74,D5,64,1
366160,354.187049,75,0.078125,70,A4#,64,1
366240,354.270383,75,0.078125,67,G4,64,1
366240,354.270383,227,0.236458,58,A3#,64,2
366320,354.353716,75,0.078125,70,A4#,64,1
366400,354.437049,75,0.078125,74,D5,64,1
366480,354.520383,75,0.078125,77,F5,64,1
366480,354.520383,227,0.236458,62,D4,64,2
366560,354.603716,75,0.078125,74,D5,64,1
366640,354.687049,75,0.078125,70,A4#,64,1
366720,354.770383,75,0.078125,67,G4,64,1
366720,354.770383,227,0.236458,58,A3#,64,2
366800,354.853716,75,0.078125,70,A4#,64,1
366880,354.937049,75,0.078125,74,D5,64,1
366960,355.020383,75,0.078125,77,F5,64,1
366960,355.020383,227,0.236458,62,D4,64,2
367040,355.103716,75,0.078125,74,D5,64,1
367120,355.187049,75,0.078125,70,A4#,64,1
367200,355.270383,75,0.078125,67,G4,64,1
367200,355.270383,227,0.236458,58,A3#,64,2
367280,355.353716,75,0.078125,70,A4#,64,1
367360,355.437049,75,0.078125,74,D5,64,1
367440,355.520383,75,0.078125,77,F5,64,1
367440,355.520383,227,0.236458,62,D4,64,2
367520,355.603716,75,0.078125,74,D5,64,1
367600,355.687049,75,0.078125,70,A4#,64,1
367680,355.770383,75,0.078125,67,G4,64,1
367680,355.770383,227,0.236458,58,A3#,64,2
367760,355.853716,75,0.078125,70,A4#,64,1
367840,355.937049,75,0.078125,74,D5,64,1
367920,356.020383,75,0.078125,77,F5,64,1
367920,356.020383,227,0.236458,62,D4,64,2
368000,356.103716,75,0.078125,74,D5,64,1
368080,356.187049,75,0.078125,70,A4#,64,1
368160,356.270383,75,0.078125,67,G4,64,1
368160,356.270383,227,0.236458,58,A3#,64,2
368240,356.353716,75,0.078125,70,A4#,64,1
368320,356.437049,75,0.078125,74,D5,64,1
368400,356.520383,75,0.078125,77,F5,64,1
368400,356.520383,227,0.236458,62,D4,64,2
368480,356.603716,75,0.078125,74,D5,64,1
368560,356.687049,75,0.078125,70,A4#,64,1
368640,356.770383,75,0.078125,69,A4,64,1
368640,356.770383,227,0.236458,57,A3,64,2
368640,356.770383,3647,3.798958,53,F3,64,2
368720,356.853716,75,0.078125,72,C5,64,1
368800,356.937049,75,0.078125,76,E5,64,1
368880,357.020383,75,0.078125,77,F5,64,1
368880,357.020383,227,0.236458,60,C4,64,2
368960,357.103716,75,0.078125,76,E5,64,1
369040,357.187049,75,0.078125,72,C5,64,1
369120,357.270383,75,0.078125,69,A4,64,1
369120,357.270383,227,0.236458,57,A3,64,2
369200,357.353716,75,0.078125,72,C5,64,1
369280,357.437049,75,0.078125,76,E5,64,1
369360,357.520383,75,0.078125,77,F5,64,1
369360,357.520383,227,0.236458,60,C4,64,2
369440,357.603716,75,0.078125,76,E5,64,1
369520,357.687049,75,0.078125,72,C5,64,1
369600,357.770383,75,0.078125,69,A4,64,1
369600,357.770383,227,0.236458,57,A3,64,2
369680,357.853716,75,0.078125,72,C5,64,1
369760,357.937049,75,0.078125,76,E5,64,1
369840,358.020383,75,0.078125,77,F5,64,1
369840,358.020383,227,0.236458,60,C4,64,2
369920,358.103716,75,0.078125,76,E5,64,1
370000,358.187049,75,0.078125,72,C5,64,1
370080,358.270383,75,0.078125,69,A4,64,1
370080,358.270383,227,0.236458,57,A3,64,2
370160,358.353716,75,0.078125,72,C5,64,1
370240,358.437049,75,0.078125,76,E5,64,1
370320,358.520383,75,0.078125,77,F5,64,1
370320,358.520383,227,0.236458,60,C4,64,2
370400,358.603716,75,0.078125,76,E5,64,1
370480,358.687049,75,0.078125,72,C5,64,1
370560,358.770383,75,0.078125,69,A4,64,1
370560,358.770383,227,0.236458,57,A3,64,2
370640,358.853716,75,0.078125,72,C5,64,1
370720,358.937049,75,0.078125,76,E5,64,1
370800,359.020383,75,0.078125,77,F5,64,1
370800,359.020383,227,0.236458,60,C4,64,2
370880,359.103716,75,0.078125,76,E5,64,1
370960,359.187049,75,0.078125,72,C5,64,1
371040,359.270383,75,0.078125,69,A4,64,1
371040,359.270383,227,0.236458,57,A3,64,2
371120,359.353716,75,0.078125,72,C5,64,1
371200,359.437049,75,0.078125,76,E5,64,1
371280,359.520383,75,0.078125,77,F5,64,1
371280,359.520383,227,0.236458,60,C4,64,2
371360,359.603716,75,0.078125,76,E5,64,1
371440,359.687049,75,0.078125,72,C5,64,1
371520,359.770383,75,0.078125,69,A4,64,1
371520,359.770383,227,0.236458,57,A3,64,2
371600,359.853716,75,0.078125,72,C5,64,1
371680,359.937049,75,0.078125,76,E5,64,1
371760,360.020383,75,0.078125,77,F5,64,1
371760,360.020383,227,0.236458,60,C4,64,2
371840,360.103716,75,0.078125,76,E5,64,1
371920,360.187049,75,0.078125,72,C5,64,1
372000,360.270383,75,0.078125,69,A4,64,1
372000,360.270383,227,0.236458,57,A3,64,2
372080,360.353716,75,0.078125,72,C5,64,1
372160,360.437049,75,0.078125,76,E5,64,1
372240,360.520383,75,0.078125,77,F5,64,1
372240,360.520383,227,0.236458,60,C4,64,2
372320,360.603716,75,0.078125,76,E5,64,1
372400,360.687049,75,0.078125,72,C5,64,1
372480,360.770383,75,0.078125,67,G4,64,1
372480,360.770383,227,0.236458,58,A3#,64,2
372480,360.770383,1823,1.898958,55,G3,64,2
372560,360.853716,75,0.078125,70,A4#,64,1
372640,360.937049,75,0.078125,74,D5,64,1
372720,361.020383,75,0.078125,77,F5,64,1
372720,361.020383,227,0.236458,62,D4,64,2
372800,361.103716,75,0.078125,74,D5,64,1
372880,361.187049,75,0.078125,70,A4#,64,1
372960,361.270383,75,0.078125,67,G4,64,1
372960,361.270383,227,0.236458,58,A3#,64,2
373040,361.353716,75,0.078125,70,A4#,64,1
373120,361.437049,75,0.078125,74,D5,64,1
373200,361.520383,75,0.078125,77,F5,64,1
373200,361.520383,227,0.236458,62,D4,64,2
373280,361.603716,75,0.078125,74,D5,64,1
373360,361.687049,75,0.078125,70,A4#,64,1
373440,361.770383,75,0.078125,67,G4,64,1
373440,361.770383,227,0.236458,58,A3#,64,2
373520,361.853716,75,0.078125,70,A4#,64,1
373600,361.937049,75,0.078125,74,D5,64,1
373680,362.020383,75,0.078125,77,F5,64,1
373680,362.020383,227,0.236458,62,D4,64,2
373760,362.103716,75,0.078125,74,D5,64,1
373840,362.187049,75,0.078125,70,A4#,64,1
373920,362.270383,75,0.078125,67,G4,64,1
373920,362.270383,227,0.236458,58,A3#,64,2
374000,362.353716,75,0.078125,70,A4#,64,1
374080,362.437049,75,0.078125,74,D5,64,1
374160,362.520383,75,0.078125,77,F5,64,1
374160,362.520383,227,0.236458,62,D4,64,2
374240,362.603716,75,0.078125,74,D5,64,1
374320,362.687049,75,0.078125,70,A4#,64,1
374400,362.770383,75,0.078125,69,A4,64,1
374400,362.770383,227,0.236458,58,A3#,64,2
374400,362.770383,455,0.473958,53,F3,64,2
374480,362.853716,75,0.078125,72,C5,64,1
374560,362.937049,75,0.078125,76,E5,64,1
374640,363.020383,75,0.078125,77,F5,64,1
374640,363.020383,227,0.236458,62,D4,64,2
374720,363.103716,75,0.078125,76,E5,64,1
374800,363.187049,75,0.078125,72,C5,64,1
374880,363.270383,75,0.078125,69,A4,64,1
374880,363.270383,227,0.236458,58,A3#,64,2
374880,363.270383,455,0.473958,53,F3,64,2
374960,363.353716,75,0.078125,72,C5,64,1
375040,363.437049,75,0.078125,76,E5,64,1
375120,363.520383,75,0.078125,77,F5,64,1
375120,363.520383,227,0.236458,62,D4,64,2
375200,363.603716,75,0.078125,76,E5,64,1
375280,363.687049,75,0.078125,72,C5,64,1
375360,363.770383,75,0.078125,69,A4,64,1
375360,363.770383,227,0.236458,58,A3#,64,2
375360,363.770383,455,0.473958,55,G3,64,2
375440,363.853716,75,0.078125,72,C5,64,1
375520,363.937049,75,0.078125,76,E5,64,1
375600,364.020383,75,0.078125,77,F5,64,1
375600,364.020383,227,0.236458,62,D4,64,2
375680,364.103716,75,0.078125,76,E5,64,1
375760,364.187049,75,0.078125,72,C5,64,1
375840,364.270383,75,0.078125,69,A4,64,1
375840,364.270383,227,0.236458,58,A3#,64,2
375840,364.270383,455,0.473958,55,G3,64,2
375920,364.353716,75,0.078125,72,C5,64,1
376000,364.437049,75,0.078125,76,E5,64,1
376080,364.520383,75,0.078125,77,F5,64,1
376080,364.520383,227,0.236458,62,D4,64,2
376160,364.603716,75,0.078125,76,E5,64,1
376240,364.687049,75,0.078125,72,C5,64,1
376320,364.770383,75,0.078125,69,A4,64,1
376320,364.770383,227,0.236458,57,A3,64,2
376320,364.770383,3647,3.798958,53,F3,64,2
376400,364.853716,75,0.078125,72,C5,64,1
376480,364.937049,75,0.078125,76,E5,64,1
376560,365.020383,75,0.078125,77,F5,64,1
376560,365.020383,227,0.236458,60,C4,64,2
376640,365.103716,75,0.078125,76,E5,64,1
376720,365.187049,75,0.078125,72,C5,64,1
376800,365.270383,75,0.078125,69,A4,64,1
376800,365.270383,227,0.236458,57,A3,64,2
376880,365.353716,75,0.078125,72,C5,64,1
376960,365.437049,75,0.078125,76,E5,64,1
377040,365.520383,75,0.078125,77,F5,64,1
377040,365.520383,227,0.236458,60,C4,64,2
377120,365.603716,75,0.078125,76,E5,64,1
377200,365.687049,75,0.078125,72,C5,64,1
377280,365.770383,75,0.078125,69,A4,64,1
377280,365.770383,227,0.236458,57,A3,64,2
377360,365.853716,75,0.078125,72,C5,64,1
377440,365.937049,75,0.078125,76,E5,64,1
377520,366.020383,75,0.078125,77,F5,64,1
377520,366.020383,227,0.236458,60,C4,64,2
377600,366.103716,75,0.078125,76,E5,64,1
377680,366.187049,75,0.078125,72,C5,64,1
377760,366.270383,75,0.078125,69,A4,64,1
377760,366.270383,227,0.236458,57,A3,64,2
377840,366.353716,75,0.078125,72,C5,64,1
377920,366.437049,75,0.078125,76,E5,64,1
378000,366.520383,75,0.078125,77,F5,64,1
378000,366.520383,227,0.236458,60,C4,64,2
378080,366.603716,75,0.078125,76,E5,64,1
378160,366.687049,75,0.078125,72,C5,64,1
378240,366.770383,75,0.078125,69,A4,64,1
378240,366.770383,227,0.236458,57,A3,64,2
378320,366.853716,75,0.078125,72,C5,64,1
378400,366.937049,75,0.078125,76,E5,64,1
378480,367.020383,75,0.078125,77,F5,64,1
378480,367.020383,227,0.236458,60,C4,64,2
378560,367.103716,75,0.078125,76,E5,64,1
378640,367.187049,75,0.078125,72,C5,64,1
378720,367.270383,75,0.078125,69,A4,64,1
378720,367.270383,227,0.236458,57,A3,64,2
378800,367.353716,75,0.078125,72,C5,64,1
378880,367.437049,75,0.078125,76,E5,64,1
378960,367.520383,75,0.078125,77,F5,64,1
378960,367.520383,227,0.236458,60,C4,64,2
379040,367.603716,75,0.078125,76,E5,64,1
379120,367.687049,75,0.078125,72,C5,64,1
379200,367.770383,75,0.078125,69,A4,64,1
379200,367.770383,227,0.236458,57,A3,64,2
379280,367.853716,75,0.078125,72,C5,64,1
379360,367.937049,75,0.078125,76,E5,64,1
379440,368.020383,75,0.078125,77,F5,64,1
379440,368.020383,227,0.236458,60,C4,64,2
379520,368.103716,75,0.078125,76,E5,64,1
379600,368.187049,75,0.078125,72,C5,64,1
379680,368.270383,75,0.078125,69,A4,64,1
379680,368.270383,227,0.236458,57,A3,64,2
379760,368.353716,75,0.078125,72,C5,64,1
379840,368.437049,75,0.078125,76,E5,64,1
379920,368.520383,75,0.078125,77,F5,64,1
379920,368.520383,227,0.236458,60,C4,64,2
380000,368.603716,75,0.078125,76,E5,64,1
380080,368.687049,75,0.078125,72,C5,64,1
380160,368.770383,239,0.248958,57,A3,49,2
380160,368.770383,3839,3.998958,53,F3,49,2
380400,369.020383,239,0.248958,60,C4,49,2
380640,369.270383,239,0.248958,57,A3,49,2
380880,369.520383,239,0.248958,60,C4,49,2
381120,369.770383,239,0.248958,57,A3,49,2
381360,370.020383,239,0.248958,60,C4,49,2
381600,370.270383,239,0.248958,57,A3,49,2
381840,370.520383,227,0.236458,60,C4,49,2
382080,370.770383,239,0.248958,57,A3,49,2
382320,371.020383,239,0.248958,60,C4,49,2
382560,371.270383,239,0.248958,57,A3,49,2
382800,371.520383,239,0.248958,60,C4,49,2
383040,371.770383,239,0.248958,57,A3,49,2
383280,372.020383,239,0.248958,60,C4,49,2
383520,372.270383,239,0.248958,57,A3,49,2
383760,372.520383,227,0.236458,60,C4,49,2
384000,372.770383,3647,4.774621,36,C2,49,1
384000,372.770383,239,0.248958,57,A3,49,2
384000,372.770383,3839,7.174617,52,E3,49,2
384240,373.020383,239,0.248958,60,C4,49,2
384480,373.270383,239,0.248958,57,A3,49,2
384720,373.520383,239,0.248958,60,C4,49,2
384960,373.770383,239,0.248958,57,A3,49,2
385200,374.020383,239,0.248958,60,C4,49,2
385440,374.270383,239,0.248958,57,A3,49,2
385680,374.520383,227,0.236458,60,C4,49,2
385920,374.770383,239,0.271591,57,A3,49,2
386160,375.043111,239,0.271591,60,C4,47,2
386400,375.315839,239,0.298749,57,A3,45,2
386640,375.615838,239,0.29875,60,C4,43,2
386880,375.915838,239,0.331944,57,A3,40,2
387120,376.249171,239,0.331945,60,C4,38,2
387360,376.582505,239,0.373438,57,A3,36,2
387600,376.957506,227,2.837494,60,C4,33,2
387840,379.9575,119,0.082638,69,A4,96,1
387840,379.9575,119,0.082638,53,F3,96,2
387960,380.040833,119,0.082639,72,C5,96,1
387960,380.040833,119,0.082639,48,C3,96,2
388080,380.124166,119,0.082639,76,E5,96,1
388080,380.124166,119,0.082639,45,A2,96,2
388200,380.207499,119,0.082639,77,F5,96,1
388200,380.207499,119,0.082639,41,F2,96,2
388320,380.290833,119,0.082638,76,E5,96,1
388320,380.290833,119,0.082638,45,A2,96,2
388440,380.374166,113,0.078472,72,C5,96,1
388440,380.374166,113,0.078472,48,C3,96,2
388560,380.457499,119,0.082639,69,A4,96,1
388560,380.457499,119,0.082639,53,F3,96,2
388680,380.540832,119,0.082639,72,C5,96,1
388680,380.540832,119,0.082639,48,C3,96,2
388800,380.624166,119,0.082638,76,E5,96,1
388800,380.624166,119,0.082638,45,A2,96,2
388920,380.707499,119,0.082639,77,F5,96,1
388920,380.707499,119,0.082639,41,F2,96,2
389040,380.790832,119,0.082639,76,E5,96,1
389040,380.790832,119,0.082639,45,A2,96,2
389160,380.874165,113,0.078472,72,C5,96,1
389160,380.874165,113,0.078472,48,C3,96,2
389280,380.957499,119,0.082638,69,A4,96,1
389280,380.957499,119,0.082638,53,F3,96,2
389400,381.040832,119,0.082639,72,C5,96,1
389400,381.040832,119,0.082639,48,C3,96,2
389520,381.124165,119,0.082639,76,E5,96,1
389520,381.124165,119,0.082639,45,A2,96,2
389640,381.207498,119,0.082639,77,F5,96,1
389640,381.207498,119,0.082639,41,F2,96,2
389760,381.290832,119,0.082638,76,E5,96,1
389760,381.290832,119,0.082638,45,A2,96,2
389880,381.374165,113,0.078472,72,C5,96,1
389880,381.374165,113,0.078472,48,C3,96,2
390000,381.457498,119,0.082639,69,A4,96,1
390000,381.457498,119,0.082639,53,F3,96,2
390120,381.540831,119,0.082639,72,C5,96,1
390120,381.540831,119,0.082639,48,C3,96,2
390240,381.624165,119,0.082638,76,E5,96,1
390240,381.624165,119,0.082638,45,A2,96,2
390360,381.707498,119,0.082639,77,F5,96,1
390360,381.707498,119,0.082639,41,F2,96,2
390480,381.790831,119,0.082639,76,E5,96,1
390480,381.790831,119,0.082639,45,A2,96,2
390600,381.874164,113,0.078472,72,C5,96,1
390600,381.874164,113,0.078472,48,C3,96,2
390720,381.957498,119,0.082638,69,A4,96,1
390720,381.957498,119,0.082638,53,F3,96,2
390840,382.040831,119,0.082639,72,C5,96,1
390840,382.040831,119,0.082639,48,C3,96,2
390960,382.124164,119,0.082639,76,E5,96,1
390960,382.124164,119,0.082639,45,A2,96,2
391080,382.207497,119,0.082639,77,F5,96,1
391080,382.207497,119,0.082639,41,F2,96,2
391200,382.290831,119,0.082638,76,E5,96,1
391200,382.290831,119,0.082638,45,A2,96,2
391320,382.374164,113,0.078472,72,C5,96,1
391320,382.374164,113,0.078472,48,C3,96,2
391440,382.457497,119,0.082639,69,A4,96,1
391440,382.457497,119,0.082639,53,F3,96,2
391560,382.54083,119,0.082639,72,C5,96,1
391560,382.54083,119,0.082639,48,C3,96,2
391680,382.624164,119,0.082638,76,E5,96,1
391680,382.624164,119,0.082638,45,A2,96,2
391800,382.707497,119,0.082639,77,F5,96,1
391800,382.707497,119,0.082639,41,F2,96,2
391920,382.79083,119,0.082639,76,E5,96,1
391920,382.79083,119,0.082639,45,A2,96,2
392040,382.874163,113,0.078472,72,C5,96,1
392040,382.874163,113,0.078472,48,C3,96,2
392160,382.957497,119,0.082638,69,A4,96,1
392160,382.957497,119,0.082638,53,F3,96,2
392280,383.04083,119,0.082639,72,C5,96,1
392280,383.04083,119,0.082639,48,C3,96,2
392400,383.124163,119,0.082639,76,E5,96,1
392400,383.124163,119,0.082639,45,A2,96,2
392520,383.207496,119,0.082639,77,F5,96,1
392520,383.207496,119,0.082639,41,F2,96,2
392640,383.29083,119,0.082638,76,E5,96,1
392640,383.29083,119,0.082638,45,A2,96,2
392760,383.374163,113,0.078472,72,C5,96,1
392760,383.374163,113,0.078472,48,C3,96,2
392880,383.457496,119,0.082639,69,A4,96,1
392880,383.457496,119,0.082639,53,F3,96,2
393000,383.540829,119,0.082639,72,C5,96,1
393000,383.540829,119,0.082639,48,C3,96,2
393120,383.624163,119,0.082638,76,E5,96,1
393120,383.624163,119,0.082638,45,A2,96,2
393240,383.707496,119,0.082639,77,F5,96,1
393240,383.707496,119,0.082639,41,F2,96,2
393360,383.790829,119,0.082639,76,E5,96,1
393360,383.790829,119,0.082639,45,A2,96,2
393480,383.874162,113,0.078472,72,C5,96,1
393480,383.874162,113,0.078472,48,C3,96,2
393600,383.957496,119,0.082638,69,A4,96,1
393600,383.957496,119,0.082638,52,E3,96,2
393720,384.040829,119,0.082639,72,C5,96,1
393720,384.040829,119,0.082639,48,C3,96,2
393840,384.124162,119,0.082639,76,E5,96,1
393840,384.124162,119,0.082639,45,A2,96,2
393960,384.207495,119,0.082639,81,A5,96,1
393960,384.207495,119,0.082639,40,E2,96,2
394080,384.290829,119,0.082638,76,E5,96,1
394080,384.290829,119,0.082638,45,A2,96,2
394200,384.374162,113,0.078472,72,C5,96,1
394200,384.374162,113,0.078472,48,C3,96,2
394320,384.457495,119,0.082639,69,A4,96,1
394320,384.457495,119,0.082639,52,E3,96,2
394440,384.540828,119,0.082639,72,C5,96,1
394440,384.540828,119,0.082639,48,C3,96,2
394560,384.624162,119,0.082638,76,E5,96,1
394560,384.624162,119,0.082638,45,A2,96,2
394680,384.707495,119,0.082639,81,A5,96,1
394680,384.707495,119,0.082639,40,E2,96,2
394800,384.790828,119,0.082639,76,E5,96,1
394800,384.790828,119,0.082639,45,A2,96,2
394920,384.874161,113,0.078472,72,C5,96,1
394920,384.874161,113,0.078472,48,C3,96,2
395040,384.957495,119,0.082638,69,A4,96,1
395040,384.957495,119,0.082638,52,E3,96,2
395160,385.040828,119,0.082639,72,C5,96,1
395160,385.040828,119,0.082639,48,C3,96,2
395280,385.124161,119,0.082639,76,E5,96,1
395280,385.124161,119,0.082639,45,A2,96,2
395400,385.207494,119,0.082639,81,A5,96,1
395400,385.207494,119,0.082639,40,E2,96,2
395520,385.290828,119,0.082638,76,E5,96,1
395520,385.290828,119,0.082638,45,A2,96,2
395640,385.374161,113,0.078472,72,C5,96,1
395640,385.374161,113,0.078472,48,C3,96,2
395760,385.457494,119,0.082639,69,A4,96,1
395760,385.457494,119,0.082639,52,E3,96,2
395880,385.540827,119,0.082639,72,C5,96,1
395880,385.540827,119,0.082639,48,C3,96,2
396000,385.624161,119,0.082638,76,E5,96,1
396000,385.624161,119,0.082638,45,A2,96,2
396120,385.707494,119,0.082639,81,A5,96,1
396120,385.707494,119,0.082639,40,E2,96,2
396240,385.790827,119,0.082639,76,E5,96,1
396240,385.790827,119,0.082639,45,A2,96,2
396360,385.87416,113,0.078472,72,C5,96,1
396360,385.87416,113,0.078472,48,C3,96,2
396480,385.957494,119,0.082638,69,A4,96,1
396480,385.957494,119,0.082638,52,E3,96,2
396600,386.040827,119,0.082639,72,C5,96,1
396600,386.040827,119,0.082639,48,C3,96,2
396720,386.12416,119,0.082639,76,E5,96,1
396720,386.12416,119,0.082639,45,A2,96,2
396840,386.207493,119,0.082639,81,A5,96,1
396840,386.207493,119,0.082639,40,E2,96,2
396960,386.290827,119,0.082638,76,E5,96,1
396960,386.290827,119,0.082638,45,A2,96,2
397080,386.37416,119,0.082639,81,A5,96,1
397080,386.37416,119,0.082639,40,E2,96,2
397200,386.457493,119,0.082639,76,E5,96,1
397200,386.457493,119,0.082639,45,A2,96,2
397320,386.540826,113,0.078472,72,C5,96,1
397320,386.540826,113,0.078472,48,C3,96,2
397440,386.62416,119,0.082638,69,A4,96,1
397440,386.62416,119,0.082638,52,E3,96,2
397560,386.707493,119,0.082639,72,C5,96,1
397560,386.707493,119,0.082639,48,C3,96,2
397680,386.790826,119,0.082639,76,E5,96,1
397680,386.790826,119,0.082639,45,A2,96,2
397800,386.874159,119,0.082639,81,A5,96,1
397800,386.874159,119,0.082639,40,E2,96,2
397920,386.957493,119,0.082638,76,E5,96,1
397920,386.957493,119,0.082638,45,A2,96,2
398040,387.040826,113,0.078472,72,C5,96,1
398040,387.040826,113,0.078472,48,C3,96,2
398160,387.124159,119,0.082639,69,A4,96,1
398160,387.124159,119,0.082639,52,E3,96,2
398280,387.207492,119,0.082639,72,C5,96,1
398280,387.207492,119,0.082639,48,C3,96,2
398400,387.290826,119,0.082638,76,E5,96,1
398400,387.290826,119,0.082638,45,A2,96,2
398520,387.374159,119,0.082639,81,A5,96,1
398520,387.374159,119,0.082639,40,E2,96,2
398640,387.457492,119,0.082639,76,E5,96,1
398640,387.457492,119,0.082639,45,A2,96,2
398760,387.540825,119,0.082639,81,A5,96,1
398760,387.540825,119,0.082639,40,E2,96,2
398880,387.624159,119,0.082638,76,E5,96,1
398880,387.624159,119,0.082638,45,A2,96,2
399000,387.707492,113,0.078472,72,C5,96,1
399000,387.707492,113,0.078472,48,C3,96,2
399120,387.790825,119,0.082639,69,A4,96,1
399120,387.790825,119,0.082639,52,E3,96,2
399240,387.874158,119,0.082639,72,C5,96,1
399240,387.874158,119,0.082639,48,C3,96,2
399360,387.957492,119,0.082638,76,E5,96,1
399360,387.957492,119,0.082638,45,A2,96,2
399480,388.040825,119,0.082639,81,A5,96,1
399480,388.040825,119,0.082639,40,E2,96,2
399600,388.124158,119,0.082639,76,E5,96,1
399600,388.124158,119,0.082639,45,A2,96,2
399720,388.207491,113,0.078472,72,C5,96,1
399720,388.207491,113,0.078472,48,C3,96,2
399840,388.290825,119,0.082638,69,A4,96,1
399840,388.290825,119,0.082638,53,F3,96,2
399960,388.374158,119,0.082639,72,C5,96,1
399960,388.374158,119,0.082639,48,C3,96,2
400080,388.457491,119,0.082639,76,E5,96,1
400080,388.457491,119,0.082639,45,A2,96,2
400200,388.540824,119,0.082639,77,F5,96,1
400200,388.540824,119,0.082639,41,F2,96,2
400320,388.624158,119,0.082638,76,E5,96,1
400320,388.624158,119,0.082638,45,A2,96,2
400440,388.707491,113,0.078472,72,C5,96,1
400440,388.707491,113,0.078472,48,C3,96,2
400560,388.790824,119,0.082639,69,A4,96,1
400560,388.790824,119,0.082639,53,F3,96,2
400680,388.874157,119,0.082639,72,C5,96,1
400680,388.874157,119,0.082639,48,C3,96,2
400800,388.957491,119,0.082638,76,E5,96,1
400800,388.957491,119,0.082638,45,A2,96,2
400920,389.040824,119,0.082639,77,F5,96,1
400920,389.040824,119,0.082639,41,F2,96,2
401040,389.124157,119,0.082639,76,E5,96,1
401040,389.124157,119,0.082639,45,A2,96,2
401160,389.20749,113,0.078472,72,C5,96,1
401160,389.20749,113,0.078472,48,C3,96,2
401280,389.290824,119,0.082638,69,A4,96,1
401280,389.290824,119,0.082638,53,F3,96,2
401400,389.374157,119,0.082639,72,C5,96,1
401400,389.374157,119,0.082639,48,C3,96,2
401520,389.45749,119,0.082639,76,E5,96,1
401520,389.45749,119,0.082639,45,A2,96,2
401640,389.540823,119,0.082639,77,F5,96,1
401640,389.540823,119,0.082639,41,F2,96,2
401760,389.624157,119,0.082638,76,E5,96,1
401760,389.624157,119,0.082638,45,A2,96,2
401880,389.70749,113,0.078472,72,C5,96,1
401880,389.70749,113,0.078472,48,C3,96,2
402000,389.790823,119,0.082639,69,A4,96,1
402000,389.790823,119,0.082639,53,F3,96,2
402120,389.874156,119,0.082639,72,C5,96,1
402120,389.874156,119,0.082639,48,C3,96,2
402240,389.95749,119,0.082638,76,E5,96,1
402240,389.95749,119,0.082638,45,A2,96,2
402360,390.040823,119,0.082639,77,F5,96,1
402360,390.040823,119,0.082639,41,F2,96,2
402480,390.124156,119,0.082639,76,E5,96,1
402480,390.124156,119,0.082639,45,A2,96,2
402600,390.207489,113,0.078472,72,C5,96,1
402600,390.207489,113,0.078472,48,C3,96,2
402720,390.290823,119,0.082638,69,A4,96,1
402720,390.290823,119,0.082638,53,F3,96,2
402840,390.374156,119,0.082639,72,C5,96,1
402840,390.374156,119,0.082639,48,C3,96,2
402960,390.457489,119,0.082639,76,E5,96,1
402960,390.457489,119,0.082639,45,A2,96,2
403080,390.540822,119,0.082639,77,F5,96,1
403080,390.540822,119,0.082639,41,F2,96,2
403200,390.624156,119,0.082638,76,E5,96,1
403200,390.624156,119,0.082638,45,A2,96,2
403320,390.707489,113,0.078472,72,C5,96,1
403320,390.707489,113,0.078472,48,C3,96,2
403440,390.790822,119,0.082639,69,A4,96,1
403440,390.790822,119,0.082639,53,F3,96,2
403560,390.874155,119,0.082639,72,C5,96,1
403560,390.874155,119,0.082639,48,C3,96,2
403680,390.957489,119,0.082638,76,E5,96,1
403680,390.957489,119,0.082638,45,A2,96,2
403800,391.040822,119,0.082639,77,F5,96,1
403800,391.040822,119,0.082639,41,F2,96,2
403920,391.124155,119,0.082639,76,E5,96,1
403920,391.124155,119,0.082639,45,A2,96,2
404040,391.207488,113,0.078472,72,C5,96,1
404040,391.207488,113,0.078472,48,C3,96,2
404160,391.290822,119,0.082638,69,A4,96,1
404160,391.290822,119,0.082638,53,F3,96,2
404280,391.374155,119,0.082639,72,C5,96,1
404280,391.374155,119,0.082639,48,C3,96,2
404400,391.457488,119,0.082639,76,E5,96,1
404400,391.457488,119,0.082639,45,A2,96,2
404520,391.540821,119,0.082639,77,F5,96,1
404520,391.540821,119,0.082639,41,F2,96,2
404640,391.624155,119,0.082638,76,E5,96,1
404640,391.624155,119,0.082638,45,A2,96,2
404760,391.707488,113,0.078472,72,C5,96,1
404760,391.707488,113,0.078472,48,C3,96,2
404880,391.790821,119,0.082639,69,A4,96,1
404880,391.790821,119,0.082639,53,F3,96,2
405000,391.874154,119,0.082639,72,C5,96,1
405000,391.874154,119,0.082639,48,C3,96,2
405120,391.957488,119,0.082638,76,E5,96,1
405120,391.957488,119,0.082638,45,A2,96,2
405240,392.040821,119,0.082639,77,F5,96,1
405240,392.040821,119,0.082639,41,F2,96,2
405360,392.124154,119,0.082639,76,E5,96,1
405360,392.124154,119,0.082639,45,A2,96,2
405480,392.207487,113,0.078472,72,C5,96,1
405480,392.207487,113,0.078472,48,C3,96,2
405600,392.290821,119,0.082638,69,A4,96,1
405600,392.290821,119,0.082638,52,E3,96,2
405720,392.374154,119,0.082639,72,C5,96,1
405720,392.374154,119,0.082639,48,C3,96,2
405840,392.457487,119,0.082639,76,E5,96,1
405840,392.457487,119,0.082639,45,A2,96,2
405960,392.54082,119,0.082639,81,A5,96,1
405960,392.54082,119,0.082639,40,E2,96,2
406080,392.624154,119,0.082638,76,E5,96,1
406080,392.624154,119,0.082638,45,A2,96,2
406200,392.707487,113,0.078472,72,C5,96,1
406200,392.707487,113,0.078472,48,C3,96,2
406320,392.79082,119,0.082639,69,A4,96,1
406320,392.79082,119,0.082639,52,E3,96,2
406440,392.874153,119,0.082639,72,C5,96,1
406440,392.874153,119,0.082639,48,C3,96,2
406560,392.957487,119,0.082638,76,E5,96,1
406560,392.957487,119,0.082638,45,A2,96,2
406680,393.04082,119,0.082639,81,A5,96,1
406680,393.04082,119,0.082639,40,E2,96,2
406800,393.124153,119,0.082639,76,E5,96,1
406800,393.124153,119,0.082639,45,A2,96,2
406920,393.207486,113,0.078472,72,C5,96,1
406920,393.207486,113,0.078472,48,C3,96,2
407040,393.29082,119,0.082638,69,A4,96,1
407040,393.29082,119,0.082638,52,E3,96,2
407160,393.374153,119,0.082639,72,C5,96,1
407160,393.374153,119,0.082639,48,C3,96,2
407280,393.457486,119,0.082639,76,E5,96,1
407280,393.457486,119,0.082639,45,A2,96,2
407400,393.540819,119,0.082639,81,A5,96,1
407400,393.540819,119,0.082639,40,E2,96,2
407520,393.624153,119,0.082638,76,E5,96,1
407520,393.624153,119,0.082638,45,A2,96,2
407640,393.707486,113,0.078472,72,C5,96,1
407640,393.707486,113,0.078472,48,C3,96,2
407760,393.790819,119,0.082639,69,A4,96,1
407760,393.790819,119,0.082639,52,E3,96,2
407880,393.874152,119,0.082639,72,C5,96,1
407880,393.874152,119,0.082639,48,C3,96,2
408000,393.957486,119,0.082638,76,E5,96,1
408000,393.957486,119,0.082638,45,A2,96,2
408120,394.040819,119,0.082639,81,A5,96,1
408120,394.040819,119,0.082639,40,E2,96,2
408240,394.124152,119,0.082639,76,E5,96,1
408240,394.124152,119,0.082639,45,A2,96,2
408360,394.207485,113,0.078472,72,C5,96,1
408360,394.207485,113,0.078472,48,C3,96,2
408480,394.290819,119,0.082638,69,A4,96,1
408480,394.290819,119,0.082638,52,E3,96,2
408600,394.374152,119,0.082639,72,C5,96,1
408600,394.374152,119,0.082639,48,C3,96,2
408720,394.457485,119,0.082639,76,E5,96,1
408720,394.457485,119,0.082639,45,A2,96,2
408840,394.540818,119,0.082639,81,A5,96,1
408840,394.540818,119,0.082639,40,E2,96,2
408960,394.624152,119,0.082638,76,E5,96,1
408960,394.624152,119,0.082638,45,A2,96,2
409080,394.707485,119,0.082639,81,A5,96,1
409080,394.707485,119,0.082639,40,E2,96,2
409200,394.790818,119,0.082639,76,E5,96,1
409200,394.790818,119,0.082639,45,A2,96,2
409320,394.874151,113,0.078472,72,C5,96,1
409320,394.874151,113,0.078472,48,C3,96,2
409440,394.957485,119,0.082638,69,A4,96,1
409440,394.957485,119,0.082638,52,E3,96,2
409560,395.040818,119,0.082639,72,C5,96,1
409560,395.040818,119,0.082639,48,C3,96,2
409680,395.124151,119,0.082639,76,E5,96,1
409680,395.124151,119,0.082639,45,A2,96,2
409800,395.207484,119,0.082639,81,A5,96,1
409800,395.207484,119,0.082639,40,E2,96,2
409920,395.290818,119,0.082638,76,E5,96,1
409920,395.290818,119,0.082638,45,A2,96,2
410040,395.374151,113,0.078472,72,C5,96,1
410040,395.374151,113,0.078472,48,C3,96,2
410160,395.457484,119,0.082639,69,A4,96,1
410160,395.457484,119,0.082639,52,E3,96,2
410280,395.540817,119,0.082639,72,C5,96,1
410280,395.540817,119,0.082639,48,C3,96,2
410400,395.624151,119,0.082638,76,E5,96,1
410400,395.624151,119,0.082638,45,A2,96,2
410520,395.707484,119,0.082639,81,A5,96,1
410520,395.707484,119,0.082639,40,E2,96,2
410640,395.790817,119,0.082639,76,E5,96,1
410640,395.790817,119,0.082639,45,A2,96,2
410760,395.87415,119,0.082639,81,A5,96,1
410760,395.87415,119,0.082639,40,E2,96,2
410880,395.957484,119,0.082638,76,E5,96,1
410880,395.957484,119,0.082638,45,A2,96,2
411000,396.040817,113,0.078472,72,C5,96,1
411000,396.040817,113,0.078472,48,C3,96,2
411120,396.12415,119,0.082639,69,A4,96,1
411120,396.12415,119,0.082639,52,E3,96,2
411240,396.207483,119,0.082639,72,C5,96,1
411240,396.207483,119,0.082639,48,C3,96,2
411360,396.290817,119,0.082638,76,E5,96,1
411360,396.290817,119,0.082638,45,A2,96,2
411480,396.37415,119,0.082639,81,A5,96,1
411480,396.37415,119,0.082639,40,E2,96,2
411600,396.457483,119,0.082639,76,E5,96,1
411600,396.457483,119,0.082639,45,A2,96,2
411720,396.540816,113,0.078472,72,C5,96,1
411720,396.540816,113,0.078472,48,C3,96,2
411840,396.62415,119,0.082638,69,A4,96,1
411840,396.62415,119,0.082638,53,F3,96,2
411960,396.707483,119,0.082639,72,C5,96,1
411960,396.707483,119,0.082639,48,C3,96,2
412080,396.790816,119,0.082639,76,E5,96,1
412080,396.790816,119,0.082639,45,A2,96,2
412200,396.874149,119,0.082639,77,F5,96,1
412200,396.874149,119,0.082639,41,F2,96,2
412320,396.957483,119,0.082638,76,E5,96,1
412320,396.957483,119,0.082638,45,A2,96,2
412440,397.040816,113,0.078472,72,C5,96,1
412440,397.040816,113,0.078472,48,C3,96,2
412560,397.124149,119,0.082639,69,A4,96,1
412560,397.124149,119,0.082639,53,F3,96,2
412680,397.207482,119,0.082639,72,C5,96,1
412680,397.207482,119,0.082639,48,C3,96,2
412800,397.290816,119,0.082638,76,E5,96,1
412800,397.290816,119,0.082638,45,A2,96,2
412920,397.374149,119,0.082639,77,F5,96,1
412920,397.374149,119,0.082639,41,F2,96,2
413040,397.457482,119,0.082639,76,E5,96,1
413040,397.457482,119,0.082639,45,A2,96,2
413160,397.540815,113,0.078472,72,C5,96,1
413160,397.540815,113,0.078472,48,C3,96,2
413280,397.624149,119,0.082638,69,A4,96,1
413280,397.624149,119,0.082638,53,F3,96,2
413400,397.707482,119,0.082639,72,C5,96,1
413400,397.707482,119,0.082639,48,C3,96,2
413520,397.790815,119,0.082639,76,E5,96,1
413520,397.790815,119,0.082639,45,A2,96,2
413640,397.874148,119,0.082639,77,F5,96,1
413640,397.874148,119,0.082639,41,F2,96,2
413760,397.957482,119,0.082638,76,E5,96,1
413760,397.957482,119,0.082638,45,A2,96,2
413880,398.040815,113,0.078472,72,C5,96,1
413880,398.040815,113,0.078472,48,C3,96,2
414000,398.124148,119,0.082639,69,A4,96,1
414000,398.124148,119,0.082639,53,F3,96,2
414120,398.207481,119,0.082639,72,C5,96,1
414120,398.207481,119,0.082639,48,C3,96,2
414240,398.290815,119,0.082638,76,E5,96,1
414240,398.290815,119,0.082638,45,A2,96,2
414360,398.374148,119,0.082639,77,F5,96,1
414360,398.374148,119,0.082639,41,F2,96,2
414480,398.457481,119,0.082639,76,E5,96,1
414480,398.457481,119,0.082639,45,A2,96,2
414600,398.540814,113,0.078472,72,C5,96,1
414600,398.540814,113,0.078472,48,C3,96,2
414720,398.624148,119,0.082638,67,G4,96,1
414720,398.624148,119,0.082638,55,G3,96,2
414840,398.707481,119,0.082639,72,C5,96,1
414840,398.707481,119,0.082639,48,C3,96,2
414960,398.790814,119,0.082639,76,E5,96,1
414960,398.790814,119,0.082639,45,A2,96,2
415080,398.874147,119,0.082639,77,F5,96,1
415080,398.874147,119,0.082639,43,G2,96,2
415200,398.957481,119,0.082638,76,E5,96,1
415200,398.957481,119,0.082638,45,A2,96,2
415320,399.040814,113,0.078472,72,C5,96,1
415320,399.040814,113,0.078472,48,C3,96,2
415440,399.124147,119,0.082639,67,G4,96,1
415440,399.124147,119,0.082639,55,G3,96,2
415560,399.20748,119,0.082639,72,C5,96,1
415560,399.20748,119,0.082639,48,C3,96,2
415680,399.290814,119,0.082638,76,E5,96,1
415680,399.290814,119,0.082638,45,A2,96,2
415800,399.374147,119,0.082639,77,F5,96,1
415800,399.374147,119,0.082639,43,G2,96,2
415920,399.45748,119,0.082639,76,E5,96,1
415920,399.45748,119,0.082639,45,A2,96,2
416040,399.540813,113,0.078472,72,C5,96,1
416040,399.540813,113,0.078472,48,C3,96,2
416160,399.624147,119,0.082638,69,A4,96,1
416160,399.624147,119,0.082638,53,F3,96,2
416280,399.70748,119,0.082639,72,C5,96,1
416280,399.70748,119,0.082639,48,C3,96,2
416400,399.790813,119,0.082639,76,E5,96,1
416400,399.790813,119,0.082639,45,A2,96,2
416520,399.874146,119,0.082639,77,F5,96,1
416520,399.874146,119,0.082639,41,F2,96,2
416640,399.95748,119,0.082638,76,E5,96,1
416640,399.95748,119,0.082638,45,A2,96,2
416760,400.040813,113,0.078472,72,C5,96,1
416760,400.040813,113,0.078472,48,C3,96,2
416880,400.124146,119,0.082639,69,A4,96,1
416880,400.124146,119,0.082639,53,F3,96,2
417000,400.207479,119,0.082639,72,C5,96,1
417000,400.207479,119,0.082639,48,C3,96,2
417120,400.290813,119,0.082638,76,E5,96,1
417120,400.290813,119,0.082638,45,A2,96,2
417240,400.374146,119,0.082639,77,F5,96,1
417240,400.374146,119,0.082639,41,F2,96,2
417360,400.457479,119,0.082639,76,E5,96,1
417360,400.457479,119,0.082639,45,A2,96,2
417480,400.540812,113,0.078472,72,C5,96,1
417480,400.540812,113,0.078472,48,C3,96,2
417600,400.624146,119,0.082638,69,A4,96,1
417600,400.624146,119,0.082638,52,E3,96,2
417720,400.707479,119,0.082639,72,C5,96,1
417720,400.707479,119,0.082639,48,C3,96,2
417840,400.790812,119,0.082639,76,E5,96,1
417840,400.790812,119,0.082639,45,A2,96,2
417960,400.874145,119,0.082639,81,A5,96,1
417960,400.874145,119,0.082639,40,E2,96,2
418080,400.957479,119,0.082638,76,E5,96,1
418080,400.957479,119,0.082638,45,A2,96,2
418200,401.040812,113,0.078472,72,C5,96,1
418200,401.040812,113,0.078472,48,C3,96,2
418320,401.124145,119,0.082639,69,A4,96,1
418320,401.124145,119,0.082639,52,E3,96,2
418440,401.207478,119,0.082639,72,C5,96,1
418440,401.207478,119,0.082639,48,C3,96,2
418560,401.290812,119,0.082638,76,E5,96,1
418560,401.290812,119,0.082638,45,A2,96,2
418680,401.374145,119,0.082639,81,A5,96,1
418680,401.374145,119,0.082639,40,E2,96,2
418800,401.457478,119,0.082639,76,E5,96,1
418800,401.457478,119,0.082639,45,A2,96,2
418920,401.540811,113,0.078472,72,C5,96,1
418920,401.540811,113,0.078472,48,C3,96,2
419040,401.624145,119,0.082638,69,A4,96,1
419040,401.624145,119,0.082638,52,E3,96,2
419160,401.707478,119,0.082639,72,C5,96,1
419160,401.707478,119,0.082639,48,C3,96,2
419280,401.790811,119,0.082639,76,E5,96,1
419280,401.790811,119,0.082639,45,A2,96,2
419400,401.874144,119,0.082639,81,A5,96,1
419400,401.874144,119,0.082639,40,E2,96,2
419520,401.957478,119,0.082638,76,E5,96,1
419520,401.957478,119,0.082638,45,A2,96,2
419640,402.040811,113,0.078472,72,C5,96,1
419640,402.040811,113,0.078472,48,C3,96,2
419760,402.124144,119,0.082639,69,A4,96,1
419760,402.124144,119,0.082639,52,E3,96,2
419880,402.207477,119,0.082639,72,C5,96,1
419880,402.207477,119,0.082639,48,C3,96,2
420000,402.290811,119,0.082638,76,E5,96,1
420000,402.290811,119,0.082638,45,A2,96,2
420120,402.374144,119,0.082639,81,A5,96,1
420120,402.374144,119,0.082639,40,E2,96,2
420240,402.457477,119,0.082639,76,E5,96,1
420240,402.457477,119,0.082639,45,A2,96,2
420360,402.54081,113,0.078472,72,C5,96,1
420360,402.54081,113,0.078472,48,C3,96,2
420480,402.624144,119,0.082638,69,A4,96,1
420480,402.624144,119,0.082638,52,E3,96,2
420600,402.707477,119,0.082639,72,C5,96,1
420600,402.707477,119,0.082639,48,C3,96,2
420720,402.79081,119,0.082639,76,E5,96,1
420720,402.79081,119,0.082639,45,A2,96,2
420840,402.874143,119,0.082639,81,A5,96,1
420840,402.874143,119,0.082639,40,E2,96,2
420960,402.957477,119,0.082638,76,E5,96,1
420960,402.957477,119,0.082638,45,A2,96,2
421080,403.04081,119,0.082639,81,A5,96,1
421080,403.04081,119,0.082639,40,E2,96,2
421200,403.124143,119,0.082639,76,E5,96,1
421200,403.124143,119,0.082639,45,A2,96,2
421320,403.207476,113,0.078472,72,C5,96,1
421320,403.207476,113,0.078472,48,C3,96,2
421440,403.29081,119,0.082638,69,A4,96,1
421440,403.29081,119,0.082638,52,E3,96,2
421560,403.374143,119,0.082639,72,C5,96,1
421560,403.374143,119,0.082639,48,C3,96,2
421680,403.457476,119,0.082639,76,E5,96,1
421680,403.457476,119,0.082639,45,A2,96,2
421800,403.540809,119,0.082639,81,A5,96,1
421800,403.540809,119,0.082639,40,E2,96,2
421920,403.624143,119,0.082638,76,E5,96,1
421920,403.624143,119,0.082638,45,A2,96,2
422040,403.707476,113,0.078472,72,C5,96,1
422040,403.707476,113,0.078472,48,C3,96,2
422160,403.790809,119,0.082639,69,A4,96,1
422160,403.790809,119,0.082639,52,E3,96,2
422280,403.874142,119,0.082639,72,C5,96,1
422280,403.874142,119,0.082639,48,C3,96,2
422400,403.957476,119,0.082638,76,E5,96,1
422400,403.957476,119,0.082638,45,A2,96,2
422520,404.040809,119,0.082639,81,A5,96,1
422520,404.040809,119,0.082639,40,E2,96,2
422640,404.124142,119,0.082639,76,E5,96,1
422640,404.124142,119,0.082639,45,A2,96,2
422760,404.207475,119,0.082639,81,A5,96,1
422760,404.207475,119,0.082639,40,E2,96,2
422880,404.290809,119,0.082638,76,E5,96,1
422880,404.290809,119,0.082638,45,A2,96,2
423000,404.374142,113,0.078472,72,C5,96,1
423000,404.374142,113,0.078472,48,C3,96,2
423120,404.457475,119,0.082639,69,A4,96,1
423120,404.457475,119,0.082639,52,E3,96,2
423240,404.540808,119,0.082639,72,C5,96,1
423240,404.540808,119,0.082639,48,C3,96,2
423360,404.624142,119,0.082638,76,E5,96,1
423360,404.624142,119,0.082638,45,A2,96,2
423480,404.707475,119,0.082639,81,A5,96,1
423480,404.707475,119,0.082639,40,E2,96,2
423600,404.790808,119,0.082639,76,E5,96,1
423600,404.790808,119,0.082639,45,A2,96,2
423720,404.874141,113,0.078472,72,C5,96,1
423720,404.874141,113,0.078472,48,C3,96,2
423840,404.957475,119,0.082638,69,A4,96,1
423840,404.957475,119,0.082638,53,F3,96,2
423960,405.040808,119,0.082639,72,C5,96,1
423960,405.040808,119,0.082639,48,C3,96,2
424080,405.124141,119,0.082639,76,E5,96,1
424080,405.124141,119,0.082639,45,A2,96,2
424200,405.207474,119,0.082639,77,F5,96,1
424200,405.207474,119,0.082639,41,F2,96,2
424320,405.290808,119,0.082638,76,E5,96,1
424320,405.290808,119,0.082638,45,A2,96,2
424440,405.374141,113,0.078472,72,C5,96,1
424440,405.374141,113,0.078472,48,C3,96,2
424560,405.457474,119,0.082639,69,A4,96,1
424560,405.457474,119,0.082639,53,F3,96,2
424680,405.540807,119,0.082639,72,C5,96,1
424680,405.540807,119,0.082639,48,C3,96,2
424800,405.624141,119,0.082638,76,E5,96,1
424800,405.624141,119,0.082638,45,A2,96,2
424920,405.707474,119,0.082639,77,F5,96,1
424920,405.707474,119,0.082639,41,F2,96,2
425040,405.790807,119,0.082639,76,E5,96,1
425040,405.790807,119,0.082639,45,A2,96,2
425160,405.87414,113,0.078472,72,C5,96,1
425160,405.87414,113,0.078472,48,C3,96,2
425280,405.957474,119,0.082638,69,A4,96,1
425280,405.957474,119,0.082638,53,F3,96,2
425400,406.040807,119,0.082639,72,C5,96,1
425400,406.040807,119,0.082639,48,C3,96,2
425520,406.12414,119,0.082639,76,E5,96,1
425520,406.12414,119,0.082639,45,A2,96,2
425640,406.207473,119,0.082639,77,F5,96,1
425640,406.207473,119,0.082639,41,F2,96,2
425760,406.290807,119,0.082638,76,E5,96,1
425760,406.290807,119,0.082638,45,A2,96,2
425880,406.37414,113,0.078472,72,C5,96,1
425880,406.37414,113,0.078472,48,C3,96,2
426000,406.457473,119,0.082639,69,A4,96,1
426000,406.457473,119,0.082639,53,F3,96,2
426120,406.540806,119,0.082639,72,C5,96,1
426120,406.540806,119,0.082639,48,C3,96,2
426240,406.62414,119,0.082638,76,E5,96,1
426240,406.62414,119,0.082638,45,A2,96,2
426360,406.707473,119,0.082639,77,F5,96,1
426360,406.707473,119,0.082639,41,F2,96,2
426480,406.790806,119,0.082639,76,E5,96,1
426480,406.790806,119,0.082639,45,A2,96,2
426600,406.874139,113,0.078472,72,C5,96,1
426600,406.874139,113,0.078472,48,C3,96,2
426720,406.957473,119,0.082638,67,G4,96,1
426720,406.957473,119,0.082638,55,G3,96,2
426840,407.040806,119,0.082639,72,C5,96,1
426840,407.040806,119,0.082639,48,C3,96,2
426960,407.124139,119,0.082639,76,E5,96,1
426960,407.124139,119,0.082639,45,A2,96,2
427080,407.207472,119,0.082639,77,F5,96,1
427080,407.207472,119,0.082639,43,G2,96,2
427200,407.290806,119,0.082638,76,E5,96,1
427200,407.290806,119,0.082638,45,A2,96,2
427320,407.374139,113,0.078472,72,C5,96,1
427320,407.374139,113,0.078472,48,C3,96,2
427440,407.457472,119,0.082639,67,G4,96,1
427440,407.457472,119,0.082639,55,G3,96,2
427560,407.540805,119,0.082639,72,C5,96,1
427560,407.540805,119,0.082639,48,C3,96,2
427680,407.624139,119,0.082638,76,E5,96,1
427680,407.624139,119,0.082638,45,A2,96,2
427800,407.707472,119,0.082639,77,F5,96,1
427800,407.707472,119,0.082639,43,G2,96,2
427920,407.790805,119,0.082639,76,E5,96,1
427920,407.790805,119,0.082639,45,A2,96,2
428040,407.874138,113,0.078472,72,C5,96,1
428040,407.874138,113,0.078472,48,C3,96,2
428160,407.957472,119,0.082638,69,A4,96,1
428160,407.957472,119,0.082638,53,F3,96,2
428280,408.040805,119,0.082639,72,C5,96,1
428280,408.040805,119,0.082639,48,C3,96,2
428400,408.124138,119,0.082639,76,E5,96,1
428400,408.124138,119,0.082639,45,A2,96,2
428520,408.207471,119,0.082639,77,F5,96,1
428520,408.207471,119,0.082639,41,F2,96,2
428640,408.290805,119,0.082638,76,E5,96,1
428640,408.290805,119,0.082638,45,A2,96,2
428760,408.374138,113,0.078472,72,C5,96,1
428760,408.374138,113,0.078472,48,C3,96,2
428880,408.457471,119,0.082639,69,A4,96,1
428880,408.457471,119,0.082639,53,F3,96,2
429000,408.540804,119,0.082639,72,C5,96,1
429000,408.540804,119,0.082639,48,C3,96,2
429120,408.624138,119,0.082638,76,E5,96,1
429120,408.624138,119,0.082638,45,A2,96,2
429240,408.707471,119,0.082639,77,F5,96,1
429240,408.707471,119,0.082639,41,F2,96,2
429360,408.790804,119,0.082639,76,E5,96,1
429360,408.790804,119,0.082639,45,A2,96,2
429480,408.874137,113,0.078472,72,C5,96,1
429480,408.874137,113,0.078472,48,C3,96,2
429600,408.957471,119,0.082638,69,A4,96,1
429600,408.957471,119,0.082638,52,E3,96,2
429720,409.040804,119,0.082639,72,C5,96,1
429720,409.040804,119,0.082639,48,C3,96,2
429840,409.124137,119,0.082639,76,E5,96,1
429840,409.124137,119,0.082639,45,A2,96,2
429960,409.20747,119,0.082639,81,A5,96,1
429960,409.20747,119,0.082639,40,E2,96,2
430080,409.290804,119,0.082638,76,E5,96,1
430080,409.290804,119,0.082638,45,A2,96,2
430200,409.374137,113,0.078472,72,C5,96,1
430200,409.374137,113,0.078472,48,C3,96,2
430320,409.45747,119,0.082639,69,A4,96,1
430320,409.45747,119,0.082639,52,E3,96,2
430440,409.540803,119,0.082639,72,C5,96,1
430440,409.540803,119,0.082639,48,C3,96,2
430560,409.624137,119,0.082638,76,E5,96,1
430560,409.624137,119,0.082638,45,A2,96,2
430680,409.70747,119,0.082639,81,A5,96,1
430680,409.70747,119,0.082639,40,E2,96,2
430800,409.790803,119,0.082639,76,E5,96,1
430800,409.790803,119,0.082639,45,A2,96,2
430920,409.874136,113,0.078472,72,C5,96,1
430920,409.874136,113,0.078472,48,C3,96,2
431040,409.95747,119,0.082638,69,A4,96,1
431040,409.95747,119,0.082638,52,E3,96,2
431160,410.040803,119,0.082639,72,C5,96,1
431160,410.040803,119,0.082639,48,C3,96,2
431280,410.124136,119,0.082639,76,E5,96,1
431280,410.124136,119,0.082639,45,A2,96,2
431400,410.207469,119,0.082639,81,A5,96,1
431400,410.207469,119,0.082639,40,E2,96,2
431520,410.290803,119,0.082638,76,E5,96,1
431520,410.290803,119,0.082638,45,A2,96,2
431640,410.374136,113,0.078472,72,C5,96,1
431640,410.374136,113,0.078472,48,C3,96,2
431760,410.457469,119,0.082639,69,A4,96,1
431760,410.457469,119,0.082639,52,E3,96,2
431880,410.540802,119,0.082639,72,C5,96,1
431880,410.540802,119,0.082639,48,C3,96,2
432000,410.624136,119,0.082638,76,E5,96,1
432000,410.624136,119,0.082638,45,A2,96,2
432120,410.707469,119,0.082639,81,A5,96,1
432120,410.707469,119,0.082639,40,E2,96,2
432240,410.790802,119,0.082639,76,E5,96,1
432240,410.790802,119,0.082639,45,A2,96,2
432360,410.874135,113,0.078472,72,C5,96,1
432360,410.874135,113,0.078472,48,C3,96,2
432480,410.957469,119,0.082638,69,A4,96,1
432480,410.957469,119,0.082638,52,E3,96,2
432600,411.040802,119,0.082639,72,C5,96,1
432600,411.040802,119,0.082639,48,C3,96,2
432720,411.124135,119,0.082639,76,E5,96,1
432720,411.124135,119,0.082639,45,A2,96,2
432840,411.207468,119,0.082639,81,A5,96,1
432840,411.207468,119,0.082639,40,E2,96,2
432960,411.290802,119,0.082638,76,E5,96,1
432960,411.290802,119,0.082638,45,A2,96,2
433080,411.374135,119,0.082639,81,A5,96,1
433080,411.374135,119,0.082639,40,E2,96,2
433200,411.457468,119,0.082639,76,E5,96,1
433200,411.457468,119,0.082639,45,A2,96,2
433320,411.540801,113,0.078472,72,C5,96,1
433320,411.540801,113,0.078472,48,C3,96,2
433440,411.624135,119,0.082638,69,A4,96,1
433440,411.624135,119,0.082638,52,E3,96,2
433560,411.707468,119,0.082639,72,C5,96,1
433560,411.707468,119,0.082639,48,C3,96,2
433680,411.790801,119,0.082639,76,E5,96,1
433680,411.790801,119,0.082639,45,A2,96,2
433800,411.874134,119,0.082639,81,A5,96,1
433800,411.874134,119,0.082639,40,E2,96,2
433920,411.957468,119,0.082638,76,E5,96,1
433920,411.957468,119,0.082638,45,A2,96,2
434040,412.040801,113,0.078472,72,C5,96,1
434040,412.040801,113,0.078472,48,C3,96,2
434160,412.124134,119,0.082639,69,A4,96,1
434160,412.124134,119,0.082639,52,E3,96,2
434280,412.207467,119,0.082639,72,C5,96,1
434280,412.207467,119,0.082639,48,C3,96,2
434400,412.290801,119,0.082638,76,E5,96,1
434400,412.290801,119,0.082638,45,A2,96,2
434520,412.374134,119,0.082639,81,A5,96,1
434520,412.374134,119,0.082639,40,E2,96,2
434640,412.457467,119,0.082639,76,E5,96,1
434640,412.457467,119,0.082639,45,A2,96,2
434760,412.5408,119,0.082639,81,A5,96,1
434760,412.5408,119,0.082639,40,E2,96,2
434880,412.624134,119,0.082638,76,E5,96,1
434880,412.624134,119,0.082638,45,A2,96,2
435000,412.707467,113,0.078472,72,C5,96,1
435000,412.707467,113,0.078472,48,C3,96,2
435120,412.7908,119,0.082639,69,A4,96,1
435120,412.7908,119,0.082639,52,E3,96,2
435240,412.874133,119,0.082639,72,C5,96,1
435240,412.874133,119,0.082639,48,C3,96,2
435360,412.957467,119,0.082638,76,E5,96,1
435360,412.957467,119,0.082638,45,A2,96,2
435480,413.0408,119,0.082639,81,A5,96,1
435480,413.0408,119,0.082639,40,E2,96,2
435600,413.124133,119,0.082639,76,E5,96,1
435600,413.124133,119,0.082639,45,A2,96,2
435720,413.207466,113,0.078472,72,C5,96,1
435720,413.207466,113,0.078472,48,C3,96,2
435840,413.2908,113,0.078472,69,A4,96,1
435840,413.2908,113,0.078472,53,F3,96,2
435960,413.374133,113,0.078472,72,C5,96,1
435960,413.374133,113,0.078472,48,C3,96,2
436080,413.457466,113,0.078472,76,E5,96,1
436080,413.457466,113,0.078472,45,A2,96,2
436200,413.540799,113,0.078472,77,F5,96,1
436200,413.540799,113,0.078472,41,F2,96,2
436320,413.624133,113,0.078472,76,E5,96,1
436320,413.624133,113,0.078472,45,A2,96,2
436440,413.707466,113,0.078472,72,C5,96,1
436440,413.707466,113,0.078472,48,C3,96,2
436560,413.790799,113,0.078472,69,A4,96,1
436560,413.790799,113,0.078472,53,F3,96,2
436680,413.874132,113,0.078472,72,C5,96,1
436680,413.874132,113,0.078472,48,C3,96,2
436800,413.957466,113,0.078472,76,E5,96,1
436800,413.957466,113,0.078472,45,A2,96,2
436920,414.040799,113,0.078472,77,F5,96,1
436920,414.040799,113,0.078472,41,F2,96,2
437040,414.124132,113,0.078472,76,E5,96,1
437040,414.124132,113,0.078472,45,A2,96,2
437160,414.207465,113,0.078472,72,C5,96,1
437160,414.207465,113,0.078472,48,C3,96,2
437280,414.290799,113,0.078472,69,A4,96,1
437280,414.290799,113,0.078472,53,F3,96,2
437400,414.374132,113,0.078472,72,C5,96,1
437400,414.374132,113,0.078472,48,C3,96,2
437520,414.457465,113,0.078472,76,E5,96,1
437520,414.457465,113,0.078472,45,A2,96,2
437640,414.540798,113,0.078472,77,F5,96,1
437640,414.540798,113,0.078472,41,F2,96,2
437760,414.624132,113,0.078472,76,E5,96,1
437760,414.624132,113,0.078472,45,A2,96,2
437880,414.707465,113,0.078472,72,C5,96,1
437880,414.707465,113,0.078472,48,C3,96,2
438000,414.790798,113,0.078472,69,A4,96,1
438000,414.790798,113,0.078472,53,F3,96,2
438120,414.874131,113,0.078472,72,C5,96,1
438120,414.874131,113,0.078472,48,C3,96,2
438240,414.957465,113,0.078472,76,E5,96,1
438240,414.957465,113,0.078472,45,A2,96,2
438360,415.040798,113,0.078472,77,F5,96,1
438360,415.040798,113,0.078472,41,F2,96,2
438480,415.124131,113,0.078472,76,E5,96,1
438480,415.124131,113,0.078472,45,A2,96,2
438600,415.207464,113,0.078472,72,C5,96,1
438600,415.207464,113,0.078472,48,C3,96,2
438720,415.290798,113,0.078472,67,G4,96,1
438720,415.290798,113,0.078472,55,G3,96,2
438840,415.374131,113,0.078472,72,C5,96,1
438840,415.374131,113,0.078472,48,C3,96,2
438960,415.457464,113,0.078472,76,E5,96,1
438960,415.457464,113,0.078472,45,A2,96,2
439080,415.540797,113,0.078472,77,F5,96,1
439080,415.540797,113,0.078472,43,G2,96,2
439200,415.624131,113,0.078472,76,E5,96,1
439200,415.624131,113,0.078472,45,A2,96,2
439320,415.707464,113,0.078472,72,C5,96,1
439320,415.707464,113,0.078472,48,C3,96,2
439440,415.790797,113,0.078472,67,G4,96,1
439440,415.790797,113,0.078472,55,G3,96,2
439560,415.87413,113,0.078472,72,C5,96,1
439560,415.87413,113,0.078472,48,C3,96,2
439680,415.957464,113,0.078472,76,E5,96,1
439680,415.957464,113,0.078472,45,A2,96,2
439800,416.040797,113,0.078472,77,F5,96,1
439800,416.040797,113,0.078472,43,G2,96,2
439920,416.12413,113,0.078472,76,E5,96,1
439920,416.12413,113,0.078472,45,A2,96,2
440040,416.207463,113,0.078472,72,C5,96,1
440040,416.207463,113,0.078472,48,C3,96,2
440160,416.290797,113,0.078472,69,A4,96,1
440160,416.290797,113,0.078472,53,F3,96,2
440280,416.37413,113,0.078472,72,C5,96,1
440280,416.37413,113,0.078472,48,C3,96,2
440400,416.457463,113,0.078472,76,E5,96,1
440400,416.457463,113,0.078472,45,A2,96,2
440520,416.540796,113,0.078472,77,F5,96,1
440520,416.540796,113,0.078472,41,F2,96,2
440640,416.62413,113,0.078472,76,E5,96,1
440640,416.62413,113,0.078472,45,A2,96,2
440760,416.707463,113,0.078472,72,C5,96,1
440760,416.707463,113,0.078472,48,C3,96,2
440880,416.790796,113,0.078472,69,A4,96,1
440880,416.790796,113,0.078472,53,F3,96,2
441000,416.874129,113,0.078472,72,C5,96,1
441000,416.874129,113,0.078472,48,C3,96,2
441120,416.957463,113,0.078472,76,E5,96,1
441120,416.957463,113,0.078472,45,A2,96,2
441240,417.040796,113,0.078472,77,F5,96,1
441240,417.040796,113,0.078472,41,F2,96,2
441360,417.124129,113,0.078472,76,E5,96,1
441360,417.124129,113,0.078472,45,A2,96,2
441480,417.207462,113,0.078472,72,C5,96,1
441480,417.207462,113,0.078472,48,C3,96,2
441600,417.290796,113,0.078472,69,A4,96,1
441600,417.290796,113,0.078472,52,E3,96,2
441720,417.374129,113,0.078472,72,C5,96,1
441720,417.374129,113,0.078472,48,C3,96,2
441840,417.457462,113,0.078472,76,E5,96,1
441840,417.457462,113,0.078472,45,A2,96,2
441960,417.540795,113,0.078472,81,A5,96,1
441960,417.540795,113,0.078472,40,E2,96,2
442080,417.624129,113,0.078472,76,E5,96,1
442080,417.624129,113,0.078472,45,A2,96,2
442200,417.707462,113,0.078472,72,C5,96,1
442200,417.707462,113,0.078472,48,C3,96,2
442320,417.790795,113,0.078472,69,A4,96,1
442320,417.790795,113,0.078472,52,E3,96,2
442440,417.874128,113,0.078472,72,C5,96,1
442440,417.874128,113,0.078472,48,C3,96,2
442560,417.957462,113,0.078472,76,E5,96,1
442560,417.957462,113,0.078472,45,A2,96,2
442680,418.040795,113,0.078472,81,A5,96,1
442680,418.040795,113,0.078472,40,E2,96,2
442800,418.124128,113,0.078472,76,E5,96,1
442800,418.124128,113,0.078472,45,A2,96,2
442920,418.207461,113,0.078472,72,C5,96,1
442920,418.207461,113,0.078472,48,C3,96,2
443040,418.290795,113,0.078472,69,A4,96,1
443040,418.290795,113,0.078472,52,E3,96,2
443160,418.374128,113,0.078472,72,C5,96,1
443160,418.374128,113,0.078472,48,C3,96,2
443280,418.457461,113,0.078472,76,E5,96,1
443280,418.457461,113,0.078472,45,A2,96,2
443400,418.540794,113,0.078472,81,A5,96,1
443400,418.540794,113,0.078472,40,E2,96,2
443520,418.624128,113,0.078472,76,E5,96,1
443520,418.624128,113,0.078472,45,A2,96,2
443640,418.707461,113,0.078472,72,C5,96,1
443640,418.707461,113,0.078472,48,C3,96,2
443760,418.790794,113,0.078472,69,A4,96,1
443760,418.790794,113,0.078472,52,E3,96,2
443880,418.874127,113,0.078472,72,C5,96,1
443880,418.874127,113,0.078472,48,C3,96,2
444000,418.957461,113,0.078472,76,E5,96,1
444000,418.957461,113,0.078472,45,A2,96,2
444120,419.040794,113,0.078472,81,A5,96,1
444120,419.040794,113,0.078472,40,E2,96,2
444240,419.124127,113,0.078472,76,E5,96,1
444240,419.124127,113,0.078472,45,A2,96,2
444360,419.20746,113,0.078472,72,C5,96,1
444360,419.20746,113,0.078472,48,C3,96,2
444480,419.290794,113,0.078472,69,A4,96,1
444480,419.290794,113,0.078472,52,E3,96,2
444600,419.374127,113,0.078472,72,C5,96,1
444600,419.374127,113,0.078472,48,C3,96,2
444720,419.45746,113,0.078472,76,E5,96,1
444720,419.45746,113,0.078472,45,A2,96,2
444840,419.540793,113,0.078472,81,A5,96,1
444840,419.540793,113,0.078472,40,E2,96,2
444960,419.624127,113,0.078472,76,E5,96,1
444960,419.624127,113,0.078472,45,A2,96,2
445080,419.70746,113,0.078472,81,A5,96,1
445080,419.70746,113,0.078472,40,E2,96,2
445200,419.790793,113,0.078472,76,E5,96,1
445200,419.790793,113,0.078472,45,A2,96,2
445320,419.874126,113,0.078472,72,C5,96,1
445320,419.874126,113,0.078472,48,C3,96,2
445440,419.95746,113,0.078472,69,A4,96,1
445440,419.95746,113,0.078472,52,E3,96,2
445560,420.040793,113,0.078472,72,C5,96,1
445560,420.040793,113,0.078472,48,C3,96,2
445680,420.124126,113,0.078472,76,E5,96,1
445680,420.124126,113,0.078472,45,A2,96,2
445800,420.207459,113,0.078472,81,A5,96,1
445800,420.207459,113,0.078472,40,E2,96,2
445920,420.290793,113,0.078472,76,E5,96,1
445920,420.290793,113,0.078472,45,A2,96,2
446040,420.374126,113,0.078472,72,C5,96,1
446040,420.374126,113,0.078472,48,C3,96,2
446160,420.457459,113,0.078472,69,A4,96,1
446160,420.457459,113,0.078472,52,E3,96,2
446280,420.540792,113,0.078472,72,C5,96,1
446280,420.540792,113,0.078472,48,C3,96,2
446400,420.624126,113,0.078472,76,E5,96,1
446400,420.624126,113,0.078472,45,A2,96,2
446520,420.707459,113,0.078472,81,A5,96,1
446520,420.707459,113,0.078472,40,E2,96,2
446640,420.790792,113,0.078472,76,E5,96,1
446640,420.790792,113,0.078472,45,A2,96,2
446760,420.874125,113,0.078472,81,A5,96,1
446760,420.874125,113,0.078472,40,E2,96,2
446880,420.957459,113,0.078472,76,E5,96,1
446880,420.957459,113,0.078472,45,A2,96,2
447000,421.040792,113,0.078472,72,C5,96,1
447000,421.040792,113,0.078472,48,C3,96,2
447120,421.124125,113,0.078472,69,A4,96,1
447120,421.124125,113,0.078472,52,E3,96,2
447240,421.207458,113,0.078472,72,C5,96,1
447240,421.207458,113,0.078472,48,C3,96,2
447360,421.290792,113,0.078472,76,E5,96,1
447360,421.290792,113,0.078472,45,A2,96,2
447480,421.374125,113,0.078472,81,A5,96,1
447480,421.374125,113,0.078472,40,E2,96,2
447600,421.457458,113,0.078472,76,E5,96,1
447600,421.457458,113,0.078472,45,A2,96,2
447720,421.540791,113,0.078472,72,C5,96,1
447720,421.540791,113,0.078472,48,C3,96,2
447840,421.624125,113,0.078472,67,G4,96,1
447840,421.624125,113,0.078472,55,G3,96,2
447960,421.707458,113,0.078472,70,A4#,96,1
447960,421.707458,113,0.078472,50,D3,96,2
448080,421.790791,113,0.078472,74,D5,96,1
448080,421.790791,113,0.078472,46,A2#,96,2
448200,421.874124,113,0.078472,77,F5,96,1
448200,421.874124,113,0.078472,43,G2,96,2
448320,421.957458,113,0.078472,74,D5,96,1
448320,421.957458,113,0.078472,46,A2#,96,2
448440,422.040791,113,0.078472,70,A4#,96,1
448440,422.040791,113,0.078472,50,D3,96,2
448560,422.124124,113,0.078472,67,G4,96,1
448560,422.124124,113,0.078472,55,G3,96,2
448680,422.207457,113,0.078472,70,A4#,96,1
448680,422.207457,113,0.078472,50,D3,96,2
448800,422.290791,113,0.078472,74,D5,96,1
448800,422.290791,113,0.078472,46,A2#,96,2
448920,422.374124,113,0.078472,77,F5,96,1
448920,422.374124,113,0.078472,43,G2,96,2
449040,422.457457,113,0.078472,74,D5,96,1
449040,422.457457,113,0.078472,46,A2#,96,2
449160,422.54079,113,0.078472,70,A4#,96,1
449160,422.54079,113,0.078472,50,D3,96,2
449280,422.624124,113,0.078472,67,G4,96,1
449280,422.624124,113,0.078472,55,G3,96,2
449400,422.707457,113,0.078472,70,A4#,96,1
449400,422.707457,113,0.078472,50,D3,96,2
449520,422.79079,113,0.078472,74,D5,96,1
449520,422.79079,113,0.078472,46,A2#,96,2
449640,422.874123,113,0.078472,77,F5,96,1
449640,422.874123,113,0.078472,43,G2,96,2
449760,422.957457,113,0.078472,74,D5,96,1
449760,422.957457,113,0.078472,46,A2#,96,2
449880,423.04079,113,0.078472,70,A4#,96,1
449880,423.04079,113,0.078472,50,D3,96,2
450000,423.124123,113,0.078472,67,G4,96,1
450000,423.124123,113,0.078472,55,G3,96,2
450120,423.207456,113,0.078472,70,A4#,96,1
450120,423.207456,113,0.078472,50,D3,96,2
450240,423.29079,113,0.078472,74,D5,96,1
450240,423.29079,113,0.078472,46,A2#,96,2
450360,423.374123,113,0.078472,77,F5,96,1
450360,423.374123,113,0.078472,43,G2,96,2
450480,423.457456,113,0.078472,74,D5,96,1
450480,423.457456,113,0.078472,46,A2#,96,2
450600,423.540789,113,0.078472,70,A4#,96,1
450600,423.540789,113,0.078472,50,D3,96,2
450720,423.624123,113,0.078472,67,G4,96,1
450720,423.624123,113,0.078472,55,G3,96,2
450840,423.707456,113,0.078472,70,A4#,96,1
450840,423.707456,113,0.078472,50,D3,96,2
450960,423.790789,113,0.078472,74,D5,96,1
450960,423.790789,113,0.078472,46,A2#,96,2
451080,423.874122,113,0.078472,77,F5,96,1
451080,423.874122,113,0.078472,43,G2,96,2
451200,423.957456,113,0.078472,74,D5,96,1
451200,423.957456,113,0.078472,46,A2#,96,2
451320,424.040789,113,0.078472,70,A4#,96,1
451320,424.040789,113,0.078472,50,D3,96,2
451440,424.124122,113,0.078472,67,G4,96,1
451440,424.124122,113,0.078472,55,G3,96,2
451560,424.207455,113,0.078472,70,A4#,96,1
451560,424.207455,113,0.078472,50,D3,96,2
451680,424.290789,113,0.078472,74,D5,96,1
451680,424.290789,113,0.078472,46,A2#,96,2
451800,424.374122,113,0.078472,77,F5,96,1
451800,424.374122,113,0.078472,43,G2,96,2
451920,424.457455,113,0.078472,74,D5,96,1
451920,424.457455,113,0.078472,46,A2#,96,2
452040,424.540788,113,0.078472,70,A4#,96,1
452040,424.540788,113,0.078472,50,D3,96,2
452160,424.624122,113,0.078472,67,G4,96,1
452160,424.624122,113,0.078472,55,G3,96,2
452280,424.707455,113,0.078472,70,A4#,96,1
452280,424.707455,113,0.078472,50,D3,96,2
452400,424.790788,113,0.078472,74,D5,96,1
452400,424.790788,113,0.078472,46,A2#,96,2
452520,424.874121,113,0.078472,77,F5,96,1
452520,424.874121,113,0.078472,43,G2,96,2
452640,424.957455,113,0.078472,74,D5,96,1
452640,424.957455,113,0.078472,46,A2#,96,2
452760,425.040788,113,0.078472,70,A4#,96,1
452760,425.040788,113,0.078472,50,D3,96,2
452880,425.124121,113,0.078472,67,G4,96,1
452880,425.124121,113,0.078472,55,G3,96,2
453000,425.207454,113,0.078472,70,A4#,96,1
453000,425.207454,113,0.078472,50,D3,96,2
453120,425.290788,113,0.078472,74,D5,96,1
453120,425.290788,113,0.078472,46,A2#,96,2
453240,425.374121,113,0.078472,77,F5,96,1
453240,425.374121,113,0.078472,43,G2,96,2
453360,425.457454,113,0.078472,74,D5,96,1
453360,425.457454,113,0.078472,46,A2#,96,2
453480,425.540787,113,0.078472,70,A4#,96,1
453480,425.540787,113,0.078472,50,D3,96,2
453600,425.624121,113,0.078472,69,A4,96,1
453600,425.624121,113,0.078472,53,F3,96,2
453720,425.707454,113,0.078472,72,C5,96,1
453720,425.707454,113,0.078472,48,C3,96,2
453840,425.790787,113,0.078472,76,E5,96,1
453840,425.790787,113,0.078472,45,A2,96,2
453960,425.87412,113,0.078472,77,F5,96,1
453960,425.87412,113,0.078472,41,F2,96,2
454080,425.957454,113,0.078472,76,E5,96,1
454080,425.957454,113,0.078472,45,A2,96,2
454200,426.040787,113,0.078472,72,C5,96,1
454200,426.040787,113,0.078472,48,C3,96,2
454320,426.12412,113,0.078472,69,A4,96,1
454320,426.12412,113,0.078472,53,F3,96,2
454440,426.207453,113,0.078472,72,C5,96,1
454440,426.207453,113,0.078472,48,C3,96,2
454560,426.290787,113,0.078472,76,E5,96,1
454560,426.290787,113,0.078472,45,A2,96,2
454680,426.37412,113,0.078472,77,F5,96,1
454680,426.37412,113,0.078472,41,F2,96,2
454800,426.457453,113,0.078472,76,E5,96,1
454800,426.457453,113,0.078472,45,A2,96,2
454920,426.540786,113,0.078472,72,C5,96,1
454920,426.540786,113,0.078472,48,C3,96,2
455040,426.62412,113,0.078472,69,A4,96,1
455040,426.62412,113,0.078472,53,F3,96,2
455160,426.707453,113,0.078472,72,C5,96,1
455160,426.707453,113,0.078472,48,C3,96,2
455280,426.790786,113,0.078472,76,E5,96,1
455280,426.790786,113,0.078472,45,A2,96,2
455400,426.874119,113,0.078472,77,F5,96,1
455400,426.874119,113,0.078472,41,F2,96,2
455520,426.957453,113,0.078472,76,E5,96,1
455520,426.957453,113,0.078472,45,A2,96,2
455640,427.040786,113,0.078472,72,C5,96,1
455640,427.040786,113,0.078472,48,C3,96,2
455760,427.124119,113,0.078472,69,A4,96,1
455760,427.124119,113,0.078472,53,F3,96,2
455880,427.207452,113,0.078472,72,C5,96,1
455880,427.207452,113,0.078472,48,C3,96,2
456000,427.290786,113,0.078472,76,E5,96,1
456000,427.290786,113,0.078472,45,A2,96,2
456120,427.374119,113,0.078472,77,F5,96,1
456120,427.374119,113,0.078472,41,F2,96,2
456240,427.457452,113,0.078472,76,E5,96,1
456240,427.457452,113,0.078472,45,A2,96,2
456360,427.540785,113,0.078472,72,C5,96,1
456360,427.540785,113,0.078472,48,C3,96,2
456480,427.624119,113,0.078472,69,A4,96,1
456480,427.624119,113,0.078472,53,F3,96,2
456600,427.707452,113,0.078472,72,C5,96,1
456600,427.707452,113,0.078472,48,C3,96,2
456720,427.790785,113,0.078472,76,E5,96,1
456720,427.790785,113,0.078472,45,A2,96,2
456840,427.874118,113,0.078472,77,F5,96,1
456840,427.874118,113,0.078472,41,F2,96,2
456960,427.957452,113,0.078472,76,E5,96,1
456960,427.957452,113,0.078472,45,A2,96,2
457080,428.040785,113,0.078472,77,F5,96,1
457080,428.040785,113,0.078472,41,F2,96,2
457200,428.124118,113,0.078472,76,E5,96,1
457200,428.124118,113,0.078472,45,A2,96,2
457320,428.207451,113,0.078472,72,C5,96,1
457320,428.207451,113,0.078472,48,C3,96,2
457440,428.290785,113,0.078472,69,A4,96,1
457440,428.290785,113,0.078472,53,F3,96,2
457560,428.374118,113,0.078472,72,C5,96,1
457560,428.374118,113,0.078472,48,C3,96,2
457680,428.457451,113,0.078472,76,E5,96,1
457680,428.457451,113,0.078472,45,A2,96,2
457800,428.540784,113,0.078472,77,F5,96,1
457800,428.540784,113,0.078472,41,F2,96,2
457920,428.624118,113,0.078472,76,E5,96,1
457920,428.624118,113,0.078472,45,A2,96,2
458040,428.707451,113,0.078472,72,C5,96,1
458040,428.707451,113,0.078472,48,C3,96,2
458160,428.790784,113,0.078472,69,A4,96,1
458160,428.790784,113,0.078472,53,F3,96,2
458280,428.874117,113,0.078472,72,C5,96,1
458280,428.874117,113,0.078472,48,C3,96,2
458400,428.957451,113,0.078472,76,E5,96,1
458400,428.957451,113,0.078472,45,A2,96,2
458520,429.040784,113,0.078472,77,F5,96,1
458520,429.040784,113,0.078472,41,F2,96,2
458640,429.124117,113,0.078472,76,E5,96,1
458640,429.124117,113,0.078472,45,A2,96,2
458760,429.20745,113,0.078472,77,F5,96,1
458760,429.20745,113,0.078472,41,F2,96,2
458880,429.290784,113,0.078472,76,E5,96,1
458880,429.290784,113,0.078472,45,A2,96,2
459000,429.374117,113,0.078472,72,C5,96,1
459000,429.374117,113,0.078472,48,C3,96,2
459120,429.45745,113,0.078472,69,A4,96,1
459120,429.45745,113,0.078472,53,F3,96,2
459240,429.540783,113,0.078472,72,C5,96,1
459240,429.540783,113,0.078472,48,C3,96,2
459360,429.624117,113,0.078472,76,E5,96,1
459360,429.624117,113,0.078472,45,A2,96,2
459480,429.70745,113,0.078472,77,F5,96,1
459480,429.70745,113,0.078472,41,F2,96,2
459600,429.790783,113,0.078472,76,E5,96,1
459600,429.790783,113,0.078472,45,A2,96,2
459720,429.874116,113,0.078472,72,C5,96,1
459720,429.874116,113,0.078472,48,C3,96,2
459840,429.95745,113,0.078472,67,G4,96,1
459840,429.95745,113,0.078472,55,G3,96,2
459960,430.040783,113,0.078472,70,A4#,96,1
459960,430.040783,113,0.078472,50,D3,96,2
460080,430.124116,113,0.078472,74,D5,96,1
460080,430.124116,113,0.078472,46,A2#,96,2
460200,430.207449,113,0.078472,77,F5,96,1
460200,430.207449,113,0.078472,43,G2,96,2
460320,430.290783,113,0.078472,74,D5,96,1
460320,430.290783,113,0.078472,46,A2#,96,2
460440,430.374116,113,0.078472,70,A4#,96,1
460440,430.374116,113,0.078472,50,D3,96,2
460560,430.457449,113,0.078472,67,G4,96,1
460560,430.457449,113,0.078472,55,G3,96,2
460680,430.540782,113,0.078472,70,A4#,96,1
460680,430.540782,113,0.078472,50,D3,96,2
460800,430.624116,113,0.078472,74,D5,96,1
460800,430.624116,113,0.078472,46,A2#,96,2
460920,430.707449,113,0.078472,77,F5,96,1
460920,430.707449,113,0.078472,43,G2,96,2
461040,430.790782,113,0.078472,74,D5,96,1
461040,430.790782,113,0.078472,46,A2#,96,2
461160,430.874115,113,0.078472,70,A4#,96,1
461160,430.874115,113,0.078472,50,D3,96,2
461280,430.957449,113,0.078472,67,G4,96,1
461280,430.957449,113,0.078472,55,G3,96,2
461400,431.040782,113,0.078472,70,A4#,96,1
461400,431.040782,113,0.078472,50,D3,96,2
461520,431.124115,113,0.078472,74,D5,96,1
461520,431.124115,113,0.078472,46,A2#,96,2
461640,431.207448,113,0.078472,77,F5,96,1
461640,431.207448,113,0.078472,43,G2,96,2
461760,431.290782,113,0.078472,74,D5,96,1
461760,431.290782,113,0.078472,46,A2#,96,2
461880,431.374115,113,0.078472,70,A4#,96,1
461880,431.374115,113,0.078472,50,D3,96,2
462000,431.457448,113,0.078472,67,G4,96,1
462000,431.457448,113,0.078472,55,G3,96,2
462120,431.540781,113,0.078472,70,A4#,96,1
462120,431.540781,113,0.078472,50,D3,96,2
462240,431.624115,113,0.078472,74,D5,96,1
462240,431.624115,113,0.078472,46,A2#,96,2
462360,431.707448,113,0.078472,77,F5,96,1
462360,431.707448,113,0.078472,43,G2,96,2
462480,431.790781,113,0.078472,74,D5,96,1
462480,431.790781,113,0.078472,46,A2#,96,2
462600,431.874114,113,0.078472,70,A4#,96,1
462600,431.874114,113,0.078472,50,D3,96,2
462720,431.957448,113,0.078472,67,G4,96,1
462720,431.957448,113,0.078472,55,G3,96,2
462840,432.040781,113,0.078472,70,A4#,96,1
462840,432.040781,113,0.078472,50,D3,96,2
462960,432.124114,113,0.078472,74,D5,96,1
462960,432.124114,113,0.078472,46,A2#,96,2
463080,432.207447,113,0.078472,77,F5,96,1
463080,432.207447,113,0.078472,43,G2,96,2
463200,432.290781,113,0.078472,74,D5,96,1
463200,432.290781,113,0.078472,46,A2#,96,2
463320,432.374114,113,0.078472,70,A4#,96,1
463320,432.374114,113,0.078472,50,D3,96,2
463440,432.457447,113,0.078472,67,G4,96,1
463440,432.457447,113,0.078472,55,G3,96,2
463560,432.54078,113,0.078472,70,A4#,96,1
463560,432.54078,113,0.078472,50,D3,96,2
463680,432.624114,113,0.078472,74,D5,96,1
463680,432.624114,113,0.078472,46,A2#,96,2
463800,432.707447,113,0.078472,77,F5,96,1
463800,432.707447,113,0.078472,43,G2,96,2
463920,432.79078,113,0.078472,74,D5,96,1
463920,432.79078,113,0.078472,46,A2#,96,2
464040,432.874113,113,0.078472,70,A4#,96,1
464040,432.874113,113,0.078472,50,D3,96,2
464160,432.957447,113,0.078472,67,G4,96,1
464160,432.957447,113,0.078472,55,G3,96,2
464280,433.04078,113,0.078472,70,A4#,96,1
464280,433.04078,113,0.078472,50,D3,96,2
464400,433.124113,113,0.078472,74,D5,96,1
464400,433.124113,113,0.078472,46,A2#,96,2
464520,433.207446,113,0.078472,77,F5,96,1
464520,433.207446,113,0.078472,43,G2,96,2
464640,433.29078,113,0.078472,74,D5,96,1
464640,433.29078,113,0.078472,46,A2#,96,2
464760,433.374113,113,0.078472,70,A4#,96,1
464760,433.374113,113,0.078472,50,D3,96,2
464880,433.457446,113,0.078472,67,G4,96,1
464880,433.457446,113,0.078472,55,G3,96,2
465000,433.540779,113,0.078472,70,A4#,96,1
465000,433.540779,113,0.078472,50,D3,96,2
465120,433.624113,113,0.078472,74,D5,96,1
465120,433.624113,113,0.078472,46,A2#,96,2
465240,433.707446,113,0.078472,77,F5,96,1
465240,433.707446,113,0.078472,43,G2,96,2
465360,433.790779,113,0.078472,74,D5,96,1
465360,433.790779,113,0.078472,46,A2#,96,2
465480,433.874112,113,0.078472,70,A4#,96,1
465480,433.874112,113,0.078472,50,D3,96,2
465600,433.957446,113,0.078472,69,A4,96,1
465600,433.957446,113,0.078472,53,F3,96,2
465720,434.040779,113,0.078472,72,C5,96,1
465720,434.040779,113,0.078472,48,C3,96,2
465840,434.124112,113,0.078472,76,E5,96,1
465840,434.124112,113,0.078472,45,A2,96,2
465960,434.207445,113,0.078472,77,F5,96,1
465960,434.207445,113,0.078472,41,F2,96,2
466080,434.290779,113,0.078472,76,E5,96,1
466080,434.290779,113,0.078472,45,A2,96,2
466200,434.374112,113,0.078472,72,C5,96,1
466200,434.374112,113,0.078472,48,C3,96,2
466320,434.457445,113,0.078472,69,A4,96,1
466320,434.457445,113,0.078472,53,F3,96,2
466440,434.540778,113,0.078472,72,C5,96,1
466440,434.540778,113,0.078472,48,C3,96,2
466560,434.624112,113,0.078472,76,E5,96,1
466560,434.624112,113,0.078472,45,A2,96,2
466680,434.707445,113,0.078472,77,F5,96,1
466680,434.707445,113,0.078472,41,F2,96,2
466800,434.790778,113,0.078472,76,E5,96,1
466800,434.790778,113,0.078472,45,A2,96,2
466920,434.874111,113,0.078472,72,C5,96,1
466920,434.874111,113,0.078472,48,C3,96,2
467040,434.957445,113,0.078472,69,A4,96,1
467040,434.957445,113,0.078472,53,F3,96,2
467160,435.040778,113,0.078472,72,C5,96,1
467160,435.040778,113,0.078472,48,C3,96,2
467280,435.124111,113,0.078472,76,E5,96,1
467280,435.124111,113,0.078472,45,A2,96,2
467400,435.207444,113,0.078472,77,F5,96,1
467400,435.207444,113,0.078472,41,F2,96,2
467520,435.290778,113,0.078472,76,E5,96,1
467520,435.290778,113,0.078472,45,A2,96,2
467640,435.374111,113,0.078472,72,C5,96,1
467640,435.374111,113,0.078472,48,C3,96,2
467760,435.457444,113,0.078472,69,A4,96,1
467760,435.457444,113,0.078472,53,F3,96,2
467880,435.540777,113,0.078472,72,C5,96,1
467880,435.540777,113,0.078472,48,C3,96,2
468000,435.624111,113,0.078472,76,E5,96,1
468000,435.624111,113,0.078472,45,A2,96,2
468120,435.707444,113,0.078472,77,F5,96,1
468120,435.707444,113,0.078472,41,F2,96,2
468240,435.790777,113,0.078472,76,E5,96,1
468240,435.790777,113,0.078472,45,A2,96,2
468360,435.87411,113,0.078472,72,C5,96,1
468360,435.87411,113,0.078472,48,C3,96,2
468480,435.957444,113,0.078472,69,A4,96,1
468480,435.957444,113,0.078472,53,F3,96,2
468600,436.040777,113,0.078472,72,C5,96,1
468600,436.040777,113,0.078472,48,C3,96,2
468720,436.12411,113,0.078472,76,E5,96,1
468720,436.12411,113,0.078472,45,A2,96,2
468840,436.207443,113,0.078472,77,F5,96,1
468840,436.207443,113,0.078472,41,F2,96,2
468960,436.290777,113,0.078472,76,E5,96,1
468960,436.290777,113,0.078472,45,A2,96,2
469080,436.37411,113,0.078472,77,F5,96,1
469080,436.37411,113,0.078472,41,F2,96,2
469200,436.457443,113,0.078472,76,E5,96,1
469200,436.457443,113,0.078472,45,A2,96,2
469320,436.540776,113,0.078472,72,C5,96,1
469320,436.540776,113,0.078472,48,C3,96,2
469440,436.62411,113,0.078472,69,A4,96,1
469440,436.62411,113,0.078472,53,F3,96,2
469560,436.707443,113,0.078472,72,C5,96,1
469560,436.707443,113,0.078472,48,C3,96,2
469680,436.790776,113,0.078472,76,E5,96,1
469680,436.790776,113,0.078472,45,A2,96,2
469800,436.874109,113,0.078472,77,F5,96,1
469800,436.874109,113,0.078472,41,F2,96,2
469920,436.957443,113,0.078472,76,E5,96,1
469920,436.957443,113,0.078472,45,A2,96,2
470040,437.040776,113,0.078472,72,C5,96,1
470040,437.040776,113,0.078472,48,C3,96,2
470160,437.124109,113,0.078472,69,A4,96,1
470160,437.124109,113,0.078472,53,F3,96,2
470280,437.207442,113,0.078472,72,C5,96,1
470280,437.207442,113,0.078472,48,C3,96,2
470400,437.290776,113,0.078472,76,E5,96,1
470400,437.290776,113,0.078472,45,A2,96,2
470520,437.374109,113,0.078472,77,F5,96,1
470520,437.374109,113,0.078472,41,F2,96,2
470640,437.457442,113,0.078472,76,E5,96,1
470640,437.457442,113,0.078472,45,A2,96,2
470760,437.540775,113,0.078472,77,F5,96,1
470760,437.540775,113,0.078472,41,F2,96,2
470880,437.624109,113,0.078472,76,E5,96,1
470880,437.624109,113,0.078472,45,A2,96,2
471000,437.707442,113,0.078472,72,C5,96,1
471000,437.707442,113,0.078472,48,C3,96,2
471120,437.790775,113,0.078472,69,A4,96,1
471120,437.790775,113,0.078472,53,F3,96,2
471240,437.874108,113,0.078472,72,C5,96,1
471240,437.874108,113,0.078472,48,C3,96,2
471360,437.957442,113,0.078472,76,E5,96,1
471360,437.957442,113,0.078472,45,A2,96,2
471480,438.040775,113,0.078472,77,F5,96,1
471480,438.040775,113,0.078472,41,F2,96,2
471600,438.124108,113,0.078472,76,E5,96,1
471600,438.124108,113,0.078472,45,A2,96,2
471720,438.207441,113,0.078472,72,C5,96,1
471720,438.207441,113,0.078472,48,C3,96,2
471840,438.290775,113,0.078472,67,G4,96,1
471840,438.290775,113,0.078472,55,G3,96,2
471960,438.374108,113,0.078472,70,A4#,96,1
471960,438.374108,113,0.078472,50,D3,96,2
472080,438.457441,113,0.078472,74,D5,96,1
472080,438.457441,113,0.078472,46,A2#,96,2
472200,438.540774,113,0.078472,77,F5,96,1
472200,438.540774,113,0.078472,43,G2,96,2
472320,438.624108,113,0.078472,74,D5,96,1
472320,438.624108,113,0.078472,46,A2#,96,2
472440,438.707441,113,0.078472,70,A4#,96,1
472440,438.707441,113,0.078472,50,D3,96,2
472560,438.790774,113,0.078472,67,G4,96,1
472560,438.790774,113,0.078472,55,G3,96,2
472680,438.874107,113,0.078472,70,A4#,96,1
472680,438.874107,113,0.078472,50,D3,96,2
472800,438.957441,113,0.078472,74,D5,96,1
472800,438.957441,113,0.078472,46,A2#,96,2
472920,439.040774,113,0.078472,77,F5,96,1
472920,439.040774,113,0.078472,43,G2,96,2
473040,439.124107,113,0.078472,74,D5,96,1
473040,439.124107,113,0.078472,46,A2#,96,2
473160,439.20744,113,0.078472,70,A4#,96,1
473160,439.20744,113,0.078472,50,D3,96,2
473280,439.290774,113,0.078472,67,G4,96,1
473280,439.290774,113,0.078472,55,G3,96,2
473400,439.374107,113,0.078472,70,A4#,96,1
473400,439.374107,113,0.078472,50,D3,96,2
473520,439.45744,113,0.078472,74,D5,96,1
473520,439.45744,113,0.078472,46,A2#,96,2
473640,439.540773,113,0.078472,77,F5,96,1
473640,439.540773,113,0.078472,43,G2,96,2
473760,439.624107,113,0.078472,74,D5,96,1
473760,439.624107,113,0.078472,46,A2#,96,2
473880,439.70744,113,0.078472,70,A4#,96,1
473880,439.70744,113,0.078472,50,D3,96,2
474000,439.790773,113,0.078472,67,G4,96,1
474000,439.790773,113,0.078472,55,G3,96,2
474120,439.874106,113,0.078472,70,A4#,96,1
474120,439.874106,113,0.078472,50,D3,96,2
474240,439.95744,113,0.078472,74,D5,96,1
474240,439.95744,113,0.078472,46,A2#,96,2
474360,440.040773,113,0.078472,77,F5,96,1
474360,440.040773,113,0.078472,43,G2,96,2
474480,440.124106,113,0.078472,74,D5,96,1
474480,440.124106,113,0.078472,46,A2#,96,2
474600,440.207439,113,0.078472,70,A4#,96,1
474600,440.207439,113,0.078472,50,D3,96,2
474720,440.290773,113,0.078472,67,G4,96,1
474720,440.290773,113,0.078472,55,G3,96,2
474840,440.374106,113,0.078472,70,A4#,96,1
474840,440.374106,113,0.078472,49,C3#,96,2
474960,440.457439,113,0.078472,73,C5#,96,1
474960,440.457439,113,0.078472,46,A2#,96,2
475080,440.540772,113,0.078472,77,F5,96,1
475080,440.540772,113,0.078472,43,G2,96,2
475200,440.624106,113,0.078472,73,C5#,96,1
475200,440.624106,113,0.078472,46,A2#,96,2
475320,440.707439,113,0.078472,70,A4#,96,1
475320,440.707439,113,0.078472,49,C3#,96,2
475440,440.790772,113,0.078472,67,G4,96,1
475440,440.790772,113,0.078472,55,G3,96,2
475560,440.874105,113,0.078472,70,A4#,96,1
475560,440.874105,113,0.078472,49,C3#,96,2
475680,440.957439,113,0.078472,73,C5#,96,1
475680,440.957439,113,0.078472,46,A2#,96,2
475800,441.040772,113,0.078472,77,F5,96,1
475800,441.040772,113,0.078472,43,G2,96,2
475920,441.124105,113,0.078472,73,C5#,96,1
475920,441.124105,113,0.078472,46,A2#,96,2
476040,441.207438,113,0.078472,70,A4#,96,1
476040,441.207438,113,0.078472,49,C3#,96,2
476160,441.290772,113,0.078472,67,G4,96,1
476160,441.290772,113,0.078472,55,G3,96,2
476280,441.374105,113,0.078472,70,A4#,96,1
476280,441.374105,113,0.078472,49,C3#,96,2
476400,441.457438,113,0.078472,73,C5#,96,1
476400,441.457438,113,0.078472,46,A2#,96,2
476520,441.540771,113,0.078472,77,F5,96,1
476520,441.540771,113,0.078472,43,G2,96,2
476640,441.624105,113,0.078472,73,C5#,96,1
476640,441.624105,113,0.078472,46,A2#,96,2
476760,441.707438,113,0.078472,70,A4#,96,1
476760,441.707438,113,0.078472,49,C3#,96,2
476880,441.790771,113,0.078472,67,G4,96,1
476880,441.790771,113,0.078472,55,G3,96,2
477000,441.874104,113,0.078472,70,A4#,96,1
477000,441.874104,113,0.078472,49,C3#,96,2
477120,441.957438,113,0.078472,73,C5#,96,1
477120,441.957438,113,0.078472,46,A2#,96,2
477240,442.040771,113,0.078472,77,F5,96,1
477240,442.040771,113,0.078472,43,G2,96,2
477360,442.124104,113,0.078472,73,C5#,96,1
477360,442.124104,113,0.078472,46,A2#,96,2
477480,442.207437,113,0.078472,70,A4#,96,1
477480,442.207437,113,0.078472,49,C3#,96,2
477600,442.290771,113,0.078472,69,A4,96,1
477600,442.290771,113,0.078472,53,F3,96,2
477720,442.374104,113,0.078472,72,C5,96,1
477720,442.374104,113,0.078472,48,C3,96,2
477840,442.457437,113,0.078472,76,E5,96,1
477840,442.457437,113,0.078472,45,A2,96,2
477960,442.54077,113,0.078472,77,F5,96,1
477960,442.54077,113,0.078472,41,F2,96,2
478080,442.624104,113,0.078472,76,E5,96,1
478080,442.624104,113,0.078472,45,A2,96,2
478200,442.707437,113,0.078472,72,C5,96,1
478200,442.707437,113,0.078472,48,C3,96,2
478320,442.79077,113,0.078472,69,A4,96,1
478320,442.79077,113,0.078472,53,F3,96,2
478440,442.874103,113,0.078472,72,C5,96,1
478440,442.874103,113,0.078472,48,C3,96,2
478560,442.957437,113,0.078472,76,E5,96,1
478560,442.957437,113,0.078472,45,A2,96,2
478680,443.04077,113,0.078472,77,F5,96,1
478680,443.04077,113,0.078472,41,F2,96,2
478800,443.124103,113,0.078472,76,E5,96,1
478800,443.124103,113,0.078472,45,A2,96,2
478920,443.207436,113,0.078472,72,C5,96,1
478920,443.207436,113,0.078472,48,C3,96,2
479040,443.29077,113,0.078472,69,A4,96,1
479040,443.29077,113,0.078472,53,F3,96,2
479160,443.374103,113,0.078472,72,C5,96,1
479160,443.374103,113,0.078472,48,C3,96,2
479280,443.457436,113,0.078472,76,E5,96,1
479280,443.457436,113,0.078472,45,A2,96,2
479400,443.540769,113,0.078472,77,F5,96,1
479400,443.540769,113,0.078472,41,F2,96,2
479520,443.624103,113,0.078472,76,E5,96,1
479520,443.624103,113,0.078472,45,A2,96,2
479640,443.707436,113,0.078472,72,C5,96,1
479640,443.707436,113,0.078472,48,C3,96,2
479760,443.790769,113,0.078472,69,A4,96,1
479760,443.790769,113,0.078472,53,F3,96,2
479880,443.874102,113,0.078472,72,C5,96,1
479880,443.874102,113,0.078472,48,C3,96,2
480000,443.957436,113,0.078472,76,E5,96,1
480000,443.957436,113,0.078472,45,A2,96,2
480120,444.040769,113,0.078472,77,F5,96,1
480120,444.040769,113,0.078472,41,F2,96,2
480240,444.124102,113,0.078472,76,E5,96,1
480240,444.124102,113,0.078472,45,A2,96,2
480360,444.207435,113,0.078472,72,C5,96,1
480360,444.207435,113,0.078472,48,C3,96,2
480480,444.290769,113,0.078472,69,A4,96,1
480480,444.290769,113,0.078472,53,F3,96,2
480600,444.374102,113,0.078472,72,C5,96,1
480600,444.374102,113,0.078472,48,C3,96,2
480720,444.457435,113,0.078472,76,E5,96,1
480720,444.457435,113,0.078472,45,A2,96,2
480840,444.540768,113,0.078472,77,F5,96,1
480840,444.540768,113,0.078472,41,F2,96,2
480960,444.624102,113,0.078472,76,E5,96,1
480960,444.624102,113,0.078472,45,A2,96,2
481080,444.707435,113,0.078472,77,F5,96,1
481080,444.707435,113,0.078472,41,F2,96,2
481200,444.790768,113,0.078472,76,E5,96,1
481200,444.790768,113,0.078472,45,A2,96,2
481320,444.874101,113,0.078472,72,C5,96,1
481320,444.874101,113,0.078472,48,C3,96,2
481440,444.957435,113,0.078472,69,A4,96,1
481440,444.957435,113,0.078472,53,F3,96,2
481560,445.040768,113,0.078472,72,C5,96,1
481560,445.040768,113,0.078472,48,C3,96,2
481680,445.124101,113,0.078472,76,E5,96,1
481680,445.124101,113,0.078472,45,A2,96,2
481800,445.207434,113,0.078472,77,F5,96,1
481800,445.207434,113,0.078472,41,F2,96,2
481920,445.290768,113,0.078472,76,E5,96,1
481920,445.290768,113,0.078472,45,A2,96,2
482040,445.374101,113,0.078472,72,C5,96,1
482040,445.374101,113,0.078472,48,C3,96,2
482160,445.457434,113,0.078472,69,A4,96,1
482160,445.457434,113,0.078472,53,F3,96,2
482280,445.540767,113,0.078472,72,C5,96,1
482280,445.540767,113,0.078472,48,C3,96,2
482400,445.624101,113,0.078472,76,E5,96,1
482400,445.624101,113,0.078472,45,A2,96,2
482520,445.707434,113,0.078472,77,F5,96,1
482520,445.707434,113,0.078472,41,F2,96,2
482640,445.790767,113,0.078472,76,E5,96,1
482640,445.790767,113,0.078472,45,A2,96,2
482760,445.8741,113,0.078472,77,F5,96,1
482760,445.8741,113,0.078472,41,F2,96,2
482880,445.957434,113,0.078472,76,E5,96,1
482880,445.957434,113,0.078472,45,A2,96,2
483000,446.040767,113,0.078472,72,C5,96,1
483000,446.040767,113,0.078472,48,C3,96,2
483120,446.1241,113,0.078472,69,A4,96,1
483120,446.1241,113,0.078472,53,F3,96,2
483240,446.207433,113,0.078472,72,C5,96,1
483240,446.207433,113,0.078472,48,C3,96,2
483360,446.290767,113,0.078472,76,E5,96,1
483360,446.290767,113,0.078472,45,A2,96,2
483480,446.3741,113,0.078472,77,F5,96,1
483480,446.3741,113,0.078472,41,F2,96,2
483600,446.457433,113,0.078472,76,E5,96,1
483600,446.457433,113,0.078472,45,A2,96,2
483720,446.540766,113,2.825,72,C5,96,1
483720,446.540766,113,2.825,48,C3,96,2
483840,449.540766,239,0.248958,57,A3,49,2
483840,449.540766,3839,3.998958,53,F3,49,2
484080,449.790766,239,0.248958,60,C4,49,2
484320,450.040766,239,0.248958,57,A3,49,2
484560,450.290766,239,0.248958,60,C4,49,2
484800,450.540766,239,0.248958,57,A3,49,2
485040,450.790766,239,0.248958,60,C4,49,2
485280,451.040766,239,0.248958,57,A3,49,2
485520,451.290766,227,0.236458,60,C4,49,2
485760,451.540766,239,0.248958,57,A3,49,2
486000,451.790766,239,0.248958,60,C4,49,2
486240,452.040766,239,0.248958,57,A3,49,2
486480,452.290766,239,0.248958,60,C4,49,2
486720,452.540766,239,0.248958,57,A3,49,2
486960,452.790766,239,0.248958,60,C4,49,2
487200,453.040766,239,0.248958,57,A3,49,2
487440,453.290766,227,0.236458,60,C4,49,2
487680,453.540766,3647,3.798958,36,C2,49,1
487680,453.540766,239,0.248958,57,A3,49,2
487680,453.540766,3839,3.998958,52,E3,49,2
487920,453.790766,239,0.248958,60,C4,49,2
488160,454.040766,239,0.248958,57,A3,49,2
488400,454.290766,239,0.248958,60,C4,49,2
488640,454.540766,239,0.248958,57,A3,49,2
488880,454.790766,239,0.248958,60,C4,49,2
489120,455.040766,239,0.248958,57,A3,49,2
489360,455.290766,227,0.236458,60,C4,49,2
489600,455.540766,239,0.248958,57,A3,49,2
489840,455.790766,239,0.248958,60,C4,49,2
490080,456.040766,239,0.248958,57,A3,49,2
490320,456.290766,239,0.248958,60,C4,49,2
490560,456.540766,239,0.248958,57,A3,49,2
490800,456.790766,239,0.248958,60,C4,49,2
491040,457.040766,239,0.248958,57,A3,49,2
491280,457.290766,227,0.236458,60,C4,49,2
491520,457.540766,159,0.165625,72,C5,64,1
491520,457.540766,239,0.248958,57,A3,64,2
491520,457.540766,3839,3.998958,53,F3,64,2
491680,457.707432,159,0.165625,69,A4,64,1
491760,457.790766,239,0.248958,60,C4,64,2
491840,457.874099,159,0.165625,72,C5,64,1
492000,458.040766,159,0.165625,69,A4,64,1
492000,458.040766,239,0.248958,57,A3,64,2
492160,458.207432,159,0.165625,72,C5,64,1
492240,458.290766,239,0.248958,60,C4,64,2
492320,458.374099,159,0.165625,69,A4,64,1
492480,458.540766,159,0.165625,72,C5,64,1
492480,458.540766,239,0.248958,57,A3,64,2
492640,458.707432,159,0.165625,69,A4,64,1
492720,458.790766,239,0.248958,60,C4,64,2
492800,458.874099,159,0.165625,72,C5,64,1
492960,459.040766,159,0.165625,69,A4,64,1
492960,459.040766,239,0.248958,57,A3,64,2
493120,459.207432,159,0.165625,72,C5,64,1
493200,459.290766,227,0.236458,60,C4,64,2
493280,459.374099,159,0.165625,69,A4,64,1
493440,459.540766,159,0.165625,72,C5,64,1
493440,459.540766,239,0.248958,57,A3,64,2
493600,459.707432,159,0.165625,69,A4,64,1
493680,459.790766,239,0.248958,60,C4,64,2
493760,459.874099,159,0.165625,72,C5,64,1
493920,460.040766,159,0.165625,69,A4,64,1
493920,460.040766,239,0.248958,57,A3,64,2
494080,460.207432,159,0.165625,72,C5,64,1
494160,460.290766,239,0.248958,60,C4,64,2
494240,460.374099,159,0.165625,69,A4,64,1
494400,460.540766,159,0.165625,72,C5,64,1
494400,460.540766,239,0.248958,57,A3,64,2
494560,460.707432,159,0.165625,69,A4,64,1
494640,460.790766,239,0.248958,60,C4,64,2
494720,460.874099,159,0.165625,72,C5,64,1
494880,461.040766,159,0.165625,69,A4,64,1
494880,461.040766,239,0.248958,57,A3,64,2
495040,461.207432,159,0.165625,72,C5,64,1
495120,461.290766,227,0.236458,60,C4,64,2
495200,461.374099,151,0.157292,69,A4,64,1
495360,461.540766,159,0.165625,72,C5,64,1
495360,461.540766,239,0.248958,57,A3,64,2
495360,461.540766,3839,3.998958,52,E3,64,2
495520,461.707432,159,0.165625,64,E4,64,1
495600,461.790766,239,0.248958,60,C4,64,2
495680,461.874099,159,0.165625,72,C5,64,1
495840,462.040766,159,0.165625,64,E4,64,1
495840,462.040766,239,0.248958,57,A3,64,2
496000,462.207432,159,0.165625,72,C5,64,1
496080,462.290766,239,0.248958,60,C4,64,2
496160,462.374099,159,0.165625,64,E4,64,1
496320,462.540766,159,0.165625,72,C5,64,1
496320,462.540766,239,0.248958,57,A3,64,2
496480,462.707432,159,0.165625,64,E4,64,1
496560,462.790766,239,0.248958,60,C4,64,2
496640,462.874099,159,0.165625,72,C5,64,1
496800,463.040766,159,0.165625,64,E4,64,1
496800,463.040766,239,0.248958,57,A3,64,2
496960,463.207432,159,0.165625,72,C5,64,1
497040,463.290766,227,0.236458,60,C4,64,2
497120,463.374099,159,0.165625,64,E4,64,1
497280,463.540766,159,0.165625,72,C5,64,1
497280,463.540766,239,0.248958,57,A3,64,2
497440,463.707432,159,0.165625,64,E4,64,1
497520,463.790766,239,0.248958,60,C4,64,2
497600,463.874099,159,0.165625,72,C5,64,1
497760,464.040766,159,0.165625,64,E4,64,1
497760,464.040766,239,0.248958,57,A3,64,2
497920,464.207432,159,0.165625,72,C5,64,1
498000,464.290766,239,0.248958,60,C4,64,2
498080,464.374099,159,0.165625,64,E4,64,1
498240,464.540766,159,0.165625,72,C5,64,1
498240,464.540766,239,0.248958,57,A3,64,2
498400,464.707432,159,0.165625,64,E4,64,1
498480,464.790766,239,0.248958,60,C4,64,2
498560,464.874099,159,0.165625,72,C5,64,1
498720,465.040766,159,0.165625,64,E4,64,1
498720,465.040766,239,0.248958,57,A3,64,2
498880,465.207432,159,0.165625,72,C5,64,1
498960,465.290766,227,0.236458,60,C4,64,2
499040,465.374099,151,0.157292,64,E4,64,1
499200,465.540766,159,0.165625,72,C5,64,1
499200,465.540766,239,0.248958,57,A3,64,2
499200,465.540766,3839,3.998958,53,F3,64,2
499360,465.707432,159,0.165625,69,A4,64,1
499440,465.790766,239,0.248958,60,C4,64,2
499520,465.874099,159,0.165625,72,C5,64,1
499680,466.040766,159,0.165625,69,A4,64,1
499680,466.040766,239,0.248958,57,A3,64,2
499840,466.207432,159,0.165625,72,C5,64,1
499920,466.290766,239,0.248958,60,C4,64,2
500000,466.374099,159,0.165625,69,A4,64,1
500160,466.540766,159,0.165625,72,C5,64,1
500160,466.540766,239,0.248958,57,A3,64,2
500320,466.707432,159,0.165625,69,A4,64,1
500400,466.790766,239,0.248958,60,C4,64,2
500480,466.874099,159,0.165625,72,C5,64,1
500640,467.040766,159,0.165625,69,A4,64,1
500640,467.040766,239,0.248958,57,A3,64,2
500800,467.207432,159,0.165625,72,C5,64,1
500880,467.290766,227,0.236458,60,C4,64,2
500960,467.374099,159,0.165625,69,A4,64,1
501120,467.540766,159,0.165625,72,C5,64,1
501120,467.540766,239,0.248958,57,A3,64,2
501280,467.707432,159,0.165625,69,A4,64,1
501360,467.790766,239,0.248958,60,C4,64,2
501440,467.874099,159,0.165625,72,C5,64,1
501600,468.040766,159,0.165625,69,A4,64,1
501600,468.040766,239,0.248958,57,A3,64,2
501760,468.207432,159,0.165625,72,C5,64,1
501840,468.290766,239,0.248958,60,C4,64,2
501920,468.374099,159,0.165625,69,A4,64,1
502080,468.540766,159,0.165625,72,C5,64,1
502080,468.540766,239,0.248958,57,A3,64,2
502240,468.707432,159,0.165625,69,A4,64,1
502320,468.790766,239,0.248958,60,C4,64,2
502400,468.874099,159,0.165625,72,C5,64,1
502560,469.040766,159,0.165625,69,A4,64,1
502560,469.040766,239,0.248958,57,A3,64,2
502720,469.207432,159,0.165625,72,C5,64,1
502800,469.290766,227,0.236458,60,C4,64,2
502880,469.374099,151,0.157292,69,A4,64,1
503040,469.540766,159,0.165625,72,C5,64,1
503040,469.540766,239,0.248958,57,A3,64,2
503040,469.540766,3839,3.998958,52,E3,64,2
503200,469.707432,159,0.165625,64,E4,64,1
503280,469.790766,239,0.248958,60,C4,64,2
503360,469.874099,159,0.165625,72,C5,64,1
503520,470.040766,159,0.165625,64,E4,64,1
503520,470.040766,239,0.248958,57,A3,64,2
503680,470.207432,159,0.165625,72,C5,64,1
503760,470.290766,239,0.248958,60,C4,64,2
503840,470.374099,159,0.165625,64,E4,64,1
504000,470.540766,159,0.165625,72,C5,64,1
504000,470.540766,239,0.248958,57,A3,64,2
504160,470.707432,159,0.165625,64,E4,64,1
504240,470.790766,239,0.248958,60,C4,64,2
504320,470.874099,159,0.165625,72,C5,64,1
504480,471.040766,159,0.165625,64,E4,64,1
504480,471.040766,239,0.248958,57,A3,64,2
504640,471.207432,159,0.165625,72,C5,64,1
504720,471.290766,227,0.236458,60,C4,64,2
504800,471.374099,159,0.165625,64,E4,64,1
504960,471.540766,159,0.165625,72,C5,64,1
504960,471.540766,239,0.248958,57,A3,64,2
505120,471.707432,159,0.165625,64,E4,64,1
505200,471.790766,239,0.248958,60,C4,64,2
505280,471.874099,159,0.165625,72,C5,64,1
505440,472.040766,159,0.165625,64,E4,64,1
505440,472.040766,239,0.248958,57,A3,64,2
505600,472.207432,159,0.165625,72,C5,64,1
505680,472.290766,239,0.248958,60,C4,64,2
505760,472.374099,159,0.165625,64,E4,64,1
505920,472.540766,159,0.165625,72,C5,64,1
505920,472.540766,239,0.248958,57,A3,64,2
506080,472.707432,159,0.165625,64,E4,64,1
506160,472.790766,239,0.248958,60,C4,64,2
506240,472.874099,159,0.165625,72,C5,64,1
506400,473.040766,159,0.165625,64,E4,64,1
506400,473.040766,239,0.248958,57,A3,64,2
506560,473.207432,159,0.165625,72,C5,64,1
506640,473.290766,227,0.236458,60,C4,64,2
506720,473.374099,151,0.157292,64,E4,64,1
506880,473.540766,159,0.165625,72,C5,64,1
506880,473.540766,239,0.248958,57,A3,64,2
506880,473.540766,1919,1.998958,53,F3,64,2
507040,473.707432,159,0.165625,69,A4,64,1
507120,473.790766,239,0.248958,60,C4,64,2
507200,473.874099,159,0.165625,72,C5,64,1
507360,474.040766,159,0.165625,69,A4,64,1
507360,474.040766,239,0.248958,57,A3,64,2
507520,474.207432,159,0.165625,72,C5,64,1
507600,474.290766,239,0.248958,60,C4,64,2
507680,474.374099,159,0.165625,69,A4,64,1
507840,474.540766,159,0.165625,72,C5,64,1
507840,474.540766,239,0.248958,57,A3,64,2
508000,474.707432,159,0.165625,69,A4,64,1
508080,474.790766,239,0.248958,60,C4,64,2
508160,474.874099,159,0.165625,72,C5,64,1
508320,475.040766,159,0.165625,69,A4,64,1
508320,475.040766,239,0.248958,57,A3,64,2
508480,475.207432,159,0.165625,72,C5,64,1
508560,475.290766,227,0.236458,60,C4,64,2
508640,475.374099,159,0.165625,69,A4,64,1
508800,475.540766,159,0.165625,72,C5,64,1
508800,475.540766,239,0.248958,55,G3,64,2
508800,475.540766,239,0.248958,55,G3,64,2
508960,475.707432,159,0.165625,67,G4,64,1
509040,475.790766,239,0.248958,60,C4,64,2
509120,475.874099,159,0.165625,72,C5,64,1
509280,476.040766,159,0.165625,67,G4,64,1
509280,476.040766,239,0.248958,55,G3,64,2
509280,476.040766,239,0.248958,55,G3,64,2
509440,476.207432,159,0.165625,72,C5,64,1
509520,476.290766,239,0.248958,60,C4,64,2
509600,476.374099,159,0.165625,67,G4,64,1
509760,476.540766,159,0.165625,72,C5,64,1
509760,476.540766,239,0.248958,57,A3,64,2
509760,476.540766,479,0.498958,53,F3,64,2
509920,476.707432,159,0.165625,69,A4,64,1
510000,476.790766,239,0.248958,60,C4,64,2
510080,476.874099,159,0.165625,72,C5,64,1
510240,477.040766,159,0.165625,69,A4,64,1
510240,477.040766,239,0.248958,57,A3,64,2
510240,477.040766,479,0.498958,53,F3,64,2
510400,477.207432,159,0.165625,72,C5,64,1
510480,477.290766,227,0.236458,60,C4,64,2
510560,477.374099,151,0.157292,69,A4,64,1
510720,477.540766,159,0.165625,72,C5,64,1
510720,477.540766,239,0.248958,57,A3,64,2
510720,477.540766,3839,3.998958,52,E3,64,2
510880,477.707432,159,0.165625,64,E4,64,1
510960,477.790766,239,0.248958,60,C4,64,2
511040,477.874099,159,0.165625,72,C5,64,1
511200,478.040766,159,0.165625,64,E4,64,1
511200,478.040766,239,0.248958,57,A3,64,2
511360,478.207432,159,0.165625,72,C5,64,1
511440,478.290766,239,0.248958,60,C4,64,2
511520,478.374099,159,0.165625,64,E4,64,1
511680,478.540766,159,0.165625,72,C5,64,1
511680,478.540766,239,0.248958,57,A3,64,2
511840,478.707432,159,0.165625,64,E4,64,1
511920,478.790766,239,0.248958,60,C4,64,2
512000,478.874099,159,0.165625,72,C5,64,1
512160,479.040766,159,0.165625,64,E4,64,1
512160,479.040766,239,0.248958,57,A3,64,2
512320,479.207432,159,0.165625,72,C5,64,1
512400,479.290766,227,0.236458,60,C4,64,2
512480,479.374099,159,0.165625,64,E4,64,1
512640,479.540766,159,0.165625,72,C5,64,1
512640,479.540766,239,0.248958,57,A3,64,2
512800,479.707432,159,0.165625,64,E4,64,1
512880,479.790766,239,0.248958,60,C4,64,2
512960,479.874099,159,0.165625,72,C5,64,1
513120,480.040766,159,0.165625,64,E4,64,1
513120,480.040766,239,0.248958,57,A3,64,2
513280,480.207432,159,0.165625,72,C5,64,1
513360,480.290766,239,0.248958,60,C4,64,2
513440,480.374099,159,0.165625,64,E4,64,1
513600,480.540766,159,0.165625,72,C5,64,1
513600,480.540766,239,0.248958,57,A3,64,2
513760,480.707432,159,0.165625,64,E4,64,1
513840,480.790766,239,0.248958,60,C4,64,2
513920,480.874099,159,0.165625,72,C5,64,1
514080,481.040766,159,0.165625,64,E4,64,1
514080,481.040766,239,0.248958,57,A3,64,2
514240,481.207432,159,0.165625,72,C5,64,1
514320,481.290766,227,0.236458,60,C4,64,2
514400,481.374099,151,0.157292,64,E4,64,1
514560,481.540766,159,0.165625,72,C5,64,1
514560,481.540766,239,0.248958,57,A3,64,2
514560,481.540766,1919,1.998958,53,F3,64,2
514720,481.707432,159,0.165625,69,A4,64,1
514800,481.790766,239,0.248958,60,C4,64,2
514880,481.874099,159,0.165625,72,C5,64,1
515040,482.040766,159,0.165625,69,A4,64,1
515040,482.040766,239,0.248958,57,A3,64,2
515200,482.207432,159,0.165625,72,C5,64,1
515280,482.290766,239,0.248958,60,C4,64,2
515360,482.374099,159,0.165625,69,A4,64,1
515520,482.540766,159,0.165625,72,C5,64,1
515520,482.540766,239,0.248958,57,A3,64,2
515680,482.707432,159,0.165625,69,A4,64,1
515760,482.790766,239,0.248958,60,C4,64,2
515840,482.874099,159,0.165625,72,C5,64,1
516000,483.040766,159,0.165625,69,A4,64,1
516000,483.040766,239,0.248958,57,A3,64,2
516160,483.207432,159,0.165625,72,C5,64,1
516240,483.290766,227,0.236458,60,C4,64,2
516320,483.374099,159,0.165625,69,A4,64,1
516480,483.540766,159,0.165625,72,C5,64,1
516480,483.540766,239,0.248958,55,G3,64,2
516480,483.540766,239,0.248958,55,G3,64,2
516640,483.707432,159,0.165625,67,G4,64,1
516720,483.790766,239,0.248958,60,C4,64,2
516800,483.874099,159,0.165625,72,C5,64,1
516960,484.040766,159,0.165625,67,G4,64,1
516960,484.040766,239,0.248958,55,G3,64,2
516960,484.040766,239,0.248958,55,G3,64,2
517120,484.207432,159,0.165625,72,C5,64,1
517200,484.290766,239,0.248958,60,C4,64,2
517280,484.374099,159,0.165625,67,G4,64,1
517440,484.540766,159,0.165625,72,C5,64,1
517440,484.540766,239,0.248958,57,A3,64,2
517440,484.540766,479,0.498958,53,F3,64,2
517600,484.707432,159,0.165625,69,A4,64,1
517680,484.790766,239,0.248958,60,C4,64,2
517760,484.874099,159,0.165625,72,C5,64,1
517920,485.040766,159,0.165625,69,A4,64,1
517920,485.040766,239,0.248958,57,A3,64,2
517920,485.040766,479,0.498958,53,F3,64,2
518080,485.207432,159,0.165625,72,C5,64,1
518160,485.290766,227,0.236458,60,C4,64,2
518240,485.374099,151,0.157292,69,A4,64,1
518400,485.540766,159,0.165625,72,C5,64,1
518400,485.540766,239,0.248958,57,A3,64,2
518400,485.540766,3839,3.998958,52,E3,64,2
518560,485.707432,159,0.165625,64,E4,64,1
518640,485.790766,239,0.248958,60,C4,64,2
518720,485.874099,159,0.165625,72,C5,64,1
518880,486.040766,159,0.165625,64,E4,64,1
518880,486.040766,239,0.248958,57,A3,64,2
519040,486.207432,159,0.165625,72,C5,64,1
519120,486.290766,239,0.248958,60,C4,64,2
519200,486.374099,159,0.165625,64,E4,64,1
519360,486.540766,159,0.165625,72,C5,64,1
519360,486.540766,239,0.248958,57,A3,64,2
519520,486.707432,159,0.165625,64,E4,64,1
519600,486.790766,239,0.248958,60,C4,64,2
519680,486.874099,159,0.165625,72,C5,64,1
519840,487.040766,159,0.165625,64,E4,64,1
519840,487.040766,239,0.248958,57,A3,64,2
520000,487.207432,159,0.165625,72,C5,64,1
520080,487.290766,227,0.236458,60,C4,64,2
520160,487.374099,159,0.165625,64,E4,64,1
520320,487.540766,159,0.165625,72,C5,64,1
520320,487.540766,239,0.248958,57,A3,64,2
520480,487.707432,159,0.165625,64,E4,64,1
520560,487.790766,239,0.248958,60,C4,64,2
520640,487.874099,159,0.165625,72,C5,64,1
520800,488.040766,159,0.165625,64,E4,64,1
520800,488.040766,239,0.248958,57,A3,64,2
520960,488.207432,159,0.165625,72,C5,64,1
521040,488.290766,239,0.248958,60,C4,64,2
521120,488.374099,159,0.165625,64,E4,64,1
521280,488.540766,159,0.165625,72,C5,64,1
521280,488.540766,239,0.248958,57,A3,64,2
521440,488.707432,159,0.165625,64,E4,64,1
521520,488.790766,239,0.248958,60,C4,64,2
521600,488.874099,159,0.165625,72,C5,64,1
521760,489.040766,159,0.165625,64,E4,64,1
521760,489.040766,239,0.248958,57,A3,64,2
521920,489.207432,159,0.165625,72,C5,64,1
522000,489.290766,227,0.236458,60,C4,64,2
522080,489.374099,151,0.157292,64,E4,64,1
522240,489.540766,151,0.157291,72,C5,64,1
522240,489.540766,227,0.236458,57,A3,64,2
522240,489.540766,1823,1.898958,53,F3,64,2
522400,489.707432,151,0.157292,69,A4,64,1
522480,489.790766,227,0.236458,60,C4,64,2
522560,489.874099,151,0.157292,72,C5,64,1
522720,490.040766,151,0.157291,69,A4,64,1
522720,490.040766,227,0.236458,57,A3,64,2
522880,490.207432,151,0.157292,72,C5,64,1
522960,490.290766,227,0.236458,60,C4,64,2
523040,490.374099,151,0.157292,69,A4,64,1
523200,490.540766,151,0.157291,72,C5,64,1
523200,490.540766,227,0.236458,57,A3,64,2
523360,490.707432,151,0.157292,69,A4,64,1
523440,490.790766,227,0.236458,60,C4,64,2
523520,490.874099,151,0.157292,72,C5,64,1
523680,491.040766,151,0.157291,69,A4,64,1
523680,491.040766,227,0.236458,57,A3,64,2
523840,491.207432,151,0.157292,72,C5,64,1
523920,491.290766,227,0.236458,60,C4,64,2
524000,491.374099,151,0.157292,69,A4,64,1
524160,491.540766,151,0.157291,72,C5,64,1
524160,491.540766,227,0.236458,55,G3,64,2
524160,491.540766,227,0.236458,55,G3,64,2
524320,491.707432,151,0.157292,67,G4,64,1
524400,491.790766,227,0.236458,60,C4,64,2
524480,491.874099,151,0.157292,72,C5,64,1
524640,492.040766,151,0.157291,67,G4,64,1
524640,492.040766,227,0.236458,55,G3,64,2
524640,492.040766,227,0.236458,55,G3,64,2
524800,492.207432,151,0.157292,72,C5,64,1
524880,492.290766,227,0.236458,60,C4,64,2
524960,492.374099,151,0.157292,67,G4,64,1
525120,492.540766,151,0.157291,72,C5,64,1
525120,492.540766,227,0.236458,57,A3,64,2
525120,492.540766,455,0.473958,53,F3,64,2
525280,492.707432,151,0.157292,69,A4,64,1
525360,492.790766,227,0.236458,60,C4,64,2
525440,492.874099,151,0.157292,72,C5,64,1
525600,493.040766,151,0.157291,69,A4,64,1
525600,493.040766,227,0.236458,57,A3,64,2
525600,493.040766,455,0.473958,53,F3,64,2
525760,493.207432,151,0.157292,72,C5,64,1
525840,493.290766,227,0.236458,60,C4,64,2
525920,493.374099,151,0.157292,69,A4,64,1
526080,493.540766,151,0.157291,72,C5,64,1
526080,493.540766,227,0.236458,57,A3,64,2
526080,493.540766,3647,3.798958,52,E3,64,2
526240,493.707432,151,0.157292,64,E4,64,1
526320,493.790766,227,0.236458,60,C4,64,2
526400,493.874099,151,0.157292,72,C5,64,1
526560,494.040766,151,0.157291,64,E4,64,1
526560,494.040766,227,0.236458,57,A3,64,2
526720,494.207432,151,0.157292,72,C5,64,1
526800,494.290766,227,0.236458,60,C4,64,2
526880,494.374099,151,0.157292,64,E4,64,1
527040,494.540766,151,0.157291,72,C5,64,1
527040,494.540766,227,0.236458,57,A3,64,2
527200,494.707432,151,0.157292,64,E4,64,1
527280,494.790766,227,0.236458,60,C4,64,2
527360,494.874099,151,0.157292,72,C5,64,1
527520,495.040766,151,0.157291,64,E4,64,1
527520,495.040766,227,0.236458,57,A3,64,2
527680,495.207432,151,0.157292,72,C5,64,1
527760,495.290766,227,0.236458,60,C4,64,2
527840,495.374099,151,0.157292,64,E4,64,1
528000,495.540766,151,0.157291,72,C5,64,1
528000,495.540766,227,0.236458,57,A3,64,2
528160,495.707432,151,0.157292,64,E4,64,1
528240,495.790766,227,0.236458,60,C4,64,2
528320,495.874099,151,0.157292,72,C5,64,1
528480,496.040766,151,0.157291,64,E4,64,1
528480,496.040766,227,0.236458,57,A3,64,2
528640,496.207432,151,0.157292,72,C5,64,1
528720,496.290766,227,0.236458,60,C4,64,2
528800,496.374099,151,0.157292,64,E4,64,1
528960,496.540766,151,0.157291,72,C5,64,1
528960,496.540766,227,0.236458,57,A3,64,2
529120,496.707432,151,0.157292,64,E4,64,1
529200,496.790766,227,0.236458,60,C4,64,2
529280,496.874099,151,0.157292,72,C5,64,1
529440,497.040766,151,0.157291,64,E4,64,1
529440,497.040766,227,0.236458,57,A3,64,2
529600,497.207432,151,0.157292,72,C5,64,1
529680,497.290766,227,0.236458,60,C4,64,2
529760,497.374099,151,0.157292,64,E4,64,1
529920,497.540766,151,0.157291,70,A4#,64,1
529920,497.540766,227,0.236458,58,A3#,64,2
529920,497.540766,3647,3.798958,55,G3,64,2
530080,497.707432,151,0.157292,67,G4,64,1
530160,497.790766,227,0.236458,62,D4,64,2
530240,497.874099,151,0.157292,70,A4#,64,1
530400,498.040766,151,0.157291,67,G4,64,1
530400,498.040766,227,0.236458,58,A3#,64,2
530560,498.207432,151,0.157292,70,A4#,64,1
530640,498.290766,227,0.236458,62,D4,64,2
530720,498.374099,151,0.157292,67,G4,64,1
530880,498.540766,151,0.157291,70,A4#,64,1
530880,498.540766,227,0.236458,58,A3#,64,2
531040,498.707432,151,0.157292,67,G4,64,1
531120,498.790766,227,0.236458,62,D4,64,2
531200,498.874099,151,0.157292,70,A4#,64,1
531360,499.040766,151,0.157291,67,G4,64,1
531360,499.040766,227,0.236458,58,A3#,64,2
531520,499.207432,151,0.157292,70,A4#,64,1
531600,499.290766,227,0.236458,62,D4,64,2
531680,499.374099,151,0.157292,67,G4,64,1
531840,499.540766,151,0.157291,74,D5,64,1
531840,499.540766,227,0.236458,58,A3#,64,2
532000,499.707432,151,0.157292,67,G4,64,1
532080,499.790766,227,0.236458,62,D4,64,2
532160,499.874099,151,0.157292,74,D5,64,1
532320,500.040766,151,0.157291,67,G4,64,1
532320,500.040766,227,0.236458,58,A3#,64,2
532480,500.207432,151,0.157292,74,D5,64,1
532560,500.290766,227,0.236458,62,D4,64,2
532640,500.374099,151,0.157292,67,G4,64,1
532800,500.540766,151,0.157291,74,D5,64,1
532800,500.540766,227,0.236458,58,A3#,64,2
532960,500.707432,151,0.157292,67,G4,64,1
533040,500.790766,227,0.236458,62,D4,64,2
533120,500.874099,151,0.157292,74,D5,64,1
533280,501.040766,151,0.157291,67,G4,64,1
533280,501.040766,227,0.236458,58,A3#,64,2
533440,501.207432,151,0.157292,74,D5,64,1
533520,501.290766,227,0.236458,62,D4,64,2
533600,501.374099,151,0.157292,67,G4,64,1
533760,501.540766,151,0.157291,72,C5,64,1
533760,501.540766,227,0.236458,57,A3,64,2
533760,501.540766,3647,3.798958,53,F3,64,2
533920,501.707432,151,0.157292,69,A4,64,1
534000,501.790766,227,0.236458,60,C4,64,2
534080,501.874099,151,0.157292,72,C5,64,1
534240,502.040766,151,0.157291,69,A4,64,1
534240,502.040766,227,0.236458,57,A3,64,2
534400,502.207432,151,0.157292,72,C5,64,1
534480,502.290766,227,0.236458,60,C4,64,2
534560,502.374099,151,0.157292,69,A4,64,1
534720,502.540766,151,0.157291,72,C5,64,1
534720,502.540766,227,0.236458,57,A3,64,2
534880,502.707432,151,0.157292,69,A4,64,1
534960,502.790766,227,0.236458,60,C4,64,2
535040,502.874099,151,0.157292,72,C5,64,1
535200,503.040766,151,0.157291,69,A4,64,1
535200,503.040766,227,0.236458,57,A3,64,2
535360,503.207432,151,0.157292,72,C5,64,1
535440,503.290766,227,0.236458,60,C4,64,2
535520,503.374099,151,0.157292,69,A4,64,1
535680,503.540766,151,0.157291,72,C5,64,1
535680,503.540766,227,0.236458,57,A3,64,2
535840,503.707432,151,0.157292,69,A4,64,1
535920,503.790766,227,0.236458,60,C4,64,2
536000,503.874099,151,0.157292,72,C5,64,1
536160,504.040766,151,0.157291,69,A4,64,1
536160,504.040766,227,0.236458,57,A3,64,2
536320,504.207432,151,0.157292,72,C5,64,1
536400,504.290766,227,0.236458,60,C4,64,2
536480,504.374099,151,0.157292,69,A4,64,1
536640,504.540766,151,0.157291,72,C5,64,1
536640,504.540766,227,0.236458,57,A3,64,2
536800,504.707432,151,0.157292,69,A4,64,1
536880,504.790766,227,0.236458,60,C4,64,2
536960,504.874099,151,0.157292,72,C5,64,1
537120,505.040766,151,0.157291,69,A4,64,1
537120,505.040766,227,0.236458,57,A3,64,2
537280,505.207432,151,0.157292,72,C5,64,1
537360,505.290766,227,0.236458,60,C4,64,2
537440,505.374099,151,0.157292,69,A4,64,1
537600,505.540766,151,0.157291,70,A4#,64,1
537600,505.540766,227,0.236458,58,A3#,64,2
537600,505.540766,3647,3.798958,55,G3,64,2
537760,505.707432,151,0.157292,67,G4,64,1
537840,505.790766,227,0.236458,62,D4,64,2
537920,505.874099,151,0.157292,70,A4#,64,1
538080,506.040766,151,0.157291,67,G4,64,1
538080,506.040766,227,0.236458,58,A3#,64,2
538240,506.207432,151,0.157292,70,A4#,64,1
538320,506.290766,227,0.236458,62,D4,64,2
538400,506.374099,151,0.157292,67,G4,64,1
538560,506.540766,151,0.157291,70,A4#,64,1
538560,506.540766,227,0.236458,58,A3#,64,2
538720,506.707432,151,0.157292,67,G4,64,1
538800,506.790766,227,0.236458,62,D4,64,2
538880,506.874099,151,0.157292,70,A4#,64,1
539040,507.040766,151,0.157291,67,G4,64,1
539040,507.040766,227,0.236458,58,A3#,64,2
539200,507.207432,151,0.157292,70,A4#,64,1
539280,507.290766,227,0.236458,62,D4,64,2
539360,507.374099,151,0.157292,67,G4,64,1
539520,507.540766,151,0.157291,74,D5,64,1
539520,507.540766,227,0.236458,58,A3#,64,2
539680,507.707432,151,0.157292,67,G4,64,1
539760,507.790766,227,0.236458,62,D4,64,2
539840,507.874099,151,0.157292,74,D5,64,1
540000,508.040766,151,0.157291,67,G4,64,1
540000,508.040766,227,0.236458,58,A3#,64,2
540160,508.207432,151,0.157292,74,D5,64,1
540240,508.290766,227,0.236458,62,D4,64,2
540320,508.374099,151,0.157292,67,G4,64,1
540480,508.540766,151,0.157291,74,D5,64,1
540480,508.540766,227,0.236458,58,A3#,64,2
540640,508.707432,151,0.157292,67,G4,64,1
540720,508.790766,227,0.236458,62,D4,64,2
540800,508.874099,151,0.157292,74,D5,64,1
540960,509.040766,151,0.157291,67,G4,64,1
540960,509.040766,227,0.236458,58,A3#,64,2
541120,509.207432,151,0.157292,74,D5,64,1
541200,509.290766,227,0.236458,62,D4,64,2
541280,509.374099,151,0.157292,67,G4,64,1
541440,509.540766,151,0.157291,72,C5,64,1
541440,509.540766,227,0.236458,57,A3,64,2
541440,509.540766,3647,3.798958,53,F3,64,2
541600,509.707432,151,0.157292,69,A4,64,1
541680,509.790766,227,0.236458,60,C4,64,2
541760,509.874099,151,0.157292,72,C5,64,1
541920,510.040766,151,0.157291,69,A4,64,1
541920,510.040766,227,0.236458,57,A3,64,2
542080,510.207432,151,0.157292,72,C5,64,1
542160,510.290766,227,0.236458,60,C4,64,2
542240,510.374099,151,0.157292,69,A4,64,1
542400,510.540766,151,0.157291,72,C5,64,1
542400,510.540766,227,0.236458,57,A3,64,2
542560,510.707432,151,0.157292,69,A4,64,1
542640,510.790766,227,0.236458,60,C4,64,2
542720,510.874099,151,0.157292,72,C5,64,1
542880,511.040766,151,0.157291,69,A4,64,1
542880,511.040766,227,0.236458,57,A3,64,2
543040,511.207432,151,0.157292,72,C5,64,1
543120,511.290766,227,0.236458,60,C4,64,2
543200,511.374099,151,0.157292,69,A4,64,1
543360,511.540766,151,0.157291,72,C5,64,1
543360,511.540766,227,0.236458,57,A3,64,2
543520,511.707432,151,0.157292,69,A4,64,1
543600,511.790766,227,0.236458,60,C4,64,2
543680,511.874099,151,0.157292,72,C5,64,1
543840,512.040766,151,0.157291,69,A4,64,1
543840,512.040766,227,0.236458,57,A3,64,2
544000,512.207432,151,0.157292,72,C5,64,1
544080,512.290766,227,0.236458,60,C4,64,2
544160,512.374099,151,0.157292,69,A4,64,1
544320,512.540766,151,0.157291,72,C5,64,1
544320,512.540766,227,0.236458,57,A3,64,2
544480,512.707432,151,0.157292,69,A4,64,1
544560,512.790766,227,0.236458,60,C4,64,2
544640,512.874099,151,0.157292,72,C5,64,1
544800,513.040766,151,0.157291,69,A4,64,1
544800,513.040766,227,0.236458,57,A3,64,2
544960,513.207432,151,0.157292,72,C5,64,1
545040,513.290766,227,0.236458,60,C4,64,2
545120,513.374099,151,0.157292,69,A4,64,1
545280,513.540766,151,0.157291,70,A4#,64,1
545280,513.540766,227,0.236458,58,A3#,64,2
545280,513.540766,1823,1.898958,55,G3,64,2
545440,513.707432,151,0.157292,67,G4,64,1
545520,513.790766,227,0.236458,62,D4,64,2
545600,513.874099,151,0.157292,70,A4#,64,1
545760,514.040766,151,0.157291,67,G4,64,1
545760,514.040766,227,0.236458,58,A3#,64,2
545920,514.207432,151,0.157292,70,A4#,64,1
546000,514.290766,227,0.236458,62,D4,64,2
546080,514.374099,151,0.157292,67,G4,64,1
546240,514.540766,151,0.157291,70,A4#,64,1
546240,514.540766,227,0.236458,58,A3#,64,2
546400,514.707432,151,0.157292,67,G4,64,1
546480,514.790766,227,0.236458,62,D4,64,2
546560,514.874099,151,0.157292,70,A4#,64,1
546720,515.040766,151,0.157291,67,G4,64,1
546720,515.040766,227,0.236458,58,A3#,64,2
546880,515.207432,151,0.157292,70,A4#,64,1
546960,515.290766,227,0.236458,62,D4,64,2
547040,515.374099,151,0.157292,67,G4,64,1
547200,515.540766,151,0.157291,74,D5,64,1
547200,515.540766,227,0.236458,58,A3#,64,2
547200,515.540766,455,0.473958,53,F3,64,2
547360,515.707432,151,0.157292,67,G4,64,1
547440,515.790766,227,0.236458,62,D4,64,2
547520,515.874099,151,0.157292,74,D5,64,1
547680,516.040766,151,0.157291,67,G4,64,1
547680,516.040766,227,0.236458,58,A3#,64,2
547680,516.040766,455,0.473958,53,F3,64,2
547840,516.207432,151,0.157292,74,D5,64,1
547920,516.290766,227,0.236458,62,D4,64,2
548000,516.374099,151,0.157292,67,G4,64,1
548160,516.540766,151,0.157291,74,D5,64,1
548160,516.540766,227,0.236458,58,A3#,64,2
548160,516.540766,455,0.473958,55,G3,64,2
548320,516.707432,151,0.157292,67,G4,64,1
548400,516.790766,227,0.236458,62,D4,64,2
548480,516.874099,151,0.157292,74,D5,64,1
548640,517.040766,151,0.157291,67,G4,64,1
548640,517.040766,227,0.236458,58,A3#,64,2
548640,517.040766,455,0.473958,55,G3,64,2
548800,517.207432,151,0.157292,74,D5,64,1
548880,517.290766,227,0.236458,62,D4,64,2
548960,517.374099,151,0.157292,67,G4,64,1
549120,517.540766,151,0.157291,72,C5,64,1
549120,517.540766,227,0.236458,57,A3,64,2
549120,517.540766,3647,3.798958,53,F3,64,2
549280,517.707432,151,0.157292,69,A4,64,1
549360,517.790766,227,0.236458,60,C4,64,2
549440,517.874099,151,0.157292,72,C5,64,1
549600,518.040766,151,0.157291,69,A4,64,1
549600,518.040766,227,0.236458,57,A3,64,2
549760,518.207432,151,0.157292,72,C5,64,1
549840,518.290766,227,0.236458,60,C4,64,2
549920,518.374099,151,0.157292,69,A4,64,1
550080,518.540766,151,0.157291,72,C5,64,1
550080,518.540766,227,0.236458,57,A3,64,2
550240,518.707432,151,0.157292,69,A4,64,1
550320,518.790766,227,0.236458,60,C4,64,2
550400,518.874099,151,0.157292,72,C5,64,1
550560,519.040766,151,0.157291,69,A4,64,1
550560,519.040766,227,0.236458,57,A3,64,2
550720,519.207432,151,0.157292,72,C5,64,1
550800,519.290766,227,0.236458,60,C4,64,2
550880,519.374099,151,0.157292,69,A4,64,1
551040,519.540766,151,0.157291,72,C5,64,1
551040,519.540766,227,0.236458,57,A3,64,2
551200,519.707432,151,0.157292,69,A4,64,1
551280,519.790766,227,0.236458,60,C4,64,2
551360,519.874099,151,0.157292,72,C5,64,1
551520,520.040766,151,0.157291,69,A4,64,1
551520,520.040766,227,0.236458,57,A3,64,2
551680,520.207432,151,0.157292,72,C5,64,1
551760,520.290766,227,0.236458,60,C4,64,2
551840,520.374099,151,0.157292,69,A4,64,1
552000,520.540766,151,0.157291,72,C5,64,1
552000,520.540766,227,0.236458,57,A3,64,2
552160,520.707432,151,0.157292,69,A4,64,1
552240,520.790766,227,0.236458,60,C4,64,2
552320,520.874099,151,0.157292,72,C5,64,1
552480,521.040766,151,0.157291,69,A4,64,1
552480,521.040766,227,0.236458,57,A3,64,2
552640,521.207432,151,0.157292,72,C5,64,1
552720,521.290766,227,0.236458,60,C4,64,2
552800,521.374099,151,0.157292,69,A4,64,1
552960,521.540766,239,0.248958,57,A3,49,2
552960,521.540766,3839,3.998958,53,F3,49,2
553200,521.790766,239,0.248958,60,C4,49,2
553440,522.040766,239,0.248958,57,A3,49,2
553680,522.290766,239,0.248958,60,C4,49,2
553920,522.540766,239,0.248958,57,A3,49,2
554160,522.790766,239,0.248958,60,C4,49,2
554400,523.040766,239,0.248958,57,A3,49,2
554640,523.290766,227,0.236458,60,C4,49,2
554880,523.540766,239,0.248958,57,A3,49,2
555120,523.790766,239,0.248958,60,C4,49,2
555360,524.040766,239,0.248958,57,A3,49,2
555600,524.290766,239,0.248958,60,C4,49,2
555840,524.540766,239,0.248958,57,A3,49,2
556080,524.790766,239,0.248958,60,C4,49,2
556320,525.040766,239,0.248958,57,A3,49,2
556560,525.290766,227,0.236458,60,C4,49,2
556800,525.540766,3647,3.798958,36,C2,49,1
556800,525.540766,239,0.248958,57,A3,49,2
556800,525.540766,3839,3.998958,52,E3,49,2
557040,525.790766,239,0.248958,60,C4,49,2
557280,526.040766,239,0.248958,57,A3,49,2
557520,526.290766,239,0.248958,60,C4,49,2
557760,526.540766,239,0.248958,57,A3,49,2
558000,526.790766,239,0.248958,60,C4,49,2
558240,527.040766,239,0.248958,57,A3,49,2
558480,527.290766,227,0.236458,60,C4,49,2
558720,527.540766,239,0.248958,57,A3,49,2
558960,527.790766,239,0.248958,60,C4,49,2
559200,528.040766,239,0.248958,57,A3,49,2
559440,528.290766,239,0.248958,60,C4,49,2
559680,528.540766,239,0.248958,57,A3,49,2
559920,528.790766,239,0.248958,60,C4,49,2
560160,529.040766,239,0.248958,57,A3,49,2
560400,529.290766,227,0.236458,60,C4,49,2
560640,529.540766,159,0.165625,72,C5,64,1
560640,529.540766,239,0.248958,57,A3,64,2
560640,529.540766,3839,3.998958,53,F3,64,2
560800,529.707432,159,0.165625,69,A4,64,1
560880,529.790766,239,0.248958,60,C4,64,2
560960,529.874099,159,0.165625,72,C5,64,1
561120,530.040766,159,0.165625,69,A4,64,1
561120,530.040766,239,0.248958,57,A3,64,2
561280,530.207432,159,0.165625,72,C5,64,1
561360,530.290766,239,0.248958,60,C4,64,2
561440,530.374099,159,0.165625,69,A4,64,1
561600,530.540766,159,0.165625,72,C5,64,1
561600,530.540766,239,0.248958,57,A3,64,2
561760,530.707432,159,0.165625,69,A4,64,1
561840,530.790766,239,0.248958,60,C4,64,2
561920,530.874099,159,0.165625,72,C5,64,1
562080,531.040766,159,0.165625,69,A4,64,1
562080,531.040766,239,0.248958,57,A3,64,2
562240,531.207432,159,0.165625,72,C5,64,1
562320,531.290766,227,0.236458,60,C4,64,2
562400,531.374099,159,0.165625,69,A4,64,1
562560,531.540766,159,0.165625,72,C5,64,1
562560,531.540766,239,0.248958,57,A3,64,2
562720,531.707432,159,0.165625,69,A4,64,1
562800,531.790766,239,0.248958,60,C4,64,2
562880,531.874099,159,0.165625,72,C5,64,1
563040,532.040766,159,0.165625,69,A4,64,1
563040,532.040766,239,0.248958,57,A3,64,2
563200,532.207432,159,0.165625,72,C5,64,1
563280,532.290766,239,0.248958,60,C4,64,2
563360,532.374099,159,0.165625,69,A4,64,1
563520,532.540766,159,0.165625,72,C5,64,1
563520,532.540766,239,0.248958,57,A3,64,2
563680,532.707432,159,0.165625,69,A4,64,1
563760,532.790766,239,0.248958,60,C4,64,2
563840,532.874099,159,0.165625,72,C5,64,1
564000,533.040766,159,0.165625,69,A4,64,1
564000,533.040766,239,0.248958,57,A3,64,2
564160,533.207432,159,0.165625,72,C5,64,1
564240,533.290766,227,0.236458,60,C4,64,2
564320,533.374099,151,0.157292,69,A4,64,1
564480,533.540766,159,0.165625,72,C5,64,1
564480,533.540766,239,0.248958,57,A3,64,2
564480,533.540766,3839,3.998958,52,E3,64,2
564640,533.707432,159,0.165625,64,E4,64,1
564720,533.790766,239,0.248958,60,C4,64,2
564800,533.874099,159,0.165625,72,C5,64,1
564960,534.040766,159,0.165625,64,E4,64,1
564960,534.040766,239,0.248958,57,A3,64,2
565120,534.207432,159,0.165625,72,C5,64,1
565200,534.290766,239,0.248958,60,C4,64,2
565280,534.374099,159,0.165625,64,E4,64,1
565440,534.540766,159,0.165625,72,C5,64,1
565440,534.540766,239,0.248958,57,A3,64,2
565600,534.707432,159,0.165625,64,E4,64,1
565680,534.790766,239,0.248958,60,C4,64,2
565760,534.874099,159,0.165625,72,C5,64,1
565920,535.040766,159,0.165625,64,E4,64,1
565920,535.040766,239,0.248958,57,A3,64,2
566080,535.207432,159,0.165625,72,C5,64,1
566160,535.290766,227,0.236458,60,C4,64,2
566240,535.374099,159,0.165625,64,E4,64,1
566400,535.540766,159,0.165625,72,C5,64,1
566400,535.540766,239,0.248958,57,A3,64,2
566560,535.707432,159,0.165625,64,E4,64,1
566640,535.790766,239,0.248958,60,C4,64,2
566720,535.874099,159,0.165625,72,C5,64,1
566880,536.040766,159,0.165625,64,E4,64,1
566880,536.040766,239,0.248958,57,A3,64,2
567040,536.207432,159,0.165625,72,C5,64,1
567120,536.290766,239,0.248958,60,C4,64,2
567200,536.374099,159,0.165625,64,E4,64,1
567360,536.540766,159,0.165625,72,C5,64,1
567360,536.540766,239,0.248958,57,A3,64,2
567520,536.707432,159,0.165625,64,E4,64,1
567600,536.790766,239,0.248958,60,C4,64,2
567680,536.874099,159,0.165625,72,C5,64,1
567840,537.040766,159,0.165625,64,E4,64,1
567840,537.040766,239,0.248958,57,A3,64,2
568000,537.207432,159,0.165625,72,C5,64,1
568080,537.290766,227,0.236458,60,C4,64,2
568160,537.374099,151,0.157292,64,E4,64,1
568320,537.540766,159,0.165625,72,C5,64,1
568320,537.540766,239,0.248958,57,A3,64,2
568320,537.540766,3839,3.998958,53,F3,64,2
568480,537.707432,159,0.165625,69,A4,64,1
568560,537.790766,239,0.248958,60,C4,64,2
568640,537.874099,159,0.165625,72,C5,64,1
568800,538.040766,159,0.165625,69,A4,64,1
568800,538.040766,239,0.248958,57,A3,64,2
568960,538.207432,159,0.165625,72,C5,64,1
569040,538.290766,239,0.248958,60,C4,64,2
569120,538.374099,159,0.165625,69,A4,64,1
569280,538.540766,159,0.165625,72,C5,64,1
569280,538.540766,239,0.248958,57,A3,64,2
569440,538.707432,159,0.165625,69,A4,64,1
569520,538.790766,239,0.248958,60,C4,64,2
569600,538.874099,159,0.165625,72,C5,64,1
569760,539.040766,159,0.165625,69,A4,64,1
569760,539.040766,239,0.248958,57,A3,64,2
569920,539.207432,159,0.165625,72,C5,64,1
570000,539.290766,227,0.236458,60,C4,64,2
570080,539.374099,159,0.165625,69,A4,64,1
570240,539.540766,159,0.165625,72,C5,64,1
570240,539.540766,239,0.248958,57,A3,64,2
570400,539.707432,159,0.165625,69,A4,64,1
570480,539.790766,239,0.248958,60,C4,64,2
570560,539.874099,159,0.165625,72,C5,64,1
570720,540.040766,159,0.165625,69,A4,64,1
570720,540.040766,239,0.248958,57,A3,64,2
570880,540.207432,159,0.165625,72,C5,64,1
570960,540.290766,239,0.248958,60,C4,64,2
571040,540.374099,159,0.165625,69,A4,64,1
571200,540.540766,159,0.165625,72,C5,64,1
571200,540.540766,239,0.248958,57,A3,64,2
571360,540.707432,159,0.165625,69,A4,64,1
571440,540.790766,239,0.248958,60,C4,64,2
571520,540.874099,159,0.165625,72,C5,64,1
571680,541.040766,159,0.165625,69,A4,64,1
571680,541.040766,239,0.248958,57,A3,64,2
571840,541.207432,159,0.165625,72,C5,64,1
571920,541.290766,227,0.236458,60,C4,64,2
572000,541.374099,151,0.157292,69,A4,64,1
572160,541.540766,159,0.165625,72,C5,64,1
572160,541.540766,239,0.248958,57,A3,64,2
572160,541.540766,3839,3.998958,52,E3,64,2
572320,541.707432,159,0.165625,64,E4,64,1
572400,541.790766,239,0.248958,60,C4,64,2
572480,541.874099,159,0.165625,72,C5,64,1
572640,542.040766,159,0.165625,64,E4,64,1
572640,542.040766,239,0.248958,57,A3,64,2
572800,542.207432,159,0.165625,72,C5,64,1
572880,542.290766,239,0.248958,60,C4,64,2
572960,542.374099,159,0.165625,64,E4,64,1
573120,542.540766,159,0.165625,72,C5,64,1
573120,542.540766,239,0.248958,57,A3,64,2
573280,542.707432,159,0.165625,64,E4,64,1
573360,542.790766,239,0.248958,60,C4,64,2
573440,542.874099,159,0.165625,72,C5,64,1
573600,543.040766,159,0.165625,64,E4,64,1
573600,543.040766,239,0.248958,57,A3,64,2
573760,543.207432,159,0.165625,72,C5,64,1
573840,543.290766,227,0.236458,60,C4,64,2
573920,543.374099,159,0.165625,64,E4,64,1
574080,543.540766,159,0.165625,72,C5,64,1
574080,543.540766,239,0.248958,57,A3,64,2
574240,543.707432,159,0.165625,64,E4,64,1
574320,543.790766,239,0.248958,60,C4,64,2
574400,543.874099,159,0.165625,72,C5,64,1
574560,544.040766,159,0.165625,64,E4,64,1
574560,544.040766,239,0.248958,57,A3,64,2
574720,544.207432,159,0.165625,72,C5,64,1
574800,544.290766,239,0.248958,60,C4,64,2
574880,544.374099,159,0.165625,64,E4,64,1
575040,544.540766,159,0.165625,72,C5,64,1
575040,544.540766,239,0.248958,57,A3,64,2
575200,544.707432,159,0.165625,64,E4,64,1
575280,544.790766,239,0.248958,60,C4,64,2
575360,544.874099,159,0.165625,72,C5,64,1
575520,545.040766,159,0.165625,64,E4,64,1
575520,545.040766,239,0.248958,57,A3,64,2
575680,545.207432,159,0.165625,72,C5,64,1
575760,545.290766,227,0.236458,60,C4,64,2
575840,545.374099,151,0.157292,64,E4,64,1
576000,545.540766,159,0.165625,72,C5,64,1
576000,545.540766,239,0.248958,57,A3,64,2
576000,545.540766,1919,1.998958,53,F3,64,2
576160,545.707432,159,0.165625,69,A4,64,1
576240,545.790766,239,0.248958,60,C4,64,2
576320,545.874099,159,0.165625,72,C5,64,1
576480,546.040766,159,0.165625,69,A4,64,1
576480,546.040766,239,0.248958,57,A3,64,2
576640,546.207432,159,0.165625,72,C5,64,1
576720,546.290766,239,0.248958,60,C4,64,2
576800,546.374099,159,0.165625,69,A4,64,1
576960,546.540766,159,0.165625,72,C5,64,1
576960,546.540766,239,0.248958,57,A3,64,2
577120,546.707432,159,0.165625,69,A4,64,1
577200,546.790766,239,0.248958,60,C4,64,2
577280,546.874099,159,0.165625,72,C5,64,1
577440,547.040766,159,0.165625,69,A4,64,1
577440,547.040766,239,0.248958,57,A3,64,2
577600,547.207432,159,0.165625,72,C5,64,1
577680,547.290766,227,0.236458,60,C4,64,2
577760,547.374099,159,0.165625,69,A4,64,1
577920,547.540766,159,0.165625,72,C5,64,1
577920,547.540766,239,0.248958,55,G3,64,2
577920,547.540766,239,0.248958,55,G3,64,2
578080,547.707432,159,0.165625,67,G4,64,1
578160,547.790766,239,0.248958,60,C4,64,2
578240,547.874099,159,0.165625,72,C5,64,1
578400,548.040766,159,0.165625,67,G4,64,1
578400,548.040766,239,0.248958,55,G3,64,2
578400,548.040766,239,0.248958,55,G3,64,2
578560,548.207432,159,0.165625,72,C5,64,1
578640,548.290766,239,0.248958,60,C4,64,2
578720,548.374099,159,0.165625,67,G4,64,1
578880,548.540766,159,0.165625,72,C5,64,1
578880,548.540766,239,0.248958,57,A3,64,2
578880,548.540766,479,0.498958,53,F3,64,2
579040,548.707432,159,0.165625,69,A4,64,1
579120,548.790766,239,0.248958,60,C4,64,2
579200,548.874099,159,0.165625,72,C5,64,1
579360,549.040766,159,0.165625,69,A4,64,1
579360,549.040766,239,0.248958,57,A3,64,2
579360,549.040766,479,0.498958,53,F3,64,2
579520,549.207432,159,0.165625,72,C5,64,1
579600,549.290766,227,0.236458,60,C4,64,2
579680,549.374099,151,0.157292,69,A4,64,1
579840,549.540766,159,0.165625,72,C5,64,1
579840,549.540766,239,0.248958,57,A3,64,2
579840,549.540766,3839,3.998958,52,E3,64,2
580000,549.707432,159,0.165625,64,E4,64,1
580080,549.790766,239,0.248958,60,C4,64,2
580160,549.874099,159,0.165625,72,C5,64,1
580320,550.040766,159,0.165625,64,E4,64,1
580320,550.040766,239,0.248958,57,A3,64,2
580480,550.207432,159,0.165625,72,C5,64,1
580560,550.290766,239,0.248958,60,C4,64,2
580640,550.374099,159,0.165625,64,E4,64,1
580800,550.540766,159,0.165625,72,C5,64,1
580800,550.540766,239,0.248958,57,A3,64,2
580960,550.707432,159,0.165625,64,E4,64,1
581040,550.790766,239,0.248958,60,C4,64,2
581120,550.874099,159,0.165625,72,C5,64,1
581280,551.040766,159,0.165625,64,E4,64,1
581280,551.040766,239,0.248958,57,A3,64,2
581440,551.207432,159,0.165625,72,C5,64,1
581520,551.290766,227,0.236458,60,C4,64,2
581600,551.374099,159,0.165625,64,E4,64,1
581760,551.540766,159,0.165625,72,C5,64,1
581760,551.540766,239,0.248958,57,A3,64,2
581920,551.707432,159,0.165625,64,E4,64,1
582000,551.790766,239,0.248958,60,C4,64,2
582080,551.874099,159,0.165625,72,C5,64,1
582240,552.040766,159,0.165625,64,E4,64,1
582240,552.040766,239,0.248958,57,A3,64,2
582400,552.207432,159,0.165625,72,C5,64,1
582480,552.290766,239,0.248958,60,C4,64,2
582560,552.374099,159,0.165625,64,E4,64,1
582720,552.540766,159,0.165625,72,C5,64,1
582720,552.540766,239,0.248958,57,A3,64,2
582880,552.707432,159,0.165625,64,E4,64,1
582960,552.790766,239,0.248958,60,C4,64,2
583040,552.874099,159,0.165625,72,C5,64,1
583200,553.040766,159,0.165625,64,E4,64,1
583200,553.040766,239,0.248958,57,A3,64,2
583360,553.207432,159,0.165625,72,C5,64,1
583440,553.290766,227,0.236458,60,C4,64,2
583520,553.374099,151,0.157292,64,E4,64,1
583680,553.540766,159,0.165625,72,C5,64,1
583680,553.540766,239,0.248958,57,A3,64,2
583680,553.540766,1919,1.998958,53,F3,64,2
583840,553.707432,159,0.165625,69,A4,64,1
583920,553.790766,239,0.248958,60,C4,64,2
584000,553.874099,159,0.165625,72,C5,64,1
584160,554.040766,159,0.165625,69,A4,64,1
584160,554.040766,239,0.248958,57,A3,64,2
584320,554.207432,159,0.165625,72,C5,64,1
584400,554.290766,239,0.248958,60,C4,64,2
584480,554.374099,159,0.165625,69,A4,64,1
584640,554.540766,159,0.165625,72,C5,64,1
584640,554.540766,239,0.248958,57,A3,64,2
584800,554.707432,159,0.165625,69,A4,64,1
584880,554.790766,239,0.248958,60,C4,64,2
584960,554.874099,159,0.165625,72,C5,64,1
585120,555.040766,159,0.165625,69,A4,64,1
585120,555.040766,239,0.248958,57,A3,64,2
585280,555.207432,159,0.165625,72,C5,64,1
585360,555.290766,227,0.236458,60,C4,64,2
585440,555.374099,159,0.165625,69,A4,64,1
585600,555.540766,159,0.165625,72,C5,64,1
585600,555.540766,239,0.248958,55,G3,64,2
585600,555.540766,239,0.248958,55,G3,64,2
585760,555.707432,159,0.165625,67,G4,64,1
585840,555.790766,239,0.248958,60,C4,64,2
585920,555.874099,159,0.165625,72,C5,64,1
586080,556.040766,159,0.165625,67,G4,64,1
586080,556.040766,239,0.248958,55,G3,64,2
586080,556.040766,239,0.248958,55,G3,64,2
586240,556.207432,159,0.165625,72,C5,64,1
586320,556.290766,239,0.248958,60,C4,64,2
586400,556.374099,159,0.165625,67,G4,64,1
586560,556.540766,159,0.165625,72,C5,64,1
586560,556.540766,239,0.248958,57,A3,64,2
586560,556.540766,479,0.498958,53,F3,64,2
586720,556.707432,159,0.165625,69,A4,64,1
586800,556.790766,239,0.248958,60,C4,64,2
586880,556.874099,159,0.165625,72,C5,64,1
587040,557.040766,159,0.165625,69,A4,64,1
587040,557.040766,239,0.248958,57,A3,64,2
587040,557.040766,479,0.498958,53,F3,64,2
587200,557.207432,159,0.165625,72,C5,64,1
587280,557.290766,227,0.236458,60,C4,64,2
587360,557.374099,151,0.157292,69,A4,64,1
587520,557.540766,159,0.165625,72,C5,64,1
587520,557.540766,239,0.248958,57,A3,64,2
587520,557.540766,3839,3.998958,52,E3,64,2
587680,557.707432,159,0.165625,64,E4,64,1
587760,557.790766,239,0.248958,60,C4,64,2
587840,557.874099,159,0.165625,72,C5,64,1
588000,558.040766,159,0.165625,64,E4,64,1
588000,558.040766,239,0.248958,57,A3,64,2
588160,558.207432,159,0.165625,72,C5,64,1
588240,558.290766,239,0.248958,60,C4,64,2
588320,558.374099,159,0.165625,64,E4,64,1
588480,558.540766,159,0.165625,72,C5,64,1
588480,558.540766,239,0.248958,57,A3,64,2
588640,558.707432,159,0.165625,64,E4,64,1
588720,558.790766,239,0.248958,60,C4,64,2
588800,558.874099,159,0.165625,72,C5,64,1
588960,559.040766,159,0.165625,64,E4,64,1
588960,559.040766,239,0.248958,57,A3,64,2
589120,559.207432,159,0.165625,72,C5,64,1
589200,559.290766,227,0.236458,60,C4,64,2
589280,559.374099,159,0.165625,64,E4,64,1
589440,559.540766,159,0.165625,72,C5,64,1
589440,559.540766,239,0.248958,57,A3,64,2
589600,559.707432,159,0.165625,64,E4,64,1
589680,559.790766,239,0.248958,60,C4,64,2
589760,559.874099,159,0.165625,72,C5,64,1
589920,560.040766,159,0.165625,64,E4,64,1
589920,560.040766,239,0.248958,57,A3,64,2
590080,560.207432,159,0.165625,72,C5,64,1
590160,560.290766,239,0.248958,60,C4,64,2
590240,560.374099,159,0.165625,64,E4,64,1
590400,560.540766,159,0.165625,72,C5,64,1
590400,560.540766,239,0.248958,57,A3,64,2
590560,560.707432,159,0.165625,64,E4,64,1
590640,560.790766,239,0.248958,60,C4,64,2
590720,560.874099,159,0.165625,72,C5,64,1
590880,561.040766,159,0.165625,64,E4,64,1
590880,561.040766,239,0.248958,57,A3,64,2
591040,561.207432,159,0.165625,72,C5,64,1
591120,561.290766,227,0.236458,60,C4,64,2
591200,561.374099,151,0.157292,64,E4,64,1
591360,561.540766,151,0.157291,72,C5,64,1
591360,561.540766,227,0.236458,57,A3,64,2
591360,561.540766,1823,1.898958,53,F3,64,2
591520,561.707432,151,0.157292,69,A4,64,1
591600,561.790766,227,0.236458,60,C4,64,2
591680,561.874099,151,0.157292,72,C5,64,1
591840,562.040766,151,0.157291,69,A4,64,1
591840,562.040766,227,0.236458,57,A3,64,2
592000,562.207432,151,0.157292,72,C5,64,1
592080,562.290766,227,0.236458,60,C4,64,2
592160,562.374099,151,0.157292,69,A4,64,1
592320,562.540766,151,0.157291,72,C5,64,1
592320,562.540766,227,0.236458,57,A3,64,2
592480,562.707432,151,0.157292,69,A4,64,1
592560,562.790766,227,0.236458,60,C4,64,2
592640,562.874099,151,0.157292,72,C5,64,1
592800,563.040766,151,0.157291,69,A4,64,1
592800,563.040766,227,0.236458,57,A3,64,2
592960,563.207432,151,0.157292,72,C5,64,1
593040,563.290766,227,0.236458,60,C4,64,2
593120,563.374099,151,0.157292,69,A4,64,1
593280,563.540766,151,0.157291,72,C5,64,1
593280,563.540766,227,0.236458,55,G3,64,2
593280,563.540766,227,0.236458,55,G3,64,2
593440,563.707432,151,0.157292,67,G4,64,1
593520,563.790766,227,0.236458,60,C4,64,2
593600,563.874099,151,0.157292,72,C5,64,1
593760,564.040766,151,0.157291,67,G4,64,1
593760,564.040766,227,0.236458,55,G3,64,2
593760,564.040766,227,0.236458,55,G3,64,2
593920,564.207432,151,0.157292,72,C5,64,1
594000,564.290766,227,0.236458,60,C4,64,2
594080,564.374099,151,0.157292,67,G4,64,1
594240,564.540766,151,0.157291,72,C5,64,1
594240,564.540766,227,0.236458,57,A3,64,2
594240,564.540766,455,0.473958,53,F3,64,2
594400,564.707432,151,0.157292,69,A4,64,1
594480,564.790766,227,0.236458,60,C4,64,2
594560,564.874099,151,0.157292,72,C5,64,1
594720,565.040766,151,0.157291,69,A4,64,1
594720,565.040766,227,0.236458,57,A3,64,2
594720,565.040766,455,0.473958,53,F3,64,2
594880,565.207432,151,0.157292,72,C5,64,1
594960,565.290766,227,0.236458,60,C4,64,2
595040,565.374099,151,0.157292,69,A4,64,1
595200,565.540766,151,0.157291,72,C5,64,1
595200,565.540766,227,0.236458,57,A3,64,2
595200,565.540766,3647,3.798958,52,E3,64,2
595360,565.707432,151,0.157292,64,E4,64,1
595440,565.790766,227,0.236458,60,C4,64,2
595520,565.874099,151,0.157292,72,C5,64,1
595680,566.040766,151,0.157291,64,E4,64,1
595680,566.040766,227,0.236458,57,A3,64,2
595840,566.207432,151,0.157292,72,C5,64,1
595920,566.290766,227,0.236458,60,C4,64,2
596000,566.374099,151,0.157292,64,E4,64,1
596160,566.540766,151,0.157291,72,C5,64,1
596160,566.540766,227,0.236458,57,A3,64,2
596320,566.707432,151,0.157292,64,E4,64,1
596400,566.790766,227,0.236458,60,C4,64,2
596480,566.874099,151,0.157292,72,C5,64,1
596640,567.040766,151,0.157291,64,E4,64,1
596640,567.040766,227,0.236458,57,A3,64,2
596800,567.207432,151,0.157292,72,C5,64,1
596880,567.290766,227,0.236458,60,C4,64,2
596960,567.374099,151,0.157292,64,E4,64,1
597120,567.540766,151,0.157291,72,C5,64,1
597120,567.540766,227,0.236458,57,A3,64,2
597280,567.707432,151,0.157292,64,E4,64,1
597360,567.790766,227,0.236458,60,C4,64,2
597440,567.874099,151,0.157292,72,C5,64,1
597600,568.040766,151,0.157291,64,E4,64,1
597600,568.040766,227,0.236458,57,A3,64,2
597760,568.207432,151,0.157292,72,C5,64,1
597840,568.290766,227,0.236458,60,C4,64,2
597920,568.374099,151,0.157292,64,E4,64,1
598080,568.540766,151,0.157291,72,C5,64,1
598080,568.540766,227,0.236458,57,A3,64,2
598240,568.707432,151,0.157292,64,E4,64,1
598320,568.790766,227,0.236458,60,C4,64,2
598400,568.874099,151,0.157292,72,C5,64,1
598560,569.040766,151,0.157291,64,E4,64,1
598560,569.040766,227,0.236458,57,A3,64,2
598720,569.207432,151,0.157292,72,C5,64,1
598800,569.290766,227,0.236458,60,C4,64,2
598880,569.374099,151,0.157292,64,E4,64,1
599040,569.540766,151,0.157291,70,A4#,64,1
599040,569.540766,227,0.236458,58,A3#,64,2
599040,569.540766,3647,3.798958,55,G3,64,2
599200,569.707432,151,0.157292,67,G4,64,1
599280,569.790766,227,0.236458,62,D4,64,2
599360,569.874099,151,0.157292,70,A4#,64,1
599520,570.040766,151,0.157291,67,G4,64,1
599520,570.040766,227,0.236458,58,A3#,64,2
599680,570.207432,151,0.157292,70,A4#,64,1
599760,570.290766,227,0.236458,62,D4,64,2
599840,570.374099,151,0.157292,67,G4,64,1
600000,570.540766,151,0.157291,70,A4#,64,1
600000,570.540766,227,0.236458,58,A3#,64,2
600160,570.707432,151,0.157292,67,G4,64,1
600240,570.790766,227,0.236458,62,D4,64,2
600320,570.874099,151,0.157292,70,A4#,64,1
600480,571.040766,151,0.157291,67,G4,64,1
600480,571.040766,227,0.236458,58,A3#,64,2
600640,571.207432,151,0.157292,70,A4#,64,1
600720,571.290766,227,0.236458,62,D4,64,2
600800,571.374099,151,0.157292,67,G4,64,1
600960,571.540766,151,0.157291,74,D5,64,1
600960,571.540766,227,0.236458,58,A3#,64,2
601120,571.707432,151,0.157292,67,G4,64,1
601200,571.790766,227,0.236458,62,D4,64,2
601280,571.874099,151,0.157292,74,D5,64,1
601440,572.040766,151,0.157291,67,G4,64,1
601440,572.040766,227,0.236458,58,A3#,64,2
601600,572.207432,151,0.157292,74,D5,64,1
601680,572.290766,227,0.236458,62,D4,64,2
601760,572.374099,151,0.157292,67,G4,64,1
601920,572.540766,151,0.157291,74,D5,64,1
601920,572.540766,227,0.236458,58,A3#,64,2
602080,572.707432,151,0.157292,67,G4,64,1
602160,572.790766,227,0.236458,62,D4,64,2
602240,572.874099,151,0.157292,74,D5,64,1
602400,573.040766,151,0.157291,67,G4,64,1
602400,573.040766,227,0.236458,58,A3#,64,2
602560,573.207432,151,0.157292,74,D5,64,1
602640,573.290766,227,0.236458,62,D4,64,2
602720,573.374099,151,0.157292,67,G4,64,1
602880,573.540766,151,0.157291,72,C5,64,1
602880,573.540766,227,0.236458,57,A3,64,2
602880,573.540766,3647,3.798958,53,F3,64,2
603040,573.707432,151,0.157292,69,A4,64,1
603120,573.790766,227,0.236458,60,C4,64,2
603200,573.874099,151,0.157292,72,C5,64,1
603360,574.040766,151,0.157291,69,A4,64,1
603360,574.040766,227,0.236458,57,A3,64,2
603520,574.207432,151,0.157292,72,C5,64,1
603600,574.290766,227,0.236458,60,C4,64,2
603680,574.374099,151,0.157292,69,A4,64,1
603840,574.540766,151,0.157291,72,C5,64,1
603840,574.540766,227,0.236458,57,A3,64,2
604000,574.707432,151,0.157292,69,A4,64,1
604080,574.790766,227,0.236458,60,C4,64,2
604160,574.874099,151,0.157292,72,C5,64,1
604320,575.040766,151,0.157291,69,A4,64,1
604320,575.040766,227,0.236458,57,A3,64,2
604480,575.207432,151,0.157292,72,C5,64,1
604560,575.290766,227,0.236458,60,C4,64,2
604640,575.374099,151,0.157292,69,A4,64,1
604800,575.540766,151,0.157291,72,C5,64,1
604800,575.540766,227,0.236458,57,A3,64,2
604960,575.707432,151,0.157292,69,A4,64,1
605040,575.790766,227,0.236458,60,C4,64,2
605120,575.874099,151,0.157292,72,C5,64,1
605280,576.040766,151,0.157291,69,A4,64,1
605280,576.040766,227,0.236458,57,A3,64,2
605440,576.207432,151,0.157292,72,C5,64,1
605520,576.290766,227,0.236458,60,C4,64,2
605600,576.374099,151,0.157292,69,A4,64,1
605760,576.540766,151,0.157291,72,C5,64,1
605760,576.540766,227,0.236458,57,A3,64,2
605920,576.707432,151,0.157292,69,A4,64,1
606000,576.790766,227,0.236458,60,C4,64,2
606080,576.874099,151,0.157292,72,C5,64,1
606240,577.040766,151,0.157291,69,A4,64,1
606240,577.040766,227,0.236458,57,A3,64,2
606400,577.207432,151,0.157292,72,C5,64,1
606480,577.290766,227,0.236458,60,C4,64,2
606560,577.374099,151,0.157292,69,A4,64,1
606720,577.540766,151,0.157291,70,A4#,64,1
606720,577.540766,227,0.236458,58,A3#,64,2
606720,577.540766,3647,3.798958,55,G3,64,2
606880,577.707432,151,0.157292,67,G4,64,1
606960,577.790766,227,0.236458,62,D4,64,2
607040,577.874099,151,0.157292,70,A4#,64,1
607200,578.040766,151,0.157291,67,G4,64,1
607200,578.040766,227,0.236458,58,A3#,64,2
607360,578.207432,151,0.157292,70,A4#,64,1
607440,578.290766,227,0.236458,62,D4,64,2
607520,578.374099,151,0.157292,67,G4,64,1
607680,578.540766,151,0.157291,70,A4#,64,1
607680,578.540766,227,0.236458,58,A3#,64,2
607840,578.707432,151,0.157292,67,G4,64,1
607920,578.790766,227,0.236458,62,D4,64,2
608000,578.874099,151,0.157292,70,A4#,64,1
608160,579.040766,151,0.157291,67,G4,64,1
608160,579.040766,227,0.236458,58,A3#,64,2
608320,579.207432,151,0.157292,70,A4#,64,1
608400,579.290766,227,0.236458,62,D4,64,2
608480,579.374099,151,0.157292,67,G4,64,1
608640,579.540766,151,0.157291,74,D5,64,1
608640,579.540766,227,0.236458,58,A3#,64,2
608800,579.707432,151,0.157292,67,G4,64,1
608880,579.790766,227,0.236458,62,D4,64,2
608960,579.874099,151,0.157292,74,D5,64,1
609120,580.040766,151,0.157291,67,G4,64,1
609120,580.040766,227,0.236458,58,A3#,64,2
609280,580.207432,151,0.157292,74,D5,64,1
609360,580.290766,227,0.236458,62,D4,64,2
609440,580.374099,151,0.157292,67,G4,64,1
609600,580.540766,151,0.157291,74,D5,64,1
609600,580.540766,227,0.236458,58,A3#,64,2
609760,580.707432,151,0.157292,67,G4,64,1
609840,580.790766,227,0.236458,62,D4,64,2
609920,580.874099,151,0.157292,74,D5,64,1
610080,581.040766,151,0.157291,67,G4,64,1
610080,581.040766,227,0.236458,58,A3#,64,2
610240,581.207432,151,0.157292,74,D5,64,1
610320,581.290766,227,0.236458,62,D4,64,2
610400,581.374099,151,0.157292,67,G4,64,1
610560,581.540766,151,0.157291,72,C5,64,1
610560,581.540766,227,0.236458,57,A3,64,2
610560,581.540766,3647,3.798958,53,F3,64,2
610720,581.707432,151,0.157292,69,A4,64,1
610800,581.790766,227,0.236458,60,C4,64,2
610880,581.874099,151,0.157292,72,C5,64,1
611040,582.040766,151,0.157291,69,A4,64,1
611040,582.040766,227,0.236458,57,A3,64,2
611200,582.207432,151,0.157292,72,C5,64,1
611280,582.290766,227,0.236458,60,C4,64,2
611360,582.374099,151,0.157292,69,A4,64,1
611520,582.540766,151,0.157291,72,C5,64,1
611520,582.540766,227,0.236458,57,A3,64,2
611680,582.707432,151,0.157292,69,A4,64,1
611760,582.790766,227,0.236458,60,C4,64,2
611840,582.874099,151,0.157292,72,C5,64,1
612000,583.040766,151,0.157291,69,A4,64,1
612000,583.040766,227,0.236458,57,A3,64,2
612160,583.207432,151,0.157292,72,C5,64,1
612240,583.290766,227,0.236458,60,C4,64,2
612320,583.374099,151,0.157292,69,A4,64,1
612480,583.540766,151,0.157291,72,C5,64,1
612480,583.540766,227,0.236458,57,A3,64,2
612640,583.707432,151,0.157292,69,A4,64,1
612720,583.790766,227,0.236458,60,C4,64,2
612800,583.874099,151,0.157292,72,C5,64,1
612960,584.040766,151,0.157291,69,A4,64,1
612960,584.040766,227,0.236458,57,A3,64,2
613120,584.207432,151,0.157292,72,C5,64,1
613200,584.290766,227,0.236458,60,C4,64,2
613280,584.374099,151,0.157292,69,A4,64,1
613440,584.540766,151,0.157291,72,C5,64,1
613440,584.540766,227,0.236458,57,A3,64,2
613600,584.707432,151,0.157292,69,A4,64,1
613680,584.790766,227,0.236458,60,C4,64,2
613760,584.874099,151,0.157292,72,C5,64,1
613920,585.040766,151,0.157291,69,A4,64,1
613920,585.040766,227,0.236458,57,A3,64,2
614080,585.207432,151,0.157292,72,C5,64,1
614160,585.290766,227,0.236458,60,C4,64,2
614240,585.374099,151,0.157292,69,A4,64,1
614400,585.540766,151,0.157291,70,A4#,64,1
614400,585.540766,227,0.236458,58,A3#,64,2
614400,585.540766,1823,1.898958,55,G3,64,2
614560,585.707432,151,0.157292,67,G4,64,1
614640,585.790766,227,0.236458,62,D4,64,2
614720,585.874099,151,0.157292,70,A4#,64,1
614880,586.040766,151,0.157291,67,G4,64,1
614880,586.040766,227,0.236458,58,A3#,64,2
615040,586.207432,151,0.157292,70,A4#,64,1
615120,586.290766,227,0.236458,62,D4,64,2
615200,586.374099,151,0.157292,67,G4,64,1
615360,586.540766,151,0.157291,70,A4#,64,1
615360,586.540766,227,0.236458,58,A3#,64,2
615520,586.707432,151,0.157292,67,G4,64,1
615600,586.790766,227,0.236458,62,D4,64,2
615680,586.874099,151,0.157292,70,A4#,64,1
615840,587.040766,151,0.157291,67,G4,64,1
615840,587.040766,227,0.236458,58,A3#,64,2
616000,587.207432,151,0.157292,70,A4#,64,1
616080,587.290766,227,0.236458,62,D4,64,2
616160,587.374099,151,0.157292,67,G4,64,1
616320,587.540766,151,0.157291,74,D5,64,1
616320,587.540766,227,0.236458,58,A3#,64,2
616320,587.540766,455,0.473958,53,F3,64,2
616480,587.707432,151,0.157292,67,G4,64,1
616560,587.790766,227,0.236458,62,D4,64,2
616640,587.874099,151,0.157292,74,D5,64,1
616800,588.040766,151,0.157291,67,G4,64,1
616800,588.040766,227,0.236458,58,A3#,64,2
616800,588.040766,455,0.473958,53,F3,64,2
616960,588.207432,151,0.157292,74,D5,64,1
617040,588.290766,227,0.236458,62,D4,64,2
617120,588.374099,151,0.157292,67,G4,64,1
617280,588.540766,151,0.157291,74,D5,64,1
617280,588.540766,227,0.236458,58,A3#,64,2
617280,588.540766,455,0.473958,55,G3,64,2
617440,588.707432,151,0.157292,67,G4,64,1
617520,588.790766,227,0.236458,62,D4,64,2
617600,588.874099,151,0.157292,74,D5,64,1
617760,589.040766,151,0.157291,67,G4,64,1
617760,589.040766,227,0.236458,58,A3#,64,2
617760,589.040766,455,0.473958,55,G3,64,2
617920,589.207432,151,0.157292,74,D5,64,1
618000,589.290766,227,0.236458,62,D4,64,2
618080,589.374099,151,0.157292,67,G4,64,1
618240,589.540766,151,0.157291,72,C5,64,1
618240,589.540766,227,0.236458,57,A3,64,2
618240,589.540766,3647,3.798958,53,F3,64,2
618400,589.707432,151,0.157292,69,A4,64,1
618480,589.790766,227,0.236458,60,C4,64,2
618560,589.874099,151,0.157292,72,C5,64,1
618720,590.040766,151,0.157291,69,A4,64,1
618720,590.040766,227,0.236458,57,A3,64,2
618880,590.207432,151,0.157292,72,C5,64,1
618960,590.290766,227,0.236458,60,C4,64,2
619040,590.374099,151,0.157292,69,A4,64,1
619200,590.540766,151,0.157291,72,C5,64,1
619200,590.540766,227,0.236458,57,A3,64,2
619360,590.707432,151,0.157292,69,A4,64,1
619440,590.790766,227,0.236458,60,C4,64,2
619520,590.874099,151,0.157292,72,C5,64,1
619680,591.040766,151,0.157291,69,A4,64,1
619680,591.040766,227,0.236458,57,A3,64,2
619840,591.207432,151,0.157292,72,C5,64,1
619920,591.290766,227,0.236458,60,C4,64,2
620000,591.374099,151,0.157292,69,A4,64,1
620160,591.540766,151,0.157291,72,C5,64,1
620160,591.540766,227,0.236458,57,A3,64,2
620320,591.707432,151,0.157292,69,A4,64,1
620400,591.790766,227,0.236458,60,C4,64,2
620480,591.874099,151,0.157292,72,C5,64,1
620640,592.040766,151,0.157291,69,A4,64,1
620640,592.040766,227,0.236458,57,A3,64,2
620800,592.207432,151,0.157292,72,C5,64,1
620880,592.290766,227,0.236458,60,C4,64,2
620960,592.374099,151,0.157292,69,A4,64,1
621120,592.540766,151,0.157291,72,C5,64,1
621120,592.540766,227,0.236458,57,A3,64,2
621280,592.707432,151,0.157292,69,A4,64,1
621360,592.790766,227,0.236458,60,C4,64,2
621440,592.874099,151,0.157292,72,C5,64,1
621600,593.040766,151,0.157291,69,A4,64,1
621600,593.040766,227,0.236458,57,A3,64,2
621760,593.207432,151,0.157292,72,C5,64,1
621840,593.290766,227,0.236458,60,C4,64,2
621920,593.374099,151,0.157292,69,A4,64,1
622080,593.540766,239,0.248958,57,A3,49,2
622080,593.540766,3839,3.998958,53,F3,49,2
622320,593.790766,239,0.248958,60,C4,49,2
622560,594.040766,239,0.248958,57,A3,49,2
622800,594.290766,239,0.248958,60,C4,49,2
623040,594.540766,239,0.248958,57,A3,49,2
623280,594.790766,239,0.248958,60,C4,49,2
623520,595.040766,239,0.248958,57,A3,49,2
623760,595.290766,227,0.236458,60,C4,49,2
624000,595.540766,239,0.248958,57,A3,49,2
624240,595.790766,239,0.248958,60,C4,49,2
624480,596.040766,239,0.248958,57,A3,49,2
624720,596.290766,239,0.248958,60,C4,49,2
624960,596.540766,239,0.248958,57,A3,49,2
625200,596.790766,239,0.248958,60,C4,49,2
625440,597.040766,239,0.248958,57,A3,49,2
625680,597.290766,227,0.236458,60,C4,49,2
625920,597.540766,3647,4.774621,36,C2,49,1
625920,597.540766,239,0.248958,57,A3,49,2
625920,597.540766,3839,7.174617,52,E3,49,2
626160,597.790766,239,0.248958,60,C4,49,2
626400,598.040766,239,0.248958,57,A3,49,2
626640,598.290766,239,0.248958,60,C4,49,2
626880,598.540766,239,0.248958,57,A3,49,2
627120,598.790766,239,0.248958,60,C4,49,2
627360,599.040766,239,0.248958,57,A3,49,2
627600,599.290766,227,0.236458,60,C4,49,2
627840,599.540766,239,0.271591,57,A3,49,2
628080,599.813494,239,0.271591,60,C4,47,2
628320,600.086222,239,0.298749,57,A3,45,2
628560,600.386221,239,0.29875,60,C4,43,2
628800,600.686221,239,0.331944,57,A3,40,2
629040,601.019554,239,0.331945,60,C4,38,2
629280,601.352888,239,0.373438,57,A3,36,2
629520,601.727889,227,2.837494,60,C4,33,2
629760,604.727883,119,0.082638,69,A4,96,1
629760,604.727883,119,0.082638,53,F3,96,2
629880,604.811216,119,0.082639,72,C5,96,1
629880,604.811216,119,0.082639,48,C3,96,2
630000,604.894549,119,0.082639,76,E5,96,1
630000,604.894549,119,0.082639,45,A2,96,2
630120,604.977882,119,0.082639,77,F5,96,1
630120,604.977882,119,0.082639,41,F2,96,2
630240,605.061216,119,0.082638,76,E5,96,1
630240,605.061216,119,0.082638,45,A2,96,2
630360,605.144549,113,0.078472,72,C5,96,1
630360,605.144549,113,0.078472,48,C3,96,2
630480,605.227882,119,0.082639,69,A4,96,1
630480,605.227882,119,0.082639,53,F3,96,2
630600,605.311215,119,0.082639,72,C5,96,1
630600,605.311215,119,0.082639,48,C3,96,2
630720,605.394549,119,0.082638,76,E5,96,1
630720,605.394549,119,0.082638,45,A2,96,2
630840,605.477882,119,0.082639,77,F5,96,1
630840,605.477882,119,0.082639,41,F2,96,2
630960,605.561215,119,0.082639,76,E5,96,1
630960,605.561215,119,0.082639,45,A2,96,2
631080,605.644548,113,0.078472,72,C5,96,1
631080,605.644548,113,0.078472,48,C3,96,2
631200,605.727882,119,0.082638,69,A4,96,1
631200,605.727882,119,0.082638,53,F3,96,2
631320,605.811215,119,0.082639,72,C5,96,1
631320,605.811215,119,0.082639,48,C3,96,2
631440,605.894548,119,0.082639,76,E5,96,1
631440,605.894548,119,0.082639,45,A2,96,2
631560,605.977881,119,0.082639,77,F5,96,1
631560,605.977881,119,0.082639,41,F2,96,2
631680,606.061215,119,0.082638,76,E5,96,1
631680,606.061215,119,0.082638,45,A2,96,2
631800,606.144548,113,0.078472,72,C5,96,1
631800,606.144548,113,0.078472,48,C3,96,2
631920,606.227881,119,0.082639,69,A4,96,1
631920,606.227881,119,0.082639,53,F3,96,2
632040,606.311214,119,0.082639,72,C5,96,1
632040,606.311214,119,0.082639,48,C3,96,2
632160,606.394548,119,0.082638,76,E5,96,1
632160,606.394548,119,0.082638,45,A2,96,2
632280,606.477881,119,0.082639,77,F5,96,1
632280,606.477881,119,0.082639,41,F2,96,2
632400,606.561214,119,0.082639,76,E5,96,1
632400,606.561214,119,0.082639,45,A2,96,2
632520,606.644547,113,0.078472,72,C5,96,1
632520,606.644547,113,0.078472,48,C3,96,2
632640,606.727881,119,0.082638,69,A4,96,1
632640,606.727881,119,0.082638,53,F3,96,2
632760,606.811214,119,0.082639,72,C5,96,1
632760,606.811214,119,0.082639,48,C3,96,2
632880,606.894547,119,0.082639,76,E5,96,1
632880,606.894547,119,0.082639,45,A2,96,2
633000,606.97788,119,0.082639,77,F5,96,1
633000,606.97788,119,0.082639,41,F2,96,2
633120,607.061214,119,0.082638,76,E5,96,1
633120,607.061214,119,0.082638,45,A2,96,2
633240,607.144547,113,0.078472,72,C5,96,1
633240,607.144547,113,0.078472,48,C3,96,2
633360,607.22788,119,0.082639,69,A4,96,1
633360,607.22788,119,0.082639,53,F3,96,2
633480,607.311213,119,0.082639,72,C5,96,1
633480,607.311213,119,0.082639,48,C3,96,2
633600,607.394547,119,0.082638,76,E5,96,1
633600,607.394547,119,0.082638,45,A2,96,2
633720,607.47788,119,0.082639,77,F5,96,1
633720,607.47788,119,0.082639,41,F2,96,2
633840,607.561213,119,0.082639,76,E5,96,1
633840,607.561213,119,0.082639,45,A2,96,2
633960,607.644546,113,0.078472,72,C5,96,1
633960,607.644546,113,0.078472,48,C3,96,2
634080,607.72788,119,0.082638,69,A4,96,1
634080,607.72788,119,0.082638,53,F3,96,2
634200,607.811213,119,0.082639,72,C5,96,1
634200,607.811213,119,0.082639,48,C3,96,2
634320,607.894546,119,0.082639,76,E5,96,1
634320,607.894546,119,0.082639,45,A2,96,2
634440,607.977879,119,0.082639,77,F5,96,1
634440,607.977879,119,0.082639,41,F2,96,2
634560,608.061213,119,0.082638,76,E5,96,1
634560,608.061213,119,0.082638,45,A2,96,2
634680,608.144546,113,0.078472,72,C5,96,1
634680,608.144546,113,0.078472,48,C3,96,2
634800,608.227879,119,0.082639,69,A4,96,1
634800,608.227879,119,0.082639,53,F3,96,2
634920,608.311212,119,0.082639,72,C5,96,1
634920,608.311212,119,0.082639,48,C3,96,2
635040,608.394546,119,0.082638,76,E5,96,1
635040,608.394546,119,0.082638,45,A2,96,2
635160,608.477879,119,0.082639,77,F5,96,1
635160,608.477879,119,0.082639,41,F2,96,2
635280,608.561212,119,0.082639,76,E5,96,1
635280,608.561212,119,0.082639,45,A2,96,2
635400,608.644545,113,0.078472,72,C5,96,1
635400,608.644545,113,0.078472,48,C3,96,2
635520,608.727879,119,0.082638,69,A4,96,1
635520,608.727879,119,0.082638,52,E3,96,2
635640,608.811212,119,0.082639,72,C5,96,1
635640,608.811212,119,0.082639,48,C3,96,2
635760,608.894545,119,0.082639,76,E5,96,1
635760,608.894545,119,0.082639,45,A2,96,2
635880,608.977878,119,0.082639,81,A5,96,1
635880,608.977878,119,0.082639,40,E2,96,2
636000,609.061212,119,0.082638,76,E5,96,1
636000,609.061212,119,0.082638,45,A2,96,2
636120,609.144545,113,0.078472,72,C5,96,1
636120,609.144545,113,0.078472,48,C3,96,2
636240,609.227878,119,0.082639,69,A4,96,1
636240,609.227878,119,0.082639,52,E3,96,2
636360,609.311211,119,0.082639,72,C5,96,1
636360,609.311211,119,0.082639,48,C3,96,2
636480,609.394545,119,0.082638,76,E5,96,1
636480,609.394545,119,0.082638,45,A2,96,2
636600,609.477878,119,0.082639,81,A5,96,1
636600,609.477878,119,0.082639,40,E2,96,2
636720,609.561211,119,0.082639,76,E5,96,1
636720,609.561211,119,0.082639,45,A2,96,2
636840,609.644544,113,0.078472,72,C5,96,1
636840,609.644544,113,0.078472,48,C3,96,2
636960,609.727878,119,0.082638,69,A4,96,1
636960,609.727878,119,0.082638,52,E3,96,2
637080,609.811211,119,0.082639,72,C5,96,1
637080,609.811211,119,0.082639,48,C3,96,2
637200,609.894544,119,0.082639,76,E5,96,1
637200,609.894544,119,0.082639,45,A2,96,2
637320,609.977877,119,0.082639,81,A5,96,1
637320,609.977877,119,0.082639,40,E2,96,2
637440,610.061211,119,0.082638,76,E5,96,1
637440,610.061211,119,0.082638,45,A2,96,2
637560,610.144544,113,0.078472,72,C5,96,1
637560,610.144544,113,0.078472,48,C3,96,2
637680,610.227877,119,0.082639,69,A4,96,1
637680,610.227877,119,0.082639,52,E3,96,2
637800,610.31121,119,0.082639,72,C5,96,1
637800,610.31121,119,0.082639,48,C3,96,2
637920,610.394544,119,0.082638,76,E5,96,1
637920,610.394544,119,0.082638,45,A2,96,2
638040,610.477877,119,0.082639,81,A5,96,1
638040,610.477877,119,0.082639,40,E2,96,2
638160,610.56121,119,0.082639,76,E5,96,1
638160,610.56121,119,0.082639,45,A2,96,2
638280,610.644543,113,0.078472,72,C5,96,1
638280,610.644543,113,0.078472,48,C3,96,2
638400,610.727877,119,0.082638,69,A4,96,1
638400,610.727877,119,0.082638,52,E3,96,2
638520,610.81121,119,0.082639,72,C5,96,1
638520,610.81121,119,0.082639,48,C3,96,2
638640,610.894543,119,0.082639,76,E5,96,1
638640,610.894543,119,0.082639,45,A2,96,2
638760,610.977876,119,0.082639,81,A5,96,1
638760,610.977876,119,0.082639,40,E2,96,2
638880,611.06121,119,0.082638,76,E5,96,1
638880,611.06121,119,0.082638,45,A2,96,2
639000,611.144543,119,0.082639,81,A5,96,1
639000,611.144543,119,0.082639,40,E2,96,2
639120,611.227876,119,0.082639,76,E5,96,1
639120,611.227876,119,0.082639,45,A2,96,2
639240,611.311209,113,0.078472,72,C5,96,1
639240,611.311209,113,0.078472,48,C3,96,2
639360,611.394543,119,0.082638,69,A4,96,1
639360,611.394543,119,0.082638,52,E3,96,2
639480,611.477876,119,0.082639,72,C5,96,1
639480,611.477876,119,0.082639,48,C3,96,2
639600,611.561209,119,0.082639,76,E5,96,1
639600,611.561209,119,0.082639,45,A2,96,2
639720,611.644542,119,0.082639,81,A5,96,1
639720,611.644542,119,0.082639,40,E2,96,2
639840,611.727876,119,0.082638,76,E5,96,1
639840,611.727876,119,0.082638,45,A2,96,2
639960,611.811209,113,0.078472,72,C5,96,1
639960,611.811209,113,0.078472,48,C3,96,2
640080,611.894542,119,0.082639,69,A4,96,1
640080,611.894542,119,0.082639,52,E3,96,2
640200,611.977875,119,0.082639,72,C5,96,1
640200,611.977875,119,0.082639,48,C3,96,2
640320,612.061209,119,0.082638,76,E5,96,1
640320,612.061209,119,0.082638,45,A2,96,2
640440,612.144542,119,0.082639,81,A5,96,1
640440,612.144542,119,0.082639,40,E2,96,2
640560,612.227875,119,0.082639,76,E5,96,1
640560,612.227875,119,0.082639,45,A2,96,2
640680,612.311208,119,0.082639,81,A5,96,1
640680,612.311208,119,0.082639,40,E2,96,2
640800,612.394542,119,0.082638,76,E5,96,1
640800,612.394542,119,0.082638,45,A2,96,2
640920,612.477875,113,0.078472,72,C5,96,1
640920,612.477875,113,0.078472,48,C3,96,2
641040,612.561208,119,0.082639,69,A4,96,1
641040,612.561208,119,0.082639,52,E3,96,2
641160,612.644541,119,0.082639,72,C5,96,1
641160,612.644541,119,0.082639,48,C3,96,2
641280,612.727875,119,0.082638,76,E5,96,1
641280,612.727875,119,0.082638,45,A2,96,2
641400,612.811208,119,0.082639,81,A5,96,1
641400,612.811208,119,0.082639,40,E2,96,2
641520,612.894541,119,0.082639,76,E5,96,1
641520,612.894541,119,0.082639,45,A2,96,2
641640,612.977874,113,0.078472,72,C5,96,1
641640,612.977874,113,0.078472,48,C3,96,2
641760,613.061208,119,0.082638,69,A4,96,1
641760,613.061208,119,0.082638,53,F3,96,2
641880,613.144541,119,0.082639,72,C5,96,1
641880,613.144541,119,0.082639,48,C3,96,2
642000,613.227874,119,0.082639,76,E5,96,1
642000,613.227874,119,0.082639,45,A2,96,2
642120,613.311207,119,0.082639,77,F5,96,1
642120,613.311207,119,0.082639,41,F2,96,2
642240,613.394541,119,0.082638,76,E5,96,1
642240,613.394541,119,0.082638,45,A2,96,2
642360,613.477874,113,0.078472,72,C5,96,1
642360,613.477874,113,0.078472,48,C3,96,2
642480,613.561207,119,0.082639,69,A4,96,1
642480,613.561207,119,0.082639,53,F3,96,2
642600,613.64454,119,0.082639,72,C5,96,1
642600,613.64454,119,0.082639,48,C3,96,2
642720,613.727874,119,0.082638,76,E5,96,1
642720,613.727874,119,0.082638,45,A2,96,2
642840,613.811207,119,0.082639,77,F5,96,1
642840,613.811207,119,0.082639,41,F2,96,2
642960,613.89454,119,0.082639,76,E5,96,1
642960,613.89454,119,0.082639,45,A2,96,2
643080,613.977873,113,0.078472,72,C5,96,1
643080,613.977873,113,0.078472,48,C3,96,2
643200,614.061207,119,0.082638,69,A4,96,1
643200,614.061207,119,0.082638,53,F3,96,2
643320,614.14454,119,0.082639,72,C5,96,1
643320,614.14454,119,0.082639,48,C3,96,2
643440,614.227873,119,0.082639,76,E5,96,1
643440,614.227873,119,0.082639,45,A2,96,2
643560,614.311206,119,0.082639,77,F5,96,1
643560,614.311206,119,0.082639,41,F2,96,2
643680,614.39454,119,0.082638,76,E5,96,1
643680,614.39454,119,0.082638,45,A2,96,2
643800,614.477873,113,0.078472,72,C5,96,1
643800,614.477873,113,0.078472,48,C3,96,2
643920,614.561206,119,0.082639,69,A4,96,1
643920,614.561206,119,0.082639,53,F3,96,2
644040,614.644539,119,0.082639,72,C5,96,1
644040,614.644539,119,0.082639,48,C3,96,2
644160,614.727873,119,0.082638,76,E5,96,1
644160,614.727873,119,0.082638,45,A2,96,2
644280,614.811206,119,0.082639,77,F5,96,1
644280,614.811206,119,0.082639,41,F2,96,2
644400,614.894539,119,0.082639,76,E5,96,1
644400,614.894539,119,0.082639,45,A2,96,2
644520,614.977872,113,0.078472,72,C5,96,1
644520,614.977872,113,0.078472,48,C3,96,2
644640,615.061206,119,0.082638,69,A4,96,1
644640,615.061206,119,0.082638,53,F3,96,2
644760,615.144539,119,0.082639,72,C5,96,1
644760,615.144539,119,0.082639,48,C3,96,2
644880,615.227872,119,0.082639,76,E5,96,1
644880,615.227872,119,0.082639,45,A2,96,2
645000,615.311205,119,0.082639,77,F5,96,1
645000,615.311205,119,0.082639,41,F2,96,2
645120,615.394539,119,0.082638,76,E5,96,1
645120,615.394539,119,0.082638,45,A2,96,2
645240,615.477872,113,0.078472,72,C5,96,1
645240,615.477872,113,0.078472,48,C3,96,2
645360,615.561205,119,0.082639,69,A4,96,1
645360,615.561205,119,0.082639,53,F3,96,2
645480,615.644538,119,0.082639,72,C5,96,1
645480,615.644538,119,0.082639,48,C3,96,2
645600,615.727872,119,0.082638,76,E5,96,1
645600,615.727872,119,0.082638,45,A2,96,2
645720,615.811205,119,0.082639,77,F5,96,1
645720,615.811205,119,0.082639,41,F2,96,2
645840,615.894538,119,0.082639,76,E5,96,1
645840,615.894538,119,0.082639,45,A2,96,2
645960,615.977871,113,0.078472,72,C5,96,1
645960,615.977871,113,0.078472,48,C3,96,2
646080,616.061205,119,0.082638,69,A4,96,1
646080,616.061205,119,0.082638,53,F3,96,2
646200,616.144538,119,0.082639,72,C5,96,1
646200,616.144538,119,0.082639,48,C3,96,2
646320,616.227871,119,0.082639,76,E5,96,1
646320,616.227871,119,0.082639,45,A2,96,2
646440,616.311204,119,0.082639,77,F5,96,1
646440,616.311204,119,0.082639,41,F2,96,2
646560,616.394538,119,0.082638,76,E5,96,1
646560,616.394538,119,0.082638,45,A2,96,2
646680,616.477871,113,0.078472,72,C5,96,1
646680,616.477871,113,0.078472,48,C3,96,2
646800,616.561204,119,0.082639,69,A4,96,1
646800,616.561204,119,0.082639,53,F3,96,2
646920,616.644537,119,0.082639,72,C5,96,1
646920,616.644537,119,0.082639,48,C3,96,2
647040,616.727871,119,0.082638,76,E5,96,1
647040,616.727871,119,0.082638,45,A2,96,2
647160,616.811204,119,0.082639,77,F5,96,1
647160,616.811204,119,0.082639,41,F2,96,2
647280,616.894537,119,0.082639,76,E5,96,1
647280,616.894537,119,0.082639,45,A2,96,2
647400,616.97787,113,0.078472,72,C5,96,1
647400,616.97787,113,0.078472,48,C3,96,2
647520,617.061204,119,0.082638,69,A4,96,1
647520,617.061204,119,0.082638,52,E3,96,2
647640,617.144537,119,0.082639,72,C5,96,1
647640,617.144537,119,0.082639,48,C3,96,2
647760,617.22787,119,0.082639,76,E5,96,1
647760,617.22787,119,0.082639,45,A2,96,2
647880,617.311203,119,0.082639,81,A5,96,1
647880,617.311203,119,0.082639,40,E2,96,2
648000,617.394537,119,0.082638,76,E5,96,1
648000,617.394537,119,0.082638,45,A2,96,2
648120,617.47787,113,0.078472,72,C5,96,1
648120,617.47787,113,0.078472,48,C3,96,2
648240,617.561203,119,0.082639,69,A4,96,1
648240,617.561203,119,0.082639,52,E3,96,2
648360,617.644536,119,0.082639,72,C5,96,1
648360,617.644536,119,0.082639,48,C3,96,2
648480,617.72787,119,0.082638,76,E5,96,1
648480,617.72787,119,0.082638,45,A2,96,2
648600,617.811203,119,0.082639,81,A5,96,1
648600,617.811203,119,0.082639,40,E2,96,2
648720,617.894536,119,0.082639,76,E5,96,1
648720,617.894536,119,0.082639,45,A2,96,2
648840,617.977869,113,0.078472,72,C5,96,1
648840,617.977869,113,0.078472,48,C3,96,2
648960,618.061203,119,0.082638,69,A4,96,1
648960,618.061203,119,0.082638,52,E3,96,2
649080,618.144536,119,0.082639,72,C5,96,1
649080,618.144536,119,0.082639,48,C3,96,2
649200,618.227869,119,0.082639,76,E5,96,1
649200,618.227869,119,0.082639,45,A2,96,2
649320,618.311202,119,0.082639,81,A5,96,1
649320,618.311202,119,0.082639,40,E2,96,2
649440,618.394536,119,0.082638,76,E5,96,1
649440,618.394536,119,0.082638,45,A2,96,2
649560,618.477869,113,0.078472,72,C5,96,1
649560,618.477869,113,0.078472,48,C3,96,2
649680,618.561202,119,0.082639,69,A4,96,1
649680,618.561202,119,0.082639,52,E3,96,2
649800,618.644535,119,0.082639,72,C5,96,1
649800,618.644535,119,0.082639,48,C3,96,2
649920,618.727869,119,0.082638,76,E5,96,1
649920,618.727869,119,0.082638,45,A2,96,2
650040,618.811202,119,0.082639,81,A5,96,1
650040,618.811202,119,0.082639,40,E2,96,2
650160,618.894535,119,0.082639,76,E5,96,1
650160,618.894535,119,0.082639,45,A2,96,2
650280,618.977868,113,0.078472,72,C5,96,1
650280,618.977868,113,0.078472,48,C3,96,2
650400,619.061202,119,0.082638,69,A4,96,1
650400,619.061202,119,0.082638,52,E3,96,2
650520,619.144535,119,0.082639,72,C5,96,1
650520,619.144535,119,0.082639,48,C3,96,2
650640,619.227868,119,0.082639,76,E5,96,1
650640,619.227868,119,0.082639,45,A2,96,2
650760,619.311201,119,0.082639,81,A5,96,1
650760,619.311201,119,0.082639,40,E2,96,2
650880,619.394535,119,0.082638,76,E5,96,1
650880,619.394535,119,0.082638,45,A2,96,2
651000,619.477868,119,0.082639,81,A5,96,1
651000,619.477868,119,0.082639,40,E2,96,2
651120,619.561201,119,0.082639,76,E5,96,1
651120,619.561201,119,0.082639,45,A2,96,2
651240,619.644534,113,0.078472,72,C5,96,1
651240,619.644534,113,0.078472,48,C3,96,2
651360,619.727868,119,0.082638,69,A4,96,1
651360,619.727868,119,0.082638,52,E3,96,2
651480,619.811201,119,0.082639,72,C5,96,1
651480,619.811201,119,0.082639,48,C3,96,2
651600,619.894534,119,0.082639,76,E5,96,1
651600,619.894534,119,0.082639,45,A2,96,2
651720,619.977867,119,0.082639,81,A5,96,1
651720,619.977867,119,0.082639,40,E2,96,2
651840,620.061201,119,0.082638,76,E5,96,1
651840,620.061201,119,0.082638,45,A2,96,2
651960,620.144534,113,0.078472,72,C5,96,1
651960,620.144534,113,0.078472,48,C3,96,2
652080,620.227867,119,0.082639,69,A4,96,1
652080,620.227867,119,0.082639,52,E3,96,2
652200,620.3112,119,0.082639,72,C5,96,1
652200,620.3112,119,0.082639,48,C3,96,2
652320,620.394534,119,0.082638,76,E5,96,1
652320,620.394534,119,0.082638,45,A2,96,2
652440,620.477867,119,0.082639,81,A5,96,1
652440,620.477867,119,0.082639,40,E2,96,2
652560,620.5612,119,0.082639,76,E5,96,1
652560,620.5612,119,0.082639,45,A2,96,2
652680,620.644533,119,0.082639,81,A5,96,1
652680,620.644533,119,0.082639,40,E2,96,2
652800,620.727867,119,0.082638,76,E5,96,1
652800,620.727867,119,0.082638,45,A2,96,2
652920,620.8112,113,0.078472,72,C5,96,1
652920,620.8112,113,0.078472,48,C3,96,2
653040,620.894533,119,0.082639,69,A4,96,1
653040,620.894533,119,0.082639,52,E3,96,2
653160,620.977866,119,0.082639,72,C5,96,1
653160,620.977866,119,0.082639,48,C3,96,2
653280,621.0612,119,0.082638,76,E5,96,1
653280,621.0612,119,0.082638,45,A2,96,2
653400,621.144533,119,0.082639,81,A5,96,1
653400,621.144533,119,0.082639,40,E2,96,2
653520,621.227866,119,0.082639,76,E5,96,1
653520,621.227866,119,0.082639,45,A2,96,2
653640,621.311199,113,0.078472,72,C5,96,1
653640,621.311199,113,0.078472,48,C3,96,2
653760,621.394533,119,0.082638,69,A4,96,1
653760,621.394533,119,0.082638,53,F3,96,2
653880,621.477866,119,0.082639,72,C5,96,1
653880,621.477866,119,0.082639,48,C3,96,2
654000,621.561199,119,0.082639,76,E5,96,1
654000,621.561199,119,0.082639,45,A2,96,2
654120,621.644532,119,0.082639,77,F5,96,1
654120,621.644532,119,0.082639,41,F2,96,2
654240,621.727866,119,0.082638,76,E5,96,1
654240,621.727866,119,0.082638,45,A2,96,2
654360,621.811199,113,0.078472,72,C5,96,1
654360,621.811199,113,0.078472,48,C3,96,2
654480,621.894532,119,0.082639,69,A4,96,1
654480,621.894532,119,0.082639,53,F3,96,2
654600,621.977865,119,0.082639,72,C5,96,1
654600,621.977865,119,0.082639,48,C3,96,2
654720,622.061199,119,0.082638,76,E5,96,1
654720,622.061199,119,0.082638,45,A2,96,2
654840,622.144532,119,0.082639,77,F5,96,1
654840,622.144532,119,0.082639,41,F2,96,2
654960,622.227865,119,0.082639,76,E5,96,1
654960,622.227865,119,0.082639,45,A2,96,2
655080,622.311198,113,0.078472,72,C5,96,1
655080,622.311198,113,0.078472,48,C3,96,2
655200,622.394532,119,0.082638,69,A4,96,1
655200,622.394532,119,0.082638,53,F3,96,2
655320,622.477865,119,0.082639,72,C5,96,1
655320,622.477865,119,0.082639,48,C3,96,2
655440,622.561198,119,0.082639,76,E5,96,1
655440,622.561198,119,0.082639,45,A2,96,2
655560,622.644531,119,0.082639,77,F5,96,1
655560,622.644531,119,0.082639,41,F2,96,2
655680,622.727865,119,0.082638,76,E5,96,1
655680,622.727865,119,0.082638,45,A2,96,2
655800,622.811198,113,0.078472,72,C5,96,1
655800,622.811198,113,0.078472,48,C3,96,2
655920,622.894531,119,0.082639,69,A4,96,1
655920,622.894531,119,0.082639,53,F3,96,2
656040,622.977864,119,0.082639,72,C5,96,1
656040,622.977864,119,0.082639,48,C3,96,2
656160,623.061198,119,0.082638,76,E5,96,1
656160,623.061198,119,0.082638,45,A2,96,2
656280,623.144531,119,0.082639,77,F5,96,1
656280,623.144531,119,0.082639,41,F2,96,2
656400,623.227864,119,0.082639,76,E5,96,1
656400,623.227864,119,0.082639,45,A2,96,2
656520,623.311197,113,0.078472,72,C5,96,1
656520,623.311197,113,0.078472,48,C3,96,2
656640,623.394531,119,0.082638,67,G4,96,1
656640,623.394531,119,0.082638,55,G3,96,2
656760,623.477864,119,0.082639,72,C5,96,1
656760,623.477864,119,0.082639,48,C3,96,2
656880,623.561197,119,0.082639,76,E5,96,1
656880,623.561197,119,0.082639,45,A2,96,2
657000,623.64453,119,0.082639,77,F5,96,1
657000,623.64453,119,0.082639,43,G2,96,2
657120,623.727864,119,0.082638,76,E5,96,1
657120,623.727864,119,0.082638,45,A2,96,2
657240,623.811197,113,0.078472,72,C5,96,1
657240,623.811197,113,0.078472,48,C3,96,2
657360,623.89453,119,0.082639,67,G4,96,1
657360,623.89453,119,0.082639,55,G3,96,2
657480,623.977863,119,0.082639,72,C5,96,1
657480,623.977863,119,0.082639,48,C3,96,2
657600,624.061197,119,0.082638,76,E5,96,1
657600,624.061197,119,0.082638,45,A2,96,2
657720,624.14453,119,0.082639,77,F5,96,1
657720,624.14453,119,0.082639,43,G2,96,2
657840,624.227863,119,0.082639,76,E5,96,1
657840,624.227863,119,0.082639,45,A2,96,2
657960,624.311196,113,0.078472,72,C5,96,1
657960,624.311196,113,0.078472,48,C3,96,2
658080,624.39453,119,0.082638,69,A4,96,1
658080,624.39453,119,0.082638,53,F3,96,2
658200,624.477863,119,0.082639,72,C5,96,1
658200,624.477863,119,0.082639,48,C3,96,2
658320,624.561196,119,0.082639,76,E5,96,1
658320,624.561196,119,0.082639,45,A2,96,2
658440,624.644529,119,0.082639,77,F5,96,1
658440,624.644529,119,0.082639,41,F2,96,2
658560,624.727863,119,0.082638,76,E5,96,1
658560,624.727863,119,0.082638,45,A2,96,2
658680,624.811196,113,0.078472,72,C5,96,1
658680,624.811196,113,0.078472,48,C3,96,2
658800,624.894529,119,0.082639,69,A4,96,1
658800,624.894529,119,0.082639,53,F3,96,2
658920,624.977862,119,0.082639,72,C5,96,1
658920,624.977862,119,0.082639,48,C3,96,2
659040,625.061196,119,0.082638,76,E5,96,1
659040,625.061196,119,0.082638,45,A2,96,2
659160,625.144529,119,0.082639,77,F5,96,1
659160,625.144529,119,0.082639,41,F2,96,2
659280,625.227862,119,0.082639,76,E5,96,1
659280,625.227862,119,0.082639,45,A2,96,2
659400,625.311195,113,0.078472,72,C5,96,1
659400,625.311195,113,0.078472,48,C3,96,2
659520,625.394529,119,0.082638,69,A4,96,1
659520,625.394529,119,0.082638,52,E3,96,2
659640,625.477862,119,0.082639,72,C5,96,1
659640,625.477862,119,0.082639,48,C3,96,2
659760,625.561195,119,0.082639,76,E5,96,1
659760,625.561195,119,0.082639,45,A2,96,2
659880,625.644528,119,0.082639,81,A5,96,1
659880,625.644528,119,0.082639,40,E2,96,2
660000,625.727862,119,0.082638,76,E5,96,1
660000,625.727862,119,0.082638,45,A2,96,2
660120,625.811195,113,0.078472,72,C5,96,1
660120,625.811195,113,0.078472,48,C3,96,2
660240,625.894528,119,0.082639,69,A4,96,1
660240,625.894528,119,0.082639,52,E3,96,2
660360,625.977861,119,0.082639,72,C5,96,1
660360,625.977861,119,0.082639,48,C3,96,2
660480,626.061195,119,0.082638,76,E5,96,1
660480,626.061195,119,0.082638,45,A2,96,2
660600,626.144528,119,0.082639,81,A5,96,1
660600,626.144528,119,0.082639,40,E2,96,2
660720,626.227861,119,0.082639,76,E5,96,1
660720,626.227861,119,0.082639,45,A2,96,2
660840,626.311194,113,0.078472,72,C5,96,1
660840,626.311194,113,0.078472,48,C3,96,2
660960,626.394528,119,0.082638,69,A4,96,1
660960,626.394528,119,0.082638,52,E3,96,2
661080,626.477861,119,0.082639,72,C5,96,1
661080,626.477861,119,0.082639,48,C3,96,2
661200,626.561194,119,0.082639,76,E5,96,1
661200,626.561194,119,0.082639,45,A2,96,2
661320,626.644527,119,0.082639,81,A5,96,1
661320,626.644527,119,0.082639,40,E2,96,2
661440,626.727861,119,0.082638,76,E5,96,1
661440,626.727861,119,0.082638,45,A2,96,2
661560,626.811194,113,0.078472,72,C5,96,1
661560,626.811194,113,0.078472,48,C3,96,2
661680,626.894527,119,0.082639,69,A4,96,1
661680,626.894527,119,0.082639,52,E3,96,2
661800,626.97786,119,0.082639,72,C5,96,1
661800,626.97786,119,0.082639,48,C3,96,2
661920,627.061194,119,0.082638,76,E5,96,1
661920,627.061194,119,0.082638,45,A2,96,2
662040,627.144527,119,0.082639,81,A5,96,1
662040,627.144527,119,0.082639,40,E2,96,2
662160,627.22786,119,0.082639,76,E5,96,1
662160,627.22786,119,0.082639,45,A2,96,2
662280,627.311193,113,0.078472,72,C5,96,1
662280,627.311193,113,0.078472,48,C3,96,2
662400,627.394527,119,0.082638,69,A4,96,1
662400,627.394527,119,0.082638,52,E3,96,2
662520,627.47786,119,0.082639,72,C5,96,1
662520,627.47786,119,0.082639,48,C3,96,2
662640,627.561193,119,0.082639,76,E5,96,1
662640,627.561193,119,0.082639,45,A2,96,2
662760,627.644526,119,0.082639,81,A5,96,1
662760,627.644526,119,0.082639,40,E2,96,2
662880,627.72786,119,0.082638,76,E5,96,1
662880,627.72786,119,0.082638,45,A2,96,2
663000,627.811193,119,0.082639,81,A5,96,1
663000,627.811193,119,0.082639,40,E2,96,2
663120,627.894526,119,0.082639,76,E5,96,1
663120,627.894526,119,0.082639,45,A2,96,2
663240,627.977859,113,0.078472,72,C5,96,1
663240,627.977859,113,0.078472,48,C3,96,2
663360,628.061193,119,0.082638,69,A4,96,1
663360,628.061193,119,0.082638,52,E3,96,2
663480,628.144526,119,0.082639,72,C5,96,1
663480,628.144526,119,0.082639,48,C3,96,2
663600,628.227859,119,0.082639,76,E5,96,1
663600,628.227859,119,0.082639,45,A2,96,2
663720,628.311192,119,0.082639,81,A5,96,1
663720,628.311192,119,0.082639,40,E2,96,2
663840,628.394526,119,0.082638,76,E5,96,1
663840,628.394526,119,0.082638,45,A2,96,2
663960,628.477859,113,0.078472,72,C5,96,1
663960,628.477859,113,0.078472,48,C3,96,2
664080,628.561192,119,0.082639,69,A4,96,1
664080,628.561192,119,0.082639,52,E3,96,2
664200,628.644525,119,0.082639,72,C5,96,1
664200,628.644525,119,0.082639,48,C3,96,2
664320,628.727859,119,0.082638,76,E5,96,1
664320,628.727859,119,0.082638,45,A2,96,2
664440,628.811192,119,0.082639,81,A5,96,1
664440,628.811192,119,0.082639,40,E2,96,2
664560,628.894525,119,0.082639,76,E5,96,1
664560,628.894525,119,0.082639,45,A2,96,2
664680,628.977858,119,0.082639,81,A5,96,1
664680,628.977858,119,0.082639,40,E2,96,2
664800,629.061192,119,0.082638,76,E5,96,1
664800,629.061192,119,0.082638,45,A2,96,2
664920,629.144525,113,0.078472,72,C5,96,1
664920,629.144525,113,0.078472,48,C3,96,2
665040,629.227858,119,0.082639,69,A4,96,1
665040,629.227858,119,0.082639,52,E3,96,2
665160,629.311191,119,0.082639,72,C5,96,1
665160,629.311191,119,0.082639,48,C3,96,2
665280,629.394525,119,0.082638,76,E5,96,1
665280,629.394525,119,0.082638,45,A2,96,2
665400,629.477858,119,0.082639,81,A5,96,1
665400,629.477858,119,0.082639,40,E2,96,2
665520,629.561191,119,0.082639,76,E5,96,1
665520,629.561191,119,0.082639,45,A2,96,2
665640,629.644524,113,0.078472,72,C5,96,1
665640,629.644524,113,0.078472,48,C3,96,2
665760,629.727858,119,0.082638,69,A4,96,1
665760,629.727858,119,0.082638,53,F3,96,2
665880,629.811191,119,0.082639,72,C5,96,1
665880,629.811191,119,0.082639,48,C3,96,2
666000,629.894524,119,0.082639,76,E5,96,1
666000,629.894524,119,0.082639,45,A2,96,2
666120,629.977857,119,0.082639,77,F5,96,1
666120,629.977857,119,0.082639,41,F2,96,2
666240,630.061191,119,0.082638,76,E5,96,1
666240,630.061191,119,0.082638,45,A2,96,2
666360,630.144524,113,0.078472,72,C5,96,1
666360,630.144524,113,0.078472,48,C3,96,2
666480,630.227857,119,0.082639,69,A4,96,1
666480,630.227857,119,0.082639,53,F3,96,2
666600,630.31119,119,0.082639,72,C5,96,1
666600,630.31119,119,0.082639,48,C3,96,2
666720,630.394524,119,0.082638,76,E5,96,1
666720,630.394524,119,0.082638,45,A2,96,2
666840,630.477857,119,0.082639,77,F5,96,1
666840,630.477857,119,0.082639,41,F2,96,2
666960,630.56119,119,0.082639,76,E5,96,1
666960,630.56119,119,0.082639,45,A2,96,2
667080,630.644523,113,0.078472,72,C5,96,1
667080,630.644523,113,0.078472,48,C3,96,2
667200,630.727857,119,0.082638,69,A4,96,1
667200,630.727857,119,0.082638,53,F3,96,2
667320,630.81119,119,0.082639,72,C5,96,1
667320,630.81119,119,0.082639,48,C3,96,2
667440,630.894523,119,0.082639,76,E5,96,1
667440,630.894523,119,0.082639,45,A2,96,2
667560,630.977856,119,0.082639,77,F5,96,1
667560,630.977856,119,0.082639,41,F2,96,2
667680,631.06119,119,0.082638,76,E5,96,1
667680,631.06119,119,0.082638,45,A2,96,2
667800,631.144523,113,0.078472,72,C5,96,1
667800,631.144523,113,0.078472,48,C3,96,2
667920,631.227856,119,0.082639,69,A4,96,1
667920,631.227856,119,0.082639,53,F3,96,2
668040,631.311189,119,0.082639,72,C5,96,1
668040,631.311189,119,0.082639,48,C3,96,2
668160,631.394523,119,0.082638,76,E5,96,1
668160,631.394523,119,0.082638,45,A2,96,2
668280,631.477856,119,0.082639,77,F5,96,1
668280,631.477856,119,0.082639,41,F2,96,2
668400,631.561189,119,0.082639,76,E5,96,1
668400,631.561189,119,0.082639,45,A2,96,2
668520,631.644522,113,0.078472,72,C5,96,1
668520,631.644522,113,0.078472,48,C3,96,2
668640,631.727856,119,0.082638,67,G4,96,1
668640,631.727856,119,0.082638,55,G3,96,2
668760,631.811189,119,0.082639,72,C5,96,1
668760,631.811189,119,0.082639,48,C3,96,2
668880,631.894522,119,0.082639,76,E5,96,1
668880,631.894522,119,0.082639,45,A2,96,2
669000,631.977855,119,0.082639,77,F5,96,1
669000,631.977855,119,0.082639,43,G2,96,2
669120,632.061189,119,0.082638,76,E5,96,1
669120,632.061189,119,0.082638,45,A2,96,2
669240,632.144522,113,0.078472,72,C5,96,1
669240,632.144522,113,0.078472,48,C3,96,2
669360,632.227855,119,0.082639,67,G4,96,1
669360,632.227855,119,0.082639,55,G3,96,2
669480,632.311188,119,0.082639,72,C5,96,1
669480,632.311188,119,0.082639,48,C3,96,2
669600,632.394522,119,0.082638,76,E5,96,1
669600,632.394522,119,0.082638,45,A2,96,2
669720,632.477855,119,0.082639,77,F5,96,1
669720,632.477855,119,0.082639,43,G2,96,2
669840,632.561188,119,0.082639,76,E5,96,1
669840,632.561188,119,0.082639,45,A2,96,2
669960,632.644521,113,0.078472,72,C5,96,1
669960,632.644521,113,0.078472,48,C3,96,2
670080,632.727855,119,0.082638,69,A4,96,1
670080,632.727855,119,0.082638,53,F3,96,2
670200,632.811188,119,0.082639,72,C5,96,1
670200,632.811188,119,0.082639,48,C3,96,2
670320,632.894521,119,0.082639,76,E5,96,1
670320,632.894521,119,0.082639,45,A2,96,2
670440,632.977854,119,0.082639,77,F5,96,1
670440,632.977854,119,0.082639,41,F2,96,2
670560,633.061188,119,0.082638,76,E5,96,1
670560,633.061188,119,0.082638,45,A2,96,2
670680,633.144521,113,0.078472,72,C5,96,1
670680,633.144521,113,0.078472,48,C3,96,2
670800,633.227854,119,0.082639,69,A4,96,1
670800,633.227854,119,0.082639,53,F3,96,2
670920,633.311187,119,0.082639,72,C5,96,1
670920,633.311187,119,0.082639,48,C3,96,2
671040,633.394521,119,0.082638,76,E5,96,1
671040,633.394521,119,0.082638,45,A2,96,2
671160,633.477854,119,0.082639,77,F5,96,1
671160,633.477854,119,0.082639,41,F2,96,2
671280,633.561187,119,0.082639,76,E5,96,1
671280,633.561187,119,0.082639,45,A2,96,2
671400,633.64452,113,0.078472,72,C5,96,1
671400,633.64452,113,0.078472,48,C3,96,2
671520,633.727854,119,0.082638,69,A4,96,1
671520,633.727854,119,0.082638,52,E3,96,2
671640,633.811187,119,0.082639,72,C5,96,1
671640,633.811187,119,0.082639,48,C3,96,2
671760,633.89452,119,0.082639,76,E5,96,1
671760,633.89452,119,0.082639,45,A2,96,2
671880,633.977853,119,0.082639,81,A5,96,1
671880,633.977853,119,0.082639,40,E2,96,2
672000,634.061187,119,0.082638,76,E5,96,1
672000,634.061187,119,0.082638,45,A2,96,2
672120,634.14452,113,0.078472,72,C5,96,1
672120,634.14452,113,0.078472,48,C3,96,2
672240,634.227853,119,0.082639,69,A4,96,1
672240,634.227853,119,0.082639,52,E3,96,2
672360,634.311186,119,0.082639,72,C5,96,1
672360,634.311186,119,0.082639,48,C3,96,2
672480,634.39452,119,0.082638,76,E5,96,1
672480,634.39452,119,0.082638,45,A2,96,2
672600,634.477853,119,0.082639,81,A5,96,1
672600,634.477853,119,0.082639,40,E2,96,2
672720,634.561186,119,0.082639,76,E5,96,1
672720,634.561186,119,0.082639,45,A2,96,2
672840,634.644519,113,0.078472,72,C5,96,1
672840,634.644519,113,0.078472,48,C3,96,2
672960,634.727853,119,0.082638,69,A4,96,1
672960,634.727853,119,0.082638,52,E3,96,2
673080,634.811186,119,0.082639,72,C5,96,1
673080,634.811186,119,0.082639,48,C3,96,2
673200,634.894519,119,0.082639,76,E5,96,1
673200,634.894519,119,0.082639,45,A2,96,2
673320,634.977852,119,0.082639,81,A5,96,1
673320,634.977852,119,0.082639,40,E2,96,2
673440,635.061186,119,0.082638,76,E5,96,1
673440,635.061186,119,0.082638,45,A2,96,2
673560,635.144519,113,0.078472,72,C5,96,1
673560,635.144519,113,0.078472,48,C3,96,2
673680,635.227852,119,0.082639,69,A4,96,1
673680,635.227852,119,0.082639,52,E3,96,2
673800,635.311185,119,0.082639,72,C5,96,1
673800,635.311185,119,0.082639,48,C3,96,2
673920,635.394519,119,0.082638,76,E5,96,1
673920,635.394519,119,0.082638,45,A2,96,2
674040,635.477852,119,0.082639,81,A5,96,1
674040,635.477852,119,0.082639,40,E2,96,2
674160,635.561185,119,0.082639,76,E5,96,1
674160,635.561185,119,0.082639,45,A2,96,2
674280,635.644518,113,0.078472,72,C5,96,1
674280,635.644518,113,0.078472,48,C3,96,2
674400,635.727852,119,0.082638,69,A4,96,1
674400,635.727852,119,0.082638,52,E3,96,2
674520,635.811185,119,0.082639,72,C5,96,1
674520,635.811185,119,0.082639,48,C3,96,2
674640,635.894518,119,0.082639,76,E5,96,1
674640,635.894518,119,0.082639,45,A2,96,2
674760,635.977851,119,0.082639,81,A5,96,1
674760,635.977851,119,0.082639,40,E2,96,2
674880,636.061185,119,0.082638,76,E5,96,1
674880,636.061185,119,0.082638,45,A2,96,2
675000,636.144518,119,0.082639,81,A5,96,1
675000,636.144518,119,0.082639,40,E2,96,2
675120,636.227851,119,0.082639,76,E5,96,1
675120,636.227851,119,0.082639,45,A2,96,2
675240,636.311184,113,0.078472,72,C5,96,1
675240,636.311184,113,0.078472,48,C3,96,2
675360,636.394518,119,0.082638,69,A4,96,1
675360,636.394518,119,0.082638,52,E3,96,2
675480,636.477851,119,0.082639,72,C5,96,1
675480,636.477851,119,0.082639,48,C3,96,2
675600,636.561184,119,0.082639,76,E5,96,1
675600,636.561184,119,0.082639,45,A2,96,2
675720,636.644517,119,0.082639,81,A5,96,1
675720,636.644517,119,0.082639,40,E2,96,2
675840,636.727851,119,0.082638,76,E5,96,1
675840,636.727851,119,0.082638,45,A2,96,2
675960,636.811184,113,0.078472,72,C5,96,1
675960,636.811184,113,0.078472,48,C3,96,2
676080,636.894517,119,0.082639,69,A4,96,1
676080,636.894517,119,0.082639,52,E3,96,2
676200,636.97785,119,0.082639,72,C5,96,1
676200,636.97785,119,0.082639,48,C3,96,2
676320,637.061184,119,0.082638,76,E5,96,1
676320,637.061184,119,0.082638,45,A2,96,2
676440,637.144517,119,0.082639,81,A5,96,1
676440,637.144517,119,0.082639,40,E2,96,2
676560,637.22785,119,0.082639,76,E5,96,1
676560,637.22785,119,0.082639,45,A2,96,2
676680,637.311183,119,0.082639,81,A5,96,1
676680,637.311183,119,0.082639,40,E2,96,2
676800,637.394517,119,0.082638,76,E5,96,1
676800,637.394517,119,0.082638,45,A2,96,2
676920,637.47785,113,0.078472,72,C5,96,1
676920,637.47785,113,0.078472,48,C3,96,2
677040,637.561183,119,0.082639,69,A4,96,1
677040,637.561183,119,0.082639,52,E3,96,2
677160,637.644516,119,0.082639,72,C5,96,1
677160,637.644516,119,0.082639,48,C3,96,2
677280,637.72785,119,0.082638,76,E5,96,1
677280,637.72785,119,0.082638,45,A2,96,2
677400,637.811183,119,0.082639,81,A5,96,1
677400,637.811183,119,0.082639,40,E2,96,2
677520,637.894516,119,0.082639,76,E5,96,1
677520,637.894516,119,0.082639,45,A2,96,2
677640,637.977849,113,0.078472,72,C5,96,1
677640,637.977849,113,0.078472,48,C3,96,2
677760,638.061183,113,0.078472,69,A4,96,1
677760,638.061183,113,0.078472,53,F3,96,2
677880,638.144516,113,0.078472,72,C5,96,1
677880,638.144516,113,0.078472,48,C3,96,2
678000,638.227849,113,0.078472,76,E5,96,1
678000,638.227849,113,0.078472,45,A2,96,2
678120,638.311182,113,0.078472,77,F5,96,1
678120,638.311182,113,0.078472,41,F2,96,2
678240,638.394516,113,0.078472,76,E5,96,1
678240,638.394516,113,0.078472,45,A2,96,2
678360,638.477849,113,0.078472,72,C5,96,1
678360,638.477849,113,0.078472,48,C3,96,2
678480,638.561182,113,0.078472,69,A4,96,1
678480,638.561182,113,0.078472,53,F3,96,2
678600,638.644515,113,0.078472,72,C5,96,1
678600,638.644515,113,0.078472,48,C3,96,2
678720,638.727849,113,0.078472,76,E5,96,1
678720,638.727849,113,0.078472,45,A2,96,2
678840,638.811182,113,0.078472,77,F5,96,1
678840,638.811182,113,0.078472,41,F2,96,2
678960,638.894515,113,0.078472,76,E5,96,1
678960,638.894515,113,0.078472,45,A2,96,2
679080,638.977848,113,0.078472,72,C5,96,1
679080,638.977848,113,0.078472,48,C3,96,2
679200,639.061182,113,0.078472,69,A4,96,1
679200,639.061182,113,0.078472,53,F3,96,2
679320,639.144515,113,0.078472,72,C5,96,1
679320,639.144515,113,0.078472,48,C3,96,2
679440,639.227848,113,0.078472,76,E5,96,1
679440,639.227848,113,0.078472,45,A2,96,2
679560,639.311181,113,0.078472,77,F5,96,1
679560,639.311181,113,0.078472,41,F2,96,2
679680,639.394515,113,0.078472,76,E5,96,1
679680,639.394515,113,0.078472,45,A2,96,2
679800,639.477848,113,0.078472,72,C5,96,1
679800,639.477848,113,0.078472,48,C3,96,2
679920,639.561181,113,0.078472,69,A4,96,1
679920,639.561181,113,0.078472,53,F3,96,2
680040,639.644514,113,0.078472,72,C5,96,1
680040,639.644514,113,0.078472,48,C3,96,2
680160,639.727848,113,0.078472,76,E5,96,1
680160,639.727848,113,0.078472,45,A2,96,2
680280,639.811181,113,0.078472,77,F5,96,1
680280,639.811181,113,0.078472,41,F2,96,2
680400,639.894514,113,0.078472,76,E5,96,1
680400,639.894514,113,0.078472,45,A2,96,2
680520,639.977847,113,0.078472,72,C5,96,1
680520,639.977847,113,0.078472,48,C3,96,2
680640,640.061181,113,0.078472,67,G4,96,1
680640,640.061181,113,0.078472,55,G3,96,2
680760,640.144514,113,0.078472,72,C5,96,1
680760,640.144514,113,0.078472,48,C3,96,2
680880,640.227847,113,0.078472,76,E5,96,1
680880,640.227847,113,0.078472,45,A2,96,2
681000,640.31118,113,0.078472,77,F5,96,1
681000,640.31118,113,0.078472,43,G2,96,2
681120,640.394514,113,0.078472,76,E5,96,1
681120,640.394514,113,0.078472,45,A2,96,2
681240,640.477847,113,0.078472,72,C5,96,1
681240,640.477847,113,0.078472,48,C3,96,2
681360,640.56118,113,0.078472,67,G4,96,1
681360,640.56118,113,0.078472,55,G3,96,2
681480,640.644513,113,0.078472,72,C5,96,1
681480,640.644513,113,0.078472,48,C3,96,2
681600,640.727847,113,0.078472,76,E5,96,1
681600,640.727847,113,0.078472,45,A2,96,2
681720,640.81118,113,0.078472,77,F5,96,1
681720,640.81118,113,0.078472,43,G2,96,2
681840,640.894513,113,0.078472,76,E5,96,1
681840,640.894513,113,0.078472,45,A2,96,2
681960,640.977846,113,0.078472,72,C5,96,1
681960,640.977846,113,0.078472,48,C3,96,2
682080,641.06118,113,0.078472,69,A4,96,1
682080,641.06118,113,0.078472,53,F3,96,2
682200,641.144513,113,0.078472,72,C5,96,1
682200,641.144513,113,0.078472,48,C3,96,2
682320,641.227846,113,0.078472,76,E5,96,1
682320,641.227846,113,0.078472,45,A2,96,2
682440,641.311179,113,0.078472,77,F5,96,1
682440,641.311179,113,0.078472,41,F2,96,2
682560,641.394513,113,0.078472,76,E5,96,1
682560,641.394513,113,0.078472,45,A2,96,2
682680,641.477846,113,0.078472,72,C5,96,1
682680,641.477846,113,0.078472,48,C3,96,2
682800,641.561179,113,0.078472,69,A4,96,1
682800,641.561179,113,0.078472,53,F3,96,2
682920,641.644512,113,0.078472,72,C5,96,1
682920,641.644512,113,0.078472,48,C3,96,2
683040,641.727846,113,0.078472,76,E5,96,1
683040,641.727846,113,0.078472,45,A2,96,2
683160,641.811179,113,0.078472,77,F5,96,1
683160,641.811179,113,0.078472,41,F2,96,2
683280,641.894512,113,0.078472,76,E5,96,1
683280,641.894512,113,0.078472,45,A2,96,2
683400,641.977845,113,0.078472,72,C5,96,1
683400,641.977845,113,0.078472,48,C3,96,2
683520,642.061179,113,0.078472,69,A4,96,1
683520,642.061179,113,0.078472,52,E3,96,2
683640,642.144512,113,0.078472,72,C5,96,1
683640,642.144512,113,0.078472,48,C3,96,2
683760,642.227845,113,0.078472,76,E5,96,1
683760,642.227845,113,0.078472,45,A2,96,2
683880,642.311178,113,0.078472,81,A5,96,1
683880,642.311178,113,0.078472,40,E2,96,2
684000,642.394512,113,0.078472,76,E5,96,1
684000,642.394512,113,0.078472,45,A2,96,2
684120,642.477845,113,0.078472,72,C5,96,1
684120,642.477845,113,0.078472,48,C3,96,2
684240,642.561178,113,0.078472,69,A4,96,1
684240,642.561178,113,0.078472,52,E3,96,2
684360,642.644511,113,0.078472,72,C5,96,1
684360,642.644511,113,0.078472,48,C3,96,2
684480,642.727845,113,0.078472,76,E5,96,1
684480,642.727845,113,0.078472,45,A2,96,2
684600,642.811178,113,0.078472,81,A5,96,1
684600,642.811178,113,0.078472,40,E2,96,2
684720,642.894511,113,0.078472,76,E5,96,1
684720,642.894511,113,0.078472,45,A2,96,2
684840,642.977844,113,0.078472,72,C5,96,1
684840,642.977844,113,0.078472,48,C3,96,2
684960,643.061178,113,0.078472,69,A4,96,1
684960,643.061178,113,0.078472,52,E3,96,2
685080,643.144511,113,0.078472,72,C5,96,1
685080,643.144511,113,0.078472,48,C3,96,2
685200,643.227844,113,0.078472,76,E5,96,1
685200,643.227844,113,0.078472,45,A2,96,2
685320,643.311177,113,0.078472,81,A5,96,1
685320,643.311177,113,0.078472,40,E2,96,2
685440,643.394511,113,0.078472,76,E5,96,1
685440,643.394511,113,0.078472,45,A2,96,2
685560,643.477844,113,0.078472,72,C5,96,1
685560,643.477844,113,0.078472,48,C3,96,2
685680,643.561177,113,0.078472,69,A4,96,1
685680,643.561177,113,0.078472,52,E3,96,2
685800,643.64451,113,0.078472,72,C5,96,1
685800,643.64451,113,0.078472,48,C3,96,2
685920,643.727844,113,0.078472,76,E5,96,1
685920,643.727844,113,0.078472,45,A2,96,2
686040,643.811177,113,0.078472,81,A5,96,1
686040,643.811177,113,0.078472,40,E2,96,2
686160,643.89451,113,0.078472,76,E5,96,1
686160,643.89451,113,0.078472,45,A2,96,2
686280,643.977843,113,0.078472,72,C5,96,1
686280,643.977843,113,0.078472,48,C3,96,2
686400,644.061177,113,0.078472,69,A4,96,1
686400,644.061177,113,0.078472,52,E3,96,2
686520,644.14451,113,0.078472,72,C5,96,1
686520,644.14451,113,0.078472,48,C3,96,2
686640,644.227843,113,0.078472,76,E5,96,1
686640,644.227843,113,0.078472,45,A2,96,2
686760,644.311176,113,0.078472,81,A5,96,1
686760,644.311176,113,0.078472,40,E2,96,2
686880,644.39451,113,0.078472,76,E5,96,1
686880,644.39451,113,0.078472,45,A2,96,2
687000,644.477843,113,0.078472,81,A5,96,1
687000,644.477843,113,0.078472,40,E2,96,2
687120,644.561176,113,0.078472,76,E5,96,1
687120,644.561176,113,0.078472,45,A2,96,2
687240,644.644509,113,0.078472,72,C5,96,1
687240,644.644509,113,0.078472,48,C3,96,2
687360,644.727843,113,0.078472,69,A4,96,1
687360,644.727843,113,0.078472,52,E3,96,2
687480,644.811176,113,0.078472,72,C5,96,1
687480,644.811176,113,0.078472,48,C3,96,2
687600,644.894509,113,0.078472,76,E5,96,1
687600,644.894509,113,0.078472,45,A2,96,2
687720,644.977842,113,0.078472,81,A5,96,1
687720,644.977842,113,0.078472,40,E2,96,2
687840,645.061176,113,0.078472,76,E5,96,1
687840,645.061176,113,0.078472,45,A2,96,2
687960,645.144509,113,0.078472,72,C5,96,1
687960,645.144509,113,0.078472,48,C3,96,2
688080,645.227842,113,0.078472,69,A4,96,1
688080,645.227842,113,0.078472,52,E3,96,2
688200,645.311175,113,0.078472,72,C5,96,1
688200,645.311175,113,0.078472,48,C3,96,2
688320,645.394509,113,0.078472,76,E5,96,1
688320,645.394509,113,0.078472,45,A2,96,2
688440,645.477842,113,0.078472,81,A5,96,1
688440,645.477842,113,0.078472,40,E2,96,2
688560,645.561175,113,0.078472,76,E5,96,1
688560,645.561175,113,0.078472,45,A2,96,2
688680,645.644508,113,0.078472,81,A5,96,1
688680,645.644508,113,0.078472,40,E2,96,2
688800,645.727842,113,0.078472,76,E5,96,1
688800,645.727842,113,0.078472,45,A2,96,2
688920,645.811175,113,0.078472,72,C5,96,1
688920,645.811175,113,0.078472,48,C3,96,2
689040,645.894508,113,0.078472,69,A4,96,1
689040,645.894508,113,0.078472,52,E3,96,2
689160,645.977841,113,0.078472,72,C5,96,1
689160,645.977841,113,0.078472,48,C3,96,2
689280,646.061175,113,0.078472,76,E5,96,1
689280,646.061175,113,0.078472,45,A2,96,2
689400,646.144508,113,0.078472,81,A5,96,1
689400,646.144508,113,0.078472,40,E2,96,2
689520,646.227841,113,0.078472,76,E5,96,1
689520,646.227841,113,0.078472,45,A2,96,2
689640,646.311174,113,0.078472,72,C5,96,1
689640,646.311174,113,0.078472,48,C3,96,2
689760,646.394508,113,0.078472,67,G4,96,1
689760,646.394508,113,0.078472,55,G3,96,2
689880,646.477841,113,0.078472,70,A4#,96,1
689880,646.477841,113,0.078472,50,D3,96,2
690000,646.561174,113,0.078472,74,D5,96,1
690000,646.561174,113,0.078472,46,A2#,96,2
690120,646.644507,113,0.078472,77,F5,96,1
690120,646.644507,113,0.078472,43,G2,96,2
690240,646.727841,113,0.078472,74,D5,96,1
690240,646.727841,113,0.078472,46,A2#,96,2
690360,646.811174,113,0.078472,70,A4#,96,1
690360,646.811174,113,0.078472,50,D3,96,2
690480,646.894507,113,0.078472,67,G4,96,1
690480,646.894507,113,0.078472,55,G3,96,2
690600,646.97784,113,0.078472,70,A4#,96,1
690600,646.97784,113,0.078472,50,D3,96,2
690720,647.061174,113,0.078472,74,D5,96,1
690720,647.061174,113,0.078472,46,A2#,96,2
690840,647.144507,113,0.078472,77,F5,96,1
690840,647.144507,113,0.078472,43,G2,96,2
690960,647.22784,113,0.078472,74,D5,96,1
690960,647.22784,113,0.078472,46,A2#,96,2
691080,647.311173,113,0.078472,70,A4#,96,1
691080,647.311173,113,0.078472,50,D3,96,2
691200,647.394507,113,0.078472,67,G4,96,1
691200,647.394507,113,0.078472,55,G3,96,2
691320,647.47784,113,0.078472,70,A4#,96,1
691320,647.47784,113,0.078472,50,D3,96,2
691440,647.561173,113,0.078472,74,D5,96,1
691440,647.561173,113,0.078472,46,A2#,96,2
691560,647.644506,113,0.078472,77,F5,96,1
691560,647.644506,113,0.078472,43,G2,96,2
691680,647.72784,113,0.078472,74,D5,96,1
691680,647.72784,113,0.078472,46,A2#,96,2
691800,647.811173,113,0.078472,70,A4#,96,1
691800,647.811173,113,0.078472,50,D3,96,2
691920,647.894506,113,0.078472,67,G4,96,1
691920,647.894506,113,0.078472,55,G3,96,2
692040,647.977839,113,0.078472,70,A4#,96,1
692040,647.977839,113,0.078472,50,D3,96,2
692160,648.061173,113,0.078472,74,D5,96,1
692160,648.061173,113,0.078472,46,A2#,96,2
692280,648.144506,113,0.078472,77,F5,96,1
692280,648.144506,113,0.078472,43,G2,96,2
692400,648.227839,113,0.078472,74,D5,96,1
692400,648.227839,113,0.078472,46,A2#,96,2
692520,648.311172,113,0.078472,70,A4#,96,1
692520,648.311172,113,0.078472,50,D3,96,2
692640,648.394506,113,0.078472,67,G4,96,1
692640,648.394506,113,0.078472,55,G3,96,2
692760,648.477839,113,0.078472,70,A4#,96,1
692760,648.477839,113,0.078472,50,D3,96,2
692880,648.561172,113,0.078472,74,D5,96,1
692880,648.561172,113,0.078472,46,A2#,96,2
693000,648.644505,113,0.078472,77,F5,96,1
693000,648.644505,113,0.078472,43,G2,96,2
693120,648.727839,113,0.078472,74,D5,96,1
693120,648.727839,113,0.078472,46,A2#,96,2
693240,648.811172,113,0.078472,70,A4#,96,1
693240,648.811172,113,0.078472,50,D3,96,2
693360,648.894505,113,0.078472,67,G4,96,1
693360,648.894505,113,0.078472,55,G3,96,2
693480,648.977838,113,0.078472,70,A4#,96,1
693480,648.977838,113,0.078472,50,D3,96,2
693600,649.061172,113,0.078472,74,D5,96,1
693600,649.061172,113,0.078472,46,A2#,96,2
693720,649.144505,113,0.078472,77,F5,96,1
693720,649.144505,113,0.078472,43,G2,96,2
693840,649.227838,113,0.078472,74,D5,96,1
693840,649.227838,113,0.078472,46,A2#,96,2
693960,649.311171,113,0.078472,70,A4#,96,1
693960,649.311171,113,0.078472,50,D3,96,2
694080,649.394505,113,0.078472,67,G4,96,1
694080,649.394505,113,0.078472,55,G3,96,2
694200,649.477838,113,0.078472,70,A4#,96,1
694200,649.477838,113,0.078472,50,D3,96,2
694320,649.561171,113,0.078472,74,D5,96,1
694320,649.561171,113,0.078472,46,A2#,96,2
694440,649.644504,113,0.078472,77,F5,96,1
694440,649.644504,113,0.078472,43,G2,96,2
694560,649.727838,113,0.078472,74,D5,96,1
694560,649.727838,113,0.078472,46,A2#,96,2
694680,649.811171,113,0.078472,70,A4#,96,1
694680,649.811171,113,0.078472,50,D3,96,2
694800,649.894504,113,0.078472,67,G4,96,1
694800,649.894504,113,0.078472,55,G3,96,2
694920,649.977837,113,0.078472,70,A4#,96,1
694920,649.977837,113,0.078472,50,D3,96,2
695040,650.061171,113,0.078472,74,D5,96,1
695040,650.061171,113,0.078472,46,A2#,96,2
695160,650.144504,113,0.078472,77,F5,96,1
695160,650.144504,113,0.078472,43,G2,96,2
695280,650.227837,113,0.078472,74,D5,96,1
695280,650.227837,113,0.078472,46,A2#,96,2
695400,650.31117,113,0.078472,70,A4#,96,1
695400,650.31117,113,0.078472,50,D3,96,2
695520,650.394504,113,0.078472,69,A4,96,1
695520,650.394504,113,0.078472,53,F3,96,2
695640,650.477837,113,0.078472,72,C5,96,1
695640,650.477837,113,0.078472,48,C3,96,2
695760,650.56117,113,0.078472,76,E5,96,1
695760,650.56117,113,0.078472,45,A2,96,2
695880,650.644503,113,0.078472,77,F5,96,1
695880,650.644503,113,0.078472,41,F2,96,2
696000,650.727837,113,0.078472,76,E5,96,1
696000,650.727837,113,0.078472,45,A2,96,2
696120,650.81117,113,0.078472,72,C5,96,1
696120,650.81117,113,0.078472,48,C3,96,2
696240,650.894503,113,0.078472,69,A4,96,1
696240,650.894503,113,0.078472,53,F3,96,2
696360,650.977836,113,0.078472,72,C5,96,1
696360,650.977836,113,0.078472,48,C3,96,2
696480,651.06117,113,0.078472,76,E5,96,1
696480,651.06117,113,0.078472,45,A2,96,2
696600,651.144503,113,0.078472,77,F5,96,1
696600,651.144503,113,0.078472,41,F2,96,2
696720,651.227836,113,0.078472,76,E5,96,1
696720,651.227836,113,0.078472,45,A2,96,2
696840,651.311169,113,0.078472,72,C5,96,1
696840,651.311169,113,0.078472,48,C3,96,2
696960,651.394503,113,0.078472,69,A4,96,1
696960,651.394503,113,0.078472,53,F3,96,2
697080,651.477836,113,0.078472,72,C5,96,1
697080,651.477836,113,0.078472,48,C3,96,2
697200,651.561169,113,0.078472,76,E5,96,1
697200,651.561169,113,0.078472,45,A2,96,2
697320,651.644502,113,0.078472,77,F5,96,1
697320,651.644502,113,0.078472,41,F2,96,2
697440,651.727836,113,0.078472,76,E5,96,1
697440,651.727836,113,0.078472,45,A2,96,2
697560,651.811169,113,0.078472,72,C5,96,1
697560,651.811169,113,0.078472,48,C3,96,2
697680,651.894502,113,0.078472,69,A4,96,1
697680,651.894502,113,0.078472,53,F3,96,2
697800,651.977835,113,0.078472,72,C5,96,1
697800,651.977835,113,0.078472,48,C3,96,2
697920,652.061169,113,0.078472,76,E5,96,1
697920,652.061169,113,0.078472,45,A2,96,2
698040,652.144502,113,0.078472,77,F5,96,1
698040,652.144502,113,0.078472,41,F2,96,2
698160,652.227835,113,0.078472,76,E5,96,1
698160,652.227835,113,0.078472,45,A2,96,2
698280,652.311168,113,0.078472,72,C5,96,1
698280,652.311168,113,0.078472,48,C3,96,2
698400,652.394502,113,0.078472,69,A4,96,1
698400,652.394502,113,0.078472,53,F3,96,2
698520,652.477835,113,0.078472,72,C5,96,1
698520,652.477835,113,0.078472,48,C3,96,2
698640,652.561168,113,0.078472,76,E5,96,1
698640,652.561168,113,0.078472,45,A2,96,2
698760,652.644501,113,0.078472,77,F5,96,1
698760,652.644501,113,0.078472,41,F2,96,2
698880,652.727835,113,0.078472,76,E5,96,1
698880,652.727835,113,0.078472,45,A2,96,2
699000,652.811168,113,0.078472,77,F5,96,1
699000,652.811168,113,0.078472,41,F2,96,2
699120,652.894501,113,0.078472,76,E5,96,1
699120,652.894501,113,0.078472,45,A2,96,2
699240,652.977834,113,0.078472,72,C5,96,1
699240,652.977834,113,0.078472,48,C3,96,2
699360,653.061168,113,0.078472,69,A4,96,1
699360,653.061168,113,0.078472,53,F3,96,2
699480,653.144501,113,0.078472,72,C5,96,1
699480,653.144501,113,0.078472,48,C3,96,2
699600,653.227834,113,0.078472,76,E5,96,1
699600,653.227834,113,0.078472,45,A2,96,2
699720,653.311167,113,0.078472,77,F5,96,1
699720,653.311167,113,0.078472,41,F2,96,2
699840,653.394501,113,0.078472,76,E5,96,1
699840,653.394501,113,0.078472,45,A2,96,2
699960,653.477834,113,0.078472,72,C5,96,1
699960,653.477834,113,0.078472,48,C3,96,2
700080,653.561167,113,0.078472,69,A4,96,1
700080,653.561167,113,0.078472,53,F3,96,2
700200,653.6445,113,0.078472,72,C5,96,1
700200,653.6445,113,0.078472,48,C3,96,2
700320,653.727834,113,0.078472,76,E5,96,1
700320,653.727834,113,0.078472,45,A2,96,2
700440,653.811167,113,0.078472,77,F5,96,1
700440,653.811167,113,0.078472,41,F2,96,2
700560,653.8945,113,0.078472,76,E5,96,1
700560,653.8945,113,0.078472,45,A2,96,2
700680,653.977833,113,0.078472,77,F5,96,1
700680,653.977833,113,0.078472,41,F2,96,2
700800,654.061167,113,0.078472,76,E5,96,1
700800,654.061167,113,0.078472,45,A2,96,2
700920,654.1445,113,0.078472,72,C5,96,1
700920,654.1445,113,0.078472,48,C3,96,2
701040,654.227833,113,0.078472,69,A4,96,1
701040,654.227833,113,0.078472,53,F3,96,2
701160,654.311166,113,0.078472,72,C5,96,1
701160,654.311166,113,0.078472,48,C3,96,2
701280,654.3945,113,0.078472,76,E5,96,1
701280,654.3945,113,0.078472,45,A2,96,2
701400,654.477833,113,0.078472,77,F5,96,1
701400,654.477833,113,0.078472,41,F2,96,2
701520,654.561166,113,0.078472,76,E5,96,1
701520,654.561166,113,0.078472,45,A2,96,2
701640,654.644499,113,0.078472,72,C5,96,1
701640,654.644499,113,0.078472,48,C3,96,2
701760,654.727833,113,0.078472,67,G4,96,1
701760,654.727833,113,0.078472,55,G3,96,2
701880,654.811166,113,0.078472,70,A4#,96,1
701880,654.811166,113,0.078472,50,D3,96,2
702000,654.894499,113,0.078472,74,D5,96,1
702000,654.894499,113,0.078472,46,A2#,96,2
702120,654.977832,113,0.078472,77,F5,96,1
702120,654.977832,113,0.078472,43,G2,96,2
702240,655.061166,113,0.078472,74,D5,96,1
702240,655.061166,113,0.078472,46,A2#,96,2
702360,655.144499,113,0.078472,70,A4#,96,1
702360,655.144499,113,0.078472,50,D3,96,2
702480,655.227832,113,0.078472,67,G4,96,1
702480,655.227832,113,0.078472,55,G3,96,2
702600,655.311165,113,0.078472,70,A4#,96,1
702600,655.311165,113,0.078472,50,D3,96,2
702720,655.394499,113,0.078472,74,D5,96,1
702720,655.394499,113,0.078472,46,A2#,96,2
702840,655.477832,113,0.078472,77,F5,96,1
702840,655.477832,113,0.078472,43,G2,96,2
702960,655.561165,113,0.078472,74,D5,96,1
702960,655.561165,113,0.078472,46,A2#,96,2
703080,655.644498,113,0.078472,70,A4#,96,1
703080,655.644498,113,0.078472,50,D3,96,2
703200,655.727832,113,0.078472,67,G4,96,1
703200,655.727832,113,0.078472,55,G3,96,2
703320,655.811165,113,0.078472,70,A4#,96,1
703320,655.811165,113,0.078472,50,D3,96,2
703440,655.894498,113,0.078472,74,D5,96,1
703440,655.894498,113,0.078472,46,A2#,96,2
703560,655.977831,113,0.078472,77,F5,96,1
703560,655.977831,113,0.078472,43,G2,96,2
703680,656.061165,113,0.078472,74,D5,96,1
703680,656.061165,113,0.078472,46,A2#,96,2
703800,656.144498,113,0.078472,70,A4#,96,1
703800,656.144498,113,0.078472,50,D3,96,2
703920,656.227831,113,0.078472,67,G4,96,1
703920,656.227831,113,0.078472,55,G3,96,2
704040,656.311164,113,0.078472,70,A4#,96,1
704040,656.311164,113,0.078472,50,D3,96,2
704160,656.394498,113,0.078472,74,D5,96,1
704160,656.394498,113,0.078472,46,A2#,96,2
704280,656.477831,113,0.078472,77,F5,96,1
704280,656.477831,113,0.078472,43,G2,96,2
704400,656.561164,113,0.078472,74,D5,96,1
704400,656.561164,113,0.078472,46,A2#,96,2
704520,656.644497,113,0.078472,70,A4#,96,1
704520,656.644497,113,0.078472,50,D3,96,2
704640,656.727831,113,0.078472,67,G4,96,1
704640,656.727831,113,0.078472,55,G3,96,2
704760,656.811164,113,0.078472,70,A4#,96,1
704760,656.811164,113,0.078472,50,D3,96,2
704880,656.894497,113,0.078472,74,D5,96,1
704880,656.894497,113,0.078472,46,A2#,96,2
705000,656.97783,113,0.078472,77,F5,96,1
705000,656.97783,113,0.078472,43,G2,96,2
705120,657.061164,113,0.078472,74,D5,96,1
705120,657.061164,113,0.078472,46,A2#,96,2
705240,657.144497,113,0.078472,70,A4#,96,1
705240,657.144497,113,0.078472,50,D3,96,2
705360,657.22783,113,0.078472,67,G4,96,1
705360,657.22783,113,0.078472,55,G3,96,2
705480,657.311163,113,0.078472,70,A4#,96,1
705480,657.311163,113,0.078472,50,D3,96,2
705600,657.394497,113,0.078472,74,D5,96,1
705600,657.394497,113,0.078472,46,A2#,96,2
705720,657.47783,113,0.078472,77,F5,96,1
705720,657.47783,113,0.078472,43,G2,96,2
705840,657.561163,113,0.078472,74,D5,96,1
705840,657.561163,113,0.078472,46,A2#,96,2
705960,657.644496,113,0.078472,70,A4#,96,1
705960,657.644496,113,0.078472,50,D3,96,2
706080,657.72783,113,0.078472,67,G4,96,1
706080,657.72783,113,0.078472,55,G3,96,2
706200,657.811163,113,0.078472,70,A4#,96,1
706200,657.811163,113,0.078472,50,D3,96,2
706320,657.894496,113,0.078472,74,D5,96,1
706320,657.894496,113,0.078472,46,A2#,96,2
706440,657.977829,113,0.078472,77,F5,96,1
706440,657.977829,113,0.078472,43,G2,96,2
706560,658.061163,113,0.078472,74,D5,96,1
706560,658.061163,113,0.078472,46,A2#,96,2
706680,658.144496,113,0.078472,70,A4#,96,1
706680,658.144496,113,0.078472,50,D3,96,2
706800,658.227829,113,0.078472,67,G4,96,1
706800,658.227829,113,0.078472,55,G3,96,2
706920,658.311162,113,0.078472,70,A4#,96,1
706920,658.311162,113,0.078472,50,D3,96,2
707040,658.394496,113,0.078472,74,D5,96,1
707040,658.394496,113,0.078472,46,A2#,96,2
707160,658.477829,113,0.078472,77,F5,96,1
707160,658.477829,113,0.078472,43,G2,96,2
707280,658.561162,113,0.078472,74,D5,96,1
707280,658.561162,113,0.078472,46,A2#,96,2
707400,658.644495,113,0.078472,70,A4#,96,1
707400,658.644495,113,0.078472,50,D3,96,2
707520,658.727829,113,0.078472,69,A4,96,1
707520,658.727829,113,0.078472,53,F3,96,2
707640,658.811162,113,0.078472,72,C5,96,1
707640,658.811162,113,0.078472,48,C3,96,2
707760,658.894495,113,0.078472,76,E5,96,1
707760,658.894495,113,0.078472,45,A2,96,2
707880,658.977828,113,0.078472,77,F5,96,1
707880,658.977828,113,0.078472,41,F2,96,2
708000,659.061162,113,0.078472,76,E5,96,1
708000,659.061162,113,0.078472,45,A2,96,2
708120,659.144495,113,0.078472,72,C5,96,1
708120,659.144495,113,0.078472,48,C3,96,2
708240,659.227828,113,0.078472,69,A4,96,1
708240,659.227828,113,0.078472,53,F3,96,2
708360,659.311161,113,0.078472,72,C5,96,1
708360,659.311161,113,0.078472,48,C3,96,2
708480,659.394495,113,0.078472,76,E5,96,1
708480,659.394495,113,0.078472,45,A2,96,2
708600,659.477828,113,0.078472,77,F5,96,1
708600,659.477828,113,0.078472,41,F2,96,2
708720,659.561161,113,0.078472,76,E5,96,1
708720,659.561161,113,0.078472,45,A2,96,2
708840,659.644494,113,0.078472,72,C5,96,1
708840,659.644494,113,0.078472,48,C3,96,2
708960,659.727828,113,0.078472,69,A4,96,1
708960,659.727828,113,0.078472,53,F3,96,2
709080,659.811161,113,0.078472,72,C5,96,1
709080,659.811161,113,0.078472,48,C3,96,2
709200,659.894494,113,0.078472,76,E5,96,1
709200,659.894494,113,0.078472,45,A2,96,2
709320,659.977827,113,0.078472,77,F5,96,1
709320,659.977827,113,0.078472,41,F2,96,2
709440,660.061161,113,0.078472,76,E5,96,1
709440,660.061161,113,0.078472,45,A2,96,2
709560,660.144494,113,0.078472,72,C5,96,1
709560,660.144494,113,0.078472,48,C3,96,2
709680,660.227827,113,0.078472,69,A4,96,1
709680,660.227827,113,0.078472,53,F3,96,2
709800,660.31116,113,0.078472,72,C5,96,1
709800,660.31116,113,0.078472,48,C3,96,2
709920,660.394494,113,0.078472,76,E5,96,1
709920,660.394494,113,0.078472,45,A2,96,2
710040,660.477827,113,0.078472,77,F5,96,1
710040,660.477827,113,0.078472,41,F2,96,2
710160,660.56116,113,0.078472,76,E5,96,1
710160,660.56116,113,0.078472,45,A2,96,2
710280,660.644493,113,0.078472,72,C5,96,1
710280,660.644493,113,0.078472,48,C3,96,2
710400,660.727827,113,0.078472,69,A4,96,1
710400,660.727827,113,0.078472,53,F3,96,2
710520,660.81116,113,0.078472,72,C5,96,1
710520,660.81116,113,0.078472,48,C3,96,2
710640,660.894493,113,0.078472,76,E5,96,1
710640,660.894493,113,0.078472,45,A2,96,2
710760,660.977826,113,0.078472,77,F5,96,1
710760,660.977826,113,0.078472,41,F2,96,2
710880,661.06116,113,0.078472,76,E5,96,1
710880,661.06116,113,0.078472,45,A2,96,2
711000,661.144493,113,0.078472,77,F5,96,1
711000,661.144493,113,0.078472,41,F2,96,2
711120,661.227826,113,0.078472,76,E5,96,1
711120,661.227826,113,0.078472,45,A2,96,2
711240,661.311159,113,0.078472,72,C5,96,1
711240,661.311159,113,0.078472,48,C3,96,2
711360,661.394493,113,0.078472,69,A4,96,1
711360,661.394493,113,0.078472,53,F3,96,2
711480,661.477826,113,0.078472,72,C5,96,1
711480,661.477826,113,0.078472,48,C3,96,2
711600,661.561159,113,0.078472,76,E5,96,1
711600,661.561159,113,0.078472,45,A2,96,2
711720,661.644492,113,0.078472,77,F5,96,1
711720,661.644492,113,0.078472,41,F2,96,2
711840,661.727826,113,0.078472,76,E5,96,1
711840,661.727826,113,0.078472,45,A2,96,2
711960,661.811159,113,0.078472,72,C5,96,1
711960,661.811159,113,0.078472,48,C3,96,2
712080,661.894492,113,0.078472,69,A4,96,1
712080,661.894492,113,0.078472,53,F3,96,2
712200,661.977825,113,0.078472,72,C5,96,1
712200,661.977825,113,0.078472,48,C3,96,2
712320,662.061159,113,0.078472,76,E5,96,1
712320,662.061159,113,0.078472,45,A2,96,2
712440,662.144492,113,0.078472,77,F5,96,1
712440,662.144492,113,0.078472,41,F2,96,2
712560,662.227825,113,0.078472,76,E5,96,1
712560,662.227825,113,0.078472,45,A2,96,2
712680,662.311158,113,0.078472,77,F5,96,1
712680,662.311158,113,0.078472,41,F2,96,2
712800,662.394492,113,0.078472,76,E5,96,1
712800,662.394492,113,0.078472,45,A2,96,2
712920,662.477825,113,0.078472,72,C5,96,1
712920,662.477825,113,0.078472,48,C3,96,2
713040,662.561158,113,0.078472,69,A4,96,1
713040,662.561158,113,0.078472,53,F3,96,2
713160,662.644491,113,0.078472,72,C5,96,1
713160,662.644491,113,0.078472,48,C3,96,2
713280,662.727825,113,0.078472,76,E5,96,1
713280,662.727825,113,0.078472,45,A2,96,2
713400,662.811158,113,0.078472,77,F5,96,1
713400,662.811158,113,0.078472,41,F2,96,2
713520,662.894491,113,0.078472,76,E5,96,1
713520,662.894491,113,0.078472,45,A2,96,2
713640,662.977824,113,0.078472,72,C5,96,1
713640,662.977824,113,0.078472,48,C3,96,2
713760,663.061158,113,0.078472,67,G4,96,1
713760,663.061158,113,0.078472,55,G3,96,2
713880,663.144491,113,0.078472,70,A4#,96,1
713880,663.144491,113,0.078472,50,D3,96,2
714000,663.227824,113,0.078472,74,D5,96,1
714000,663.227824,113,0.078472,46,A2#,96,2
714120,663.311157,113,0.078472,77,F5,96,1
714120,663.311157,113,0.078472,43,G2,96,2
714240,663.394491,113,0.078472,74,D5,96,1
714240,663.394491,113,0.078472,46,A2#,96,2
714360,663.477824,113,0.078472,70,A4#,96,1
714360,663.477824,113,0.078472,50,D3,96,2
714480,663.561157,113,0.078472,67,G4,96,1
714480,663.561157,113,0.078472,55,G3,96,2
714600,663.64449,113,0.078472,70,A4#,96,1
714600,663.64449,113,0.078472,50,D3,96,2
714720,663.727824,113,0.078472,74,D5,96,1
714720,663.727824,113,0.078472,46,A2#,96,2
714840,663.811157,113,0.078472,77,F5,96,1
714840,663.811157,113,0.078472,43,G2,96,2
714960,663.89449,113,0.078472,74,D5,96,1
714960,663.89449,113,0.078472,46,A2#,96,2
715080,663.977823,113,0.078472,70,A4#,96,1
715080,663.977823,113,0.078472,50,D3,96,2
715200,664.061157,113,0.078472,67,G4,96,1
715200,664.061157,113,0.078472,55,G3,96,2
715320,664.14449,113,0.078472,70,A4#,96,1
715320,664.14449,113,0.078472,50,D3,96,2
715440,664.227823,113,0.078472,74,D5,96,1
715440,664.227823,113,0.078472,46,A2#,96,2
715560,664.311156,113,0.078472,77,F5,96,1
715560,664.311156,113,0.078472,43,G2,96,2
715680,664.39449,113,0.078472,74,D5,96,1
715680,664.39449,113,0.078472,46,A2#,96,2
715800,664.477823,113,0.078472,70,A4#,96,1
715800,664.477823,113,0.078472,50,D3,96,2
715920,664.561156,113,0.078472,67,G4,96,1
715920,664.561156,113,0.078472,55,G3,96,2
716040,664.644489,113,0.078472,70,A4#,96,1
716040,664.644489,113,0.078472,50,D3,96,2
716160,664.727823,113,0.078472,74,D5,96,1
716160,664.727823,113,0.078472,46,A2#,96,2
716280,664.811156,113,0.078472,77,F5,96,1
716280,664.811156,113,0.078472,43,G2,96,2
716400,664.894489,113,0.078472,74,D5,96,1
716400,664.894489,113,0.078472,46,A2#,96,2
716520,664.977822,113,0.078472,70,A4#,96,1
716520,664.977822,113,0.078472,50,D3,96,2
716640,665.061156,113,0.078472,67,G4,96,1
716640,665.061156,113,0.078472,55,G3,96,2
716760,665.144489,113,0.078472,70,A4#,96,1
716760,665.144489,113,0.078472,49,C3#,96,2
716880,665.227822,113,0.078472,73,C5#,96,1
716880,665.227822,113,0.078472,46,A2#,96,2
717000,665.311155,113,0.078472,77,F5,96,1
717000,665.311155,113,0.078472,43,G2,96,2
717120,665.394489,113,0.078472,73,C5#,96,1
717120,665.394489,113,0.078472,46,A2#,96,2
717240,665.477822,113,0.078472,70,A4#,96,1
717240,665.477822,113,0.078472,49,C3#,96,2
717360,665.561155,113,0.078472,67,G4,96,1
717360,665.561155,113,0.078472,55,G3,96,2
717480,665.644488,113,0.078472,70,A4#,96,1
717480,665.644488,113,0.078472,49,C3#,96,2
717600,665.727822,113,0.078472,73,C5#,96,1
717600,665.727822,113,0.078472,46,A2#,96,2
717720,665.811155,113,0.078472,77,F5,96,1
717720,665.811155,113,0.078472,43,G2,96,2
717840,665.894488,113,0.078472,73,C5#,96,1
717840,665.894488,113,0.078472,46,A2#,96,2
717960,665.977821,113,0.078472,70,A4#,96,1
717960,665.977821,113,0.078472,49,C3#,96,2
718080,666.061155,113,0.078472,67,G4,96,1
718080,666.061155,113,0.078472,55,G3,96,2
718200,666.144488,113,0.078472,70,A4#,96,1
718200,666.144488,113,0.078472,49,C3#,96,2
718320,666.227821,113,0.078472,73,C5#,96,1
718320,666.227821,113,0.078472,46,A2#,96,2
718440,666.311154,113,0.078472,77,F5,96,1
718440,666.311154,113,0.078472,43,G2,96,2
718560,666.394488,113,0.078472,73,C5#,96,1
718560,666.394488,113,0.078472,46,A2#,96,2
718680,666.477821,113,0.078472,70,A4#,96,1
718680,666.477821,113,0.078472,49,C3#,96,2
718800,666.561154,113,0.078472,67,G4,96,1
718800,666.561154,113,0.078472,55,G3,96,2
718920,666.644487,113,0.078472,70,A4#,96,1
718920,666.644487,113,0.078472,49,C3#,96,2
719040,666.727821,113,0.078472,73,C5#,96,1
719040,666.727821,113,0.078472,46,A2#,96,2
719160,666.811154,113,0.078472,77,F5,96,1
719160,666.811154,113,0.078472,43,G2,96,2
719280,666.894487,113,0.078472,73,C5#,96,1
719280,666.894487,113,0.078472,46,A2#,96,2
719400,666.97782,113,0.078472,70,A4#,96,1
719400,666.97782,113,0.078472,49,C3#,96,2
719520,667.061154,113,0.078472,69,A4,96,1
719520,667.061154,113,0.078472,53,F3,96,2
719640,667.144487,113,0.078472,72,C5,96,1
719640,667.144487,113,0.078472,48,C3,96,2
719760,667.22782,113,0.078472,76,E5,96,1
719760,667.22782,113,0.078472,45,A2,96,2
719880,667.311153,113,0.078472,77,F5,96,1
719880,667.311153,113,0.078472,41,F2,96,2
720000,667.394487,113,0.078472,76,E5,96,1
720000,667.394487,113,0.078472,45,A2,96,2
720120,667.47782,113,0.078472,72,C5,96,1
720120,667.47782,113,0.078472,48,C3,96,2
720240,667.561153,113,0.078472,69,A4,96,1
720240,667.561153,113,0.078472,53,F3,96,2
720360,667.644486,113,0.078472,72,C5,96,1
720360,667.644486,113,0.078472,48,C3,96,2
720480,667.72782,113,0.078472,76,E5,96,1
720480,667.72782,113,0.078472,45,A2,96,2
720600,667.811153,113,0.078472,77,F5,96,1
720600,667.811153,113,0.078472,41,F2,96,2
720720,667.894486,113,0.078472,76,E5,96,1
720720,667.894486,113,0.078472,45,A2,96,2
720840,667.977819,113,0.078472,72,C5,96,1
720840,667.977819,113,0.078472,48,C3,96,2
720960,668.061153,113,0.078472,69,A4,96,1
720960,668.061153,113,0.078472,53,F3,96,2
721080,668.144486,113,0.078472,72,C5,96,1
721080,668.144486,113,0.078472,48,C3,96,2
721200,668.227819,113,0.078472,76,E5,96,1
721200,668.227819,113,0.078472,45,A2,96,2
721320,668.311152,113,0.078472,77,F5,96,1
721320,668.311152,113,0.078472,41,F2,96,2
721440,668.394486,113,0.078472,76,E5,96,1
721440,668.394486,113,0.078472,45,A2,96,2
721560,668.477819,113,0.078472,72,C5,96,1
721560,668.477819,113,0.078472,48,C3,96,2
721680,668.561152,113,0.078472,69,A4,96,1
721680,668.561152,113,0.078472,53,F3,96,2
721800,668.644485,113,0.078472,72,C5,96,1
721800,668.644485,113,0.078472,48,C3,96,2
721920,668.727819,113,0.078472,76,E5,96,1
721920,668.727819,113,0.078472,45,A2,96,2
722040,668.811152,113,0.078472,77,F5,96,1
722040,668.811152,113,0.078472,41,F2,96,2
722160,668.894485,113,0.078472,76,E5,96,1
722160,668.894485,113,0.078472,45,A2,96,2
722280,668.977818,113,0.078472,72,C5,96,1
722280,668.977818,113,0.078472,48,C3,96,2
722400,669.061152,113,0.078472,69,A4,96,1
722400,669.061152,113,0.078472,53,F3,96,2
722520,669.144485,113,0.078472,72,C5,96,1
722520,669.144485,113,0.078472,48,C3,96,2
722640,669.227818,113,0.078472,76,E5,96,1
722640,669.227818,113,0.078472,45,A2,96,2
722760,669.311151,113,0.078472,77,F5,96,1
722760,669.311151,113,0.078472,41,F2,96,2
722880,669.394485,113,0.078472,76,E5,96,1
722880,669.394485,113,0.078472,45,A2,96,2
723000,669.477818,113,0.078472,77,F5,96,1
723000,669.477818,113,0.078472,41,F2,96,2
723120,669.561151,113,0.078472,76,E5,96,1
723120,669.561151,113,0.078472,45,A2,96,2
723240,669.644484,113,0.078472,72,C5,96,1
723240,669.644484,113,0.078472,48,C3,96,2
723360,669.727818,113,0.078472,69,A4,96,1
723360,669.727818,113,0.078472,53,F3,96,2
723480,669.811151,113,0.078472,72,C5,96,1
723480,669.811151,113,0.078472,48,C3,96,2
723600,669.894484,113,0.078472,76,E5,96,1
723600,669.894484,113,0.078472,45,A2,96,2
723720,669.977817,113,0.078472,77,F5,96,1
723720,669.977817,113,0.078472,41,F2,96,2
723840,670.061151,113,0.078472,76,E5,96,1
723840,670.061151,113,0.078472,45,A2,96,2
723960,670.144484,113,0.078472,72,C5,96,1
723960,670.144484,113,0.078472,48,C3,96,2
724080,670.227817,113,0.078472,69,A4,96,1
724080,670.227817,113,0.078472,53,F3,96,2
724200,670.31115,113,0.078472,72,C5,96,1
724200,670.31115,113,0.078472,48,C3,96,2
724320,670.394484,113,0.078472,76,E5,96,1
724320,670.394484,113,0.078472,45,A2,96,2
724440,670.477817,113,0.078472,77,F5,96,1
724440,670.477817,113,0.078472,41,F2,96,2
724560,670.56115,113,0.078472,76,E5,96,1
724560,670.56115,113,0.078472,45,A2,96,2
724680,670.644483,113,0.078472,77,F5,96,1
724680,670.644483,113,0.078472,41,F2,96,2
724800,670.727817,113,0.078472,76,E5,96,1
724800,670.727817,113,0.078472,45,A2,96,2
724920,670.81115,113,0.078472,72,C5,96,1
724920,670.81115,113,0.078472,48,C3,96,2
725040,670.894483,113,0.078472,69,A4,96,1
725040,670.894483,113,0.078472,53,F3,96,2
725160,670.977816,113,0.078472,72,C5,96,1
725160,670.977816,113,0.078472,48,C3,96,2
725280,671.06115,113,0.078472,76,E5,96,1
725280,671.06115,113,0.078472,45,A2,96,2
725400,671.144483,113,0.078472,77,F5,96,1
725400,671.144483,113,0.078472,41,F2,96,2
725520,671.227816,113,0.078472,76,E5,96,1
725520,671.227816,113,0.078472,45,A2,96,2
725640,671.311149,113,2.825,72,C5,96,1
725640,671.311149,113,2.825,48,C3,96,2
725760,674.311149,239,0.248958,57,A3,49,2
725760,674.311149,3839,3.998958,53,F3,49,2
726000,674.561149,239,0.248958,60,C4,49,2
726240,674.811149,239,0.248958,57,A3,49,2
726480,675.061149,239,0.248958,60,C4,49,2
726720,675.311149,239,0.248958,57,A3,49,2
726960,675.561149,239,0.248958,60,C4,49,2
727200,675.811149,239,0.248958,57,A3,49,2
727440,676.061149,227,0.236458,60,C4,49,2
727680,676.311149,239,0.248958,57,A3,49,2
727920,676.561149,239,0.248958,60,C4,49,2
728160,676.811149,239,0.248958,57,A3,49,2
728400,677.061149,239,0.248958,60,C4,49,2
728640,677.311149,239,0.248958,57,A3,49,2
728880,677.561149,239,0.248958,60,C4,49,2
729120,677.811149,239,0.248958,57,A3,49,2
729360,678.061149,227,0.236458,60,C4,49,2
729600,678.311149,3647,3.798958,36,C2,49,1
729600,678.311149,239,0.248958,57,A3,49,2
729600,678.311149,3839,3.998958,52,E3,49,2
729840,678.561149,239,0.248958,60,C4,49,2
730080,678.811149,239,0.248958,57,A3,49,2
730320,679.061149,239,0.248958,60,C4,49,2
730560,679.311149,239,0.248958,57,A3,49,2
730800,679.561149,239,0.248958,60,C4,49,2
731040,679.811149,239,0.248958,57,A3,49,2
731280,680.061149,227,0.236458,60,C4,49,2
731520,680.311149,239,0.248958,57,A3,49,2
731760,680.561149,239,0.248958,60,C4,49,2
732000,680.811149,239,0.248958,57,A3,49,2
732240,681.061149,239,0.248958,60,C4,49,2
732480,681.311149,239,0.248958,57,A3,49,2
732720,681.561149,239,0.248958,60,C4,49,2
732960,681.811149,239,0.248958,57,A3,49,2
733200,682.061149,227,0.236458,60,C4,49,2
733440,682.311149,2735,2.848958,69,A4,64,1
733440,682.311149,2735,2.848958,81,A5,64,1
733440,682.311149,239,0.248958,57,A3,64,2
733440,682.311149,3839,3.998958,53,F3,64,2
733680,682.561149,239,0.248958,60,C4,64,2
733920,682.811149,239,0.248958,57,A3,64,2
734160,683.061149,239,0.248958,60,C4,64,2
734400,683.311149,239,0.248958,57,A3,64,2
734640,683.561149,239,0.248958,60,C4,64,2
734880,683.811149,239,0.248958,57,A3,64,2
735120,684.061149,227,0.236458,60,C4,64,2
735360,684.311149,239,0.248958,57,A3,64,2
735600,684.561149,239,0.248958,60,C4,64,2
735840,684.811149,239,0.248958,57,A3,64,2
736080,685.061149,239,0.248958,60,C4,64,2
736320,685.311149,911,0.948958,72,C5,64,1
736320,685.311149,911,0.948958,84,C6,64,1
736320,685.311149,239,0.248958,57,A3,64,2
736560,685.561149,239,0.248958,60,C4,64,2
736800,685.811149,239,0.248958,57,A3,64,2
737040,686.061149,227,0.236458,60,C4,64,2
737280,686.311149,2735,2.848958,76,E5,64,1
737280,686.311149,2735,2.848958,88,E6,64,1
737280,686.311149,239,0.248958,57,A3,64,2
737280,686.311149,3839,3.998958,52,E3,64,2
737520,686.561149,239,0.248958,60,C4,64,2
737760,686.811149,239,0.248958,57,A3,64,2
738000,687.061149,239,0.248958,60,C4,64,2
738240,687.311149,239,0.248958,57,A3,64,2
738480,687.561149,239,0.248958,60,C4,64,2
738720,687.811149,239,0.248958,57,A3,64,2
738960,688.061149,227,0.236458,60,C4,64,2
739200,688.311149,239,0.248958,57,A3,64,2
739440,688.561149,239,0.248958,60,C4,64,2
739680,688.811149,239,0.248958,57,A3,64,2
739920,689.061149,239,0.248958,60,C4,64,2
740160,689.311149,239,0.248958,57,A3,64,2
740400,689.561149,239,0.248958,60,C4,64,2
740640,689.811149,239,0.248958,57,A3,64,2
740880,690.061149,227,0.236458,60,C4,64,2
741120,690.311149,2735,2.848958,69,A4,64,1
741120,690.311149,2735,2.848958,81,A5,64,1
741120,690.311149,239,0.248958,57,A3,64,2
741120,690.311149,3839,3.998958,53,F3,64,2
741360,690.561149,239,0.248958,60,C4,64,2
741600,690.811149,239,0.248958,57,A3,64,2
741840,691.061149,239,0.248958,60,C4,64,2
742080,691.311149,239,0.248958,57,A3,64,2
742320,691.561149,239,0.248958,60,C4,64,2
742560,691.811149,239,0.248958,57,A3,64,2
742800,692.061149,227,0.236458,60,C4,64,2
743040,692.311149,239,0.248958,57,A3,64,2
743280,692.561149,239,0.248958,60,C4,64,2
743520,692.811149,239,0.248958,57,A3,64,2
743760,693.061149,239,0.248958,60,C4,64,2
744000,693.311149,911,0.948958,72,C5,64,1
744000,693.311149,911,0.948958,84,C6,64,1
744000,693.311149,239,0.248958,57,A3,64,2
744240,693.561149,239,0.248958,60,C4,64,2
744480,693.811149,239,0.248958,57,A3,64,2
744720,694.061149,227,0.236458,60,C4,64,2
744960,694.311149,2735,2.848958,76,E5,64,1
744960,694.311149,2735,2.848958,88,E6,64,1
744960,694.311149,239,0.248958,57,A3,64,2
744960,694.311149,3839,3.998958,52,E3,64,2
745200,694.561149,239,0.248958,60,C4,64,2
745440,694.811149,239,0.248958,57,A3,64,2
745680,695.061149,239,0.248958,60,C4,64,2
745920,695.311149,239,0.248958,57,A3,64,2
746160,695.561149,239,0.248958,60,C4,64,2
746400,695.811149,239,0.248958,57,A3,64,2
746640,696.061149,227,0.236458,60,C4,64,2
746880,696.311149,239,0.248958,57,A3,64,2
747120,696.561149,239,0.248958,60,C4,64,2
747360,696.811149,239,0.248958,57,A3,64,2
747600,697.061149,239,0.248958,60,C4,64,2
747840,697.311149,239,0.248958,57,A3,64,2
748080,697.561149,239,0.248958,60,C4,64,2
748320,697.811149,239,0.248958,57,A3,64,2
748560,698.061149,227,0.236458,60,C4,64,2
748800,698.311149,2735,2.848958,69,A4,64,1
748800,698.311149,2735,2.848958,81,A5,64,1
748800,698.311149,239,0.248958,57,A3,64,2
748800,698.311149,1919,1.998958,53,F3,64,2
749040,698.561149,239,0.248958,60,C4,64,2
749280,698.811149,239,0.248958,57,A3,64,2
749520,699.061149,239,0.248958,60,C4,64,2
749760,699.311149,239,0.248958,57,A3,64,2
750000,699.561149,239,0.248958,60,C4,64,2
750240,699.811149,239,0.248958,57,A3,64,2
750480,700.061149,227,0.236458,60,C4,64,2
750720,700.311149,239,0.248958,57,A3,64,2
750720,700.311149,479,0.498958,55,G3,64,2
750960,700.561149,239,0.248958,60,C4,64,2
751200,700.811149,239,0.248958,57,A3,64,2
751200,700.811149,479,0.498958,55,G3,64,2
751440,701.061149,239,0.248958,60,C4,64,2
751680,701.311149,911,0.948958,72,C5,64,1
751680,701.311149,911,0.948958,84,C6,64,1
751680,701.311149,239,0.248958,57,A3,64,2
751680,701.311149,479,0.498958,53,F3,64,2
751920,701.561149,239,0.248958,60,C4,64,2
752160,701.811149,239,0.248958,57,A3,64,2
752160,701.811149,479,0.498958,53,F3,64,2
752400,702.061149,227,0.236458,60,C4,64,2
752640,702.311149,2735,2.848958,76,E5,64,1
752640,702.311149,2735,2.848958,88,E6,64,1
752640,702.311149,239,0.248958,57,A3,64,2
752640,702.311149,3839,3.998958,52,E3,64,2
752880,702.561149,239,0.248958,60,C4,64,2
753120,702.811149,239,0.248958,57,A3,64,2
753360,703.061149,239,0.248958,60,C4,64,2
753600,703.311149,239,0.248958,57,A3,64,2
753840,703.561149,239,0.248958,60,C4,64,2
754080,703.811149,239,0.248958,57,A3,64,2
754320,704.061149,227,0.236458,60,C4,64,2
754560,704.311149,239,0.248958,57,A3,64,2
754800,704.561149,239,0.248958,60,C4,64,2
755040,704.811149,239,0.248958,57,A3,64,2
755280,705.061149,239,0.248958,60,C4,64,2
755520,705.311149,239,0.248958,57,A3,64,2
755760,705.561149,239,0.248958,60,C4,64,2
756000,705.811149,239,0.248958,57,A3,64,2
756240,706.061149,227,0.236458,60,C4,64,2
756480,706.311149,2735,2.848958,69,A4,64,1
756480,706.311149,2735,2.848958,81,A5,64,1
756480,706.311149,227,0.236458,57,A3,64,2
756480,706.311149,1823,1.898958,53,F3,64,2
756720,706.561149,227,0.236458,60,C4,64,2
756960,706.811149,227,0.236458,57,A3,64,2
757200,707.061149,227,0.236458,60,C4,64,2
757440,707.311149,227,0.236458,57,A3,64,2
757680,707.561149,227,0.236458,60,C4,64,2
757920,707.811149,227,0.236458,57,A3,64,2
758160,708.061149,227,0.236458,60,C4,64,2
758400,708.311149,227,0.236458,57,A3,64,2
758400,708.311149,455,0.473958,55,G3,64,2
758640,708.561149,227,0.236458,60,C4,64,2
758880,708.811149,227,0.236458,57,A3,64,2
758880,708.811149,455,0.473958,55,G3,64,2
759120,709.061149,227,0.236458,60,C4,64,2
759360,709.311149,911,0.948958,72,C5,64,1
759360,709.311149,911,0.948958,84,C6,64,1
759360,709.311149,227,0.236458,57,A3,64,2
759360,709.311149,455,0.473958,53,F3,64,2
759600,709.561149,227,0.236458,60,C4,64,2
759840,709.811149,227,0.236458,57,A3,64,2
759840,709.811149,455,0.473958,53,F3,64,2
760080,710.061149,227,0.236458,60,C4,64,2
760320,710.311149,2735,2.848958,76,E5,64,1
760320,710.311149,2735,2.848958,88,E6,64,1
760320,710.311149,227,0.236458,57,A3,64,2
760320,710.311149,3647,3.798958,52,E3,64,2
760560,710.561149,227,0.236458,60,C4,64,2
760800,710.811149,227,0.236458,57,A3,64,2
761040,711.061149,227,0.236458,60,C4,64,2
761280,711.311149,227,0.236458,57,A3,64,2
761520,711.561149,227,0.236458,60,C4,64,2
761760,711.811149,227,0.236458,57,A3,64,2
762000,712.061149,227,0.236458,60,C4,64,2
762240,712.311149,227,0.236458,57,A3,64,2
762480,712.561149,227,0.236458,60,C4,64,2
762720,712.811149,227,0.236458,57,A3,64,2
762960,713.061149,227,0.236458,60,C4,64,2
763200,713.311149,227,0.236458,57,A3,64,2
763440,713.561149,227,0.236458,60,C4,64,2
763680,713.811149,227,0.236458,57,A3,64,2
763920,714.061149,227,0.236458,60,C4,64,2
764160,714.311149,2735,2.848958,69,A4,64,1
764160,714.311149,2735,2.848958,81,A5,64,1
764160,714.311149,227,0.236458,57,A3,64,2
764160,714.311149,1823,1.898958,53,F3,64,2
764400,714.561149,227,0.236458,60,C4,64,2
764640,714.811149,227,0.236458,57,A3,64,2
764880,715.061149,227,0.236458,60,C4,64,2
765120,715.311149,227,0.236458,57,A3,64,2
765360,715.561149,227,0.236458,60,C4,64,2
765600,715.811149,227,0.236458,57,A3,64,2
765840,716.061149,227,0.236458,60,C4,64,2
766080,716.311149,227,0.236458,57,A3,64,2
766080,716.311149,455,0.473958,55,G3,64,2
766320,716.561149,227,0.236458,60,C4,64,2
766560,716.811149,227,0.236458,57,A3,64,2
766560,716.811149,455,0.473958,55,G3,64,2
766800,717.061149,227,0.236458,60,C4,64,2
767040,717.311149,911,0.948958,72,C5,64,1
767040,717.311149,911,0.948958,84,C6,64,1
767040,717.311149,227,0.236458,57,A3,64,2
767040,717.311149,455,0.473958,53,F3,64,2
767280,717.561149,227,0.236458,60,C4,64,2
767520,717.811149,227,0.236458,57,A3,64,2
767520,717.811149,455,0.473958,53,F3,64,2
767760,718.061149,227,0.236458,60,C4,64,2
768000,718.311149,2735,2.848958,76,E5,64,1
768000,718.311149,2735,2.848958,88,E6,64,1
768000,718.311149,227,0.236458,57,A3,64,2
768000,718.311149,3647,3.798958,52,E3,64,2
768240,718.561149,227,0.236458,60,C4,64,2
768480,718.811149,227,0.236458,57,A3,64,2
768720,719.061149,227,0.236458,60,C4,64,2
768960,719.311149,227,0.236458,57,A3,64,2
769200,719.561149,227,0.236458,60,C4,64,2
769440,719.811149,227,0.236458,57,A3,64,2
769680,720.061149,227,0.236458,60,C4,64,2
769920,720.311149,227,0.236458,57,A3,64,2
770160,720.561149,227,0.236458,60,C4,64,2
770400,720.811149,227,0.236458,57,A3,64,2
770640,721.061149,227,0.236458,60,C4,64,2
770880,721.311149,227,0.236458,57,A3,64,2
771120,721.561149,227,0.236458,60,C4,64,2
771360,721.811149,227,0.236458,57,A3,64,2
771600,722.061149,227,0.236458,60,C4,64,2
771840,722.311149,3647,3.798958,77,F5,64,1
771840,722.311149,3647,3.798958,89,F6,64,1
771840,722.311149,227,0.236458,58,A3#,64,2
771840,722.311149,3647,3.798958,55,G3,64,2
772080,722.561149,227,0.236458,62,D4,64,2
772320,722.811149,227,0.236458,58,A3#,64,2
772560,723.061149,227,0.236458,62,D4,64,2
772800,723.311149,227,0.236458,58,A3#,64,2
773040,723.561149,227,0.236458,62,D4,64,2
773280,723.811149,227,0.236458,58,A3#,64,2
773520,724.061149,227,0.236458,62,D4,64,2
773760,724.311149,227,0.236458,58,A3#,64,2
774000,724.561149,227,0.236458,62,D4,64,2
774240,724.811149,227,0.236458,58,A3#,64,2
774480,725.061149,227,0.236458,62,D4,64,2
774720,725.311149,227,0.236458,58,A3#,64,2
774960,725.561149,227,0.236458,62,D4,64,2
775200,725.811149,227,0.236458,58,A3#,64,2
775440,726.061149,227,0.236458,62,D4,64,2
775680,726.311149,3647,3.798958,77,F5,64,1
775680,726.311149,3647,3.798958,89,F6,64,1
775680,726.311149,227,0.236458,57,A3,64,2
775680,726.311149,3647,3.798958,53,F3,64,2
775920,726.561149,227,0.236458,60,C4,64,2
776160,726.811149,227,0.236458,57,A3,64,2
776400,727.061149,227,0.236458,60,C4,64,2
776640,727.311149,227,0.236458,57,A3,64,2
776880,727.561149,227,0.236458,60,C4,64,2
777120,727.811149,227,0.236458,57,A3,64,2
777360,728.061149,227,0.236458,60,C4,64,2
777600,728.311149,227,0.236458,57,A3,64,2
777840,728.561149,227,0.236458,60,C4,64,2
778080,728.811149,227,0.236458,57,A3,64,2
778320,729.061149,227,0.236458,60,C4,64,2
778560,729.311149,227,0.236458,57,A3,64,2
778800,729.561149,227,0.236458,60,C4,64,2
779040,729.811149,227,0.236458,57,A3,64,2
779280,730.061149,227,0.236458,60,C4,64,2
779520,730.311149,3647,3.798958,77,F5,64,1
779520,730.311149,3647,3.798958,89,F6,64,1
779520,730.311149,227,0.236458,58,A3#,64,2
779520,730.311149,3647,3.798958,55,G3,64,2
779760,730.561149,227,0.236458,62,D4,64,2
780000,730.811149,227,0.236458,58,A3#,64,2
780240,731.061149,227,0.236458,62,D4,64,2
780480,731.311149,227,0.236458,58,A3#,64,2
780720,731.561149,227,0.236458,62,D4,64,2
780960,731.811149,227,0.236458,58,A3#,64,2
781200,732.061149,227,0.236458,62,D4,64,2
781440,732.311149,227,0.236458,58,A3#,64,2
781680,732.561149,227,0.236458,62,D4,64,2
781920,732.811149,227,0.236458,58,A3#,64,2
782160,733.061149,227,0.236458,62,D4,64,2
782400,733.311149,227,0.236458,58,A3#,64,2
782640,733.561149,227,0.236458,62,D4,64,2
782880,733.811149,227,0.236458,58,A3#,64,2
783120,734.061149,227,0.236458,62,D4,64,2
783360,734.311149,3647,3.798958,77,F5,64,1
783360,734.311149,3647,3.798958,89,F6,64,1
783360,734.311149,227,0.236458,57,A3,64,2
783360,734.311149,3647,3.798958,53,F3,64,2
783600,734.561149,227,0.236458,60,C4,64,2
783840,734.811149,227,0.236458,57,A3,64,2
784080,735.061149,227,0.236458,60,C4,64,2
784320,735.311149,227,0.236458,57,A3,64,2
784560,735.561149,227,0.236458,60,C4,64,2
784800,735.811149,227,0.236458,57,A3,64,2
785040,736.061149,227,0.236458,60,C4,64,2
785280,736.311149,227,0.236458,57,A3,64,2
785520,736.561149,227,0.236458,60,C4,64,2
785760,736.811149,227,0.236458,57,A3,64,2
786000,737.061149,227,0.236458,60,C4,64,2
786240,737.311149,227,0.236458,57,A3,64,2
786480,737.561149,227,0.236458,60,C4,64,2
786720,737.811149,227,0.236458,57,A3,64,2
786960,738.061149,227,0.236458,60,C4,64,2
787200,738.311149,2735,2.848958,77,F5,64,1
787200,738.311149,2735,2.848958,89,F6,64,1
787200,738.311149,227,0.236458,58,A3#,64,2
787200,738.311149,1823,1.898958,55,G3,64,2
787440,738.561149,227,0.236458,62,D4,64,2
787680,738.811149,227,0.236458,58,A3#,64,2
787920,739.061149,227,0.236458,62,D4,64,2
788160,739.311149,227,0.236458,58,A3#,64,2
788400,739.561149,227,0.236458,62,D4,64,2
788640,739.811149,227,0.236458,58,A3#,64,2
788880,740.061149,227,0.236458,62,D4,64,2
789120,740.311149,227,0.236458,58,A3#,64,2
789120,740.311149,455,0.473958,53,F3,64,2
789360,740.561149,227,0.236458,62,D4,64,2
789600,740.811149,227,0.236458,58,A3#,64,2
789600,740.811149,455,0.473958,53,F3,64,2
789840,741.061149,227,0.236458,62,D4,64,2
790080,741.311149,911,0.948958,73,C5#,64,1
790080,741.311149,911,0.948958,85,C6#,64,1
790080,741.311149,227,0.236458,58,A3#,64,2
790080,741.311149,455,0.473958,55,G3,64,2
790320,741.561149,227,0.236458,62,D4,64,2
790560,741.811149,227,0.236458,58,A3#,64,2
790560,741.811149,455,0.473958,55,G3,64,2
790800,742.061149,227,0.236458,62,D4,64,2
791040,742.311149,3647,3.798958,72,C5,64,1
791040,742.311149,3647,3.798958,84,C6,64,1
791040,742.311149,227,0.236458,57,A3,64,2
791040,742.311149,3647,3.798958,53,F3,64,2
791280,742.561149,227,0.236458,60,C4,64,2
791520,742.811149,227,0.236458,57,A3,64,2
791760,743.061149,227,0.236458,60,C4,64,2
792000,743.311149,227,0.236458,57,A3,64,2
792240,743.561149,227,0.236458,60,C4,64,2
792480,743.811149,227,0.236458,57,A3,64,2
792720,744.061149,227,0.236458,60,C4,64,2
792960,744.311149,227,0.236458,57,A3,64,2
793200,744.561149,227,0.236458,60,C4,64,2
793440,744.811149,227,0.236458,57,A3,64,2
793680,745.061149,227,0.236458,60,C4,64,2
793920,745.311149,227,0.236458,57,A3,64,2
794160,745.561149,227,0.236458,60,C4,64,2
794400,745.811149,227,0.236458,57,A3,64,2
794640,746.061149,227,0.236458,60,C4,64,2
794880,746.311149,239,0.248958,57,A3,49,2
794880,746.311149,3839,3.998958,53,F3,49,2
795120,746.561149,239,0.248958,60,C4,49,2
795360,746.811149,239,0.248958,57,A3,49,2
795600,747.061149,239,0.248958,60,C4,49,2
795840,747.311149,239,0.248958,57,A3,49,2
796080,747.561149,239,0.248958,60,C4,49,2
796320,747.811149,239,0.248958,57,A3,49,2
796560,748.061149,227,0.236458,60,C4,49,2
796800,748.311149,239,0.248958,57,A3,49,2
797040,748.561149,239,0.248958,60,C4,49,2
797280,748.811149,239,0.248958,57,A3,49,2
797520,749.061149,239,0.248958,60,C4,49,2
797760,749.311149,239,0.248958,57,A3,49,2
798000,749.561149,239,0.248958,60,C4,49,2
798240,749.811149,239,0.248958,57,A3,49,2
798480,750.061149,227,0.236458,60,C4,49,2
798720,750.311149,3647,3.798958,36,C2,49,1
798720,750.311149,239,0.248958,57,A3,49,2
798720,750.311149,3839,3.998958,52,E3,49,2
798960,750.561149,239,0.248958,60,C4,49,2
799200,750.811149,239,0.248958,57,A3,49,2
799440,751.061149,239,0.248958,60,C4,49,2
799680,751.311149,239,0.248958,57,A3,49,2
799920,751.561149,239,0.248958,60,C4,49,2
800160,751.811149,239,0.248958,57,A3,49,2
800400,752.061149,227,0.236458,60,C4,49,2
800640,752.311149,239,0.248958,57,A3,49,2
800880,752.561149,239,0.248958,60,C4,49,2
801120,752.811149,239,0.248958,57,A3,49,2
801360,753.061149,239,0.248958,60,C4,49,2
801600,753.311149,239,0.248958,57,A3,49,2
801840,753.561149,239,0.248958,60,C4,49,2
802080,753.811149,239,0.248958,57,A3,49,2
802320,754.061149,227,0.236458,60,C4,49,2
802560,754.311149,2735,2.848958,69,A4,64,1
802560,754.311149,2735,2.848958,81,A5,64,1
802560,754.311149,239,0.248958,57,A3,64,2
802560,754.311149,3839,3.998958,53,F3,64,2
802800,754.561149,239,0.248958,60,C4,64,2
803040,754.811149,239,0.248958,57,A3,64,2
803280,755.061149,239,0.248958,60,C4,64,2
803520,755.311149,239,0.248958,57,A3,64,2
803760,755.561149,239,0.248958,60,C4,64,2
804000,755.811149,239,0.248958,57,A3,64,2
804240,756.061149,227,0.236458,60,C4,64,2
804480,756.311149,239,0.248958,57,A3,64,2
804720,756.561149,239,0.248958,60,C4,64,2
804960,756.811149,239,0.248958,57,A3,64,2
805200,757.061149,239,0.248958,60,C4,64,2
805440,757.311149,911,0.948958,72,C5,64,1
805440,757.311149,911,0.948958,84,C6,64,1
805440,757.311149,239,0.248958,57,A3,64,2
805680,757.561149,239,0.248958,60,C4,64,2
805920,757.811149,239,0.248958,57,A3,64,2
806160,758.061149,227,0.236458,60,C4,64,2
806400,758.311149,2735,2.848958,76,E5,64,1
806400,758.311149,2735,2.848958,88,E6,64,1
806400,758.311149,239,0.248958,57,A3,64,2
806400,758.311149,3839,3.998958,52,E3,64,2
806640,758.561149,239,0.248958,60,C4,64,2
806880,758.811149,239,0.248958,57,A3,64,2
807120,759.061149,239,0.248958,60,C4,64,2
807360,759.311149,239,0.248958,57,A3,64,2
807600,759.561149,239,0.248958,60,C4,64,2
807840,759.811149,239,0.248958,57,A3,64,2
808080,760.061149,227,0.236458,60,C4,64,2
808320,760.311149,239,0.248958,57,A3,64,2
808560,760.561149,239,0.248958,60,C4,64,2
808800,760.811149,239,0.248958,57,A3,64,2
809040,761.061149,239,0.248958,60,C4,64,2
809280,761.311149,239,0.248958,57,A3,64,2
809520,761.561149,239,0.248958,60,C4,64,2
809760,761.811149,239,0.248958,57,A3,64,2
810000,762.061149,227,0.236458,60,C4,64,2
810240,762.311149,2735,2.848958,69,A4,64,1
810240,762.311149,2735,2.848958,81,A5,64,1
810240,762.311149,239,0.248958,57,A3,64,2
810240,762.311149,3839,3.998958,53,F3,64,2
810480,762.561149,239,0.248958,60,C4,64,2
810720,762.811149,239,0.248958,57,A3,64,2
810960,763.061149,239,0.248958,60,C4,64,2
811200,763.311149,239,0.248958,57,A3,64,2
811440,763.561149,239,0.248958,60,C4,64,2
811680,763.811149,239,0.248958,57,A3,64,2
811920,764.061149,227,0.236458,60,C4,64,2
812160,764.311149,239,0.248958,57,A3,64,2
812400,764.561149,239,0.248958,60,C4,64,2
812640,764.811149,239,0.248958,57,A3,64,2
812880,765.061149,239,0.248958,60,C4,64,2
813120,765.311149,911,0.948958,72,C5,64,1
813120,765.311149,911,0.948958,84,C6,64,1
813120,765.311149,239,0.248958,57,A3,64,2
813360,765.561149,239,0.248958,60,C4,64,2
813600,765.811149,239,0.248958,57,A3,64,2
813840,766.061149,227,0.236458,60,C4,64,2
814080,766.311149,2735,2.848958,76,E5,64,1
814080,766.311149,2735,2.848958,88,E6,64,1
814080,766.311149,239,0.248958,57,A3,64,2
814080,766.311149,3839,3.998958,52,E3,64,2
814320,766.561149,239,0.248958,60,C4,64,2
814560,766.811149,239,0.248958,57,A3,64,2
814800,767.061149,239,0.248958,60,C4,64,2
815040,767.311149,239,0.248958,57,A3,64,2
815280,767.561149,239,0.248958,60,C4,64,2
815520,767.811149,239,0.248958,57,A3,64,2
815760,768.061149,227,0.236458,60,C4,64,2
816000,768.311149,239,0.248958,57,A3,64,2
816240,768.561149,239,0.248958,60,C4,64,2
816480,768.811149,239,0.248958,57,A3,64,2
816720,769.061149,239,0.248958,60,C4,64,2
816960,769.311149,239,0.248958,57,A3,64,2
817200,769.561149,239,0.248958,60,C4,64,2
817440,769.811149,239,0.248958,57,A3,64,2
817680,770.061149,227,0.236458,60,C4,64,2
817920,770.311149,2735,2.848958,69,A4,64,1
817920,770.311149,2735,2.848958,81,A5,64,1
817920,770.311149,239,0.248958,57,A3,64,2
817920,770.311149,1919,1.998958,53,F3,64,2
818160,770.561149,239,0.248958,60,C4,64,2
818400,770.811149,239,0.248958,57,A3,64,2
818640,771.061149,239,0.248958,60,C4,64,2
818880,771.311149,239,0.248958,57,A3,64,2
819120,771.561149,239,0.248958,60,C4,64,2
819360,771.811149,239,0.248958,57,A3,64,2
819600,772.061149,227,0.236458,60,C4,64,2
819840,772.311149,239,0.248958,57,A3,64,2
819840,772.311149,479,0.498958,55,G3,64,2
820080,772.561149,239,0.248958,60,C4,64,2
820320,772.811149,239,0.248958,57,A3,64,2
820320,772.811149,479,0.498958,55,G3,64,2
820560,773.061149,239,0.248958,60,C4,64,2
820800,773.311149,911,0.948958,72,C5,64,1
820800,773.311149,911,0.948958,84,C6,64,1
820800,773.311149,239,0.248958,57,A3,64,2
820800,773.311149,479,0.498958,53,F3,64,2
821040,773.561149,239,0.248958,60,C4,64,2
821280,773.811149,239,0.248958,57,A3,64,2
821280,773.811149,479,0.498958,53,F3,64,2
821520,774.061149,227,0.236458,60,C4,64,2
821760,774.311149,2735,2.848958,76,E5,64,1
821760,774.311149,2735,2.848958,88,E6,64,1
821760,774.311149,239,0.248958,57,A3,64,2
821760,774.311149,3839,3.998958,52,E3,64,2
822000,774.561149,239,0.248958,60,C4,64,2
822240,774.811149,239,0.248958,57,A3,64,2
822480,775.061149,239,0.248958,60,C4,64,2
822720,775.311149,239,0.248958,57,A3,64,2
822960,775.561149,239,0.248958,60,C4,64,2
823200,775.811149,239,0.248958,57,A3,64,2
823440,776.061149,227,0.236458,60,C4,64,2
823680,776.311149,239,0.248958,57,A3,64,2
823920,776.561149,239,0.248958,60,C4,64,2
824160,776.811149,239,0.248958,57,A3,64,2
824400,777.061149,239,0.248958,60,C4,64,2
824640,777.311149,239,0.248958,57,A3,64,2
824880,777.561149,239,0.248958,60,C4,64,2
825120,777.811149,239,0.248958,57,A3,64,2
825360,778.061149,227,0.236458,60,C4,64,2
825600,778.311149,2735,2.848958,69,A4,64,1
825600,778.311149,2735,2.848958,81,A5,64,1
825600,778.311149,227,0.236458,57,A3,64,2
825600,778.311149,1823,1.898958,53,F3,64,2
825840,778.561149,227,0.236458,60,C4,64,2
826080,778.811149,227,0.236458,57,A3,64,2
826320,779.061149,227,0.236458,60,C4,64,2
826560,779.311149,227,0.236458,57,A3,64,2
826800,779.561149,227,0.236458,60,C4,64,2
827040,779.811149,227,0.236458,57,A3,64,2
827280,780.061149,227,0.236458,60,C4,64,2
827520,780.311149,227,0.236458,57,A3,64,2
827520,780.311149,455,0.473958,55,G3,64,2
827760,780.561149,227,0.236458,60,C4,64,2
828000,780.811149,227,0.236458,57,A3,64,2
828000,780.811149,455,0.473958,55,G3,64,2
828240,781.061149,227,0.236458,60,C4,64,2
828480,781.311149,911,0.948958,72,C5,64,1
828480,781.311149,911,0.948958,84,C6,64,1
828480,781.311149,227,0.236458,57,A3,64,2
828480,781.311149,455,0.473958,53,F3,64,2
828720,781.561149,227,0.236458,60,C4,64,2
828960,781.811149,227,0.236458,57,A3,64,2
828960,781.811149,455,0.473958,53,F3,64,2
829200,782.061149,227,0.236458,60,C4,64,2
829440,782.311149,2735,2.848958,76,E5,64,1
829440,782.311149,2735,2.848958,88,E6,64,1
829440,782.311149,227,0.236458,57,A3,64,2
829440,782.311149,3647,3.798958,52,E3,64,2
829680,782.561149,227,0.236458,60,C4,64,2
829920,782.811149,227,0.236458,57,A3,64,2
830160,783.061149,227,0.236458,60,C4,64,2
830400,783.311149,227,0.236458,57,A3,64,2
830640,783.561149,227,0.236458,60,C4,64,2
830880,783.811149,227,0.236458,57,A3,64,2
831120,784.061149,227,0.236458,60,C4,64,2
831360,784.311149,227,0.236458,57,A3,64,2
831600,784.561149,227,0.236458,60,C4,64,2
831840,784.811149,227,0.236458,57,A3,64,2
832080,785.061149,227,0.236458,60,C4,64,2
832320,785.311149,227,0.236458,57,A3,64,2
832560,785.561149,227,0.236458,60,C4,64,2
832800,785.811149,227,0.236458,57,A3,64,2
833040,786.061149,227,0.236458,60,C4,64,2
833280,786.311149,2735,2.848958,69,A4,64,1
833280,786.311149,2735,2.848958,81,A5,64,1
833280,786.311149,227,0.236458,57,A3,64,2
833280,786.311149,1823,1.898958,53,F3,64,2
833520,786.561149,227,0.236458,60,C4,64,2
833760,786.811149,227,0.236458,57,A3,64,2
834000,787.061149,227,0.236458,60,C4,64,2
834240,787.311149,227,0.236458,57,A3,64,2
834480,787.561149,227,0.236458,60,C4,64,2
834720,787.811149,227,0.236458,57,A3,64,2
834960,788.061149,227,0.236458,60,C4,64,2
835200,788.311149,227,0.236458,57,A3,64,2
835200,788.311149,455,0.473958,55,G3,64,2
835440,788.561149,227,0.236458,60,C4,64,2
835680,788.811149,227,0.236458,57,A3,64,2
835680,788.811149,455,0.473958,55,G3,64,2
835920,789.061149,227,0.236458,60,C4,64,2
836160,789.311149,911,0.948958,72,C5,64,1
836160,789.311149,911,0.948958,84,C6,64,1
836160,789.311149,227,0.236458,57,A3,64,2
836160,789.311149,455,0.473958,53,F3,64,2
836400,789.561149,227,0.236458,60,C4,64,2
836640,789.811149,227,0.236458,57,A3,64,2
836640,789.811149,455,0.473958,53,F3,64,2
836880,790.061149,227,0.236458,60,C4,64,2
837120,790.311149,2735,2.848958,76,E5,64,1
837120,790.311149,2735,2.848958,88,E6,64,1
837120,790.311149,227,0.236458,57,A3,64,2
837120,790.311149,3647,3.798958,52,E3,64,2
837360,790.561149,227,0.236458,60,C4,64,2
837600,790.811149,227,0.236458,57,A3,64,2
837840,791.061149,227,0.236458,60,C4,64,2
838080,791.311149,227,0.236458,57,A3,64,2
838320,791.561149,227,0.236458,60,C4,64,2
838560,791.811149,227,0.236458,57,A3,64,2
838800,792.061149,227,0.236458,60,C4,64,2
839040,792.311149,227,0.236458,57,A3,64,2
839280,792.561149,227,0.236458,60,C4,64,2
839520,792.811149,227,0.236458,57,A3,64,2
839760,793.061149,227,0.236458,60,C4,64,2
840000,793.311149,227,0.236458,57,A3,64,2
840240,793.561149,227,0.236458,60,C4,64,2
840480,793.811149,227,0.236458,57,A3,64,2
840720,794.061149,227,0.236458,60,C4,64,2
840960,794.311149,3647,3.798958,77,F5,64,1
840960,794.311149,3647,3.798958,89,F6,64,1
840960,794.311149,227,0.236458,58,A3#,64,2
840960,794.311149,3647,3.798958,55,G3,64,2
841200,794.561149,227,0.236458,62,D4,64,2
841440,794.811149,227,0.236458,58,A3#,64,2
841680,795.061149,227,0.236458,62,D4,64,2
841920,795.311149,227,0.236458,58,A3#,64,2
842160,795.561149,227,0.236458,62,D4,64,2
842400,795.811149,227,0.236458,58,A3#,64,2
842640,796.061149,227,0.236458,62,D4,64,2
842880,796.311149,227,0.236458,58,A3#,64,2
843120,796.561149,227,0.236458,62,D4,64,2
843360,796.811149,227,0.236458,58,A3#,64,2
843600,797.061149,227,0.236458,62,D4,64,2
843840,797.311149,227,0.236458,58,A3#,64,2
844080,797.561149,227,0.236458,62,D4,64,2
844320,797.811149,227,0.236458,58,A3#,64,2
844560,798.061149,227,0.236458,62,D4,64,2
844800,798.311149,3647,3.798958,77,F5,64,1
844800,798.311149,3647,3.798958,89,F6,64,1
844800,798.311149,227,0.236458,57,A3,64,2
844800,798.311149,3647,3.798958,53,F3,64,2
845040,798.561149,227,0.236458,60,C4,64,2
845280,798.811149,227,0.236458,57,A3,64,2
845520,799.061149,227,0.236458,60,C4,64,2
845760,799.311149,227,0.236458,57,A3,64,2
846000,799.561149,227,0.236458,60,C4,64,2
846240,799.811149,227,0.236458,57,A3,64,2
846480,800.061149,227,0.236458,60,C4,64,2
846720,800.311149,227,0.236458,57,A3,64,2
846960,800.561149,227,0.236458,60,C4,64,2
847200,800.811149,227,0.236458,57,A3,64,2
847440,801.061149,227,0.236458,60,C4,64,2
847680,801.311149,227,0.236458,57,A3,64,2
847920,801.561149,227,0.236458,60,C4,64,2
848160,801.811149,227,0.236458,57,A3,64,2
848400,802.061149,227,0.236458,60,C4,64,2
848640,802.311149,3647,3.798958,77,F5,64,1
848640,802.311149,3647,3.798958,89,F6,64,1
848640,802.311149,227,0.236458,58,A3#,64,2
848640,802.311149,3647,3.798958,55,G3,64,2
848880,802.561149,227,0.236458,62,D4,64,2
849120,802.811149,227,0.236458,58,A3#,64,2
849360,803.061149,227,0.236458,62,D4,64,2
849600,803.311149,227,0.236458,58,A3#,64,2
849840,803.561149,227,0.236458,62,D4,64,2
850080,803.811149,227,0.236458,58,A3#,64,2
850320,804.061149,227,0.236458,62,D4,64,2
850560,804.311149,227,0.236458,58,A3#,64,2
850800,804.561149,227,0.236458,62,D4,64,2
851040,804.811149,227,0.236458,58,A3#,64,2
851280,805.061149,227,0.236458,62,D4,64,2
851520,805.311149,227,0.236458,58,A3#,64,2
851760,805.561149,227,0.236458,62,D4,64,2
852000,805.811149,227,0.236458,58,A3#,64,2
852240,806.061149,227,0.236458,62,D4,64,2
852480,806.311149,3647,3.798958,77,F5,64,1
852480,806.311149,3647,3.798958,89,F6,64,1
852480,806.311149,227,0.236458,57,A3,64,2
852480,806.311149,3647,3.798958,53,F3,64,2
852720,806.561149,227,0.236458,60,C4,64,2
852960,806.811149,227,0.236458,57,A3,64,2
853200,807.061149,227,0.236458,60,C4,64,2
853440,807.311149,227,0.236458,57,A3,64,2
853680,807.561149,227,0.236458,60,C4,64,2
853920,807.811149,227,0.236458,57,A3,64,2
854160,808.061149,227,0.236458,60,C4,64,2
854400,808.311149,227,0.236458,57,A3,64,2
854640,808.561149,227,0.236458,60,C4,64,2
854880,808.811149,227,0.236458,57,A3,64,2
855120,809.061149,227,0.236458,60,C4,64,2
855360,809.311149,227,0.236458,57,A3,64,2
855600,809.561149,227,0.236458,60,C4,64,2
855840,809.811149,227,0.236458,57,A3,64,2
856080,810.061149,227,0.236458,60,C4,64,2
856320,810.311149,2735,2.848958,77,F5,64,1
856320,810.311149,2735,2.848958,89,F6,64,1
856320,810.311149,227,0.236458,58,A3#,64,2
856320,810.311149,1823,1.898958,55,G3,64,2
856560,810.561149,227,0.236458,62,D4,64,2
856800,810.811149,227,0.236458,58,A3#,64,2
857040,811.061149,227,0.236458,62,D4,64,2
857280,811.311149,227,0.236458,58,A3#,64,2
857520,811.561149,227,0.236458,62,D4,64,2
857760,811.811149,227,0.236458,58,A3#,64,2
858000,812.061149,227,0.236458,62,D4,64,2
858240,812.311149,227,0.236458,58,A3#,64,2
858240,812.311149,455,0.473958,53,F3,64,2
858480,812.561149,227,0.236458,62,D4,64,2
858720,812.811149,227,0.236458,58,A3#,64,2
858720,812.811149,455,0.473958,53,F3,64,2
858960,813.061149,227,0.236458,62,D4,64,2
859200,813.311149,911,0.948958,73,C5#,64,1
859200,813.311149,911,0.948958,85,C6#,64,1
859200,813.311149,227,0.236458,58,A3#,64,2
859200,813.311149,455,0.473958,55,G3,64,2
859440,813.561149,227,0.236458,62,D4,64,2
859680,813.811149,227,0.236458,58,A3#,64,2
859680,813.811149,455,0.473958,55,G3,64,2
859920,814.061149,227,0.236458,62,D4,64,2
860160,814.311149,3647,4.774621,72,C5,64,1
860160,814.311149,3647,4.774621,84,C6,64,1
860160,814.311149,227,0.236458,57,A3,64,2
860160,814.311149,3647,4.774621,53,F3,64,2
860400,814.561149,227,0.236458,60,C4,64,2
860640,814.811149,227,0.236458,57,A3,64,2
860880,815.061149,227,0.236458,60,C4,64,2
861120,815.311149,227,0.236458,57,A3,64,2
861360,815.561149,227,0.236458,60,C4,64,2
861600,815.811149,227,0.236458,57,A3,64,2
861840,816.061149,227,0.236458,60,C4,64,2
862080,816.311149,227,0.257955,57,A3,64,2
862320,816.583877,227,0.257955,60,C4,60,2
862560,816.856605,227,0.283749,57,A3,56,2
862800,817.156604,227,0.28375,60,C4,51,2
863040,817.456604,227,0.315277,57,A3,47,2
863280,817.789937,227,0.315278,60,C4,42,2
863520,818.123271,227,0.354688,57,A3,38,2
863760,818.498272,227,2.837494,60,C4,33,2
864000,821.498266,227,0.236458,57,A3,49,2
864000,821.498266,3647,3.798958,53,F3,49,2
864240,821.748266,227,0.236458,60,C4,49,2
864480,821.998266,227,0.236458,57,A3,49,2
864720,822.248266,227,0.236458,60,C4,49,2
864960,822.498266,227,0.236458,57,A3,49,2
865200,822.748266,227,0.236458,60,C4,49,2
865440,822.998266,227,0.236458,57,A3,49,2
865680,823.248266,227,0.236458,60,C4,49,2
865920,823.498266,227,0.236458,57,A3,49,2
866160,823.748266,227,0.236458,60,C4,49,2
866400,823.998266,227,0.236458,57,A3,49,2
866640,824.248266,227,0.236458,60,C4,49,2
866880,824.498266,227,0.236458,57,A3,49,2
867120,824.748266,227,0.236458,60,C4,49,2
867360,824.998266,227,0.236458,57,A3,49,2
867600,825.248266,227,0.236458,60,C4,49,2
867840,825.498266,3647,4.774621,33,A1,49,1
867840,825.498266,227,0.236458,57,A3,49,2
867840,825.498266,3647,4.774621,52,E3,49,2
868080,825.748266,227,0.236458,60,C4,49,2
868320,825.998266,227,0.236458,57,A3,49,2
868560,826.248266,227,0.236458,60,C4,49,2
868800,826.498266,227,0.236458,57,A3,49,2
869040,826.748266,227,0.236458,60,C4,49,2
869280,826.998266,227,0.236458,57,A3,49,2
869520,827.248266,227,0.236458,60,C4,49,2
869760,827.498266,227,0.257955,57,A3,49,2
870000,827.770994,227,0.257955,60,C4,47,2
870240,828.043722,227,0.283749,57,A3,45,2
870480,828.343721,227,0.28375,60,C4,43,2
870720,828.643721,227,0.315277,57,A3,40,2
870960,828.977054,227,0.315278,60,C4,38,2
871200,829.310388,227,0.354688,57,A3,36,2
871440,829.685389,227,2.837494,60,C4,33,2
