start_ticks,start_secs,dur_ticks,dur_secs,pitch,fullNoteOctave,velocity,part
0,0.0,151,0.419444,56,G3#,80,1
0,0.0,1823,5.063887,37,C2#,80,2
0,0.0,1823,5.063887,49,C3#,80,2
160,0.444444,151,0.419444,61,C4#,80,1
320,0.888888,151,0.419445,64,E4,80,1
480,1.333333,151,0.419444,56,G3#,80,1
640,1.777777,151,0.419444,61,C4#,80,1
800,2.222221,151,0.419445,64,E4,80,1
960,2.666666,151,0.419444,56,G3#,80,1
1120,3.11111,151,0.419444,61,C4#,80,1
1280,3.555554,151,0.419445,64,E4,80,1
1440,3.999999,151,0.419444,56,G3#,80,1
1600,4.444443,151,0.419444,61,C4#,80,1
1760,4.888887,151,0.419445,64,E4,80,1
1920,5.333332,151,0.419444,56,G3#,80,1
1920,5.333332,1823,5.063887,35,B1,80,2
1920,5.333332,1823,5.063887,47,B2,80,2
2080,5.777776,151,0.419444,61,C4#,80,1
2240,6.22222,151,0.419445,64,E4,80,1
2400,6.666665,151,0.419444,56,G3#,80,1
2560,7.111109,151,0.419444,61,C4#,80,1
2720,7.555553,151,0.419445,64,E4,80,1
2880,7.999998,151,0.419444,56,G3#,80,1
3040,8.444442,151,0.419444,61,C4#,80,1
3200,8.888886,151,0.419445,64,E4,80,1
3360,9.333331,151,0.419444,56,G3#,80,1
3520,9.777775,151,0.419444,61,C4#,80,1
3680,10.222219,151,0.419445,64,E4,80,1
3840,10.666664,151,0.419444,57,A3,80,1
3840,10.666664,911,2.530554,33,A1,80,2
3840,10.666664,911,2.530554,45,A2,80,2
4000,11.111108,151,0.419444,61,C4#,80,1
4160,11.555552,151,0.419445,64,E4,80,1
4320,11.999997,151,0.419444,57,A3,80,1
4480,12.444441,151,0.419444,61,C4#,80,1
4640,12.888885,151,0.419445,64,E4,80,1
4800,13.33333,151,0.419444,57,A3,80,1
4800,13.33333,911,2.530554,30,F1#,80,2
4800,13.33333,911,2.530554,42,F2#,80,2
4960,13.777774,151,0.419444,62,D4,80,1
5120,14.222218,151,0.419445,66,F4#,80,1
5280,14.666663,151,0.419444,57,A3,80,1
5440,15.111107,151,0.419444,62,D4,80,1
5600,15.555551,151,0.419445,66,F4#,80,1
5760,15.999996,151,0.419444,56,G3#,80,1
5760,15.999996,911,2.530554,32,G1#,80,2
5760,15.999996,911,2.530554,44,G2#,80,2
5920,16.44444,151,0.419444,60,C4,80,1
6080,16.888884,151,0.419445,66,F4#,80,1
6240,17.333329,151,0.419444,56,G3#,80,1
6400,17.777773,151,0.419444,61,C4#,80,1
6560,18.222217,151,0.419445,64,E4,80,1
6720,18.666662,151,0.419444,56,G3#,80,1
6720,18.666662,911,2.530554,32,G1#,80,2
6720,18.666662,911,2.530554,44,G2#,80,2
6880,19.111106,151,0.419444,61,C4#,80,1
7040,19.55555,151,0.419445,63,D4#,80,1
7200,19.999995,151,0.419444,54,F3#,80,1
7360,20.444439,151,0.419444,60,C4,80,1
7520,20.888883,151,0.419445,63,D4#,80,1
7680,21.333328,151,0.419444,52,E3,80,1
7680,21.333328,1823,5.063887,37,C2#,80,2
7680,21.333328,1823,5.063887,44,G2#,80,2
7680,21.333328,1823,5.063887,49,C3#,80,2
7840,21.777772,151,0.419444,56,G3#,80,1
8000,22.222216,151,0.419445,61,C4#,80,1
8160,22.666661,151,0.419444,56,G3#,80,1
8320,23.111105,151,0.419444,61,C4#,80,1
8480,23.555549,151,0.419445,64,E4,80,1
8640,23.999994,151,0.419444,56,G3#,80,1
8800,24.444438,151,0.419444,61,C4#,80,1
8960,24.888882,151,0.419445,64,E4,80,1
9120,25.333327,151,0.419444,56,G3#,80,1
9120,25.333327,341,0.947221,68,G4#,80,1
9280,25.777771,151,0.419444,61,C4#,80,1
9440,26.222215,151,0.419445,64,E4,80,1
9480,26.333326,113,0.313889,68,G4#,80,1
9600,26.66666,151,0.419444,56,G3#,80,1
9600,26.66666,1367,3.797221,68,G4#,80,1
9600,26.66666,1823,5.063887,36,C2,80,2
9600,26.66666,1823,5.063887,44,G2#,80,2
9600,26.66666,1823,5.063887,48,C3,80,2
9760,27.111104,151,0.419444,63,D4#,80,1
9920,27.555548,151,0.419445,66,F4#,80,1
10080,27.999993,151,0.419444,56,G3#,80,1
10240,28.444437,151,0.419444,63,D4#,80,1
10400,28.888881,151,0.419445,66,F4#,80,1
10560,29.333326,151,0.419444,56,G3#,80,1
10720,29.77777,151,0.419444,63,D4#,80,1
10880,30.222214,151,0.419445,66,F4#,80,1
11040,30.666659,151,0.419444,56,G3#,80,1
11040,30.666659,341,0.947221,68,G4#,80,1
11200,31.111103,151,0.419444,63,D4#,80,1
11360,31.555547,151,0.419445,66,F4#,80,1
11400,31.666658,113,0.313889,68,G4#,80,1
11520,31.999992,151,0.419444,56,G3#,80,1
11520,31.999992,911,2.530554,68,G4#,80,1
11520,31.999992,911,2.530554,37,C2#,80,2
11520,31.999992,911,2.530554,49,C3#,80,2
11680,32.444436,151,0.419444,61,C4#,80,1
11840,32.88888,151,0.419445,64,E4,80,1
12000,33.333325,151,0.419444,56,G3#,80,1
12160,33.777769,151,0.419444,61,C4#,80,1
12320,34.222213,151,0.419445,64,E4,80,1
12480,34.666658,151,0.419444,57,A3,80,1
12480,34.666658,911,2.530554,69,A4,80,1
12480,34.666658,911,2.530554,30,F1#,80,2
12480,34.666658,911,2.530554,42,F2#,80,2
12640,35.111102,151,0.419444,61,C4#,80,1
12800,35.555546,151,0.419445,66,F4#,80,1
12960,35.999991,151,0.419444,57,A3,80,1
13120,36.444435,151,0.419444,61,C4#,80,1
13280,36.888879,151,0.419445,66,F4#,80,1
13440,37.333324,151,0.419444,56,G3#,80,1
13440,37.333324,911,2.530554,68,G4#,80,1
13440,37.333324,911,2.530554,35,B1,80,2
13440,37.333324,911,2.530554,47,B2,80,2
13600,37.777768,151,0.419444,59,B3,80,1
13760,38.222212,151,0.419445,64,E4,80,1
13920,38.666657,151,0.419444,56,G3#,80,1
14080,39.111101,151,0.419444,59,B3,80,1
14240,39.555545,151,0.419445,64,E4,80,1
14400,39.99999,151,0.419444,57,A3,80,1
14400,39.99999,455,1.263888,66,F4#,80,1
14400,39.99999,911,2.530554,35,B1,80,2
14400,39.99999,911,2.530554,47,B2,80,2
14560,40.444434,151,0.419444,59,B3,80,1
14720,40.888878,151,0.419445,63,D4#,80,1
14880,41.333323,151,0.419444,57,A3,80,1
14880,41.333323,455,1.263888,71,B4,80,1
15040,41.777767,151,0.419444,59,B3,80,1
15200,42.222211,151,0.419445,63,D4#,80,1
15360,42.666656,151,0.419444,56,G3#,80,1
15360,42.666656,455,1.263888,64,E4,80,1
15360,42.666656,1823,5.063887,40,E2,80,2
15360,42.666656,1823,5.063887,52,E3,80,2
15520,43.1111,151,0.419444,59,B3,80,1
15680,43.555544,135,0.375,64,E4,80,1
15840,43.999989,151,0.419444,56,G3#,80,1
16000,44.444433,151,0.419444,59,B3,80,1
16160,44.888877,151,0.419445,64,E4,80,1
16320,45.333322,151,0.419444,56,G3#,80,1
16480,45.777766,151,0.419444,59,B3,80,1
16640,46.22221,151,0.419445,64,E4,80,1
16800,46.666655,151,0.419444,56,G3#,80,1
16960,47.111099,151,0.419444,59,B3,80,1
17120,47.555543,151,0.419445,64,E4,80,1
17280,47.999988,151,0.419444,55,G3,80,1
17280,47.999988,1823,5.063887,40,E2,80,2
17280,47.999988,1823,5.063887,52,E3,80,2
17440,48.444432,151,0.419444,59,B3,80,1
17600,48.888876,151,0.419445,64,E4,80,1
17760,49.333321,151,0.419444,55,G3,80,1
17920,49.777765,151,0.419444,59,B3,80,1
18080,50.222209,151,0.419445,64,E4,80,1
18240,50.666654,151,0.419444,55,G3,80,1
18400,51.111098,151,0.419444,59,B3,80,1
18560,51.555542,151,0.419445,64,E4,80,1
18720,51.999987,151,0.419444,55,G3,80,1
18720,51.999987,341,0.947221,67,G4,80,1
18880,52.444431,151,0.419444,59,B3,80,1
19040,52.888875,151,0.419445,64,E4,80,1
19080,52.999986,113,0.313889,67,G4,80,1
19200,53.33332,151,0.419444,55,G3,80,1
19200,53.33332,1367,3.797221,67,G4,80,1
19200,53.33332,1823,5.063887,38,D2,80,2
19200,53.33332,1823,5.063887,50,D3,80,2
19360,53.777764,151,0.419444,59,B3,80,1
19520,54.222208,151,0.419445,65,F4,80,1
19680,54.666653,151,0.419444,55,G3,80,1
19840,55.111097,151,0.419444,59,B3,80,1
20000,55.555541,151,0.419445,65,F4,80,1
20160,55.999986,151,0.419444,55,G3,80,1
20320,56.44443,151,0.419444,59,B3,80,1
20480,56.888874,151,0.419445,65,F4,80,1
20640,57.333319,151,0.419444,55,G3,80,1
20640,57.333319,341,0.947221,67,G4,80,1
20800,57.777763,151,0.419444,59,B3,80,1
20960,58.222207,151,0.419445,65,F4,80,1
21000,58.333318,113,0.313889,67,G4,80,1
21120,58.666652,151,0.419444,55,G3,80,1
21120,58.666652,1367,3.797221,67,G4,80,1
21120,58.666652,455,1.263888,36,C2,80,2
21120,58.666652,455,1.263888,48,C3,80,2
21280,59.111096,151,0.419444,60,C4,80,1
21440,59.55554,151,0.419445,64,E4,80,1
21600,59.999985,151,0.419444,55,G3,80,1
21600,59.999985,455,1.263888,35,B1,80,2
21600,59.999985,455,1.263888,47,B2,80,2
21760,60.444429,151,0.419444,59,B3,80,1
21920,60.888873,151,0.419445,64,E4,80,1
22080,61.333318,151,0.419444,55,G3,80,1
22080,61.333318,911,2.530554,34,A1#,80,2
22080,61.333318,911,2.530554,46,A2#,80,2
22240,61.777762,151,0.419444,61,C4#,80,1
22400,62.222206,151,0.419445,64,E4,80,1
22560,62.666651,151,0.419444,54,F3#,80,1
22560,62.666651,455,1.263888,66,F4#,80,1
22720,63.111095,151,0.419444,61,C4#,80,1
22880,63.555539,151,0.419445,64,E4,80,1
23040,63.999984,151,0.419444,54,F3#,80,1
23040,63.999984,911,2.530554,66,F4#,80,1
23040,63.999984,911,2.530554,35,B1,80,2
23040,63.999984,911,2.530554,47,B2,80,2
23200,64.444428,151,0.419444,59,B3,80,1
23360,64.888872,151,0.419445,62,D4,80,1
23520,65.333317,151,0.419444,54,F3#,80,1
23680,65.777761,151,0.419444,59,B3,80,1
23840,66.222205,151,0.419445,62,D4,80,1
24000,66.66665,151,0.419444,55,G3,80,1
24000,66.66665,455,1.263888,67,G4,80,1
24000,66.66665,455,1.263888,40,E2,80,2
24160,67.111094,151,0.419444,59,B3,80,1
24320,67.555538,151,0.419445,61,C4#,80,1
24480,67.999983,151,0.419444,52,E3,80,1
24480,67.999983,455,1.263888,64,E4,80,1
24480,67.999983,455,1.263888,43,G2,80,2
24640,68.444427,151,0.419444,59,B3,80,1
24800,68.888871,151,0.419445,61,C4#,80,1
24960,69.333316,151,0.419444,54,F3#,80,1
24960,69.333316,911,2.530554,66,F4#,80,1
24960,69.333316,911,2.530554,42,F2#,80,2
25120,69.77776,151,0.419444,59,B3,80,1
25280,70.222204,151,0.419445,62,D4,80,1
25440,70.666649,151,0.419444,54,F3#,80,1
25600,71.111093,151,0.419444,59,B3,80,1
25760,71.555537,151,0.419445,62,D4,80,1
25920,71.999982,151,0.419444,54,F3#,80,1
25920,71.999982,911,2.530554,66,F4#,80,1
25920,71.999982,911,2.530554,30,F1#,80,2
25920,71.999982,911,2.530554,42,F2#,80,2
26080,72.444426,151,0.419444,58,A3#,80,1
26240,72.88887,151,0.419445,61,C4#,80,1
26400,73.333315,151,0.419444,54,F3#,80,1
26560,73.777759,151,0.419444,58,A3#,80,1
26720,74.222203,151,0.419445,61,C4#,80,1
26880,74.666648,151,0.419444,59,B3,80,1
26880,74.666648,151,0.419444,59,B3,80,1
26880,74.666648,2279,6.330553,35,B1,80,2
26880,74.666648,2279,6.330553,47,B2,80,2
27040,75.111092,151,0.419444,62,D4,80,1
27200,75.555536,151,0.419445,66,F4#,80,1
27360,75.999981,151,0.419444,59,B3,80,1
27520,76.444425,151,0.419444,62,D4,80,1
27680,76.888869,151,0.419445,66,F4#,80,1
27840,77.333314,151,0.419444,59,B3,80,1
28000,77.777758,151,0.419444,63,D4#,80,1
28160,78.222202,151,0.419445,66,F4#,80,1
28320,78.666647,151,0.419444,59,B3,80,1
28320,78.666647,455,1.263888,71,B4,80,1
28480,79.111091,151,0.419444,63,D4#,80,1
28640,79.555535,151,0.419445,66,F4#,80,1
28800,79.99998,151,0.419444,59,B3,80,1
28800,79.99998,1367,3.797221,72,C5,80,1
28960,80.444424,151,0.419444,64,E4,80,1
29120,80.888868,151,0.419445,67,G4,80,1
29280,81.333313,151,0.419444,59,B3,80,1
29280,81.333313,455,1.263888,40,E2,80,2
29280,81.333313,455,1.263888,52,E3,80,2
29440,81.777757,151,0.419444,64,E4,80,1
29600,82.222201,151,0.419445,67,G4,80,1
29760,82.666646,151,0.419444,59,B3,80,1
29760,82.666646,455,1.263888,43,G2,80,2
29760,82.666646,455,1.263888,55,G3,80,2
29920,83.11109,151,0.419444,64,E4,80,1
30080,83.555534,151,0.419445,67,G4,80,1
30240,83.999979,151,0.419444,59,B3,80,1
30240,83.999979,455,1.263888,70,A4#,80,1
30240,83.999979,455,1.263888,40,E2,80,2
30240,83.999979,455,1.263888,52,E3,80,2
30400,84.444423,151,0.419444,64,E4,80,1
30560,84.888867,151,0.419445,67,G4,80,1
30720,85.333312,151,0.419444,59,B3,80,1
30720,85.333312,1367,3.797221,71,B4,80,1
30720,85.333312,2279,6.330553,35,B1,80,2
30720,85.333312,2279,6.330553,47,B2,80,2
30880,85.777756,151,0.419444,63,D4#,80,1
31040,86.2222,151,0.419445,66,F4#,80,1
31200,86.666645,151,0.419444,59,B3,80,1
31360,87.111089,151,0.419444,63,D4#,80,1
31520,87.555533,151,0.419445,66,F4#,80,1
31680,87.999978,151,0.419444,59,B3,80,1
31840,88.444422,151,0.419444,63,D4#,80,1
32000,88.888866,151,0.419445,66,F4#,80,1
32160,89.333311,151,0.419444,59,B3,80,1
32160,89.333311,455,1.263888,71,B4,80,1
32320,89.777755,151,0.419444,63,D4#,80,1
32480,90.222199,151,0.419445,66,F4#,80,1
32640,90.666644,151,0.419444,59,B3,80,1
32640,90.666644,1367,3.797221,72,C5,80,1
32800,91.111088,151,0.419444,64,E4,80,1
32960,91.555532,151,0.419445,67,G4,80,1
33120,91.999977,151,0.419444,59,B3,80,1
33120,91.999977,455,1.263888,40,E2,80,2
33120,91.999977,455,1.263888,52,E3,80,2
33280,92.444421,151,0.419444,64,E4,80,1
33440,92.888865,151,0.419445,67,G4,80,1
33600,93.33331,151,0.419444,59,B3,80,1
33600,93.33331,455,1.263888,43,G2,80,2
33600,93.33331,455,1.263888,55,G3,80,2
33760,93.777754,151,0.419444,64,E4,80,1
33920,94.222198,151,0.419445,67,G4,80,1
34080,94.666643,151,0.419444,59,B3,80,1
34080,94.666643,455,1.263888,70,A4#,80,1
34080,94.666643,455,1.263888,40,E2,80,2
34080,94.666643,455,1.263888,52,E3,80,2
34240,95.111087,151,0.419444,64,E4,80,1
34400,95.555531,151,0.419445,67,G4,80,1
34560,95.999976,151,0.419444,59,B3,80,1
34560,95.999976,911,2.530554,71,B4,80,1
34560,95.999976,911,2.530554,35,B1,80,2
34560,95.999976,911,2.530554,47,B2,80,2
34720,96.44442,151,0.419444,63,D4#,80,1
34880,96.888864,151,0.419445,66,F4#,80,1
35040,97.333309,151,0.419444,59,B3,80,1
35200,97.777753,151,0.419444,63,D4#,80,1
35360,98.222197,151,0.419445,66,F4#,80,1
35520,98.666642,151,0.419444,59,B3,80,1
35520,98.666642,911,2.530554,71,B4,80,1
35520,98.666642,911,2.530554,32,G1#,80,2
35520,98.666642,911,2.530554,44,G2#,80,2
35680,99.111086,151,0.419444,62,D4,80,1
35840,99.55553,151,0.419445,65,F4,80,1
36000,99.999975,151,0.419444,59,B3,80,1
36160,100.444419,151,0.419444,62,D4,80,1
36320,100.888863,151,0.419445,65,F4,80,1
36480,101.333308,151,0.419444,59,B3,80,1
36480,101.333308,911,2.530554,71,B4,80,1
36480,101.333308,911,2.530554,29,F1,80,2
36480,101.333308,911,2.530554,41,F2,80,2
36640,101.777752,151,0.419444,61,C4#,80,1
36800,102.222196,151,0.419445,68,G4#,80,1
36960,102.666641,151,0.419444,59,B3,80,1
37120,103.111085,151,0.419444,61,C4#,80,1
37280,103.555529,151,0.419445,68,G4#,80,1
37440,103.999974,151,0.419444,57,A3,80,1
37440,103.999974,911,2.530554,69,A4,80,1
37440,103.999974,911,2.530554,30,F1#,80,2
37440,103.999974,911,2.530554,42,F2#,80,2
37600,104.444418,151,0.419444,61,C4#,80,1
37760,104.888862,151,0.419445,66,F4#,80,1
37920,105.333307,151,0.419444,57,A3,80,1
38080,105.777751,151,0.419444,61,C4#,80,1
38240,106.222195,151,0.419445,66,F4#,80,1
38400,106.66664,151,0.419444,55,G3,80,1
38400,106.66664,911,2.530554,67,G4,80,1
38400,106.66664,911,2.530554,35,B1,80,2
38400,106.66664,911,2.530554,44,G2#,80,2
38560,107.111084,151,0.419444,59,B3,80,1
38720,107.555528,151,0.419445,62,D4,80,1
38880,107.999973,151,0.419444,55,G3,80,1
39040,108.444417,151,0.419444,59,B3,80,1
39200,108.888861,151,0.419445,62,D4,80,1
39360,109.333306,151,0.419444,54,F3#,80,1
39360,109.333306,911,2.530554,66,F4#,80,1
39360,109.333306,911,2.530554,36,C2,80,2
39360,109.333306,911,2.530554,48,C3,80,2
39520,109.77775,151,0.419444,57,A3,80,1
39680,110.222194,151,0.419445,63,D4#,80,1
39840,110.666639,151,0.419444,54,F3#,80,1
40000,111.111083,151,0.419444,57,A3,80,1
40160,111.555527,151,0.419445,63,D4#,80,1
40320,111.999972,151,0.419444,49,C3#,80,1
40320,111.999972,911,2.530554,61,C4#,80,1
40320,111.999972,911,2.530554,37,C2#,80,2
40480,112.444416,151,0.419444,54,F3#,80,1
40640,112.88886,151,0.419445,57,A3,80,1
40800,113.333305,151,0.419444,49,C3#,80,1
40960,113.777749,151,0.419444,54,F3#,80,1
41120,114.222193,151,0.419445,57,A3,80,1
41280,114.666638,151,0.419444,49,C3#,80,1
41280,114.666638,455,1.263888,61,C4#,80,1
41280,114.666638,911,2.530554,37,C2#,80,2
41440,115.111082,151,0.419444,54,F3#,80,1
41600,115.555526,151,0.419445,56,G3#,80,1
41760,115.999971,151,0.419444,49,C3#,80,1
41760,115.999971,455,1.263888,61,C4#,80,1
41920,116.444415,151,0.419444,53,F3,80,1
42080,116.888859,151,0.419445,56,G3#,80,1
42240,117.333304,151,0.419444,54,F3#,80,1
42240,117.333304,151,0.419444,54,F3#,80,1
42240,117.333304,1823,5.063887,30,F1#,80,2
42240,117.333304,1823,5.063887,37,C2#,80,2
42240,117.333304,1823,5.063887,42,F2#,80,2
42400,117.777748,151,0.419444,57,A3,80,1
42560,118.222192,151,0.419445,61,C4#,80,1
42720,118.666637,151,0.419444,57,A3,80,1
42880,119.111081,151,0.419444,61,C4#,80,1
43040,119.555525,151,0.419445,66,F4#,80,1
43200,119.99997,151,0.419444,61,C4#,80,1
43360,120.444414,151,0.419444,66,F4#,80,1
43520,120.888858,151,0.419445,69,A4,80,1
43680,121.333303,151,0.419444,61,C4#,80,1
43680,121.333303,341,0.947221,73,C5#,80,1
43840,121.777747,151,0.419444,66,F4#,80,1
44000,122.222191,151,0.419445,69,A4,80,1
44040,122.333302,113,0.313889,73,C5#,80,1
44160,122.666636,151,0.419444,61,C4#,80,1
44160,122.666636,1367,3.797221,73,C5#,80,1
44160,122.666636,1823,5.063887,41,F2,80,2
44160,122.666636,1823,5.063887,49,C3#,80,2
44160,122.666636,1823,5.063887,53,F3,80,2
44320,123.11108,151,0.419444,68,G4#,80,1
44480,123.555524,151,0.419445,71,B4,80,1
44640,123.999969,151,0.419444,61,C4#,80,1
44800,124.444413,151,0.419444,68,G4#,80,1
44960,124.888857,151,0.419445,71,B4,80,1
45120,125.333302,151,0.419444,61,C4#,80,1
45280,125.777746,151,0.419444,68,G4#,80,1
45440,126.22219,151,0.419445,71,B4,80,1
45600,126.666635,151,0.419444,61,C4#,80,1
45600,126.666635,341,0.947221,73,C5#,80,1
45760,127.111079,151,0.419444,68,G4#,80,1
45920,127.555523,151,0.419445,71,B4,80,1
45960,127.666634,113,0.313889,73,C5#,80,1
46080,127.999968,151,0.419444,61,C4#,80,1
46080,127.999968,911,2.530554,73,C5#,80,1
46080,127.999968,911,2.530554,42,F2#,80,2
46080,127.999968,911,2.530554,54,F3#,80,2
46240,128.444412,151,0.419444,66,F4#,81,1
46400,128.888856,151,0.419445,69,A4,82,1
46560,129.333301,151,0.419444,61,C4#,83,1
46720,129.777745,151,0.419444,66,F4#,85,1
46880,130.222189,151,0.419445,69,A4,86,1
47040,130.666634,151,0.419444,60,C4,87,1
47040,130.666634,455,1.263888,72,C5,87,1
47040,130.666634,455,1.263888,39,D2#,87,2
47040,130.666634,455,1.263888,51,D3#,87,2
47200,131.111078,151,0.419444,66,F4#,88,1
47360,131.555522,151,0.419445,69,A4,90,1
47520,131.999967,151,0.419444,61,C4#,91,1
47520,131.999967,455,1.263888,73,C5#,91,1
47520,131.999967,455,1.263888,37,C2#,91,2
47520,131.999967,455,1.263888,49,C3#,91,2
47680,132.444411,151,0.419444,66,F4#,92,1
47840,132.888855,151,0.419445,69,A4,93,1
48000,133.3333,151,0.419444,63,D4#,95,1
48000,133.3333,1367,3.797221,75,D5#,95,1
48000,133.3333,1367,3.797221,36,C2,95,2
48000,133.3333,1367,3.797221,44,G2#,95,2
48000,133.3333,1367,3.797221,48,C3,95,2
48160,133.777744,151,0.419444,66,F4#,95,1
48320,134.222188,151,0.419445,68,G4#,95,1
48480,134.666633,151,0.419444,63,D4#,95,1
48640,135.111077,151,0.419444,66,F4#,95,1
48800,135.555521,151,0.419445,68,G4#,95,1
48960,135.999966,151,0.419444,63,D4#,95,1
49120,136.44441,151,0.419444,66,F4#,95,1
49280,136.888854,151,0.419445,68,G4#,95,1
49440,137.333299,151,0.419444,63,D4#,95,1
49440,137.333299,455,1.263888,75,D5#,95,1
49440,137.333299,455,1.263888,36,C2,95,2
49440,137.333299,455,1.263888,44,G2#,95,2
49440,137.333299,455,1.263888,48,C3,95,2
49600,137.777743,151,0.419444,66,F4#,95,1
49760,138.222187,151,0.419445,68,G4#,95,1
49920,138.666632,151,0.419444,64,E4,95,1
49920,138.666632,911,2.530554,76,E5,95,1
49920,138.666632,911,2.530554,37,C2#,95,2
49920,138.666632,911,2.530554,44,G2#,95,2
49920,138.666632,911,2.530554,49,C3#,95,2
50080,139.111076,151,0.419444,68,G4#,95,1
50240,139.55552,151,0.419445,73,C5#,95,1
50400,139.999965,151,0.419444,64,E4,95,1
50560,140.444409,151,0.419444,68,G4#,95,1
50720,140.888853,151,0.419445,73,C5#,95,1
50880,141.333298,151,0.419444,63,D4#,95,1
50880,141.333298,455,1.263888,75,D5#,95,1
50880,141.333298,455,1.263888,30,F1#,95,2
50880,141.333298,455,1.263888,42,F2#,95,2
51040,141.777742,151,0.419444,66,F4#,93,1
51200,142.222186,151,0.419445,69,A4,90,1
51360,142.666631,151,0.419444,61,C4#,87,1
51360,142.666631,455,1.263888,73,C5#,87,1
51360,142.666631,455,1.263888,31,G1,87,2
51360,142.666631,455,1.263888,43,G2,87,2
51520,143.111075,151,0.419444,64,E4,85,1
51680,143.555519,151,0.419445,70,A4#,82,1
51840,143.999964,151,0.419444,72,C5,79,1
51840,143.999964,1823,5.063887,32,G1#,79,2
51840,143.999964,1823,5.063887,44,G2#,79,2
52000,144.444408,151,0.419444,60,C4,79,1
52160,144.888852,151,0.419445,63,D4#,79,1
52320,145.333297,151,0.419444,68,G4#,79,1
52320,145.333297,151,0.419444,68,G4#,79,1
52480,145.777741,151,0.419444,60,C4,79,1
52640,146.222185,151,0.419445,63,D4#,79,1
52800,146.66663,151,0.419444,69,A4,79,1
52800,146.66663,151,0.419444,69,A4,79,1
52960,147.111074,151,0.419444,60,C4,79,1
53120,147.555518,151,0.419445,63,D4#,79,1
53280,147.999963,151,0.419444,66,F4#,79,1
53280,147.999963,151,0.419444,66,F4#,79,1
53440,148.444407,151,0.419444,60,C4,79,1
53600,148.888851,151,0.419445,63,D4#,79,1
53760,149.333296,1823,5.063887,32,G1#,79,2
53760,149.333296,1823,5.063887,44,G2#,79,2
53920,149.77774,151,0.419444,60,C4,79,1
54080,150.222184,151,0.419445,63,D4#,79,1
54240,150.666629,151,0.419444,56,G3#,79,1
54240,150.666629,151,0.419444,56,G3#,79,1
54400,151.111073,151,0.419444,60,C4,79,1
54560,151.555517,151,0.419445,63,D4#,79,1
54720,151.999962,151,0.419444,57,A3,79,1
54720,151.999962,151,0.419444,57,A3,79,1
54880,152.444406,151,0.419444,60,C4,79,1
55040,152.88885,151,0.419445,63,D4#,79,1
55200,153.333295,151,0.419444,54,F3#,79,1
55200,153.333295,151,0.419444,54,F3#,79,1
55360,153.777739,151,0.419444,60,C4,79,1
55520,154.222183,151,0.419445,63,D4#,79,1
55680,154.666628,151,0.419444,52,E3,79,1
55680,154.666628,1823,5.063887,32,G1#,79,2
55680,154.666628,1823,5.063887,44,G2#,79,2
55840,155.111072,151,0.419444,64,E4,79,1
56000,155.555516,151,0.419445,68,G4#,79,1
56160,155.999961,151,0.419444,73,C5#,79,1
56160,155.999961,151,0.419444,73,C5#,79,1
56320,156.444405,151,0.419444,64,E4,79,1
56480,156.888849,151,0.419445,68,G4#,79,1
56640,157.333294,151,0.419444,76,E5,79,1
56640,157.333294,151,0.419444,76,E5,79,1
56800,157.777738,151,0.419444,64,E4,79,1
56960,158.222182,151,0.419445,68,G4#,79,1
57120,158.666627,151,0.419444,73,C5#,79,1
57120,158.666627,151,0.419444,73,C5#,79,1
57280,159.111071,151,0.419444,64,E4,79,1
57440,159.555515,151,0.419445,68,G4#,79,1
57600,159.99996,1823,5.063887,32,G1#,79,2
57600,159.99996,1823,5.063887,44,G2#,79,2
57760,160.444404,151,0.419444,52,E3,79,1
57920,160.888848,151,0.419445,56,G3#,79,1
58080,161.333293,151,0.419444,61,C4#,79,1
58240,161.777737,151,0.419444,52,E3,79,1
58400,162.222181,151,0.419445,56,G3#,79,1
58560,162.666626,151,0.419444,64,E4,79,1
58720,163.11107,151,0.419444,52,E3,79,1
58880,163.555514,151,0.419445,56,G3#,79,1
59040,163.999959,151,0.419444,61,C4#,79,1
59200,164.444403,151,0.419444,52,E3,79,1
59360,164.888847,151,0.419445,56,G3#,79,1
59520,165.333292,151,0.419444,51,D3#,79,1
59520,165.333292,1823,5.063887,32,G1#,79,2
59520,165.333292,1823,5.063887,44,G2#,79,2
59680,165.777736,151,0.419444,57,A3,79,1
59840,166.22218,151,0.419445,54,F3#,79,1
60000,166.666625,151,0.419444,60,C4,79,1
60160,167.111069,151,0.419444,57,A3,79,1
60320,167.555513,151,0.419445,63,D4#,79,1
60480,167.999958,151,0.419444,60,C4,79,1
60640,168.444402,151,0.419444,66,F4#,79,1
60800,168.888846,151,0.419445,63,D4#,79,1
60960,169.333291,151,0.419444,69,A4,79,1
61120,169.777735,151,0.419444,66,F4#,79,1
61280,170.222179,151,0.419445,72,C5,79,1
61440,170.666624,151,0.419444,52,E3,79,1
61440,170.666624,1823,5.063887,32,G1#,79,2
61440,170.666624,1823,5.063887,44,G2#,79,2
61600,171.111068,151,0.419444,61,C4#,79,1
61760,171.555512,151,0.419445,56,G3#,79,1
61920,171.999957,151,0.419444,64,E4,79,1
62080,172.444401,151,0.419444,61,C4#,79,1
62240,172.888845,151,0.419445,68,G4#,79,1
62400,173.33329,151,0.419444,64,E4,79,1
62560,173.777734,151,0.419444,73,C5#,79,1
62720,174.222178,151,0.419445,68,G4#,79,1
62880,174.666623,151,0.419444,76,E5,79,1
63040,175.111067,151,0.419444,73,C5#,79,1
63200,175.555511,151,0.419445,69,A4,79,1
63360,175.999956,151,0.419444,61,C4#,79,1
63360,175.999956,1823,5.063887,32,G1#,79,2
63360,175.999956,1823,5.063887,44,G2#,79,2
63520,176.4444,151,0.419444,67,G4,79,1
63680,176.888844,151,0.419445,64,E4,79,1
63840,177.333289,151,0.419444,70,A4#,79,1
64000,177.777733,151,0.419444,67,G4,79,1
64160,178.222177,151,0.419445,73,C5#,79,1
64320,178.666622,151,0.419444,70,A4#,79,1
64480,179.111066,151,0.419444,76,E5,79,1
64640,179.55551,151,0.419445,73,C5#,79,1
64800,179.999955,151,0.419444,79,G5,79,1
64960,180.444399,151,0.419444,76,E5,79,1
65120,180.888843,151,0.419445,82,A5#,79,1
65280,181.333288,151,0.419444,66,F4#,79,1
65280,181.333288,5471,15.197218,32,G1#,79,2
65280,181.333288,5471,15.197218,44,G2#,79,2
65440,181.777732,151,0.419444,72,C5,79,1
65600,182.222176,151,0.419445,69,A4,79,1
65760,182.666621,151,0.419444,75,D5#,79,1
65920,183.111065,151,0.419444,72,C5,79,1
66080,183.555509,151,0.419445,78,F5#,79,1
66240,183.999954,151,0.419444,75,D5#,79,1
66400,184.444398,151,0.419444,81,A5,79,1
66560,184.888842,151,0.419445,78,F5#,79,1
66720,185.333287,151,0.419444,84,C6,79,1
66880,185.777731,151,0.419444,81,A5,79,1
67040,186.222175,151,0.419445,87,D6#,79,1
67200,186.66662,151,0.419444,84,C6,79,1
67360,187.111064,151,0.419444,78,F5#,79,1
67520,187.555508,151,0.419445,81,A5,79,1
67680,187.999953,151,0.419444,75,D5#,79,1
67840,188.444397,151,0.419444,78,F5#,79,1
68000,188.888841,151,0.419445,72,C5,79,1
68160,189.333286,151,0.419444,75,D5#,79,1
68320,189.77773,151,0.419444,69,A4,79,1
68480,190.222174,151,0.419445,72,C5,79,1
68640,190.666619,151,0.419444,66,F4#,79,1
68800,191.111063,151,0.419444,69,A4,79,1
68960,191.555507,151,0.419445,63,D4#,79,1
69120,191.999952,151,0.419444,66,F4#,79,1
69280,192.444396,151,0.419444,60,C4,79,1
69440,192.88884,151,0.419445,63,D4#,79,1
69600,193.333285,151,0.419444,57,A3,79,1
69760,193.777729,151,0.419444,60,C4,79,1
69920,194.222173,151,0.419445,54,F3#,79,1
70080,194.666618,151,0.419444,57,A3,79,1
70080,194.666618,151,0.419444,57,A3,79,1
70240,195.111062,151,0.419444,51,D3#,79,1
70240,195.111062,151,0.419444,51,D3#,79,1
70400,195.555506,151,0.419445,54,F3#,79,1
70560,195.999951,151,0.419444,49,C3#,79,1
70560,195.999951,151,0.419444,49,C3#,79,1
70720,196.444395,151,0.419444,54,F3#,79,1
70880,196.888839,151,0.419445,57,A3,79,1
71040,197.333284,151,0.419444,48,C3,79,1
71040,197.333284,151,0.419444,48,C3,79,1
71040,197.333284,1823,5.063887,32,G1#,79,2
71040,197.333284,1823,5.063887,44,G2#,79,2
71200,197.777728,151,0.419444,54,F3#,79,1
71360,198.222172,151,0.419445,56,G3#,79,1
71520,198.666617,151,0.419444,57,A3,79,1
71680,199.111061,151,0.419444,56,G3#,79,1
71840,199.555505,151,0.419445,54,F3#,79,1
72000,199.99995,151,0.419444,51,D3#,79,1
72000,199.99995,151,0.419444,51,D3#,79,1
72160,200.444394,151,0.419444,54,F3#,79,1
72320,200.888838,151,0.419445,57,A3,79,1
72480,201.333283,151,0.419444,49,C3#,79,1
72480,201.333283,151,0.419444,49,C3#,79,1
72640,201.777727,151,0.419444,54,F3#,79,1
72800,202.222171,151,0.419445,57,A3,79,1
72960,202.666616,151,0.419444,48,C3,79,1
72960,202.666616,151,0.419444,48,C3,79,1
72960,202.666616,1823,5.063887,32,G1#,79,2
72960,202.666616,1823,5.063887,44,G2#,79,2
73120,203.11106,151,0.419444,54,F3#,79,1
73280,203.555504,151,0.419445,56,G3#,79,1
73440,203.999949,151,0.419444,57,A3,79,1
73600,204.444393,151,0.419444,56,G3#,79,1
73760,204.888837,151,0.419445,54,F3#,79,1
73920,205.333282,151,0.419444,50,D3,79,1
73920,205.333282,151,0.419444,50,D3,79,1
74080,205.777726,151,0.419444,54,F3#,79,1
74240,206.22217,151,0.419445,57,A3,79,1
74400,206.666615,151,0.419444,49,C3#,79,1
74400,206.666615,151,0.419444,49,C3#,79,1
74560,207.111059,151,0.419444,54,F3#,79,1
74720,207.555503,151,0.419445,57,A3,79,1
74880,207.999948,151,0.419444,48,C3,79,1
74880,207.999948,151,0.419444,48,C3,79,1
74880,207.999948,911,2.530554,32,G1#,79,2
74880,207.999948,911,2.530554,44,G2#,79,2
75040,208.444392,151,0.419444,54,F3#,78,1
75200,208.888836,151,0.419445,56,G3#,77,1
75360,209.333281,151,0.419444,57,A3,76,1
75520,209.777725,151,0.419444,56,G3#,74,1
75680,210.222169,151,0.419445,54,F3#,73,1
75840,210.666614,151,0.419444,49,C3#,72,1
75840,210.666614,911,2.530554,33,A1,72,2
75840,210.666614,911,2.530554,45,A2,72,2
76000,211.111058,151,0.419444,52,E3,71,1
76160,211.555502,151,0.419445,61,C4#,69,1
76320,211.999947,151,0.419444,49,C3#,68,1
76480,212.444391,151,0.419444,52,E3,67,1
76640,212.888835,151,0.419445,61,C4#,66,1
76800,213.33328,151,0.419444,51,D3#,64,1
76800,213.33328,911,2.530554,30,F1#,64,2
76800,213.33328,911,2.530554,42,F2#,64,2
76960,213.777724,151,0.419444,57,A3,64,1
77120,214.222168,151,0.419445,61,C4#,64,1
77280,214.666613,151,0.419444,51,D3#,64,1
77440,215.111057,151,0.419444,57,A3,64,1
77600,215.555501,151,0.419445,61,C4#,64,1
77760,215.999946,151,0.419444,51,D3#,64,1
77760,215.999946,911,2.530554,32,G1#,64,2
77760,215.999946,911,2.530554,44,G2#,64,2
77920,216.44439,151,0.419444,56,G3#,64,1
78080,216.888834,151,0.419445,60,C4,64,1
78240,217.333279,151,0.419444,51,D3#,64,1
78400,217.777723,151,0.419444,54,F3#,64,1
78560,218.222167,151,0.419445,60,C4,64,1
78720,218.666612,151,0.419444,52,E3,64,1
78720,218.666612,1823,5.063887,37,C2#,64,2
78720,218.666612,1823,5.063887,44,G2#,64,2
78720,218.666612,1823,5.063887,49,C3#,64,2
78880,219.111056,151,0.419444,56,G3#,64,1
79040,219.5555,151,0.419445,61,C4#,64,1
79200,219.999945,151,0.419444,56,G3#,64,1
79360,220.444389,151,0.419444,61,C4#,64,1
79520,220.888833,151,0.419445,64,E4,64,1
79680,221.333278,151,0.419444,56,G3#,64,1
79840,221.777722,151,0.419444,61,C4#,64,1
80000,222.222166,151,0.419445,64,E4,64,1
80160,222.666611,151,0.419444,56,G3#,64,1
80160,222.666611,341,0.947221,68,G4#,64,1
80320,223.111055,151,0.419444,61,C4#,64,1
80480,223.555499,151,0.419445,64,E4,64,1
80520,223.66661,113,0.313889,68,G4#,64,1
80640,223.999944,151,0.419444,56,G3#,64,1
80640,223.999944,1367,3.797221,68,G4#,64,1
80640,223.999944,1823,5.063887,36,C2,64,2
80640,223.999944,1823,5.063887,44,G2#,64,2
80640,223.999944,1823,5.063887,48,C3,64,2
80800,224.444388,151,0.419444,63,D4#,64,1
80960,224.888832,151,0.419445,66,F4#,64,1
81120,225.333277,151,0.419444,56,G3#,64,1
81280,225.777721,151,0.419444,63,D4#,64,1
81440,226.222165,151,0.419445,66,F4#,64,1
81600,226.66661,151,0.419444,56,G3#,64,1
81760,227.111054,151,0.419444,63,D4#,64,1
81920,227.555498,151,0.419445,66,F4#,64,1
82080,227.999943,151,0.419444,56,G3#,64,1
82080,227.999943,341,0.947221,68,G4#,64,1
82240,228.444387,151,0.419444,63,D4#,64,1
82400,228.888831,151,0.419445,66,F4#,64,1
82440,228.999942,113,0.313889,68,G4#,64,1
82560,229.333276,151,0.419444,56,G3#,64,1
82560,229.333276,911,2.530554,68,G4#,64,1
82560,229.333276,911,2.530554,37,C2#,64,2
82560,229.333276,911,2.530554,49,C3#,64,2
82720,229.77772,151,0.419444,61,C4#,64,1
82880,230.222164,151,0.419445,64,E4,64,1
83040,230.666609,151,0.419444,56,G3#,64,1
83200,231.111053,151,0.419444,61,C4#,64,1
83360,231.555497,151,0.419445,64,E4,64,1
83520,231.999942,151,0.419444,57,A3,64,1
83520,231.999942,911,2.530554,69,A4,64,1
83520,231.999942,911,2.530554,30,F1#,64,2
83520,231.999942,911,2.530554,42,F2#,64,2
83680,232.444386,151,0.419444,61,C4#,64,1
83840,232.88883,151,0.419445,66,F4#,64,1
84000,233.333275,151,0.419444,57,A3,64,1
84160,233.777719,151,0.419444,61,C4#,64,1
84320,234.222163,151,0.419445,66,F4#,64,1
84480,234.666608,151,0.419444,56,G3#,64,1
84480,234.666608,911,2.530554,68,G4#,64,1
84480,234.666608,911,2.530554,35,B1,64,2
84480,234.666608,911,2.530554,47,B2,64,2
84640,235.111052,151,0.419444,59,B3,64,1
84800,235.555496,151,0.419445,64,E4,64,1
84960,235.999941,151,0.419444,56,G3#,64,1
85120,236.444385,151,0.419444,59,B3,64,1
85280,236.888829,151,0.419445,64,E4,64,1
85440,237.333274,151,0.419444,57,A3,64,1
85440,237.333274,455,1.263888,66,F4#,64,1
85440,237.333274,911,2.530554,35,B1,64,2
85440,237.333274,911,2.530554,47,B2,64,2
85600,237.777718,151,0.419444,59,B3,64,1
85760,238.222162,151,0.419445,63,D4#,64,1
85920,238.666607,151,0.419444,57,A3,64,1
85920,238.666607,455,1.263888,71,B4,64,1
86080,239.111051,151,0.419444,59,B3,64,1
86240,239.555495,151,0.419445,63,D4#,64,1
86400,239.99994,151,0.419444,56,G3#,64,1
86400,239.99994,455,1.263888,64,E4,64,1
86400,239.99994,1823,5.063887,40,E2,64,2
86400,239.99994,1823,5.063887,52,E3,64,2
86560,240.444384,151,0.419444,59,B3,64,1
86720,240.888828,135,0.375,64,E4,64,1
86880,241.333273,151,0.419444,59,B3,64,1
87040,241.777717,151,0.419444,64,E4,64,1
87200,242.222161,151,0.419445,68,G4#,64,1
87360,242.666606,151,0.419444,59,B3,64,1
87520,243.11105,151,0.419444,64,E4,64,1
87680,243.555494,151,0.419445,68,G4#,64,1
87840,243.999939,151,0.419444,59,B3,64,1
87840,243.999939,341,0.947221,71,B4,64,1
88000,244.444383,151,0.419444,64,E4,64,1
88160,244.888827,151,0.419445,68,G4#,64,1
88200,244.999938,113,0.313889,71,B4,64,1
88320,245.333272,151,0.419444,59,B3,64,1
88320,245.333272,1367,3.797221,71,B4,64,1
88320,245.333272,1823,5.063887,39,D2#,64,2
88320,245.333272,1823,5.063887,51,D3#,64,2
88480,245.777716,151,0.419444,66,F4#,64,1
88640,246.22216,151,0.419445,69,A4,64,1
88800,246.666605,151,0.419444,59,B3,64,1
88960,247.111049,151,0.419444,66,F4#,64,1
89120,247.555493,151,0.419445,69,A4,64,1
89280,247.999938,151,0.419444,59,B3,64,1
89440,248.444382,151,0.419444,66,F4#,64,1
89600,248.888826,151,0.419445,69,A4,64,1
89760,249.333271,151,0.419444,59,B3,64,1
89760,249.333271,341,0.947221,71,B4,64,1
89920,249.777715,151,0.419444,66,F4#,64,1
90080,250.222159,151,0.419445,69,A4,64,1
90120,250.33327,113,0.313889,71,B4,64,1
90240,250.666604,151,0.419444,59,B3,64,1
90240,250.666604,911,2.530554,71,B4,64,1
90240,250.666604,911,2.530554,40,E2,64,2
90240,250.666604,911,2.530554,52,E3,64,2
90400,251.111048,151,0.419444,64,E4,66,1
90560,251.555492,151,0.419445,68,G4#,69,1
90720,251.999937,151,0.419444,59,B3,71,1
90880,252.444381,151,0.419444,64,E4,74,1
91040,252.888825,151,0.419445,68,G4#,76,1
91200,253.33327,151,0.419444,60,C4,79,1
91200,253.33327,455,1.263888,72,C5,79,1
91200,253.33327,455,1.263888,39,D2#,79,2
91200,253.33327,455,1.263888,51,D3#,79,2
91360,253.777714,151,0.419444,66,F4#,77,1
91520,254.222158,151,0.419445,68,G4#,74,1
91680,254.666603,151,0.419444,61,C4#,72,1
91680,254.666603,455,1.263888,73,C5#,72,1
91680,254.666603,455,1.263888,37,C2#,72,2
91680,254.666603,455,1.263888,49,C3#,72,2
91840,255.111047,151,0.419444,66,F4#,69,1
92000,255.555491,151,0.419445,68,G4#,67,1
92160,255.999936,151,0.419444,63,D4#,64,1
92160,255.999936,911,2.530554,75,D5#,64,1
92160,255.999936,911,2.530554,36,C2,64,2
92160,255.999936,911,2.530554,44,G2#,64,2
92160,255.999936,911,2.530554,48,C3,64,2
92320,256.44438,151,0.419444,66,F4#,64,1
92480,256.888824,151,0.419445,68,G4#,64,1
92640,257.333269,151,0.419444,63,D4#,64,1
92800,257.777713,151,0.419444,66,F4#,64,1
92960,258.222157,151,0.419445,68,G4#,64,1
93120,258.666602,151,0.419444,64,E4,64,1
93120,258.666602,911,2.530554,76,E5,64,1
93120,258.666602,911,2.530554,37,C2#,64,2
93120,258.666602,911,2.530554,44,G2#,64,2
93120,258.666602,911,2.530554,49,C3#,64,2
93280,259.111046,151,0.419444,68,G4#,64,1
93440,259.55549,151,0.419445,73,C5#,64,1
93600,259.999935,151,0.419444,64,E4,64,1
93760,260.444379,151,0.419444,68,G4#,64,1
93920,260.888823,151,0.419445,73,C5#,64,1
94080,261.333268,151,0.419444,62,D4,64,1
94080,261.333268,911,2.530554,74,D5,64,1
94080,261.333268,911,2.530554,30,F1#,64,2
94080,261.333268,911,2.530554,42,F2#,64,2
94240,261.777712,151,0.419444,66,F4#,64,1
94400,262.222156,151,0.419445,69,A4,64,1
94560,262.666601,151,0.419444,62,D4,64,1
94720,263.111045,151,0.419444,66,F4#,64,1
94880,263.555489,151,0.419445,69,A4,64,1
95040,263.999934,151,0.419444,60,C4,64,1
95040,263.999934,911,2.530554,72,C5,64,1
95040,263.999934,911,2.530554,32,G1#,64,2
95040,263.999934,911,2.530554,44,G2#,64,2
95200,264.444378,151,0.419444,66,F4#,64,1
95360,264.888822,151,0.419445,68,G4#,64,1
95520,265.333267,151,0.419444,60,C4,64,1
95680,265.777711,151,0.419444,66,F4#,64,1
95840,266.222155,151,0.419445,68,G4#,64,1
96000,266.6666,151,0.419444,61,C4#,64,1
96000,266.6666,1367,3.797221,73,C5#,64,1
96000,266.6666,2279,6.330553,37,C2#,64,2
96000,266.6666,2279,6.330553,49,C3#,64,2
96160,267.111044,151,0.419444,64,E4,64,1
96320,267.555488,151,0.419445,68,G4#,64,1
96480,267.999933,151,0.419444,61,C4#,64,1
96640,268.444377,151,0.419444,64,E4,64,1
96800,268.888821,151,0.419445,68,G4#,64,1
96960,269.333266,151,0.419444,61,C4#,64,1
97120,269.77771,151,0.419444,65,F4,64,1
97280,270.222154,151,0.419445,68,G4#,64,1
97440,270.666599,151,0.419444,61,C4#,64,1
97440,270.666599,455,1.263888,73,C5#,64,1
97600,271.111043,151,0.419444,65,F4,64,1
97760,271.555487,151,0.419445,68,G4#,64,1
97920,271.999932,151,0.419444,61,C4#,64,1
97920,271.999932,1367,3.797221,74,D5,64,1
98080,272.444376,151,0.419444,66,F4#,64,1
98240,272.88882,151,0.419445,69,A4,64,1
98400,273.333265,151,0.419444,61,C4#,64,1
98400,273.333265,455,1.263888,42,F2#,64,2
98400,273.333265,455,1.263888,54,F3#,64,2
98560,273.777709,151,0.419444,66,F4#,64,1
98720,274.222153,151,0.419445,69,A4,64,1
98880,274.666598,151,0.419444,61,C4#,64,1
98880,274.666598,455,1.263888,45,A2,64,2
98880,274.666598,455,1.263888,57,A3,64,2
99040,275.111042,151,0.419444,66,F4#,64,1
99200,275.555486,151,0.419445,69,A4,64,1
99360,275.999931,151,0.419444,61,C4#,64,1
99360,275.999931,455,1.263888,72,C5,64,1
99360,275.999931,455,1.263888,42,F2#,64,2
99360,275.999931,455,1.263888,54,F3#,64,2
99520,276.444375,151,0.419444,66,F4#,64,1
99680,276.888819,151,0.419445,69,A4,64,1
99840,277.333264,151,0.419444,61,C4#,64,1
99840,277.333264,1367,3.797221,73,C5#,64,1
99840,277.333264,2279,6.330553,37,C2#,64,2
99840,277.333264,2279,6.330553,49,C3#,64,2
100000,277.777708,151,0.419444,65,F4,64,1
100160,278.222152,151,0.419445,68,G4#,64,1
100320,278.666597,151,0.419444,61,C4#,64,1
100480,279.111041,151,0.419444,65,F4,64,1
100640,279.555485,151,0.419445,68,G4#,64,1
100800,279.99993,151,0.419444,61,C4#,64,1
100960,280.444374,151,0.419444,65,F4,64,1
101120,280.888818,151,0.419445,68,G4#,64,1
101280,281.333263,151,0.419444,61,C4#,64,1
101280,281.333263,455,1.263888,73,C5#,64,1
101440,281.777707,151,0.419444,65,F4,64,1
101600,282.222151,151,0.419445,68,G4#,64,1
101760,282.666596,151,0.419444,61,C4#,64,1
101760,282.666596,1367,3.797221,74,D5,64,1
101920,283.11104,151,0.419444,66,F4#,64,1
102080,283.555484,151,0.419445,69,A4,64,1
102240,283.999929,151,0.419444,61,C4#,64,1
102240,283.999929,455,1.263888,42,F2#,64,2
102240,283.999929,455,1.263888,54,F3#,64,2
102400,284.444373,151,0.419444,66,F4#,64,1
102560,284.888817,151,0.419445,69,A4,64,1
102720,285.333262,151,0.419444,61,C4#,64,1
102720,285.333262,455,1.263888,45,A2,64,2
102720,285.333262,455,1.263888,57,A3,64,2
102880,285.777706,151,0.419444,66,F4#,64,1
103040,286.22215,151,0.419445,69,A4,64,1
103200,286.666595,151,0.419444,61,C4#,64,1
103200,286.666595,455,1.263888,72,C5,64,1
103200,286.666595,455,1.263888,42,F2#,64,2
103200,286.666595,455,1.263888,54,F3#,64,2
103360,287.111039,151,0.419444,66,F4#,64,1
103520,287.555483,151,0.419445,69,A4,64,1
103680,287.999928,151,0.419444,61,C4#,64,1
103680,287.999928,911,2.530554,73,C5#,64,1
103680,287.999928,911,2.530554,37,C2#,64,2
103680,287.999928,911,2.530554,49,C3#,64,2
103840,288.444372,151,0.419444,65,F4,64,1
104000,288.888816,151,0.419445,68,G4#,64,1
104160,289.333261,151,0.419444,61,C4#,64,1
104320,289.777705,151,0.419444,65,F4,64,1
104480,290.222149,151,0.419445,68,G4#,64,1
104640,290.666594,151,0.419444,61,C4#,64,1
104640,290.666594,911,2.530554,73,C5#,64,1
104640,290.666594,911,2.530554,30,F1#,64,2
104640,290.666594,911,2.530554,42,F2#,64,2
104800,291.111038,151,0.419444,66,F4#,64,1
104960,291.555482,151,0.419445,69,A4,64,1
105120,291.999927,151,0.419444,61,C4#,64,1
105280,292.444371,151,0.419444,66,F4#,64,1
105440,292.888815,151,0.419445,69,A4,64,1
105600,293.33326,151,0.419444,59,B3,64,1
105600,293.33326,1367,3.797221,71,B4,64,1
105600,293.33326,1367,3.797221,39,D2#,64,2
105600,293.33326,1367,3.797221,51,D3#,64,2
105760,293.777704,151,0.419444,66,F4#,64,1
105920,294.222148,151,0.419445,69,A4,64,1
106080,294.666593,151,0.419444,59,B3,64,1
106240,295.111037,151,0.419444,66,F4#,64,1
106400,295.555481,151,0.419445,69,A4,64,1
106560,295.999926,151,0.419444,59,B3,64,1
106720,296.44437,151,0.419444,66,F4#,64,1
106880,296.888814,151,0.419445,69,A4,64,1
107040,297.333259,151,0.419444,59,B3,64,1
107040,297.333259,455,1.263888,71,B4,64,1
107040,297.333259,455,1.263888,40,E2,64,2
107040,297.333259,455,1.263888,52,E3,64,2
107200,297.777703,151,0.419444,64,E4,64,1
107360,298.222147,151,0.419445,68,G4#,64,1
107520,298.666592,151,0.419444,57,A3,64,1
107520,298.666592,455,1.263888,69,A4,64,1
107520,298.666592,455,1.263888,40,E2,64,2
107520,298.666592,455,1.263888,49,C3#,64,2
107680,299.111036,151,0.419444,64,E4,64,1
107840,299.55548,151,0.419445,68,G4#,64,1
108000,299.999925,151,0.419444,57,A3,64,1
108000,299.999925,455,1.263888,69,A4,64,1
108000,299.999925,455,1.263888,39,D2#,64,2
108000,299.999925,455,1.263888,51,D3#,64,2
108160,300.444369,151,0.419444,63,D4#,64,1
108320,300.888813,151,0.419445,66,F4#,64,1
108480,301.333258,151,0.419444,56,G3#,64,1
108480,301.333258,455,1.263888,68,G4#,64,1
108480,301.333258,455,1.263888,36,C2,64,2
108480,301.333258,455,1.263888,48,C3,64,2
108640,301.777702,151,0.419444,63,D4#,64,1
108800,302.222146,151,0.419445,66,F4#,64,1
108960,302.666591,151,0.419444,56,G3#,64,1
108960,302.666591,455,1.263888,68,G4#,64,1
108960,302.666591,455,1.263888,37,C2#,64,2
108960,302.666591,455,1.263888,49,C3#,64,2
109120,303.111035,151,0.419444,61,C4#,64,1
109280,303.555479,151,0.419445,64,E4,64,1
109440,303.999924,151,0.419444,54,F3#,64,1
109440,303.999924,911,2.530554,66,F4#,64,1
109440,303.999924,911,2.530554,33,A1,64,2
109440,303.999924,911,2.530554,45,A2,64,2
109600,304.444368,151,0.419444,61,C4#,65,1
109760,304.888812,151,0.419445,63,D4#,67,1
109920,305.333257,151,0.419444,54,F3#,68,1
110080,305.777701,151,0.419444,61,C4#,70,1
110240,306.222145,151,0.419445,63,D4#,71,1
110400,306.66659,151,0.419444,56,G3#,73,1
110400,306.66659,455,1.263888,68,G4#,73,1
110400,306.66659,455,1.263888,32,G1#,73,2
110400,306.66659,455,1.263888,44,G2#,73,2
110560,307.111034,151,0.419444,61,C4#,74,1
110720,307.555478,151,0.419445,63,D4#,76,1
110880,307.999923,151,0.419444,57,A3,78,1
110880,307.999923,455,1.263888,69,A4,78,1
110880,307.999923,455,1.263888,30,F1#,78,2
110880,307.999923,455,1.263888,42,F2#,78,2
111040,308.444367,151,0.419444,61,C4#,75,1
111200,308.888811,151,0.419445,63,D4#,71,1
111360,309.333256,151,0.419444,56,G3#,67,1
111360,309.333256,911,2.530554,68,G4#,67,1
111360,309.333256,911,2.530554,32,G1#,67,2
111360,309.333256,911,2.530554,44,G2#,67,2
111520,309.7777,151,0.419444,61,C4#,63,1
111680,310.222144,151,0.419445,64,E4,63,1
111840,310.666589,151,0.419444,56,G3#,63,1
112000,311.111033,151,0.419444,61,C4#,63,1
112160,311.555477,151,0.419445,64,E4,63,1
112320,311.999922,151,0.419444,54,F3#,63,1
112320,311.999922,911,2.530554,68,G4#,63,1
112320,311.999922,911,2.530554,32,G1#,63,2
112320,311.999922,911,2.530554,44,G2#,63,2
112480,312.444366,151,0.419444,60,C4,63,1
112640,312.88881,151,0.419445,63,D4#,63,1
112800,313.333255,151,0.419444,54,F3#,63,1
112960,313.777699,151,0.419444,60,C4,63,1
113120,314.222143,151,0.419445,63,D4#,63,1
113280,314.666588,151,0.419444,52,E3,63,1
113280,314.666588,455,1.263888,61,C4#,63,1
113280,314.666588,1823,5.063887,37,C2#,63,2
113280,314.666588,1367,3.797221,44,G2#,63,2
113440,315.111032,151,0.419444,56,G3#,63,1
113600,315.555476,135,0.375,61,C4#,63,1
113760,315.999921,151,0.419444,56,G3#,63,1
113920,316.444365,151,0.419444,61,C4#,63,1
114080,316.888809,151,0.419445,64,E4,63,1
114240,317.333254,151,0.419444,56,G3#,63,1
114400,317.777698,151,0.419444,61,C4#,63,1
114560,318.222142,151,0.419445,64,E4,63,1
114720,318.666587,151,0.419444,56,G3#,63,1
114720,318.666587,341,0.947221,44,G2#,63,2
114880,319.111031,151,0.419444,61,C4#,63,1
115040,319.555475,151,0.419445,64,E4,63,1
115080,319.666586,113,0.313889,44,G2#,63,2
115200,319.99992,151,0.419444,56,G3#,63,1
115200,319.99992,1823,5.063887,36,C2,63,2
115200,319.99992,1367,3.797221,44,G2#,63,2
115360,320.444364,151,0.419444,63,D4#,63,1
115520,320.888808,151,0.419445,66,F4#,63,1
115680,321.333253,151,0.419444,56,G3#,63,1
115840,321.777697,151,0.419444,63,D4#,63,1
116000,322.222141,151,0.419445,66,F4#,63,1
116160,322.666586,151,0.419444,56,G3#,63,1
116320,323.11103,151,0.419444,63,D4#,63,1
116480,323.555474,151,0.419445,66,F4#,63,1
116640,323.999919,151,0.419444,56,G3#,63,1
116640,323.999919,341,0.947221,44,G2#,63,2
116800,324.444363,151,0.419444,63,D4#,63,1
116960,324.888807,151,0.419445,66,F4#,63,1
117000,324.999918,113,0.313889,44,G2#,63,2
117120,325.333252,151,0.419444,56,G3#,63,1
117120,325.333252,1823,5.063887,37,C2#,63,2
117120,325.333252,1367,3.797221,44,G2#,63,2
117280,325.777696,151,0.419444,64,E4,63,1
117440,326.22214,151,0.419445,61,C4#,63,1
117600,326.666585,151,0.419444,68,G4#,63,1
117760,327.111029,151,0.419444,64,E4,63,1
117920,327.555473,151,0.419445,73,C5#,63,1
118080,327.999918,151,0.419444,68,G4#,63,1
118240,328.444362,151,0.419444,76,E5,63,1
118400,328.888806,151,0.419445,73,C5#,63,1
118560,329.333251,151,0.419444,80,G5#,63,1
118560,329.333251,341,0.947221,44,G2#,63,2
118720,329.777695,151,0.419444,76,E5,63,1
118880,330.222139,151,0.419445,73,C5#,63,1
118920,330.33325,113,0.313889,44,G2#,63,2
119040,330.666584,151,0.419444,72,C5,63,1
119040,330.666584,1823,5.063887,32,G1#,63,2
119040,330.666584,1367,3.797221,44,G2#,63,2
119200,331.111028,151,0.419444,75,D5#,63,1
119360,331.555472,151,0.419445,69,A4,63,1
119520,331.999917,151,0.419444,72,C5,63,1
119680,332.444361,151,0.419444,66,F4#,63,1
119840,332.888805,151,0.419445,69,A4,63,1
120000,333.33325,151,0.419444,63,D4#,63,1
120160,333.777694,151,0.419444,66,F4#,63,1
120320,334.222138,303,0.841667,57,A3,63,1
120480,334.666583,455,1.263888,60,C4,63,1
120480,334.666583,341,0.947221,44,G2#,63,2
120640,335.111027,151,0.419444,56,G3#,63,1
120800,335.555471,151,0.419445,54,F3#,63,1
120840,335.666582,113,0.313889,44,G2#,63,2
120960,335.999916,151,0.419444,52,E3,63,1
120960,335.999916,151,0.419444,61,C4#,63,1
120960,335.999916,1823,5.063887,37,C2#,63,2
120960,335.999916,1367,3.797221,44,G2#,63,2
121120,336.44436,151,0.419444,64,E4,63,1
121280,336.888804,151,0.419445,61,C4#,63,1
121440,337.333249,151,0.419444,68,G4#,63,1
121600,337.777693,151,0.419444,64,E4,63,1
121760,338.222137,151,0.419445,73,C5#,63,1
121920,338.666582,151,0.419444,68,G4#,63,1
122080,339.111026,151,0.419444,76,E5,63,1
122240,339.55547,151,0.419445,73,C5#,63,1
122400,339.999915,151,0.419444,80,G5#,63,1
122400,339.999915,341,0.947221,44,G2#,63,2
122560,340.444359,151,0.419444,76,E5,63,1
122720,340.888803,151,0.419445,73,C5#,63,1
122760,340.999914,113,0.313889,44,G2#,63,2
122880,341.333248,151,0.419444,72,C5,63,1
122880,341.333248,1823,5.063887,32,G1#,63,2
122880,341.333248,1367,3.797221,44,G2#,63,2
123040,341.777692,151,0.419444,75,D5#,63,1
123200,342.222136,151,0.419445,69,A4,63,1
123360,342.666581,151,0.419444,72,C5,63,1
123520,343.111025,151,0.419444,66,F4#,63,1
123680,343.555469,151,0.419445,69,A4,63,1
123840,343.999914,151,0.419444,63,D4#,63,1
124000,344.444358,151,0.419444,66,F4#,63,1
124160,344.888802,303,0.841667,57,A3,63,1
124320,345.333247,455,1.263888,60,C4,63,1
124320,345.333247,341,0.947221,44,G2#,63,2
124480,345.777691,151,0.419444,56,G3#,63,1
124640,346.222135,151,0.419445,54,F3#,63,1
124680,346.333246,113,0.313889,44,G2#,63,2
124800,346.66658,151,0.419444,52,E3,63,1
124800,346.66658,3647,10.130553,37,C2#,63,2
124800,346.66658,911,2.530554,44,G2#,63,2
124960,347.111024,151,0.419444,56,G3#,61,1
125120,347.555468,151,0.419445,61,C4#,58,1
125280,347.999913,151,0.419444,64,E4,56,1
125440,348.444357,151,0.419444,61,C4#,53,1
125600,348.888801,151,0.419445,56,G3#,51,1
125760,349.333246,911,2.530554,49,C3#,48,2
125920,349.77769,151,0.419444,52,E3,46,1
126080,350.222134,151,0.419445,56,G3#,43,1
126240,350.666579,151,0.419444,61,C4#,41,1
126400,351.111023,151,0.419444,56,G3#,38,1
126560,351.555467,151,0.419445,52,E3,36,1
126720,351.999912,911,2.530554,44,G2#,33,2
126880,352.444356,151,0.419444,49,C3#,33,1
127040,352.8888,151,0.419445,52,E3,33,1
127200,353.333245,151,0.419444,56,G3#,33,1
127360,353.777689,151,0.419444,52,E3,33,1
127520,354.222133,151,0.419445,49,C3#,33,1
127680,354.666578,151,0.419444,44,G2#,33,1
127840,355.111022,151,0.419444,49,C3#,33,1
128000,355.555466,151,0.419445,44,G2#,33,1
128160,355.999911,151,0.419444,40,E2,33,1
128320,356.444355,151,0.419444,44,G2#,33,1
128480,356.888799,151,0.419445,40,E2,33,1
128640,357.333244,911,2.530554,37,C2#,33,2
129600,359.99991,911,2.530554,52,E3,33,1
129600,359.99991,911,2.530554,56,G3#,33,1
129600,359.99991,911,2.530554,61,C4#,33,1
129600,359.99991,911,2.530554,37,C2#,33,2
129600,359.99991,911,2.530554,44,G2#,33,2
129600,359.99991,911,2.530554,49,C3#,33,2
130560,362.666576,1823,5.063887,52,E3,33,1
130560,362.666576,1823,5.063887,56,G3#,33,1
130560,362.666576,1823,5.063887,61,C4#,33,1
130560,362.666576,1823,5.063887,37,C2#,33,2
130560,362.666576,1823,5.063887,44,G2#,33,2
130560,362.666576,1823,5.063887,49,C3#,33,2
