start_ticks,start_secs,dur_ticks,dur_secs,pitch,fullNoteOctave,velocity,part
0,0.0,959,0.887962,72,C5,49,1
0,0.0,239,0.221296,60,C4,49,2
240,0.222222,239,0.221296,67,G4,49,2
480,0.444444,239,0.221296,64,E4,49,2
720,0.666666,239,0.221296,67,G4,49,2
960,0.888888,455,0.421295,76,E5,49,1
960,0.888888,239,0.221296,60,C4,49,2
1200,1.11111,239,0.221296,67,G4,49,2
1440,1.333332,455,0.421295,79,G5,49,1
1440,1.333332,239,0.221296,64,E4,49,2
1680,1.555554,239,0.221296,67,G4,49,2
1920,1.777776,719,0.66574,71,B4,49,1
1920,1.777776,239,0.221296,62,D4,49,2
2160,1.999998,239,0.221296,67,G4,49,2
2400,2.22222,239,0.221296,65,F4,49,2
2640,2.444442,119,0.110185,72,C5,49,1
2640,2.444442,239,0.221296,67,G4,49,2
2760,2.555553,119,0.110185,74,D5,49,1
2880,2.666664,911,0.843517,72,C5,49,1
2880,2.666664,239,0.221296,60,C4,49,2
3120,2.888886,239,0.221296,67,G4,49,2
3360,3.111108,239,0.221296,64,E4,49,2
3600,3.33333,239,0.221296,67,G4,49,2
3840,3.555552,959,0.887962,81,A5,49,1
3840,3.555552,239,0.221296,60,C4,49,2
4080,3.777774,239,0.221296,69,A4,49,2
4320,3.999996,239,0.221296,65,F4,49,2
4560,4.222218,239,0.221296,69,A4,49,2
4800,4.44444,455,0.421295,79,G5,49,1
4800,4.44444,239,0.221296,60,C4,49,2
5040,4.666662,239,0.221296,67,G4,49,2
5280,4.888884,455,0.421295,84,C6,49,1
5280,4.888884,239,0.221296,64,E4,49,2
5520,5.111106,239,0.221296,67,G4,49,2
5760,5.333328,479,0.443518,79,G5,49,1
5760,5.333328,239,0.221296,59,B3,49,2
6000,5.55555,239,0.221296,67,G4,49,2
6240,5.777772,47,0.043518,77,F5,49,1
6240,5.777772,239,0.221296,62,D4,49,2
6288,5.822216,47,0.043518,79,G5,49,1
6336,5.86666,47,0.043519,77,F5,49,1
6384,5.911105,47,0.043518,79,G5,49,1
6432,5.955549,47,0.043519,77,F5,49,1
6480,5.999994,119,0.110185,76,E5,49,1
6480,5.999994,239,0.221296,67,G4,49,2
6600,6.111105,119,0.110185,77,F5,49,1
6720,6.222216,455,0.421295,76,E5,49,1
6720,6.222216,239,0.221296,60,C4,49,2
6960,6.444438,239,0.221296,67,G4,49,2
7200,6.66666,239,0.221296,64,E4,49,2
7440,6.888882,239,0.221296,67,G4,49,2
7680,7.111104,239,0.221296,69,A4,49,1
7680,7.111104,455,0.421295,65,F4,49,2
7920,7.333326,119,0.110185,71,B4,49,1
8040,7.444437,119,0.110185,72,C5,49,1
8160,7.555548,119,0.110185,74,D5,49,1
8280,7.666659,119,0.110185,76,E5,49,1
8400,7.77777,119,0.110185,77,F5,49,1
8520,7.888881,119,0.110185,79,G5,49,1
8640,7.999992,119,0.110185,81,A5,49,1
8760,8.111103,119,0.110185,79,G5,49,1
8880,8.222214,119,0.110185,77,F5,49,1
9000,8.333325,119,0.110185,76,E5,49,1
9120,8.444436,119,0.110185,74,D5,49,1
9120,8.444436,455,0.421295,53,F3,49,2
9120,8.444436,455,0.421295,60,C4,49,2
9240,8.555547,119,0.110185,72,C5,49,1
9360,8.666658,119,0.110185,71,B4,49,1
9480,8.777769,119,0.110185,69,A4,49,1
9600,8.88888,239,0.221296,67,G4,49,1
9600,8.88888,455,0.421295,52,E3,49,2
9600,8.88888,455,0.421295,60,C4,49,2
9840,9.111102,119,0.110185,69,A4,49,1
9960,9.222213,119,0.110185,71,B4,49,1
10080,9.333324,119,0.110185,72,C5,49,1
10200,9.444435,119,0.110185,74,D5,49,1
10320,9.555546,119,0.110185,76,E5,49,1
10440,9.666657,119,0.110185,77,F5,49,1
10560,9.777768,119,0.110185,79,G5,49,1
10680,9.888879,119,0.110185,77,F5,49,1
10800,9.99999,119,0.110185,76,E5,49,1
10920,10.111101,119,0.110185,74,D5,49,1
11040,10.222212,119,0.110185,72,C5,49,1
11040,10.222212,455,0.421295,52,E3,49,2
11040,10.222212,455,0.421295,60,C4,49,2
11160,10.333323,119,0.110185,71,B4,49,1
11280,10.444434,119,0.110185,69,A4,49,1
11400,10.555545,119,0.110185,67,G4,49,1
11520,10.666656,239,0.221296,65,F4,49,1
11520,10.666656,455,0.421295,50,D3,49,2
11520,10.666656,455,0.421295,60,C4,49,2
11760,10.888878,119,0.110185,67,G4,49,1
11880,10.999989,119,0.110185,69,A4,49,1
12000,11.1111,119,0.110185,71,B4,49,1
12120,11.222211,119,0.110185,72,C5,49,1
12240,11.333322,119,0.110185,74,D5,49,1
12360,11.444433,119,0.110185,76,E5,49,1
12480,11.555544,119,0.110185,77,F5,49,1
12600,11.666655,119,0.110185,76,E5,49,1
12720,11.777766,119,0.110185,74,D5,49,1
12840,11.888877,119,0.110185,72,C5,49,1
12960,11.999988,119,0.110185,71,B4,49,1
12960,11.999988,455,0.421295,50,D3,49,2
12960,11.999988,455,0.421295,59,B3,49,2
13080,12.111099,119,0.110185,69,A4,49,1
13200,12.22221,119,0.110185,67,G4,49,1
13320,12.333321,119,0.110185,65,F4,49,1
13440,12.444432,239,0.221296,64,E4,49,1
13440,12.444432,455,0.421295,48,C3,49,2
13440,12.444432,455,0.421295,60,C4,49,2
13680,12.666654,119,0.110185,65,F4,49,1
13800,12.777765,119,0.110185,67,G4,49,1
13920,12.888876,119,0.110185,69,A4,49,1
14040,12.999987,119,0.110185,71,B4,49,1
14160,13.111098,119,0.110185,72,C5,49,1
14280,13.222209,119,0.110185,74,D5,49,1
14400,13.33332,119,0.110185,76,E5,49,1
14520,13.444431,119,0.110185,74,D5,49,1
14640,13.555542,119,0.110185,72,C5,49,1
14760,13.666653,119,0.110185,71,B4,49,1
14880,13.777764,119,0.110185,69,A4,49,1
14880,13.777764,455,0.421295,48,C3,49,2
14880,13.777764,455,0.421295,52,E3,49,2
15000,13.888875,119,0.110185,67,G4,49,1
15120,13.999986,119,0.110185,65,F4,49,1
15240,14.111097,119,0.110185,64,E4,49,1
15360,14.222208,239,0.221296,62,D4,49,1
15360,14.222208,1823,1.687961,53,F3,49,2
15360,14.222208,1823,1.687961,57,A3,49,2
15600,14.44443,119,0.110185,64,E4,51,1
15720,14.555541,119,0.110185,65,F4,53,1
15840,14.666652,119,0.110185,67,G4,54,1
15960,14.777763,119,0.110185,69,A4,56,1
16080,14.888874,119,0.110185,71,B4,57,1
16200,14.999985,119,0.110185,73,C5#,59,1
16320,15.111096,119,0.110185,74,D5,60,1
16440,15.222207,119,0.110185,69,A4,62,1
16560,15.333318,119,0.110185,71,B4,63,1
16680,15.444429,119,0.110185,73,C5#,65,1
16800,15.55554,119,0.110185,74,D5,66,1
16920,15.666651,119,0.110185,76,E5,68,1
17040,15.777762,119,0.110185,77,F5,69,1
17160,15.888873,119,0.110185,79,G5,71,1
17280,15.999984,119,0.110185,81,A5,72,1
17280,15.999984,683,0.632406,53,F3,72,2
17400,16.111095,119,0.110185,83,B5,73,1
17520,16.222206,119,0.110185,84,C6,75,1
17640,16.333317,119,0.110185,83,B5,76,1
17760,16.444428,119,0.110185,81,A5,78,1
17880,16.555539,119,0.110185,79,G5,79,1
18000,16.66665,119,0.110185,77,F5,81,1
18000,16.66665,227,0.210184,55,G3,81,2
18120,16.777761,119,0.110185,76,E5,82,1
18240,16.888872,119,0.110185,77,F5,84,1
18240,16.888872,683,0.632406,57,A3,84,2
18360,16.999983,119,0.110185,79,G5,85,1
18480,17.111094,119,0.110185,81,A5,87,1
18600,17.222205,119,0.110185,79,G5,88,1
18720,17.333316,119,0.110185,77,F5,90,1
18840,17.444427,119,0.110185,76,E5,91,1
18960,17.555538,119,0.110185,74,D5,93,1
18960,17.555538,227,0.210184,54,F3#,93,2
19080,17.666649,119,0.110185,72,C5,94,1
19200,17.77776,119,0.110185,71,B4,96,1
19200,17.77776,119,0.110185,43,G2,96,2
19320,17.888871,119,0.110185,47,B2,96,2
19440,17.999982,119,0.110185,79,G5,96,1
19440,17.999982,119,0.110185,50,D3,96,2
19560,18.111093,119,0.110185,55,G3,96,2
19680,18.222204,119,0.110185,76,E5,96,1
19680,18.222204,119,0.110185,43,G2,96,2
19800,18.333315,119,0.110185,48,C3,96,2
19920,18.444426,119,0.110185,72,C5,96,1
19920,18.444426,119,0.110185,52,E3,96,2
20040,18.555537,119,0.110185,55,G3,96,2
20160,18.666648,119,0.110185,74,D5,96,1
20160,18.666648,119,0.110185,43,G2,96,2
20280,18.777759,119,0.110185,47,B2,96,2
20400,18.88887,119,0.110185,79,G5,96,1
20400,18.88887,119,0.110185,50,D3,96,2
20520,18.999981,119,0.110185,55,G3,96,2
20640,19.111092,119,0.110185,76,E5,96,1
20640,19.111092,119,0.110185,43,G2,96,2
20760,19.222203,119,0.110185,48,C3,96,2
20880,19.333314,119,0.110185,72,C5,96,1
20880,19.333314,119,0.110185,52,E3,96,2
21000,19.444425,119,0.110185,55,G3,96,2
21120,19.555536,239,0.221296,74,D5,96,1
21120,19.555536,239,0.221296,43,G2,96,2
21600,19.99998,239,0.221296,71,B4,96,1
21600,19.99998,239,0.221296,74,D5,96,1
21600,19.99998,239,0.221296,79,G5,96,1
21600,19.99998,239,0.221296,55,G3,96,2
22080,20.444424,320,0.296296,67,G4,96,1
22080,20.444424,320,0.296296,43,G2,96,2
23040,21.333312,119,0.110185,61,C4#,49,2
23160,21.444423,119,0.110185,62,D4,49,2
23280,21.555534,119,0.110185,61,C4#,49,2
23400,21.666645,119,0.110185,62,D4,49,2
23520,21.777756,119,0.110185,61,C4#,49,2
23640,21.888867,119,0.110185,62,D4,49,2
23760,21.999978,119,0.110185,61,C4#,49,2
23880,22.111089,119,0.110185,62,D4,49,2
24000,22.2222,119,0.110185,60,C4,49,2
24120,22.333311,119,0.110185,62,D4,49,2
24240,22.444422,119,0.110185,60,C4,49,2
24360,22.555533,119,0.110185,62,D4,49,2
24480,22.666644,119,0.110185,60,C4,49,2
24600,22.777755,119,0.110185,62,D4,49,2
24720,22.888866,119,0.110185,60,C4,49,2
24840,22.999977,119,0.110185,62,D4,49,2
24960,23.111088,239,0.221296,86,D6,49,1
24960,23.111088,119,0.110185,59,B3,49,2
25080,23.222199,119,0.110185,62,D4,49,2
25200,23.33331,227,0.210184,83,B5,49,1
25200,23.33331,119,0.110185,59,B3,49,2
25320,23.444421,119,0.110185,62,D4,49,2
25440,23.555532,719,0.66574,79,G5,49,1
25440,23.555532,119,0.110185,59,B3,49,2
25560,23.666643,119,0.110185,62,D4,49,2
25680,23.777754,119,0.110185,59,B3,49,2
25800,23.888865,119,0.110185,62,D4,49,2
25920,23.999976,119,0.110185,59,B3,49,2
26040,24.111087,119,0.110185,62,D4,49,2
26160,24.222198,119,0.110185,81,A5,49,1
26160,24.222198,119,0.110185,59,B3,49,2
26280,24.333309,119,0.110185,83,B5,49,1
26280,24.333309,119,0.110185,62,D4,49,2
26400,24.44442,239,0.221296,81,A5,49,1
26400,24.44442,119,0.110185,59,B3,49,2
26520,24.555531,119,0.110185,62,D4,49,2
26640,24.666642,119,0.110185,79,G5,49,1
26640,24.666642,119,0.110185,59,B3,49,2
26760,24.777753,119,0.110185,62,D4,49,2
26880,24.888864,71,0.06574,79,G5,49,1
26880,24.888864,119,0.110185,60,C4,49,2
26952,24.95553,71,0.065741,81,A5,49,1
27000,24.999975,119,0.110185,62,D4,49,2
27024,25.022197,71,0.06574,79,G5,49,1
27096,25.088863,71,0.065741,81,A5,49,1
27120,25.111086,119,0.110185,59,B3,49,2
27168,25.15553,71,0.065741,79,G5,49,1
27240,25.222197,119,0.110185,78,F5#,49,1
27240,25.222197,119,0.110185,62,D4,49,2
27360,25.333308,455,0.421295,78,F5#,49,1
27360,25.333308,119,0.110185,57,A3,49,2
27480,25.444419,119,0.110185,62,D4,49,2
27600,25.55553,119,0.110185,59,B3,49,2
27720,25.666641,119,0.110185,62,D4,49,2
27840,25.777752,119,0.110185,60,C4,49,2
27960,25.888863,119,0.110185,62,D4,49,2
28080,25.999974,119,0.110185,59,B3,49,2
28200,26.111085,119,0.110185,62,D4,49,2
28320,26.222196,119,0.110185,60,C4,49,2
28440,26.333307,119,0.110185,62,D4,49,2
28560,26.444418,119,0.110185,57,A3,49,2
28680,26.555529,119,0.110185,62,D4,49,2
28800,26.66664,239,0.221296,86,D6,49,1
28800,26.66664,119,0.110185,59,B3,49,2
28920,26.777751,119,0.110185,62,D4,49,2
29040,26.888862,227,0.210184,83,B5,49,1
29040,26.888862,119,0.110185,59,B3,49,2
29160,26.999973,119,0.110185,62,D4,49,2
29280,27.111084,719,0.66574,79,G5,49,1
29280,27.111084,119,0.110185,59,B3,49,2
29400,27.222195,119,0.110185,62,D4,49,2
29520,27.333306,119,0.110185,59,B3,49,2
29640,27.444417,119,0.110185,62,D4,49,2
29760,27.555528,119,0.110185,59,B3,49,2
29880,27.666639,119,0.110185,62,D4,49,2
30000,27.77775,119,0.110185,81,A5,49,1
30000,27.77775,119,0.110185,59,B3,49,2
30120,27.888861,119,0.110185,83,B5,49,1
30120,27.888861,119,0.110185,62,D4,49,2
30240,27.999972,239,0.221296,81,A5,49,1
30240,27.999972,119,0.110185,59,B3,49,2
30360,28.111083,119,0.110185,62,D4,49,2
30480,28.222194,119,0.110185,79,G5,49,1
30480,28.222194,119,0.110185,59,B3,49,2
30600,28.333305,119,0.110185,62,D4,49,2
30720,28.444416,71,0.06574,79,G5,49,1
30720,28.444416,119,0.110185,60,C4,49,2
30792,28.511082,71,0.065741,81,A5,49,1
30840,28.555527,119,0.110185,62,D4,49,2
30864,28.577749,71,0.06574,79,G5,49,1
30936,28.644415,71,0.065741,81,A5,49,1
30960,28.666638,119,0.110185,59,B3,49,2
31008,28.711082,71,0.065741,79,G5,49,1
31080,28.777749,119,0.110185,78,F5#,49,1
31080,28.777749,119,0.110185,62,D4,49,2
31200,28.88886,455,0.421295,78,F5#,49,1
31200,28.88886,119,0.110185,57,A3,49,2
31320,28.999971,119,0.110185,62,D4,49,2
31440,29.111082,119,0.110185,59,B3,49,2
31560,29.222193,119,0.110185,62,D4,49,2
31680,29.333304,119,0.110185,60,C4,49,2
31800,29.444415,119,0.110185,62,D4,49,2
31920,29.555526,119,0.110185,59,B3,49,2
32040,29.666637,119,0.110185,62,D4,49,2
32160,29.777748,119,0.110185,60,C4,49,2
32280,29.888859,119,0.110185,62,D4,49,2
32400,29.99997,119,0.110185,57,A3,49,2
32520,30.111081,119,0.110185,62,D4,49,2
32640,30.222192,479,0.443518,86,D6,49,1
32760,30.333303,119,0.110185,59,B3,49,2
32880,30.444414,119,0.110185,62,D4,49,2
33000,30.555525,119,0.110185,67,G4,49,2
33120,30.666636,479,0.443518,71,B4,49,2
33240,30.777747,119,0.110185,86,D6,49,1
33360,30.888858,119,0.110185,83,B5,49,1
33480,30.999969,119,0.110185,79,G5,49,1
33600,31.11108,479,0.443518,76,E5,49,1
33720,31.222191,119,0.110185,60,C4,49,2
33840,31.333302,119,0.110185,64,E4,49,2
33960,31.444413,119,0.110185,67,G4,49,2
34080,31.555524,479,0.443518,72,C5,49,2
34200,31.666635,119,0.110185,76,E5,49,1
34320,31.777746,119,0.110185,79,G5,49,1
34440,31.888857,119,0.110185,76,E5,49,1
34560,31.999968,479,0.443518,84,C6,49,1
34680,32.111079,119,0.110185,57,A3,49,2
34800,32.22219,119,0.110185,60,C4,49,2
34920,32.333301,119,0.110185,66,F4#,49,2
35040,32.444412,479,0.443518,69,A4,49,2
35160,32.555523,119,0.110185,84,C6,49,1
35280,32.666634,119,0.110185,81,A5,49,1
35400,32.777745,119,0.110185,78,F5#,49,1
35520,32.888856,479,0.443518,74,D5,49,1
35640,32.999967,119,0.110185,59,B3,49,2
35760,33.111078,119,0.110185,62,D4,49,2
35880,33.222189,119,0.110185,67,G4,49,2
36000,33.3333,479,0.443518,71,B4,49,2
36120,33.444411,119,0.110185,74,D5,49,1
36240,33.555522,119,0.110185,79,G5,49,1
36360,33.666633,119,0.110185,74,D5,49,1
36480,33.777744,479,0.443518,83,B5,49,1
36600,33.888855,119,0.110185,55,G3,49,2
36720,33.999966,119,0.110185,59,B3,49,2
36840,34.111077,119,0.110185,64,E4,49,2
36960,34.222188,479,0.443518,67,G4,49,2
37080,34.333299,119,0.110185,83,B5,49,1
37200,34.44441,119,0.110185,79,G5,49,1
37320,34.555521,119,0.110185,76,E5,49,1
37440,34.666632,479,0.443518,72,C5,49,1
37560,34.777743,119,0.110185,57,A3,49,2
37680,34.888854,119,0.110185,60,C4,49,2
37800,34.999965,119,0.110185,64,E4,49,2
37920,35.111076,479,0.443518,69,A4,49,2
38040,35.222187,119,0.110185,72,C5,49,1
38160,35.333298,119,0.110185,76,E5,49,1
38280,35.444409,119,0.110185,72,C5,49,1
38400,35.55552,479,0.443518,81,A5,49,1
38520,35.666631,119,0.110185,54,F3#,49,2
38640,35.777742,119,0.110185,57,A3,49,2
38760,35.888853,119,0.110185,62,D4,49,2
38880,35.999964,479,0.443518,66,F4#,49,2
39000,36.111075,119,0.110185,81,A5,49,1
39120,36.222186,119,0.110185,78,F5#,49,1
39240,36.333297,119,0.110185,74,D5,49,1
39360,36.444408,479,0.443518,71,B4,49,1
39480,36.555519,119,0.110185,55,G3,49,2
39600,36.66663,119,0.110185,59,B3,49,2
39720,36.777741,119,0.110185,62,D4,49,2
39840,36.888852,479,0.443518,67,G4,49,2
39960,36.999963,119,0.110185,79,G5,49,1
40080,37.111074,119,0.110185,74,D5,49,1
40200,37.222185,119,0.110185,71,B4,49,1
40320,37.333296,959,0.887962,69,A4,49,1
40320,37.333296,119,0.110185,60,C4,49,2
40320,37.333296,119,0.110185,64,E4,49,2
40560,37.555518,119,0.110185,60,C4,50,2
40560,37.555518,119,0.110185,64,E4,50,2
40800,37.77774,119,0.110185,60,C4,51,2
40800,37.77774,119,0.110185,64,E4,51,2
41040,37.999962,119,0.110185,60,C4,53,2
41040,37.999962,119,0.110185,64,E4,53,2
41280,38.222184,69,0.063888,71,B4,54,1
41280,38.222184,119,0.110185,60,C4,54,2
41280,38.222184,119,0.110185,64,E4,54,2
41350,38.286998,388,0.359259,72,C5,54,1
41520,38.444406,119,0.110185,60,C4,56,2
41520,38.444406,119,0.110185,64,E4,56,2
41760,38.666628,69,0.063888,75,D5#,57,1
41760,38.666628,119,0.110185,60,C4,57,2
41760,38.666628,119,0.110185,64,E4,57,2
41830,38.731442,388,0.359259,76,E5,57,1
42000,38.88885,119,0.110185,60,C4,59,2
42000,38.88885,119,0.110185,64,E4,59,2
42240,39.111072,69,0.063888,80,G5#,60,1
42240,39.111072,119,0.110185,60,C4,60,2
42240,39.111072,119,0.110185,64,E4,60,2
42310,39.175886,616,0.57037,81,A5,60,1
42480,39.333294,119,0.110185,60,C4,62,2
42480,39.333294,119,0.110185,64,E4,62,2
42720,39.555516,119,0.110185,60,C4,63,2
42720,39.555516,119,0.110185,64,E4,63,2
42960,39.777738,59,0.054629,83,B5,65,1
42960,39.777738,119,0.110185,60,C4,65,2
42960,39.777738,119,0.110185,64,E4,65,2
43020,39.833293,59,0.05463,81,A5,65,1
43080,39.888849,59,0.054629,80,G5#,65,1
43140,39.944404,59,0.05463,81,A5,66,1
43200,39.99996,239,0.221296,84,C6,66,1
43200,39.99996,119,0.110185,60,C4,66,2
43200,39.99996,119,0.110185,64,E4,66,2
43440,40.222182,227,0.210184,81,A5,68,1
43440,40.222182,119,0.110185,60,C4,68,2
43440,40.222182,119,0.110185,64,E4,68,2
43680,40.444404,239,0.221296,84,C6,69,1
43680,40.444404,119,0.110185,60,C4,69,2
43680,40.444404,119,0.110185,64,E4,69,2
43920,40.666626,227,0.210184,81,A5,71,1
43920,40.666626,119,0.110185,60,C4,71,2
43920,40.666626,119,0.110185,64,E4,71,2
44160,40.888848,239,0.221296,83,B5,72,1
44160,40.888848,119,0.110185,62,D4,72,2
44280,40.999959,119,0.110185,71,B4,73,2
44400,41.11107,227,0.210184,79,G5,73,1
44400,41.11107,119,0.110185,67,G4,73,2
44520,41.222181,119,0.110185,71,B4,74,2
44640,41.333292,959,0.887962,86,D6,75,1
44640,41.333292,119,0.110185,62,D4,75,2
44760,41.444403,119,0.110185,71,B4,76,2
44880,41.555514,119,0.110185,67,G4,76,2
45000,41.666625,119,0.110185,71,B4,77,2
45120,41.777736,119,0.110185,62,D4,78,2
45240,41.888847,119,0.110185,71,B4,79,2
45360,41.999958,119,0.110185,67,G4,79,2
45480,42.111069,119,0.110185,71,B4,80,2
45600,42.22218,119,0.110185,84,C6,81,1
45600,42.22218,119,0.110185,62,D4,81,2
45720,42.333291,119,0.110185,83,B5,82,1
45720,42.333291,119,0.110185,71,B4,82,2
45840,42.444402,119,0.110185,81,A5,82,1
45840,42.444402,119,0.110185,67,G4,82,2
45960,42.555513,113,0.104629,79,G5,83,1
45960,42.555513,119,0.110185,71,B4,83,2
46080,42.666624,59,0.054629,81,A5,84,1
46080,42.666624,119,0.110185,62,D4,84,2
46140,42.722179,59,0.05463,83,B5,84,1
46200,42.777735,59,0.054629,81,A5,84,1
46200,42.777735,119,0.110185,72,C5,84,2
46260,42.83329,59,0.05463,83,B5,85,1
46320,42.888846,59,0.054629,81,A5,85,1
46320,42.888846,119,0.110185,66,F4#,85,2
46380,42.944401,59,0.05463,83,B5,86,1
46440,42.999957,59,0.054629,81,A5,86,1
46440,42.999957,119,0.110185,72,C5,86,2
46500,43.055512,59,0.05463,83,B5,86,1
46560,43.111068,59,0.054629,81,A5,87,1
46560,43.111068,119,0.110185,62,D4,87,2
46620,43.166623,59,0.05463,83,B5,87,1
46680,43.222179,59,0.054629,81,A5,87,1
46680,43.222179,119,0.110185,72,C5,87,2
46740,43.277734,59,0.05463,83,B5,88,1
46800,43.33329,59,0.054629,81,A5,88,1
46800,43.33329,119,0.110185,66,F4#,88,2
46860,43.388845,59,0.05463,83,B5,89,1
46920,43.444401,59,0.054629,81,A5,89,1
46920,43.444401,119,0.110185,72,C5,89,2
46980,43.499956,59,0.05463,83,B5,89,1
47040,43.555512,59,0.054629,81,A5,90,1
47040,43.555512,119,0.110185,62,D4,90,2
47100,43.611067,59,0.05463,83,B5,90,1
47160,43.666623,59,0.054629,81,A5,90,1
47160,43.666623,119,0.110185,72,C5,90,2
47220,43.722178,59,0.05463,83,B5,91,1
47280,43.777734,68,0.062962,81,A5,91,1
47280,43.777734,119,0.110185,66,F4#,91,2
47349,43.841622,68,0.062963,83,B5,92,1
47400,43.888845,119,0.110185,72,C5,92,2
47418,43.905511,68,0.062963,81,A5,92,1
47487,43.9694,68,0.062963,83,B5,92,1
47520,43.999956,119,0.110185,62,D4,93,2
47556,44.033289,68,0.062963,81,A5,93,1
47625,44.097178,68,0.062963,83,B5,93,1
47640,44.111067,119,0.110185,72,C5,93,2
47694,44.161066,68,0.062963,81,A5,94,1
47760,44.222178,59,0.054629,83,B5,94,1
47760,44.222178,119,0.110185,66,F4#,94,2
47820,44.277733,59,0.05463,81,A5,94,1
47880,44.333289,59,0.054629,79,G5,95,1
47880,44.333289,119,0.110185,72,C5,95,2
47940,44.388844,59,0.05463,81,A5,95,1
48000,44.4444,455,0.421295,79,G5,96,1
48000,44.4444,455,0.421295,67,G4,96,2
48000,44.4444,455,0.421295,71,B4,96,2
48480,44.888844,119,0.110185,79,G5,96,1
48600,44.999955,119,0.110185,74,D5,96,1
48720,45.111066,119,0.110185,79,G5,96,1
48840,45.222177,119,0.110185,83,B5,96,1
48960,45.333288,119,0.110185,86,D6,96,1
49080,45.444399,119,0.110185,83,B5,96,1
49200,45.55551,119,0.110185,79,G5,96,1
49320,45.666621,119,0.110185,83,B5,96,1
49440,45.777732,119,0.110185,84,C6,96,1
49440,45.777732,479,0.443518,62,D4,96,2
49440,45.777732,479,0.443518,69,A4,96,2
49440,45.777732,479,0.443518,72,C5,96,2
49560,45.888843,119,0.110185,81,A5,96,1
49680,45.999954,119,0.110185,78,F5#,96,1
49800,46.111065,119,0.110185,81,A5,96,1
49920,46.222176,455,0.421295,79,G5,96,1
49920,46.222176,455,0.421295,67,G4,96,2
49920,46.222176,455,0.421295,71,B4,96,2
50400,46.66662,119,0.110185,67,G4,96,1
50520,46.777731,119,0.110185,62,D4,96,1
50640,46.888842,119,0.110185,67,G4,96,1
50760,46.999953,119,0.110185,71,B4,96,1
50880,47.111064,119,0.110185,74,D5,96,1
51000,47.222175,119,0.110185,71,B4,96,1
51120,47.333286,119,0.110185,67,G4,96,1
51240,47.444397,119,0.110185,71,B4,96,1
51360,47.555508,119,0.110185,72,C5,96,1
51360,47.555508,479,0.443518,50,D3,96,2
51360,47.555508,479,0.443518,57,A3,96,2
51360,47.555508,479,0.443518,60,C4,96,2
51480,47.666619,119,0.110185,69,A4,96,1
51600,47.77773,119,0.110185,66,F4#,96,1
51720,47.888841,119,0.110185,69,A4,96,1
51840,47.999952,239,0.221296,67,G4,96,1
51840,47.999952,239,0.221296,55,G3,96,2
51840,47.999952,239,0.221296,59,B3,96,2
52320,48.444396,239,0.221296,74,D5,96,1
52320,48.444396,239,0.221296,83,B5,96,1
52320,48.444396,239,0.221296,43,G2,96,2
52320,48.444396,239,0.221296,55,G3,96,2
52800,48.88884,320,0.296296,71,B4,96,1
52800,48.88884,320,0.296296,79,G5,96,1
52800,48.88884,320,0.296296,43,G2,96,2
52800,48.88884,320,0.296296,55,G3,96,2
53760,49.777728,959,0.887962,72,C5,49,1
53760,49.777728,239,0.221296,60,C4,49,2
54000,49.99995,239,0.221296,67,G4,49,2
54240,50.222172,239,0.221296,64,E4,49,2
54480,50.444394,239,0.221296,67,G4,49,2
54720,50.666616,455,0.421295,76,E5,49,1
54720,50.666616,239,0.221296,60,C4,49,2
54960,50.888838,239,0.221296,67,G4,49,2
55200,51.11106,455,0.421295,79,G5,49,1
55200,51.11106,239,0.221296,64,E4,49,2
55440,51.333282,239,0.221296,67,G4,49,2
55680,51.555504,719,0.66574,71,B4,49,1
55680,51.555504,239,0.221296,62,D4,49,2
55920,51.777726,239,0.221296,67,G4,49,2
56160,51.999948,239,0.221296,65,F4,49,2
56400,52.22217,119,0.110185,72,C5,49,1
56400,52.22217,239,0.221296,67,G4,49,2
56520,52.333281,119,0.110185,74,D5,49,1
56640,52.444392,911,0.843517,72,C5,49,1
56640,52.444392,239,0.221296,60,C4,49,2
56880,52.666614,239,0.221296,67,G4,49,2
57120,52.888836,239,0.221296,64,E4,49,2
57360,53.111058,239,0.221296,67,G4,49,2
57600,53.33328,959,0.887962,81,A5,49,1
57600,53.33328,239,0.221296,60,C4,49,2
57840,53.555502,239,0.221296,69,A4,49,2
58080,53.777724,239,0.221296,65,F4,49,2
58320,53.999946,239,0.221296,69,A4,49,2
58560,54.222168,455,0.421295,79,G5,49,1
58560,54.222168,239,0.221296,60,C4,49,2
58800,54.44439,239,0.221296,67,G4,49,2
59040,54.666612,455,0.421295,84,C6,49,1
59040,54.666612,239,0.221296,64,E4,49,2
59280,54.888834,239,0.221296,67,G4,49,2
59520,55.111056,479,0.443518,79,G5,49,1
59520,55.111056,239,0.221296,59,B3,49,2
59760,55.333278,239,0.221296,67,G4,49,2
60000,55.5555,47,0.043518,77,F5,49,1
60000,55.5555,239,0.221296,62,D4,49,2
60048,55.599944,47,0.043518,79,G5,49,1
60096,55.644388,47,0.043519,77,F5,49,1
60144,55.688833,47,0.043518,79,G5,49,1
60192,55.733277,47,0.043519,77,F5,49,1
60240,55.777722,119,0.110185,76,E5,49,1
60240,55.777722,239,0.221296,67,G4,49,2
60360,55.888833,119,0.110185,77,F5,49,1
60480,55.999944,455,0.421295,76,E5,49,1
60480,55.999944,239,0.221296,60,C4,49,2
60720,56.222166,239,0.221296,67,G4,49,2
60960,56.444388,239,0.221296,64,E4,49,2
61200,56.66661,239,0.221296,67,G4,49,2
61440,56.888832,239,0.221296,69,A4,49,1
61440,56.888832,455,0.421295,65,F4,49,2
61680,57.111054,119,0.110185,71,B4,49,1
61800,57.222165,119,0.110185,72,C5,49,1
61920,57.333276,119,0.110185,74,D5,49,1
62040,57.444387,119,0.110185,76,E5,49,1
62160,57.555498,119,0.110185,77,F5,49,1
62280,57.666609,119,0.110185,79,G5,49,1
62400,57.77772,119,0.110185,81,A5,49,1
62520,57.888831,119,0.110185,79,G5,49,1
62640,57.999942,119,0.110185,77,F5,49,1
62760,58.111053,119,0.110185,76,E5,49,1
62880,58.222164,119,0.110185,74,D5,49,1
62880,58.222164,455,0.421295,53,F3,49,2
62880,58.222164,455,0.421295,60,C4,49,2
63000,58.333275,119,0.110185,72,C5,49,1
63120,58.444386,119,0.110185,71,B4,49,1
63240,58.555497,119,0.110185,69,A4,49,1
63360,58.666608,239,0.221296,67,G4,49,1
63360,58.666608,455,0.421295,52,E3,49,2
63360,58.666608,455,0.421295,60,C4,49,2
63600,58.88883,119,0.110185,69,A4,49,1
63720,58.999941,119,0.110185,71,B4,49,1
63840,59.111052,119,0.110185,72,C5,49,1
63960,59.222163,119,0.110185,74,D5,49,1
64080,59.333274,119,0.110185,76,E5,49,1
64200,59.444385,119,0.110185,77,F5,49,1
64320,59.555496,119,0.110185,79,G5,49,1
64440,59.666607,119,0.110185,77,F5,49,1
64560,59.777718,119,0.110185,76,E5,49,1
64680,59.888829,119,0.110185,74,D5,49,1
64800,59.99994,119,0.110185,72,C5,49,1
64800,59.99994,455,0.421295,52,E3,49,2
64800,59.99994,455,0.421295,60,C4,49,2
64920,60.111051,119,0.110185,71,B4,49,1
65040,60.222162,119,0.110185,69,A4,49,1
65160,60.333273,119,0.110185,67,G4,49,1
65280,60.444384,239,0.221296,65,F4,49,1
65280,60.444384,455,0.421295,50,D3,49,2
65280,60.444384,455,0.421295,60,C4,49,2
65520,60.666606,119,0.110185,67,G4,49,1
65640,60.777717,119,0.110185,69,A4,49,1
65760,60.888828,119,0.110185,71,B4,49,1
65880,60.999939,119,0.110185,72,C5,49,1
66000,61.11105,119,0.110185,74,D5,49,1
66120,61.222161,119,0.110185,76,E5,49,1
66240,61.333272,119,0.110185,77,F5,49,1
66360,61.444383,119,0.110185,76,E5,49,1
66480,61.555494,119,0.110185,74,D5,49,1
66600,61.666605,119,0.110185,72,C5,49,1
66720,61.777716,119,0.110185,71,B4,49,1
66720,61.777716,455,0.421295,50,D3,49,2
66720,61.777716,455,0.421295,59,B3,49,2
66840,61.888827,119,0.110185,69,A4,49,1
66960,61.999938,119,0.110185,67,G4,49,1
67080,62.111049,119,0.110185,65,F4,49,1
67200,62.22216,239,0.221296,64,E4,49,1
67200,62.22216,455,0.421295,48,C3,49,2
67200,62.22216,455,0.421295,60,C4,49,2
67440,62.444382,119,0.110185,65,F4,49,1
67560,62.555493,119,0.110185,67,G4,49,1
67680,62.666604,119,0.110185,69,A4,49,1
67800,62.777715,119,0.110185,71,B4,49,1
67920,62.888826,119,0.110185,72,C5,49,1
68040,62.999937,119,0.110185,74,D5,49,1
68160,63.111048,119,0.110185,76,E5,49,1
68280,63.222159,119,0.110185,74,D5,49,1
68400,63.33327,119,0.110185,72,C5,49,1
68520,63.444381,119,0.110185,71,B4,49,1
68640,63.555492,119,0.110185,69,A4,49,1
68640,63.555492,455,0.421295,48,C3,49,2
68640,63.555492,455,0.421295,52,E3,49,2
68760,63.666603,119,0.110185,67,G4,49,1
68880,63.777714,119,0.110185,65,F4,49,1
69000,63.888825,119,0.110185,64,E4,49,1
69120,63.999936,239,0.221296,62,D4,49,1
69120,63.999936,1823,1.687961,53,F3,49,2
69120,63.999936,1823,1.687961,57,A3,49,2
69360,64.222158,119,0.110185,64,E4,51,1
69480,64.333269,119,0.110185,65,F4,53,1
69600,64.44438,119,0.110185,67,G4,54,1
69720,64.555491,119,0.110185,69,A4,56,1
69840,64.666602,119,0.110185,71,B4,57,1
69960,64.777713,119,0.110185,73,C5#,59,1
70080,64.888824,119,0.110185,74,D5,60,1
70200,64.999935,119,0.110185,69,A4,62,1
70320,65.111046,119,0.110185,71,B4,63,1
70440,65.222157,119,0.110185,73,C5#,65,1
70560,65.333268,119,0.110185,74,D5,66,1
70680,65.444379,119,0.110185,76,E5,68,1
70800,65.55549,119,0.110185,77,F5,69,1
70920,65.666601,119,0.110185,79,G5,71,1
71040,65.777712,119,0.110185,81,A5,72,1
71040,65.777712,683,0.632406,53,F3,72,2
71160,65.888823,119,0.110185,83,B5,73,1
71280,65.999934,119,0.110185,84,C6,75,1
71400,66.111045,119,0.110185,83,B5,76,1
71520,66.222156,119,0.110185,81,A5,78,1
71640,66.333267,119,0.110185,79,G5,79,1
71760,66.444378,119,0.110185,77,F5,81,1
71760,66.444378,227,0.210184,55,G3,81,2
71880,66.555489,119,0.110185,76,E5,82,1
72000,66.6666,119,0.110185,77,F5,84,1
72000,66.6666,683,0.632406,57,A3,84,2
72120,66.777711,119,0.110185,79,G5,85,1
72240,66.888822,119,0.110185,81,A5,87,1
72360,66.999933,119,0.110185,79,G5,88,1
72480,67.111044,119,0.110185,77,F5,90,1
72600,67.222155,119,0.110185,76,E5,91,1
72720,67.333266,119,0.110185,74,D5,93,1
72720,67.333266,227,0.210184,54,F3#,93,2
72840,67.444377,119,0.110185,72,C5,94,1
72960,67.555488,119,0.110185,71,B4,96,1
72960,67.555488,119,0.110185,43,G2,96,2
73080,67.666599,119,0.110185,47,B2,96,2
73200,67.77771,119,0.110185,79,G5,96,1
73200,67.77771,119,0.110185,50,D3,96,2
73320,67.888821,119,0.110185,55,G3,96,2
73440,67.999932,119,0.110185,76,E5,96,1
73440,67.999932,119,0.110185,43,G2,96,2
73560,68.111043,119,0.110185,48,C3,96,2
73680,68.222154,119,0.110185,72,C5,96,1
73680,68.222154,119,0.110185,52,E3,96,2
73800,68.333265,119,0.110185,55,G3,96,2
73920,68.444376,119,0.110185,74,D5,96,1
73920,68.444376,119,0.110185,43,G2,96,2
74040,68.555487,119,0.110185,47,B2,96,2
74160,68.666598,119,0.110185,79,G5,96,1
74160,68.666598,119,0.110185,50,D3,96,2
74280,68.777709,119,0.110185,55,G3,96,2
74400,68.88882,119,0.110185,76,E5,96,1
74400,68.88882,119,0.110185,43,G2,96,2
74520,68.999931,119,0.110185,48,C3,96,2
74640,69.111042,119,0.110185,72,C5,96,1
74640,69.111042,119,0.110185,52,E3,96,2
74760,69.222153,119,0.110185,55,G3,96,2
74880,69.333264,239,0.221296,74,D5,96,1
74880,69.333264,239,0.221296,43,G2,96,2
75360,69.777708,239,0.221296,71,B4,96,1
75360,69.777708,239,0.221296,74,D5,96,1
75360,69.777708,239,0.221296,79,G5,96,1
75360,69.777708,239,0.221296,55,G3,96,2
75840,70.222152,320,0.296296,67,G4,96,1
75840,70.222152,320,0.296296,43,G2,96,2
76800,71.11104,119,0.110185,61,C4#,49,2
76920,71.222151,119,0.110185,62,D4,49,2
77040,71.333262,119,0.110185,61,C4#,49,2
77160,71.444373,119,0.110185,62,D4,49,2
77280,71.555484,119,0.110185,61,C4#,49,2
77400,71.666595,119,0.110185,62,D4,49,2
77520,71.777706,119,0.110185,61,C4#,49,2
77640,71.888817,119,0.110185,62,D4,49,2
77760,71.999928,119,0.110185,60,C4,49,2
77880,72.111039,119,0.110185,62,D4,49,2
78000,72.22215,119,0.110185,60,C4,49,2
78120,72.333261,119,0.110185,62,D4,49,2
78240,72.444372,119,0.110185,60,C4,49,2
78360,72.555483,119,0.110185,62,D4,49,2
78480,72.666594,119,0.110185,60,C4,49,2
78600,72.777705,119,0.110185,62,D4,49,2
78720,72.888816,239,0.221296,86,D6,49,1
78720,72.888816,119,0.110185,59,B3,49,2
78840,72.999927,119,0.110185,62,D4,49,2
78960,73.111038,227,0.210184,83,B5,49,1
78960,73.111038,119,0.110185,59,B3,49,2
79080,73.222149,119,0.110185,62,D4,49,2
79200,73.33326,719,0.66574,79,G5,49,1
79200,73.33326,119,0.110185,59,B3,49,2
79320,73.444371,119,0.110185,62,D4,49,2
79440,73.555482,119,0.110185,59,B3,49,2
79560,73.666593,119,0.110185,62,D4,49,2
79680,73.777704,119,0.110185,59,B3,49,2
79800,73.888815,119,0.110185,62,D4,49,2
79920,73.999926,119,0.110185,81,A5,49,1
79920,73.999926,119,0.110185,59,B3,49,2
80040,74.111037,119,0.110185,83,B5,49,1
80040,74.111037,119,0.110185,62,D4,49,2
80160,74.222148,239,0.221296,81,A5,49,1
80160,74.222148,119,0.110185,59,B3,49,2
80280,74.333259,119,0.110185,62,D4,49,2
80400,74.44437,119,0.110185,79,G5,49,1
80400,74.44437,119,0.110185,59,B3,49,2
80520,74.555481,119,0.110185,62,D4,49,2
80640,74.666592,71,0.06574,79,G5,49,1
80640,74.666592,119,0.110185,60,C4,49,2
80712,74.733258,71,0.065741,81,A5,49,1
80760,74.777703,119,0.110185,62,D4,49,2
80784,74.799925,71,0.06574,79,G5,49,1
80856,74.866591,71,0.065741,81,A5,49,1
80880,74.888814,119,0.110185,59,B3,49,2
80928,74.933258,71,0.065741,79,G5,49,1
81000,74.999925,119,0.110185,78,F5#,49,1
81000,74.999925,119,0.110185,62,D4,49,2
81120,75.111036,455,0.421295,78,F5#,49,1
81120,75.111036,119,0.110185,57,A3,49,2
81240,75.222147,119,0.110185,62,D4,49,2
81360,75.333258,119,0.110185,59,B3,49,2
81480,75.444369,119,0.110185,62,D4,49,2
81600,75.55548,119,0.110185,60,C4,49,2
81720,75.666591,119,0.110185,62,D4,49,2
81840,75.777702,119,0.110185,59,B3,49,2
81960,75.888813,119,0.110185,62,D4,49,2
82080,75.999924,119,0.110185,60,C4,49,2
82200,76.111035,119,0.110185,62,D4,49,2
82320,76.222146,119,0.110185,57,A3,49,2
82440,76.333257,119,0.110185,62,D4,49,2
82560,76.444368,239,0.221296,86,D6,49,1
82560,76.444368,119,0.110185,59,B3,49,2
82680,76.555479,119,0.110185,62,D4,49,2
82800,76.66659,227,0.210184,83,B5,49,1
82800,76.66659,119,0.110185,59,B3,49,2
82920,76.777701,119,0.110185,62,D4,49,2
83040,76.888812,719,0.66574,79,G5,49,1
83040,76.888812,119,0.110185,59,B3,49,2
83160,76.999923,119,0.110185,62,D4,49,2
83280,77.111034,119,0.110185,59,B3,49,2
83400,77.222145,119,0.110185,62,D4,49,2
83520,77.333256,119,0.110185,59,B3,49,2
83640,77.444367,119,0.110185,62,D4,49,2
83760,77.555478,119,0.110185,81,A5,49,1
83760,77.555478,119,0.110185,59,B3,49,2
83880,77.666589,119,0.110185,83,B5,49,1
83880,77.666589,119,0.110185,62,D4,49,2
84000,77.7777,239,0.221296,81,A5,49,1
84000,77.7777,119,0.110185,59,B3,49,2
84120,77.888811,119,0.110185,62,D4,49,2
84240,77.999922,119,0.110185,79,G5,49,1
84240,77.999922,119,0.110185,59,B3,49,2
84360,78.111033,119,0.110185,62,D4,49,2
84480,78.222144,71,0.06574,79,G5,49,1
84480,78.222144,119,0.110185,60,C4,49,2
84552,78.28881,71,0.065741,81,A5,49,1
84600,78.333255,119,0.110185,62,D4,49,2
84624,78.355477,71,0.06574,79,G5,49,1
84696,78.422143,71,0.065741,81,A5,49,1
84720,78.444366,119,0.110185,59,B3,49,2
84768,78.48881,71,0.065741,79,G5,49,1
84840,78.555477,119,0.110185,78,F5#,49,1
84840,78.555477,119,0.110185,62,D4,49,2
84960,78.666588,455,0.421295,78,F5#,49,1
84960,78.666588,119,0.110185,57,A3,49,2
85080,78.777699,119,0.110185,62,D4,49,2
85200,78.88881,119,0.110185,59,B3,49,2
85320,78.999921,119,0.110185,62,D4,49,2
85440,79.111032,119,0.110185,60,C4,49,2
85560,79.222143,119,0.110185,62,D4,49,2
85680,79.333254,119,0.110185,59,B3,49,2
85800,79.444365,119,0.110185,62,D4,49,2
85920,79.555476,119,0.110185,60,C4,49,2
86040,79.666587,119,0.110185,62,D4,49,2
86160,79.777698,119,0.110185,57,A3,49,2
86280,79.888809,119,0.110185,62,D4,49,2
86400,79.99992,479,0.443518,86,D6,49,1
86520,80.111031,119,0.110185,59,B3,49,2
86640,80.222142,119,0.110185,62,D4,49,2
86760,80.333253,119,0.110185,67,G4,49,2
86880,80.444364,479,0.443518,71,B4,49,2
87000,80.555475,119,0.110185,86,D6,49,1
87120,80.666586,119,0.110185,83,B5,49,1
87240,80.777697,119,0.110185,79,G5,49,1
87360,80.888808,479,0.443518,76,E5,49,1
87480,80.999919,119,0.110185,60,C4,49,2
87600,81.11103,119,0.110185,64,E4,49,2
87720,81.222141,119,0.110185,67,G4,49,2
87840,81.333252,479,0.443518,72,C5,49,2
87960,81.444363,119,0.110185,76,E5,49,1
88080,81.555474,119,0.110185,79,G5,49,1
88200,81.666585,119,0.110185,76,E5,49,1
88320,81.777696,479,0.443518,84,C6,49,1
88440,81.888807,119,0.110185,57,A3,49,2
88560,81.999918,119,0.110185,60,C4,49,2
88680,82.111029,119,0.110185,66,F4#,49,2
88800,82.22214,479,0.443518,69,A4,49,2
88920,82.333251,119,0.110185,84,C6,49,1
89040,82.444362,119,0.110185,81,A5,49,1
89160,82.555473,119,0.110185,78,F5#,49,1
89280,82.666584,479,0.443518,74,D5,49,1
89400,82.777695,119,0.110185,59,B3,49,2
89520,82.888806,119,0.110185,62,D4,49,2
89640,82.999917,119,0.110185,67,G4,49,2
89760,83.111028,479,0.443518,71,B4,49,2
89880,83.222139,119,0.110185,74,D5,49,1
90000,83.33325,119,0.110185,79,G5,49,1
90120,83.444361,119,0.110185,74,D5,49,1
90240,83.555472,479,0.443518,83,B5,49,1
90360,83.666583,119,0.110185,55,G3,49,2
90480,83.777694,119,0.110185,59,B3,49,2
90600,83.888805,119,0.110185,64,E4,49,2
90720,83.999916,479,0.443518,67,G4,49,2
90840,84.111027,119,0.110185,83,B5,49,1
90960,84.222138,119,0.110185,79,G5,49,1
91080,84.333249,119,0.110185,76,E5,49,1
91200,84.44436,479,0.443518,72,C5,49,1
91320,84.555471,119,0.110185,57,A3,49,2
91440,84.666582,119,0.110185,60,C4,49,2
91560,84.777693,119,0.110185,64,E4,49,2
91680,84.888804,479,0.443518,69,A4,49,2
91800,84.999915,119,0.110185,72,C5,49,1
91920,85.111026,119,0.110185,76,E5,49,1
92040,85.222137,119,0.110185,72,C5,49,1
92160,85.333248,479,0.443518,81,A5,49,1
92280,85.444359,119,0.110185,54,F3#,49,2
92400,85.55547,119,0.110185,57,A3,49,2
92520,85.666581,119,0.110185,62,D4,49,2
92640,85.777692,479,0.443518,66,F4#,49,2
92760,85.888803,119,0.110185,81,A5,49,1
92880,85.999914,119,0.110185,78,F5#,49,1
93000,86.111025,119,0.110185,74,D5,49,1
93120,86.222136,479,0.443518,71,B4,49,1
93240,86.333247,119,0.110185,55,G3,49,2
93360,86.444358,119,0.110185,59,B3,49,2
93480,86.555469,119,0.110185,62,D4,49,2
93600,86.66658,479,0.443518,67,G4,49,2
93720,86.777691,119,0.110185,79,G5,49,1
93840,86.888802,119,0.110185,74,D5,49,1
93960,86.999913,119,0.110185,71,B4,49,1
94080,87.111024,959,0.887962,69,A4,49,1
94080,87.111024,119,0.110185,60,C4,49,2
94080,87.111024,119,0.110185,64,E4,49,2
94320,87.333246,119,0.110185,60,C4,50,2
94320,87.333246,119,0.110185,64,E4,50,2
94560,87.555468,119,0.110185,60,C4,51,2
94560,87.555468,119,0.110185,64,E4,51,2
94800,87.77769,119,0.110185,60,C4,53,2
94800,87.77769,119,0.110185,64,E4,53,2
95040,87.999912,69,0.063888,71,B4,54,1
95040,87.999912,119,0.110185,60,C4,54,2
95040,87.999912,119,0.110185,64,E4,54,2
95110,88.064726,388,0.359259,72,C5,54,1
95280,88.222134,119,0.110185,60,C4,56,2
95280,88.222134,119,0.110185,64,E4,56,2
95520,88.444356,69,0.063888,75,D5#,57,1
95520,88.444356,119,0.110185,60,C4,57,2
95520,88.444356,119,0.110185,64,E4,57,2
95590,88.50917,388,0.359259,76,E5,57,1
95760,88.666578,119,0.110185,60,C4,59,2
95760,88.666578,119,0.110185,64,E4,59,2
96000,88.8888,69,0.063888,80,G5#,60,1
96000,88.8888,119,0.110185,60,C4,60,2
96000,88.8888,119,0.110185,64,E4,60,2
96070,88.953614,616,0.57037,81,A5,60,1
96240,89.111022,119,0.110185,60,C4,62,2
96240,89.111022,119,0.110185,64,E4,62,2
96480,89.333244,119,0.110185,60,C4,63,2
96480,89.333244,119,0.110185,64,E4,63,2
96720,89.555466,59,0.054629,83,B5,65,1
96720,89.555466,119,0.110185,60,C4,65,2
96720,89.555466,119,0.110185,64,E4,65,2
96780,89.611021,59,0.05463,81,A5,65,1
96840,89.666577,59,0.054629,80,G5#,65,1
96900,89.722132,59,0.05463,81,A5,66,1
96960,89.777688,239,0.221296,84,C6,66,1
96960,89.777688,119,0.110185,60,C4,66,2
96960,89.777688,119,0.110185,64,E4,66,2
97200,89.99991,227,0.210184,81,A5,68,1
97200,89.99991,119,0.110185,60,C4,68,2
97200,89.99991,119,0.110185,64,E4,68,2
97440,90.222132,239,0.221296,84,C6,69,1
97440,90.222132,119,0.110185,60,C4,69,2
97440,90.222132,119,0.110185,64,E4,69,2
97680,90.444354,227,0.210184,81,A5,71,1
97680,90.444354,119,0.110185,60,C4,71,2
97680,90.444354,119,0.110185,64,E4,71,2
97920,90.666576,239,0.221296,83,B5,72,1
97920,90.666576,119,0.110185,62,D4,72,2
98040,90.777687,119,0.110185,71,B4,73,2
98160,90.888798,227,0.210184,79,G5,73,1
98160,90.888798,119,0.110185,67,G4,73,2
98280,90.999909,119,0.110185,71,B4,74,2
98400,91.11102,959,0.887962,86,D6,75,1
98400,91.11102,119,0.110185,62,D4,75,2
98520,91.222131,119,0.110185,71,B4,76,2
98640,91.333242,119,0.110185,67,G4,76,2
98760,91.444353,119,0.110185,71,B4,77,2
98880,91.555464,119,0.110185,62,D4,78,2
99000,91.666575,119,0.110185,71,B4,79,2
99120,91.777686,119,0.110185,67,G4,79,2
99240,91.888797,119,0.110185,71,B4,80,2
99360,91.999908,119,0.110185,84,C6,81,1
99360,91.999908,119,0.110185,62,D4,81,2
99480,92.111019,119,0.110185,83,B5,82,1
99480,92.111019,119,0.110185,71,B4,82,2
99600,92.22213,119,0.110185,81,A5,82,1
99600,92.22213,119,0.110185,67,G4,82,2
99720,92.333241,113,0.104629,79,G5,83,1
99720,92.333241,119,0.110185,71,B4,83,2
99840,92.444352,59,0.054629,81,A5,84,1
99840,92.444352,119,0.110185,62,D4,84,2
99900,92.499907,59,0.05463,83,B5,84,1
99960,92.555463,59,0.054629,81,A5,84,1
99960,92.555463,119,0.110185,72,C5,84,2
100020,92.611018,59,0.05463,83,B5,85,1
100080,92.666574,59,0.054629,81,A5,85,1
100080,92.666574,119,0.110185,66,F4#,85,2
100140,92.722129,59,0.05463,83,B5,86,1
100200,92.777685,59,0.054629,81,A5,86,1
100200,92.777685,119,0.110185,72,C5,86,2
100260,92.83324,59,0.05463,83,B5,86,1
100320,92.888796,59,0.054629,81,A5,87,1
100320,92.888796,119,0.110185,62,D4,87,2
100380,92.944351,59,0.05463,83,B5,87,1
100440,92.999907,59,0.054629,81,A5,87,1
100440,92.999907,119,0.110185,72,C5,87,2
100500,93.055462,59,0.05463,83,B5,88,1
100560,93.111018,59,0.054629,81,A5,88,1
100560,93.111018,119,0.110185,66,F4#,88,2
100620,93.166573,59,0.05463,83,B5,89,1
100680,93.222129,59,0.054629,81,A5,89,1
100680,93.222129,119,0.110185,72,C5,89,2
100740,93.277684,59,0.05463,83,B5,89,1
100800,93.33324,59,0.054629,81,A5,90,1
100800,93.33324,119,0.110185,62,D4,90,2
100860,93.388795,59,0.05463,83,B5,90,1
100920,93.444351,59,0.054629,81,A5,90,1
100920,93.444351,119,0.110185,72,C5,90,2
100980,93.499906,59,0.05463,83,B5,91,1
101040,93.555462,68,0.062962,81,A5,91,1
101040,93.555462,119,0.110185,66,F4#,91,2
101109,93.61935,68,0.062963,83,B5,92,1
101160,93.666573,119,0.110185,72,C5,92,2
101178,93.683239,68,0.062963,81,A5,92,1
101247,93.747128,68,0.062963,83,B5,92,1
101280,93.777684,119,0.110185,62,D4,93,2
101316,93.811017,68,0.062963,81,A5,93,1
101385,93.874906,68,0.062963,83,B5,93,1
101400,93.888795,119,0.110185,72,C5,93,2
101454,93.938794,68,0.062963,81,A5,94,1
101520,93.999906,59,0.054629,83,B5,94,1
101520,93.999906,119,0.110185,66,F4#,94,2
101580,94.055461,59,0.05463,81,A5,94,1
101640,94.111017,59,0.054629,79,G5,95,1
101640,94.111017,119,0.110185,72,C5,95,2
101700,94.166572,59,0.05463,81,A5,95,1
101760,94.222128,455,0.421295,79,G5,96,1
101760,94.222128,455,0.421295,67,G4,96,2
101760,94.222128,455,0.421295,71,B4,96,2
102240,94.666572,119,0.110185,79,G5,96,1
102360,94.777683,119,0.110185,74,D5,96,1
102480,94.888794,119,0.110185,79,G5,96,1
102600,94.999905,119,0.110185,83,B5,96,1
102720,95.111016,119,0.110185,86,D6,96,1
102840,95.222127,119,0.110185,83,B5,96,1
102960,95.333238,119,0.110185,79,G5,96,1
103080,95.444349,119,0.110185,83,B5,96,1
103200,95.55546,119,0.110185,84,C6,96,1
103200,95.55546,479,0.443518,62,D4,96,2
103200,95.55546,479,0.443518,69,A4,96,2
103200,95.55546,479,0.443518,72,C5,96,2
103320,95.666571,119,0.110185,81,A5,96,1
103440,95.777682,119,0.110185,78,F5#,96,1
103560,95.888793,119,0.110185,81,A5,96,1
103680,95.999904,455,0.421295,79,G5,96,1
103680,95.999904,455,0.421295,67,G4,96,2
103680,95.999904,455,0.421295,71,B4,96,2
104160,96.444348,119,0.110185,67,G4,96,1
104280,96.555459,119,0.110185,62,D4,96,1
104400,96.66657,119,0.110185,67,G4,96,1
104520,96.777681,119,0.110185,71,B4,96,1
104640,96.888792,119,0.110185,74,D5,96,1
104760,96.999903,119,0.110185,71,B4,96,1
104880,97.111014,119,0.110185,67,G4,96,1
105000,97.222125,119,0.110185,71,B4,96,1
105120,97.333236,119,0.110185,72,C5,96,1
105120,97.333236,479,0.443518,50,D3,96,2
105120,97.333236,479,0.443518,57,A3,96,2
105120,97.333236,479,0.443518,60,C4,96,2
105240,97.444347,119,0.110185,69,A4,96,1
105360,97.555458,119,0.110185,66,F4#,96,1
105480,97.666569,119,0.110185,69,A4,96,1
105600,97.77768,239,0.221296,67,G4,96,1
105600,97.77768,239,0.221296,55,G3,96,2
105600,97.77768,239,0.221296,59,B3,96,2
106080,98.222124,239,0.221296,74,D5,96,1
106080,98.222124,239,0.221296,83,B5,96,1
106080,98.222124,239,0.221296,43,G2,96,2
106080,98.222124,239,0.221296,55,G3,96,2
106560,98.666568,320,0.296296,71,B4,96,1
106560,98.666568,320,0.296296,79,G5,96,1
106560,98.666568,320,0.296296,43,G2,96,2
106560,98.666568,320,0.296296,55,G3,96,2
107520,99.555456,455,0.421295,67,G4,96,1
107520,99.555456,455,0.421295,43,G2,96,2
107520,99.555456,455,0.421295,55,G3,96,2
108000,99.9999,119,0.110185,79,G5,96,1
108120,100.111011,119,0.110185,74,D5,96,1
108240,100.222122,119,0.110185,79,G5,96,1
108360,100.333233,119,0.110185,82,A5#,96,1
108480,100.444344,119,0.110185,86,D6,96,1
108600,100.555455,119,0.110185,82,A5#,96,1
108720,100.666566,119,0.110185,79,G5,96,1
108840,100.777677,119,0.110185,82,A5#,96,1
108960,100.888788,119,0.110185,84,C6,96,1
108960,100.888788,479,0.443518,62,D4,96,2
108960,100.888788,479,0.443518,69,A4,96,2
108960,100.888788,479,0.443518,72,C5,96,2
109080,100.999899,119,0.110185,81,A5,96,1
109200,101.11101,119,0.110185,78,F5#,96,1
109320,101.222121,119,0.110185,81,A5,96,1
109440,101.333232,455,0.421295,79,G5,96,1
109440,101.333232,455,0.421295,67,G4,96,2
109440,101.333232,455,0.421295,70,A4#,96,2
109920,101.777676,119,0.110185,67,G4,96,1
110040,101.888787,119,0.110185,62,D4,96,1
110160,101.999898,119,0.110185,67,G4,96,1
110280,102.111009,119,0.110185,70,A4#,96,1
110400,102.22212,119,0.110185,74,D5,96,1
110520,102.333231,119,0.110185,70,A4#,96,1
110640,102.444342,119,0.110185,67,G4,96,1
110760,102.555453,119,0.110185,70,A4#,96,1
110880,102.666564,119,0.110185,72,C5,96,1
110880,102.666564,455,0.421295,50,D3,96,2
110880,102.666564,455,0.421295,57,A3,96,2
110880,102.666564,455,0.421295,60,C4,96,2
111000,102.777675,119,0.110185,69,A4,96,1
111120,102.888786,119,0.110185,66,F4#,96,1
111240,102.999897,119,0.110185,69,A4,96,1
111360,103.111008,455,0.421295,67,G4,96,1
111480,103.222119,119,0.110185,43,G2,96,2
111600,103.33323,119,0.110185,45,A2,96,2
111720,103.444341,119,0.110185,46,A2#,96,2
111840,103.555452,119,0.110185,48,C3,96,2
111960,103.666563,119,0.110185,50,D3,96,2
112080,103.777674,119,0.110185,52,E3,96,2
112200,103.888785,119,0.110185,54,F3#,96,2
112320,103.999896,455,0.421295,55,G3,96,2
112440,104.111007,119,0.110185,79,G5,96,1
112560,104.222118,119,0.110185,82,A5#,96,1
112680,104.333229,119,0.110185,81,A5,96,1
112800,104.44434,119,0.110185,79,G5,96,1
112920,104.555451,119,0.110185,77,F5,96,1
113040,104.666562,119,0.110185,76,E5,96,1
113160,104.777673,119,0.110185,74,D5,96,1
113280,104.888784,455,0.421295,73,C5#,96,1
113400,104.999895,119,0.110185,45,A2,96,2
113520,105.111006,119,0.110185,47,B2,96,2
113640,105.222117,119,0.110185,49,C3#,96,2
113760,105.333228,119,0.110185,50,D3,96,2
113880,105.444339,119,0.110185,52,E3,96,2
114000,105.55545,119,0.110185,54,F3#,96,2
114120,105.666561,119,0.110185,56,G3#,96,2
114240,105.777672,455,0.421295,57,A3,96,2
114360,105.888783,119,0.110185,85,C6#,96,1
114480,105.999894,119,0.110185,88,E6,96,1
114600,106.111005,119,0.110185,86,D6,96,1
114720,106.222116,119,0.110185,85,C6#,96,1
114840,106.333227,119,0.110185,82,A5#,96,1
114960,106.444338,119,0.110185,81,A5,96,1
115080,106.555449,119,0.110185,79,G5,96,1
115200,106.66656,455,0.421295,77,F5,96,1
115200,106.66656,455,0.421295,38,D2,96,2
115200,106.66656,455,0.421295,50,D3,96,2
115680,107.111004,119,0.110185,74,D5,96,1
115800,107.222115,119,0.110185,69,A4,96,1
115920,107.333226,119,0.110185,74,D5,96,1
116040,107.444337,119,0.110185,77,F5,96,1
116160,107.555448,119,0.110185,81,A5,96,1
116280,107.666559,119,0.110185,77,F5,96,1
116400,107.77767,119,0.110185,74,D5,96,1
116520,107.888781,119,0.110185,77,F5,96,1
116640,107.999892,119,0.110185,79,G5,96,1
116640,107.999892,479,0.443518,57,A3,96,2
116640,107.999892,479,0.443518,64,E4,96,2
116640,107.999892,479,0.443518,67,G4,96,2
116760,108.111003,119,0.110185,76,E5,96,1
116880,108.222114,119,0.110185,73,C5#,96,1
117000,108.333225,119,0.110185,76,E5,96,1
117120,108.444336,455,0.421295,74,D5,96,1
117120,108.444336,455,0.421295,62,D4,96,2
117120,108.444336,455,0.421295,65,F4,96,2
117600,108.88878,119,0.110185,62,D4,96,1
117720,108.999891,119,0.110185,57,A3,96,1
117840,109.111002,119,0.110185,62,D4,96,1
117960,109.222113,119,0.110185,65,F4,96,1
118080,109.333224,119,0.110185,69,A4,96,1
118200,109.444335,119,0.110185,65,F4,96,1
118320,109.555446,119,0.110185,62,D4,96,1
118440,109.666557,119,0.110185,65,F4,96,1
118560,109.777668,119,0.110185,67,G4,96,1
118560,109.777668,479,0.443518,45,A2,96,2
118560,109.777668,479,0.443518,52,E3,96,2
118560,109.777668,479,0.443518,55,G3,96,2
118680,109.888779,119,0.110185,64,E4,96,1
118800,109.99989,119,0.110185,61,C4#,96,1
118920,110.111001,113,0.104629,64,E4,96,1
119040,110.222112,455,0.421295,50,D3,96,2
119040,110.222112,455,0.421295,53,F3,96,2
119160,110.333223,119,0.110185,62,D4,96,1
119280,110.444334,119,0.110185,64,E4,96,1
119400,110.555445,119,0.110185,65,F4,96,1
119520,110.666556,119,0.110185,67,G4,96,1
119640,110.777667,119,0.110185,69,A4,96,1
119760,110.888778,119,0.110185,71,B4,96,1
119880,110.999889,119,0.110185,73,C5#,96,1
120000,111.111,455,0.421295,74,D5,96,1
120120,111.222111,119,0.110185,62,D4,96,2
120240,111.333222,119,0.110185,65,F4,96,2
120360,111.444333,119,0.110185,64,E4,96,2
120480,111.555444,119,0.110185,62,D4,96,2
120600,111.666555,119,0.110185,60,C4,96,2
120720,111.777666,119,0.110185,59,B3,96,2
120840,111.888777,119,0.110185,57,A3,96,2
120960,111.999888,455,0.421295,56,G3#,96,2
121080,112.110999,119,0.110185,71,B4,96,1
121200,112.22211,119,0.110185,72,C5,96,1
121320,112.333221,119,0.110185,74,D5,96,1
121440,112.444332,119,0.110185,76,E5,96,1
121560,112.555443,119,0.110185,78,F5#,96,1
121680,112.666554,119,0.110185,80,G5#,96,1
121800,112.777665,119,0.110185,81,A5,96,1
121920,112.888776,455,0.421295,83,B5,96,1
122040,112.999887,119,0.110185,56,G3#,96,2
122160,113.110998,119,0.110185,59,B3,96,2
122280,113.222109,119,0.110185,57,A3,96,2
122400,113.33322,119,0.110185,56,G3#,96,2
122520,113.444331,119,0.110185,53,F3,96,2
122640,113.555442,119,0.110185,52,E3,96,2
122760,113.666553,119,0.110185,50,D3,96,2
122880,113.777664,455,0.421295,48,C3,96,2
123000,113.888775,119,0.110185,81,A5,96,1
123120,113.999886,119,0.110185,88,E6,96,1
123240,114.110997,119,0.110185,86,D6,96,1
123360,114.222108,119,0.110185,84,C6,96,1
123480,114.333219,119,0.110185,83,B5,96,1
123600,114.44433,119,0.110185,81,A5,96,1
123720,114.555441,119,0.110185,79,G5,96,1
123840,114.666552,455,0.421295,77,F5,96,1
123960,114.777663,119,0.110185,62,D4,96,2
124080,114.888774,119,0.110185,69,A4,96,2
124200,114.999885,119,0.110185,67,G4,96,2
124320,115.110996,119,0.110185,65,F4,96,2
124440,115.222107,119,0.110185,64,E4,96,2
124560,115.333218,119,0.110185,62,D4,96,2
124680,115.444329,119,0.110185,60,C4,96,2
124800,115.55544,455,0.421295,59,B3,96,2
124920,115.666551,119,0.110185,79,G5,96,1
125040,115.777662,119,0.110185,86,D6,96,1
125160,115.888773,119,0.110185,84,C6,96,1
125280,115.999884,119,0.110185,83,B5,96,1
125400,116.110995,119,0.110185,81,A5,96,1
125520,116.222106,119,0.110185,79,G5,96,1
125640,116.333217,119,0.110185,77,F5,96,1
125760,116.444328,455,0.421295,76,E5,96,1
125880,116.555439,119,0.110185,60,C4,96,2
126000,116.66655,119,0.110185,67,G4,96,2
126120,116.777661,119,0.110185,65,F4,96,2
126240,116.888772,119,0.110185,64,E4,96,2
126360,116.999883,119,0.110185,62,D4,96,2
126480,117.110994,119,0.110185,60,C4,96,2
126600,117.222105,119,0.110185,59,B3,96,2
126720,117.333216,455,0.421295,57,A3,96,2
126840,117.444327,119,0.110185,77,F5,96,1
126960,117.555438,119,0.110185,84,C6,96,1
127080,117.666549,119,0.110185,83,B5,96,1
127200,117.77766,119,0.110185,81,A5,96,1
127320,117.888771,119,0.110185,79,G5,96,1
127440,117.999882,119,0.110185,77,F5,96,1
127560,118.110993,119,0.110185,76,E5,96,1
127680,118.222104,455,0.421295,74,D5,96,1
127800,118.333215,119,0.110185,59,B3,96,2
127920,118.444326,119,0.110185,65,F4,96,2
128040,118.555437,119,0.110185,64,E4,96,2
128160,118.666548,119,0.110185,62,D4,96,2
128280,118.777659,119,0.110185,60,C4,96,2
128400,118.88877,119,0.110185,59,B3,96,2
128520,118.999881,119,0.110185,57,A3,96,2
128640,119.110992,455,0.421295,56,G3#,96,2
128760,119.222103,119,0.110185,76,E5,96,1
128880,119.333214,119,0.110185,83,B5,96,1
129000,119.444325,119,0.110185,81,A5,96,1
129120,119.555436,119,0.110185,80,G5#,96,1
129240,119.666547,119,0.110185,77,F5,96,1
129360,119.777658,119,0.110185,76,E5,96,1
129480,119.888769,119,0.110185,74,D5,96,1
129600,119.99988,455,0.421295,72,C5,96,1
129720,120.110991,119,0.110185,57,A3,95,2
129840,120.222102,119,0.110185,60,C4,93,2
129960,120.333213,119,0.110185,59,B3,91,2
130080,120.444324,119,0.110185,57,A3,89,2
130200,120.555435,119,0.110185,55,G3,87,2
130320,120.666546,119,0.110185,53,F3,85,2
130440,120.777657,119,0.110185,52,E3,83,2
130560,120.888768,911,0.843517,50,D3,81,2
130680,120.999879,119,0.110185,70,A4#,79,1
130800,121.11099,119,0.110185,74,D5,77,1
130920,121.222101,119,0.110185,72,C5,75,1
131040,121.333212,119,0.110185,70,A4#,73,1
131160,121.444323,119,0.110185,69,A4,71,1
131280,121.555434,119,0.110185,67,G4,69,1
131400,121.666545,119,0.110185,65,F4,67,1
131520,121.777656,119,0.110185,64,E4,65,1
131520,121.777656,911,0.843517,48,C3,65,2
131520,121.777656,911,0.843517,55,G3,65,2
131520,121.777656,911,0.843517,58,A3#,65,2
131640,121.888767,119,0.110185,65,F4,63,1
131760,121.999878,119,0.110185,67,G4,61,1
131880,122.110989,119,0.110185,69,A4,59,1
132000,122.2221,119,0.110185,70,A4#,57,1
132120,122.333211,119,0.110185,72,C5,55,1
132240,122.444322,119,0.110185,74,D5,53,1
132360,122.555433,119,0.110185,76,E5,51,1
132480,122.666544,959,0.887962,77,F5,49,1
132480,122.666544,239,0.221296,65,F4,49,2
132720,122.888766,239,0.221296,72,C5,49,2
132960,123.110988,239,0.221296,69,A4,49,2
133200,123.33321,239,0.221296,72,C5,49,2
133440,123.555432,455,0.421295,81,A5,49,1
133440,123.555432,239,0.221296,65,F4,49,2
133680,123.777654,239,0.221296,72,C5,49,2
133920,123.999876,455,0.421295,84,C6,49,1
133920,123.999876,239,0.221296,69,A4,49,2
134160,124.222098,239,0.221296,72,C5,49,2
134400,124.44432,719,0.66574,76,E5,49,1
134400,124.44432,239,0.221296,67,G4,49,2
134640,124.666542,239,0.221296,72,C5,49,2
134880,124.888764,239,0.221296,70,A4#,49,2
135120,125.110986,119,0.110185,77,F5,49,1
135120,125.110986,239,0.221296,72,C5,49,2
135240,125.222097,119,0.110185,79,G5,49,1
135360,125.333208,911,0.843517,77,F5,49,1
135360,125.333208,239,0.221296,65,F4,49,2
135600,125.55543,239,0.221296,72,C5,49,2
135840,125.777652,239,0.221296,69,A4,49,2
136080,125.999874,239,0.221296,72,C5,49,2
136320,126.222096,959,0.887962,86,D6,49,1
136320,126.222096,239,0.221296,65,F4,49,2
136560,126.444318,239,0.221296,74,D5,49,2
136800,126.66654,239,0.221296,70,A4#,49,2
137040,126.888762,239,0.221296,74,D5,49,2
137280,127.110984,455,0.421295,84,C6,49,1
137280,127.110984,239,0.221296,65,F4,49,2
137520,127.333206,239,0.221296,72,C5,49,2
137760,127.555428,455,0.421295,89,F6,49,1
137760,127.555428,239,0.221296,69,A4,49,2
138000,127.77765,239,0.221296,72,C5,49,2
138240,127.999872,479,0.443518,84,C6,49,1
138240,127.999872,239,0.221296,64,E4,49,2
138480,128.222094,239,0.221296,72,C5,49,2
138720,128.444316,47,0.043518,82,A5#,49,1
138720,128.444316,239,0.221296,67,G4,49,2
138768,128.48876,47,0.043518,84,C6,49,1
138816,128.533204,47,0.043519,82,A5#,49,1
138864,128.577649,47,0.043518,84,C6,49,1
138912,128.622093,47,0.043519,82,A5#,49,1
138960,128.666538,119,0.110185,81,A5,49,1
138960,128.666538,239,0.221296,72,C5,49,2
139080,128.777649,119,0.110185,82,A5#,49,1
139200,128.88876,455,0.421295,81,A5,49,1
139200,128.88876,239,0.221296,65,F4,49,2
139440,129.110982,239,0.221296,72,C5,49,2
139680,129.333204,239,0.221296,69,A4,49,2
139920,129.555426,239,0.221296,72,C5,49,2
140160,129.777648,239,0.221296,74,D5,49,1
140160,129.777648,455,0.421295,70,A4#,49,2
140400,129.99987,119,0.110185,76,E5,49,1
140520,130.110981,119,0.110185,77,F5,49,1
140640,130.222092,119,0.110185,79,G5,49,1
140760,130.333203,119,0.110185,81,A5,49,1
140880,130.444314,119,0.110185,82,A5#,49,1
141000,130.555425,119,0.110185,84,C6,49,1
141120,130.666536,119,0.110185,86,D6,49,1
141240,130.777647,119,0.110185,84,C6,49,1
141360,130.888758,119,0.110185,82,A5#,49,1
141480,130.999869,119,0.110185,81,A5,49,1
141600,131.11098,119,0.110185,79,G5,49,1
141600,131.11098,455,0.421295,58,A3#,49,2
141600,131.11098,455,0.421295,65,F4,49,2
141720,131.222091,119,0.110185,77,F5,49,1
141840,131.333202,119,0.110185,76,E5,49,1
141960,131.444313,119,0.110185,74,D5,49,1
142080,131.555424,239,0.221296,72,C5,49,1
142080,131.555424,455,0.421295,57,A3,49,2
142080,131.555424,455,0.421295,65,F4,49,2
142320,131.777646,119,0.110185,74,D5,49,1
142440,131.888757,119,0.110185,76,E5,49,1
142560,131.999868,119,0.110185,77,F5,49,1
142680,132.110979,119,0.110185,79,G5,49,1
142800,132.22209,119,0.110185,81,A5,49,1
142920,132.333201,119,0.110185,82,A5#,49,1
143040,132.444312,119,0.110185,84,C6,49,1
143160,132.555423,119,0.110185,82,A5#,49,1
143280,132.666534,119,0.110185,81,A5,49,1
143400,132.777645,119,0.110185,79,G5,49,1
143520,132.888756,119,0.110185,77,F5,49,1
143520,132.888756,455,0.421295,57,A3,49,2
143520,132.888756,455,0.421295,65,F4,49,2
143640,132.999867,119,0.110185,76,E5,49,1
143760,133.110978,119,0.110185,74,D5,49,1
143880,133.222089,119,0.110185,72,C5,49,1
144000,133.3332,239,0.221296,70,A4#,49,1
144000,133.3332,455,0.421295,55,G3,49,2
144000,133.3332,455,0.421295,65,F4,49,2
144240,133.555422,119,0.110185,72,C5,49,1
144360,133.666533,119,0.110185,74,D5,49,1
144480,133.777644,119,0.110185,76,E5,49,1
144600,133.888755,119,0.110185,77,F5,49,1
144720,133.999866,119,0.110185,79,G5,49,1
144840,134.110977,119,0.110185,81,A5,49,1
144960,134.222088,119,0.110185,82,A5#,49,1
145080,134.333199,119,0.110185,81,A5,49,1
145200,134.44431,119,0.110185,79,G5,49,1
145320,134.555421,119,0.110185,77,F5,49,1
145440,134.666532,119,0.110185,76,E5,49,1
145440,134.666532,455,0.421295,55,G3,49,2
145440,134.666532,455,0.421295,64,E4,49,2
145560,134.777643,119,0.110185,74,D5,49,1
145680,134.888754,119,0.110185,72,C5,49,1
145800,134.999865,119,0.110185,70,A4#,49,1
145920,135.110976,239,0.221296,69,A4,49,1
145920,135.110976,455,0.421295,53,F3,49,2
145920,135.110976,455,0.421295,65,F4,49,2
146160,135.333198,119,0.110185,70,A4#,49,1
146280,135.444309,119,0.110185,72,C5,49,1
146400,135.55542,119,0.110185,74,D5,49,1
146520,135.666531,119,0.110185,76,E5,49,1
146640,135.777642,119,0.110185,77,F5,49,1
146760,135.888753,119,0.110185,79,G5,49,1
146880,135.999864,119,0.110185,81,A5,49,1
147000,136.110975,119,0.110185,79,G5,49,1
147120,136.222086,119,0.110185,77,F5,49,1
147240,136.333197,119,0.110185,76,E5,49,1
147360,136.444308,119,0.110185,74,D5,49,1
147480,136.555419,119,0.110185,72,C5,49,1
147600,136.66653,119,0.110185,70,A4#,49,1
147720,136.777641,119,0.110185,69,A4,49,1
147840,136.888752,455,0.421295,81,A5,49,1
147840,136.888752,239,0.221296,53,F3,49,2
148080,137.110974,119,0.110185,55,G3,49,2
148200,137.222085,119,0.110185,57,A3,49,2
148320,137.333196,119,0.110185,58,A3#,49,2
148440,137.444307,119,0.110185,60,C4,49,2
148560,137.555418,119,0.110185,62,D4,49,2
148680,137.666529,119,0.110185,64,E4,49,2
148800,137.77764,119,0.110185,65,F4,49,2
148920,137.888751,119,0.110185,64,E4,49,2
149040,137.999862,119,0.110185,62,D4,49,2
149160,138.110973,119,0.110185,60,C4,49,2
149280,138.222084,455,0.421295,72,C5,49,1
149280,138.222084,455,0.421295,81,A5,49,1
149280,138.222084,119,0.110185,58,A3#,49,2
149400,138.333195,119,0.110185,57,A3,49,2
149520,138.444306,119,0.110185,55,G3,49,2
149640,138.555417,119,0.110185,53,F3,49,2
149760,138.666528,455,0.421295,72,C5,49,1
149760,138.666528,455,0.421295,79,G5,49,1
149760,138.666528,239,0.221296,52,E3,49,2
150000,138.88875,119,0.110185,53,F3,49,2
150120,138.999861,119,0.110185,55,G3,49,2
150240,139.110972,119,0.110185,57,A3,49,2
150360,139.222083,119,0.110185,59,B3,49,2
150480,139.333194,119,0.110185,60,C4,49,2
150600,139.444305,119,0.110185,62,D4,49,2
150720,139.555416,119,0.110185,64,E4,49,2
150840,139.666527,119,0.110185,62,D4,49,2
150960,139.777638,119,0.110185,60,C4,49,2
151080,139.888749,119,0.110185,59,B3,49,2
151200,139.99986,455,0.421295,72,C5,49,1
151200,139.99986,455,0.421295,79,G5,49,1
151200,139.99986,119,0.110185,57,A3,49,2
151320,140.110971,119,0.110185,55,G3,49,2
151440,140.222082,119,0.110185,53,F3,49,2
151560,140.333193,119,0.110185,52,E3,49,2
151680,140.444304,455,0.421295,72,C5,49,1
151680,140.444304,455,0.421295,77,F5,49,1
151680,140.444304,239,0.221296,50,D3,49,2
151920,140.666526,119,0.110185,52,E3,49,2
152040,140.777637,119,0.110185,53,F3,49,2
152160,140.888748,119,0.110185,55,G3,49,2
152280,140.999859,119,0.110185,57,A3,49,2
152400,141.11097,119,0.110185,59,B3,49,2
152520,141.222081,119,0.110185,60,C4,49,2
152640,141.333192,119,0.110185,62,D4,49,2
152760,141.444303,119,0.110185,60,C4,49,2
152880,141.555414,119,0.110185,59,B3,49,2
153000,141.666525,119,0.110185,57,A3,49,2
153120,141.777636,455,0.421295,71,B4,49,1
153120,141.777636,455,0.421295,77,F5,49,1
153120,141.777636,119,0.110185,55,G3,49,2
153240,141.888747,119,0.110185,53,F3,49,2
153360,141.999858,119,0.110185,52,E3,49,2
153480,142.110969,119,0.110185,50,D3,49,2
153600,142.22208,455,0.421295,72,C5,49,1
153600,142.22208,455,0.421295,76,E5,49,1
153600,142.22208,239,0.221296,48,C3,49,2
153840,142.444302,119,0.110185,50,D3,49,2
153960,142.555413,119,0.110185,52,E3,49,2
154080,142.666524,119,0.110185,53,F3,49,2
154200,142.777635,119,0.110185,55,G3,49,2
154320,142.888746,119,0.110185,57,A3,49,2
154440,142.999857,119,0.110185,59,B3,49,2
154560,143.110968,119,0.110185,60,C4,49,2
154680,143.222079,119,0.110185,59,B3,49,2
154800,143.33319,119,0.110185,57,A3,49,2
154920,143.444301,119,0.110185,55,G3,49,2
155040,143.555412,455,0.421295,72,C5,49,1
155040,143.555412,455,0.421295,76,E5,49,1
155040,143.555412,119,0.110185,53,F3,49,2
155160,143.666523,119,0.110185,52,E3,49,2
155280,143.777634,119,0.110185,50,D3,49,2
155400,143.888745,113,0.104629,48,C3,49,2
155520,143.999856,119,0.110185,74,D5,49,1
155520,143.999856,1823,1.687961,53,F3,49,2
155520,143.999856,1823,1.687961,57,A3,49,2
155640,144.110967,119,0.110185,62,D4,50,1
155760,144.222078,119,0.110185,64,E4,51,1
155880,144.333189,119,0.110185,65,F4,53,1
156000,144.4443,119,0.110185,67,G4,54,1
156120,144.555411,119,0.110185,69,A4,56,1
156240,144.666522,119,0.110185,71,B4,57,1
156360,144.777633,119,0.110185,73,C5#,59,1
156480,144.888744,119,0.110185,74,D5,60,1
156600,144.999855,119,0.110185,69,A4,62,1
156720,145.110966,119,0.110185,71,B4,63,1
156840,145.222077,119,0.110185,73,C5#,65,1
156960,145.333188,119,0.110185,74,D5,66,1
157080,145.444299,119,0.110185,76,E5,68,1
157200,145.55541,119,0.110185,77,F5,69,1
157320,145.666521,119,0.110185,79,G5,71,1
157440,145.777632,119,0.110185,81,A5,72,1
157440,145.777632,683,0.632406,53,F3,72,2
157560,145.888743,119,0.110185,83,B5,73,1
157680,145.999854,119,0.110185,84,C6,75,1
157800,146.110965,119,0.110185,83,B5,76,1
157920,146.222076,119,0.110185,81,A5,78,1
158040,146.333187,119,0.110185,79,G5,79,1
158160,146.444298,119,0.110185,77,F5,81,1
158160,146.444298,227,0.210184,55,G3,81,2
158280,146.555409,119,0.110185,76,E5,82,1
158400,146.66652,119,0.110185,77,F5,84,1
158400,146.66652,683,0.632406,57,A3,84,2
158520,146.777631,119,0.110185,79,G5,85,1
158640,146.888742,119,0.110185,81,A5,87,1
158760,146.999853,119,0.110185,79,G5,88,1
158880,147.110964,119,0.110185,77,F5,90,1
159000,147.222075,119,0.110185,76,E5,91,1
159120,147.333186,119,0.110185,74,D5,93,1
159120,147.333186,227,0.210184,54,F3#,93,2
159240,147.444297,119,0.110185,72,C5,94,1
159360,147.555408,119,0.110185,71,B4,96,1
159360,147.555408,119,0.110185,43,G2,96,2
159480,147.666519,119,0.110185,47,B2,96,2
159600,147.77763,119,0.110185,79,G5,96,1
159600,147.77763,119,0.110185,50,D3,96,2
159720,147.888741,119,0.110185,55,G3,96,2
159840,147.999852,119,0.110185,76,E5,96,1
159840,147.999852,119,0.110185,43,G2,96,2
159960,148.110963,119,0.110185,48,C3,96,2
160080,148.222074,119,0.110185,72,C5,96,1
160080,148.222074,119,0.110185,52,E3,96,2
160200,148.333185,119,0.110185,55,G3,96,2
160320,148.444296,119,0.110185,74,D5,96,1
160320,148.444296,119,0.110185,43,G2,96,2
160440,148.555407,119,0.110185,47,B2,96,2
160560,148.666518,119,0.110185,79,G5,96,1
160560,148.666518,119,0.110185,50,D3,96,2
160680,148.777629,119,0.110185,55,G3,96,2
160800,148.88874,119,0.110185,76,E5,96,1
160800,148.88874,119,0.110185,43,G2,96,2
160920,148.999851,119,0.110185,48,C3,96,2
161040,149.110962,119,0.110185,72,C5,96,1
161040,149.110962,119,0.110185,52,E3,96,2
161160,149.222073,119,0.110185,55,G3,96,2
161280,149.333184,239,0.221296,74,D5,96,1
161280,149.333184,239,0.221296,43,G2,96,2
161760,149.777628,239,0.221296,71,B4,96,1
161760,149.777628,239,0.221296,74,D5,96,1
161760,149.777628,239,0.221296,79,G5,96,1
161760,149.777628,239,0.221296,55,G3,96,2
162240,150.222072,320,0.296296,67,G4,96,1
162240,150.222072,320,0.296296,43,G2,96,2
163200,151.11096,119,0.110185,66,F4#,49,2
163320,151.222071,119,0.110185,67,G4,49,2
163440,151.333182,119,0.110185,66,F4#,49,2
163560,151.444293,119,0.110185,67,G4,49,2
163680,151.555404,119,0.110185,66,F4#,49,2
163800,151.666515,119,0.110185,67,G4,49,2
163920,151.777626,119,0.110185,66,F4#,49,2
164040,151.888737,119,0.110185,67,G4,49,2
164160,151.999848,119,0.110185,65,F4,49,2
164280,152.110959,119,0.110185,67,G4,49,2
164400,152.22207,119,0.110185,65,F4,49,2
164520,152.333181,119,0.110185,67,G4,49,2
164640,152.444292,119,0.110185,65,F4,49,2
164760,152.555403,119,0.110185,67,G4,49,2
164880,152.666514,119,0.110185,65,F4,49,2
165000,152.777625,119,0.110185,67,G4,49,2
165120,152.888736,239,0.221296,79,G5,49,1
165120,152.888736,119,0.110185,64,E4,49,2
165240,152.999847,119,0.110185,67,G4,49,2
165360,153.110958,227,0.210184,76,E5,49,1
165360,153.110958,119,0.110185,64,E4,49,2
165480,153.222069,119,0.110185,67,G4,49,2
165600,153.33318,719,0.66574,72,C5,49,1
165600,153.33318,119,0.110185,64,E4,49,2
165720,153.444291,119,0.110185,67,G4,49,2
165840,153.555402,119,0.110185,64,E4,49,2
165960,153.666513,119,0.110185,67,G4,49,2
166080,153.777624,119,0.110185,64,E4,49,2
166200,153.888735,119,0.110185,67,G4,49,2
166320,153.999846,119,0.110185,74,D5,49,1
166320,153.999846,119,0.110185,64,E4,49,2
166440,154.110957,119,0.110185,76,E5,49,1
166440,154.110957,119,0.110185,67,G4,49,2
166560,154.222068,239,0.221296,74,D5,49,1
166560,154.222068,119,0.110185,64,E4,49,2
166680,154.333179,119,0.110185,67,G4,49,2
166800,154.44429,119,0.110185,72,C5,49,1
166800,154.44429,119,0.110185,64,E4,49,2
166920,154.555401,119,0.110185,67,G4,49,2
167040,154.666512,71,0.06574,72,C5,49,1
167040,154.666512,119,0.110185,65,F4,49,2
167112,154.733178,71,0.065741,74,D5,49,1
167160,154.777623,119,0.110185,67,G4,49,2
167184,154.799845,71,0.06574,72,C5,49,1
167256,154.866511,71,0.065741,74,D5,49,1
167280,154.888734,119,0.110185,64,E4,49,2
167328,154.933178,71,0.065741,72,C5,49,1
167400,154.999845,119,0.110185,71,B4,49,1
167400,154.999845,119,0.110185,67,G4,49,2
167520,155.110956,455,0.421295,71,B4,49,1
167520,155.110956,119,0.110185,62,D4,49,2
167640,155.222067,119,0.110185,67,G4,49,2
167760,155.333178,119,0.110185,64,E4,49,2
167880,155.444289,119,0.110185,67,G4,49,2
168000,155.5554,119,0.110185,65,F4,49,2
168120,155.666511,119,0.110185,67,G4,49,2
168240,155.777622,119,0.110185,64,E4,49,2
168360,155.888733,119,0.110185,67,G4,49,2
168480,155.999844,119,0.110185,65,F4,49,2
168600,156.110955,119,0.110185,67,G4,49,2
168720,156.222066,119,0.110185,62,D4,49,2
168840,156.333177,119,0.110185,67,G4,49,2
168960,156.444288,239,0.221296,79,G5,49,1
168960,156.444288,119,0.110185,64,E4,49,2
169080,156.555399,119,0.110185,67,G4,49,2
169200,156.66651,227,0.210184,76,E5,49,1
169200,156.66651,119,0.110185,64,E4,49,2
169320,156.777621,119,0.110185,67,G4,49,2
169440,156.888732,719,0.66574,72,C5,49,1
169440,156.888732,119,0.110185,64,E4,49,2
169560,156.999843,119,0.110185,67,G4,49,2
169680,157.110954,119,0.110185,64,E4,49,2
169800,157.222065,119,0.110185,67,G4,49,2
169920,157.333176,119,0.110185,64,E4,49,2
170040,157.444287,119,0.110185,67,G4,49,2
170160,157.555398,119,0.110185,74,D5,49,1
170160,157.555398,119,0.110185,64,E4,49,2
170280,157.666509,119,0.110185,76,E5,49,1
170280,157.666509,119,0.110185,67,G4,49,2
170400,157.77762,239,0.221296,74,D5,49,1
170400,157.77762,119,0.110185,64,E4,49,2
170520,157.888731,119,0.110185,67,G4,49,2
170640,157.999842,119,0.110185,72,C5,49,1
170640,157.999842,119,0.110185,64,E4,49,2
170760,158.110953,119,0.110185,67,G4,49,2
170880,158.222064,71,0.06574,72,C5,49,1
170880,158.222064,119,0.110185,65,F4,49,2
170952,158.28873,71,0.065741,74,D5,49,1
171000,158.333175,119,0.110185,67,G4,49,2
171024,158.355397,71,0.06574,72,C5,49,1
171096,158.422063,71,0.065741,74,D5,49,1
171120,158.444286,119,0.110185,64,E4,49,2
171168,158.48873,71,0.065741,72,C5,49,1
171240,158.555397,119,0.110185,71,B4,49,1
171240,158.555397,119,0.110185,67,G4,49,2
171360,158.666508,455,0.421295,71,B4,49,1
171360,158.666508,119,0.110185,62,D4,49,2
171480,158.777619,119,0.110185,67,G4,49,2
171600,158.88873,119,0.110185,64,E4,49,2
171720,158.999841,119,0.110185,67,G4,49,2
171840,159.110952,119,0.110185,65,F4,49,2
171960,159.222063,119,0.110185,67,G4,49,2
172080,159.333174,119,0.110185,64,E4,49,2
172200,159.444285,119,0.110185,67,G4,49,2
172320,159.555396,119,0.110185,65,F4,49,2
172440,159.666507,119,0.110185,67,G4,49,2
172560,159.777618,119,0.110185,62,D4,49,2
172680,159.888729,119,0.110185,67,G4,49,2
172800,159.99984,479,0.443518,79,G5,49,1
172920,160.110951,119,0.110185,52,E3,49,2
173040,160.222062,119,0.110185,55,G3,49,2
173160,160.333173,119,0.110185,60,C4,49,2
173280,160.444284,479,0.443518,64,E4,49,2
173400,160.555395,119,0.110185,79,G5,49,1
173520,160.666506,119,0.110185,76,E5,49,1
173640,160.777617,119,0.110185,72,C5,49,1
173760,160.888728,479,0.443518,69,A4,49,1
173880,160.999839,119,0.110185,53,F3,49,2
174000,161.11095,119,0.110185,57,A3,49,2
174120,161.222061,119,0.110185,60,C4,49,2
174240,161.333172,479,0.443518,65,F4,49,2
174360,161.444283,119,0.110185,69,A4,49,1
174480,161.555394,119,0.110185,72,C5,49,1
174600,161.666505,119,0.110185,69,A4,49,1
174720,161.777616,479,0.443518,77,F5,49,1
174840,161.888727,119,0.110185,50,D3,49,2
174960,161.999838,119,0.110185,53,F3,49,2
175080,162.110949,119,0.110185,59,B3,49,2
175200,162.22206,479,0.443518,62,D4,49,2
175320,162.333171,119,0.110185,77,F5,49,1
175440,162.444282,119,0.110185,74,D5,49,1
175560,162.555393,119,0.110185,71,B4,49,1
175680,162.666504,479,0.443518,67,G4,49,1
175800,162.777615,119,0.110185,52,E3,49,2
175920,162.888726,119,0.110185,55,G3,49,2
176040,162.999837,119,0.110185,59,B3,49,2
176160,163.110948,479,0.443518,64,E4,49,2
176280,163.222059,119,0.110185,79,G5,49,1
176400,163.33317,119,0.110185,83,B5,49,1
176520,163.444281,119,0.110185,79,G5,49,1
176640,163.555392,479,0.443518,88,E6,49,1
176760,163.666503,119,0.110185,60,C4,49,2
176880,163.777614,119,0.110185,64,E4,49,2
177000,163.888725,119,0.110185,69,A4,49,2
177120,163.999836,479,0.443518,72,C5,49,2
177240,164.110947,119,0.110185,88,E6,49,1
177360,164.222058,119,0.110185,84,C6,49,1
177480,164.333169,119,0.110185,81,A5,49,1
177600,164.44428,479,0.443518,77,F5,49,1
177720,164.555391,119,0.110185,62,D4,49,2
177840,164.666502,119,0.110185,65,F4,49,2
177960,164.777613,119,0.110185,69,A4,49,2
178080,164.888724,479,0.443518,74,D5,49,2
178200,164.999835,119,0.110185,77,F5,49,1
178320,165.110946,119,0.110185,81,A5,49,1
178440,165.222057,119,0.110185,77,F5,49,1
178560,165.333168,479,0.443518,86,D6,49,1
178680,165.444279,119,0.110185,59,B3,49,2
178800,165.55539,119,0.110185,62,D4,49,2
178920,165.666501,119,0.110185,67,G4,49,2
179040,165.777612,479,0.443518,71,B4,49,2
179160,165.888723,119,0.110185,86,D6,49,1
179280,165.999834,119,0.110185,83,B5,49,1
179400,166.110945,119,0.110185,79,G5,49,1
179520,166.222056,479,0.443518,76,E5,49,1
179640,166.333167,119,0.110185,60,C4,49,2
179760,166.444278,119,0.110185,64,E4,49,2
179880,166.555389,119,0.110185,67,G4,49,2
180000,166.6665,479,0.443518,72,C5,49,2
180120,166.777611,119,0.110185,84,C6,49,1
180240,166.888722,119,0.110185,79,G5,49,1
180360,166.999833,119,0.110185,76,E5,49,1
180480,167.110944,959,0.887962,74,D5,49,1
180720,167.333166,119,0.110185,65,F4,49,2
180720,167.333166,119,0.110185,69,A4,49,2
180960,167.555388,119,0.110185,65,F4,49,2
180960,167.555388,119,0.110185,69,A4,49,2
181200,167.77761,119,0.110185,65,F4,49,2
181200,167.77761,119,0.110185,69,A4,49,2
181440,167.999832,69,0.063888,73,C5#,49,1
181440,167.999832,119,0.110185,65,F4,49,2
181440,167.999832,119,0.110185,69,A4,49,2
181510,168.064646,388,0.359259,74,D5,49,1
181680,168.222054,119,0.110185,65,F4,50,2
181680,168.222054,119,0.110185,69,A4,50,2
181920,168.444276,69,0.063888,73,C5#,52,1
181920,168.444276,119,0.110185,65,F4,52,2
181920,168.444276,119,0.110185,69,A4,52,2
181990,168.50909,388,0.359259,74,D5,52,1
182160,168.666498,119,0.110185,65,F4,54,2
182160,168.666498,119,0.110185,69,A4,54,2
182400,168.88872,911,0.843517,81,A5,55,1
182640,169.110942,119,0.110185,54,F3#,57,2
182640,169.110942,119,0.110185,60,C4,57,2
182640,169.110942,119,0.110185,63,D4#,57,2
182880,169.333164,119,0.110185,54,F3#,59,2
182880,169.333164,119,0.110185,60,C4,59,2
182880,169.333164,119,0.110185,63,D4#,59,2
183120,169.555386,119,0.110185,54,F3#,60,2
183120,169.555386,119,0.110185,60,C4,60,2
183120,169.555386,119,0.110185,63,D4#,60,2
183360,169.777608,69,0.063888,80,G5#,62,1
183360,169.777608,119,0.110185,54,F3#,62,2
183360,169.777608,119,0.110185,60,C4,62,2
183360,169.777608,119,0.110185,63,D4#,62,2
183430,169.842422,388,0.359259,81,A5,62,1
183600,169.99983,119,0.110185,54,F3#,64,2
183600,169.99983,119,0.110185,60,C4,64,2
183600,169.99983,119,0.110185,63,D4#,64,2
183840,170.222052,69,0.063888,80,G5#,65,1
183840,170.222052,119,0.110185,54,F3#,65,2
183840,170.222052,119,0.110185,60,C4,65,2
183840,170.222052,119,0.110185,63,D4#,65,2
183910,170.286866,388,0.359259,81,A5,65,1
184080,170.444274,119,0.110185,54,F3#,67,2
184080,170.444274,119,0.110185,60,C4,67,2
184080,170.444274,119,0.110185,63,D4#,67,2
184320,170.666496,239,0.221296,79,G5,69,1
184320,170.666496,119,0.110185,55,G3,69,2
184440,170.777607,119,0.110185,64,E4,69,2
184560,170.888718,119,0.110185,81,A5,70,1
184560,170.888718,119,0.110185,60,C4,70,2
184680,170.999829,119,0.110185,83,B5,71,1
184680,170.999829,119,0.110185,64,E4,71,2
184800,171.11094,119,0.110185,84,C6,72,1
184800,171.11094,119,0.110185,55,G3,72,2
184920,171.222051,119,0.110185,86,D6,73,1
184920,171.222051,119,0.110185,64,E4,73,2
185040,171.333162,119,0.110185,88,E6,74,1
185040,171.333162,119,0.110185,60,C4,74,2
185160,171.444273,119,0.110185,86,D6,75,1
185160,171.444273,119,0.110185,64,E4,75,2
185280,171.555384,119,0.110185,84,C6,75,1
185280,171.555384,119,0.110185,55,G3,75,2
185400,171.666495,119,0.110185,83,B5,76,1
185400,171.666495,119,0.110185,64,E4,76,2
185520,171.777606,119,0.110185,81,A5,77,1
185520,171.777606,119,0.110185,60,C4,77,2
185640,171.888717,119,0.110185,79,G5,78,1
185640,171.888717,119,0.110185,64,E4,78,2
185760,171.999828,119,0.110185,77,F5,79,1
185760,171.999828,119,0.110185,55,G3,79,2
185880,172.110939,119,0.110185,76,E5,80,1
185880,172.110939,119,0.110185,64,E4,80,2
186000,172.22205,119,0.110185,74,D5,80,1
186000,172.22205,119,0.110185,60,C4,80,2
186120,172.333161,119,0.110185,72,C5,81,1
186120,172.333161,119,0.110185,64,E4,81,2
186240,172.444272,59,0.054629,74,D5,82,1
186240,172.444272,119,0.110185,55,G3,82,2
186300,172.499827,59,0.05463,76,E5,82,1
186360,172.555383,59,0.054629,74,D5,83,1
186360,172.555383,119,0.110185,65,F4,83,2
186420,172.610938,59,0.05463,76,E5,83,1
186480,172.666494,59,0.054629,74,D5,84,1
186480,172.666494,119,0.110185,59,B3,84,2
186540,172.722049,59,0.05463,76,E5,84,1
186600,172.777605,59,0.054629,74,D5,85,1
186600,172.777605,119,0.110185,65,F4,85,2
186660,172.83316,59,0.05463,76,E5,85,1
186720,172.888716,59,0.054629,74,D5,85,1
186720,172.888716,119,0.110185,55,G3,85,2
186780,172.944271,59,0.05463,76,E5,86,1
186840,172.999827,59,0.054629,74,D5,86,1
186840,172.999827,119,0.110185,65,F4,86,2
186900,173.055382,59,0.05463,76,E5,87,1
186960,173.110938,59,0.054629,74,D5,87,1
186960,173.110938,119,0.110185,59,B3,87,2
187020,173.166493,59,0.05463,76,E5,88,1
187080,173.222049,59,0.054629,74,D5,88,1
187080,173.222049,119,0.110185,65,F4,88,2
187140,173.277604,59,0.05463,76,E5,88,1
187200,173.33316,59,0.054629,74,D5,89,1
187200,173.33316,119,0.110185,55,G3,89,2
187260,173.388715,59,0.05463,76,E5,89,1
187320,173.444271,59,0.054629,74,D5,90,1
187320,173.444271,119,0.110185,65,F4,90,2
187380,173.499826,59,0.05463,76,E5,90,1
187440,173.555382,68,0.062962,74,D5,90,1
187440,173.555382,119,0.110185,59,B3,90,2
187509,173.61927,68,0.062963,76,E5,91,1
187560,173.666493,119,0.110185,65,F4,91,2
187578,173.683159,68,0.062963,74,D5,91,1
187647,173.747048,68,0.062963,76,E5,92,1
187680,173.777604,119,0.110185,55,G3,92,2
187716,173.810937,68,0.062963,74,D5,92,1
187785,173.874826,68,0.062963,76,E5,93,1
187800,173.888715,119,0.110185,65,F4,93,2
187854,173.938714,68,0.062963,74,D5,93,1
187920,173.999826,59,0.054629,76,E5,94,1
187920,173.999826,119,0.110185,59,B3,94,2
187980,174.055381,59,0.05463,74,D5,94,1
188040,174.110937,59,0.054629,72,C5,95,1
188040,174.110937,119,0.110185,65,F4,95,2
188100,174.166492,59,0.05463,74,D5,95,1
188160,174.222048,455,0.421295,72,C5,96,1
188160,174.222048,455,0.421295,60,C4,96,2
188160,174.222048,455,0.421295,64,E4,96,2
188640,174.666492,119,0.110185,72,C5,96,1
188760,174.777603,119,0.110185,67,G4,96,1
188880,174.888714,119,0.110185,72,C5,96,1
189000,174.999825,119,0.110185,76,E5,96,1
189120,175.110936,119,0.110185,79,G5,96,1
189240,175.222047,119,0.110185,76,E5,96,1
189360,175.333158,119,0.110185,72,C5,96,1
189480,175.444269,119,0.110185,76,E5,96,1
189600,175.55538,119,0.110185,77,F5,96,1
189600,175.55538,479,0.443518,55,G3,96,2
189600,175.55538,479,0.443518,62,D4,96,2
189600,175.55538,479,0.443518,65,F4,96,2
189720,175.666491,119,0.110185,74,D5,96,1
189840,175.777602,119,0.110185,71,B4,96,1
189960,175.888713,119,0.110185,74,D5,96,1
190080,175.999824,455,0.421295,72,C5,96,1
190080,175.999824,455,0.421295,60,C4,96,2
190080,175.999824,455,0.421295,64,E4,96,2
190560,176.444268,119,0.110185,60,C4,96,1
190680,176.555379,119,0.110185,55,G3,96,1
190800,176.66649,119,0.110185,60,C4,96,1
190920,176.777601,119,0.110185,64,E4,96,1
191040,176.888712,119,0.110185,67,G4,96,1
191160,176.999823,119,0.110185,64,E4,96,1
191280,177.110934,119,0.110185,60,C4,96,1
191400,177.222045,119,0.110185,64,E4,96,1
191520,177.333156,119,0.110185,65,F4,96,1
191520,177.333156,479,0.443518,43,G2,96,2
191520,177.333156,479,0.443518,50,D3,96,2
191520,177.333156,479,0.443518,53,F3,96,2
191640,177.444267,119,0.110185,62,D4,96,1
191760,177.555378,119,0.110185,59,B3,96,1
191880,177.666489,119,0.110185,62,D4,96,1
192000,177.7776,239,0.221296,60,C4,96,1
192000,177.7776,239,0.221296,48,C3,96,2
192000,177.7776,239,0.221296,52,E3,96,2
192480,178.222044,239,0.221296,76,E5,96,1
192480,178.222044,239,0.221296,79,G5,96,1
192480,178.222044,239,0.221296,84,C6,96,1
192480,178.222044,239,0.221296,48,C3,96,2
192480,178.222044,239,0.221296,60,C4,96,2
192960,178.666488,320,0.296296,72,C5,96,1
192960,178.666488,320,0.296296,36,C2,96,2
192960,178.666488,320,0.296296,48,C3,96,2
193920,179.555376,455,0.421295,67,G4,96,1
193920,179.555376,455,0.421295,43,G2,96,2
193920,179.555376,455,0.421295,55,G3,96,2
194400,179.99982,119,0.110185,79,G5,96,1
194520,180.110931,119,0.110185,74,D5,96,1
194640,180.222042,119,0.110185,79,G5,96,1
194760,180.333153,119,0.110185,82,A5#,96,1
194880,180.444264,119,0.110185,86,D6,96,1
195000,180.555375,119,0.110185,82,A5#,96,1
195120,180.666486,119,0.110185,79,G5,96,1
195240,180.777597,119,0.110185,82,A5#,96,1
195360,180.888708,119,0.110185,84,C6,96,1
195360,180.888708,479,0.443518,62,D4,96,2
195360,180.888708,479,0.443518,69,A4,96,2
195360,180.888708,479,0.443518,72,C5,96,2
195480,180.999819,119,0.110185,81,A5,96,1
195600,181.11093,119,0.110185,78,F5#,96,1
195720,181.222041,119,0.110185,81,A5,96,1
195840,181.333152,455,0.421295,79,G5,96,1
195840,181.333152,455,0.421295,67,G4,96,2
195840,181.333152,455,0.421295,70,A4#,96,2
196320,181.777596,119,0.110185,67,G4,96,1
196440,181.888707,119,0.110185,62,D4,96,1
196560,181.999818,119,0.110185,67,G4,96,1
196680,182.110929,119,0.110185,70,A4#,96,1
196800,182.22204,119,0.110185,74,D5,96,1
196920,182.333151,119,0.110185,70,A4#,96,1
197040,182.444262,119,0.110185,67,G4,96,1
197160,182.555373,119,0.110185,70,A4#,96,1
197280,182.666484,119,0.110185,72,C5,96,1
197280,182.666484,455,0.421295,50,D3,96,2
197280,182.666484,455,0.421295,57,A3,96,2
197280,182.666484,455,0.421295,60,C4,96,2
197400,182.777595,119,0.110185,69,A4,96,1
197520,182.888706,119,0.110185,66,F4#,96,1
197640,182.999817,119,0.110185,69,A4,96,1
197760,183.110928,455,0.421295,67,G4,96,1
197880,183.222039,119,0.110185,43,G2,96,2
198000,183.33315,119,0.110185,45,A2,96,2
198120,183.444261,119,0.110185,46,A2#,96,2
198240,183.555372,119,0.110185,48,C3,96,2
198360,183.666483,119,0.110185,50,D3,96,2
198480,183.777594,119,0.110185,52,E3,96,2
198600,183.888705,119,0.110185,54,F3#,96,2
198720,183.999816,455,0.421295,55,G3,96,2
198840,184.110927,119,0.110185,79,G5,96,1
198960,184.222038,119,0.110185,82,A5#,96,1
199080,184.333149,119,0.110185,81,A5,96,1
199200,184.44426,119,0.110185,79,G5,96,1
199320,184.555371,119,0.110185,77,F5,96,1
199440,184.666482,119,0.110185,76,E5,96,1
199560,184.777593,119,0.110185,74,D5,96,1
199680,184.888704,455,0.421295,73,C5#,96,1
199800,184.999815,119,0.110185,45,A2,96,2
199920,185.110926,119,0.110185,47,B2,96,2
200040,185.222037,119,0.110185,49,C3#,96,2
200160,185.333148,119,0.110185,50,D3,96,2
200280,185.444259,119,0.110185,52,E3,96,2
200400,185.55537,119,0.110185,54,F3#,96,2
200520,185.666481,119,0.110185,56,G3#,96,2
200640,185.777592,455,0.421295,57,A3,96,2
200760,185.888703,119,0.110185,85,C6#,96,1
200880,185.999814,119,0.110185,88,E6,96,1
201000,186.110925,119,0.110185,86,D6,96,1
201120,186.222036,119,0.110185,85,C6#,96,1
201240,186.333147,119,0.110185,82,A5#,96,1
201360,186.444258,119,0.110185,81,A5,96,1
201480,186.555369,119,0.110185,79,G5,96,1
201600,186.66648,455,0.421295,77,F5,96,1
201600,186.66648,455,0.421295,38,D2,96,2
201600,186.66648,455,0.421295,50,D3,96,2
202080,187.110924,119,0.110185,74,D5,96,1
202200,187.222035,119,0.110185,69,A4,96,1
202320,187.333146,119,0.110185,74,D5,96,1
202440,187.444257,119,0.110185,77,F5,96,1
202560,187.555368,119,0.110185,81,A5,96,1
202680,187.666479,119,0.110185,77,F5,96,1
202800,187.77759,119,0.110185,74,D5,96,1
202920,187.888701,119,0.110185,77,F5,96,1
203040,187.999812,119,0.110185,79,G5,96,1
203040,187.999812,479,0.443518,57,A3,96,2
203040,187.999812,479,0.443518,64,E4,96,2
203040,187.999812,479,0.443518,67,G4,96,2
203160,188.110923,119,0.110185,76,E5,96,1
203280,188.222034,119,0.110185,73,C5#,96,1
203400,188.333145,119,0.110185,76,E5,96,1
203520,188.444256,455,0.421295,74,D5,96,1
203520,188.444256,455,0.421295,62,D4,96,2
203520,188.444256,455,0.421295,65,F4,96,2
204000,188.8887,119,0.110185,62,D4,96,1
204120,188.999811,119,0.110185,57,A3,96,1
204240,189.110922,119,0.110185,62,D4,96,1
204360,189.222033,119,0.110185,65,F4,96,1
204480,189.333144,119,0.110185,69,A4,96,1
204600,189.444255,119,0.110185,65,F4,96,1
204720,189.555366,119,0.110185,62,D4,96,1
204840,189.666477,119,0.110185,65,F4,96,1
204960,189.777588,119,0.110185,67,G4,96,1
204960,189.777588,479,0.443518,45,A2,96,2
204960,189.777588,479,0.443518,52,E3,96,2
204960,189.777588,479,0.443518,55,G3,96,2
205080,189.888699,119,0.110185,64,E4,96,1
205200,189.99981,119,0.110185,61,C4#,96,1
205320,190.110921,113,0.104629,64,E4,96,1
205440,190.222032,455,0.421295,50,D3,96,2
205440,190.222032,455,0.421295,53,F3,96,2
205560,190.333143,119,0.110185,62,D4,96,1
205680,190.444254,119,0.110185,64,E4,96,1
205800,190.555365,119,0.110185,65,F4,96,1
205920,190.666476,119,0.110185,67,G4,96,1
206040,190.777587,119,0.110185,69,A4,96,1
206160,190.888698,119,0.110185,71,B4,96,1
206280,190.999809,119,0.110185,73,C5#,96,1
206400,191.11092,455,0.421295,74,D5,96,1
206520,191.222031,119,0.110185,62,D4,96,2
206640,191.333142,119,0.110185,65,F4,96,2
206760,191.444253,119,0.110185,64,E4,96,2
206880,191.555364,119,0.110185,62,D4,96,2
207000,191.666475,119,0.110185,60,C4,96,2
207120,191.777586,119,0.110185,59,B3,96,2
207240,191.888697,119,0.110185,57,A3,96,2
207360,191.999808,455,0.421295,56,G3#,96,2
207480,192.110919,119,0.110185,71,B4,96,1
207600,192.22203,119,0.110185,72,C5,96,1
207720,192.333141,119,0.110185,74,D5,96,1
207840,192.444252,119,0.110185,76,E5,96,1
207960,192.555363,119,0.110185,78,F5#,96,1
208080,192.666474,119,0.110185,80,G5#,96,1
208200,192.777585,119,0.110185,81,A5,96,1
208320,192.888696,455,0.421295,83,B5,96,1
208440,192.999807,119,0.110185,56,G3#,96,2
208560,193.110918,119,0.110185,59,B3,96,2
208680,193.222029,119,0.110185,57,A3,96,2
208800,193.33314,119,0.110185,56,G3#,96,2
208920,193.444251,119,0.110185,53,F3,96,2
209040,193.555362,119,0.110185,52,E3,96,2
209160,193.666473,119,0.110185,50,D3,96,2
209280,193.777584,455,0.421295,48,C3,96,2
209400,193.888695,119,0.110185,81,A5,96,1
209520,193.999806,119,0.110185,88,E6,96,1
209640,194.110917,119,0.110185,86,D6,96,1
209760,194.222028,119,0.110185,84,C6,96,1
209880,194.333139,119,0.110185,83,B5,96,1
210000,194.44425,119,0.110185,81,A5,96,1
210120,194.555361,119,0.110185,79,G5,96,1
210240,194.666472,455,0.421295,77,F5,96,1
210360,194.777583,119,0.110185,62,D4,96,2
210480,194.888694,119,0.110185,69,A4,96,2
210600,194.999805,119,0.110185,67,G4,96,2
210720,195.110916,119,0.110185,65,F4,96,2
210840,195.222027,119,0.110185,64,E4,96,2
210960,195.333138,119,0.110185,62,D4,96,2
211080,195.444249,119,0.110185,60,C4,96,2
211200,195.55536,455,0.421295,59,B3,96,2
211320,195.666471,119,0.110185,79,G5,96,1
211440,195.777582,119,0.110185,86,D6,96,1
211560,195.888693,119,0.110185,84,C6,96,1
211680,195.999804,119,0.110185,83,B5,96,1
211800,196.110915,119,0.110185,81,A5,96,1
211920,196.222026,119,0.110185,79,G5,96,1
212040,196.333137,119,0.110185,77,F5,96,1
212160,196.444248,455,0.421295,76,E5,96,1
212280,196.555359,119,0.110185,60,C4,96,2
212400,196.66647,119,0.110185,67,G4,96,2
212520,196.777581,119,0.110185,65,F4,96,2
212640,196.888692,119,0.110185,64,E4,96,2
212760,196.999803,119,0.110185,62,D4,96,2
212880,197.110914,119,0.110185,60,C4,96,2
213000,197.222025,119,0.110185,59,B3,96,2
213120,197.333136,455,0.421295,57,A3,96,2
213240,197.444247,119,0.110185,77,F5,96,1
213360,197.555358,119,0.110185,84,C6,96,1
213480,197.666469,119,0.110185,83,B5,96,1
213600,197.77758,119,0.110185,81,A5,96,1
213720,197.888691,119,0.110185,79,G5,96,1
213840,197.999802,119,0.110185,77,F5,96,1
213960,198.110913,119,0.110185,76,E5,96,1
214080,198.222024,455,0.421295,74,D5,96,1
214200,198.333135,119,0.110185,59,B3,96,2
214320,198.444246,119,0.110185,65,F4,96,2
214440,198.555357,119,0.110185,64,E4,96,2
214560,198.666468,119,0.110185,62,D4,96,2
214680,198.777579,119,0.110185,60,C4,96,2
214800,198.88869,119,0.110185,59,B3,96,2
214920,198.999801,119,0.110185,57,A3,96,2
215040,199.110912,455,0.421295,56,G3#,96,2
215160,199.222023,119,0.110185,76,E5,96,1
215280,199.333134,119,0.110185,83,B5,96,1
215400,199.444245,119,0.110185,81,A5,96,1
215520,199.555356,119,0.110185,80,G5#,96,1
215640,199.666467,119,0.110185,77,F5,96,1
215760,199.777578,119,0.110185,76,E5,96,1
215880,199.888689,119,0.110185,74,D5,96,1
216000,199.9998,455,0.421295,72,C5,96,1
216120,200.110911,119,0.110185,57,A3,95,2
216240,200.222022,119,0.110185,60,C4,93,2
216360,200.333133,119,0.110185,59,B3,91,2
216480,200.444244,119,0.110185,57,A3,89,2
216600,200.555355,119,0.110185,55,G3,87,2
216720,200.666466,119,0.110185,53,F3,85,2
216840,200.777577,119,0.110185,52,E3,83,2
216960,200.888688,911,0.843517,50,D3,81,2
217080,200.999799,119,0.110185,70,A4#,79,1
217200,201.11091,119,0.110185,74,D5,77,1
217320,201.222021,119,0.110185,72,C5,75,1
217440,201.333132,119,0.110185,70,A4#,73,1
217560,201.444243,119,0.110185,69,A4,71,1
217680,201.555354,119,0.110185,67,G4,69,1
217800,201.666465,119,0.110185,65,F4,67,1
217920,201.777576,119,0.110185,64,E4,65,1
217920,201.777576,911,0.843517,48,C3,65,2
217920,201.777576,911,0.843517,55,G3,65,2
217920,201.777576,911,0.843517,58,A3#,65,2
218040,201.888687,119,0.110185,65,F4,63,1
218160,201.999798,119,0.110185,67,G4,61,1
218280,202.110909,119,0.110185,69,A4,59,1
218400,202.22202,119,0.110185,70,A4#,57,1
218520,202.333131,119,0.110185,72,C5,55,1
218640,202.444242,119,0.110185,74,D5,53,1
218760,202.555353,119,0.110185,76,E5,51,1
218880,202.666464,959,0.887962,77,F5,49,1
218880,202.666464,239,0.221296,65,F4,49,2
219120,202.888686,239,0.221296,72,C5,49,2
219360,203.110908,239,0.221296,69,A4,49,2
219600,203.33313,239,0.221296,72,C5,49,2
219840,203.555352,455,0.421295,81,A5,49,1
219840,203.555352,239,0.221296,65,F4,49,2
220080,203.777574,239,0.221296,72,C5,49,2
220320,203.999796,455,0.421295,84,C6,49,1
220320,203.999796,239,0.221296,69,A4,49,2
220560,204.222018,239,0.221296,72,C5,49,2
220800,204.44424,719,0.66574,76,E5,49,1
220800,204.44424,239,0.221296,67,G4,49,2
221040,204.666462,239,0.221296,72,C5,49,2
221280,204.888684,239,0.221296,70,A4#,49,2
221520,205.110906,119,0.110185,77,F5,49,1
221520,205.110906,239,0.221296,72,C5,49,2
221640,205.222017,119,0.110185,79,G5,49,1
221760,205.333128,911,0.843517,77,F5,49,1
221760,205.333128,239,0.221296,65,F4,49,2
222000,205.55535,239,0.221296,72,C5,49,2
222240,205.777572,239,0.221296,69,A4,49,2
222480,205.999794,239,0.221296,72,C5,49,2
222720,206.222016,959,0.887962,86,D6,49,1
222720,206.222016,239,0.221296,65,F4,49,2
222960,206.444238,239,0.221296,74,D5,49,2
223200,206.66646,239,0.221296,70,A4#,49,2
223440,206.888682,239,0.221296,74,D5,49,2
223680,207.110904,455,0.421295,84,C6,49,1
223680,207.110904,239,0.221296,65,F4,49,2
223920,207.333126,239,0.221296,72,C5,49,2
224160,207.555348,455,0.421295,89,F6,49,1
224160,207.555348,239,0.221296,69,A4,49,2
224400,207.77757,239,0.221296,72,C5,49,2
224640,207.999792,479,0.443518,84,C6,49,1
224640,207.999792,239,0.221296,64,E4,49,2
224880,208.222014,239,0.221296,72,C5,49,2
225120,208.444236,47,0.043518,82,A5#,49,1
225120,208.444236,239,0.221296,67,G4,49,2
225168,208.48868,47,0.043518,84,C6,49,1
225216,208.533124,47,0.043519,82,A5#,49,1
225264,208.577569,47,0.043518,84,C6,49,1
225312,208.622013,47,0.043519,82,A5#,49,1
225360,208.666458,119,0.110185,81,A5,49,1
225360,208.666458,239,0.221296,72,C5,49,2
225480,208.777569,119,0.110185,82,A5#,49,1
225600,208.88868,455,0.421295,81,A5,49,1
225600,208.88868,239,0.221296,65,F4,49,2
225840,209.110902,239,0.221296,72,C5,49,2
226080,209.333124,239,0.221296,69,A4,49,2
226320,209.555346,239,0.221296,72,C5,49,2
226560,209.777568,239,0.221296,74,D5,49,1
226560,209.777568,455,0.421295,70,A4#,49,2
226800,209.99979,119,0.110185,76,E5,49,1
226920,210.110901,119,0.110185,77,F5,49,1
227040,210.222012,119,0.110185,79,G5,49,1
227160,210.333123,119,0.110185,81,A5,49,1
227280,210.444234,119,0.110185,82,A5#,49,1
227400,210.555345,119,0.110185,84,C6,49,1
227520,210.666456,119,0.110185,86,D6,49,1
227640,210.777567,119,0.110185,84,C6,49,1
227760,210.888678,119,0.110185,82,A5#,49,1
227880,210.999789,119,0.110185,81,A5,49,1
228000,211.1109,119,0.110185,79,G5,49,1
228000,211.1109,455,0.421295,58,A3#,49,2
228000,211.1109,455,0.421295,65,F4,49,2
228120,211.222011,119,0.110185,77,F5,49,1
228240,211.333122,119,0.110185,76,E5,49,1
228360,211.444233,119,0.110185,74,D5,49,1
228480,211.555344,239,0.221296,72,C5,49,1
228480,211.555344,455,0.421295,57,A3,49,2
228480,211.555344,455,0.421295,65,F4,49,2
228720,211.777566,119,0.110185,74,D5,49,1
228840,211.888677,119,0.110185,76,E5,49,1
228960,211.999788,119,0.110185,77,F5,49,1
229080,212.110899,119,0.110185,79,G5,49,1
229200,212.22201,119,0.110185,81,A5,49,1
229320,212.333121,119,0.110185,82,A5#,49,1
229440,212.444232,119,0.110185,84,C6,49,1
229560,212.555343,119,0.110185,82,A5#,49,1
229680,212.666454,119,0.110185,81,A5,49,1
229800,212.777565,119,0.110185,79,G5,49,1
229920,212.888676,119,0.110185,77,F5,49,1
229920,212.888676,455,0.421295,57,A3,49,2
229920,212.888676,455,0.421295,65,F4,49,2
230040,212.999787,119,0.110185,76,E5,49,1
230160,213.110898,119,0.110185,74,D5,49,1
230280,213.222009,119,0.110185,72,C5,49,1
230400,213.33312,239,0.221296,70,A4#,49,1
230400,213.33312,455,0.421295,55,G3,49,2
230400,213.33312,455,0.421295,65,F4,49,2
230640,213.555342,119,0.110185,72,C5,49,1
230760,213.666453,119,0.110185,74,D5,49,1
230880,213.777564,119,0.110185,76,E5,49,1
231000,213.888675,119,0.110185,77,F5,49,1
231120,213.999786,119,0.110185,79,G5,49,1
231240,214.110897,119,0.110185,81,A5,49,1
231360,214.222008,119,0.110185,82,A5#,49,1
231480,214.333119,119,0.110185,81,A5,49,1
231600,214.44423,119,0.110185,79,G5,49,1
231720,214.555341,119,0.110185,77,F5,49,1
231840,214.666452,119,0.110185,76,E5,49,1
231840,214.666452,455,0.421295,55,G3,49,2
231840,214.666452,455,0.421295,64,E4,49,2
231960,214.777563,119,0.110185,74,D5,49,1
232080,214.888674,119,0.110185,72,C5,49,1
232200,214.999785,119,0.110185,70,A4#,49,1
232320,215.110896,239,0.221296,69,A4,49,1
232320,215.110896,455,0.421295,53,F3,49,2
232320,215.110896,455,0.421295,65,F4,49,2
232560,215.333118,119,0.110185,70,A4#,49,1
232680,215.444229,119,0.110185,72,C5,49,1
232800,215.55534,119,0.110185,74,D5,49,1
232920,215.666451,119,0.110185,76,E5,49,1
233040,215.777562,119,0.110185,77,F5,49,1
233160,215.888673,119,0.110185,79,G5,49,1
233280,215.999784,119,0.110185,81,A5,49,1
233400,216.110895,119,0.110185,79,G5,49,1
233520,216.222006,119,0.110185,77,F5,49,1
233640,216.333117,119,0.110185,76,E5,49,1
233760,216.444228,119,0.110185,74,D5,49,1
233880,216.555339,119,0.110185,72,C5,49,1
234000,216.66645,119,0.110185,70,A4#,49,1
234120,216.777561,119,0.110185,69,A4,49,1
234240,216.888672,455,0.421295,81,A5,49,1
234240,216.888672,239,0.221296,53,F3,49,2
234480,217.110894,119,0.110185,55,G3,49,2
234600,217.222005,119,0.110185,57,A3,49,2
234720,217.333116,119,0.110185,58,A3#,49,2
234840,217.444227,119,0.110185,60,C4,49,2
234960,217.555338,119,0.110185,62,D4,49,2
235080,217.666449,119,0.110185,64,E4,49,2
235200,217.77756,119,0.110185,65,F4,49,2
235320,217.888671,119,0.110185,64,E4,49,2
235440,217.999782,119,0.110185,62,D4,49,2
235560,218.110893,119,0.110185,60,C4,49,2
235680,218.222004,455,0.421295,72,C5,49,1
235680,218.222004,455,0.421295,81,A5,49,1
235680,218.222004,119,0.110185,58,A3#,49,2
235800,218.333115,119,0.110185,57,A3,49,2
235920,218.444226,119,0.110185,55,G3,49,2
236040,218.555337,119,0.110185,53,F3,49,2
236160,218.666448,455,0.421295,72,C5,49,1
236160,218.666448,455,0.421295,79,G5,49,1
236160,218.666448,239,0.221296,52,E3,49,2
236400,218.88867,119,0.110185,53,F3,49,2
236520,218.999781,119,0.110185,55,G3,49,2
236640,219.110892,119,0.110185,57,A3,49,2
236760,219.222003,119,0.110185,59,B3,49,2
236880,219.333114,119,0.110185,60,C4,49,2
237000,219.444225,119,0.110185,62,D4,49,2
237120,219.555336,119,0.110185,64,E4,49,2
237240,219.666447,119,0.110185,62,D4,49,2
237360,219.777558,119,0.110185,60,C4,49,2
237480,219.888669,119,0.110185,59,B3,49,2
237600,219.99978,455,0.421295,72,C5,49,1
237600,219.99978,455,0.421295,79,G5,49,1
237600,219.99978,119,0.110185,57,A3,49,2
237720,220.110891,119,0.110185,55,G3,49,2
237840,220.222002,119,0.110185,53,F3,49,2
237960,220.333113,119,0.110185,52,E3,49,2
238080,220.444224,455,0.421295,72,C5,49,1
238080,220.444224,455,0.421295,77,F5,49,1
238080,220.444224,239,0.221296,50,D3,49,2
238320,220.666446,119,0.110185,52,E3,49,2
238440,220.777557,119,0.110185,53,F3,49,2
238560,220.888668,119,0.110185,55,G3,49,2
238680,220.999779,119,0.110185,57,A3,49,2
238800,221.11089,119,0.110185,59,B3,49,2
238920,221.222001,119,0.110185,60,C4,49,2
239040,221.333112,119,0.110185,62,D4,49,2
239160,221.444223,119,0.110185,60,C4,49,2
239280,221.555334,119,0.110185,59,B3,49,2
239400,221.666445,119,0.110185,57,A3,49,2
239520,221.777556,455,0.421295,71,B4,49,1
239520,221.777556,455,0.421295,77,F5,49,1
239520,221.777556,119,0.110185,55,G3,49,2
239640,221.888667,119,0.110185,53,F3,49,2
239760,221.999778,119,0.110185,52,E3,49,2
239880,222.110889,119,0.110185,50,D3,49,2
240000,222.222,455,0.421295,72,C5,49,1
240000,222.222,455,0.421295,76,E5,49,1
240000,222.222,239,0.221296,48,C3,49,2
240240,222.444222,119,0.110185,50,D3,49,2
240360,222.555333,119,0.110185,52,E3,49,2
240480,222.666444,119,0.110185,53,F3,49,2
240600,222.777555,119,0.110185,55,G3,49,2
240720,222.888666,119,0.110185,57,A3,49,2
240840,222.999777,119,0.110185,59,B3,49,2
240960,223.110888,119,0.110185,60,C4,49,2
241080,223.221999,119,0.110185,59,B3,49,2
241200,223.33311,119,0.110185,57,A3,49,2
241320,223.444221,119,0.110185,55,G3,49,2
241440,223.555332,455,0.421295,72,C5,49,1
241440,223.555332,455,0.421295,76,E5,49,1
241440,223.555332,119,0.110185,53,F3,49,2
241560,223.666443,119,0.110185,52,E3,49,2
241680,223.777554,119,0.110185,50,D3,49,2
241800,223.888665,113,0.104629,48,C3,49,2
241920,223.999776,119,0.110185,74,D5,49,1
241920,223.999776,1823,1.687961,53,F3,49,2
241920,223.999776,1823,1.687961,57,A3,49,2
242040,224.110887,119,0.110185,62,D4,50,1
242160,224.221998,119,0.110185,64,E4,51,1
242280,224.333109,119,0.110185,65,F4,53,1
242400,224.44422,119,0.110185,67,G4,54,1
242520,224.555331,119,0.110185,69,A4,56,1
242640,224.666442,119,0.110185,71,B4,57,1
242760,224.777553,119,0.110185,73,C5#,59,1
242880,224.888664,119,0.110185,74,D5,60,1
243000,224.999775,119,0.110185,69,A4,62,1
243120,225.110886,119,0.110185,71,B4,63,1
243240,225.221997,119,0.110185,73,C5#,65,1
243360,225.333108,119,0.110185,74,D5,66,1
243480,225.444219,119,0.110185,76,E5,68,1
243600,225.55533,119,0.110185,77,F5,69,1
243720,225.666441,119,0.110185,79,G5,71,1
243840,225.777552,119,0.110185,81,A5,72,1
243840,225.777552,683,0.632406,53,F3,72,2
243960,225.888663,119,0.110185,83,B5,73,1
244080,225.999774,119,0.110185,84,C6,75,1
244200,226.110885,119,0.110185,83,B5,76,1
244320,226.221996,119,0.110185,81,A5,78,1
244440,226.333107,119,0.110185,79,G5,79,1
244560,226.444218,119,0.110185,77,F5,81,1
244560,226.444218,227,0.210184,55,G3,81,2
244680,226.555329,119,0.110185,76,E5,82,1
244800,226.66644,119,0.110185,77,F5,84,1
244800,226.66644,683,0.632406,57,A3,84,2
244920,226.777551,119,0.110185,79,G5,85,1
245040,226.888662,119,0.110185,81,A5,87,1
245160,226.999773,119,0.110185,79,G5,88,1
245280,227.110884,119,0.110185,77,F5,90,1
245400,227.221995,119,0.110185,76,E5,91,1
245520,227.333106,119,0.110185,74,D5,93,1
245520,227.333106,227,0.210184,54,F3#,93,2
245640,227.444217,119,0.110185,72,C5,94,1
245760,227.555328,119,0.110185,71,B4,96,1
245760,227.555328,119,0.110185,43,G2,96,2
245880,227.666439,119,0.110185,47,B2,96,2
246000,227.77755,119,0.110185,79,G5,96,1
246000,227.77755,119,0.110185,50,D3,96,2
246120,227.888661,119,0.110185,55,G3,96,2
246240,227.999772,119,0.110185,76,E5,96,1
246240,227.999772,119,0.110185,43,G2,96,2
246360,228.110883,119,0.110185,48,C3,96,2
246480,228.221994,119,0.110185,72,C5,96,1
246480,228.221994,119,0.110185,52,E3,96,2
246600,228.333105,119,0.110185,55,G3,96,2
246720,228.444216,119,0.110185,74,D5,96,1
246720,228.444216,119,0.110185,43,G2,96,2
246840,228.555327,119,0.110185,47,B2,96,2
246960,228.666438,119,0.110185,79,G5,96,1
246960,228.666438,119,0.110185,50,D3,96,2
247080,228.777549,119,0.110185,55,G3,96,2
247200,228.88866,119,0.110185,76,E5,96,1
247200,228.88866,119,0.110185,43,G2,96,2
247320,228.999771,119,0.110185,48,C3,96,2
247440,229.110882,119,0.110185,72,C5,96,1
247440,229.110882,119,0.110185,52,E3,96,2
247560,229.221993,119,0.110185,55,G3,96,2
247680,229.333104,239,0.221296,74,D5,96,1
247680,229.333104,239,0.221296,43,G2,96,2
248160,229.777548,239,0.221296,71,B4,96,1
248160,229.777548,239,0.221296,74,D5,96,1
248160,229.777548,239,0.221296,79,G5,96,1
248160,229.777548,239,0.221296,55,G3,96,2
248640,230.221992,320,0.296296,67,G4,96,1
248640,230.221992,320,0.296296,43,G2,96,2
249600,231.11088,119,0.110185,66,F4#,49,2
249720,231.221991,119,0.110185,67,G4,49,2
249840,231.333102,119,0.110185,66,F4#,49,2
249960,231.444213,119,0.110185,67,G4,49,2
250080,231.555324,119,0.110185,66,F4#,49,2
250200,231.666435,119,0.110185,67,G4,49,2
250320,231.777546,119,0.110185,66,F4#,49,2
250440,231.888657,119,0.110185,67,G4,49,2
250560,231.999768,119,0.110185,65,F4,49,2
250680,232.110879,119,0.110185,67,G4,49,2
250800,232.22199,119,0.110185,65,F4,49,2
250920,232.333101,119,0.110185,67,G4,49,2
251040,232.444212,119,0.110185,65,F4,49,2
251160,232.555323,119,0.110185,67,G4,49,2
251280,232.666434,119,0.110185,65,F4,49,2
251400,232.777545,119,0.110185,67,G4,49,2
251520,232.888656,239,0.221296,79,G5,49,1
251520,232.888656,119,0.110185,64,E4,49,2
251640,232.999767,119,0.110185,67,G4,49,2
251760,233.110878,227,0.210184,76,E5,49,1
251760,233.110878,119,0.110185,64,E4,49,2
251880,233.221989,119,0.110185,67,G4,49,2
252000,233.3331,719,0.66574,72,C5,49,1
252000,233.3331,119,0.110185,64,E4,49,2
252120,233.444211,119,0.110185,67,G4,49,2
252240,233.555322,119,0.110185,64,E4,49,2
252360,233.666433,119,0.110185,67,G4,49,2
252480,233.777544,119,0.110185,64,E4,49,2
252600,233.888655,119,0.110185,67,G4,49,2
252720,233.999766,119,0.110185,74,D5,49,1
252720,233.999766,119,0.110185,64,E4,49,2
252840,234.110877,119,0.110185,76,E5,49,1
252840,234.110877,119,0.110185,67,G4,49,2
252960,234.221988,239,0.221296,74,D5,49,1
252960,234.221988,119,0.110185,64,E4,49,2
253080,234.333099,119,0.110185,67,G4,49,2
253200,234.44421,119,0.110185,72,C5,49,1
253200,234.44421,119,0.110185,64,E4,49,2
253320,234.555321,119,0.110185,67,G4,49,2
253440,234.666432,71,0.06574,72,C5,49,1
253440,234.666432,119,0.110185,65,F4,49,2
253512,234.733098,71,0.065741,74,D5,49,1
253560,234.777543,119,0.110185,67,G4,49,2
253584,234.799765,71,0.06574,72,C5,49,1
253656,234.866431,71,0.065741,74,D5,49,1
253680,234.888654,119,0.110185,64,E4,49,2
253728,234.933098,71,0.065741,72,C5,49,1
253800,234.999765,119,0.110185,71,B4,49,1
253800,234.999765,119,0.110185,67,G4,49,2
253920,235.110876,455,0.421295,71,B4,49,1
253920,235.110876,119,0.110185,62,D4,49,2
254040,235.221987,119,0.110185,67,G4,49,2
254160,235.333098,119,0.110185,64,E4,49,2
254280,235.444209,119,0.110185,67,G4,49,2
254400,235.55532,119,0.110185,65,F4,49,2
254520,235.666431,119,0.110185,67,G4,49,2
254640,235.777542,119,0.110185,64,E4,49,2
254760,235.888653,119,0.110185,67,G4,49,2
254880,235.999764,119,0.110185,65,F4,49,2
255000,236.110875,119,0.110185,67,G4,49,2
255120,236.221986,119,0.110185,62,D4,49,2
255240,236.333097,119,0.110185,67,G4,49,2
255360,236.444208,239,0.221296,79,G5,49,1
255360,236.444208,119,0.110185,64,E4,49,2
255480,236.555319,119,0.110185,67,G4,49,2
255600,236.66643,227,0.210184,76,E5,49,1
255600,236.66643,119,0.110185,64,E4,49,2
255720,236.777541,119,0.110185,67,G4,49,2
255840,236.888652,719,0.66574,72,C5,49,1
255840,236.888652,119,0.110185,64,E4,49,2
255960,236.999763,119,0.110185,67,G4,49,2
256080,237.110874,119,0.110185,64,E4,49,2
256200,237.221985,119,0.110185,67,G4,49,2
256320,237.333096,119,0.110185,64,E4,49,2
256440,237.444207,119,0.110185,67,G4,49,2
256560,237.555318,119,0.110185,74,D5,49,1
256560,237.555318,119,0.110185,64,E4,49,2
256680,237.666429,119,0.110185,76,E5,49,1
256680,237.666429,119,0.110185,67,G4,49,2
256800,237.77754,239,0.221296,74,D5,49,1
256800,237.77754,119,0.110185,64,E4,49,2
256920,237.888651,119,0.110185,67,G4,49,2
257040,237.999762,119,0.110185,72,C5,49,1
257040,237.999762,119,0.110185,64,E4,49,2
257160,238.110873,119,0.110185,67,G4,49,2
257280,238.221984,71,0.06574,72,C5,49,1
257280,238.221984,119,0.110185,65,F4,49,2
257352,238.28865,71,0.065741,74,D5,49,1
257400,238.333095,119,0.110185,67,G4,49,2
257424,238.355317,71,0.06574,72,C5,49,1
257496,238.421983,71,0.065741,74,D5,49,1
257520,238.444206,119,0.110185,64,E4,49,2
257568,238.48865,71,0.065741,72,C5,49,1
257640,238.555317,119,0.110185,71,B4,49,1
257640,238.555317,119,0.110185,67,G4,49,2
257760,238.666428,455,0.421295,71,B4,49,1
257760,238.666428,119,0.110185,62,D4,49,2
257880,238.777539,119,0.110185,67,G4,49,2
258000,238.88865,119,0.110185,64,E4,49,2
258120,238.999761,119,0.110185,67,G4,49,2
258240,239.110872,119,0.110185,65,F4,49,2
258360,239.221983,119,0.110185,67,G4,49,2
258480,239.333094,119,0.110185,64,E4,49,2
258600,239.444205,119,0.110185,67,G4,49,2
258720,239.555316,119,0.110185,65,F4,49,2
258840,239.666427,119,0.110185,67,G4,49,2
258960,239.777538,119,0.110185,62,D4,49,2
259080,239.888649,119,0.110185,67,G4,49,2
259200,239.99976,479,0.443518,79,G5,49,1
259320,240.110871,119,0.110185,52,E3,49,2
259440,240.221982,119,0.110185,55,G3,49,2
259560,240.333093,119,0.110185,60,C4,49,2
259680,240.444204,479,0.443518,64,E4,49,2
259800,240.555315,119,0.110185,79,G5,49,1
259920,240.666426,119,0.110185,76,E5,49,1
260040,240.777537,119,0.110185,72,C5,49,1
260160,240.888648,479,0.443518,69,A4,49,1
260280,240.999759,119,0.110185,53,F3,49,2
260400,241.11087,119,0.110185,57,A3,49,2
260520,241.221981,119,0.110185,60,C4,49,2
260640,241.333092,479,0.443518,65,F4,49,2
260760,241.444203,119,0.110185,69,A4,49,1
260880,241.555314,119,0.110185,72,C5,49,1
261000,241.666425,119,0.110185,69,A4,49,1
261120,241.777536,479,0.443518,77,F5,49,1
261240,241.888647,119,0.110185,50,D3,49,2
261360,241.999758,119,0.110185,53,F3,49,2
261480,242.110869,119,0.110185,59,B3,49,2
261600,242.22198,479,0.443518,62,D4,49,2
261720,242.333091,119,0.110185,77,F5,49,1
261840,242.444202,119,0.110185,74,D5,49,1
261960,242.555313,119,0.110185,71,B4,49,1
262080,242.666424,479,0.443518,67,G4,49,1
262200,242.777535,119,0.110185,52,E3,49,2
262320,242.888646,119,0.110185,55,G3,49,2
262440,242.999757,119,0.110185,59,B3,49,2
262560,243.110868,479,0.443518,64,E4,49,2
262680,243.221979,119,0.110185,79,G5,49,1
262800,243.33309,119,0.110185,83,B5,49,1
262920,243.444201,119,0.110185,79,G5,49,1
263040,243.555312,479,0.443518,88,E6,49,1
263160,243.666423,119,0.110185,60,C4,49,2
263280,243.777534,119,0.110185,64,E4,49,2
263400,243.888645,119,0.110185,69,A4,49,2
263520,243.999756,479,0.443518,72,C5,49,2
263640,244.110867,119,0.110185,88,E6,49,1
263760,244.221978,119,0.110185,84,C6,49,1
263880,244.333089,119,0.110185,81,A5,49,1
264000,244.4442,479,0.443518,77,F5,49,1
264120,244.555311,119,0.110185,62,D4,49,2
264240,244.666422,119,0.110185,65,F4,49,2
264360,244.777533,119,0.110185,69,A4,49,2
264480,244.888644,479,0.443518,74,D5,49,2
264600,244.999755,119,0.110185,77,F5,49,1
264720,245.110866,119,0.110185,81,A5,49,1
264840,245.221977,119,0.110185,77,F5,49,1
264960,245.333088,479,0.443518,86,D6,49,1
265080,245.444199,119,0.110185,59,B3,49,2
265200,245.55531,119,0.110185,62,D4,49,2
265320,245.666421,119,0.110185,67,G4,49,2
265440,245.777532,479,0.443518,71,B4,49,2
265560,245.888643,119,0.110185,86,D6,49,1
265680,245.999754,119,0.110185,83,B5,49,1
265800,246.110865,119,0.110185,79,G5,49,1
265920,246.221976,479,0.443518,76,E5,49,1
266040,246.333087,119,0.110185,60,C4,49,2
266160,246.444198,119,0.110185,64,E4,49,2
266280,246.555309,119,0.110185,67,G4,49,2
266400,246.66642,479,0.443518,72,C5,49,2
266520,246.777531,119,0.110185,84,C6,49,1
266640,246.888642,119,0.110185,79,G5,49,1
266760,246.999753,119,0.110185,76,E5,49,1
266880,247.110864,959,0.887962,74,D5,49,1
267120,247.333086,119,0.110185,65,F4,49,2
267120,247.333086,119,0.110185,69,A4,49,2
267360,247.555308,119,0.110185,65,F4,49,2
267360,247.555308,119,0.110185,69,A4,49,2
267600,247.77753,119,0.110185,65,F4,49,2
267600,247.77753,119,0.110185,69,A4,49,2
267840,247.999752,69,0.063888,73,C5#,49,1
267840,247.999752,119,0.110185,65,F4,49,2
267840,247.999752,119,0.110185,69,A4,49,2
267910,248.064566,388,0.359259,74,D5,49,1
268080,248.221974,119,0.110185,65,F4,50,2
268080,248.221974,119,0.110185,69,A4,50,2
268320,248.444196,69,0.063888,73,C5#,52,1
268320,248.444196,119,0.110185,65,F4,52,2
268320,248.444196,119,0.110185,69,A4,52,2
268390,248.50901,388,0.359259,74,D5,52,1
268560,248.666418,119,0.110185,65,F4,54,2
268560,248.666418,119,0.110185,69,A4,54,2
268800,248.88864,911,0.843517,81,A5,55,1
269040,249.110862,119,0.110185,54,F3#,57,2
269040,249.110862,119,0.110185,60,C4,57,2
269040,249.110862,119,0.110185,63,D4#,57,2
269280,249.333084,119,0.110185,54,F3#,59,2
269280,249.333084,119,0.110185,60,C4,59,2
269280,249.333084,119,0.110185,63,D4#,59,2
269520,249.555306,119,0.110185,54,F3#,60,2
269520,249.555306,119,0.110185,60,C4,60,2
269520,249.555306,119,0.110185,63,D4#,60,2
269760,249.777528,69,0.063888,80,G5#,62,1
269760,249.777528,119,0.110185,54,F3#,62,2
269760,249.777528,119,0.110185,60,C4,62,2
269760,249.777528,119,0.110185,63,D4#,62,2
269830,249.842342,388,0.359259,81,A5,62,1
270000,249.99975,119,0.110185,54,F3#,64,2
270000,249.99975,119,0.110185,60,C4,64,2
270000,249.99975,119,0.110185,63,D4#,64,2
270240,250.221972,69,0.063888,80,G5#,65,1
270240,250.221972,119,0.110185,54,F3#,65,2
270240,250.221972,119,0.110185,60,C4,65,2
270240,250.221972,119,0.110185,63,D4#,65,2
270310,250.286786,388,0.359259,81,A5,65,1
270480,250.444194,119,0.110185,54,F3#,67,2
270480,250.444194,119,0.110185,60,C4,67,2
270480,250.444194,119,0.110185,63,D4#,67,2
270720,250.666416,239,0.221296,79,G5,69,1
270720,250.666416,119,0.110185,55,G3,69,2
270840,250.777527,119,0.110185,64,E4,69,2
270960,250.888638,119,0.110185,81,A5,70,1
270960,250.888638,119,0.110185,60,C4,70,2
271080,250.999749,119,0.110185,83,B5,71,1
271080,250.999749,119,0.110185,64,E4,71,2
271200,251.11086,119,0.110185,84,C6,72,1
271200,251.11086,119,0.110185,55,G3,72,2
271320,251.221971,119,0.110185,86,D6,73,1
271320,251.221971,119,0.110185,64,E4,73,2
271440,251.333082,119,0.110185,88,E6,74,1
271440,251.333082,119,0.110185,60,C4,74,2
271560,251.444193,119,0.110185,86,D6,75,1
271560,251.444193,119,0.110185,64,E4,75,2
271680,251.555304,119,0.110185,84,C6,75,1
271680,251.555304,119,0.110185,55,G3,75,2
271800,251.666415,119,0.110185,83,B5,76,1
271800,251.666415,119,0.110185,64,E4,76,2
271920,251.777526,119,0.110185,81,A5,77,1
271920,251.777526,119,0.110185,60,C4,77,2
272040,251.888637,119,0.110185,79,G5,78,1
272040,251.888637,119,0.110185,64,E4,78,2
272160,251.999748,119,0.110185,77,F5,79,1
272160,251.999748,119,0.110185,55,G3,79,2
272280,252.110859,119,0.110185,76,E5,80,1
272280,252.110859,119,0.110185,64,E4,80,2
272400,252.22197,119,0.110185,74,D5,80,1
272400,252.22197,119,0.110185,60,C4,80,2
272520,252.333081,119,0.110185,72,C5,81,1
272520,252.333081,119,0.110185,64,E4,81,2
272640,252.444192,59,0.054629,74,D5,82,1
272640,252.444192,119,0.110185,55,G3,82,2
272700,252.499747,59,0.05463,76,E5,82,1
272760,252.555303,59,0.054629,74,D5,83,1
272760,252.555303,119,0.110185,65,F4,83,2
272820,252.610858,59,0.05463,76,E5,83,1
272880,252.666414,59,0.054629,74,D5,84,1
272880,252.666414,119,0.110185,59,B3,84,2
272940,252.721969,59,0.05463,76,E5,84,1
273000,252.777525,59,0.054629,74,D5,85,1
273000,252.777525,119,0.110185,65,F4,85,2
273060,252.83308,59,0.05463,76,E5,85,1
273120,252.888636,59,0.054629,74,D5,85,1
273120,252.888636,119,0.110185,55,G3,85,2
273180,252.944191,59,0.05463,76,E5,86,1
273240,252.999747,59,0.054629,74,D5,86,1
273240,252.999747,119,0.110185,65,F4,86,2
273300,253.055302,59,0.05463,76,E5,87,1
273360,253.110858,59,0.054629,74,D5,87,1
273360,253.110858,119,0.110185,59,B3,87,2
273420,253.166413,59,0.05463,76,E5,88,1
273480,253.221969,59,0.054629,74,D5,88,1
273480,253.221969,119,0.110185,65,F4,88,2
273540,253.277524,59,0.05463,76,E5,88,1
273600,253.33308,59,0.054629,74,D5,89,1
273600,253.33308,119,0.110185,55,G3,89,2
273660,253.388635,59,0.05463,76,E5,89,1
273720,253.444191,59,0.054629,74,D5,90,1
273720,253.444191,119,0.110185,65,F4,90,2
273780,253.499746,59,0.05463,76,E5,90,1
273840,253.555302,68,0.062962,74,D5,90,1
273840,253.555302,119,0.110185,59,B3,90,2
273909,253.61919,68,0.062963,76,E5,91,1
273960,253.666413,119,0.110185,65,F4,91,2
273978,253.683079,68,0.062963,74,D5,91,1
274047,253.746968,68,0.062963,76,E5,92,1
274080,253.777524,119,0.110185,55,G3,92,2
274116,253.810857,68,0.062963,74,D5,92,1
274185,253.874746,68,0.062963,76,E5,93,1
274200,253.888635,119,0.110185,65,F4,93,2
274254,253.938634,68,0.062963,74,D5,93,1
274320,253.999746,59,0.054629,76,E5,94,1
274320,253.999746,119,0.110185,59,B3,94,2
274380,254.055301,59,0.05463,74,D5,94,1
274440,254.110857,59,0.054629,72,C5,95,1
274440,254.110857,119,0.110185,65,F4,95,2
274500,254.166412,59,0.05463,74,D5,95,1
274560,254.221968,455,0.421295,72,C5,96,1
274560,254.221968,455,0.421295,60,C4,96,2
274560,254.221968,455,0.421295,64,E4,96,2
275040,254.666412,119,0.110185,72,C5,96,1
275160,254.777523,119,0.110185,67,G4,96,1
275280,254.888634,119,0.110185,72,C5,96,1
275400,254.999745,119,0.110185,76,E5,96,1
275520,255.110856,119,0.110185,79,G5,96,1
275640,255.221967,119,0.110185,76,E5,96,1
275760,255.333078,119,0.110185,72,C5,96,1
275880,255.444189,119,0.110185,76,E5,96,1
276000,255.5553,119,0.110185,77,F5,96,1
276000,255.5553,479,0.443518,55,G3,96,2
276000,255.5553,479,0.443518,62,D4,96,2
276000,255.5553,479,0.443518,65,F4,96,2
276120,255.666411,119,0.110185,74,D5,96,1
276240,255.777522,119,0.110185,71,B4,96,1
276360,255.888633,119,0.110185,74,D5,96,1
276480,255.999744,455,0.421295,72,C5,96,1
276480,255.999744,455,0.421295,60,C4,96,2
276480,255.999744,455,0.421295,64,E4,96,2
276960,256.444188,119,0.110185,60,C4,96,1
277080,256.555299,119,0.110185,55,G3,96,1
277200,256.66641,119,0.110185,60,C4,96,1
277320,256.777521,119,0.110185,64,E4,96,1
277440,256.888632,119,0.110185,67,G4,96,1
277560,256.999743,119,0.110185,64,E4,96,1
277680,257.110854,119,0.110185,60,C4,96,1
277800,257.221965,119,0.110185,64,E4,96,1
277920,257.333076,119,0.110185,65,F4,96,1
277920,257.333076,479,0.443518,43,G2,96,2
277920,257.333076,479,0.443518,50,D3,96,2
277920,257.333076,479,0.443518,53,F3,96,2
278040,257.444187,119,0.110185,62,D4,96,1
278160,257.555298,119,0.110185,59,B3,96,1
278280,257.666409,119,0.110185,62,D4,96,1
278400,257.77752,239,0.221296,60,C4,96,1
278400,257.77752,239,0.221296,48,C3,96,2
278400,257.77752,239,0.221296,52,E3,96,2
278880,258.221964,239,0.221296,76,E5,96,1
278880,258.221964,239,0.221296,79,G5,96,1
278880,258.221964,239,0.221296,84,C6,96,1
278880,258.221964,239,0.221296,48,C3,96,2
278880,258.221964,239,0.221296,60,C4,96,2
279360,258.666408,320,0.296296,72,C5,96,1
279360,258.666408,320,0.296296,36,C2,96,2
279360,258.666408,320,0.296296,48,C3,96,2
