start_ticks,start_secs,dur_ticks,dur_secs,pitch,fullNoteOctave,velocity,part
0,0.0,119,0.156579,69,A4,96,1
0,0.0,119,0.156579,69,A4,80,1
0,0.0,119,0.156579,45,A2,80,2
0,0.0,119,0.156579,45,A2,96,2
120,0.157895,119,0.156579,59,B3,80,1
120,0.157895,119,0.156579,52,E3,80,2
240,0.31579,119,0.156579,60,C4,80,1
240,0.31579,119,0.156579,57,A3,80,2
360,0.473685,119,0.156579,64,E4,80,1
360,0.473685,119,0.156579,52,E3,80,2
480,0.63158,119,0.156579,69,A4,80,1
480,0.63158,119,0.156579,69,A4,80,1
480,0.63158,119,0.156579,57,A3,80,2
600,0.789475,119,0.156579,59,B3,80,1
600,0.789475,119,0.156579,52,E3,80,2
720,0.94737,119,0.156579,69,A4,80,1
720,0.94737,119,0.156579,69,A4,80,1
720,0.94737,119,0.156579,45,A2,80,2
720,0.94737,119,0.156579,45,A2,80,2
840,1.105265,119,0.156579,59,B3,80,1
840,1.105265,119,0.156579,52,E3,80,2
960,1.26316,119,0.156579,60,C4,80,1
960,1.26316,119,0.156579,57,A3,80,2
1080,1.421055,119,0.156579,64,E4,80,1
1080,1.421055,119,0.156579,52,E3,80,2
1200,1.57895,119,0.156579,71,B4,80,1
1200,1.57895,119,0.156579,71,B4,80,1
1200,1.57895,119,0.156579,57,A3,80,2
1320,1.736845,119,0.156579,59,B3,80,1
1320,1.736845,119,0.156579,52,E3,80,2
1440,1.89474,119,0.156579,69,A4,96,1
1440,1.89474,119,0.156579,69,A4,80,1
1440,1.89474,119,0.156579,45,A2,80,2
1440,1.89474,119,0.156579,45,A2,96,2
1560,2.052635,119,0.156579,59,B3,80,1
1560,2.052635,119,0.156579,52,E3,80,2
1680,2.21053,119,0.156579,60,C4,80,1
1680,2.21053,119,0.156579,57,A3,80,2
1800,2.368425,119,0.156579,64,E4,80,1
1800,2.368425,119,0.156579,52,E3,80,2
1920,2.52632,119,0.156579,67,G4,80,1
1920,2.52632,119,0.156579,67,G4,80,1
1920,2.52632,119,0.156579,57,A3,80,2
2040,2.684215,119,0.156579,59,B3,80,1
2040,2.684215,119,0.156579,52,E3,80,2
2160,2.84211,119,0.156579,64,E4,80,1
2160,2.84211,119,0.156579,64,E4,80,1
2160,2.84211,119,0.156579,45,A2,80,2
2160,2.84211,119,0.156579,45,A2,80,2
2280,3.000005,119,0.156579,59,B3,80,1
2280,3.000005,119,0.156579,52,E3,80,2
2400,3.1579,119,0.156579,60,C4,80,1
2400,3.1579,119,0.156579,57,A3,80,2
2520,3.315795,119,0.156579,59,B3,80,1
2520,3.315795,119,0.156579,52,E3,80,2
2640,3.47369,119,0.156579,60,C4,80,1
2640,3.47369,119,0.156579,57,A3,80,2
2760,3.631585,119,0.156579,59,B3,80,1
2760,3.631585,119,0.156579,52,E3,80,2
2880,3.78948,119,0.156579,72,C5,96,1
2880,3.78948,119,0.156579,72,C5,80,1
2880,3.78948,119,0.156579,41,F2,80,2
2880,3.78948,119,0.156579,41,F2,96,2
3000,3.947375,119,0.156579,64,E4,80,1
3000,3.947375,119,0.156579,48,C3,80,2
3120,4.10527,119,0.156579,65,F4,80,1
3120,4.10527,119,0.156579,53,F3,80,2
3240,4.263165,119,0.156579,69,A4,80,1
3240,4.263165,119,0.156579,48,C3,80,2
3360,4.42106,119,0.156579,72,C5,80,1
3360,4.42106,119,0.156579,72,C5,80,1
3360,4.42106,119,0.156579,53,F3,80,2
3480,4.578955,119,0.156579,64,E4,80,1
3480,4.578955,119,0.156579,48,C3,80,2
3600,4.73685,119,0.156579,72,C5,80,1
3600,4.73685,119,0.156579,72,C5,80,1
3600,4.73685,119,0.156579,41,F2,80,2
3600,4.73685,119,0.156579,41,F2,80,2
3720,4.894745,119,0.156579,64,E4,80,1
3720,4.894745,119,0.156579,48,C3,80,2
3840,5.05264,119,0.156579,65,F4,80,1
3840,5.05264,119,0.156579,53,F3,80,2
3960,5.210535,119,0.156579,69,A4,80,1
3960,5.210535,119,0.156579,48,C3,80,2
4080,5.36843,119,0.156579,76,E5,80,1
4080,5.36843,119,0.156579,76,E5,80,1
4080,5.36843,119,0.156579,53,F3,80,2
4200,5.526325,119,0.156579,64,E4,80,1
4200,5.526325,119,0.156579,48,C3,80,2
4320,5.68422,119,0.156579,74,D5,96,1
4320,5.68422,119,0.156579,74,D5,80,1
4320,5.68422,119,0.156579,41,F2,80,2
4320,5.68422,119,0.156579,41,F2,96,2
4440,5.842115,119,0.156579,64,E4,80,1
4440,5.842115,119,0.156579,48,C3,80,2
4560,6.00001,119,0.156579,65,F4,80,1
4560,6.00001,119,0.156579,53,F3,80,2
4680,6.157905,119,0.156579,69,A4,80,1
4680,6.157905,119,0.156579,48,C3,80,2
4800,6.3158,119,0.156579,72,C5,80,1
4800,6.3158,119,0.156579,72,C5,80,1
4800,6.3158,119,0.156579,53,F3,80,2
4920,6.473695,119,0.156579,64,E4,80,1
4920,6.473695,119,0.156579,48,C3,80,2
5040,6.63159,119,0.156579,71,B4,80,1
5040,6.63159,119,0.156579,71,B4,80,1
5040,6.63159,119,0.156579,43,G2,80,2
5040,6.63159,119,0.156579,43,G2,80,2
5160,6.789485,119,0.156579,64,E4,80,1
5160,6.789485,119,0.156579,50,D3,80,2
5280,6.94738,119,0.156579,65,F4,80,1
5280,6.94738,119,0.156579,55,G3,80,2
5400,7.105275,119,0.156579,69,A4,80,1
5400,7.105275,119,0.156579,50,D3,80,2
5520,7.26317,119,0.156579,72,C5,80,1
5520,7.26317,119,0.156579,72,C5,80,1
5520,7.26317,119,0.156579,55,G3,80,2
5640,7.421065,119,0.156579,71,B4,80,1
5640,7.421065,119,0.156579,71,B4,80,1
5640,7.421065,119,0.156579,50,D3,80,2
5760,7.57896,119,0.156579,69,A4,96,1
5760,7.57896,119,0.156579,69,A4,80,1
5760,7.57896,119,0.156579,45,A2,80,2
5760,7.57896,119,0.156579,45,A2,80,2
5880,7.736855,119,0.156579,59,B3,80,1
5880,7.736855,119,0.156579,52,E3,80,2
6000,7.89475,119,0.156579,60,C4,80,1
6000,7.89475,119,0.156579,57,A3,80,2
6120,8.052645,119,0.156579,64,E4,80,1
6120,8.052645,119,0.156579,52,E3,80,2
6240,8.21054,119,0.156579,69,A4,80,1
6240,8.21054,119,0.156579,69,A4,80,1
6240,8.21054,119,0.156579,57,A3,80,2
6360,8.368435,119,0.156579,64,E4,80,1
6360,8.368435,119,0.156579,52,E3,80,2
6480,8.52633,119,0.156579,76,E5,96,1
6480,8.52633,119,0.156579,76,E5,80,1
6480,8.52633,119,0.156579,45,A2,80,2
6480,8.52633,119,0.156579,45,A2,80,2
6600,8.684225,119,0.156579,64,E4,80,1
6600,8.684225,119,0.156579,52,E3,80,2
6720,8.84212,119,0.156579,67,G4,80,1
6720,8.84212,119,0.156579,57,A3,80,2
6840,9.000015,119,0.156579,69,A4,80,1
6840,9.000015,119,0.156579,52,E3,80,2
6960,9.15791,119,0.156579,72,C5,80,1
6960,9.15791,119,0.156579,72,C5,80,1
6960,9.15791,119,0.156579,45,A2,80,2
6960,9.15791,119,0.156579,45,A2,80,2
7080,9.315805,119,0.156579,67,G4,80,1
7080,9.315805,119,0.156579,52,E3,80,2
7200,9.4737,119,0.156579,69,A4,80,1
7200,9.4737,119,0.156579,69,A4,80,1
7200,9.4737,119,0.156579,45,A2,80,2
7200,9.4737,119,0.156579,45,A2,80,2
7320,9.631595,119,0.156579,59,B3,80,1
7320,9.631595,119,0.156579,52,E3,80,2
7440,9.78949,119,0.156579,60,C4,80,1
7440,9.78949,119,0.156579,57,A3,80,2
7560,9.947385,119,0.156579,64,E4,80,1
7560,9.947385,119,0.156579,52,E3,80,2
7680,10.10528,119,0.156579,67,G4,80,1
7680,10.10528,119,0.156579,67,G4,80,1
7680,10.10528,119,0.156579,57,A3,80,2
7800,10.263175,119,0.156579,59,B3,80,1
7800,10.263175,119,0.156579,52,E3,80,2
7920,10.42107,119,0.156579,64,E4,96,1
7920,10.42107,119,0.156579,64,E4,80,1
7920,10.42107,119,0.156579,45,A2,80,2
7920,10.42107,119,0.156579,45,A2,80,2
8040,10.578965,119,0.156579,57,A3,80,1
8040,10.578965,119,0.156579,48,C3,80,2
8160,10.73686,119,0.156579,60,C4,80,1
8160,10.73686,119,0.156579,52,E3,80,2
8280,10.894755,119,0.156579,57,A3,80,1
8280,10.894755,119,0.156579,48,C3,80,2
8400,11.05265,119,0.156579,62,D4,80,1
8400,11.05265,119,0.156579,62,D4,80,1
8400,11.05265,119,0.156579,45,A2,80,2
8400,11.05265,119,0.156579,45,A2,80,2
8520,11.210545,119,0.156579,60,C4,80,1
8520,11.210545,119,0.156579,60,C4,80,1
8520,11.210545,119,0.156579,52,E3,80,2
8640,11.36844,119,0.156579,60,C4,80,1
8640,11.36844,119,0.156579,60,C4,80,1
8640,11.36844,119,0.156579,45,A2,80,2
8640,11.36844,119,0.156579,45,A2,80,2
8760,11.526335,119,0.156579,57,A3,80,1
8760,11.526335,119,0.156579,48,C3,80,2
8880,11.68423,119,0.156579,60,C4,80,1
8880,11.68423,119,0.156579,52,E3,80,2
9000,11.842125,119,0.156579,57,A3,80,1
9000,11.842125,119,0.156579,48,C3,80,2
9120,12.00002,119,0.156579,62,D4,80,1
9120,12.00002,119,0.156579,62,D4,80,1
9120,12.00002,119,0.156579,45,A2,80,2
9120,12.00002,119,0.156579,45,A2,80,2
9240,12.157915,119,0.156579,60,C4,80,1
9240,12.157915,119,0.156579,60,C4,80,1
9240,12.157915,119,0.156579,52,E3,80,2
9360,12.31581,119,0.156579,62,D4,96,1
9360,12.31581,119,0.156579,62,D4,80,1
9360,12.31581,119,0.156579,40,E2,80,2
9360,12.31581,119,0.156579,40,E2,80,2
9480,12.473705,119,0.156579,57,A3,80,1
9480,12.473705,119,0.156579,47,B2,80,2
9600,12.6316,119,0.156579,59,B3,80,1
9600,12.6316,119,0.156579,52,E3,80,2
9720,12.789495,119,0.156579,57,A3,80,1
9720,12.789495,119,0.156579,50,D3,80,2
9840,12.94739,119,0.156579,62,D4,80,1
9840,12.94739,119,0.156579,62,D4,80,1
9840,12.94739,119,0.156579,47,B2,80,2
9960,13.105285,119,0.156579,57,A3,80,1
9960,13.105285,119,0.156579,40,E2,80,2
9960,13.105285,119,0.156579,40,E2,80,2
10080,13.26318,119,0.156579,64,E4,80,1
10080,13.26318,119,0.156579,64,E4,80,1
10080,13.26318,119,0.156579,40,E2,80,2
10080,13.26318,119,0.156579,40,E2,80,2
10200,13.421075,119,0.156579,59,B3,80,1
10200,13.421075,119,0.156579,47,B2,80,2
10320,13.57897,119,0.156579,60,C4,80,1
10320,13.57897,119,0.156579,52,E3,80,2
10440,13.736865,119,0.156579,62,D4,80,1
10440,13.736865,119,0.156579,50,D3,80,2
10560,13.89476,119,0.156579,68,G4#,80,1
10560,13.89476,119,0.156579,68,G4#,80,1
10560,13.89476,119,0.156579,47,B2,80,2
10680,14.052655,119,0.156579,59,B3,80,1
10680,14.052655,119,0.156579,40,E2,80,2
10680,14.052655,119,0.156579,40,E2,80,2
10800,14.21055,119,0.156579,69,A4,96,1
10800,14.21055,119,0.156579,69,A4,80,1
10800,14.21055,119,0.156579,45,A2,80,2
10800,14.21055,119,0.156579,45,A2,80,2
10920,14.368445,119,0.156579,59,B3,80,1
10920,14.368445,119,0.156579,52,E3,80,2
11040,14.52634,119,0.156579,60,C4,80,1
11040,14.52634,119,0.156579,57,A3,80,2
11160,14.684235,119,0.156579,64,E4,80,1
11160,14.684235,119,0.156579,52,E3,80,2
11280,14.84213,119,0.156579,69,A4,80,1
11280,14.84213,119,0.156579,69,A4,80,1
11280,14.84213,119,0.156579,57,A3,80,2
11400,15.000025,119,0.156579,64,E4,80,1
11400,15.000025,119,0.156579,52,E3,80,2
11520,15.15792,119,0.156579,69,A4,80,1
11520,15.15792,119,0.156579,69,A4,80,1
11520,15.15792,119,0.156579,45,A2,80,2
11520,15.15792,119,0.156579,45,A2,80,2
11640,15.315815,119,0.156579,59,B3,80,1
11640,15.315815,119,0.156579,52,E3,80,2
11760,15.47371,119,0.156579,60,C4,80,1
11760,15.47371,119,0.156579,57,A3,80,2
11880,15.631605,119,0.156579,64,E4,80,1
11880,15.631605,119,0.156579,52,E3,80,2
12000,15.7895,119,0.156579,69,A4,80,1
12000,15.7895,119,0.156579,69,A4,80,1
12000,15.7895,119,0.156579,57,A3,80,2
12120,15.947395,119,0.156579,72,C5,80,1
12120,15.947395,119,0.156579,72,C5,80,1
12120,15.947395,119,0.156579,52,E3,80,2
12240,16.10529,119,0.156579,69,A4,96,1
12240,16.10529,119,0.156579,69,A4,80,1
12240,16.10529,119,0.156579,45,A2,80,2
12240,16.10529,119,0.156579,45,A2,96,2
12360,16.263185,119,0.156579,59,B3,80,1
12360,16.263185,119,0.156579,52,E3,80,2
12480,16.42108,119,0.156579,60,C4,80,1
12480,16.42108,119,0.156579,57,A3,80,2
12600,16.578975,119,0.156579,64,E4,80,1
12600,16.578975,119,0.156579,52,E3,80,2
12720,16.73687,119,0.156579,69,A4,80,1
12720,16.73687,119,0.156579,69,A4,80,1
12720,16.73687,119,0.156579,57,A3,80,2
12840,16.894765,119,0.156579,59,B3,80,1
12840,16.894765,119,0.156579,52,E3,80,2
12960,17.05266,119,0.156579,69,A4,80,1
12960,17.05266,119,0.156579,69,A4,80,1
12960,17.05266,119,0.156579,45,A2,80,2
12960,17.05266,119,0.156579,45,A2,80,2
13080,17.210555,119,0.156579,59,B3,80,1
13080,17.210555,119,0.156579,52,E3,80,2
13200,17.36845,119,0.156579,60,C4,80,1
13200,17.36845,119,0.156579,57,A3,80,2
13320,17.526345,119,0.156579,64,E4,80,1
13320,17.526345,119,0.156579,52,E3,80,2
13440,17.68424,119,0.156579,71,B4,80,1
13440,17.68424,119,0.156579,71,B4,80,1
13440,17.68424,119,0.156579,57,A3,80,2
13560,17.842135,119,0.156579,59,B3,80,1
13560,17.842135,119,0.156579,52,E3,80,2
13680,18.00003,119,0.156579,69,A4,96,1
13680,18.00003,119,0.156579,69,A4,80,1
13680,18.00003,119,0.156579,45,A2,80,2
13680,18.00003,119,0.156579,45,A2,96,2
13800,18.157925,119,0.156579,59,B3,80,1
13800,18.157925,119,0.156579,52,E3,80,2
13920,18.31582,119,0.156579,60,C4,80,1
13920,18.31582,119,0.156579,57,A3,80,2
14040,18.473715,119,0.156579,64,E4,80,1
14040,18.473715,119,0.156579,52,E3,80,2
14160,18.63161,119,0.156579,67,G4,80,1
14160,18.63161,119,0.156579,67,G4,80,1
14160,18.63161,119,0.156579,57,A3,80,2
14280,18.789505,119,0.156579,59,B3,80,1
14280,18.789505,119,0.156579,52,E3,80,2
14400,18.9474,119,0.156579,64,E4,80,1
14400,18.9474,119,0.156579,64,E4,80,1
14400,18.9474,119,0.156579,45,A2,80,2
14400,18.9474,119,0.156579,45,A2,80,2
14520,19.105295,119,0.156579,59,B3,80,1
14520,19.105295,119,0.156579,52,E3,80,2
14640,19.26319,119,0.156579,60,C4,80,1
14640,19.26319,119,0.156579,57,A3,80,2
14760,19.421085,119,0.156579,59,B3,80,1
14760,19.421085,119,0.156579,52,E3,80,2
14880,19.57898,119,0.156579,60,C4,80,1
14880,19.57898,119,0.156579,57,A3,80,2
15000,19.736875,119,0.156579,59,B3,80,1
15000,19.736875,119,0.156579,52,E3,80,2
15120,19.89477,119,0.156579,72,C5,96,1
15120,19.89477,119,0.156579,72,C5,80,1
15120,19.89477,119,0.156579,41,F2,80,2
15120,19.89477,119,0.156579,41,F2,96,2
15240,20.052665,119,0.156579,64,E4,80,1
15240,20.052665,119,0.156579,48,C3,80,2
15360,20.21056,119,0.156579,65,F4,80,1
15360,20.21056,119,0.156579,53,F3,80,2
15480,20.368455,119,0.156579,69,A4,80,1
15480,20.368455,119,0.156579,48,C3,80,2
15600,20.52635,119,0.156579,72,C5,80,1
15600,20.52635,119,0.156579,72,C5,80,1
15600,20.52635,119,0.156579,53,F3,80,2
15720,20.684245,119,0.156579,64,E4,80,1
15720,20.684245,119,0.156579,48,C3,80,2
15840,20.84214,119,0.156579,72,C5,80,1
15840,20.84214,119,0.156579,72,C5,80,1
15840,20.84214,119,0.156579,41,F2,80,2
15840,20.84214,119,0.156579,41,F2,80,2
15960,21.000035,119,0.156579,64,E4,80,1
15960,21.000035,119,0.156579,48,C3,80,2
16080,21.15793,119,0.156579,65,F4,80,1
16080,21.15793,119,0.156579,53,F3,80,2
16200,21.315825,119,0.156579,69,A4,80,1
16200,21.315825,119,0.156579,48,C3,80,2
16320,21.47372,119,0.156579,76,E5,80,1
16320,21.47372,119,0.156579,76,E5,80,1
16320,21.47372,119,0.156579,53,F3,80,2
16440,21.631615,119,0.156579,64,E4,80,1
16440,21.631615,119,0.156579,48,C3,80,2
16560,21.78951,119,0.156579,74,D5,96,1
16560,21.78951,119,0.156579,74,D5,80,1
16560,21.78951,119,0.156579,41,F2,80,2
16560,21.78951,119,0.156579,41,F2,96,2
16680,21.947405,119,0.156579,64,E4,80,1
16680,21.947405,119,0.156579,48,C3,80,2
16800,22.1053,119,0.156579,65,F4,80,1
16800,22.1053,119,0.156579,53,F3,80,2
16920,22.263195,119,0.156579,69,A4,80,1
16920,22.263195,119,0.156579,48,C3,80,2
17040,22.42109,119,0.156579,72,C5,80,1
17040,22.42109,119,0.156579,72,C5,80,1
17040,22.42109,119,0.156579,53,F3,80,2
17160,22.578985,119,0.156579,64,E4,80,1
17160,22.578985,119,0.156579,48,C3,80,2
17280,22.73688,119,0.156579,71,B4,80,1
17280,22.73688,119,0.156579,71,B4,80,1
17280,22.73688,119,0.156579,43,G2,80,2
17280,22.73688,119,0.156579,43,G2,80,2
17400,22.894775,119,0.156579,64,E4,80,1
17400,22.894775,119,0.156579,50,D3,80,2
17520,23.05267,119,0.156579,65,F4,80,1
17520,23.05267,119,0.156579,55,G3,80,2
17640,23.210565,119,0.156579,69,A4,80,1
17640,23.210565,119,0.156579,50,D3,80,2
17760,23.36846,119,0.156579,72,C5,80,1
17760,23.36846,119,0.156579,72,C5,80,1
17760,23.36846,119,0.156579,55,G3,80,2
17880,23.526355,119,0.156579,71,B4,80,1
17880,23.526355,119,0.156579,71,B4,80,1
17880,23.526355,119,0.156579,50,D3,80,2
18000,23.68425,119,0.156579,69,A4,96,1
18000,23.68425,119,0.156579,69,A4,80,1
18000,23.68425,119,0.156579,45,A2,80,2
18000,23.68425,119,0.156579,45,A2,80,2
18120,23.842145,119,0.156579,59,B3,80,1
18120,23.842145,119,0.156579,52,E3,80,2
18240,24.00004,119,0.156579,60,C4,80,1
18240,24.00004,119,0.156579,57,A3,80,2
18360,24.157935,119,0.156579,64,E4,80,1
18360,24.157935,119,0.156579,52,E3,80,2
18480,24.31583,119,0.156579,69,A4,80,1
18480,24.31583,119,0.156579,69,A4,80,1
18480,24.31583,119,0.156579,57,A3,80,2
18600,24.473725,119,0.156579,64,E4,80,1
18600,24.473725,119,0.156579,52,E3,80,2
18720,24.63162,119,0.156579,76,E5,96,1
18720,24.63162,119,0.156579,76,E5,80,1
18720,24.63162,119,0.156579,45,A2,80,2
18720,24.63162,119,0.156579,45,A2,80,2
18840,24.789515,119,0.156579,64,E4,80,1
18840,24.789515,119,0.156579,52,E3,80,2
18960,24.94741,119,0.156579,67,G4,80,1
18960,24.94741,119,0.156579,57,A3,80,2
19080,25.105305,119,0.156579,69,A4,80,1
19080,25.105305,119,0.156579,52,E3,80,2
19200,25.2632,119,0.156579,72,C5,80,1
19200,25.2632,119,0.156579,72,C5,80,1
19200,25.2632,119,0.156579,45,A2,80,2
19200,25.2632,119,0.156579,45,A2,80,2
19320,25.421095,119,0.156579,67,G4,80,1
19320,25.421095,119,0.156579,52,E3,80,2
19440,25.57899,119,0.156579,69,A4,80,1
19440,25.57899,119,0.156579,69,A4,80,1
19440,25.57899,119,0.156579,45,A2,80,2
19440,25.57899,119,0.156579,45,A2,80,2
19560,25.736885,119,0.156579,59,B3,80,1
19560,25.736885,119,0.156579,52,E3,80,2
19680,25.89478,119,0.156579,60,C4,80,1
19680,25.89478,119,0.156579,57,A3,80,2
19800,26.052675,119,0.156579,64,E4,80,1
19800,26.052675,119,0.156579,52,E3,80,2
19920,26.21057,119,0.156579,67,G4,80,1
19920,26.21057,119,0.156579,67,G4,80,1
19920,26.21057,119,0.156579,57,A3,80,2
20040,26.368465,119,0.156579,59,B3,80,1
20040,26.368465,119,0.156579,52,E3,80,2
20160,26.52636,119,0.156579,64,E4,96,1
20160,26.52636,119,0.156579,64,E4,80,1
20160,26.52636,119,0.156579,45,A2,80,2
20160,26.52636,119,0.156579,45,A2,80,2
20280,26.684255,119,0.156579,57,A3,80,1
20280,26.684255,119,0.156579,48,C3,80,2
20400,26.84215,119,0.156579,60,C4,80,1
20400,26.84215,119,0.156579,52,E3,80,2
20520,27.000045,119,0.156579,57,A3,80,1
20520,27.000045,119,0.156579,48,C3,80,2
20640,27.15794,119,0.156579,62,D4,80,1
20640,27.15794,119,0.156579,62,D4,80,1
20640,27.15794,119,0.156579,45,A2,80,2
20640,27.15794,119,0.156579,45,A2,80,2
20760,27.315835,119,0.156579,60,C4,80,1
20760,27.315835,119,0.156579,60,C4,80,1
20760,27.315835,119,0.156579,52,E3,80,2
20880,27.47373,119,0.156579,60,C4,80,1
20880,27.47373,119,0.156579,60,C4,80,1
20880,27.47373,119,0.156579,45,A2,80,2
20880,27.47373,119,0.156579,45,A2,80,2
21000,27.631625,119,0.156579,57,A3,80,1
21000,27.631625,119,0.156579,48,C3,80,2
21120,27.78952,119,0.156579,60,C4,80,1
21120,27.78952,119,0.156579,52,E3,80,2
21240,27.947415,119,0.156579,57,A3,80,1
21240,27.947415,119,0.156579,48,C3,80,2
21360,28.10531,119,0.156579,62,D4,80,1
21360,28.10531,119,0.156579,62,D4,80,1
21360,28.10531,119,0.156579,45,A2,80,2
21360,28.10531,119,0.156579,45,A2,80,2
21480,28.263205,119,0.156579,60,C4,80,1
21480,28.263205,119,0.156579,60,C4,80,1
21480,28.263205,119,0.156579,52,E3,80,2
21600,28.4211,119,0.156579,62,D4,96,1
21600,28.4211,119,0.156579,62,D4,80,1
21600,28.4211,119,0.156579,40,E2,80,2
21600,28.4211,119,0.156579,40,E2,80,2
21720,28.578995,119,0.156579,57,A3,80,1
21720,28.578995,119,0.156579,47,B2,80,2
21840,28.73689,119,0.156579,59,B3,80,1
21840,28.73689,119,0.156579,52,E3,80,2
21960,28.894785,119,0.156579,57,A3,80,1
21960,28.894785,119,0.156579,50,D3,80,2
22080,29.05268,119,0.156579,62,D4,80,1
22080,29.05268,119,0.156579,62,D4,80,1
22080,29.05268,119,0.156579,47,B2,80,2
22200,29.210575,119,0.156579,57,A3,80,1
22200,29.210575,119,0.156579,40,E2,80,2
22200,29.210575,119,0.156579,40,E2,80,2
22320,29.36847,119,0.156579,64,E4,80,1
22320,29.36847,119,0.156579,64,E4,80,1
22320,29.36847,119,0.156579,40,E2,80,2
22320,29.36847,119,0.156579,40,E2,80,2
22440,29.526365,119,0.156579,59,B3,80,1
22440,29.526365,119,0.156579,47,B2,80,2
22560,29.68426,119,0.156579,60,C4,80,1
22560,29.68426,119,0.156579,52,E3,80,2
22680,29.842155,119,0.156579,62,D4,80,1
22680,29.842155,119,0.156579,50,D3,80,2
22800,30.00005,119,0.156579,68,G4#,80,1
22800,30.00005,119,0.156579,68,G4#,80,1
22800,30.00005,119,0.156579,47,B2,80,2
22920,30.157945,119,0.156579,59,B3,80,1
22920,30.157945,119,0.156579,40,E2,80,2
22920,30.157945,119,0.156579,40,E2,80,2
23040,30.31584,119,0.156579,69,A4,96,1
23040,30.31584,119,0.156579,69,A4,80,1
23040,30.31584,119,0.156579,45,A2,80,2
23040,30.31584,119,0.156579,45,A2,80,2
23160,30.473735,119,0.156579,59,B3,80,1
23160,30.473735,119,0.156579,52,E3,80,2
23280,30.63163,119,0.156579,60,C4,80,1
23280,30.63163,119,0.156579,57,A3,80,2
23400,30.789525,119,0.156579,64,E4,80,1
23400,30.789525,119,0.156579,52,E3,80,2
23520,30.94742,119,0.156579,69,A4,80,1
23520,30.94742,119,0.156579,69,A4,80,1
23520,30.94742,119,0.156579,57,A3,80,2
23640,31.105315,119,0.156579,64,E4,80,1
23640,31.105315,119,0.156579,52,E3,80,2
23760,31.26321,119,0.156579,69,A4,80,1
23760,31.26321,119,0.156579,69,A4,80,1
23760,31.26321,119,0.156579,45,A2,80,2
23760,31.26321,119,0.156579,45,A2,80,2
23880,31.421105,119,0.156579,59,B3,80,1
23880,31.421105,119,0.156579,52,E3,80,2
24000,31.579,119,0.156579,60,C4,80,1
24000,31.579,119,0.156579,57,A3,80,2
24120,31.736895,119,0.156579,64,E4,80,1
24120,31.736895,119,0.156579,52,E3,80,2
24240,31.89479,119,0.156579,69,A4,80,1
24240,31.89479,119,0.156579,69,A4,80,1
24240,31.89479,119,0.156579,57,A3,80,2
24360,32.052685,119,0.156579,72,C5,80,1
24360,32.052685,119,0.156579,72,C5,80,1
24360,32.052685,119,0.156579,52,E3,80,2
24480,32.21058,119,0.156579,76,E5,80,1
24480,32.21058,119,0.156579,76,E5,80,1
24480,32.21058,119,0.156579,60,C4,80,2
24480,32.21058,119,0.156579,60,C4,80,2
24600,32.368475,119,0.156579,64,E4,80,1
24600,32.368475,119,0.156579,57,A3,80,2
24720,32.52637,119,0.156579,69,A4,80,1
24720,32.52637,119,0.156579,52,E3,80,2
24840,32.684265,119,0.156579,76,E5,80,1
24840,32.684265,119,0.156579,76,E5,80,1
24840,32.684265,119,0.156579,57,A3,80,2
24960,32.84216,119,0.156579,64,E4,80,1
24960,32.84216,119,0.156579,60,C4,80,2
24960,32.84216,119,0.156579,60,C4,80,2
25080,33.000055,119,0.156579,69,A4,80,1
25080,33.000055,119,0.156579,57,A3,80,2
25200,33.15795,119,0.156579,76,E5,80,1
25200,33.15795,119,0.156579,76,E5,80,1
25200,33.15795,119,0.156579,59,B3,80,2
25200,33.15795,119,0.156579,59,B3,80,2
25320,33.315845,119,0.156579,64,E4,80,1
25320,33.315845,119,0.156579,55,G3,80,2
25440,33.47374,119,0.156579,69,A4,80,1
25440,33.47374,119,0.156579,50,D3,80,2
25560,33.631635,119,0.156579,74,D5,80,1
25560,33.631635,119,0.156579,74,D5,80,1
25560,33.631635,119,0.156579,55,G3,80,2
25680,33.78953,119,0.156579,64,E4,80,1
25680,33.78953,119,0.156579,59,B3,80,2
25680,33.78953,119,0.156579,59,B3,80,2
25800,33.947425,119,0.156579,69,A4,80,1
25800,33.947425,119,0.156579,55,G3,80,2
25920,34.10532,119,0.156579,72,C5,80,1
25920,34.10532,119,0.156579,72,C5,80,1
25920,34.10532,119,0.156579,57,A3,80,2
25920,34.10532,119,0.156579,57,A3,80,2
26040,34.263215,119,0.156579,64,E4,80,1
26040,34.263215,119,0.156579,52,E3,80,2
26160,34.42111,119,0.156579,69,A4,80,1
26160,34.42111,119,0.156579,48,C3,80,2
26280,34.579005,119,0.156579,72,C5,80,1
26280,34.579005,119,0.156579,72,C5,80,1
26280,34.579005,119,0.156579,52,E3,80,2
26400,34.7369,119,0.156579,64,E4,80,1
26400,34.7369,119,0.156579,57,A3,80,2
26400,34.7369,119,0.156579,57,A3,80,2
26520,34.894795,119,0.156579,69,A4,80,1
26520,34.894795,119,0.156579,52,E3,80,2
26640,35.05269,119,0.156579,76,E5,80,1
26640,35.05269,119,0.156579,76,E5,80,1
26640,35.05269,119,0.156579,57,A3,80,2
26640,35.05269,119,0.156579,57,A3,80,2
26760,35.210585,119,0.156579,64,E4,80,1
26760,35.210585,119,0.156579,52,E3,80,2
26880,35.36848,119,0.156579,69,A4,80,1
26880,35.36848,119,0.156579,48,C3,80,2
27000,35.526375,119,0.156579,74,D5,80,1
27000,35.526375,119,0.156579,74,D5,80,1
27000,35.526375,119,0.156579,52,E3,80,2
27120,35.68427,119,0.156579,64,E4,80,1
27120,35.68427,119,0.156579,57,A3,80,2
27120,35.68427,119,0.156579,57,A3,80,2
27240,35.842165,119,0.156579,69,A4,80,1
27240,35.842165,119,0.156579,52,E3,80,2
27360,36.00006,119,0.156579,76,E5,80,1
27360,36.00006,119,0.156579,76,E5,80,1
27360,36.00006,119,0.156579,60,C4,80,2
27360,36.00006,119,0.156579,60,C4,80,2
27480,36.157955,119,0.156579,64,E4,80,1
27480,36.157955,119,0.156579,57,A3,80,2
27600,36.31585,119,0.156579,69,A4,80,1
27600,36.31585,119,0.156579,52,E3,80,2
27720,36.473745,119,0.156579,76,E5,80,1
27720,36.473745,119,0.156579,76,E5,80,1
27720,36.473745,119,0.156579,57,A3,80,2
27840,36.63164,119,0.156579,64,E4,80,1
27840,36.63164,119,0.156579,60,C4,80,2
27840,36.63164,119,0.156579,60,C4,80,2
27960,36.789535,119,0.156579,69,A4,80,1
27960,36.789535,119,0.156579,57,A3,80,2
28080,36.94743,119,0.156579,76,E5,80,1
28080,36.94743,119,0.156579,76,E5,80,1
28080,36.94743,119,0.156579,59,B3,80,2
28080,36.94743,119,0.156579,59,B3,80,2
28200,37.105325,119,0.156579,64,E4,80,1
28200,37.105325,119,0.156579,55,G3,80,2
28320,37.26322,119,0.156579,69,A4,80,1
28320,37.26322,119,0.156579,50,D3,80,2
28440,37.421115,119,0.156579,74,D5,80,1
28440,37.421115,119,0.156579,74,D5,80,1
28440,37.421115,119,0.156579,55,G3,80,2
28560,37.57901,119,0.156579,64,E4,80,1
28560,37.57901,119,0.156579,59,B3,80,2
28560,37.57901,119,0.156579,59,B3,80,2
28680,37.736905,119,0.156579,69,A4,80,1
28680,37.736905,119,0.156579,55,G3,80,2
28800,37.8948,119,0.156579,72,C5,80,1
28800,37.8948,119,0.156579,72,C5,80,1
28800,37.8948,119,0.156579,57,A3,80,2
28800,37.8948,119,0.156579,57,A3,80,2
28920,38.052695,119,0.156579,64,E4,80,1
28920,38.052695,119,0.156579,52,E3,80,2
29040,38.21059,119,0.156579,69,A4,80,1
29040,38.21059,119,0.156579,48,C3,80,2
29160,38.368485,119,0.156579,72,C5,80,1
29160,38.368485,119,0.156579,72,C5,80,1
29160,38.368485,119,0.156579,52,E3,80,2
29280,38.52638,119,0.156579,64,E4,80,1
29280,38.52638,119,0.156579,57,A3,80,2
29280,38.52638,119,0.156579,57,A3,80,2
29400,38.684275,119,0.156579,69,A4,80,1
29400,38.684275,119,0.156579,52,E3,80,2
29520,38.84217,119,0.156579,69,A4,80,1
29520,38.84217,119,0.156579,69,A4,80,1
29520,38.84217,119,0.156579,57,A3,80,2
29520,38.84217,119,0.156579,57,A3,80,2
29640,39.000065,119,0.156579,62,D4,80,1
29640,39.000065,119,0.156579,50,D3,80,2
29760,39.15796,119,0.156579,66,F4#,80,1
29760,39.15796,119,0.156579,54,F3#,80,2
29880,39.315855,119,0.156579,69,A4,80,1
29880,39.315855,119,0.156579,69,A4,80,1
29880,39.315855,119,0.156579,57,A3,80,2
30000,39.47375,119,0.156579,62,D4,80,1
30000,39.47375,119,0.156579,50,D3,80,2
30000,39.47375,119,0.156579,50,D3,80,2
30120,39.631645,119,0.156579,66,F4#,80,1
30120,39.631645,119,0.156579,54,F3#,80,2
30240,39.78954,119,0.156579,60,C4,115,1
30240,39.78954,119,0.156579,60,C4,96,1
30240,39.78954,119,0.156579,36,C2,115,2
30360,39.947435,119,0.156579,52,E3,96,1
30360,39.947435,119,0.156579,43,G2,96,2
30480,40.10533,119,0.156579,55,G3,96,1
30480,40.10533,119,0.156579,48,C3,96,2
30600,40.263225,119,0.156579,52,E3,96,1
30600,40.263225,119,0.156579,43,G2,96,2
30720,40.42112,119,0.156579,59,B3,96,1
30720,40.42112,119,0.156579,59,B3,96,1
30720,40.42112,119,0.156579,36,C2,96,2
30840,40.579015,119,0.156579,60,C4,96,1
30840,40.579015,119,0.156579,60,C4,96,1
30840,40.579015,119,0.156579,43,G2,96,2
30960,40.73691,119,0.156579,60,C4,115,1
30960,40.73691,119,0.156579,60,C4,96,1
30960,40.73691,119,0.156579,36,C2,115,2
31080,40.894805,119,0.156579,52,E3,96,1
31080,40.894805,119,0.156579,43,G2,96,2
31200,41.0527,119,0.156579,55,G3,96,1
31200,41.0527,119,0.156579,48,C3,96,2
31320,41.210595,119,0.156579,60,C4,96,1
31320,41.210595,119,0.156579,43,G2,96,2
31440,41.36849,119,0.156579,64,E4,96,1
31440,41.36849,119,0.156579,64,E4,96,1
31440,41.36849,119,0.156579,36,C2,96,2
31560,41.526385,119,0.156579,62,D4,96,1
31560,41.526385,119,0.156579,62,D4,96,1
31560,41.526385,119,0.156579,43,G2,96,2
31680,41.68428,119,0.156579,62,D4,115,1
31680,41.68428,119,0.156579,62,D4,96,1
31680,41.68428,119,0.156579,31,G1,115,2
31800,41.842175,119,0.156579,50,D3,96,1
31800,41.842175,119,0.156579,38,D2,96,2
31920,42.00007,119,0.156579,55,G3,96,1
31920,42.00007,119,0.156579,43,G2,96,2
32040,42.157965,119,0.156579,60,C4,96,1
32040,42.157965,119,0.156579,60,C4,96,1
32040,42.157965,119,0.156579,38,D2,96,2
32160,42.31586,119,0.156579,50,D3,96,1
32160,42.31586,119,0.156579,31,G1,96,2
32280,42.473755,119,0.156579,55,G3,96,1
32280,42.473755,119,0.156579,38,D2,96,2
32400,42.63165,119,0.156579,59,B3,115,1
32400,42.63165,119,0.156579,59,B3,96,1
32400,42.63165,119,0.156579,31,G1,115,2
32520,42.789545,119,0.156579,50,D3,96,1
32520,42.789545,119,0.156579,38,D2,96,2
32640,42.94744,119,0.156579,55,G3,96,1
32640,42.94744,119,0.156579,43,G2,96,2
32760,43.105335,119,0.156579,50,D3,96,1
32760,43.105335,119,0.156579,38,D2,96,2
32880,43.26323,119,0.156579,55,G3,96,1
32880,43.26323,119,0.156579,55,G3,96,1
32880,43.26323,119,0.156579,31,G1,96,2
33000,43.421125,119,0.156579,59,B3,96,1
33000,43.421125,119,0.156579,59,B3,96,1
33000,43.421125,119,0.156579,38,D2,96,2
33120,43.57902,119,0.156579,60,C4,115,1
33120,43.57902,119,0.156579,60,C4,96,1
33120,43.57902,119,0.156579,33,A1,115,2
33240,43.736915,119,0.156579,52,E3,96,1
33240,43.736915,119,0.156579,40,E2,96,2
33360,43.89481,119,0.156579,57,A3,96,1
33360,43.89481,119,0.156579,45,A2,96,2
33480,44.052705,119,0.156579,59,B3,96,1
33480,44.052705,119,0.156579,59,B3,96,1
33480,44.052705,119,0.156579,40,E2,96,2
33600,44.2106,119,0.156579,52,E3,96,1
33600,44.2106,119,0.156579,33,A1,96,2
33720,44.368495,119,0.156579,64,E4,96,1
33720,44.368495,119,0.156579,40,E2,96,2
33840,44.52639,119,0.156579,57,A3,115,1
33840,44.52639,119,0.156579,57,A3,96,1
33840,44.52639,119,0.156579,33,A1,115,2
33960,44.684285,119,0.156579,60,C4,96,1
33960,44.684285,119,0.156579,40,E2,96,2
34080,44.84218,119,0.156579,52,E3,96,1
34080,44.84218,119,0.156579,45,A2,96,2
34200,45.000075,119,0.156579,57,A3,96,1
34200,45.000075,119,0.156579,33,A1,96,2
34320,45.15797,119,0.156579,60,C4,96,1
34320,45.15797,119,0.156579,60,C4,96,1
34320,45.15797,119,0.156579,40,E2,96,2
34440,45.315865,119,0.156579,64,E4,96,1
34440,45.315865,119,0.156579,64,E4,96,1
34440,45.315865,119,0.156579,45,A2,96,2
34560,45.47376,119,0.156579,59,B3,115,1
34560,45.47376,119,0.156579,59,B3,96,1
34560,45.47376,119,0.156579,40,E2,115,2
34680,45.631655,119,0.156579,52,E3,96,1
34680,45.631655,119,0.156579,47,B2,96,2
34800,45.78955,119,0.156579,59,B3,96,1
34800,45.78955,119,0.156579,52,E3,96,2
34920,45.947445,119,0.156579,64,E4,96,1
34920,45.947445,119,0.156579,64,E4,96,1
34920,45.947445,119,0.156579,40,E2,96,2
35040,46.10534,119,0.156579,59,B3,96,1
35040,46.10534,119,0.156579,47,B2,96,2
35160,46.263235,119,0.156579,64,E4,115,1
35160,46.263235,119,0.156579,64,E4,96,1
35160,46.263235,119,0.156579,52,E3,96,2
35280,46.42113,119,0.156579,64,E4,96,1
35280,46.42113,119,0.156579,64,E4,96,1
35280,46.42113,119,0.156579,40,E2,115,2
35400,46.579025,119,0.156579,52,E3,96,1
35400,46.579025,119,0.156579,47,B2,96,2
35520,46.73692,119,0.156579,59,B3,96,1
35520,46.73692,119,0.156579,52,E3,96,2
35640,46.894815,119,0.156579,64,E4,96,1
35640,46.894815,119,0.156579,40,E2,96,2
35760,47.05271,119,0.156579,69,A4,96,1
35760,47.05271,119,0.156579,69,A4,96,1
35760,47.05271,119,0.156579,47,B2,96,2
35880,47.210605,119,0.156579,71,B4,96,1
35880,47.210605,119,0.156579,71,B4,96,1
35880,47.210605,119,0.156579,52,E3,96,2
36000,47.3685,119,0.156579,72,C5,115,1
36000,47.3685,119,0.156579,72,C5,96,1
36000,47.3685,119,0.156579,41,F2,115,2
36120,47.526395,119,0.156579,64,E4,96,1
36120,47.526395,119,0.156579,48,C3,96,2
36240,47.68429,119,0.156579,65,F4,96,1
36240,47.68429,119,0.156579,53,F3,96,2
36360,47.842185,119,0.156579,69,A4,96,1
36360,47.842185,119,0.156579,48,C3,96,2
36480,48.00008,119,0.156579,72,C5,96,1
36480,48.00008,119,0.156579,72,C5,96,1
36480,48.00008,119,0.156579,41,F2,96,2
36600,48.157975,119,0.156579,64,E4,96,1
36600,48.157975,119,0.156579,48,C3,96,2
36720,48.31587,119,0.156579,72,C5,115,1
36720,48.31587,119,0.156579,72,C5,96,1
36720,48.31587,119,0.156579,41,F2,115,2
36840,48.473765,119,0.156579,64,E4,96,1
36840,48.473765,119,0.156579,48,C3,96,2
36960,48.63166,119,0.156579,65,F4,96,1
36960,48.63166,119,0.156579,53,F3,96,2
37080,48.789555,119,0.156579,69,A4,96,1
37080,48.789555,119,0.156579,41,F2,96,2
37200,48.94745,119,0.156579,76,E5,96,1
37200,48.94745,119,0.156579,76,E5,96,1
37200,48.94745,119,0.156579,48,C3,96,2
37320,49.105345,119,0.156579,72,C5,96,1
37320,49.105345,119,0.156579,72,C5,96,1
37320,49.105345,119,0.156579,53,F3,96,2
37440,49.26324,119,0.156579,74,D5,115,1
37440,49.26324,119,0.156579,74,D5,96,1
37440,49.26324,119,0.156579,43,G2,115,2
37560,49.421135,119,0.156579,64,E4,96,1
37560,49.421135,119,0.156579,50,D3,96,2
37680,49.57903,119,0.156579,65,F4,96,1
37680,49.57903,119,0.156579,55,G3,96,2
37800,49.736925,119,0.156579,72,C5,96,1
37800,49.736925,119,0.156579,72,C5,96,1
37800,49.736925,119,0.156579,50,D3,96,2
37920,49.89482,119,0.156579,64,E4,96,1
37920,49.89482,119,0.156579,43,G2,96,2
38040,50.052715,119,0.156579,65,F4,96,1
38040,50.052715,119,0.156579,50,D3,96,2
38160,50.21061,119,0.156579,71,B4,115,1
38160,50.21061,119,0.156579,71,B4,96,1
38160,50.21061,119,0.156579,43,G2,115,2
38280,50.368505,119,0.156579,64,E4,96,1
38280,50.368505,119,0.156579,50,D3,96,2
38400,50.5264,119,0.156579,65,F4,96,1
38400,50.5264,119,0.156579,55,G3,96,2
38520,50.684295,119,0.156579,74,D5,96,1
38520,50.684295,119,0.156579,74,D5,96,1
38520,50.684295,119,0.156579,43,G2,96,2
38640,50.84219,119,0.156579,64,E4,96,1
38640,50.84219,119,0.156579,50,D3,96,2
38760,51.000085,119,0.156579,65,F4,96,1
38760,51.000085,119,0.156579,55,G3,96,2
38880,51.15798,119,0.156579,72,C5,96,1
38880,51.15798,119,0.156579,72,C5,96,1
38880,51.15798,119,0.156579,45,A2,115,2
39000,51.315875,119,0.156579,62,D4,96,1
39000,51.315875,119,0.156579,52,E3,96,2
39120,51.47377,119,0.156579,64,E4,96,1
39120,51.47377,119,0.156579,57,A3,96,2
39240,51.631665,119,0.156579,72,C5,96,1
39240,51.631665,119,0.156579,72,C5,96,1
39240,51.631665,119,0.156579,52,E3,96,2
39360,51.78956,119,0.156579,62,D4,96,1
39360,51.78956,119,0.156579,45,A2,96,2
39480,51.947455,119,0.156579,64,E4,96,1
39480,51.947455,119,0.156579,52,E3,96,2
39600,52.10535,119,0.156579,72,C5,96,1
39600,52.10535,119,0.156579,72,C5,96,1
39600,52.10535,119,0.156579,36,C2,115,2
39720,52.263245,119,0.156579,62,D4,96,1
39720,52.263245,119,0.156579,43,G2,96,2
39840,52.42114,119,0.156579,64,E4,96,1
39840,52.42114,119,0.156579,48,C3,96,2
39960,52.579035,119,0.156579,71,B4,96,1
39960,52.579035,119,0.156579,71,B4,96,1
39960,52.579035,119,0.156579,36,C2,96,2
40080,52.73693,119,0.156579,69,A4,96,1
40080,52.73693,119,0.156579,69,A4,96,1
40080,52.73693,119,0.156579,43,G2,96,2
40200,52.894825,119,0.156579,67,G4,96,1
40200,52.894825,119,0.156579,67,G4,96,1
40200,52.894825,119,0.156579,48,C3,96,2
40320,53.05272,119,0.156579,64,E4,115,1
40320,53.05272,119,0.156579,64,E4,96,1
40320,53.05272,119,0.156579,38,D2,115,2
40440,53.210615,119,0.156579,57,A3,96,1
40440,53.210615,119,0.156579,45,A2,96,2
40560,53.36851,119,0.156579,60,C4,96,1
40560,53.36851,119,0.156579,50,D3,96,2
40680,53.526405,119,0.156579,62,D4,96,1
40680,53.526405,119,0.156579,45,A2,96,2
40800,53.6843,119,0.156579,69,A4,96,1
40800,53.6843,119,0.156579,69,A4,96,1
40800,53.6843,119,0.156579,38,D2,96,2
40920,53.842195,119,0.156579,62,D4,96,1
40920,53.842195,119,0.156579,50,D3,96,2
41040,54.00009,119,0.156579,69,A4,115,1
41040,54.00009,119,0.156579,69,A4,96,1
41040,54.00009,119,0.156579,33,A1,115,2
41160,54.157985,119,0.156579,60,C4,96,1
41160,54.157985,119,0.156579,40,E2,96,2
41280,54.31588,119,0.156579,62,D4,96,1
41280,54.31588,119,0.156579,45,A2,96,2
41400,54.473775,119,0.156579,64,E4,96,1
41400,54.473775,119,0.156579,40,E2,96,2
41520,54.63167,119,0.156579,69,A4,96,1
41520,54.63167,119,0.156579,69,A4,96,1
41520,54.63167,119,0.156579,45,A2,96,2
41640,54.789565,119,0.156579,72,C5,96,1
41640,54.789565,119,0.156579,72,C5,96,1
41640,54.789565,119,0.156579,52,E3,96,2
41760,54.94746,119,0.156579,72,C5,115,1
41760,54.94746,119,0.156579,72,C5,96,1
41760,54.94746,119,0.156579,36,C2,96,2
41760,54.94746,119,0.156579,36,C2,96,2
41880,55.105355,119,0.156579,62,D4,96,1
41880,55.105355,119,0.156579,43,G2,96,2
42000,55.26325,119,0.156579,64,E4,96,1
42000,55.26325,119,0.156579,48,C3,96,2
42120,55.421145,119,0.156579,67,G4,96,1
42120,55.421145,119,0.156579,50,D3,96,2
42240,55.57904,119,0.156579,72,C5,96,1
42240,55.57904,119,0.156579,72,C5,96,1
42240,55.57904,119,0.156579,48,C3,96,2
42360,55.736935,119,0.156579,67,G4,96,1
42360,55.736935,119,0.156579,43,G2,96,2
42480,55.89483,119,0.156579,79,G5,115,1
42480,55.89483,119,0.156579,79,G5,96,1
42480,55.89483,119,0.156579,36,C2,96,2
42480,55.89483,119,0.156579,36,C2,96,2
42600,56.052725,119,0.156579,76,E5,96,1
42600,56.052725,119,0.156579,40,E2,96,2
42720,56.21062,119,0.156579,72,C5,96,1
42720,56.21062,119,0.156579,43,G2,96,2
42840,56.368515,119,0.156579,67,G4,96,1
42840,56.368515,119,0.156579,48,C3,96,2
42960,56.52641,119,0.156579,74,D5,96,1
42960,56.52641,119,0.156579,74,D5,96,1
42960,56.52641,119,0.156579,36,C2,96,2
42960,56.52641,119,0.156579,36,C2,96,2
43080,56.684305,119,0.156579,72,C5,96,1
43080,56.684305,119,0.156579,72,C5,96,1
43080,56.684305,119,0.156579,40,E2,96,2
43200,56.8422,119,0.156579,71,B4,115,1
43200,56.8422,119,0.156579,71,B4,96,1
43200,56.8422,119,0.156579,43,G2,96,2
43200,56.8422,119,0.156579,43,G2,96,2
43320,57.000095,119,0.156579,62,D4,96,1
43320,57.000095,119,0.156579,50,D3,96,2
43440,57.15799,119,0.156579,67,G4,96,1
43440,57.15799,119,0.156579,55,G3,96,2
43560,57.315885,119,0.156579,62,D4,96,1
43560,57.315885,119,0.156579,57,A3,96,2
43680,57.47378,119,0.156579,67,G4,96,1
43680,57.47378,119,0.156579,55,G3,96,2
43800,57.631675,119,0.156579,72,C5,96,1
43800,57.631675,119,0.156579,72,C5,96,1
43800,57.631675,119,0.156579,50,D3,96,2
43920,57.78957,119,0.156579,74,D5,115,1
43920,57.78957,119,0.156579,74,D5,96,1
43920,57.78957,119,0.156579,43,G2,96,2
43920,57.78957,119,0.156579,43,G2,96,2
44040,57.947465,119,0.156579,62,D4,96,1
44040,57.947465,119,0.156579,50,D3,96,2
44160,58.10536,119,0.156579,67,G4,96,1
44160,58.10536,119,0.156579,55,G3,96,2
44280,58.263255,119,0.156579,72,C5,96,1
44280,58.263255,119,0.156579,72,C5,96,1
44280,58.263255,119,0.156579,50,D3,96,2
44400,58.42115,119,0.156579,71,B4,96,1
44400,58.42115,119,0.156579,71,B4,96,1
44400,58.42115,119,0.156579,43,G2,96,2
44400,58.42115,119,0.156579,43,G2,96,2
44520,58.579045,119,0.156579,69,A4,96,1
44520,58.579045,119,0.156579,69,A4,96,1
44520,58.579045,119,0.156579,50,D3,96,2
44640,58.73694,119,0.156579,71,B4,115,1
44640,58.73694,119,0.156579,71,B4,96,1
44640,58.73694,119,0.156579,45,A2,96,2
44640,58.73694,119,0.156579,45,A2,96,2
44760,58.894835,119,0.156579,60,C4,96,1
44760,58.894835,119,0.156579,52,E3,96,2
44880,59.05273,119,0.156579,64,E4,96,1
44880,59.05273,119,0.156579,57,A3,96,2
45000,59.210625,119,0.156579,69,A4,96,1
45000,59.210625,119,0.156579,45,A2,96,2
45000,59.210625,119,0.156579,45,A2,96,2
45120,59.36852,119,0.156579,72,C5,96,1
45120,59.36852,119,0.156579,72,C5,96,1
45120,59.36852,119,0.156579,52,E3,96,2
45240,59.526415,119,0.156579,71,B4,96,1
45240,59.526415,119,0.156579,71,B4,96,1
45240,59.526415,119,0.156579,57,A3,96,2
45360,59.68431,119,0.156579,69,A4,115,1
45360,59.68431,119,0.156579,69,A4,96,1
45360,59.68431,119,0.156579,45,A2,96,2
45360,59.68431,119,0.156579,45,A2,96,2
45480,59.842205,119,0.156579,72,C5,96,1
45480,59.842205,119,0.156579,48,C3,96,2
45600,60.0001,119,0.156579,60,C4,96,1
45600,60.0001,119,0.156579,52,E3,96,2
45720,60.157995,119,0.156579,64,E4,96,1
45720,60.157995,119,0.156579,57,A3,96,2
45840,60.31589,119,0.156579,69,A4,96,1
45840,60.31589,119,0.156579,69,A4,96,1
45840,60.31589,119,0.156579,45,A2,96,2
45840,60.31589,119,0.156579,45,A2,96,2
45960,60.473785,119,0.156579,72,C5,96,1
45960,60.473785,119,0.156579,72,C5,96,1
45960,60.473785,119,0.156579,52,E3,96,2
46080,60.63168,119,0.156579,71,B4,115,1
46080,60.63168,119,0.156579,71,B4,96,1
46080,60.63168,119,0.156579,40,E2,96,2
46080,60.63168,119,0.156579,40,E2,96,2
46200,60.789575,119,0.156579,64,E4,96,1
46200,60.789575,119,0.156579,47,B2,96,2
46320,60.94747,119,0.156579,68,G4#,96,1
46320,60.94747,119,0.156579,52,E3,96,2
46440,61.105365,119,0.156579,76,E5,96,1
46440,61.105365,119,0.156579,76,E5,96,1
46440,61.105365,119,0.156579,47,B2,96,2
46560,61.26326,119,0.156579,68,G4#,96,1
46560,61.26326,119,0.156579,40,E2,96,2
46560,61.26326,119,0.156579,40,E2,96,2
46680,61.421155,119,0.156579,71,B4,96,1
46680,61.421155,119,0.156579,47,B2,96,2
46800,61.57905,119,0.156579,76,E5,115,1
46800,61.57905,119,0.156579,76,E5,96,1
46800,61.57905,119,0.156579,40,E2,96,2
46800,61.57905,119,0.156579,40,E2,96,2
46920,61.736945,119,0.156579,71,B4,96,1
46920,61.736945,119,0.156579,47,B2,96,2
47040,61.89484,119,0.156579,69,A4,96,1
47040,61.89484,119,0.156579,52,E3,96,2
47160,62.052735,119,0.156579,68,G4#,96,1
47160,62.052735,119,0.156579,40,E2,96,2
47160,62.052735,119,0.156579,40,E2,96,2
47280,62.21063,119,0.156579,71,B4,96,1
47280,62.21063,119,0.156579,71,B4,96,1
47280,62.21063,119,0.156579,47,B2,96,2
47400,62.368525,119,0.156579,64,E4,96,1
47400,62.368525,119,0.156579,52,E3,96,2
47520,62.52642,119,0.156579,64,E4,115,1
47520,62.52642,119,0.156579,64,E4,96,1
47520,62.52642,119,0.156579,36,C2,96,2
47520,62.52642,119,0.156579,36,C2,96,2
47640,62.684315,119,0.156579,55,G3,96,1
47640,62.684315,119,0.156579,43,G2,96,2
47760,62.84221,119,0.156579,60,C4,96,1
47760,62.84221,119,0.156579,48,C3,96,2
47880,63.000105,119,0.156579,62,D4,96,1
47880,63.000105,119,0.156579,36,C2,96,2
47880,63.000105,119,0.156579,36,C2,96,2
48000,63.158,119,0.156579,67,G4,96,1
48000,63.158,119,0.156579,67,G4,96,1
48000,63.158,119,0.156579,43,G2,96,2
48120,63.315895,119,0.156579,64,E4,96,1
48120,63.315895,119,0.156579,48,C3,96,2
48240,63.47379,119,0.156579,67,G4,115,1
48240,63.47379,119,0.156579,67,G4,96,1
48240,63.47379,119,0.156579,43,G2,96,2
48240,63.47379,119,0.156579,43,G2,96,2
48360,63.631685,119,0.156579,55,G3,96,1
48360,63.631685,119,0.156579,50,D3,96,2
48480,63.78958,119,0.156579,62,D4,96,1
48480,63.78958,119,0.156579,43,G2,96,2
48480,63.78958,119,0.156579,43,G2,96,2
48600,63.947475,119,0.156579,65,F4,96,1
48600,63.947475,119,0.156579,65,F4,96,1
48600,63.947475,119,0.156579,50,D3,96,2
48720,64.10537,119,0.156579,64,E4,96,1
48720,64.10537,119,0.156579,64,E4,96,1
48720,64.10537,119,0.156579,55,G3,96,2
48840,64.263265,119,0.156579,62,D4,96,1
48840,64.263265,119,0.156579,62,D4,96,1
48840,64.263265,119,0.156579,50,D3,96,2
48960,64.42116,119,0.156579,64,E4,115,1
48960,64.42116,119,0.156579,64,E4,96,1
48960,64.42116,119,0.156579,45,A2,96,2
48960,64.42116,119,0.156579,45,A2,96,2
49080,64.579055,119,0.156579,57,A3,96,1
49080,64.579055,119,0.156579,40,E2,96,2
49200,64.73695,119,0.156579,62,D4,96,1
49200,64.73695,119,0.156579,33,A1,96,2
49200,64.73695,119,0.156579,33,A1,96,2
49320,64.894845,119,0.156579,69,A4,96,1
49320,64.894845,119,0.156579,69,A4,96,1
49320,64.894845,119,0.156579,40,E2,96,2
49440,65.05274,119,0.156579,62,D4,96,1
49440,65.05274,119,0.156579,33,A1,96,2
49440,65.05274,119,0.156579,33,A1,96,2
49560,65.210635,119,0.156579,64,E4,96,1
49560,65.210635,119,0.156579,45,A2,96,2
49680,65.36853,119,0.156579,71,B4,115,1
49680,65.36853,119,0.156579,71,B4,96,1
49680,65.36853,119,0.156579,40,E2,96,2
49680,65.36853,119,0.156579,40,E2,96,2
49800,65.526425,119,0.156579,64,E4,96,1
49800,65.526425,119,0.156579,47,B2,96,2
49920,65.68432,119,0.156579,69,A4,96,1
49920,65.68432,119,0.156579,52,E3,96,2
50040,65.842215,119,0.156579,71,B4,96,1
50040,65.842215,119,0.156579,40,E2,96,2
50040,65.842215,119,0.156579,40,E2,96,2
50160,66.00011,119,0.156579,76,E5,96,1
50160,66.00011,119,0.156579,76,E5,96,1
50160,66.00011,119,0.156579,47,B2,96,2
50280,66.158005,119,0.156579,68,G4#,96,1
50280,66.158005,119,0.156579,52,E3,96,2
50400,66.3159,119,0.156579,72,C5,115,1
50400,66.3159,119,0.156579,72,C5,96,1
50400,66.3159,119,0.156579,33,A1,96,2
50400,66.3159,119,0.156579,33,A1,96,2
50520,66.473795,119,0.156579,62,D4,96,1
50520,66.473795,119,0.156579,40,E2,96,2
50640,66.63169,119,0.156579,64,E4,96,1
50640,66.63169,119,0.156579,45,A2,96,2
50760,66.789585,119,0.156579,62,D4,96,1
50760,66.789585,119,0.156579,33,A1,96,2
50760,66.789585,119,0.156579,33,A1,96,2
50880,66.94748,119,0.156579,69,A4,96,1
50880,66.94748,119,0.156579,69,A4,96,1
50880,66.94748,119,0.156579,40,E2,96,2
51000,67.105375,119,0.156579,64,E4,96,1
51000,67.105375,119,0.156579,45,A2,96,2
51120,67.26327,119,0.156579,72,C5,115,1
51120,67.26327,119,0.156579,72,C5,96,1
51120,67.26327,119,0.156579,38,D2,96,2
51120,67.26327,119,0.156579,38,D2,96,2
51240,67.421165,119,0.156579,62,D4,96,1
51240,67.421165,119,0.156579,45,A2,96,2
51360,67.57906,119,0.156579,64,E4,96,1
51360,67.57906,119,0.156579,50,D3,96,2
51480,67.736955,119,0.156579,71,B4,96,1
51480,67.736955,119,0.156579,71,B4,96,1
51480,67.736955,119,0.156579,45,A2,96,2
51600,67.89485,119,0.156579,69,A4,96,1
51600,67.89485,119,0.156579,69,A4,96,1
51600,67.89485,119,0.156579,38,D2,96,2
51600,67.89485,119,0.156579,38,D2,96,2
51720,68.052745,119,0.156579,67,G4,96,1
51720,68.052745,119,0.156579,67,G4,96,1
51720,68.052745,119,0.156579,50,D3,96,2
51840,68.21064,119,0.156579,69,A4,115,1
51840,68.21064,119,0.156579,69,A4,96,1
51840,68.21064,119,0.156579,45,A2,96,2
51840,68.21064,119,0.156579,45,A2,96,2
51960,68.368535,119,0.156579,59,B3,96,1
51960,68.368535,119,0.156579,52,E3,96,2
52080,68.52643,119,0.156579,60,C4,96,1
52080,68.52643,119,0.156579,57,A3,96,2
52200,68.684325,119,0.156579,64,E4,96,1
52200,68.684325,119,0.156579,45,A2,96,2
52200,68.684325,119,0.156579,45,A2,96,2
52320,68.84222,119,0.156579,69,A4,96,1
52320,68.84222,119,0.156579,69,A4,96,1
52320,68.84222,119,0.156579,52,E3,96,2
52440,69.000115,119,0.156579,59,B3,96,1
52440,69.000115,119,0.156579,57,A3,96,2
52560,69.15801,119,0.156579,69,A4,115,1
52560,69.15801,119,0.156579,69,A4,96,1
52560,69.15801,119,0.156579,45,A2,96,2
52560,69.15801,119,0.156579,45,A2,96,2
52680,69.315905,119,0.156579,59,B3,96,1
52680,69.315905,119,0.156579,48,C3,96,2
52800,69.4738,119,0.156579,60,C4,96,1
52800,69.4738,119,0.156579,52,E3,96,2
52920,69.631695,119,0.156579,64,E4,96,1
52920,69.631695,119,0.156579,57,A3,96,2
53040,69.78959,119,0.156579,69,A4,96,1
53040,69.78959,119,0.156579,69,A4,96,1
53040,69.78959,119,0.156579,45,A2,96,2
53040,69.78959,119,0.156579,45,A2,96,2
53160,69.947485,119,0.156579,72,C5,96,1
53160,69.947485,119,0.156579,72,C5,96,1
53160,69.947485,119,0.156579,65,F4,96,2
53280,70.10538,119,0.156579,76,E5,115,1
53280,70.10538,119,0.156579,76,E5,96,1
53280,70.10538,119,0.156579,60,C4,96,2
53280,70.10538,119,0.156579,60,C4,96,2
53400,70.263275,119,0.156579,64,E4,96,1
53400,70.263275,119,0.156579,57,A3,96,2
53520,70.42117,119,0.156579,69,A4,96,1
53520,70.42117,119,0.156579,52,E3,96,2
53640,70.579065,119,0.156579,76,E5,115,1
53640,70.579065,119,0.156579,76,E5,96,1
53640,70.579065,119,0.156579,57,A3,96,2
53760,70.73696,119,0.156579,64,E4,96,1
53760,70.73696,119,0.156579,60,C4,96,2
53760,70.73696,119,0.156579,60,C4,96,2
53880,70.894855,119,0.156579,69,A4,96,1
53880,70.894855,119,0.156579,57,A3,96,2
54000,71.05275,119,0.156579,76,E5,115,1
54000,71.05275,119,0.156579,76,E5,96,1
54000,71.05275,119,0.156579,59,B3,96,2
54000,71.05275,119,0.156579,59,B3,96,2
54120,71.210645,119,0.156579,64,E4,96,1
54120,71.210645,119,0.156579,55,G3,96,2
54240,71.36854,119,0.156579,69,A4,96,1
54240,71.36854,119,0.156579,50,D3,96,2
54360,71.526435,119,0.156579,74,D5,115,1
54360,71.526435,119,0.156579,74,D5,96,1
54360,71.526435,119,0.156579,55,G3,96,2
54480,71.68433,119,0.156579,64,E4,96,1
54480,71.68433,119,0.156579,59,B3,96,2
54480,71.68433,119,0.156579,59,B3,96,2
54600,71.842225,119,0.156579,69,A4,96,1
54600,71.842225,119,0.156579,55,G3,96,2
54720,72.00012,119,0.156579,72,C5,115,1
54720,72.00012,119,0.156579,72,C5,96,1
54720,72.00012,119,0.156579,57,A3,96,2
54720,72.00012,119,0.156579,57,A3,96,2
54840,72.158015,119,0.156579,64,E4,96,1
54840,72.158015,119,0.156579,52,E3,96,2
54960,72.31591,119,0.156579,69,A4,96,1
54960,72.31591,119,0.156579,48,C3,96,2
55080,72.473805,119,0.156579,72,C5,115,1
55080,72.473805,119,0.156579,72,C5,96,1
55080,72.473805,119,0.156579,52,E3,96,2
55200,72.6317,119,0.156579,64,E4,96,1
55200,72.6317,119,0.156579,57,A3,96,2
55200,72.6317,119,0.156579,57,A3,96,2
55320,72.789595,119,0.156579,69,A4,96,1
55320,72.789595,119,0.156579,52,E3,96,2
55440,72.94749,119,0.156579,76,E5,115,1
55440,72.94749,119,0.156579,76,E5,96,1
55440,72.94749,119,0.156579,57,A3,96,2
55440,72.94749,119,0.156579,57,A3,96,2
55560,73.105385,119,0.156579,64,E4,96,1
55560,73.105385,119,0.156579,52,E3,96,2
55680,73.26328,119,0.156579,69,A4,96,1
55680,73.26328,119,0.156579,48,C3,96,2
55800,73.421175,119,0.156579,72,C5,115,1
55800,73.421175,119,0.156579,72,C5,96,1
55800,73.421175,119,0.156579,52,E3,96,2
55920,73.57907,119,0.156579,64,E4,96,1
55920,73.57907,119,0.156579,57,A3,96,2
55920,73.57907,119,0.156579,57,A3,96,2
56040,73.736965,119,0.156579,69,A4,96,1
56040,73.736965,119,0.156579,52,E3,96,2
56160,73.89486,119,0.156579,76,E5,115,1
56160,73.89486,119,0.156579,76,E5,96,1
56160,73.89486,119,0.156579,60,C4,96,2
56160,73.89486,119,0.156579,60,C4,96,2
56280,74.052755,119,0.156579,64,E4,96,1
56280,74.052755,119,0.156579,57,A3,96,2
56400,74.21065,119,0.156579,69,A4,96,1
56400,74.21065,119,0.156579,52,E3,96,2
56520,74.368545,119,0.156579,76,E5,115,1
56520,74.368545,119,0.156579,76,E5,96,1
56520,74.368545,119,0.156579,57,A3,96,2
56640,74.52644,119,0.156579,64,E4,96,1
56640,74.52644,119,0.156579,60,C4,96,2
56640,74.52644,119,0.156579,60,C4,96,2
56760,74.684335,119,0.156579,69,A4,96,1
56760,74.684335,119,0.156579,57,A3,96,2
56880,74.84223,119,0.156579,76,E5,115,1
56880,74.84223,119,0.156579,76,E5,96,1
56880,74.84223,119,0.156579,59,B3,96,2
56880,74.84223,119,0.156579,59,B3,96,2
57000,75.000125,119,0.156579,64,E4,96,1
57000,75.000125,119,0.156579,55,G3,96,2
57120,75.15802,119,0.156579,69,A4,96,1
57120,75.15802,119,0.156579,50,D3,96,2
57240,75.315915,119,0.156579,74,D5,115,1
57240,75.315915,119,0.156579,74,D5,96,1
57240,75.315915,119,0.156579,55,G3,96,2
57360,75.47381,119,0.156579,64,E4,96,1
57360,75.47381,119,0.156579,59,B3,96,2
57360,75.47381,119,0.156579,59,B3,96,2
57480,75.631705,119,0.156579,69,A4,96,1
57480,75.631705,119,0.156579,55,G3,96,2
57600,75.7896,119,0.156579,72,C5,115,1
57600,75.7896,119,0.156579,72,C5,96,1
57600,75.7896,119,0.156579,57,A3,96,2
57600,75.7896,119,0.156579,57,A3,96,2
57720,75.947495,119,0.156579,64,E4,96,1
57720,75.947495,119,0.156579,52,E3,96,2
57840,76.10539,119,0.156579,69,A4,96,1
57840,76.10539,119,0.156579,48,C3,96,2
57960,76.263285,119,0.156579,72,C5,115,1
57960,76.263285,119,0.156579,72,C5,96,1
57960,76.263285,119,0.156579,52,E3,96,2
58080,76.42118,119,0.156579,64,E4,96,1
58080,76.42118,119,0.156579,57,A3,96,2
58080,76.42118,119,0.156579,57,A3,96,2
58200,76.579075,119,0.156579,69,A4,96,1
58200,76.579075,119,0.156579,52,E3,96,2
58320,76.73697,119,0.156579,69,A4,115,1
58320,76.73697,119,0.156579,69,A4,96,1
58320,76.73697,119,0.156579,57,A3,96,2
58320,76.73697,119,0.156579,57,A3,96,2
58440,76.894865,119,0.156579,62,D4,96,1
58440,76.894865,119,0.156579,50,D3,96,2
58560,77.05276,119,0.156579,66,F4#,96,1
58560,77.05276,119,0.156579,54,F3#,96,2
58680,77.210655,119,0.156579,69,A4,115,1
58680,77.210655,119,0.156579,69,A4,96,1
58680,77.210655,119,0.156579,57,A3,96,2
58800,77.36855,119,0.156579,62,D4,96,1
58800,77.36855,119,0.156579,50,D3,96,2
58800,77.36855,119,0.156579,50,D3,96,2
58920,77.526445,119,0.156579,66,F4#,96,1
58920,77.526445,119,0.156579,54,F3#,96,2
59040,77.68434,119,0.156579,76,E5,115,1
59040,77.68434,119,0.156579,76,E5,96,1
59040,77.68434,119,0.156579,60,C4,96,2
59040,77.68434,119,0.156579,60,C4,96,2
59160,77.842235,119,0.156579,64,E4,96,1
59160,77.842235,119,0.156579,57,A3,96,2
59280,78.00013,119,0.156579,69,A4,96,1
59280,78.00013,119,0.156579,52,E3,96,2
59400,78.158025,119,0.156579,76,E5,115,1
59400,78.158025,119,0.156579,76,E5,96,1
59400,78.158025,119,0.156579,57,A3,96,2
59520,78.31592,119,0.156579,64,E4,96,1
59520,78.31592,119,0.156579,60,C4,96,2
59520,78.31592,119,0.156579,60,C4,96,2
59640,78.473815,119,0.156579,69,A4,96,1
59640,78.473815,119,0.156579,57,A3,96,2
59760,78.63171,119,0.156579,76,E5,115,1
59760,78.63171,119,0.156579,76,E5,96,1
59760,78.63171,119,0.156579,59,B3,96,2
59760,78.63171,119,0.156579,59,B3,96,2
59880,78.789605,119,0.156579,64,E4,96,1
59880,78.789605,119,0.156579,55,G3,96,2
60000,78.9475,119,0.156579,69,A4,96,1
60000,78.9475,119,0.156579,50,D3,96,2
60120,79.105395,119,0.156579,74,D5,115,1
60120,79.105395,119,0.156579,74,D5,96,1
60120,79.105395,119,0.156579,55,G3,96,2
60240,79.26329,119,0.156579,64,E4,96,1
60240,79.26329,119,0.156579,59,B3,96,2
60240,79.26329,119,0.156579,59,B3,96,2
60360,79.421185,119,0.156579,69,A4,96,1
60360,79.421185,119,0.156579,55,G3,96,2
60480,79.57908,119,0.156579,72,C5,115,1
60480,79.57908,119,0.156579,72,C5,96,1
60480,79.57908,119,0.156579,57,A3,96,2
60480,79.57908,119,0.156579,57,A3,96,2
60600,79.736975,119,0.156579,64,E4,96,1
60600,79.736975,119,0.156579,52,E3,96,2
60720,79.89487,119,0.156579,69,A4,96,1
60720,79.89487,119,0.156579,48,C3,96,2
60840,80.052765,119,0.156579,72,C5,115,1
60840,80.052765,119,0.156579,72,C5,96,1
60840,80.052765,119,0.156579,52,E3,96,2
60960,80.21066,119,0.156579,64,E4,96,1
60960,80.21066,119,0.156579,57,A3,96,2
60960,80.21066,119,0.156579,57,A3,96,2
61080,80.368555,119,0.156579,69,A4,96,1
61080,80.368555,119,0.156579,52,E3,96,2
61200,80.52645,119,0.156579,76,E5,115,1
61200,80.52645,119,0.156579,76,E5,96,1
61200,80.52645,119,0.156579,57,A3,96,2
61200,80.52645,119,0.156579,57,A3,96,2
61320,80.684345,119,0.156579,64,E4,96,1
61320,80.684345,119,0.156579,52,E3,96,2
61440,80.84224,119,0.156579,69,A4,96,1
61440,80.84224,119,0.156579,48,C3,96,2
61560,81.000135,119,0.156579,72,C5,115,1
61560,81.000135,119,0.156579,72,C5,96,1
61560,81.000135,119,0.156579,52,E3,96,2
61680,81.15803,119,0.156579,64,E4,96,1
61680,81.15803,119,0.156579,57,A3,96,2
61680,81.15803,119,0.156579,57,A3,96,2
61800,81.315925,119,0.156579,69,A4,96,1
61800,81.315925,119,0.156579,52,E3,96,2
61920,81.47382,119,0.156579,76,E5,115,1
61920,81.47382,119,0.156579,76,E5,96,1
61920,81.47382,119,0.156579,60,C4,96,2
61920,81.47382,119,0.156579,60,C4,96,2
62040,81.631715,119,0.156579,64,E4,96,1
62040,81.631715,119,0.156579,57,A3,96,2
62160,81.78961,119,0.156579,69,A4,96,1
62160,81.78961,119,0.156579,52,E3,96,2
62280,81.947505,119,0.156579,76,E5,115,1
62280,81.947505,119,0.156579,76,E5,96,1
62280,81.947505,119,0.156579,57,A3,96,2
62400,82.1054,119,0.156579,64,E4,96,1
62400,82.1054,119,0.156579,60,C4,96,2
62400,82.1054,119,0.156579,60,C4,96,2
62520,82.263295,119,0.156579,69,A4,96,1
62520,82.263295,119,0.156579,57,A3,96,2
62640,82.42119,119,0.156579,76,E5,115,1
62640,82.42119,119,0.156579,76,E5,96,1
62640,82.42119,119,0.156579,59,B3,96,2
62640,82.42119,119,0.156579,59,B3,96,2
62760,82.579085,119,0.156579,64,E4,96,1
62760,82.579085,119,0.156579,55,G3,96,2
62880,82.73698,119,0.156579,69,A4,96,1
62880,82.73698,119,0.156579,50,D3,96,2
63000,82.894875,119,0.156579,74,D5,115,1
63000,82.894875,119,0.156579,74,D5,96,1
63000,82.894875,119,0.156579,55,G3,96,2
63120,83.05277,119,0.156579,64,E4,96,1
63120,83.05277,119,0.156579,59,B3,96,2
63120,83.05277,119,0.156579,59,B3,96,2
63240,83.210665,119,0.156579,69,A4,96,1
63240,83.210665,119,0.156579,55,G3,96,2
63360,83.36856,119,0.156579,72,C5,115,1
63360,83.36856,119,0.156579,72,C5,96,1
63360,83.36856,119,0.156579,57,A3,96,2
63360,83.36856,119,0.156579,57,A3,96,2
63480,83.526455,119,0.156579,60,C4,96,1
63480,83.526455,119,0.156579,52,E3,96,2
63600,83.68435,119,0.156579,64,E4,96,1
63600,83.68435,119,0.156579,48,C3,96,2
63720,83.842245,119,0.156579,72,C5,115,1
63720,83.842245,119,0.156579,72,C5,96,1
63720,83.842245,119,0.156579,57,A3,96,2
63720,83.842245,119,0.156579,57,A3,96,2
63840,84.00014,119,0.156579,60,C4,96,1
63840,84.00014,119,0.156579,52,E3,96,2
63960,84.158035,119,0.156579,64,E4,96,1
63960,84.158035,119,0.156579,48,C3,96,2
64080,84.31593,119,0.156579,74,D5,115,1
64080,84.31593,119,0.156579,74,D5,96,1
64080,84.31593,119,0.156579,50,D3,115,2
64080,84.31593,119,0.156579,50,D3,96,2
64200,84.473825,119,0.156579,62,D4,96,1
64200,84.473825,119,0.156579,38,D2,96,2
64320,84.63172,119,0.156579,66,F4#,96,1
64320,84.63172,119,0.156579,45,A2,96,2
64440,84.789615,119,0.156579,72,C5,115,1
64440,84.789615,119,0.156579,72,C5,96,1
64440,84.789615,119,0.156579,50,D3,115,2
64440,84.789615,119,0.156579,50,D3,96,2
64560,84.94751,119,0.156579,60,C4,96,1
64560,84.94751,119,0.156579,38,D2,96,2
64680,85.105405,119,0.156579,64,E4,96,1
64680,85.105405,119,0.156579,45,A2,96,2
