start_ticks,start_secs,dur_ticks,dur_secs,pitch,fullNoteOctave,velocity,part
0,0.0,1199,2.882211,67,G4,49,1
0,0.0,119,0.286057,59,B3,49,1
240,0.576923,119,0.286057,62,D4,49,1
480,1.153846,119,0.286057,59,B3,49,1
480,1.153846,119,0.286057,43,G2,49,2
720,1.730769,119,0.286057,62,D4,49,1
960,2.307692,119,0.286057,59,B3,49,1
960,2.307692,119,0.286057,36,C2,49,2
1200,2.884615,239,0.574519,69,A4,49,1
1200,2.884615,119,0.286057,64,E4,49,1
1440,3.461538,239,0.574519,66,F4#,49,1
1440,3.461538,119,0.286057,59,B3,49,1
1440,3.461538,119,0.286057,52,E3,49,2
1680,4.038461,119,0.286057,64,E4,49,1
1920,4.615384,479,1.151442,62,D4,49,1
1920,4.615384,119,0.286057,54,F3#,49,1
1920,4.615384,239,0.574519,38,D2,49,2
2160,5.192307,119,0.286057,59,B3,49,1
2400,5.76923,239,0.574519,64,E4,49,1
2400,5.76923,119,0.286057,54,F3#,49,1
2400,5.76923,239,0.574519,47,B2,49,2
2640,6.346153,239,0.574519,66,F4#,49,1
2640,6.346153,119,0.286057,59,B3,49,1
2880,6.923076,239,0.574519,66,F4#,49,1
2880,6.923076,119,0.286057,55,G3,49,1
2880,6.923076,239,0.574519,40,E2,49,2
3120,7.499999,239,0.574519,64,E4,49,1
3120,7.499999,119,0.286057,59,B3,49,1
3360,8.076922,455,1.1375,64,E4,49,1
3360,8.076922,227,0.5675,55,G3,49,1
3360,8.076922,227,0.5675,50,D3,49,2
3600,8.676922,227,0.5675,59,B3,49,1
3840,9.276922,1199,2.775462,71,B4,49,1
3840,9.276922,239,0.55324,60,C4,49,1
4080,9.832477,239,0.553241,64,E4,49,1
4320,10.388033,239,0.55324,60,C4,49,1
4320,10.388033,239,0.55324,55,G3,49,2
4560,10.943588,239,0.553241,64,E4,49,1
4800,11.499144,239,0.55324,60,C4,49,1
4800,11.499144,239,0.55324,45,A2,49,2
5040,12.054699,239,0.553241,72,C5,49,1
5040,12.054699,239,0.553241,64,E4,49,1
5280,12.610255,239,0.55324,69,A4,49,1
5280,12.610255,239,0.55324,60,C4,49,1
5280,12.610255,239,0.55324,55,G3,49,2
5520,13.16581,239,0.553241,67,G4,49,1
5520,13.16581,239,0.553241,64,E4,49,1
5760,13.721366,479,1.108796,66,F4#,49,1
5760,13.721366,239,0.55324,60,C4,49,1
5760,13.721366,239,0.55324,50,D3,49,2
6000,14.276921,239,0.553241,62,D4,49,1
6240,14.832477,239,0.55324,67,G4,49,1
6240,14.832477,239,0.55324,60,C4,49,1
6240,14.832477,119,0.275462,60,C4,49,2
6480,15.388032,479,1.108796,69,A4,49,1
6480,15.388032,239,0.553241,62,D4,49,1
6720,15.943588,239,0.55324,59,B3,49,1
6720,15.943588,119,0.275462,43,G2,49,2
6960,16.499143,239,0.553241,71,B4,49,1
6960,16.499143,239,0.553241,62,D4,49,1
7200,17.054699,239,0.55324,67,G4,49,1
7200,17.054699,239,0.55324,59,B3,49,1
7200,17.054699,119,0.275462,54,F3#,49,2
7440,17.610254,239,0.553241,66,F4#,49,1
7440,17.610254,239,0.553241,62,D4,49,1
7680,18.16581,479,1.108796,64,E4,49,1
7680,18.16581,239,0.55324,59,B3,49,1
7680,18.16581,119,0.275462,48,C3,49,2
7920,18.721365,239,0.553241,60,C4,49,1
8160,19.276921,239,0.55324,66,F4#,49,1
8160,19.276921,239,0.55324,59,B3,49,1
8160,19.276921,119,0.275462,59,B3,49,2
8400,19.832476,479,1.108796,67,G4,49,1
8400,19.832476,239,0.553241,60,C4,49,1
8640,20.388032,239,0.55324,57,A3,49,1
8640,20.388032,119,0.275462,42,F2#,49,2
8880,20.943587,239,0.553241,69,A4,49,1
8880,20.943587,239,0.553241,60,C4,49,1
9120,21.499143,239,0.55324,66,F4#,49,1
9120,21.499143,239,0.55324,57,A3,49,1
9120,21.499143,119,0.275462,52,E3,49,2
9360,22.054698,239,0.553241,64,E4,49,1
9360,22.054698,239,0.553241,60,C4,49,1
9600,22.610254,911,2.108796,66,F4#,49,1
9600,22.610254,227,0.525462,54,F3#,49,1
9600,22.610254,119,0.275462,47,B2,49,2
9840,23.165809,227,0.525463,59,B3,49,1
10080,23.721365,227,0.525462,62,D4,49,1
10320,24.27692,227,0.525463,59,B3,49,1
10560,24.832476,479,1.153055,42,F2#,65,2
10800,25.388031,239,0.5975,60,C4,65,1
10800,25.388031,239,0.5975,64,E4,65,1
10800,25.388031,239,0.5975,69,A4,65,1
11040,25.988031,239,0.5975,59,B3,75,1
11040,25.988031,239,0.5975,62,D4,75,1
11040,25.988031,239,0.5975,66,F4#,75,1
11040,25.988031,239,0.5975,43,G2,75,2
11280,26.588031,239,0.5975,54,F3#,75,1
11280,26.588031,239,0.5975,60,C4,75,1
11280,26.588031,239,0.5975,64,E4,75,1
11280,26.588031,239,0.5975,45,A2,75,2
11520,27.188031,239,0.5975,66,F4#,75,1
11520,27.188031,227,0.5675,59,B3,75,1
11520,27.188031,1823,4.796874,50,D3,75,2
11760,27.788031,227,0.5675,62,D4,75,1
12000,28.388031,911,2.2775,71,B4,75,1
12480,29.588031,911,2.546874,35,B1,67,2
12960,30.788031,455,1.421874,71,B4,59,1
13200,31.53803,44,0.1375,59,B3,55,1
13200,31.53803,44,0.1375,60,C4,55,1
13248,31.68803,44,0.1375,64,E4,54,1
13296,31.83803,44,0.1375,67,G4,53,1
13344,31.98803,71,0.221875,71,B4,52,1
13392,32.13803,44,0.1375,76,E5,51,1
13440,32.28803,1823,4.219906,33,A1,49,2
13680,32.843585,119,0.275463,64,E4,49,1
13920,33.399141,119,0.275462,67,G4,49,1
13920,33.399141,719,1.664351,59,B3,58,2
14160,33.954696,119,0.275463,64,E4,49,1
14400,34.510252,227,0.525462,60,C4,49,1
14640,35.065807,227,0.525463,69,A4,49,1
14640,35.065807,227,0.525463,64,E4,49,1
14640,35.065807,239,0.553241,57,A3,49,2
14880,35.621363,227,0.525462,74,D5,49,1
14880,35.621363,227,0.525462,67,G4,49,1
14880,35.621363,239,0.55324,62,D4,49,2
15120,36.176918,227,0.525463,71,B4,49,1
15120,36.176918,227,0.525463,64,E4,49,1
15120,36.176918,239,0.553241,59,B3,49,2
15360,36.732474,479,1.108796,71,B4,49,1
15360,36.732474,227,0.525462,60,C4,49,1
15360,36.732474,479,1.108796,59,B3,49,2
15600,37.288029,227,0.525463,54,F3#,49,1
15600,37.288029,227,0.525463,64,E4,49,1
15600,37.288029,1679,3.886574,38,D2,49,2
15600,37.288029,1679,3.886574,45,A2,49,2
15840,37.843585,227,0.525462,69,A4,49,1
15840,37.843585,227,0.525462,69,A4,49,1
15840,37.843585,479,1.108796,54,F3#,49,2
16080,38.39914,227,0.525463,64,E4,49,1
16320,38.954696,479,1.108796,67,G4,49,1
16320,38.954696,227,0.525462,60,C4,49,1
16320,38.954696,479,1.108796,59,B3,49,2
16560,39.510251,227,0.525463,64,E4,49,1
16800,40.065807,227,0.525462,69,A4,49,1
16800,40.065807,227,0.525462,69,A4,49,1
16800,40.065807,479,1.108796,57,A3,49,2
17040,40.621362,227,0.525463,64,E4,49,1
17280,41.176918,599,1.386573,64,E4,49,1
17280,41.176918,455,1.05324,55,G3,49,2
17520,41.732473,119,0.275463,59,B3,49,1
17760,42.288029,119,0.275462,64,E4,49,1
18000,42.843584,119,0.275463,71,B4,49,1
18240,43.39914,239,0.5975,64,E4,33,1
18240,43.39914,239,0.5975,40,E2,33,2
18240,43.39914,239,0.5975,52,E3,33,2
18480,43.99914,119,0.2975,72,C5,33,1
18480,43.99914,119,0.2975,74,D5,33,1
18480,43.99914,239,0.5975,62,D4,33,1
18480,43.99914,239,0.5975,38,D2,33,2
18480,43.99914,239,0.5975,50,D3,33,2
18720,44.59914,239,0.5975,67,G4,33,1
18720,44.59914,239,0.5975,43,G2,33,2
18720,44.59914,239,0.5975,55,G3,33,2
18960,45.19914,119,0.2975,72,C5,33,1
18960,45.19914,119,0.2975,74,D5,33,1
18960,45.19914,239,0.5975,66,F4#,33,1
18960,45.19914,239,0.5975,42,F2#,33,2
18960,45.19914,239,0.5975,54,F3#,33,2
19200,45.79914,119,0.2975,71,B4,33,1
19200,45.79914,119,0.2975,76,E5,33,1
19200,45.79914,239,0.5975,64,E4,33,1
19200,45.79914,479,1.1975,40,E2,33,2
19200,45.79914,479,1.1975,52,E3,33,2
19440,46.39914,239,0.5975,59,B3,33,1
19680,46.99914,479,1.330555,71,B4,33,1
19680,46.99914,239,0.663888,62,D4,33,1
19920,47.665806,239,0.663889,64,E4,33,1
20160,48.332473,479,1.330555,62,D4,33,1
20160,48.332473,479,1.330555,66,F4#,33,1
20160,48.332473,455,1.263888,56,G3#,33,2
20160,48.332473,479,1.330555,40,E2,33,2
20160,48.332473,479,1.330555,47,B2,33,2
20640,49.665806,479,1.330555,64,E4,33,1
20640,49.665806,159,0.441666,60,C4,33,1
20640,49.665806,455,1.263888,54,F3#,33,2
20640,49.665806,479,1.330555,38,D2,33,2
20640,49.665806,479,1.330555,45,A2,33,2
20800,50.11025,159,0.441666,59,B3,33,1
20960,50.554694,159,0.441667,57,A3,33,1
21120,50.999139,959,2.663888,59,B3,33,1
21120,50.999139,959,2.663888,66,F4#,33,1
21120,50.999139,911,2.530554,54,F3#,33,2
21120,50.999139,959,2.663888,35,B1,33,2
21120,50.999139,959,2.663888,42,F2#,33,2
21120,50.999139,959,2.663888,50,D3,33,2
22080,53.665805,119,0.275462,54,F3#,33,1
22080,53.665805,119,0.275462,59,B3,33,1
22320,54.22136,119,0.275463,59,B3,49,1
22320,54.22136,119,0.275463,62,D4,49,1
22560,54.776916,119,0.275462,62,D4,49,1
22560,54.776916,119,0.275462,66,F4#,49,1
22800,55.332471,119,0.275463,66,F4#,49,1
22800,55.332471,119,0.275463,71,B4,49,1
23040,55.888027,479,1.129717,78,F5#,33,1
23040,55.888027,119,0.28066,69,A4,33,1
23040,55.888027,119,0.28066,71,B4,33,1
23040,55.888027,119,0.28066,74,D5,33,1
23040,55.888027,959,2.261793,35,B1,33,2
23040,55.888027,959,2.261793,47,B2,33,2
23280,56.454065,119,0.28066,69,A4,33,1
23280,56.454065,119,0.28066,71,B4,33,1
23280,56.454065,119,0.28066,74,D5,33,1
23520,57.020103,707,1.667453,79,G5,33,1
23520,57.020103,119,0.28066,67,G4,33,1
23520,57.020103,119,0.28066,71,B4,33,1
23520,57.020103,119,0.28066,74,D5,33,1
23760,57.586141,119,0.28066,67,G4,33,1
23760,57.586141,119,0.28066,71,B4,33,1
23760,57.586141,119,0.28066,74,D5,33,1
24000,58.152179,119,0.28066,67,G4,33,1
24000,58.152179,119,0.28066,71,B4,33,1
24000,58.152179,119,0.28066,74,D5,33,1
24000,58.152179,959,2.261793,35,B1,33,2
24000,58.152179,959,2.261793,47,B2,33,2
24240,58.718217,239,0.563679,71,B4,33,1
24240,58.718217,239,0.563679,74,D5,33,1
24240,58.718217,239,0.563679,78,F5#,33,1
24240,58.718217,239,0.563679,69,A4,33,1
24480,59.284255,239,0.563679,71,B4,33,1
24480,59.284255,239,0.563679,74,D5,33,1
24480,59.284255,239,0.563679,79,G5,33,1
24480,59.284255,239,0.563679,67,G4,33,1
24720,59.850293,239,0.563679,71,B4,33,1
24720,59.850293,239,0.563679,74,D5,33,1
24720,59.850293,239,0.563679,81,A5,33,1
24720,59.850293,239,0.563679,66,F4#,33,1
24960,60.416331,479,1.129717,74,D5,33,1
24960,60.416331,119,0.28066,64,E4,33,1
24960,60.416331,119,0.28066,67,G4,33,1
24960,60.416331,119,0.28066,71,B4,33,1
24960,60.416331,1919,4.525945,35,B1,33,2
24960,60.416331,1919,4.525945,47,B2,33,2
25200,60.982369,119,0.28066,64,E4,33,1
25200,60.982369,119,0.28066,67,G4,33,1
25200,60.982369,119,0.28066,71,B4,33,1
25440,61.548407,1391,3.280661,73,C5#,33,1
25440,61.548407,119,0.28066,64,E4,33,1
25440,61.548407,119,0.28066,67,G4,33,1
25440,61.548407,119,0.28066,71,B4,33,1
25680,62.114445,119,0.28066,64,E4,33,1
25680,62.114445,119,0.28066,67,G4,33,1
25680,62.114445,119,0.28066,71,B4,33,1
25920,62.680483,119,0.28066,64,E4,33,1
25920,62.680483,119,0.28066,67,G4,33,1
25920,62.680483,119,0.28066,71,B4,33,1
26160,63.246521,239,0.563679,67,G4,33,1
26160,63.246521,239,0.563679,71,B4,33,1
26160,63.246521,239,0.563679,64,E4,33,1
26400,63.812559,239,0.563679,67,G4,33,1
26400,63.812559,239,0.563679,71,B4,33,1
26400,63.812559,239,0.563679,59,B3,33,1
26640,64.378597,239,0.563679,67,G4,33,1
26640,64.378597,239,0.563679,71,B4,33,1
26640,64.378597,239,0.563679,64,E4,33,1
26880,64.944635,479,1.129717,74,D5,33,1
26880,64.944635,119,0.28066,66,F4#,33,1
26880,64.944635,119,0.28066,67,G4,33,1
26880,64.944635,119,0.28066,71,B4,33,1
26880,64.944635,959,2.261793,35,B1,33,2
26880,64.944635,959,2.261793,47,B2,33,2
27120,65.510673,119,0.28066,66,F4#,33,1
27120,65.510673,119,0.28066,67,G4,33,1
27120,65.510673,119,0.28066,71,B4,33,1
27360,66.076711,719,1.695755,76,E5,33,1
27360,66.076711,119,0.28066,64,E4,33,1
27360,66.076711,119,0.28066,67,G4,33,1
27360,66.076711,119,0.28066,71,B4,33,1
27600,66.642749,119,0.28066,64,E4,33,1
27600,66.642749,119,0.28066,67,G4,33,1
27600,66.642749,119,0.28066,71,B4,33,1
27840,67.208787,119,0.28066,64,E4,33,1
27840,67.208787,119,0.28066,67,G4,33,1
27840,67.208787,119,0.28066,71,B4,33,1
27840,67.208787,959,2.261793,35,B1,33,2
27840,67.208787,959,2.261793,47,B2,33,2
28080,67.774825,239,0.563679,67,G4,33,1
28080,67.774825,239,0.563679,71,B4,33,1
28080,67.774825,239,0.563679,74,D5,33,1
28080,67.774825,239,0.563679,66,F4#,33,1
28320,68.340863,239,0.563679,67,G4,33,1
28320,68.340863,239,0.563679,71,B4,33,1
28320,68.340863,239,0.563679,76,E5,33,1
28320,68.340863,239,0.563679,64,E4,33,1
28560,68.906901,239,0.563679,67,G4,33,1
28560,68.906901,239,0.563679,71,B4,33,1
28560,68.906901,239,0.563679,78,F5#,33,1
28560,68.906901,239,0.563679,62,D4,33,1
28800,69.472939,479,1.129717,71,B4,33,1
28800,69.472939,119,0.28066,61,C4#,33,1
28800,69.472939,119,0.28066,64,E4,33,1
28800,69.472939,119,0.28066,67,G4,33,1
28800,69.472939,1919,4.525945,35,B1,33,2
28800,69.472939,1919,4.525945,47,B2,33,2
29040,70.038977,119,0.28066,61,C4#,33,1
29040,70.038977,119,0.28066,64,E4,33,1
29040,70.038977,119,0.28066,67,G4,33,1
29280,70.605015,479,1.129717,69,A4,33,1
29280,70.605015,119,0.28066,61,C4#,33,1
29280,70.605015,119,0.28066,64,E4,33,1
29280,70.605015,119,0.28066,67,G4,33,1
29520,71.171053,119,0.28066,61,C4#,33,1
29520,71.171053,119,0.28066,64,E4,33,1
29520,71.171053,119,0.28066,67,G4,33,1
29760,71.737091,119,0.28066,66,F4#,33,1
29760,71.737091,119,0.28066,61,C4#,33,1
29760,71.737091,119,0.28066,62,D4,33,1
29760,71.737091,119,0.28066,66,F4#,33,1
30000,72.303129,119,0.28066,61,C4#,33,1
30000,72.303129,119,0.28066,62,D4,33,1
30000,72.303129,119,0.28066,66,F4#,33,1
30240,72.869167,119,0.28066,61,C4#,33,1
30240,72.869167,119,0.28066,62,D4,33,1
30240,72.869167,119,0.28066,66,F4#,33,1
30480,73.435205,119,0.28066,61,C4#,33,1
30480,73.435205,119,0.28066,62,D4,33,1
30480,73.435205,119,0.28066,66,F4#,33,1
30720,74.001243,479,1.129717,69,A4,33,1
30720,74.001243,119,0.28066,61,C4#,33,1
30720,74.001243,119,0.28066,62,D4,33,1
30720,74.001243,119,0.28066,66,F4#,33,1
30720,74.001243,959,2.261793,33,A1,33,2
30960,74.567281,119,0.28066,61,C4#,33,1
30960,74.567281,119,0.28066,62,D4,33,1
30960,74.567281,119,0.28066,66,F4#,33,1
31200,75.133319,719,1.695755,71,B4,33,1
31200,75.133319,119,0.28066,59,B3,33,1
31200,75.133319,119,0.28066,62,D4,33,1
31200,75.133319,119,0.28066,66,F4#,33,1
31440,75.699357,119,0.28066,59,B3,33,1
31440,75.699357,119,0.28066,62,D4,33,1
31440,75.699357,119,0.28066,66,F4#,33,1
31680,76.265395,119,0.28066,59,B3,33,1
31680,76.265395,119,0.28066,62,D4,33,1
31680,76.265395,119,0.28066,66,F4#,33,1
31680,76.265395,959,2.261793,33,A1,33,2
31920,76.831433,239,0.563679,62,D4,36,1
31920,76.831433,239,0.563679,66,F4#,36,1
31920,76.831433,239,0.563679,69,A4,36,1
31920,76.831433,119,0.28066,61,C4#,36,1
32160,77.397471,239,0.563679,62,D4,40,1
32160,77.397471,239,0.563679,66,F4#,40,1
32160,77.397471,239,0.563679,71,B4,40,1
32160,77.397471,119,0.28066,59,B3,40,1
32400,77.963509,239,0.563679,62,D4,44,1
32400,77.963509,239,0.563679,66,F4#,44,1
32400,77.963509,239,0.563679,73,C5#,44,1
32400,77.963509,119,0.28066,57,A3,44,1
32640,78.529547,479,1.129717,55,G3,50,1
32640,78.529547,479,1.129717,62,D4,50,1
32640,78.529547,479,1.129717,66,F4#,50,1
32640,78.529547,479,1.129717,40,E2,50,2
32640,78.529547,479,1.129717,47,B2,50,2
33120,79.661623,719,1.695755,55,G3,50,1
33120,79.661623,719,1.695755,59,B3,50,1
33120,79.661623,719,1.695755,64,E4,50,1
33120,79.661623,719,1.695755,45,A2,50,2
33120,79.661623,719,1.695755,52,E3,50,2
33840,81.359737,239,0.563679,54,F3#,50,1
33840,81.359737,239,0.563679,57,A3,50,1
33840,81.359737,239,0.563679,62,D4,50,1
33840,81.359737,239,0.563679,50,D3,50,2
33840,81.359737,239,0.563679,57,A3,50,2
34080,81.925775,239,0.563679,55,G3,50,1
34080,81.925775,239,0.563679,59,B3,50,1
34080,81.925775,239,0.563679,64,E4,50,1
34080,81.925775,239,0.563679,45,A2,50,2
34080,81.925775,239,0.563679,52,E3,50,2
34320,82.491813,239,0.563679,55,G3,50,1
34320,82.491813,239,0.563679,62,D4,50,1
34320,82.491813,239,0.563679,66,F4#,50,1
34320,82.491813,239,0.563679,40,E2,50,2
34320,82.491813,239,0.563679,47,B2,50,2
34560,83.057851,479,1.129717,55,G3,48,1
34560,83.057851,479,1.129717,59,B3,48,1
34560,83.057851,479,1.129717,64,E4,48,1
34560,83.057851,479,1.129717,45,A2,48,2
34560,83.057851,479,1.129717,52,E3,48,2
35040,84.189927,479,1.129717,54,F3#,46,1
35040,84.189927,479,1.129717,57,A3,46,1
35040,84.189927,479,1.129717,62,D4,46,1
35040,84.189927,479,1.129717,50,D3,46,2
35040,84.189927,479,1.129717,57,A3,46,2
35520,85.322003,479,1.129717,78,F5#,30,1
35520,85.322003,119,0.28066,69,A4,30,1
35520,85.322003,119,0.28066,71,B4,30,1
35520,85.322003,119,0.28066,74,D5,30,1
35520,85.322003,1823,4.29953,35,B1,30,2
35520,85.322003,1823,4.29953,47,B2,30,2
35760,85.888041,119,0.28066,69,A4,30,1
35760,85.888041,119,0.28066,71,B4,30,1
35760,85.888041,119,0.28066,74,D5,30,1
36000,86.454079,707,1.667453,79,G5,30,1
36000,86.454079,119,0.28066,67,G4,30,1
36000,86.454079,119,0.28066,71,B4,30,1
36000,86.454079,119,0.28066,74,D5,30,1
36240,87.020117,119,0.28066,67,G4,30,1
36240,87.020117,119,0.28066,71,B4,30,1
36240,87.020117,119,0.28066,74,D5,30,1
36480,87.586155,119,0.28066,67,G4,30,1
36480,87.586155,119,0.28066,71,B4,30,1
36480,87.586155,119,0.28066,74,D5,30,1
36720,88.152193,239,0.563679,71,B4,30,1
36720,88.152193,239,0.563679,74,D5,30,1
36720,88.152193,239,0.563679,78,F5#,30,1
36720,88.152193,239,0.563679,69,A4,30,1
36960,88.718231,239,0.563679,71,B4,30,1
36960,88.718231,239,0.563679,74,D5,30,1
36960,88.718231,239,0.563679,79,G5,30,1
36960,88.718231,239,0.563679,67,G4,30,1
37200,89.284269,239,0.563679,71,B4,30,1
37200,89.284269,239,0.563679,74,D5,30,1
37200,89.284269,239,0.563679,81,A5,30,1
37200,89.284269,239,0.563679,66,F4#,30,1
37440,89.850307,479,1.129717,74,D5,30,1
37440,89.850307,119,0.28066,64,E4,30,1
37440,89.850307,119,0.28066,67,G4,30,1
37440,89.850307,119,0.28066,71,B4,30,1
37440,89.850307,1823,4.29953,40,E2,30,2
37440,89.850307,1823,4.29953,52,E3,30,2
37680,90.416345,119,0.28066,64,E4,30,1
37680,90.416345,119,0.28066,67,G4,30,1
37680,90.416345,119,0.28066,71,B4,30,1
37920,90.982383,1391,3.280661,73,C5#,30,1
37920,90.982383,119,0.28066,64,E4,30,1
37920,90.982383,119,0.28066,67,G4,30,1
37920,90.982383,119,0.28066,71,B4,30,1
38160,91.548421,119,0.28066,64,E4,30,1
38160,91.548421,119,0.28066,67,G4,30,1
38160,91.548421,119,0.28066,71,B4,30,1
38400,92.114459,119,0.28066,64,E4,30,1
38400,92.114459,119,0.28066,67,G4,30,1
38400,92.114459,119,0.28066,71,B4,30,1
38640,92.680497,239,0.563679,67,G4,30,1
38640,92.680497,239,0.563679,71,B4,30,1
38640,92.680497,239,0.563679,64,E4,30,1
38880,93.246535,239,0.563679,67,G4,30,1
38880,93.246535,239,0.563679,71,B4,30,1
38880,93.246535,239,0.563679,59,B3,30,1
39120,93.812573,239,0.563679,67,G4,30,1
39120,93.812573,239,0.563679,71,B4,30,1
39120,93.812573,239,0.563679,64,E4,30,1
39360,94.378611,479,1.129717,74,D5,30,1
39360,94.378611,119,0.28066,66,F4#,30,1
39360,94.378611,119,0.28066,67,G4,30,1
39360,94.378611,119,0.28066,71,B4,30,1
39360,94.378611,1823,4.29953,43,G2,30,2
39360,94.378611,1823,4.29953,57,A3,30,2
39600,94.944649,119,0.28066,66,F4#,31,1
39600,94.944649,119,0.28066,67,G4,31,1
39600,94.944649,119,0.28066,71,B4,31,1
39840,95.510687,719,1.695755,76,E5,32,1
39840,95.510687,119,0.28066,64,E4,32,1
39840,95.510687,119,0.28066,67,G4,32,1
39840,95.510687,119,0.28066,71,B4,32,1
40080,96.076725,119,0.28066,64,E4,33,1
40080,96.076725,119,0.28066,67,G4,33,1
40080,96.076725,119,0.28066,71,B4,33,1
40320,96.642763,119,0.28066,64,E4,35,1
40320,96.642763,119,0.28066,67,G4,35,1
40320,96.642763,119,0.28066,71,B4,35,1
40560,97.208801,239,0.563679,67,G4,36,1
40560,97.208801,239,0.563679,71,B4,36,1
40560,97.208801,239,0.563679,74,D5,36,1
40560,97.208801,239,0.563679,66,F4#,36,1
40800,97.774839,239,0.563679,67,G4,37,1
40800,97.774839,239,0.563679,71,B4,37,1
40800,97.774839,239,0.563679,76,E5,37,1
40800,97.774839,239,0.563679,64,E4,37,1
41040,98.340877,239,0.563679,67,G4,38,1
41040,98.340877,239,0.563679,71,B4,38,1
41040,98.340877,239,0.563679,78,F5#,38,1
41040,98.340877,239,0.563679,62,D4,38,1
41280,98.906915,479,1.129717,71,B4,40,1
41280,98.906915,119,0.28066,61,C4#,40,1
41280,98.906915,119,0.28066,64,E4,40,1
41280,98.906915,119,0.28066,67,G4,40,1
41520,99.472953,119,0.28066,61,C4#,38,1
41520,99.472953,119,0.28066,64,E4,38,1
41520,99.472953,119,0.28066,67,G4,38,1
41760,100.038991,479,1.129717,69,A4,36,1
41760,100.038991,119,0.28066,61,C4#,36,1
41760,100.038991,119,0.28066,64,E4,36,1
41760,100.038991,119,0.28066,67,G4,36,1
41760,100.038991,455,1.073113,33,A1,36,2
41760,100.038991,455,1.073113,45,A2,36,2
42000,100.605029,119,0.28066,61,C4#,34,1
42000,100.605029,119,0.28066,64,E4,34,1
42000,100.605029,119,0.28066,67,G4,34,1
42240,101.171067,119,0.28066,66,F4#,32,1
42240,101.171067,119,0.28066,61,C4#,32,1
42240,101.171067,119,0.28066,62,D4,32,1
42240,101.171067,119,0.28066,66,F4#,32,1
42240,101.171067,911,2.148585,38,D2,32,2
42240,101.171067,911,2.148585,50,D3,32,2
42480,101.737105,119,0.28066,61,C4#,30,1
42480,101.737105,119,0.28066,62,D4,30,1
42480,101.737105,119,0.28066,66,F4#,30,1
42720,102.303143,119,0.28066,61,C4#,30,1
42720,102.303143,119,0.28066,62,D4,30,1
42720,102.303143,119,0.28066,66,F4#,30,1
42960,102.869181,119,0.28066,61,C4#,30,1
42960,102.869181,119,0.28066,62,D4,30,1
42960,102.869181,119,0.28066,66,F4#,30,1
43200,103.435219,479,1.129717,69,A4,33,1
43200,103.435219,119,0.28066,61,C4#,33,1
43200,103.435219,119,0.28066,62,D4,33,1
43200,103.435219,119,0.28066,66,F4#,33,1
43200,103.435219,1367,3.224058,31,G1,33,2
43200,103.435219,1367,3.224058,43,G2,33,2
43440,104.001257,119,0.28066,61,C4#,31,1
43440,104.001257,119,0.28066,62,D4,31,1
43440,104.001257,119,0.28066,66,F4#,31,1
43680,104.567295,719,1.695755,71,B4,32,1
43680,104.567295,119,0.28066,59,B3,32,1
43680,104.567295,119,0.28066,62,D4,32,1
43680,104.567295,119,0.28066,66,F4#,32,1
43920,105.133333,119,0.28066,59,B3,33,1
43920,105.133333,119,0.28066,62,D4,33,1
43920,105.133333,119,0.28066,66,F4#,33,1
44160,105.699371,119,0.28066,59,B3,35,1
44160,105.699371,119,0.28066,62,D4,35,1
44160,105.699371,119,0.28066,66,F4#,35,1
44400,106.265409,239,0.563679,62,D4,36,1
44400,106.265409,239,0.563679,66,F4#,36,1
44400,106.265409,239,0.563679,69,A4,36,1
44400,106.265409,239,0.563679,61,C4#,36,1
44640,106.831447,239,0.563679,62,D4,38,1
44640,106.831447,239,0.563679,66,F4#,38,1
44640,106.831447,239,0.563679,71,B4,38,1
44640,106.831447,239,0.563679,59,B3,38,1
44640,106.831447,455,1.073113,35,B1,38,2
44640,106.831447,455,1.073113,47,B2,38,2
44880,107.397485,239,0.563679,62,D4,39,1
44880,107.397485,239,0.563679,66,F4#,39,1
44880,107.397485,239,0.563679,73,C5#,39,1
44880,107.397485,239,0.563679,57,A3,39,1
45120,107.963523,479,1.129717,56,G3#,50,1
45120,107.963523,479,1.129717,61,C4#,50,1
45120,107.963523,479,1.129717,62,D4,50,1
45120,107.963523,479,1.129717,66,F4#,50,1
45120,107.963523,455,1.073113,40,E2,50,2
45120,107.963523,455,1.073113,47,B2,50,2
45600,109.095599,719,1.695755,55,G3,50,1
45600,109.095599,719,1.695755,59,B3,50,1
45600,109.095599,719,1.695755,61,C4#,50,1
45600,109.095599,719,1.695755,64,E4,50,1
45600,109.095599,683,1.610849,45,A2,50,2
45600,109.095599,683,1.610849,52,E3,50,2
46320,110.793713,239,0.563679,54,F3#,50,1
46320,110.793713,239,0.563679,59,B3,50,1
46320,110.793713,239,0.563679,62,D4,50,1
46320,110.793713,227,0.535377,50,D3,50,2
46320,110.793713,227,0.535377,57,A3,50,2
46560,111.359751,239,0.563679,55,G3,50,1
46560,111.359751,239,0.563679,59,B3,50,1
46560,111.359751,239,0.563679,61,C4#,50,1
46560,111.359751,239,0.563679,64,E4,50,1
46560,111.359751,227,0.535377,45,A2,50,2
46560,111.359751,227,0.535377,52,E3,50,2
46800,111.925789,239,0.563679,56,G3#,50,1
46800,111.925789,239,0.563679,61,C4#,50,1
46800,111.925789,239,0.563679,62,D4,50,1
46800,111.925789,239,0.563679,66,F4#,50,1
46800,111.925789,227,0.535377,40,E2,50,2
46800,111.925789,227,0.535377,47,B2,50,2
47040,112.491827,479,1.129717,55,G3,41,1
47040,112.491827,479,1.129717,59,B3,41,1
47040,112.491827,479,1.129717,61,C4#,41,1
47040,112.491827,479,1.129717,64,E4,41,1
47040,112.491827,479,1.129717,45,A2,41,2
47040,112.491827,479,1.129717,52,E3,41,2
47520,113.623903,227,0.535377,54,F3#,38,1
47520,113.623903,227,0.535377,57,A3,38,1
47520,113.623903,227,0.535377,62,D4,38,1
47520,113.623903,227,0.535377,50,D3,38,2
47520,113.623903,227,0.535377,57,A3,38,2
48000,114.755979,479,1.1975,56,G3#,43,1
48000,114.755979,479,1.1975,62,D4,43,1
48000,114.755979,479,1.1975,66,F4#,43,1
48000,114.755979,479,1.1975,40,E2,43,2
48000,114.755979,479,1.1975,47,B2,43,2
48480,115.955979,719,1.7975,54,F3#,66,1
48480,115.955979,719,1.7975,60,C4,66,1
48480,115.955979,719,1.7975,64,E4,66,1
48480,115.955979,707,1.7675,38,D2,66,2
48480,115.955979,707,1.7675,45,A2,66,2
49200,117.755979,239,0.5975,52,E3,66,1
49200,117.755979,239,0.5975,58,A3#,66,1
49200,117.755979,239,0.5975,62,D4,66,1
49200,117.755979,239,0.5975,36,C2,66,2
49200,117.755979,239,0.5975,43,G2,66,2
49440,118.355979,239,0.5975,54,F3#,66,1
49440,118.355979,239,0.5975,60,C4,66,1
49440,118.355979,239,0.5975,64,E4,66,1
49440,118.355979,239,0.5975,38,D2,66,2
49440,118.355979,239,0.5975,45,A2,66,2
49680,118.955979,239,0.5975,56,G3#,66,1
49680,118.955979,239,0.5975,62,D4,66,1
49680,118.955979,239,0.5975,66,F4#,66,1
49680,118.955979,239,0.5975,40,E2,66,2
49680,118.955979,239,0.5975,47,B2,66,2
49920,119.555979,479,1.1975,58,A3#,55,1
49920,119.555979,479,1.1975,64,E4,55,1
49920,119.555979,239,0.5975,53,F3,55,1
49920,119.555979,239,0.5975,55,G3,55,1
49920,119.555979,479,1.1975,43,G2,55,2
49920,119.555979,479,1.1975,50,D3,55,2
50160,120.155979,695,1.965,54,F3#,54,1
50160,120.155979,239,0.5975,56,G3#,54,1
50400,120.755979,455,1.365,57,A3,53,1
50400,120.755979,455,1.365,60,C4,53,1
50400,120.755979,455,1.365,62,D4,53,1
50400,120.755979,455,1.365,38,D2,53,2
50400,120.755979,455,1.365,45,A2,53,2
50880,122.195479,239,0.55324,62,D4,50,1
50880,122.195479,227,0.525462,43,G2,50,2
50880,122.195479,227,0.525462,50,D3,50,2
50880,122.195479,227,0.525462,59,B3,50,2
50892,122.223256,226,0.523148,71,B4,50,1
50905,122.253349,1173,2.715277,79,G5,50,1
51120,122.751034,119,0.275463,74,D5,50,1
51360,123.30659,119,0.275462,62,D4,50,1
51360,123.30659,119,0.275462,71,B4,50,1
51360,123.30659,455,1.05324,59,B3,50,2
51360,123.30659,455,1.05324,71,B4,50,2
51600,123.862145,119,0.275463,74,D5,50,1
51840,124.417701,119,0.275462,64,E4,50,1
51840,124.417701,119,0.275462,71,B4,50,1
51840,124.417701,479,1.108796,36,C2,60,2
51903,124.563534,415,0.960648,43,G2,60,2
51967,124.711682,351,0.8125,52,E3,60,2
52080,124.973256,239,0.553241,81,A5,50,1
52080,124.973256,119,0.275463,76,E5,50,1
52320,125.528812,239,0.55324,78,F5#,50,1
52320,125.528812,119,0.275462,64,E4,50,1
52320,125.528812,119,0.275462,71,B4,50,1
52320,125.528812,455,1.05324,59,B3,50,2
52320,125.528812,455,1.05324,71,B4,50,2
52560,126.084367,119,0.275463,76,E5,50,1
52560,126.084367,119,0.275463,76,E5,50,1
52800,126.639923,479,1.108796,74,D5,50,1
52800,126.639923,239,0.55324,59,B3,50,1
52800,126.639923,239,0.55324,66,F4#,50,1
52800,126.639923,479,1.108796,38,D2,60,2
52863,126.785756,415,0.960648,47,B2,60,2
52927,126.933904,351,0.8125,54,F3#,60,2
53040,127.195478,239,0.553241,71,B4,50,1
53280,127.751034,239,0.55324,76,E5,50,1
53280,127.751034,455,1.05324,59,B3,50,2
53280,127.751034,455,1.05324,66,F4#,50,2
53520,128.306589,239,0.553241,78,F5#,50,1
53520,128.306589,239,0.553241,74,D5,50,1
53760,128.862145,239,0.55324,78,F5#,50,1
53760,128.862145,239,0.55324,64,E4,50,1
53760,128.862145,239,0.55324,71,B4,50,1
53760,128.862145,479,1.108796,40,E2,60,2
53823,129.007978,415,0.960648,47,B2,60,2
53887,129.156126,351,0.8125,55,G3,60,2
54000,129.4177,239,0.553241,76,E5,50,1
54000,129.4177,239,0.553241,71,B4,50,1
54240,129.973256,455,1.05324,76,E5,50,1
54240,129.973256,227,0.525462,64,E4,50,1
54240,129.973256,455,1.05324,59,B3,50,2
54240,129.973256,455,1.05324,67,G4,50,2
54480,130.528811,227,0.525463,71,B4,50,1
54720,131.084367,1199,2.775462,83,B5,50,1
54720,131.084367,239,0.55324,71,B4,50,1
54720,131.084367,239,0.55324,72,C5,50,1
54720,131.084367,479,1.108796,48,C3,60,2
54783,131.2302,415,0.960648,55,G3,60,2
54847,131.378348,351,0.8125,64,E4,60,2
54960,131.639922,239,0.553241,76,E5,50,1
55200,132.195478,239,0.55324,71,B4,50,1
55200,132.195478,239,0.55324,72,C5,50,1
55200,132.195478,455,1.05324,64,E4,50,2
55200,132.195478,455,1.05324,72,C5,50,2
55440,132.751033,239,0.553241,76,E5,50,1
55680,133.306589,239,0.55324,71,B4,50,1
55680,133.306589,239,0.55324,72,C5,50,1
55680,133.306589,479,1.108796,45,A2,60,2
55743,133.452422,415,0.960648,52,E3,60,2
55807,133.60057,351,0.8125,60,C4,60,2
55920,133.862144,239,0.553241,84,C6,50,1
55920,133.862144,239,0.553241,76,E5,50,1
56160,134.4177,239,0.55324,81,A5,50,1
56160,134.4177,239,0.55324,67,G4,50,1
56160,134.4177,239,0.55324,69,A4,50,1
56160,134.4177,455,1.05324,64,E4,50,2
56160,134.4177,455,1.05324,72,C5,50,2
56400,134.973255,239,0.553241,67,G4,50,1
56400,134.973255,239,0.553241,79,G5,50,1
56400,134.973255,239,0.553241,76,E5,50,1
56640,135.528811,239,0.55324,66,F4#,50,1
56640,135.528811,479,1.108796,78,F5#,50,1
56640,135.528811,239,0.55324,66,F4#,50,1
56640,135.528811,479,1.108796,47,B2,60,2
56703,135.674644,415,0.960648,54,F3#,60,2
56767,135.822792,351,0.8125,62,D4,60,2
56880,136.084366,239,0.553241,71,B4,50,1
56880,136.084366,239,0.553241,74,D5,50,1
57120,136.639922,239,0.55324,67,G4,50,1
57120,136.639922,239,0.55324,79,G5,50,1
57120,136.639922,239,0.55324,67,G4,50,1
57120,136.639922,455,1.05324,62,D4,50,2
57120,136.639922,455,1.05324,66,F4#,50,2
57120,136.639922,455,1.05324,71,B4,50,2
57360,137.195477,239,0.553241,69,A4,50,1
57360,137.195477,479,1.108796,81,A5,50,1
57360,137.195477,239,0.553241,74,D5,50,1
57600,137.751033,239,0.55324,66,F4#,50,1
57600,137.751033,239,0.55324,71,B4,50,1
57600,137.751033,479,1.108796,43,G2,60,2
57663,137.896866,415,0.960648,50,D3,60,2
57727,138.045014,351,0.8125,59,B3,60,2
57840,138.306588,239,0.553241,83,B5,50,1
57840,138.306588,239,0.553241,74,D5,50,1
58080,138.862144,239,0.55324,79,G5,50,1
58080,138.862144,239,0.55324,67,G4,50,1
58080,138.862144,455,1.05324,62,D4,50,2
58080,138.862144,455,1.05324,66,F4#,50,2
58080,138.862144,455,1.05324,71,B4,50,2
58320,139.417699,239,0.553241,78,F5#,50,1
58320,139.417699,239,0.553241,74,D5,50,1
58560,139.973255,479,1.108796,64,E4,50,1
58560,139.973255,479,1.108796,76,E5,50,1
58560,139.973255,239,0.55324,71,B4,50,1
58560,139.973255,479,1.108796,45,A2,60,2
58623,140.119088,415,0.960648,52,E3,60,2
58687,140.267236,351,0.8125,60,C4,60,2
58800,140.52881,239,0.553241,72,C5,50,1
59040,141.084366,239,0.55324,66,F4#,50,1
59040,141.084366,239,0.55324,78,F5#,50,1
59040,141.084366,479,1.108796,60,C4,50,2
59103,141.230199,415,0.960648,64,E4,50,2
59167,141.378347,351,0.8125,69,A4,50,2
59280,141.639921,239,0.553241,67,G4,50,1
59280,141.639921,479,1.108796,79,G5,50,1
59280,141.639921,239,0.553241,72,C5,50,1
59520,142.195477,239,0.55324,64,E4,50,1
59520,142.195477,239,0.55324,69,A4,50,1
59520,142.195477,479,1.108796,42,F2#,60,2
59583,142.34131,415,0.960648,48,C3,60,2
59647,142.489458,351,0.8125,57,A3,60,2
59760,142.751032,239,0.553241,81,A5,50,1
59760,142.751032,239,0.553241,72,C5,50,1
60000,143.306588,239,0.55324,78,F5#,50,1
60000,143.306588,239,0.55324,64,E4,50,1
60000,143.306588,479,1.108796,60,C4,50,2
60063,143.452421,415,0.960648,64,E4,50,2
60127,143.600569,351,0.8125,69,A4,50,2
60240,143.862143,239,0.553241,76,E5,50,1
60240,143.862143,239,0.553241,72,C5,50,1
60480,144.417699,911,2.108796,78,F5#,50,1
60480,144.417699,227,0.525462,66,F4#,50,1
60480,144.417699,227,0.525462,71,B4,50,1
60480,144.417699,479,1.108796,47,B2,60,2
60543,144.563532,415,0.960648,54,F3#,60,2
60607,144.71168,351,0.8125,62,D4,60,2
60720,144.973254,227,0.525463,74,D5,50,1
60960,145.52881,227,0.525462,62,D4,50,1
60960,145.52881,227,0.525462,71,B4,50,1
60960,145.52881,455,1.05324,59,B3,50,2
60960,145.52881,455,1.05324,66,F4#,50,2
61200,146.084365,227,0.525463,74,D5,50,1
61440,146.639921,239,0.55324,64,E4,72,1
61440,146.639921,239,0.55324,69,A4,72,1
61440,146.639921,239,0.55324,72,C5,72,1
61440,146.639921,479,1.153055,42,F2#,60,2
61680,147.195476,239,0.5975,60,C4,75,1
61680,147.195476,239,0.5975,64,E4,75,1
61680,147.195476,239,0.5975,69,A4,75,1
61920,147.795476,239,0.5975,59,B3,75,1
61920,147.795476,239,0.5975,62,D4,75,1
61920,147.795476,239,0.5975,66,F4#,75,1
61920,147.795476,239,0.5975,47,B2,75,2
62160,148.395476,239,0.5975,54,F3#,75,1
62160,148.395476,239,0.5975,60,C4,75,1
62160,148.395476,239,0.5975,64,E4,75,1
62160,148.395476,239,0.5975,50,D3,75,2
62400,148.995476,239,0.5975,59,B3,75,1
62400,148.995476,239,0.5975,62,D4,75,1
62400,148.995476,239,0.5975,66,F4#,75,1
62400,148.995476,1871,4.966564,47,B2,75,2
62880,150.195476,911,2.2775,71,B4,75,1
62880,150.195476,911,2.2775,83,B5,75,1
63360,151.395476,911,2.566564,35,B1,65,2
63840,152.595476,373,1.205453,71,B4,55,1
63840,152.595476,455,1.43323,83,B5,55,1
64080,153.345475,31,0.129166,59,B3,50,1
64114,153.487141,31,0.110714,60,C4,50,1
64148,153.608569,31,0.096874,64,E4,49,1
64182,153.714818,31,0.086111,71,B4,48,1
64216,153.809262,31,0.086111,72,C5,48,1
64250,153.903706,31,0.086111,76,E5,47,1
64284,153.998151,11,0.030555,83,B5,46,1
64320,154.098151,1199,2.775462,71,B4,55,1
64320,154.098151,959,2.219907,45,A2,55,2
64320,154.098151,959,2.219907,52,E3,55,2
64560,154.653706,119,0.275463,72,C5,55,1
64560,154.653706,119,0.275463,76,E5,55,1
64800,155.209262,119,0.275462,60,C4,55,1
64800,155.209262,119,0.275462,64,E4,55,1
65040,155.764817,119,0.275463,72,C5,55,1
65040,155.764817,119,0.275463,76,E5,55,1
65280,156.320373,227,0.525462,59,B3,55,2
65520,156.875928,239,0.553241,69,A4,55,1
65520,156.875928,239,0.553241,81,A5,55,1
65520,156.875928,239,0.553241,76,E5,55,1
65520,156.875928,239,0.553241,79,G5,55,1
65520,156.875928,227,0.525463,57,A3,55,2
65520,156.875928,227,0.525463,64,E4,55,2
65520,156.875928,227,0.525463,67,G4,55,2
65760,157.431484,239,0.55324,74,D5,55,1
65760,157.431484,239,0.55324,86,D6,55,1
65760,157.431484,227,0.525462,62,D4,55,2
66000,157.987039,239,0.553241,71,B4,55,1
66000,157.987039,239,0.553241,83,B5,55,1
66000,157.987039,239,0.553241,72,C5,55,1
66000,157.987039,239,0.553241,76,E5,55,1
66000,157.987039,227,0.525463,59,B3,55,2
66000,157.987039,227,0.525463,64,E4,55,2
66000,157.987039,227,0.525463,67,G4,55,2
66240,158.542595,479,1.108796,71,B4,55,1
66240,158.542595,479,1.108796,83,B5,55,1
66240,158.542595,455,1.05324,59,B3,55,2
66480,159.09815,719,1.664352,54,F3#,55,1
66480,159.09815,719,1.664352,60,C4,55,1
66480,159.09815,719,1.664352,64,E4,55,1
66480,159.09815,683,1.581018,38,D2,55,2
66480,159.09815,683,1.581018,45,A2,55,2
66720,159.653706,479,1.108796,69,A4,55,1
66720,159.653706,479,1.108796,81,A5,55,1
66720,159.653706,455,1.05324,54,F3#,55,2
66960,160.209261,479,1.108796,72,C5,55,1
66960,160.209261,479,1.108796,76,E5,55,1
66960,160.209261,455,1.053241,60,C4,55,2
66960,160.209261,455,1.053241,64,E4,55,2
67200,160.764817,479,1.108796,67,G4,55,1
67200,160.764817,479,1.108796,79,G5,55,1
67200,160.764817,455,1.05324,59,B3,55,2
67440,161.320372,479,1.108796,72,C5,55,1
67440,161.320372,479,1.108796,76,E5,55,1
67440,161.320372,455,1.053241,60,C4,55,2
67440,161.320372,455,1.053241,64,E4,55,2
67680,161.875928,479,1.108796,69,A4,55,1
67680,161.875928,479,1.108796,81,A5,55,1
67680,161.875928,455,1.05324,57,A3,55,2
67920,162.431483,479,1.108796,72,C5,55,1
67920,162.431483,479,1.108796,76,E5,55,1
67920,162.431483,455,1.053241,60,C4,55,2
67920,162.431483,455,1.053241,64,E4,55,2
68160,162.987039,1199,2.796741,64,E4,55,1
68160,162.987039,239,0.55324,76,E5,55,1
68160,162.987039,911,2.108796,55,G3,55,2
68400,163.542594,479,1.108796,71,B4,55,1
68400,163.542594,479,1.108796,76,E5,55,1
68400,163.542594,455,1.053241,59,B3,55,2
68400,163.542594,455,1.053241,64,E4,55,2
68880,164.653705,479,1.130075,71,B4,55,1
68880,164.653705,479,1.130075,76,E5,55,1
68880,164.653705,455,1.072382,59,B3,55,2
68880,164.653705,455,1.072382,64,E4,55,2
69120,165.209261,239,0.574519,40,E2,45,2
69120,165.209261,239,0.574519,52,E3,45,2
69360,165.786184,239,0.574519,62,D4,45,1
69360,165.786184,239,0.574519,74,D5,45,1
69360,165.786184,479,1.151442,72,C5,45,1
69360,165.786184,239,0.574519,38,D2,45,2
69360,165.786184,239,0.574519,50,D3,45,2
69360,165.786184,455,1.093749,48,C3,45,2
69600,166.363107,239,0.574519,67,G4,45,1
69600,166.363107,239,0.574519,79,G5,45,1
69600,166.363107,239,0.574519,43,G2,45,2
69600,166.363107,239,0.574519,55,G3,45,2
69840,166.94003,239,0.574519,66,F4#,45,1
69840,166.94003,239,0.574519,78,F5#,45,1
69840,166.94003,239,0.574519,72,C5,45,1
69840,166.94003,239,0.574519,74,D5,45,1
69840,166.94003,227,0.545673,42,F2#,45,2
69840,166.94003,227,0.545673,54,F3#,45,2
69840,166.94003,227,0.545673,48,C3,45,2
69840,166.94003,227,0.545673,50,D3,45,2
70080,167.516953,479,1.151442,64,E4,45,1
70080,167.516953,227,0.545673,76,E5,45,1
70080,167.516953,227,0.545673,71,B4,45,1
70080,167.516953,227,0.545673,76,E5,45,1
70080,167.516953,479,1.151442,40,E2,45,2
70080,167.516953,227,0.545673,52,E3,45,2
70080,167.516953,227,0.545673,47,B2,45,2
70080,167.516953,227,0.545673,52,E3,45,2
70320,168.093876,239,0.574519,59,B3,70,1
70560,168.670799,479,1.1975,71,B4,84,1
70560,168.670799,239,0.5975,62,D4,70,1
70800,169.270799,239,0.5975,64,E4,70,1
71040,169.870799,479,1.1975,56,G3#,84,1
71040,169.870799,479,1.1975,62,D4,84,1
71040,169.870799,479,1.1975,74,D5,84,1
71040,169.870799,239,0.5975,66,F4#,70,1
71040,169.870799,455,1.1375,40,E2,70,2
71040,169.870799,455,1.1375,47,B2,70,2
71520,171.070799,159,0.3975,72,C5,84,1
71520,171.070799,455,1.221874,54,F3#,70,1
71520,171.070799,455,1.221874,60,C4,70,1
71520,171.070799,455,1.221874,64,E4,70,1
71520,171.070799,455,1.221874,38,D2,70,2
71520,171.070799,455,1.221874,45,A2,70,2
71680,171.470799,159,0.3975,71,B4,84,1
71840,171.870799,159,0.496874,69,A4,84,1
72000,172.370798,1823,5.857497,59,B3,70,1
72000,172.370798,1823,5.857497,71,B4,70,1
72000,172.370798,959,2.996873,66,F4#,84,1
72000,172.370798,911,2.846873,42,F2#,70,2
72000,172.370798,911,2.846873,47,B2,70,2
72000,172.370798,911,2.846873,54,F3#,70,2
72000,172.370798,19,0.059375,31,G1,70,2
72000,172.370798,19,0.059375,43,G2,70,2
72960,175.370796,479,1.496874,64,E4,60,1
72960,175.370796,479,1.496874,40,E2,60,2
72960,175.370796,479,1.496874,52,E3,60,2
72960,175.370796,911,2.977499,47,B2,50,2
73440,176.870795,479,1.5975,62,D4,60,1
73440,176.870795,479,1.5975,38,D2,60,2
73440,176.870795,479,1.5975,50,D3,60,2
73680,177.870795,239,0.5975,79,G5,85,1
73680,177.870795,239,0.5975,79,G5,85,1
73920,178.471072,239,0.55324,79,G5,85,1
73920,178.471072,239,0.55324,82,A5#,85,1
74160,179.026627,479,1.108796,79,G5,86,1
74160,179.026627,479,1.108796,82,A5#,86,1
74160,179.026627,239,0.553241,84,C6,86,1
74400,179.582183,239,0.55324,86,D6,87,1
74640,180.137738,479,1.108796,79,G5,88,1
74640,180.137738,479,1.108796,82,A5#,88,1
74640,180.137738,719,1.664352,89,F6,88,1
74880,180.693294,479,1.108796,74,D5,89,2
75120,181.248849,479,1.108796,79,G5,90,1
75120,181.248849,479,1.108796,82,A5#,90,1
75360,181.804405,239,0.55324,88,E6,89,1
75360,181.804405,479,1.108796,74,D5,89,2
75600,182.35996,479,1.108796,79,G5,88,1
75600,182.35996,479,1.108796,82,A5#,88,1
75600,182.35996,239,0.553241,86,D6,88,1
75840,182.915516,239,0.55324,88,E6,87,1
75840,182.915516,159,0.368055,72,C5,87,2
76000,183.285886,159,0.368055,67,G4,87,2
76080,183.471071,239,0.553241,79,G5,86,1
76080,183.471071,239,0.553241,82,A5#,86,1
76080,183.471071,239,0.553241,84,C6,86,1
76160,183.656256,159,0.368056,72,C5,86,2
76320,184.026627,227,0.525462,77,F5,85,1
76320,184.026627,227,0.525462,81,A5,85,1
76320,184.026627,227,0.525462,86,D6,85,1
76320,184.026627,683,1.581018,62,D4,85,2
76560,184.582182,479,1.108796,55,G3,85,2
76800,185.137738,119,0.275462,57,A3,85,1
76800,185.137738,119,0.275462,60,C4,85,1
76800,185.137738,119,0.275462,65,F4,85,1
77040,185.693293,119,0.275463,60,C4,85,1
77040,185.693293,119,0.275463,65,F4,85,1
77040,185.693293,119,0.275463,69,A4,85,1
77040,185.693293,479,1.108796,55,G3,85,2
77040,185.693293,479,1.108796,62,D4,85,2
77280,186.248849,119,0.275462,57,A3,85,1
77280,186.248849,119,0.275462,60,C4,85,1
77280,186.248849,119,0.275462,65,F4,85,1
77520,186.804404,119,0.275463,53,F3,85,1
77520,186.804404,119,0.275463,57,A3,85,1
77520,186.804404,119,0.275463,62,D4,85,1
77520,186.804404,467,1.081018,55,G3,85,2
77520,186.804404,467,1.081018,62,D4,85,2
77760,187.35996,79,0.18287,57,A3,85,1
77760,187.35996,79,0.18287,60,C4,85,1
77760,187.35996,79,0.18287,65,F4,85,1
77920,187.73033,79,0.18287,60,C4,88,1
77920,187.73033,79,0.18287,65,F4,88,1
77920,187.73033,79,0.18287,69,A4,88,1
78000,187.915515,455,1.053241,55,G3,90,2
78000,187.915515,455,1.053241,60,C4,90,2
78080,188.1007,79,0.182871,65,F4,91,1
78080,188.1007,79,0.182871,69,A4,91,1
78080,188.1007,79,0.182871,74,D5,91,1
78240,188.471071,707,1.636573,65,F4,114,1
78240,188.471071,707,1.636573,69,A4,114,1
78240,188.471071,707,1.636573,76,E5,114,1
78480,189.026626,707,1.636574,50,D3,114,2
78480,189.026626,707,1.636574,59,B3,114,2
78720,189.582182,695,1.608796,43,G2,95,2
78960,190.137737,239,0.553241,57,A3,95,1
78960,190.137737,239,0.553241,60,C4,95,1
78960,190.137737,239,0.553241,65,F4,95,1
79200,190.693293,239,0.55324,60,C4,95,1
79200,190.693293,239,0.55324,65,F4,95,1
79200,190.693293,239,0.55324,69,A4,95,1
79360,191.063663,159,0.368055,55,G3,96,2
79360,191.063663,159,0.368055,62,D4,96,2
79440,191.248848,239,0.553241,65,F4,97,1
79440,191.248848,239,0.553241,69,A4,97,1
79440,191.248848,239,0.553241,74,D5,97,1
79520,191.434033,159,0.368056,55,G3,98,2
79520,191.434033,159,0.368056,60,C4,98,2
79680,191.804404,707,1.636573,65,F4,120,1
79680,191.804404,707,1.636573,69,A4,120,1
79680,191.804404,707,1.636573,76,E5,120,1
79680,191.804404,683,1.581018,50,D3,100,2
79680,191.804404,683,1.581018,59,B3,100,2
79920,192.359959,239,0.553241,43,G2,100,2
80160,192.915515,227,0.525462,43,G2,100,2
80400,193.47107,239,0.553241,65,F4,100,1
80400,193.47107,239,0.553241,69,A4,100,1
80400,193.47107,239,0.553241,76,E5,100,1
80400,193.47107,239,0.553241,55,G3,100,2
80400,193.47107,239,0.553241,59,B3,100,2
80640,194.026626,911,2.108796,72,C5,85,1
80640,194.026626,455,1.05324,48,C3,85,2
80640,194.026626,455,1.05324,55,G3,85,2
80880,194.582181,227,0.525463,65,F4,85,1
80880,194.582181,227,0.525463,67,G4,85,1
81120,195.137737,227,0.525462,77,F5,85,1
81120,195.137737,227,0.525462,79,G5,85,1
81360,195.693292,239,0.553241,64,E4,50,1
81360,195.693292,239,0.553241,67,G4,50,1
81360,195.693292,191,0.44213,72,C5,50,1
81360,195.693292,191,0.44213,72,C5,50,1
81600,196.248848,239,0.55324,72,C5,51,1
81600,196.248848,239,0.55324,75,D5#,51,1
81600,196.248848,239,0.55324,63,D4#,51,2
81840,196.804403,479,1.108796,75,D5#,52,1
81840,196.804403,239,0.553241,78,F5#,52,1
81840,196.804403,239,0.553241,74,D5,52,2
82080,197.359959,239,0.55324,79,G5,53,1
82080,197.359959,239,0.55324,72,C5,53,2
82320,197.915514,479,1.108796,72,C5,54,1
82320,197.915514,479,1.108796,75,D5#,54,1
82320,197.915514,719,1.664352,82,A5#,54,1
82320,197.915514,239,0.553241,70,A4#,54,2
82560,198.47107,239,0.55324,67,G4,55,2
82800,199.026625,479,1.108796,72,C5,55,1
82800,199.026625,479,1.108796,75,D5#,55,1
82800,199.026625,239,0.553241,70,A4#,55,2
83040,199.582181,239,0.55324,81,A5,54,1
83040,199.582181,239,0.55324,69,A4,54,2
83280,200.137736,479,1.108796,72,C5,53,1
83280,200.137736,479,1.108796,75,D5#,53,1
83280,200.137736,239,0.553241,79,G5,53,1
83280,200.137736,239,0.553241,67,G4,53,2
83520,200.693292,239,0.55324,81,A5,52,1
83520,200.693292,159,0.368055,65,F4,52,2
83680,201.063662,159,0.368055,60,C4,51,2
83760,201.248847,239,0.553241,72,C5,50,1
83760,201.248847,239,0.553241,75,D5#,50,1
83760,201.248847,239,0.553241,77,F5,50,1
83840,201.434032,159,0.368056,65,F4,50,2
84000,201.804403,227,0.525462,70,A4#,50,1
84000,201.804403,227,0.525462,74,D5,50,1
84000,201.804403,227,0.525462,79,G5,50,1
84000,201.804403,455,1.05324,55,G3,50,2
84240,202.359958,923,2.136574,36,C2,50,2
84240,202.359958,923,2.136574,43,G2,50,2
84480,202.915514,239,0.55324,62,D4,60,1
84480,202.915514,239,0.55324,65,F4,60,1
84480,202.915514,239,0.55324,70,A4#,60,1
84480,202.915514,239,0.55324,58,A3#,60,2
84720,203.471069,239,0.553241,65,F4,60,1
84720,203.471069,239,0.553241,69,A4,60,1
84720,203.471069,239,0.553241,74,D5,60,1
84720,203.471069,239,0.553241,62,D4,60,2
84960,204.026625,239,0.55324,62,D4,60,1
84960,204.026625,239,0.55324,65,F4,60,1
84960,204.026625,239,0.55324,70,A4#,60,1
84960,204.026625,239,0.55324,58,A3#,60,2
85200,204.58218,239,0.553241,59,B3,60,1
85200,204.58218,239,0.553241,62,D4,60,1
85200,204.58218,239,0.553241,67,G4,60,1
85200,204.58218,239,0.553241,55,G3,60,2
85200,204.58218,683,1.581018,36,C2,60,2
85200,204.58218,683,1.581018,43,G2,60,2
85440,205.137736,151,0.349537,62,D4,60,1
85440,205.137736,151,0.349537,65,F4,60,1
85440,205.137736,151,0.349537,70,A4#,60,1
85440,205.137736,151,0.349537,58,A3#,60,2
85600,205.508106,151,0.349537,65,F4,66,1
85600,205.508106,151,0.349537,69,A4,66,1
85600,205.508106,151,0.349537,74,D5,66,1
85600,205.508106,151,0.349537,62,D4,66,2
85760,205.878476,151,0.349537,69,A4,73,1
85760,205.878476,151,0.349537,74,D5,73,1
85760,205.878476,151,0.349537,77,F5,73,1
85760,205.878476,151,0.349537,58,A3#,73,2
85760,205.878476,151,0.349537,65,F4,73,2
85920,206.248847,548,1.268518,70,A4#,96,1
85920,206.248847,548,1.268518,74,D5,96,1
85920,206.248847,548,1.268518,81,A5,96,1
85920,206.248847,548,1.268518,55,G3,96,2
85920,206.248847,548,1.268518,64,E4,96,2
86160,206.804402,1151,2.664352,36,C2,83,2
86160,206.804402,1151,2.664352,43,G2,83,2
86640,207.915513,239,0.553241,59,B3,108,1
86640,207.915513,239,0.553241,62,D4,108,1
86640,207.915513,239,0.553241,65,F4,108,1
86640,207.915513,239,0.553241,70,A4#,108,1
86640,207.915513,239,0.553241,50,D3,108,2
86640,207.915513,239,0.553241,55,G3,108,2
86880,208.471069,239,0.55324,62,D4,108,1
86880,208.471069,239,0.55324,65,F4,108,1
86880,208.471069,239,0.55324,69,A4,108,1
86880,208.471069,239,0.55324,74,D5,108,1
86880,208.471069,239,0.55324,53,F3,108,2
86880,208.471069,239,0.55324,58,A3#,108,2
87120,209.026624,239,0.553241,65,F4,114,1
87120,209.026624,239,0.553241,69,A4,114,1
87120,209.026624,239,0.553241,74,D5,114,1
87120,209.026624,239,0.553241,77,F5,114,1
87120,209.026624,239,0.553241,57,A3,114,2
87120,209.026624,239,0.553241,58,A3#,114,2
87120,209.026624,239,0.553241,62,D4,114,2
87360,209.58218,683,1.581018,69,A4,100,1
87360,209.58218,683,1.581018,70,A4#,100,1
87360,209.58218,683,1.581018,74,D5,100,1
87360,209.58218,683,1.581018,81,A5,100,1
87360,209.58218,548,1.268518,55,G3,120,2
87360,209.58218,548,1.268518,58,A3#,120,2
87360,209.58218,548,1.268518,64,E4,120,2
87600,210.137735,479,1.108796,36,C2,100,2
87600,210.137735,479,1.108796,43,G2,100,2
88080,211.248846,239,0.553241,69,A4,100,1
88080,211.248846,239,0.553241,76,E5,100,1
88080,211.248846,239,0.553241,81,A5,100,1
88080,211.248846,239,0.553241,72,C5,100,1
88080,211.248846,239,0.553241,58,A3#,100,2
88080,211.248846,239,0.553241,64,E4,100,2
88080,211.248846,239,0.553241,60,C4,100,2
88320,211.804402,455,1.05324,65,F4,94,1
88320,211.804402,455,1.05324,72,C5,94,1
88320,211.804402,455,1.05324,77,F5,94,1
88320,211.804402,227,0.525462,70,A4#,94,1
88320,211.804402,455,1.05324,53,F3,94,2
88320,211.804402,455,1.05324,60,C4,94,2
88320,211.804402,227,0.525462,58,A3#,94,2
88560,212.359957,227,0.525463,69,A4,88,1
88560,212.359957,227,0.525463,57,A3,88,2
88800,212.915513,227,0.525462,68,G4#,82,1
88800,212.915513,227,0.525462,56,G3#,82,2
89040,213.471068,227,0.525463,63,D4#,75,1
89040,213.471068,227,0.525463,71,B4,75,1
89040,213.471068,227,0.525463,75,D5#,75,1
89040,213.471068,227,0.525463,67,G4,75,1
89040,213.471068,239,0.553241,53,F3,75,2
89040,213.471068,239,0.553241,59,B3,75,2
89040,213.471068,239,0.553241,55,G3,75,2
89280,214.026624,455,1.05324,60,C4,69,1
89280,214.026624,455,1.05324,67,G4,69,1
89280,214.026624,455,1.05324,72,C5,69,1
89280,214.026624,227,0.525462,65,F4,69,1
89280,214.026624,455,1.05324,48,C3,69,2
89280,214.026624,455,1.05324,55,G3,69,2
89280,214.026624,227,0.525462,53,F3,69,2
89520,214.582179,227,0.525463,64,E4,63,1
89520,214.582179,227,0.525463,52,E3,63,2
89760,215.137735,227,0.525462,63,D4#,57,1
89760,215.137735,227,0.525462,51,D3#,57,2
90000,215.69329,239,0.5975,58,A3#,50,1
90000,215.69329,239,0.5975,65,F4,50,1
90000,215.69329,239,0.5975,70,A4#,50,1
90000,215.69329,239,0.5975,62,D4,50,1
90000,215.69329,227,0.5675,48,C3,50,2
90000,215.69329,227,0.5675,54,F3#,50,2
90000,215.69329,227,0.5675,50,D3,50,2
90240,216.29329,455,1.1375,67,G4,50,1
90240,216.29329,911,2.2775,60,C4,50,1
90240,216.29329,911,2.2775,62,D4,50,1
90240,216.29329,455,1.1375,55,G3,50,2
90240,216.29329,1415,3.5375,38,D2,50,2
90240,216.29329,1415,3.5375,50,D3,50,2
90720,217.49329,479,1.1975,64,E4,50,1
90720,217.49329,455,1.1375,52,E3,50,2
91200,218.69329,479,1.1975,60,C4,50,1
91200,218.69329,479,1.1975,62,D4,50,1
91200,218.69329,479,1.1975,66,F4#,50,1
91200,218.69329,455,1.1375,54,F3#,50,2
91680,219.89329,479,1.1975,58,A3#,50,1
91680,219.89329,479,1.1975,62,D4,50,1
91680,219.89329,479,1.1975,67,G4,50,1
91680,219.89329,455,1.1375,55,G3,50,2
91680,219.89329,455,1.1375,31,G1,50,2
91680,219.89329,455,1.1375,43,G2,50,2
91920,220.49329,239,0.5975,79,G5,50,1
91920,220.49329,239,0.5975,79,G5,50,1
92160,221.09329,239,0.55324,79,G5,50,1
92160,221.09329,239,0.55324,82,A5#,50,1
92400,221.648845,479,1.108796,79,G5,50,1
92400,221.648845,479,1.108796,82,A5#,50,1
92400,221.648845,239,0.553241,84,C6,50,1
92640,222.204401,239,0.55324,86,D6,50,1
92880,222.759956,359,0.814835,79,G5,50,1
92880,222.759956,419,0.93038,82,A5#,50,1
92880,222.759956,479,1.045765,89,F6,50,1
93120,223.315512,59,0.13409,74,D5,50,1
93120,223.315512,479,1.045373,74,D5,50,2
93180,223.451875,59,0.122916,79,G5,50,1
93240,223.576875,59,0.113461,82,A5#,50,1
93300,223.69226,59,0.113461,89,F6,50,1
93360,223.807645,479,1.108796,79,G5,50,1
93360,223.807645,479,1.108796,82,A5#,50,1
93360,223.807645,239,0.55324,91,G6,50,2
93600,224.3632,239,0.553241,88,E6,49,1
93600,224.3632,479,1.108796,74,D5,49,2
93840,224.918756,479,1.108796,79,G5,48,1
93840,224.918756,479,1.108796,82,A5#,48,1
93840,224.918756,239,0.55324,86,D6,48,1
93840,224.918756,239,0.55324,89,F6,48,2
93840,224.918756,239,0.55324,91,G6,48,2
94080,225.474311,239,0.553241,88,E6,47,1
94080,225.474311,159,0.368056,72,C5,47,2
94240,225.844681,159,0.368056,67,G4,47,2
94320,226.029867,479,1.18472,79,G5,46,1
94320,226.029867,479,1.18472,82,A5#,46,1
94320,226.029867,239,0.55324,84,C6,46,1
94400,226.215052,159,0.368055,72,C5,46,2
94560,226.585422,39,0.152343,62,D4,45,1
94560,226.585422,239,0.629165,86,D6,45,1
94560,226.585422,227,0.604165,62,D4,45,2
94600,226.741672,39,0.121874,69,A4,45,1
94640,226.866671,39,0.0975,74,D5,45,1
94680,226.966671,39,0.08125,77,F5,45,1
94720,227.050004,39,0.08125,81,A5,45,1
94760,227.133337,39,0.08125,86,D6,45,1
94800,227.216671,56,0.174999,93,A6,45,1
94800,227.216671,479,1.206017,55,G3,45,2
94800,227.216671,479,1.206017,62,D4,45,2
95040,227.869447,119,0.275463,57,A3,45,1
95040,227.869447,119,0.275463,60,C4,45,1
95040,227.869447,119,0.275463,65,F4,45,1
95280,228.425003,119,0.275463,60,C4,45,1
95280,228.425003,119,0.275463,65,F4,45,1
95280,228.425003,119,0.275463,69,A4,45,1
95280,228.425003,479,1.108796,55,G3,45,2
95280,228.425003,479,1.108796,62,D4,45,2
95520,228.980558,119,0.275463,57,A3,45,1
95520,228.980558,119,0.275463,60,C4,45,1
95520,228.980558,119,0.275463,65,F4,45,1
95760,229.536114,119,0.275463,53,F3,45,1
95760,229.536114,119,0.275463,57,A3,45,1
95760,229.536114,119,0.275463,62,D4,45,1
95760,229.536114,455,1.05324,55,G3,45,2
95760,229.536114,455,1.05324,62,D4,45,2
96000,230.091669,159,0.368056,57,A3,45,1
96000,230.091669,159,0.368056,60,C4,45,1
96000,230.091669,159,0.368056,65,F4,45,1
96160,230.46204,159,0.368055,60,C4,48,1
96160,230.46204,159,0.368055,65,F4,48,1
96160,230.46204,159,0.368055,69,A4,48,1
96240,230.647225,227,0.525463,55,G3,50,2
96240,230.647225,227,0.525463,60,C4,50,2
96320,230.83241,159,0.368055,65,F4,51,1
96320,230.83241,159,0.368055,69,A4,51,1
96320,230.83241,159,0.368055,74,D5,51,1
96480,231.20278,683,1.581019,65,F4,55,1
96480,231.20278,683,1.581019,69,A4,55,1
96480,231.20278,683,1.581019,76,E5,55,1
96480,231.20278,707,1.636574,50,D3,66,2
96480,231.20278,707,1.636574,59,B3,66,2
96720,231.758336,683,1.581018,43,G2,55,2
97200,232.869447,239,0.55324,57,A3,55,1
97200,232.869447,239,0.55324,60,C4,55,1
97200,232.869447,239,0.55324,65,F4,55,1
97440,233.425002,239,0.553241,60,C4,63,1
97440,233.425002,239,0.553241,65,F4,63,1
97440,233.425002,239,0.553241,69,A4,63,1
97440,233.425002,239,0.553241,55,G3,63,2
97440,233.425002,239,0.553241,62,D4,63,2
97680,233.980558,239,0.55324,65,F4,71,1
97680,233.980558,239,0.55324,69,A4,71,1
97680,233.980558,239,0.55324,74,D5,71,1
97680,233.980558,239,0.55324,55,G3,71,2
97680,233.980558,239,0.55324,60,C4,71,2
97920,234.536113,707,1.636574,65,F4,84,1
97920,234.536113,707,1.636574,69,A4,84,1
97920,234.536113,707,1.636574,76,E5,84,1
97920,234.536113,707,1.636574,50,D3,84,2
97920,234.536113,707,1.636574,59,B3,84,2
98160,235.091669,227,0.525463,43,G2,70,2
98400,235.647224,227,0.525463,43,G2,70,2
98640,236.20278,227,0.525463,65,F4,70,1
98640,236.20278,227,0.525463,69,A4,70,1
98640,236.20278,227,0.525463,76,E5,70,1
98640,236.20278,227,0.525463,55,G3,70,2
98640,236.20278,227,0.525463,59,B3,70,2
98880,236.758335,911,2.108796,72,C5,70,1
98880,236.758335,455,1.053241,48,C3,70,2
98880,236.758335,455,1.053241,55,G3,70,2
99120,237.313891,119,0.275463,65,F4,70,1
99120,237.313891,119,0.275463,67,G4,70,1
99360,237.869446,119,0.275463,77,F5,70,1
99360,237.869446,119,0.275463,79,G5,70,1
99600,238.425002,119,0.275463,64,E4,70,1
99600,238.425002,119,0.275463,67,G4,70,1
99600,238.425002,191,0.442129,72,C5,70,1
99600,238.425002,191,0.442129,72,C5,70,1
99840,238.980557,239,0.553241,72,C5,50,1
99840,238.980557,239,0.553241,75,D5#,50,1
99840,238.980557,227,0.525463,63,D4#,50,2
100080,239.536113,479,1.108796,75,D5#,50,1
100080,239.536113,239,0.55324,77,F5,50,1
100080,239.536113,227,0.525463,74,D5,50,2
100320,240.091668,239,0.553241,79,G5,50,1
100320,240.091668,227,0.525463,72,C5,50,2
100560,240.647224,479,1.039645,72,C5,50,1
100560,240.647224,479,1.039645,75,D5#,50,1
100560,240.647224,479,1.039645,82,A5#,50,1
100560,240.647224,227,0.525463,70,A4#,50,2
100800,241.202779,47,0.106818,67,G4,50,1
100800,241.202779,455,0.983699,67,G4,50,2
100848,241.311869,47,0.097916,71,B4,50,1
100896,241.411869,143,0.275,72,C5,50,1
100944,241.504177,95,0.182692,75,D5#,50,1
100992,241.596485,47,0.090384,82,A5#,50,1
101040,241.688793,455,1.05324,84,C6,50,2
101280,242.244348,239,0.553241,81,A5,50,1
101280,242.244348,239,0.553241,69,A4,50,2
101520,242.799904,479,1.108796,72,C5,50,1
101520,242.799904,479,1.108796,75,D5#,50,1
101520,242.799904,239,0.55324,67,G4,50,1
101520,242.799904,239,0.55324,79,G5,50,1
101520,242.799904,239,0.55324,82,A5#,50,2
101520,242.799904,239,0.55324,84,C6,50,2
101760,243.355459,239,0.553241,81,A5,50,1
101760,243.355459,159,0.368056,65,F4,50,2
101920,243.725829,159,0.368056,60,C4,50,2
102000,243.911015,239,0.55324,69,A4,50,1
102000,243.911015,239,0.55324,72,C5,50,1
102000,243.911015,239,0.55324,75,D5#,50,1
102000,243.911015,239,0.55324,77,F5,50,1
102080,244.0962,159,0.368055,65,F4,50,2
102240,244.46657,39,0.090278,55,G3,50,1
102240,244.46657,239,0.553241,79,G5,50,1
102240,244.46657,455,1.053241,55,G3,50,2
102280,244.559163,39,0.090277,62,D4,50,1
102320,244.651755,39,0.090278,67,G4,50,1
102360,244.744348,39,0.090278,70,A4#,50,1
102400,244.83694,39,0.090278,74,D5,50,1
102440,244.929533,39,0.090278,79,G5,50,1
102480,245.022126,227,0.525462,86,D6,50,1
102480,245.022126,947,2.192129,36,C2,50,2
102480,245.022126,947,2.192129,43,G2,50,2
102720,245.577681,239,0.553241,62,D4,50,1
102720,245.577681,239,0.553241,65,F4,50,1
102720,245.577681,239,0.553241,70,A4#,50,1
102720,245.577681,239,0.553241,58,A3#,50,2
102960,246.133237,239,0.55324,65,F4,50,1
102960,246.133237,239,0.55324,69,A4,50,1
102960,246.133237,239,0.55324,74,D5,50,1
102960,246.133237,239,0.55324,62,D4,50,2
103200,246.688792,239,0.553241,62,D4,50,1
103200,246.688792,239,0.553241,65,F4,50,1
103200,246.688792,239,0.553241,70,A4#,50,1
103200,246.688792,239,0.553241,58,A3#,50,2
103440,247.244348,239,0.55324,59,B3,50,1
103440,247.244348,239,0.55324,62,D4,50,1
103440,247.244348,239,0.55324,67,G4,50,1
103440,247.244348,239,0.55324,55,G3,50,2
103440,247.244348,719,1.664351,36,C2,50,2
103440,247.244348,719,1.664351,43,G2,50,2
103680,247.799903,159,0.368056,62,D4,50,1
103680,247.799903,159,0.368056,65,F4,50,1
103680,247.799903,159,0.368056,70,A4#,50,1
103680,247.799903,159,0.368056,58,A3#,50,2
103840,248.170273,159,0.368056,65,F4,53,1
103840,248.170273,159,0.368056,69,A4,53,1
103840,248.170273,159,0.368056,74,D5,53,1
103840,248.170273,159,0.368056,62,D4,53,2
104000,248.540644,159,0.368055,69,A4,56,1
104000,248.540644,159,0.368055,74,D5,56,1
104000,248.540644,159,0.368055,77,F5,56,1
104000,248.540644,159,0.368055,58,A3#,56,2
104000,248.540644,159,0.368055,65,F4,56,2
104160,248.911014,707,1.636574,70,A4#,84,1
104160,248.911014,707,1.636574,74,D5,84,1
104160,248.911014,707,1.636574,81,A5,84,1
104160,248.911014,683,1.581018,55,G3,70,2
104160,248.911014,683,1.581018,64,E4,70,2
104400,249.46657,1139,2.636573,36,C2,70,2
104400,249.46657,1139,2.636573,43,G2,70,2
104880,250.577681,239,0.55324,59,B3,96,1
104880,250.577681,239,0.55324,62,D4,96,1
104880,250.577681,239,0.55324,65,F4,96,1
104880,250.577681,239,0.55324,70,A4#,96,1
104880,250.577681,239,0.55324,50,D3,96,2
104880,250.577681,239,0.55324,55,G3,96,2
105120,251.133236,239,0.553241,62,D4,99,1
105120,251.133236,239,0.553241,65,F4,99,1
105120,251.133236,239,0.553241,69,A4,99,1
105120,251.133236,239,0.553241,74,D5,99,1
105120,251.133236,239,0.553241,53,F3,99,2
105120,251.133236,239,0.553241,58,A3#,99,2
105360,251.688792,239,0.55324,65,F4,103,1
105360,251.688792,239,0.55324,69,A4,103,1
105360,251.688792,239,0.55324,74,D5,103,1
105360,251.688792,239,0.55324,77,F5,103,1
105360,251.688792,239,0.55324,57,A3,103,2
105360,251.688792,239,0.55324,58,A3#,103,2
105360,251.688792,239,0.55324,62,D4,103,2
105600,252.244347,719,1.664352,69,A4,120,1
105600,252.244347,719,1.664352,70,A4#,120,1
105600,252.244347,719,1.664352,74,D5,120,1
105600,252.244347,719,1.664352,81,A5,120,1
105600,252.244347,707,1.636574,55,G3,120,2
105600,252.244347,707,1.636574,58,A3#,120,2
105600,252.244347,707,1.636574,64,E4,120,2
105840,252.799903,479,1.108796,36,C2,120,2
105840,252.799903,479,1.108796,43,G2,120,2
106320,253.911014,239,0.55324,69,A4,100,1
106320,253.911014,239,0.55324,76,E5,100,1
106320,253.911014,239,0.55324,81,A5,100,1
106320,253.911014,239,0.55324,72,C5,100,1
106320,253.911014,239,0.55324,58,A3#,100,2
106320,253.911014,239,0.55324,64,E4,100,2
106320,253.911014,239,0.55324,60,C4,100,2
106560,254.466569,719,1.664352,65,F4,90,1
106560,254.466569,719,1.664352,72,C5,90,1
106560,254.466569,719,1.664352,77,F5,90,1
106560,254.466569,239,0.553241,70,A4#,90,1
106560,254.466569,479,1.108796,53,F3,90,2
106560,254.466569,479,1.108796,59,B3,90,2
106560,254.466569,239,0.553241,58,A3#,90,2
106800,255.022125,239,0.55324,69,A4,90,1
106800,255.022125,239,0.55324,57,A3,90,2
107040,255.57768,239,0.553241,68,G4#,90,1
107040,255.57768,239,0.553241,56,G3#,90,2
107280,256.133236,239,0.55324,63,D4#,90,1
107280,256.133236,239,0.55324,71,B4,90,1
107280,256.133236,239,0.55324,75,D5#,90,1
107280,256.133236,239,0.55324,67,G4,90,1
107280,256.133236,239,0.55324,53,F3,90,2
107280,256.133236,239,0.55324,59,B3,90,2
107280,256.133236,239,0.55324,55,G3,90,2
107520,256.688791,719,1.664352,60,C4,85,1
107520,256.688791,719,1.664352,67,G4,85,1
107520,256.688791,719,1.664352,72,C5,85,1
107520,256.688791,239,0.553241,65,F4,85,1
107520,256.688791,719,1.664352,48,C3,85,2
107520,256.688791,719,1.664352,55,G3,85,2
107520,256.688791,239,0.553241,53,F3,85,2
107760,257.244347,239,0.55324,64,E4,80,1
107760,257.244347,239,0.55324,52,E3,80,2
108000,257.799902,239,0.553241,63,D4#,80,1
108000,257.799902,239,0.553241,51,D3#,80,2
108240,258.355458,239,0.55324,58,A3#,80,1
108240,258.355458,239,0.55324,66,F4#,80,1
108240,258.355458,239,0.55324,70,A4#,80,1
108240,258.355458,239,0.55324,62,D4,80,1
108240,258.355458,239,0.55324,48,C3,80,2
108240,258.355458,239,0.55324,54,F3#,80,2
108240,258.355458,239,0.55324,50,D3,80,2
108480,258.911013,479,1.108796,55,G3,70,1
108480,258.911013,479,1.108796,67,G4,70,1
108480,258.911013,911,2.188611,60,C4,70,1
108480,258.911013,911,2.188611,62,D4,70,1
108480,258.911013,455,1.053241,55,G3,70,2
108480,258.911013,1439,3.508611,38,D2,70,2
108480,258.911013,1439,3.508611,50,D3,70,2
108960,260.022124,479,1.1975,64,E4,50,1
108960,260.022124,455,1.1375,52,E3,50,2
109440,261.222124,455,1.1375,60,C4,50,1
109440,261.222124,455,1.1375,62,D4,50,1
109440,261.222124,455,1.1375,66,F4#,50,1
109440,261.222124,455,1.1375,54,F3#,50,2
109920,262.422124,479,1.79625,58,A3#,50,1
109920,262.422124,479,1.79625,62,D4,50,1
109920,262.422124,479,1.79625,67,G4,50,1
109920,262.422124,455,1.70625,55,G3,50,2
109920,262.422124,479,1.79625,31,G1,50,2
109920,262.422124,479,1.79625,43,G2,50,2
110400,264.220874,1199,2.775462,79,G5,50,1
110400,264.220874,59,0.136574,62,D4,50,1
110400,264.220874,479,1.108796,43,G2,50,2
110463,264.366707,415,0.960648,50,D3,50,2
110520,264.498651,59,0.136574,71,B4,50,1
110527,264.514855,351,0.8125,59,B3,50,2
110640,264.776429,59,0.136574,74,D5,50,1
110760,265.054207,59,0.136574,71,B4,50,1
110880,265.331985,59,0.136574,62,D4,50,1
110880,265.331985,455,1.05324,59,B3,50,2
110880,265.331985,455,1.05324,71,B4,50,2
111000,265.609762,59,0.136574,71,B4,50,1
111120,265.88754,59,0.136574,74,D5,50,1
111240,266.165318,59,0.136574,71,B4,50,1
111360,266.443096,59,0.136574,64,E4,50,1
111360,266.443096,479,1.108796,36,C2,50,2
111423,266.588929,415,0.960648,43,G2,50,2
111480,266.720873,59,0.136574,71,B4,50,1
111487,266.737077,351,0.8125,52,E3,50,2
111600,266.998651,239,0.553241,81,A5,50,1
111600,266.998651,59,0.136574,76,E5,50,1
111720,267.276429,59,0.136574,71,B4,50,1
111840,267.554207,239,0.55324,78,F5#,50,1
111840,267.554207,59,0.136574,64,E4,50,1
111840,267.554207,455,1.05324,59,B3,50,2
111840,267.554207,455,1.05324,71,B4,50,2
111960,267.831984,59,0.136574,71,B4,50,1
112080,268.109762,59,0.136574,76,E5,50,1
112080,268.109762,59,0.136574,76,E5,50,1
112200,268.38754,59,0.136574,71,B4,50,1
112320,268.665318,479,1.108796,74,D5,50,1
112320,268.665318,59,0.136574,59,B3,50,1
112320,268.665318,479,1.108796,38,D2,60,2
112383,268.811151,415,0.960648,47,B2,60,2
112440,268.943095,59,0.136574,66,F4#,50,1
112447,268.959299,351,0.8125,54,F3#,60,2
112560,269.220873,59,0.136574,71,B4,50,1
112680,269.498651,59,0.136574,66,F4#,50,1
112800,269.776429,239,0.55324,76,E5,50,1
112800,269.776429,455,1.05324,59,B3,50,2
112800,269.776429,455,1.05324,66,F4#,50,2
112920,270.054206,59,0.136574,66,F4#,50,1
113040,270.331984,239,0.553241,78,F5#,50,1
113040,270.331984,59,0.136574,71,B4,50,1
113160,270.609762,59,0.136574,66,F4#,50,1
113280,270.88754,239,0.55324,78,F5#,50,1
113280,270.88754,59,0.136574,64,E4,50,1
113280,270.88754,479,1.108796,40,E2,60,2
113343,271.033373,415,0.960648,47,B2,60,2
113400,271.165317,59,0.136574,71,B4,50,1
113407,271.181521,351,0.8125,55,G3,60,2
113520,271.443095,59,0.136574,76,E5,50,1
113520,271.443095,59,0.136574,76,E5,50,1
113640,271.720873,59,0.136574,71,B4,50,1
113760,271.998651,299,0.692129,76,E5,50,1
113760,271.998651,59,0.136574,64,E4,50,1
113760,271.998651,455,1.05324,59,B3,50,2
113760,271.998651,455,1.05324,67,G4,50,2
113880,272.276428,59,0.136574,71,B4,50,1
114000,272.554206,59,0.136574,76,E5,50,1
114120,272.831984,59,0.136574,71,B4,50,1
114240,273.109762,1199,2.775462,83,B5,50,1
114240,273.109762,59,0.136574,71,B4,50,1
114240,273.109762,479,1.108796,48,C3,60,2
114303,273.255595,415,0.960648,55,G3,60,2
114360,273.387539,59,0.136574,72,C5,50,1
114367,273.403743,351,0.8125,64,E4,60,2
114480,273.665317,59,0.136574,76,E5,50,1
114600,273.943095,59,0.136574,72,C5,50,1
114720,274.220873,59,0.136574,71,B4,50,1
114720,274.220873,455,1.05324,64,E4,50,2
114720,274.220873,455,1.05324,72,C5,50,2
114840,274.49865,59,0.136574,72,C5,50,1
114960,274.776428,59,0.136574,76,E5,50,1
115080,275.054206,59,0.136574,72,C5,50,1
115200,275.331984,59,0.136574,71,B4,50,1
115200,275.331984,479,1.108796,45,A2,60,2
115263,275.477817,415,0.960648,52,E3,60,2
115320,275.609761,59,0.136574,72,C5,50,1
115327,275.625965,351,0.8125,60,C4,60,2
115440,275.887539,239,0.553241,84,C6,50,1
115440,275.887539,59,0.136574,76,E5,50,1
115560,276.165317,59,0.136574,72,C5,50,1
115680,276.443095,239,0.55324,81,A5,50,1
115680,276.443095,59,0.136574,67,G4,50,1
115680,276.443095,59,0.136574,69,A4,50,1
115680,276.443095,455,1.05324,64,E4,50,2
115680,276.443095,455,1.05324,72,C5,50,2
115800,276.720872,59,0.136574,72,C5,50,1
115920,276.99865,239,0.553241,79,G5,50,1
115920,276.99865,59,0.136574,76,E5,50,1
116040,277.276428,59,0.136574,72,C5,50,1
116160,277.554206,59,0.136574,66,F4#,50,1
116160,277.554206,479,1.108796,78,F5#,50,1
116160,277.554206,59,0.136574,66,F4#,50,1
116160,277.554206,479,1.108796,47,B2,50,2
116223,277.700039,415,0.960648,54,F3#,50,2
116280,277.831983,59,0.136574,71,B4,50,1
116287,277.848187,351,0.8125,62,D4,50,2
116400,278.109761,59,0.136574,74,D5,50,1
116520,278.387539,59,0.136574,71,B4,50,1
116640,278.665317,119,0.275462,67,G4,50,1
116640,278.665317,239,0.55324,79,G5,50,1
116640,278.665317,119,0.275462,67,G4,50,1
116640,278.665317,455,1.05324,62,D4,50,2
116640,278.665317,455,1.05324,66,F4#,50,2
116640,278.665317,455,1.05324,71,B4,50,2
116760,278.943094,59,0.136574,71,B4,50,1
116880,279.220872,239,0.553241,69,A4,50,1
116880,279.220872,479,1.108796,81,A5,50,1
116880,279.220872,59,0.136574,74,D5,50,1
117000,279.49865,59,0.136574,71,B4,50,1
117120,279.776428,59,0.136574,66,F4#,50,1
117120,279.776428,479,1.108796,43,G2,50,2
117183,279.922261,415,0.960648,50,D3,50,2
117240,280.054205,59,0.136574,71,B4,50,1
117247,280.070409,351,0.8125,59,B3,50,2
117360,280.331983,239,0.553241,83,B5,50,1
117360,280.331983,59,0.136574,74,D5,50,1
117480,280.609761,59,0.136574,71,B4,50,1
117600,280.887539,239,0.55324,79,G5,50,1
117600,280.887539,59,0.136574,67,G4,50,1
117600,280.887539,455,1.05324,62,D4,50,2
117600,280.887539,455,1.05324,66,F4#,50,2
117600,280.887539,455,1.05324,71,B4,50,2
117720,281.165316,59,0.136574,71,B4,50,1
117840,281.443094,239,0.553241,78,F5#,50,1
117840,281.443094,59,0.136574,74,D5,50,1
117960,281.720872,59,0.136574,71,B4,50,1
118080,281.99865,59,0.136574,64,E4,50,1
118080,281.99865,479,1.108796,76,E5,50,1
118080,281.99865,59,0.136574,64,E4,50,1
118080,281.99865,479,1.108796,45,A2,50,2
118143,282.144483,415,0.960648,52,E3,50,2
118200,282.276427,59,0.136574,71,B4,50,1
118207,282.292631,351,0.8125,60,C4,50,2
118320,282.554205,59,0.136574,72,C5,50,1
118440,282.831983,59,0.136574,71,B4,50,1
118560,283.109761,59,0.136574,66,F4#,50,1
118560,283.109761,239,0.55324,78,F5#,50,1
118560,283.109761,59,0.136574,66,F4#,50,1
118560,283.109761,479,1.108796,60,C4,50,2
118623,283.255594,415,0.960648,64,E4,50,2
118680,283.387538,59,0.136574,71,B4,50,1
118687,283.403742,351,0.8125,69,A4,50,2
118800,283.665316,239,0.553241,67,G4,50,1
118800,283.665316,479,1.108796,79,G5,50,1
118800,283.665316,59,0.136574,72,C5,50,1
118920,283.943094,59,0.136574,71,B4,50,1
119040,284.220872,59,0.136574,64,E4,50,1
119040,284.220872,479,1.108796,42,F2#,50,2
119103,284.366705,415,0.960648,48,C3,50,2
119160,284.498649,59,0.136574,69,A4,50,1
119167,284.514853,351,0.8125,57,A3,50,2
119280,284.776427,239,0.553241,81,A5,50,1
119280,284.776427,59,0.136574,72,C5,50,1
119400,285.054205,59,0.136574,69,A4,50,1
119520,285.331983,239,0.55324,78,F5#,50,1
119520,285.331983,59,0.136574,66,F4#,50,1
119520,285.331983,479,1.108796,60,C4,50,2
119583,285.477816,415,0.960648,64,E4,50,2
119640,285.60976,59,0.136574,69,A4,50,1
119647,285.625964,351,0.8125,69,A4,50,2
119760,285.887538,239,0.553241,76,E5,50,1
119760,285.887538,59,0.136574,72,C5,50,1
119880,286.165316,59,0.136574,69,A4,50,1
120000,286.443094,911,2.108796,78,F5#,50,1
120000,286.443094,59,0.136574,66,F4#,50,1
120000,286.443094,479,1.108796,47,B2,50,2
120063,286.588927,415,0.960648,54,F3#,50,2
120120,286.720871,59,0.136574,71,B4,50,1
120127,286.737075,351,0.8125,62,D4,50,2
120240,286.998649,59,0.136574,74,D5,50,1
120360,287.276427,59,0.136574,71,B4,50,1
120480,287.554205,59,0.136574,62,D4,50,1
120480,287.554205,455,1.05324,59,B3,50,2
120480,287.554205,455,1.05324,66,F4#,50,2
120600,287.831982,59,0.136574,71,B4,50,1
120720,288.10976,59,0.136574,74,D5,50,1
120840,288.387538,59,0.136574,71,B4,50,1
120960,288.665316,59,0.136574,69,A4,50,1
120960,288.665316,59,0.136574,72,C5,50,1
120960,288.665316,455,1.093055,42,F2#,50,2
121080,288.943093,59,0.136574,64,E4,50,1
121200,289.220871,239,0.5975,69,A4,50,1
121200,289.220871,59,0.1475,64,E4,50,1
121320,289.520871,59,0.1475,60,C4,50,1
121440,289.820871,239,0.5975,66,F4#,50,1
121440,289.820871,59,0.1475,62,D4,50,1
121440,289.820871,227,0.5675,47,B2,50,2
121560,290.120871,59,0.1475,59,B3,50,1
121680,290.420871,239,0.5975,64,E4,50,1
121680,290.420871,59,0.1475,60,C4,50,1
121680,290.420871,227,0.5675,50,D3,50,2
121800,290.720871,59,0.1475,57,A3,50,1
121920,291.020871,239,0.5975,59,B3,50,1
121920,291.020871,239,0.5975,62,D4,50,1
121920,291.020871,239,0.5975,66,F4#,50,1
121920,291.020871,1367,3.4175,47,B2,50,2
122400,292.220871,959,2.3975,71,B4,50,1
122400,292.220871,959,2.3975,83,B5,50,1
122880,293.420871,455,1.1375,35,B1,50,2
123360,294.620871,375,1.224999,71,B4,50,1
123360,294.620871,479,1.706481,83,B5,50,1
123600,295.220871,33,0.152777,59,B3,45,1
123634,295.378278,33,0.152778,60,C4,45,1
123668,295.535685,33,0.152778,64,E4,44,1
123702,295.693093,33,0.152777,71,B4,43,1
123736,295.8505,33,0.152778,72,C5,43,1
123770,296.007907,33,0.152778,76,E5,42,1
123804,296.165315,35,0.162037,83,B5,41,1
123840,296.331982,1199,2.775462,71,B4,40,1
123840,296.331982,959,2.219907,45,A2,40,2
123840,296.331982,959,2.219907,52,E3,40,2
124080,296.887537,239,0.553241,72,C5,40,1
124080,296.887537,239,0.553241,76,E5,40,1
124320,297.443093,239,0.55324,60,C4,40,1
124320,297.443093,239,0.55324,64,E4,40,1
124560,297.998648,239,0.553241,72,C5,40,1
124560,297.998648,239,0.553241,76,E5,40,1
124800,298.554204,227,0.525462,59,B3,40,2
125040,299.109759,239,0.553241,69,A4,40,1
125040,299.109759,239,0.553241,81,A5,40,1
125040,299.109759,239,0.553241,76,E5,40,1
125040,299.109759,239,0.553241,79,G5,40,1
125040,299.109759,227,0.525463,57,A3,40,2
125040,299.109759,227,0.525463,64,E4,40,2
125040,299.109759,227,0.525463,67,G4,40,2
125280,299.665315,239,0.55324,74,D5,40,1
125280,299.665315,239,0.55324,86,D6,40,1
125280,299.665315,227,0.525462,62,D4,40,2
125520,300.22087,239,0.553241,71,B4,40,1
125520,300.22087,239,0.553241,83,B5,40,1
125520,300.22087,239,0.553241,72,C5,40,1
125520,300.22087,239,0.553241,76,E5,40,1
125520,300.22087,227,0.525463,59,B3,40,2
125520,300.22087,227,0.525463,60,C4,40,2
125520,300.22087,227,0.525463,64,E4,40,2
125760,300.776426,479,1.108796,71,B4,40,1
125760,300.776426,479,1.108796,83,B5,40,1
125760,300.776426,455,1.05324,59,B3,40,2
126000,301.331981,719,1.664352,54,F3#,40,1
126000,301.331981,719,1.664352,60,C4,40,1
126000,301.331981,719,1.664352,64,E4,40,1
126000,301.331981,695,1.608796,38,D2,40,2
126000,301.331981,695,1.608796,45,A2,40,2
126240,301.887537,479,1.108796,69,A4,40,1
126240,301.887537,479,1.108796,81,A5,40,1
126240,301.887537,455,1.05324,54,F3#,40,2
126480,302.443092,479,1.108796,72,C5,40,1
126480,302.443092,479,1.108796,76,E5,40,1
126480,302.443092,455,1.053241,60,C4,40,2
126480,302.443092,455,1.053241,64,E4,40,2
126720,302.998648,479,1.108796,67,G4,40,1
126720,302.998648,479,1.108796,79,G5,40,1
126720,302.998648,455,1.05324,59,B3,40,2
126960,303.554203,479,1.108796,72,C5,40,1
126960,303.554203,479,1.108796,76,E5,40,1
126960,303.554203,455,1.053241,60,C4,40,2
126960,303.554203,455,1.053241,64,E4,40,2
127200,304.109759,479,1.108796,69,A4,40,1
127200,304.109759,479,1.108796,81,A5,40,1
127200,304.109759,455,1.05324,57,A3,40,2
127440,304.665314,479,1.108796,72,C5,40,1
127440,304.665314,479,1.108796,76,E5,40,1
127440,304.665314,455,1.053241,60,C4,40,2
127440,304.665314,455,1.053241,64,E4,40,2
127680,305.22087,1199,2.775462,64,E4,40,1
127680,305.22087,239,0.55324,76,E5,40,1
127680,305.22087,911,2.108796,55,G3,40,2
127920,305.776425,479,1.108796,71,B4,40,1
127920,305.776425,479,1.108796,76,E5,40,1
127920,305.776425,455,1.053241,59,B3,40,2
127920,305.776425,455,1.053241,64,E4,40,2
128400,306.887536,479,1.108796,71,B4,40,1
128400,306.887536,479,1.108796,76,E5,40,1
128400,306.887536,455,1.053241,59,B3,40,2
128400,306.887536,455,1.053241,64,E4,40,2
128640,307.443092,239,0.55324,40,E2,45,2
128640,307.443092,239,0.55324,52,E3,45,2
128880,307.998647,239,0.553241,62,D4,45,1
128880,307.998647,239,0.553241,74,D5,45,1
128880,307.998647,479,1.108796,72,C5,45,1
128880,307.998647,239,0.553241,38,D2,45,2
128880,307.998647,239,0.553241,50,D3,45,2
128880,307.998647,455,1.053241,48,C3,45,2
129120,308.554203,239,0.55324,67,G4,45,1
129120,308.554203,239,0.55324,79,G5,45,1
129120,308.554203,239,0.55324,43,G2,45,2
129120,308.554203,239,0.55324,55,G3,45,2
129360,309.109758,239,0.553241,66,F4#,45,1
129360,309.109758,239,0.553241,78,F5#,45,1
129360,309.109758,239,0.553241,72,C5,45,1
129360,309.109758,239,0.553241,74,D5,45,1
129360,309.109758,227,0.525463,42,F2#,45,2
129360,309.109758,227,0.525463,54,F3#,45,2
129360,309.109758,227,0.525463,48,C3,45,2
129360,309.109758,227,0.525463,50,D3,45,2
129600,309.665314,479,1.153055,64,E4,45,1
129600,309.665314,227,0.525462,76,E5,45,1
129600,309.665314,227,0.525462,71,B4,45,1
129600,309.665314,227,0.525462,76,E5,45,1
129600,309.665314,479,1.153055,40,E2,45,2
129600,309.665314,227,0.525462,52,E3,45,2
129600,309.665314,227,0.525462,47,B2,45,2
129600,309.665314,227,0.525462,52,E3,45,2
129840,310.220869,239,0.5975,59,B3,84,1
129840,310.220869,239,0.5975,47,B2,84,2
130080,310.820869,479,1.1975,71,B4,88,1
130080,310.820869,239,0.5975,62,D4,88,1
130080,310.820869,239,0.5975,50,D3,88,2
130320,311.420869,239,0.5975,64,E4,93,1
130320,311.420869,239,0.5975,52,E3,93,2
130560,312.020869,479,1.330555,56,G3#,83,1
130560,312.020869,239,0.663888,66,F4#,99,1
130560,312.020869,479,1.330555,40,E2,83,2
130560,312.020869,239,0.663888,54,F3#,99,2
130623,312.195868,415,1.152778,62,D4,83,1
130623,312.195868,415,1.152778,47,B2,83,2
130687,312.373646,351,0.975,74,D5,83,1
130687,312.373646,112,0.311111,54,F3#,83,2
130752,312.554202,287,0.797222,83,B5,83,1
131040,313.354202,455,1.263888,76,E5,92,1
131040,313.354202,455,1.263888,81,A5,92,1
131040,313.354202,455,1.263888,86,D6,92,1
131040,313.354202,159,0.441666,72,C5,110,1
131040,313.354202,22,0.061111,38,D2,92,2
131040,313.354202,22,0.061111,45,A2,92,2
131040,313.354202,159,0.441666,60,C4,110,2
131063,313.41809,432,1.2,54,F3#,92,2
131063,313.41809,432,1.2,64,E4,92,2
131200,313.798646,159,0.441666,71,B4,114,1
131200,313.798646,159,0.441666,59,B3,114,2
131360,314.24309,159,0.441667,69,A4,117,1
131360,314.24309,159,0.441667,57,A3,117,2
131520,314.687535,2051,5.69722,31,G1,101,1
131520,314.687535,2051,5.69722,43,G2,101,1
131760,315.354201,949,2.63611,54,F3#,105,1
131800,315.465312,1861,5.169443,59,B3,106,1
131840,315.576423,949,2.636111,66,F4#,107,1
131880,315.687534,1861,5.169443,71,B4,107,1
131920,315.798645,1861,5.169443,78,F5#,108,1
131960,315.909756,1861,5.169444,83,B5,109,1
132000,316.020868,1823,5.063887,86,D6,110,1
132960,318.687534,479,1.330555,64,E4,96,1
132960,318.687534,479,1.330555,40,E2,96,2
132960,318.687534,479,1.330555,52,E3,96,2
133440,320.020867,479,1.330555,62,D4,96,1
133440,320.020867,479,1.330555,38,D2,96,2
133440,320.020867,479,1.330555,50,D3,96,2
133920,321.3542,911,2.530554,74,D5,120,1
133920,321.3542,911,2.530554,79,G5,120,1
133920,321.3542,911,2.530554,86,D6,120,1
133920,321.3542,22,0.061111,31,G1,120,2
133920,321.3542,22,0.061111,43,G2,120,2
133920,321.3542,911,2.530554,50,D3,120,2
133920,321.3542,911,2.530554,55,G3,120,2
133920,321.3542,911,2.530554,62,D4,120,2
