start_ticks,start_secs,dur_ticks,dur_secs,pitch,fullNoteOctave,velocity,part
0,0.0,959,1.362213,60,C4,80,2
120,0.170454,839,1.191759,64,E4,80,2
240,0.340908,119,0.169034,67,G4,80,1
360,0.511362,119,0.169034,72,C5,80,1
480,0.681817,119,0.169033,76,E5,80,1
600,0.852271,119,0.169034,67,G4,80,1
720,1.022725,119,0.169034,72,C5,80,1
840,1.193179,119,0.169034,76,E5,80,1
960,1.363634,959,1.362213,60,C4,80,2
1080,1.534088,839,1.191759,64,E4,80,2
1200,1.704542,119,0.169034,67,G4,80,1
1320,1.874996,119,0.169034,72,C5,80,1
1440,2.045451,119,0.169033,76,E5,80,1
1560,2.215905,119,0.169034,67,G4,80,1
1680,2.386359,119,0.169034,72,C5,80,1
1800,2.556813,119,0.169034,76,E5,80,1
1920,2.727268,959,1.362213,60,C4,80,2
2040,2.897722,839,1.191759,62,D4,80,2
2160,3.068176,119,0.169034,69,A4,80,1
2280,3.23863,119,0.169034,74,D5,80,1
2400,3.409085,119,0.169033,77,F5,80,1
2520,3.579539,119,0.169034,69,A4,80,1
2640,3.749993,119,0.169034,74,D5,80,1
2760,3.920447,119,0.169034,77,F5,80,1
2880,4.090902,959,1.362213,60,C4,80,2
3000,4.261356,839,1.191759,62,D4,80,2
3120,4.43181,119,0.169034,69,A4,80,1
3240,4.602264,119,0.169034,74,D5,80,1
3360,4.772719,119,0.169033,77,F5,80,1
3480,4.943173,119,0.169034,69,A4,80,1
3600,5.113627,119,0.169034,74,D5,80,1
3720,5.284081,119,0.169034,77,F5,80,1
3840,5.454536,959,1.362213,59,B3,80,2
3960,5.62499,839,1.191759,62,D4,80,2
4080,5.795444,119,0.169034,67,G4,80,1
4200,5.965898,119,0.169034,74,D5,80,1
4320,6.136353,119,0.169033,77,F5,80,1
4440,6.306807,119,0.169034,67,G4,80,1
4560,6.477261,119,0.169034,74,D5,80,1
4680,6.647715,119,0.169034,77,F5,80,1
4800,6.81817,959,1.362213,59,B3,80,2
4920,6.988624,839,1.191759,62,D4,80,2
5040,7.159078,119,0.169034,67,G4,80,1
5160,7.329532,119,0.169034,74,D5,80,1
5280,7.499987,119,0.169033,77,F5,80,1
5400,7.670441,119,0.169034,67,G4,80,1
5520,7.840895,119,0.169034,74,D5,80,1
5640,8.011349,119,0.169034,77,F5,80,1
5760,8.181804,959,1.362213,60,C4,80,2
5880,8.352258,839,1.191759,64,E4,80,2
6000,8.522712,119,0.169034,67,G4,80,1
6120,8.693166,119,0.169034,72,C5,80,1
6240,8.863621,119,0.169033,76,E5,80,1
6360,9.034075,119,0.169034,67,G4,80,1
6480,9.204529,119,0.169034,72,C5,80,1
6600,9.374983,119,0.169034,76,E5,80,1
6720,9.545438,959,1.362213,60,C4,80,2
6840,9.715892,839,1.191759,64,E4,80,2
6960,9.886346,119,0.169034,67,G4,80,1
7080,10.0568,119,0.169034,72,C5,80,1
7200,10.227255,119,0.169033,76,E5,80,1
7320,10.397709,119,0.169034,67,G4,80,1
7440,10.568163,119,0.169034,72,C5,80,1
7560,10.738617,119,0.169034,76,E5,80,1
7680,10.909072,959,1.362213,60,C4,80,2
7800,11.079526,839,1.191759,64,E4,80,2
7920,11.24998,119,0.169034,69,A4,80,1
8040,11.420434,119,0.169034,76,E5,80,1
8160,11.590889,119,0.169033,81,A5,80,1
8280,11.761343,119,0.169034,69,A4,80,1
8400,11.931797,119,0.169034,76,E5,80,1
8520,12.102251,119,0.169034,81,A5,80,1
8640,12.272706,959,1.362213,60,C4,80,2
8760,12.44316,839,1.191759,64,E4,80,2
8880,12.613614,119,0.169034,69,A4,80,1
9000,12.784068,119,0.169034,76,E5,80,1
9120,12.954523,119,0.169033,81,A5,80,1
9240,13.124977,119,0.169034,69,A4,80,1
9360,13.295431,119,0.169034,76,E5,80,1
9480,13.465885,119,0.169034,81,A5,80,1
9600,13.63634,959,1.362213,60,C4,80,2
9720,13.806794,839,1.191759,62,D4,80,2
9840,13.977248,119,0.169034,66,F4#,80,1
9960,14.147702,119,0.169034,69,A4,80,1
10080,14.318157,119,0.169033,74,D5,80,1
10200,14.488611,119,0.169034,66,F4#,80,1
10320,14.659065,119,0.169034,69,A4,80,1
10440,14.829519,119,0.169034,74,D5,80,1
10560,14.999974,959,1.362213,60,C4,80,2
10680,15.170428,839,1.191759,62,D4,80,2
10800,15.340882,119,0.169034,66,F4#,80,1
10920,15.511336,119,0.169034,69,A4,80,1
11040,15.681791,119,0.169033,74,D5,80,1
11160,15.852245,119,0.169034,66,F4#,80,1
11280,16.022699,119,0.169034,69,A4,80,1
11400,16.193153,119,0.169034,74,D5,80,1
11520,16.363608,959,1.362213,59,B3,80,2
11640,16.534062,839,1.191759,62,D4,80,2
11760,16.704516,119,0.169034,67,G4,80,1
11880,16.87497,119,0.169034,74,D5,80,1
12000,17.045425,119,0.169033,79,G5,80,1
12120,17.215879,119,0.169034,67,G4,80,1
12240,17.386333,119,0.169034,74,D5,80,1
12360,17.556787,119,0.169034,79,G5,80,1
12480,17.727242,959,1.362213,59,B3,80,2
12600,17.897696,839,1.191759,62,D4,80,2
12720,18.06815,119,0.169034,67,G4,80,1
12840,18.238604,119,0.169034,74,D5,80,1
12960,18.409059,119,0.169033,79,G5,80,1
13080,18.579513,119,0.169034,67,G4,80,1
13200,18.749967,119,0.169034,74,D5,80,1
13320,18.920421,119,0.169034,79,G5,80,1
13440,19.090876,959,1.362213,59,B3,80,2
13560,19.26133,839,1.191759,60,C4,80,2
13680,19.431784,119,0.169034,64,E4,80,1
13800,19.602238,119,0.169034,67,G4,80,1
13920,19.772693,119,0.169033,72,C5,80,1
14040,19.943147,119,0.169034,64,E4,80,1
14160,20.113601,119,0.169034,67,G4,80,1
14280,20.284055,119,0.169034,72,C5,80,1
14400,20.45451,959,1.362213,59,B3,80,2
14520,20.624964,839,1.191759,60,C4,80,2
14640,20.795418,119,0.169034,64,E4,80,1
14760,20.965872,119,0.169034,67,G4,80,1
14880,21.136327,119,0.169033,72,C5,80,1
15000,21.306781,119,0.169034,64,E4,80,1
15120,21.477235,119,0.169034,67,G4,80,1
15240,21.647689,119,0.169034,72,C5,80,1
15360,21.818144,959,1.362213,57,A3,80,2
15480,21.988598,839,1.191759,60,C4,80,2
15600,22.159052,119,0.169034,64,E4,80,1
15720,22.329506,119,0.169034,67,G4,80,1
15840,22.499961,119,0.169033,72,C5,80,1
15960,22.670415,119,0.169034,64,E4,80,1
16080,22.840869,119,0.169034,67,G4,80,1
16200,23.011323,119,0.169034,72,C5,80,1
16320,23.181778,959,1.362213,57,A3,80,2
16440,23.352232,839,1.191759,60,C4,80,2
16560,23.522686,119,0.169034,64,E4,80,1
16680,23.69314,119,0.169034,67,G4,80,1
16800,23.863595,119,0.169033,72,C5,80,1
16920,24.034049,119,0.169034,64,E4,80,1
17040,24.204503,119,0.169034,67,G4,80,1
17160,24.374957,119,0.169034,72,C5,80,1
17280,24.545412,959,1.362213,50,D3,80,2
17400,24.715866,839,1.191759,57,A3,80,2
17520,24.88632,119,0.169034,62,D4,80,1
17640,25.056774,119,0.169034,66,F4#,80,1
17760,25.227229,119,0.169033,72,C5,80,1
17880,25.397683,119,0.169034,62,D4,80,1
18000,25.568137,119,0.169034,66,F4#,80,1
18120,25.738591,119,0.169034,72,C5,80,1
18240,25.909046,959,1.362213,50,D3,80,2
18360,26.0795,839,1.191759,57,A3,80,2
18480,26.249954,119,0.169034,62,D4,80,1
18600,26.420408,119,0.169034,66,F4#,80,1
18720,26.590863,119,0.169033,72,C5,80,1
18840,26.761317,119,0.169034,62,D4,80,1
18960,26.931771,119,0.169034,66,F4#,80,1
19080,27.102225,119,0.169034,72,C5,80,1
19200,27.27268,959,1.362213,55,G3,80,2
19320,27.443134,839,1.191759,59,B3,80,2
19440,27.613588,119,0.169034,62,D4,80,1
19560,27.784042,119,0.169034,67,G4,80,1
19680,27.954497,119,0.169033,71,B4,80,1
19800,28.124951,119,0.169034,62,D4,80,1
19920,28.295405,119,0.169034,67,G4,80,1
20040,28.465859,119,0.169034,71,B4,80,1
20160,28.636314,959,1.362213,55,G3,80,2
20280,28.806768,839,1.191759,59,B3,80,2
20400,28.977222,119,0.169034,62,D4,80,1
20520,29.147676,119,0.169034,67,G4,80,1
20640,29.318131,119,0.169033,71,B4,80,1
20760,29.488585,119,0.169034,62,D4,80,1
20880,29.659039,119,0.169034,67,G4,80,1
21000,29.829493,119,0.169034,71,B4,80,1
21120,29.999948,959,1.362213,55,G3,80,2
21240,30.170402,839,1.191759,58,A3#,80,2
21360,30.340856,119,0.169034,64,E4,80,1
21480,30.51131,119,0.169034,67,G4,80,1
21600,30.681765,119,0.169033,73,C5#,80,1
21720,30.852219,119,0.169034,64,E4,80,1
21840,31.022673,119,0.169034,67,G4,80,1
21960,31.193127,119,0.169034,73,C5#,80,1
22080,31.363582,959,1.362213,55,G3,80,2
22200,31.534036,839,1.191759,58,A3#,80,2
22320,31.70449,119,0.169034,64,E4,80,1
22440,31.874944,119,0.169034,67,G4,80,1
22560,32.045399,119,0.169033,73,C5#,80,1
22680,32.215853,119,0.169034,64,E4,80,1
22800,32.386307,119,0.169034,67,G4,80,1
22920,32.556761,119,0.169034,73,C5#,80,1
23040,32.727216,959,1.362213,53,F3,80,2
23160,32.89767,839,1.191759,57,A3,80,2
23280,33.068124,119,0.169034,62,D4,80,1
23400,33.238578,119,0.169034,69,A4,80,1
23520,33.409033,119,0.169033,74,D5,80,1
23640,33.579487,119,0.169034,62,D4,80,1
23760,33.749941,119,0.169034,69,A4,80,1
23880,33.920395,119,0.169034,74,D5,80,1
24000,34.09085,959,1.362213,53,F3,80,2
24120,34.261304,839,1.191759,57,A3,80,2
24240,34.431758,119,0.169034,62,D4,80,1
24360,34.602212,119,0.169034,69,A4,80,1
24480,34.772667,119,0.169033,74,D5,80,1
24600,34.943121,119,0.169034,62,D4,80,1
24720,35.113575,119,0.169034,69,A4,80,1
24840,35.284029,119,0.169034,74,D5,80,1
24960,35.454484,959,1.362213,53,F3,80,2
25080,35.624938,839,1.191759,56,G3#,80,2
25200,35.795392,119,0.169034,62,D4,80,1
25320,35.965846,119,0.169034,65,F4,80,1
25440,36.136301,119,0.169033,71,B4,80,1
25560,36.306755,119,0.169034,62,D4,80,1
25680,36.477209,119,0.169034,65,F4,80,1
25800,36.647663,119,0.169034,71,B4,80,1
25920,36.818118,959,1.362213,53,F3,80,2
26040,36.988572,839,1.191759,56,G3#,80,2
26160,37.159026,119,0.169034,62,D4,80,1
26280,37.32948,119,0.169034,65,F4,80,1
26400,37.499935,119,0.169033,71,B4,80,1
26520,37.670389,119,0.169034,62,D4,80,1
26640,37.840843,119,0.169034,65,F4,80,1
26760,38.011297,119,0.169034,71,B4,80,1
26880,38.181752,959,1.362213,52,E3,80,2
27000,38.352206,839,1.191759,55,G3,80,2
27120,38.52266,119,0.169034,60,C4,80,1
27240,38.693114,119,0.169034,67,G4,80,1
27360,38.863569,119,0.169033,72,C5,80,1
27480,39.034023,119,0.169034,60,C4,80,1
27600,39.204477,119,0.169034,67,G4,80,1
27720,39.374931,119,0.169034,72,C5,80,1
27840,39.545386,959,1.362213,52,E3,80,2
27960,39.71584,839,1.191759,55,G3,80,2
28080,39.886294,119,0.169034,60,C4,80,1
28200,40.056748,119,0.169034,67,G4,80,1
28320,40.227203,119,0.169033,72,C5,80,1
28440,40.397657,119,0.169034,60,C4,80,1
28560,40.568111,119,0.169034,67,G4,80,1
28680,40.738565,119,0.169034,72,C5,80,1
28800,40.90902,959,1.362213,52,E3,80,2
28920,41.079474,839,1.191759,53,F3,80,2
29040,41.249928,119,0.169034,57,A3,80,1
29160,41.420382,119,0.169034,60,C4,80,1
29280,41.590837,119,0.169033,65,F4,80,1
29400,41.761291,119,0.169034,57,A3,80,1
29520,41.931745,119,0.169034,60,C4,80,1
29640,42.102199,119,0.169034,65,F4,80,1
29760,42.272654,959,1.362213,52,E3,80,2
29880,42.443108,839,1.191759,53,F3,80,2
30000,42.613562,119,0.169034,57,A3,80,1
30120,42.784016,119,0.169034,60,C4,80,1
30240,42.954471,119,0.169033,65,F4,80,1
30360,43.124925,119,0.169034,57,A3,80,1
30480,43.295379,119,0.169034,60,C4,80,1
30600,43.465833,119,0.169034,65,F4,80,1
30720,43.636288,959,1.362213,50,D3,80,2
30840,43.806742,839,1.191759,53,F3,80,2
30960,43.977196,119,0.169034,57,A3,80,1
31080,44.14765,119,0.169034,60,C4,80,1
31200,44.318105,119,0.169033,65,F4,80,1
31320,44.488559,119,0.169034,57,A3,80,1
31440,44.659013,119,0.169034,60,C4,80,1
31560,44.829467,119,0.169034,65,F4,80,1
31680,44.999922,959,1.362213,50,D3,80,2
31800,45.170376,839,1.191759,53,F3,80,2
31920,45.34083,119,0.169034,57,A3,80,1
32040,45.511284,119,0.169034,60,C4,80,1
32160,45.681739,119,0.169033,65,F4,80,1
32280,45.852193,119,0.169034,57,A3,80,1
32400,46.022647,119,0.169034,60,C4,80,1
32520,46.193101,119,0.169034,65,F4,80,1
32640,46.363556,959,1.362213,43,G2,80,2
32760,46.53401,839,1.191759,50,D3,80,2
32880,46.704464,119,0.169034,55,G3,80,1
33000,46.874918,119,0.169034,59,B3,80,1
33120,47.045373,119,0.169033,65,F4,80,1
33240,47.215827,119,0.169034,55,G3,80,1
33360,47.386281,119,0.169034,59,B3,80,1
33480,47.556735,119,0.169034,65,F4,80,1
33600,47.72719,959,1.362213,43,G2,80,2
33720,47.897644,839,1.191759,50,D3,80,2
33840,48.068098,119,0.169034,55,G3,80,1
33960,48.238552,119,0.169034,59,B3,80,1
34080,48.409007,119,0.169033,65,F4,80,1
34200,48.579461,119,0.169034,55,G3,80,1
34320,48.749915,119,0.169034,59,B3,80,1
34440,48.920369,119,0.169034,65,F4,80,1
34560,49.090824,959,1.362213,48,C3,80,2
34680,49.261278,839,1.191759,52,E3,80,2
34800,49.431732,119,0.169034,55,G3,80,1
34920,49.602186,119,0.169034,60,C4,80,1
35040,49.772641,119,0.169033,64,E4,80,1
35160,49.943095,119,0.169034,55,G3,80,1
35280,50.113549,119,0.169034,60,C4,80,1
35400,50.284003,119,0.169034,64,E4,80,1
35520,50.454458,959,1.362213,48,C3,80,2
35640,50.624912,839,1.191759,52,E3,80,2
35760,50.795366,119,0.169034,55,G3,80,1
35880,50.96582,119,0.169034,60,C4,80,1
36000,51.136275,119,0.169033,64,E4,80,1
36120,51.306729,119,0.169034,55,G3,80,1
36240,51.477183,119,0.169034,60,C4,80,1
36360,51.647637,119,0.169034,64,E4,80,1
36480,51.818092,959,1.362213,48,C3,80,2
36600,51.988546,839,1.191759,55,G3,80,2
36720,52.159,119,0.169034,58,A3#,80,1
36840,52.329454,119,0.169034,60,C4,80,1
36960,52.499909,119,0.169033,64,E4,80,1
37080,52.670363,119,0.169034,58,A3#,80,1
37200,52.840817,119,0.169034,60,C4,80,1
37320,53.011271,119,0.169034,64,E4,80,1
37440,53.181726,959,1.362213,48,C3,80,2
37560,53.35218,839,1.191759,55,G3,80,2
37680,53.522634,119,0.169034,58,A3#,80,1
37800,53.693088,119,0.169034,60,C4,80,1
37920,53.863543,119,0.169033,64,E4,80,1
38040,54.033997,119,0.169034,58,A3#,80,1
38160,54.204451,119,0.169034,60,C4,80,1
38280,54.374905,119,0.169034,64,E4,80,1
38400,54.54536,959,1.362213,41,F2,80,2
38520,54.715814,839,1.191759,53,F3,80,2
38640,54.886268,119,0.169034,57,A3,80,1
38760,55.056722,119,0.169034,60,C4,80,1
38880,55.227177,119,0.169033,64,E4,80,1
39000,55.397631,119,0.169034,57,A3,80,1
39120,55.568085,119,0.169034,60,C4,80,1
39240,55.738539,119,0.169034,64,E4,80,1
39360,55.908994,959,1.362213,41,F2,80,2
39480,56.079448,839,1.191759,53,F3,80,2
39600,56.249902,119,0.169034,57,A3,80,1
39720,56.420356,119,0.169034,60,C4,80,1
39840,56.590811,119,0.169033,64,E4,80,1
39960,56.761265,119,0.169034,57,A3,80,1
40080,56.931719,119,0.169034,60,C4,80,1
40200,57.102173,119,0.169034,64,E4,80,1
40320,57.272628,959,1.362213,42,F2#,80,2
40440,57.443082,839,1.191759,48,C3,80,2
40560,57.613536,119,0.169034,57,A3,80,1
40680,57.78399,119,0.169034,60,C4,80,1
40800,57.954445,119,0.169033,63,D4#,80,1
40920,58.124899,119,0.169034,57,A3,80,1
41040,58.295353,119,0.169034,60,C4,80,1
41160,58.465807,119,0.169034,63,D4#,80,1
41280,58.636262,959,1.362213,42,F2#,80,2
41400,58.806716,839,1.191759,48,C3,80,2
41520,58.97717,119,0.169034,57,A3,80,1
41640,59.147624,119,0.169034,60,C4,80,1
41760,59.318079,119,0.169033,63,D4#,80,1
41880,59.488533,119,0.169034,57,A3,80,1
42000,59.658987,119,0.169034,60,C4,80,1
42120,59.829441,119,0.169034,63,D4#,80,1
42240,59.999896,959,1.362213,44,G2#,80,2
42360,60.17035,839,1.191759,53,F3,80,2
42480,60.340804,119,0.169034,59,B3,80,1
42600,60.511258,119,0.169034,60,C4,80,1
42720,60.681713,119,0.169033,62,D4,80,1
42840,60.852167,119,0.169034,59,B3,80,1
42960,61.022621,119,0.169034,60,C4,80,1
43080,61.193075,119,0.169034,62,D4,80,1
43200,61.36353,959,1.362213,44,G2#,80,2
43320,61.533984,839,1.191759,53,F3,80,2
43440,61.704438,119,0.169034,59,B3,80,1
43560,61.874892,119,0.169034,60,C4,80,1
43680,62.045347,119,0.169033,62,D4,80,1
43800,62.215801,119,0.169034,59,B3,80,1
43920,62.386255,119,0.169034,60,C4,80,1
44040,62.556709,119,0.169034,62,D4,80,1
44160,62.727164,959,1.362213,43,G2,80,2
44280,62.897618,839,1.191759,53,F3,80,2
44400,63.068072,119,0.169034,55,G3,80,1
44520,63.238526,119,0.169034,59,B3,80,1
44640,63.408981,119,0.169033,62,D4,80,1
44760,63.579435,119,0.169034,55,G3,80,1
44880,63.749889,119,0.169034,59,B3,80,1
45000,63.920343,119,0.169034,62,D4,80,1
45120,64.090798,959,1.362213,43,G2,80,2
45240,64.261252,839,1.191759,53,F3,80,2
45360,64.431706,119,0.169034,55,G3,80,1
45480,64.60216,119,0.169034,59,B3,80,1
45600,64.772615,119,0.169033,62,D4,80,1
45720,64.943069,119,0.169034,55,G3,80,1
45840,65.113523,119,0.169034,59,B3,80,1
45960,65.283977,119,0.169034,62,D4,80,1
46080,65.454432,959,1.362213,43,G2,80,2
46200,65.624886,839,1.191759,52,E3,80,2
46320,65.79534,119,0.169034,55,G3,80,1
46440,65.965794,119,0.169034,60,C4,80,1
46560,66.136249,119,0.169033,64,E4,80,1
46680,66.306703,119,0.169034,55,G3,80,1
46800,66.477157,119,0.169034,60,C4,80,1
46920,66.647611,119,0.169034,64,E4,80,1
47040,66.818066,959,1.362213,43,G2,80,2
47160,66.98852,839,1.191759,52,E3,80,2
47280,67.158974,119,0.169034,55,G3,80,1
47400,67.329428,119,0.169034,60,C4,80,1
47520,67.499883,119,0.169033,64,E4,80,1
47640,67.670337,119,0.169034,55,G3,80,1
47760,67.840791,119,0.169034,60,C4,80,1
47880,68.011245,119,0.169034,64,E4,80,1
48000,68.1817,959,1.362213,43,G2,80,2
48120,68.352154,839,1.191759,50,D3,80,2
48240,68.522608,119,0.169034,55,G3,80,1
48360,68.693062,119,0.169034,60,C4,80,1
48480,68.863517,119,0.169033,65,F4,80,1
48600,69.033971,119,0.169034,55,G3,80,1
48720,69.204425,119,0.169034,60,C4,80,1
48840,69.374879,119,0.169034,65,F4,80,1
48960,69.545334,959,1.362213,43,G2,80,2
49080,69.715788,839,1.191759,50,D3,80,2
49200,69.886242,119,0.169034,55,G3,80,1
49320,70.056696,119,0.169034,60,C4,80,1
49440,70.227151,119,0.169033,65,F4,80,1
49560,70.397605,119,0.169034,55,G3,80,1
49680,70.568059,119,0.169034,60,C4,80,1
49800,70.738513,119,0.169034,65,F4,80,1
49920,70.908968,959,1.362213,43,G2,80,2
50040,71.079422,839,1.191759,50,D3,80,2
50160,71.249876,119,0.169034,55,G3,80,1
50280,71.42033,119,0.169034,59,B3,80,1
50400,71.590785,119,0.169033,65,F4,80,1
50520,71.761239,119,0.169034,55,G3,80,1
50640,71.931693,119,0.169034,59,B3,80,1
50760,72.102147,119,0.169034,65,F4,80,1
50880,72.272602,959,1.362213,43,G2,80,2
51000,72.443056,839,1.191759,50,D3,80,2
51120,72.61351,119,0.169034,55,G3,80,1
51240,72.783964,119,0.169034,59,B3,80,1
51360,72.954419,119,0.169033,65,F4,80,1
51480,73.124873,119,0.169034,55,G3,80,1
51600,73.295327,119,0.169034,59,B3,80,1
51720,73.465781,119,0.169034,65,F4,80,1
51840,73.636236,959,1.362213,43,G2,80,2
51960,73.80669,839,1.191759,51,D3#,80,2
52080,73.977144,119,0.169034,57,A3,80,1
52200,74.147598,119,0.169034,60,C4,80,1
52320,74.318053,119,0.169033,66,F4#,80,1
52440,74.488507,119,0.169034,57,A3,80,1
52560,74.658961,119,0.169034,60,C4,80,1
52680,74.829415,119,0.169034,66,F4#,80,1
52800,74.99987,959,1.362213,43,G2,80,2
52920,75.170324,839,1.191759,51,D3#,80,2
53040,75.340778,119,0.169034,57,A3,80,1
53160,75.511232,119,0.169034,60,C4,80,1
53280,75.681687,119,0.169033,66,F4#,80,1
53400,75.852141,119,0.169034,57,A3,80,1
53520,76.022595,119,0.169034,60,C4,80,1
53640,76.193049,119,0.169034,66,F4#,80,1
53760,76.363504,959,1.362213,43,G2,80,2
53880,76.533958,839,1.191759,52,E3,80,2
54000,76.704412,119,0.169034,55,G3,80,1
54120,76.874866,119,0.169034,60,C4,80,1
54240,77.045321,119,0.169033,67,G4,80,1
54360,77.215775,119,0.169034,55,G3,80,1
54480,77.386229,119,0.169034,60,C4,80,1
54600,77.556683,119,0.169034,67,G4,80,1
54720,77.727138,959,1.362213,43,G2,80,2
54840,77.897592,839,1.191759,52,E3,80,2
54960,78.068046,119,0.169034,55,G3,80,1
55080,78.2385,119,0.169034,60,C4,80,1
55200,78.408955,119,0.169033,67,G4,80,1
55320,78.579409,119,0.169034,55,G3,80,1
55440,78.749863,119,0.169034,60,C4,80,1
55560,78.920317,119,0.169034,67,G4,80,1
55680,79.090772,959,1.362213,43,G2,80,2
55800,79.261226,839,1.191759,50,D3,80,2
55920,79.43168,119,0.169034,55,G3,80,1
56040,79.602134,119,0.169034,60,C4,80,1
56160,79.772589,119,0.169033,65,F4,80,1
56280,79.943043,119,0.169034,55,G3,80,1
56400,80.113497,119,0.169034,60,C4,80,1
56520,80.283951,119,0.169034,65,F4,80,1
56640,80.454406,959,1.362213,43,G2,80,2
56760,80.62486,839,1.191759,50,D3,80,2
56880,80.795314,119,0.169034,55,G3,80,1
57000,80.965768,119,0.169034,60,C4,80,1
57120,81.136223,119,0.169033,65,F4,80,1
57240,81.306677,119,0.169034,55,G3,80,1
57360,81.477131,119,0.169034,60,C4,80,1
57480,81.647585,119,0.169034,65,F4,80,1
57600,81.81804,959,1.362213,43,G2,80,2
57720,81.988494,839,1.191759,50,D3,80,2
57840,82.158948,119,0.169034,55,G3,80,1
57960,82.329402,119,0.169034,59,B3,80,1
58080,82.499857,119,0.169033,65,F4,80,1
58200,82.670311,119,0.169034,55,G3,80,1
58320,82.840765,119,0.169034,59,B3,80,1
58440,83.011219,119,0.169034,65,F4,80,1
58560,83.181674,959,1.362213,43,G2,80,2
58680,83.352128,839,1.191759,50,D3,80,2
58800,83.522582,119,0.169034,55,G3,80,1
58920,83.693036,119,0.169034,59,B3,80,1
59040,83.863491,119,0.169033,65,F4,80,1
59160,84.033945,119,0.169034,55,G3,80,1
59280,84.204399,119,0.169034,59,B3,80,1
59400,84.374853,119,0.169034,65,F4,80,1
59520,84.545308,959,1.362213,36,C2,80,2
59640,84.715762,839,1.191759,48,C3,80,2
59760,84.886216,119,0.169034,55,G3,80,1
59880,85.05667,119,0.169034,58,A3#,80,1
60000,85.227125,119,0.169033,64,E4,80,1
60120,85.397579,119,0.169034,55,G3,80,1
60240,85.568033,119,0.169034,58,A3#,80,1
60360,85.738487,119,0.169034,64,E4,80,1
60480,85.908942,959,1.362213,36,C2,80,2
60600,86.079396,839,1.191759,48,C3,80,2
60720,86.24985,119,0.169034,55,G3,80,1
60840,86.420304,119,0.169034,58,A3#,80,1
60960,86.590759,119,0.169033,64,E4,80,1
61080,86.761213,119,0.169034,55,G3,80,1
61200,86.931667,119,0.169034,58,A3#,80,1
61320,87.102121,119,0.169034,64,E4,80,1
61440,87.272576,1919,2.725847,36,C2,80,2
61560,87.44303,1799,2.555393,48,C3,80,2
61680,87.613484,119,0.169034,53,F3,80,1
61800,87.783938,119,0.169034,57,A3,80,1
61920,87.954393,119,0.169033,60,C4,80,1
62040,88.124847,119,0.169034,65,F4,80,1
62160,88.295301,119,0.169034,60,C4,80,1
62280,88.465755,119,0.169034,57,A3,80,1
62400,88.63621,119,0.169033,60,C4,80,1
62520,88.806664,119,0.169034,57,A3,80,1
62640,88.977118,119,0.169034,53,F3,80,1
62760,89.147572,119,0.169034,57,A3,80,1
62880,89.318027,119,0.169033,53,F3,80,1
63000,89.488481,119,0.169034,50,D3,80,1
63120,89.658935,119,0.169034,53,F3,80,1
63240,89.829389,119,0.169034,50,D3,80,1
63360,89.999844,1919,2.725847,36,C2,80,2
63480,90.170298,1799,2.555393,47,B2,80,2
63600,90.340752,119,0.169034,67,G4,80,1
63720,90.511206,119,0.169034,71,B4,80,1
63840,90.681661,119,0.169033,74,D5,80,1
63960,90.852115,119,0.169034,77,F5,80,1
64080,91.022569,119,0.169034,74,D5,80,1
64200,91.193023,119,0.169034,71,B4,80,1
64320,91.363478,119,0.169033,74,D5,80,1
64440,91.533932,119,0.169034,71,B4,80,1
64560,91.704386,119,0.169034,67,G4,80,1
64680,91.87484,119,0.169034,71,B4,80,1
64800,92.045295,119,0.169033,62,D4,80,1
64920,92.215749,119,0.169034,65,F4,80,1
65040,92.386203,119,0.169034,64,E4,80,1
65160,92.556657,119,0.169034,62,D4,80,1
65280,92.727112,1919,2.725847,64,E4,80,1
65280,92.727112,1919,2.725847,67,G4,80,1
65280,92.727112,1919,2.725847,72,C5,80,1
65280,92.727112,1919,2.725847,48,C3,80,2
65280,92.727112,1919,2.725847,36,C2,80,2
67440,95.795288,239,0.339488,60,C4,80,1
67680,96.136197,239,0.339488,62,D4,80,1
67920,96.477105,239,0.339488,64,E4,80,1
68160,96.818014,359,0.509942,65,F4,80,1
68520,97.329376,59,0.083807,67,G4,80,1
68580,97.414603,59,0.083807,65,F4,80,1
68640,97.499831,239,0.339488,64,E4,80,1
68880,97.840739,239,0.339488,69,A4,80,1
69120,98.181648,239,0.339488,62,D4,80,1
69360,98.522556,359,0.509942,67,G4,80,1
69720,99.033919,119,0.169034,69,A4,80,1
69840,99.204373,119,0.169034,67,G4,80,1
69960,99.374827,119,0.169034,65,F4,80,1
70080,99.545282,119,0.169033,64,E4,80,1
70200,99.715736,119,0.169034,65,F4,80,1
70320,99.88619,239,0.339488,67,G4,80,1
70320,99.88619,119,0.169034,64,E4,80,1
70440,100.056644,119,0.169034,62,D4,80,1
70560,100.227099,239,0.339488,69,A4,80,1
70560,100.227099,119,0.169033,60,C4,80,1
70680,100.397553,119,0.169034,62,D4,80,1
70800,100.568007,239,0.339488,71,B4,80,1
70800,100.568007,119,0.169034,60,C4,80,1
70920,100.738461,119,0.169034,59,B3,80,1
71040,100.908916,359,0.509942,72,C5,80,1
71040,100.908916,239,0.339488,57,A3,80,1
71280,101.249824,239,0.339488,66,F4#,80,1
71400,101.420278,59,0.083807,74,D5,80,1
71460,101.505505,59,0.083807,72,C5,80,1
71520,101.590733,239,0.339488,71,B4,80,1
71520,101.590733,719,1.021305,67,G4,80,1
71760,101.931641,239,0.339488,76,E5,80,1
72000,102.27255,239,0.339488,69,A4,80,1
72240,102.613458,359,0.509942,74,D5,80,1
72240,102.613458,119,0.169034,66,F4#,80,1
72360,102.783912,119,0.169034,64,E4,80,1
72480,102.954367,239,0.339488,66,F4#,80,1
72600,103.124821,119,0.169034,76,E5,80,1
72720,103.295275,119,0.169034,74,D5,80,1
72720,103.295275,239,0.339488,62,D4,80,1
72840,103.465729,119,0.169034,72,C5,80,1
72960,103.636184,119,0.169033,71,B4,80,1
72960,103.636184,239,0.339488,67,G4,80,1
73080,103.806638,119,0.169034,67,G4,80,1
73200,103.977092,119,0.169034,69,A4,80,1
73200,103.977092,239,0.339488,65,F4,80,1
73200,103.977092,239,0.339488,55,G3,80,2
73320,104.147546,119,0.169034,71,B4,80,1
73440,104.318001,119,0.169033,72,C5,80,1
73440,104.318001,239,0.339488,64,E4,80,1
73440,104.318001,239,0.339488,57,A3,80,2
73560,104.488455,119,0.169034,71,B4,80,1
73680,104.658909,119,0.169034,72,C5,80,1
73680,104.658909,239,0.339488,62,D4,80,1
73680,104.658909,239,0.339488,59,B3,80,2
73800,104.829363,119,0.169034,74,D5,80,1
73920,104.999818,119,0.169033,76,E5,80,1
73920,104.999818,239,0.339488,60,C4,80,1
73920,104.999818,359,0.509942,60,C4,80,2
74040,105.170272,119,0.169034,74,D5,80,1
74160,105.340726,119,0.169034,76,E5,80,1
74160,105.340726,239,0.339488,69,A4,80,1
74280,105.51118,119,0.169034,78,F5#,80,1
74280,105.51118,59,0.083807,62,D4,80,2
74340,105.596407,59,0.083807,60,C4,80,2
74400,105.681635,239,0.339488,79,G5,80,1
74400,105.681635,239,0.339488,62,D4,80,1
74400,105.681635,239,0.339488,59,B3,80,2
74640,106.022543,239,0.339488,71,B4,80,1
74640,106.022543,479,0.680397,67,G4,80,1
74640,106.022543,239,0.339488,64,E4,80,2
74880,106.363452,239,0.339488,72,C5,80,1
74880,106.363452,239,0.339488,57,A3,80,2
75120,106.70436,239,0.339488,69,A4,80,1
75120,106.70436,119,0.169034,65,F4,80,1
75120,106.70436,359,0.509942,62,D4,80,2
75240,106.874814,119,0.169034,64,E4,80,1
75360,107.045269,119,0.169033,74,D5,80,1
75360,107.045269,599,0.85085,65,F4,80,1
75480,107.215723,119,0.169034,72,C5,80,1
75480,107.215723,119,0.169034,64,E4,80,2
75600,107.386177,119,0.169034,71,B4,80,1
75600,107.386177,119,0.169034,62,D4,80,2
75720,107.556631,119,0.169034,69,A4,80,1
75720,107.556631,119,0.169034,60,C4,80,2
75840,107.727086,359,0.509942,67,G4,80,1
75840,107.727086,239,0.339488,59,B3,80,2
75960,107.89754,119,0.169034,65,F4,80,1
76080,108.067994,239,0.339488,64,E4,80,1
76080,108.067994,479,0.680397,60,C4,80,2
76080,108.067994,239,0.339488,48,C3,80,2
76200,108.238448,119,0.169034,67,G4,80,1
76320,108.408903,119,0.169033,65,F4,80,1
76320,108.408903,479,0.680396,62,D4,80,1
76320,108.408903,239,0.339488,50,D3,80,2
76440,108.579357,119,0.169034,64,E4,80,1
76560,108.749811,119,0.169034,65,F4,80,1
76560,108.749811,239,0.339488,58,A3#,80,2
76560,108.749811,239,0.339488,52,E3,80,2
76680,108.920265,119,0.169034,67,G4,80,1
76800,109.09072,119,0.169033,69,A4,80,1
76800,109.09072,239,0.339488,60,C4,80,1
76800,109.09072,239,0.339488,57,A3,80,2
76800,109.09072,359,0.509942,53,F3,80,2
76920,109.261174,119,0.169034,67,G4,80,1
77040,109.431628,119,0.169034,69,A4,80,1
77040,109.431628,239,0.339488,65,F4,80,1
77040,109.431628,239,0.339488,62,D4,80,2
77160,109.602082,119,0.169034,71,B4,80,1
77160,109.602082,59,0.083807,55,G3,80,2
77220,109.687309,59,0.083807,53,F3,80,2
77280,109.772537,959,1.362213,72,C5,80,1
77280,109.772537,239,0.339488,55,G3,80,2
77280,109.772537,239,0.339488,52,E3,80,2
77400,109.942991,119,0.169034,67,G4,80,1
77520,110.113445,119,0.169034,65,F4,80,1
77520,110.113445,239,0.339488,60,C4,80,2
77520,110.113445,239,0.339488,57,A3,80,2
77640,110.283899,119,0.169034,64,E4,80,1
77760,110.454354,239,0.339488,65,F4,80,1
77760,110.454354,239,0.339488,50,D3,80,2
77880,110.624808,119,0.169034,57,A3,80,2
78000,110.795262,239,0.339488,62,D4,80,1
78000,110.795262,119,0.169034,59,B3,80,2
78000,110.795262,359,0.509942,55,G3,80,2
78120,110.965716,119,0.169034,60,C4,80,2
78240,111.136171,479,0.680396,71,B4,80,1
78240,111.136171,959,1.362213,67,G4,80,1
78240,111.136171,479,0.680396,62,D4,80,2
78360,111.306625,119,0.169034,57,A3,80,2
78480,111.477079,119,0.169034,55,G3,80,2
78600,111.647533,119,0.169034,53,F3,80,2
78720,111.817988,479,0.680396,55,G3,80,2
78720,111.817988,119,0.169033,52,E3,80,2
78840,111.988442,119,0.169034,53,F3,80,2
78960,112.158896,239,0.339488,72,C5,80,1
78960,112.158896,119,0.169034,52,E3,80,2
79080,112.32935,119,0.169034,50,D3,80,2
79200,112.499805,239,0.339488,74,D5,80,1
79200,112.499805,119,0.169033,48,C3,80,2
79320,112.670259,119,0.169034,50,D3,80,2
79440,112.840713,239,0.339488,76,E5,80,1
79440,112.840713,239,0.339488,55,G3,80,2
79440,112.840713,119,0.169034,48,C3,80,2
79560,113.011167,119,0.169034,47,B2,80,2
79680,113.181622,359,0.509942,77,F5,80,1
79680,113.181622,239,0.339488,57,A3,80,2
79680,113.181622,239,0.339488,45,A2,80,2
79920,113.52253,239,0.339488,59,B3,80,2
79920,113.52253,239,0.339488,50,D3,80,2
80040,113.692984,59,0.083807,79,G5,80,1
80100,113.778211,59,0.083807,77,F5,80,1
80160,113.863439,239,0.339488,76,E5,80,1
80160,113.863439,359,0.509942,60,C4,80,2
80160,113.863439,239,0.339488,57,A3,80,2
80400,114.204347,239,0.339488,81,A5,80,1
80400,114.204347,239,0.339488,54,F3#,80,2
80520,114.374801,59,0.083807,62,D4,80,2
80580,114.460028,59,0.083807,60,C4,80,2
80640,114.545256,239,0.339488,74,D5,80,1
80640,114.545256,239,0.339488,59,B3,80,2
80640,114.545256,119,0.169033,55,G3,80,2
80760,114.71571,119,0.169034,57,A3,80,2
80880,114.886164,359,0.509942,79,G5,80,1
80880,114.886164,239,0.339488,64,E4,80,2
80880,114.886164,119,0.169034,58,A3#,80,2
81000,115.056618,119,0.169034,55,G3,80,2
81120,115.227073,239,0.339488,57,A3,80,2
81120,115.227073,239,0.339488,49,C3#,80,2
81240,115.397527,119,0.169034,81,A5,80,1
81360,115.567981,119,0.169034,79,G5,80,1
81360,115.567981,359,0.509942,62,D4,80,2
81360,115.567981,239,0.339488,50,D3,80,2
81480,115.738435,119,0.169034,77,F5,80,1
81600,115.90889,239,0.339488,76,E5,80,1
81600,115.90889,479,0.680396,57,A3,80,2
81720,116.079344,119,0.169034,64,E4,80,2
81840,116.249798,359,0.509942,81,A5,80,1
81840,116.249798,119,0.169034,62,D4,80,2
81960,116.420252,119,0.169034,60,C4,80,2
82080,116.590707,239,0.339488,59,B3,80,2
82080,116.590707,479,0.680396,52,E3,80,2
82200,116.761161,119,0.169034,83,B5,80,1
82320,116.931615,119,0.169034,81,A5,80,1
82320,116.931615,719,1.021305,64,E4,80,2
82440,117.102069,119,0.169034,79,G5,80,1
82560,117.272524,959,1.362213,77,F5,80,1
82560,117.272524,119,0.169033,57,A3,80,2
82680,117.442978,119,0.169034,59,B3,80,2
82800,117.613432,239,0.339488,67,G4,80,1
82800,117.613432,119,0.169034,60,C4,80,2
82920,117.783886,119,0.169034,62,D4,80,2
83040,117.954341,239,0.339488,69,A4,80,1
83040,117.954341,479,0.680396,62,D4,80,2
83040,117.954341,119,0.169033,60,C4,80,2
83160,118.124795,119,0.169034,59,B3,80,2
83280,118.295249,239,0.339488,71,B4,80,1
83280,118.295249,119,0.169034,57,A3,80,2
83400,118.465703,119,0.169034,55,G3,80,2
83520,118.636158,359,0.509942,76,E5,80,1
83520,118.636158,359,0.509942,72,C5,80,1
83520,118.636158,119,0.169033,60,C4,80,2
83520,118.636158,119,0.169033,60,C4,80,2
83640,118.806612,119,0.169034,59,B3,80,2
83760,118.977066,119,0.169034,60,C4,80,2
83880,119.14752,119,0.169034,78,F5#,80,1
83880,119.14752,59,0.083807,74,D5,80,1
83880,119.14752,119,0.169034,57,A3,80,2
83940,119.232747,59,0.083807,72,C5,80,1
84000,119.317975,959,1.362213,79,G5,80,1
84000,119.317975,239,0.339488,71,B4,80,1
84000,119.317975,119,0.169033,64,E4,80,2
84120,119.488429,119,0.169034,62,D4,80,2
84240,119.658883,239,0.339488,76,E5,80,1
84240,119.658883,119,0.169034,60,C4,80,2
84360,119.829337,119,0.169034,59,B3,80,2
84480,119.999792,239,0.339488,69,A4,80,1
84480,119.999792,119,0.169033,60,C4,80,2
84600,120.170246,119,0.169034,57,A3,80,2
84720,120.3407,359,0.509942,74,D5,80,1
84720,120.3407,119,0.169034,59,B3,80,2
84840,120.511154,119,0.169034,60,C4,80,2
84960,120.681609,479,0.680396,78,F5#,80,1
84960,120.681609,119,0.169033,62,D4,80,2
85080,120.852063,119,0.169034,76,E5,80,1
85080,120.852063,119,0.169034,60,C4,80,2
85200,121.022517,119,0.169034,74,D5,80,1
85200,121.022517,119,0.169034,59,B3,80,2
85320,121.192971,119,0.169034,72,C5,80,1
85320,121.192971,119,0.169034,57,A3,80,2
85440,121.363426,119,0.169033,79,G5,80,1
85440,121.363426,239,0.339488,71,B4,80,1
85440,121.363426,479,0.680396,55,G3,80,2
85560,121.53388,119,0.169034,77,F5,80,1
85680,121.704334,119,0.169034,76,E5,80,1
85680,121.704334,239,0.339488,43,G2,80,2
85800,121.874788,119,0.169034,74,D5,80,1
85920,122.045243,119,0.169033,72,C5,80,1
85920,122.045243,239,0.339488,45,A2,80,2
86040,122.215697,119,0.169034,74,D5,80,1
86160,122.386151,119,0.169034,72,C5,80,1
86160,122.386151,239,0.339488,62,D4,80,1
86160,122.386151,239,0.339488,47,B2,80,2
86280,122.556605,119,0.169034,71,B4,80,1
86400,122.72706,119,0.169033,69,A4,80,1
86400,122.72706,239,0.339488,64,E4,80,1
86400,122.72706,359,0.509942,48,C3,80,2
86520,122.897514,119,0.169034,72,C5,80,1
86640,123.067968,119,0.169034,71,B4,80,1
86640,123.067968,239,0.339488,66,F4#,80,1
86760,123.238422,119,0.169034,69,A4,80,1
86760,123.238422,59,0.083807,50,D3,80,2
86820,123.323649,59,0.083807,48,C3,80,2
86880,123.408877,239,0.339488,67,G4,80,1
86880,123.408877,239,0.339488,67,G4,80,1
86880,123.408877,239,0.339488,47,B2,80,2
87120,123.749785,239,0.339488,52,E3,80,2
87240,123.920239,59,0.083807,69,A4,80,1
87300,124.005466,59,0.083807,67,G4,80,1
87360,124.090694,239,0.339488,66,F4#,80,1
87360,124.090694,239,0.339488,45,A2,80,2
87480,124.261148,119,0.169034,72,C5,80,1
87600,124.431602,119,0.169034,71,B4,80,1
87600,124.431602,119,0.169034,71,B4,80,1
87600,124.431602,359,0.509942,50,D3,80,2
87720,124.602056,119,0.169034,69,A4,80,1
87840,124.772511,239,0.339488,68,G4#,80,1
87840,124.772511,239,0.339488,64,E4,80,1
87960,124.942965,119,0.169034,52,E3,80,2
88080,125.113419,239,0.339488,76,E5,80,1
88080,125.113419,359,0.509942,69,A4,80,1
88080,125.113419,119,0.169034,50,D3,80,2
88200,125.283873,119,0.169034,48,C3,80,2
88320,125.454328,239,0.339488,74,D5,80,1
88320,125.454328,239,0.339488,47,B2,80,2
88440,125.624782,119,0.169034,71,B4,80,1
88560,125.795236,119,0.169034,72,C5,80,1
88560,125.795236,119,0.169034,69,A4,80,1
88560,125.795236,239,0.339488,52,E3,80,2
88560,125.795236,239,0.339488,52,E3,80,2
88680,125.96569,119,0.169034,71,B4,80,1
88680,125.96569,119,0.169034,68,G4#,80,1
88800,126.136145,119,0.169033,69,A4,80,1
88800,126.136145,239,0.339488,66,F4#,80,1
88800,126.136145,239,0.339488,54,F3#,80,2
88920,126.306599,119,0.169034,68,G4#,80,1
89040,126.477053,119,0.169034,69,A4,80,1
89040,126.477053,239,0.339488,65,F4,80,1
89040,126.477053,239,0.339488,56,G3#,80,2
89040,126.477053,239,0.339488,50,D3,80,2
89160,126.647507,119,0.169034,71,B4,80,1
89280,126.817962,119,0.169033,72,C5,80,1
89280,126.817962,239,0.339488,64,E4,80,1
89280,126.817962,359,0.509942,57,A3,80,2
89280,126.817962,239,0.339488,48,C3,80,2
89400,126.988416,119,0.169034,66,F4#,80,1
89520,127.15887,119,0.169034,68,G4#,80,1
89520,127.15887,359,0.509942,62,D4,80,1
89520,127.15887,479,0.680397,53,F3,80,2
89640,127.329324,119,0.169034,69,A4,80,1
89640,127.329324,59,0.083807,59,B3,80,2
89700,127.414551,59,0.083807,57,A3,80,2
89760,127.499779,239,0.339488,71,B4,80,1
89760,127.499779,239,0.339488,56,G3#,80,2
89880,127.670233,119,0.169034,64,E4,80,1
90000,127.840687,119,0.169034,69,A4,80,1
90000,127.840687,119,0.169034,66,F4#,80,1
90000,127.840687,239,0.339488,60,C4,80,2
90000,127.840687,479,0.680397,52,E3,80,2
90120,128.011141,119,0.169034,71,B4,80,1
90120,128.011141,119,0.169034,68,G4#,80,1
90240,128.181596,239,0.339488,72,C5,80,1
90240,128.181596,119,0.169033,69,A4,80,1
90240,128.181596,239,0.339488,54,F3#,80,2
90360,128.35205,119,0.169034,68,G4#,80,1
90480,128.522504,239,0.339488,77,F5,80,1
90480,128.522504,119,0.169034,69,A4,80,1
90480,128.522504,359,0.509942,59,B3,80,2
90480,128.522504,479,0.680397,50,D3,80,2
90600,128.692958,119,0.169034,71,B4,80,1
90720,128.863413,239,0.339488,76,E5,80,1
90720,128.863413,119,0.169033,68,G4#,80,1
90840,129.033867,119,0.169034,66,F4#,80,1
90840,129.033867,119,0.169034,60,C4,80,2
90960,129.204321,479,0.680397,74,D5,80,1
90960,129.204321,119,0.169034,68,G4#,80,1
90960,129.204321,119,0.169034,59,B3,80,2
90960,129.204321,239,0.339488,52,E3,80,2
91080,129.374775,119,0.169034,69,A4,80,1
91080,129.374775,119,0.169034,57,A3,80,2
91200,129.54523,239,0.339488,71,B4,80,1
91200,129.54523,239,0.339488,56,G3#,80,2
91200,129.54523,239,0.339488,53,F3,80,2
91440,129.886138,119,0.169034,72,C5,80,1
91440,129.886138,479,0.680397,57,A3,80,2
91440,129.886138,119,0.169034,52,E3,80,2
91560,130.056592,119,0.169034,71,B4,80,1
91560,130.056592,119,0.169034,50,D3,80,2
91680,130.227047,359,0.509942,71,B4,80,1
91680,130.227047,479,0.680396,52,E3,80,2
91920,130.567955,239,0.339488,56,G3#,80,2
92040,130.738409,119,0.169034,69,A4,80,1
92160,130.908864,479,0.680396,69,A4,80,1
92160,130.908864,479,0.680396,57,A3,80,2
92160,130.908864,479,0.680396,45,A2,80,2
92400,131.249772,239,0.339488,60,C4,80,1
92640,131.590681,239,0.339488,62,D4,80,1
92880,131.931589,239,0.339488,64,E4,80,1
92880,131.931589,239,0.339488,55,G3,80,2
93120,132.272498,359,0.509942,65,F4,80,1
93120,132.272498,239,0.339488,57,A3,80,2
93360,132.613406,239,0.339488,59,B3,80,2
93480,132.78386,59,0.083807,67,G4,80,1
93540,132.869087,59,0.083807,65,F4,80,1
93600,132.954315,239,0.339488,64,E4,80,1
93600,132.954315,359,0.509942,60,C4,80,2
93840,133.295223,239,0.339488,69,A4,80,1
93960,133.465677,59,0.083807,62,D4,80,2
94020,133.550904,59,0.083807,60,C4,80,2
94080,133.636132,239,0.339488,62,D4,80,1
94080,133.636132,239,0.339488,59,B3,80,1
94320,133.97704,359,0.509942,67,G4,80,1
94320,133.97704,239,0.339488,64,E4,80,1
94320,133.97704,239,0.339488,43,G2,80,2
94560,134.317949,239,0.339488,57,A3,80,1
94560,134.317949,239,0.339488,45,A2,80,2
94680,134.488403,119,0.169034,69,A4,80,1
94800,134.658857,119,0.169034,67,G4,80,1
94800,134.658857,479,0.680397,62,D4,80,1
94800,134.658857,239,0.339488,47,B2,80,2
94920,134.829311,119,0.169034,65,F4,80,1
95040,134.999766,239,0.339488,64,E4,80,1
95040,134.999766,359,0.509942,48,C3,80,2
95280,135.340674,239,0.339488,64,E4,80,1
95280,135.340674,239,0.339488,67,G4,80,1
95280,135.340674,239,0.339488,55,G3,80,1
95400,135.511128,59,0.083807,50,D3,80,2
95460,135.596355,59,0.083807,48,C3,80,2
95520,135.681583,239,0.339488,66,F4#,80,1
95520,135.681583,239,0.339488,69,A4,80,1
95520,135.681583,479,0.680396,62,D4,80,1
95520,135.681583,239,0.339488,47,B2,80,2
95760,136.022491,239,0.339488,67,G4,80,1
95760,136.022491,239,0.339488,71,B4,80,1
95760,136.022491,239,0.339488,52,E3,80,2
96000,136.3634,359,0.509942,72,C5,80,1
96000,136.3634,239,0.339488,67,G4,80,1
96000,136.3634,239,0.339488,45,A2,80,2
96000,136.3634,239,0.339488,60,C4,80,2
96240,136.704308,239,0.339488,66,F4#,80,1
96240,136.704308,359,0.509942,50,D3,80,2
96240,136.704308,239,0.339488,57,A3,80,2
96360,136.874762,59,0.083807,74,D5,80,1
96420,136.959989,59,0.083807,72,C5,80,1
96480,137.045217,239,0.339488,68,G4#,80,1
96480,137.045217,239,0.339488,71,B4,80,1
96480,137.045217,479,0.680396,64,E4,80,1
96600,137.215671,119,0.169034,52,E3,80,2
96720,137.386125,479,0.680397,69,A4,80,1
96720,137.386125,239,0.339488,72,C5,80,1
96720,137.386125,119,0.169034,50,D3,80,2
96840,137.556579,119,0.169034,48,C3,80,2
96960,137.727034,239,0.339488,74,D5,80,1
96960,137.727034,239,0.339488,62,D4,80,1
96960,137.727034,239,0.339488,47,B2,80,2
97200,138.067942,239,0.339488,67,G4,80,1
97200,138.067942,239,0.339488,76,E5,80,1
97200,138.067942,239,0.339488,46,A2#,80,2
97440,138.408851,239,0.339488,69,A4,80,1
97440,138.408851,359,0.509942,77,F5,80,1
97440,138.408851,239,0.339488,45,A2,80,2
97680,138.749759,239,0.339488,71,B4,80,1
97680,138.749759,239,0.339488,43,G2,80,2
97800,138.920213,59,0.083807,79,G5,80,1
97860,139.00544,59,0.083807,77,F5,80,1
97920,139.090668,239,0.339488,76,E5,80,1
97920,139.090668,359,0.509942,72,C5,80,1
97920,139.090668,239,0.339488,45,A2,80,2
98160,139.431576,239,0.339488,81,A5,80,1
98160,139.431576,239,0.339488,57,A3,80,2
98160,139.431576,239,0.339488,54,F3#,80,2
98280,139.60203,59,0.083807,74,D5,80,1
98340,139.687257,59,0.083807,72,C5,80,1
98400,139.772485,239,0.339488,74,D5,80,1
98400,139.772485,239,0.339488,71,B4,80,1
98400,139.772485,239,0.339488,59,B3,80,2
98400,139.772485,239,0.339488,55,G3,80,2
98640,140.113393,359,0.509942,79,G5,80,1
98640,140.113393,239,0.339488,76,E5,80,1
98640,140.113393,239,0.339488,61,C4#,80,2
98640,140.113393,239,0.339488,52,E3,80,2
98880,140.454302,239,0.339488,69,A4,80,1
98880,140.454302,359,0.509942,62,D4,80,2
98880,140.454302,479,0.680396,50,D3,80,2
99000,140.624756,119,0.169034,81,A5,80,1
99120,140.79521,119,0.169034,79,G5,80,1
99120,140.79521,359,0.509942,74,D5,80,1
99240,140.965664,119,0.169034,77,F5,80,1
99240,140.965664,59,0.083807,64,E4,80,2
99300,141.050891,59,0.083807,62,D4,80,2
99360,141.136119,239,0.339488,76,E5,80,1
99360,141.136119,239,0.339488,60,C4,80,2
99360,141.136119,239,0.339488,52,E3,80,2
99480,141.306573,119,0.169034,76,E5,80,1
99600,141.477027,239,0.339488,81,A5,80,1
99600,141.477027,119,0.169034,74,D5,80,1
99600,141.477027,239,0.339488,65,F4,80,2
99600,141.477027,239,0.339488,53,F3,80,2
99720,141.647481,119,0.169034,72,C5,80,1
99840,141.817936,239,0.339488,74,D5,80,1
99840,141.817936,239,0.339488,71,B4,80,1
99840,141.817936,239,0.339488,59,B3,80,2
99840,141.817936,359,0.509942,55,G3,80,2
100080,142.158844,239,0.339488,82,A5#,80,1
100080,142.158844,239,0.339488,79,G5,80,1
100080,142.158844,359,0.509942,64,E4,80,2
100200,142.329298,59,0.083807,57,A3,80,2
100260,142.414525,59,0.083807,55,G3,80,2
100320,142.499753,239,0.339488,81,A5,80,1
100320,142.499753,239,0.339488,73,C5#,80,1
100320,142.499753,239,0.339488,53,F3,80,2
100440,142.670207,119,0.169034,65,F4,80,2
100560,142.840661,119,0.169034,79,G5,80,1
100560,142.840661,239,0.339488,74,D5,80,1
100560,142.840661,119,0.169034,64,E4,80,2
100560,142.840661,239,0.339488,58,A3#,80,2
100680,143.011115,119,0.169034,77,F5,80,1
100680,143.011115,119,0.169034,62,D4,80,2
100800,143.18157,119,0.169033,79,G5,80,1
100800,143.18157,239,0.339488,76,E5,80,1
100800,143.18157,239,0.339488,61,C4#,80,2
100800,143.18157,239,0.339488,52,E3,80,2
100920,143.352024,119,0.169034,77,F5,80,1
101040,143.522478,119,0.169034,79,G5,80,1
101040,143.522478,239,0.339488,73,C5#,80,1
101040,143.522478,359,0.509942,57,A3,80,2
101160,143.692932,119,0.169034,76,E5,80,1
101280,143.863387,119,0.169033,77,F5,80,1
101280,143.863387,239,0.339488,74,D5,80,1
101400,144.033841,119,0.169034,79,G5,80,1
101400,144.033841,119,0.169034,58,A3#,80,2
101520,144.204295,14,0.019886,79,G5,80,1
101520,144.204295,239,0.339488,76,E5,80,1
101520,144.204295,119,0.169034,57,A3,80,2
101535,144.225602,14,0.019886,81,A5,80,1
101550,144.246909,89,0.12642,79,G5,80,1
101640,144.374749,59,0.083807,77,F5,80,1
101640,144.374749,119,0.169034,55,G3,80,2
101700,144.459976,59,0.083807,79,G5,80,1
101760,144.545204,119,0.169033,81,A5,80,1
101760,144.545204,239,0.339488,69,A4,80,1
101760,144.545204,119,0.169033,53,F3,80,2
101880,144.715658,119,0.169034,73,C5#,80,1
101880,144.715658,119,0.169034,52,E3,80,2
102000,144.886112,119,0.169034,74,D5,80,1
102000,144.886112,239,0.339488,57,A3,80,2
102000,144.886112,119,0.169034,53,F3,80,2
102120,145.056566,119,0.169034,79,G5,80,1
102120,145.056566,119,0.169034,50,D3,80,2
102240,145.227021,359,0.509942,76,E5,80,1
102240,145.227021,239,0.339488,59,B3,80,2
102240,145.227021,239,0.339488,55,G3,80,2
102480,145.567929,239,0.339488,64,E4,80,1
102480,145.567929,239,0.339488,61,C4#,80,2
102480,145.567929,239,0.339488,57,A3,80,2
102600,145.738383,119,0.169034,74,D5,80,1
102720,145.908838,239,0.339488,74,D5,80,1
102720,145.908838,239,0.339488,66,F4#,80,1
102720,145.908838,359,0.509942,62,D4,80,2
102720,145.908838,1079,1.532667,50,D3,80,2
102960,146.249746,239,0.339488,67,G4,80,1
103080,146.4202,59,0.083807,64,E4,80,2
103140,146.505427,59,0.083807,62,D4,80,2
103200,146.590655,359,0.509942,69,A4,80,1
103200,146.590655,239,0.339488,60,C4,80,2
103440,146.931563,239,0.339488,66,F4#,80,2
103560,147.102017,59,0.083807,71,B4,80,1
103620,147.187244,59,0.083807,69,A4,80,1
103680,147.272472,239,0.339488,67,G4,80,1
103680,147.272472,239,0.339488,59,B3,80,1
103800,147.442926,119,0.169034,52,E3,80,2
103920,147.61338,239,0.339488,72,C5,80,1
103920,147.61338,359,0.509942,64,E4,80,1
103920,147.61338,119,0.169034,50,D3,80,2
104040,147.783834,119,0.169034,48,C3,80,2
104160,147.954289,239,0.339488,66,F4#,80,1
104160,147.954289,119,0.169033,47,B2,80,2
104280,148.124743,119,0.169034,66,F4#,80,1
104280,148.124743,119,0.169034,45,A2,80,2
104400,148.295197,359,0.509942,71,B4,80,1
104400,148.295197,119,0.169034,64,E4,80,1
104400,148.295197,119,0.169034,43,G2,80,2
104520,148.465651,119,0.169034,62,D4,80,1
104520,148.465651,119,0.169034,42,F2#,80,2
104640,148.636106,959,1.362213,60,C4,80,1
104640,148.636106,239,0.339488,40,E2,80,2
104760,148.80656,119,0.169034,72,C5,80,1
104880,148.977014,119,0.169034,71,B4,80,1
104880,148.977014,239,0.339488,52,E3,80,2
105000,149.147468,119,0.169034,69,A4,80,1
105120,149.317923,119,0.169033,67,G4,80,1
105120,149.317923,239,0.339488,54,F3#,80,2
105240,149.488377,119,0.169034,66,F4#,80,1
105360,149.658831,239,0.339488,67,G4,80,1
105360,149.658831,119,0.169034,64,E4,80,1
105360,149.658831,479,0.680397,55,G3,80,2
105480,149.829285,119,0.169034,62,D4,80,1
105600,149.99974,239,0.339488,69,A4,80,1
105600,149.99974,479,0.680396,64,E4,80,1
105600,149.99974,119,0.169033,60,C4,80,2
105720,150.170194,119,0.169034,62,D4,80,2
105840,150.340648,239,0.339488,71,B4,80,1
105840,150.340648,119,0.169034,60,C4,80,2
105840,150.340648,119,0.169034,57,A3,80,2
105960,150.511102,119,0.169034,59,B3,80,2
105960,150.511102,119,0.169034,55,G3,80,2
106080,150.681557,359,0.509942,72,C5,80,1
106080,150.681557,599,0.85085,62,D4,80,1
106080,150.681557,119,0.169033,57,A3,80,2
106080,150.681557,239,0.339488,54,F3#,80,2
106200,150.852011,119,0.169034,55,G3,80,2
106320,151.022465,119,0.169034,57,A3,80,2
106320,151.022465,239,0.339488,50,D3,80,2
106440,151.192919,59,0.083807,74,D5,80,1
106440,151.192919,119,0.169034,54,F3#,80,2
106500,151.278146,59,0.083807,72,C5,80,1
106560,151.363374,239,0.339488,71,B4,80,1
106560,151.363374,239,0.339488,55,G3,80,2
106560,151.363374,239,0.339488,55,G3,80,2
106680,151.533828,119,0.169034,69,A4,80,1
106800,151.704282,239,0.339488,76,E5,80,1
106800,151.704282,119,0.169034,67,G4,80,1
106800,151.704282,239,0.339488,59,B3,80,2
106920,151.874736,119,0.169034,65,F4,80,1
107040,152.045191,239,0.339488,69,A4,80,1
107040,152.045191,119,0.169033,64,E4,80,1
107040,152.045191,239,0.339488,60,C4,80,2
107160,152.215645,119,0.169034,67,G4,80,1
107280,152.386099,359,0.509942,74,D5,80,1
107280,152.386099,119,0.169034,65,F4,80,1
107280,152.386099,239,0.339488,62,D4,80,2
107400,152.556553,119,0.169034,69,A4,80,1
107520,152.727008,599,0.85085,67,G4,80,1
107520,152.727008,359,0.509942,64,E4,80,2
107640,152.897462,119,0.169034,76,E5,80,1
107760,153.067916,119,0.169034,74,D5,80,1
107880,153.23837,119,0.169034,72,C5,80,1
107880,153.23837,59,0.083807,65,F4,80,2
107940,153.323597,59,0.083807,64,E4,80,2
108000,153.408825,119,0.169033,71,B4,80,1
108000,153.408825,239,0.339488,62,D4,80,2
108120,153.579279,119,0.169034,72,C5,80,1
108120,153.579279,119,0.169034,69,A4,80,1
108240,153.749733,119,0.169034,74,D5,80,1
108240,153.749733,239,0.339488,70,A4#,80,1
108240,153.749733,239,0.339488,67,G4,80,2
108360,153.920187,119,0.169034,76,E5,80,1
108480,154.090642,119,0.169033,77,F5,80,1
108480,154.090642,479,0.680396,72,C5,80,1
108480,154.090642,239,0.339488,60,C4,80,2
108480,154.090642,479,0.680396,57,A3,80,2
108600,154.261096,119,0.169034,79,G5,80,1
108720,154.43155,119,0.169034,81,A5,80,1
108720,154.43155,359,0.509942,65,F4,80,2
108840,154.602004,119,0.169034,79,G5,80,1
108960,154.772459,119,0.169033,77,F5,80,1
108960,154.772459,239,0.339488,74,D5,80,1
108960,154.772459,239,0.339488,59,B3,80,2
109080,154.942913,119,0.169034,76,E5,80,1
109080,154.942913,119,0.169034,67,G4,80,2
109200,155.113367,119,0.169034,74,D5,80,1
109200,155.113367,239,0.339488,67,G4,80,1
109200,155.113367,119,0.169034,65,F4,80,2
109200,155.113367,239,0.339488,60,C4,80,2
109320,155.283821,119,0.169034,72,C5,80,1
109320,155.283821,119,0.169034,64,E4,80,2
109440,155.454276,479,0.680396,71,B4,80,1
109440,155.454276,719,1.021305,67,G4,80,1
109440,155.454276,479,0.680396,62,D4,80,2
109440,155.454276,119,0.169033,53,F3,80,2
109560,155.62473,119,0.169034,57,A3,80,2
109680,155.795184,119,0.169034,55,G3,80,2
109800,155.965638,119,0.169034,53,F3,80,2
109920,156.136093,239,0.339488,72,C5,80,1
109920,156.136093,239,0.339488,64,E4,80,2
109920,156.136093,119,0.169033,52,E3,80,2
110040,156.306547,119,0.169034,50,D3,80,2
110160,156.477001,239,0.339488,74,D5,80,1
110160,156.477001,479,0.680397,65,F4,80,1
110160,156.477001,479,0.680397,62,D4,80,2
110160,156.477001,119,0.169034,48,C3,80,2
110280,156.647455,119,0.169034,47,B2,80,2
110400,156.81791,239,0.339488,67,G4,80,1
110400,156.81791,119,0.169033,48,C3,80,2
110520,156.988364,119,0.169034,50,D3,80,2
110640,157.158818,479,0.680397,72,C5,80,1
110640,157.158818,239,0.339488,64,E4,80,1
110640,157.158818,239,0.339488,55,G3,80,2
110640,157.158818,119,0.169034,52,E3,80,2
110760,157.329272,119,0.169034,53,F3,80,2
110880,157.499727,479,0.680396,62,D4,80,1
110880,157.499727,239,0.339488,55,G3,80,2
110880,157.499727,239,0.339488,55,G3,80,2
111120,157.840635,239,0.339488,71,B4,80,1
111120,157.840635,239,0.339488,43,G2,80,2
111360,158.181544,479,0.680396,72,C5,80,1
111360,158.181544,239,0.339488,64,E4,80,1
111360,158.181544,479,0.680396,48,C3,80,2
111600,158.522452,479,0.680397,69,A4,80,1
111600,158.522452,239,0.339488,48,C3,80,2
111840,158.863361,239,0.339488,71,B4,80,1
111840,158.863361,239,0.339488,50,D3,80,2
112080,159.204269,239,0.339488,70,A4#,80,1
112080,159.204269,479,0.680397,67,G4,80,1
112080,159.204269,239,0.339488,52,E3,80,2
112320,159.545178,239,0.339488,69,A4,80,1
112320,159.545178,359,0.509942,53,F3,80,2
112560,159.886086,479,0.680397,74,D5,80,1
112560,159.886086,239,0.339488,65,F4,80,1
112680,160.05654,59,0.083807,55,G3,80,2
112740,160.141767,59,0.083807,53,F3,80,2
112800,160.226995,239,0.339488,67,G4,80,1
112800,160.226995,239,0.339488,52,E3,80,2
113040,160.567903,239,0.339488,72,C5,80,1
113040,160.567903,239,0.339488,69,A4,80,1
113040,160.567903,239,0.339488,57,A3,80,2
113280,160.908812,239,0.339488,74,D5,80,1
113280,160.908812,359,0.509942,70,A4#,80,1
113280,160.908812,239,0.339488,50,D3,80,2
113520,161.24972,239,0.339488,76,E5,80,1
113520,161.24972,359,0.509942,55,G3,80,2
113640,161.420174,59,0.083807,72,C5,80,1
113700,161.505401,59,0.083807,70,A4#,80,1
113760,161.590629,599,0.85085,77,F5,80,1
113760,161.590629,239,0.339488,69,A4,80,1
113880,161.761083,119,0.169034,57,A3,80,2
114000,161.931537,239,0.339488,74,D5,80,1
114000,161.931537,119,0.169034,55,G3,80,2
114120,162.101991,119,0.169034,53,F3,80,2
114240,162.272446,239,0.339488,67,G4,80,1
114240,162.272446,119,0.169033,52,E3,80,2
114360,162.4429,119,0.169034,81,A5,80,1
114360,162.4429,119,0.169034,50,D3,80,2
114480,162.613354,119,0.169034,79,G5,80,1
114480,162.613354,359,0.509942,72,C5,80,1
114480,162.613354,119,0.169034,52,E3,80,2
114600,162.783808,119,0.169034,77,F5,80,1
114600,162.783808,119,0.169034,53,F3,80,2
114720,162.954263,119,0.169033,76,E5,80,1
114720,162.954263,119,0.169033,55,G3,80,2
114840,163.124717,119,0.169034,77,F5,80,1
114840,163.124717,119,0.169034,74,D5,80,1
114840,163.124717,119,0.169034,57,A3,80,2
114960,163.295171,119,0.169034,76,E5,80,1
114960,163.295171,119,0.169034,72,C5,80,1
114960,163.295171,119,0.169034,58,A3#,80,2
115080,163.465625,119,0.169034,74,D5,80,1
115080,163.465625,119,0.169034,70,A4#,80,1
115080,163.465625,119,0.169034,55,G3,80,2
115200,163.63608,959,1.362213,72,C5,80,1
115200,163.63608,119,0.169033,69,A4,80,1
115200,163.63608,119,0.169033,57,A3,80,2
115320,163.806534,119,0.169034,70,A4#,80,1
115320,163.806534,119,0.169034,52,E3,80,2
115440,163.976988,119,0.169034,69,A4,80,1
115440,163.976988,119,0.169034,53,F3,80,2
115560,164.147442,119,0.169034,67,G4,80,1
115560,164.147442,119,0.169034,55,G3,80,2
115680,164.317897,119,0.169033,65,F4,80,1
115680,164.317897,119,0.169033,57,A3,80,2
115800,164.488351,119,0.169034,67,G4,80,1
115800,164.488351,119,0.169034,59,B3,80,2
115920,164.658805,119,0.169034,65,F4,80,1
115920,164.658805,119,0.169034,60,C4,80,2
116040,164.829259,119,0.169034,64,E4,80,1
116040,164.829259,119,0.169034,57,A3,80,2
116160,164.999714,839,1.191759,62,D4,80,1
116160,164.999714,959,1.362213,59,B3,80,2
116280,165.170168,59,0.083806,67,G4,80,1
116340,165.255395,59,0.083807,69,A4,80,1
116400,165.340622,119,0.169034,71,B4,80,1
116520,165.511076,119,0.169034,72,C5,80,1
116640,165.681531,119,0.169033,74,D5,80,1
116760,165.851985,119,0.169034,76,E5,80,1
116880,166.022439,299,0.424715,77,F5,80,1
117000,166.192893,119,0.169034,67,G4,80,1
117120,166.363348,479,0.680396,69,A4,80,1
117120,166.363348,1919,2.725847,60,C4,80,2
117180,166.448575,59,0.083806,72,C5,80,1
117240,166.533802,59,0.083806,74,D5,80,1
117300,166.619029,59,0.083807,76,E5,80,1
117360,166.704256,119,0.169034,77,F5,80,1
117480,166.87471,119,0.169034,79,G5,80,1
117600,167.045165,359,0.509942,81,A5,80,1
117720,167.215619,119,0.169034,77,F5,80,1
117840,167.386073,239,0.339488,74,D5,80,1
117960,167.556527,119,0.169034,83,B5,80,1
118080,167.726982,959,1.362213,84,C6,80,1
118080,167.726982,959,1.362213,76,E5,80,1
118080,167.726982,959,1.362213,79,G5,80,1
