start_ticks,start_secs,dur_ticks,dur_secs,pitch,fullNoteOctave,velocity,part
0,0.0,119,0.141666,39,D2#,127,2
0,0.0,119,0.141666,51,D3#,127,2
120,0.142857,159,0.189286,39,D2#,127,2
120,0.142857,159,0.189286,51,D3#,127,2
280,0.333333,151,0.179762,58,A3#,80,2
440,0.523809,151,0.179762,46,A2#,80,2
600,0.714286,151,0.179762,54,F3#,80,2
760,0.904762,151,0.179762,63,D4#,80,2
920,1.095238,151,0.179762,46,A2#,80,2
1080,1.285715,151,0.179762,39,D2#,80,2
1080,1.285715,151,0.179762,51,D3#,80,2
1240,1.476191,151,0.179762,58,A3#,80,2
1400,1.666667,151,0.179762,46,A2#,80,2
1440,1.714287,113,0.134523,70,A4#,80,1
1440,1.714287,113,0.134523,82,A5#,80,1
1560,1.857144,341,0.405952,58,A3#,80,1
1560,1.857144,341,0.405952,70,A4#,80,1
1560,1.857144,151,0.179762,54,F3#,80,2
1720,2.04762,151,0.179762,63,D4#,80,2
1880,2.238096,151,0.179762,46,A2#,80,2
1920,2.285716,113,0.134523,65,F4,80,1
1920,2.285716,113,0.134523,77,F5,80,1
2040,2.428573,911,1.084524,65,F4,80,1
2040,2.428573,911,1.084524,77,F5,80,1
2040,2.428573,911,1.084524,70,A4#,80,1
2040,2.428573,151,0.179762,39,D2#,80,2
2040,2.428573,151,0.179762,51,D3#,80,2
2200,2.619049,151,0.179762,58,A3#,80,2
2360,2.809525,151,0.179762,46,A2#,80,2
2520,3.000002,151,0.179762,54,F3#,80,2
2680,3.190478,151,0.179762,70,A4#,80,2
2840,3.380954,151,0.179762,46,A2#,80,2
3000,3.571431,151,0.179762,63,D4#,80,1
3000,3.571431,151,0.179762,75,D5#,80,1
3000,3.571431,455,0.541667,70,A4#,80,1
3000,3.571431,151,0.179762,39,D2#,80,2
3000,3.571431,151,0.179762,51,D3#,80,2
3160,3.761907,151,0.179762,62,D4,80,1
3160,3.761907,151,0.179762,74,D5,80,1
3160,3.761907,151,0.179762,58,A3#,80,2
3320,3.952383,151,0.179762,63,D4#,80,1
3320,3.952383,151,0.179762,75,D5#,80,1
3320,3.952383,151,0.179762,46,A2#,80,2
3480,4.14286,113,0.134524,65,F4,80,1
3480,4.14286,113,0.134524,77,F5,80,1
3480,4.14286,227,0.270238,70,A4#,80,1
3480,4.14286,151,0.179762,54,F3#,80,2
3600,4.285717,113,0.134524,66,F4#,84,1
3600,4.285717,113,0.134524,78,F5#,84,1
3640,4.333336,151,0.179762,63,D4#,86,2
3720,4.428574,113,0.134524,70,A4#,89,1
3720,4.428574,113,0.134524,82,A5#,89,1
3720,4.428574,113,0.134524,75,D5#,89,1
3800,4.523812,151,0.179762,46,A2#,92,2
3900,4.64286,56,0.066667,73,C5#,96,1
3900,4.64286,56,0.066667,85,C6#,96,1
3960,4.714289,455,0.541667,73,C5#,96,1
3960,4.714289,455,0.541667,85,C6#,96,1
3960,4.714289,911,1.084524,78,F5#,96,1
3960,4.714289,151,0.179762,39,D2#,96,2
3960,4.714289,151,0.179762,51,D3#,96,2
4120,4.904765,151,0.179762,58,A3#,96,2
4280,5.095241,151,0.179762,47,B2,96,2
4440,5.285718,455,0.541667,71,B4,96,1
4440,5.285718,455,0.541667,83,B5,96,1
4440,5.285718,151,0.179762,54,F3#,96,2
4600,5.476194,151,0.179762,66,F4#,96,2
4760,5.66667,151,0.179762,47,B2,96,2
4920,5.857147,151,0.179762,39,D2#,96,2
4920,5.857147,151,0.179762,54,F3#,96,2
5080,6.047623,151,0.179762,59,B3,96,2
5240,6.238099,151,0.179762,47,B2,96,2
5280,6.285719,113,0.134523,71,B4,96,1
5280,6.285719,113,0.134523,83,B5,96,1
5400,6.428576,341,0.405952,59,B3,96,1
5400,6.428576,341,0.405952,71,B4,96,1
5400,6.428576,151,0.179762,54,F3#,96,2
5560,6.619052,151,0.179762,63,D4#,96,2
5720,6.809528,151,0.179762,47,B2,96,2
5760,6.857148,113,0.134523,66,F4#,96,1
5760,6.857148,113,0.134523,78,F5#,96,1
5880,7.000005,911,1.084524,66,F4#,96,1
5880,7.000005,911,1.084524,78,F5#,96,1
5880,7.000005,911,1.084524,71,B4,96,1
5880,7.000005,151,0.179762,39,D2#,96,2
5880,7.000005,151,0.179762,56,G3#,96,2
6040,7.190481,151,0.179762,59,B3,96,2
6200,7.380957,151,0.179762,47,B2,96,2
6360,7.571434,151,0.179762,56,G3#,96,2
6520,7.76191,151,0.179762,71,B4,96,2
6680,7.952386,151,0.179762,47,B2,96,2
6840,8.142863,151,0.179762,64,E4,96,1
6840,8.142863,151,0.179762,76,E5,96,1
6840,8.142863,455,0.541667,71,B4,96,1
6840,8.142863,151,0.179762,39,D2#,96,2
6840,8.142863,151,0.179762,56,G3#,96,2
7000,8.333339,151,0.179762,63,D4#,96,1
7000,8.333339,151,0.179762,75,D5#,96,1
7000,8.333339,151,0.179762,59,B3,96,2
7160,8.523815,151,0.179762,64,E4,96,1
7160,8.523815,151,0.179762,76,E5,96,1
7160,8.523815,151,0.179762,47,B2,96,2
7320,8.714292,113,0.134524,66,F4#,96,1
7320,8.714292,113,0.134524,78,F5#,96,1
7320,8.714292,227,0.270238,71,B4,96,1
7320,8.714292,151,0.179762,56,G3#,96,2
7440,8.857149,113,0.134524,68,G4#,96,1
7440,8.857149,113,0.134524,80,G5#,96,1
7480,8.904768,151,0.179762,64,E4,96,2
7560,9.000006,113,0.134524,71,B4,96,1
7560,9.000006,113,0.134524,83,B5,96,1
7560,9.000006,113,0.134524,76,E5,96,1
7640,9.095244,151,0.179762,47,B2,96,2
7740,9.214292,56,0.066667,75,D5#,96,1
7740,9.214292,56,0.066667,87,D6#,96,1
7800,9.285721,455,0.541667,75,D5#,96,1
7800,9.285721,455,0.541667,87,D6#,96,1
7800,9.285721,911,1.084524,78,F5#,96,1
7800,9.285721,151,0.179762,39,D2#,96,2
7800,9.285721,151,0.179762,56,G3#,96,2
7960,9.476197,151,0.179762,59,B3,96,2
8120,9.666673,151,0.179762,53,F3,96,2
8280,9.85715,455,0.541667,74,D5,96,1
8280,9.85715,455,0.541667,86,D6,96,1
8280,9.85715,151,0.179762,56,G3#,96,2
8440,10.047626,151,0.179762,68,G4#,96,2
8600,10.238102,151,0.179762,47,B2,96,2
8760,10.428579,151,0.179762,39,D2#,96,2
8760,10.428579,151,0.179762,56,G3#,96,2
8920,10.619055,151,0.179762,59,B3,96,2
9080,10.809531,151,0.179762,51,D3#,96,2
9120,10.857151,113,0.134523,75,D5#,96,1
9120,10.857151,113,0.134523,87,D6#,96,1
9240,11.000008,341,0.405952,63,D4#,96,1
9240,11.000008,341,0.405952,75,D5#,96,1
9240,11.000008,151,0.179762,56,G3#,96,2
9400,11.190484,151,0.179762,68,G4#,96,2
9560,11.38096,151,0.179762,47,B2,96,2
9600,11.42858,113,0.134523,70,A4#,96,1
9600,11.42858,113,0.134523,82,A5#,96,1
9720,11.571437,911,1.084524,70,A4#,96,1
9720,11.571437,911,1.084524,82,A5#,96,1
9720,11.571437,911,1.084524,75,D5#,96,1
9720,11.571437,151,0.179762,39,D2#,96,2
9720,11.571437,151,0.179762,56,G3#,96,2
9880,11.761913,151,0.179762,63,D4#,96,2
10040,11.952389,151,0.179762,51,D3#,96,2
10200,12.142866,151,0.179762,59,B3,96,2
10360,12.333342,151,0.179762,75,D5#,96,2
10520,12.523818,151,0.179762,47,B2,96,2
10680,12.714295,151,0.179762,68,G4#,96,1
10680,12.714295,151,0.179762,80,G5#,96,1
10680,12.714295,455,0.541667,75,D5#,96,1
10680,12.714295,151,0.179762,39,D2#,96,2
10680,12.714295,151,0.179762,56,G3#,96,2
10840,12.904771,151,0.179762,67,G4,96,1
10840,12.904771,151,0.179762,79,G5,96,1
10840,12.904771,151,0.179762,63,D4#,96,2
11000,13.095247,151,0.179762,68,G4#,96,1
11000,13.095247,151,0.179762,80,G5#,96,1
11000,13.095247,151,0.179762,51,D3#,96,2
11160,13.285724,113,0.134524,70,A4#,96,1
11160,13.285724,113,0.134524,82,A5#,96,1
11160,13.285724,227,0.270238,75,D5#,96,1
11160,13.285724,151,0.179762,59,B3,96,2
11280,13.428581,113,0.134524,71,B4,96,1
11280,13.428581,113,0.134524,83,B5,96,1
11320,13.4762,151,0.179762,68,G4#,96,2
11400,13.571438,113,0.134524,75,D5#,96,1
11400,13.571438,113,0.134524,87,D6#,96,1
11400,13.571438,113,0.134524,80,G5#,96,1
11480,13.666676,151,0.179762,47,B2,96,2
11580,13.785724,56,0.066667,78,F5#,96,1
11580,13.785724,56,0.066667,90,F6#,96,1
11640,13.857153,455,0.541667,78,F5#,96,1
11640,13.857153,455,0.541667,90,F6#,96,1
11640,13.857153,455,0.541667,83,B5,96,1
11640,13.857153,151,0.179762,39,D2#,96,2
11640,13.857153,151,0.179762,51,D3#,96,2
11800,14.047629,151,0.179762,59,B3,96,2
11960,14.238105,151,0.179762,50,D3,96,2
12120,14.428582,911,1.084524,77,F5,96,1
12120,14.428582,911,1.084524,89,F6,96,1
12120,14.428582,911,1.084524,83,B5,96,1
12120,14.428582,151,0.179762,56,G3#,96,2
12280,14.619058,151,0.179762,65,F4,96,2
12440,14.809534,151,0.179762,47,B2,96,2
12600,15.000011,151,0.179762,39,D2#,96,2
12600,15.000011,151,0.179762,51,D3#,96,2
12760,15.190487,151,0.179762,59,B3,96,2
12920,15.380963,151,0.179762,50,D3,96,2
13080,15.57144,455,0.541667,76,E5,102,1
13080,15.57144,455,0.541667,88,E6,102,1
13080,15.57144,455,0.541667,80,G5#,102,1
13080,15.57144,455,0.541667,83,B5,102,1
13080,15.57144,151,0.179762,56,G3#,102,2
13240,15.761916,151,0.179762,64,E4,98,2
13400,15.952392,151,0.179762,39,D2#,94,2
13400,15.952392,151,0.179762,51,D3#,94,2
13560,16.142869,455,0.541667,75,D5#,90,1
13560,16.142869,455,0.541667,87,D6#,90,1
13560,16.142869,455,0.541667,80,G5#,90,1
13560,16.142869,455,0.541667,83,B5,90,1
13560,16.142869,151,0.179762,44,G2#,90,2
13560,16.142869,455,0.541667,32,G1#,90,2
13560,16.142869,151,0.179762,44,G2#,90,2
13720,16.333345,151,0.179762,59,B3,88,2
13880,16.523821,151,0.179762,51,D3#,85,2
14040,16.714298,227,0.270238,73,C5#,82,1
14040,16.714298,227,0.270238,85,C6#,82,1
14040,16.714298,455,0.541667,75,D5#,82,1
14040,16.714298,455,0.541667,80,G5#,82,1
14040,16.714298,151,0.179762,56,G3#,82,2
14200,16.904774,151,0.179762,63,D4#,80,2
14280,17.000012,227,0.270239,71,B4,78,1
14280,17.000012,227,0.270239,83,B5,78,1
14360,17.09525,151,0.179762,44,G2#,77,2
14360,17.09525,151,0.179762,32,G1#,77,2
14360,17.09525,151,0.179762,44,G2#,77,2
14520,17.285727,227,0.270238,70,A4#,74,1
14520,17.285727,227,0.270238,82,A5#,74,1
14520,17.285727,455,0.541667,75,D5#,74,1
14520,17.285727,151,0.179762,41,F2,74,2
14520,17.285727,455,0.541667,29,F1,74,2
14520,17.285727,151,0.179762,41,F2,74,2
14680,17.476203,151,0.179762,59,B3,71,2
14760,17.571441,531,0.632144,68,G4#,70,1
14760,17.571441,531,0.632144,80,G5#,70,1
14840,17.666679,151,0.179762,51,D3#,69,2
15000,17.857156,303,0.360714,75,D5#,66,1
15000,17.857156,151,0.179762,56,G3#,66,2
15160,18.047632,151,0.179762,63,D4#,63,2
15320,18.238108,151,0.179762,66,F4#,60,1
15320,18.238108,151,0.179762,78,F5#,60,1
15320,18.238108,151,0.179762,71,B4,60,1
15320,18.238108,151,0.179762,75,D5#,60,1
15320,18.238108,151,0.179762,41,F2,60,2
15320,18.238108,151,0.179762,29,F1,60,2
15320,18.238108,151,0.179762,41,F2,60,2
15480,18.428585,455,0.541667,66,F4#,60,1
15480,18.428585,455,0.541667,78,F5#,60,1
15480,18.428585,911,1.084524,70,A4#,60,1
15480,18.428585,911,1.084524,74,D5,60,1
15480,18.428585,151,0.179762,46,A2#,60,2
15480,18.428585,455,0.541667,34,A1#,60,2
15480,18.428585,151,0.179762,46,A2#,60,2
15640,18.619061,151,0.179762,58,A3#,60,2
15800,18.809537,135,0.160715,46,A2#,60,2
15960,19.000014,455,0.541667,65,F4,60,1
15960,19.000014,455,0.541667,77,F5,60,1
15960,19.000014,151,0.179762,56,G3#,60,2
16120,19.19049,151,0.179762,62,D4,60,2
16280,19.380966,151,0.179762,53,F3,60,2
16280,19.380966,151,0.179762,41,F2,60,2
16280,19.380966,151,0.179762,53,F3,60,2
16440,19.571443,151,0.179762,46,A2#,60,2
16440,19.571443,455,0.541667,34,A1#,60,2
16440,19.571443,151,0.179762,46,A2#,60,2
16600,19.761919,151,0.179762,58,A3#,60,2
16760,19.952395,135,0.160715,46,A2#,60,2
16800,20.000015,113,0.134523,70,A4#,80,1
16800,20.000015,113,0.134523,82,A5#,80,1
16920,20.142872,227,0.270238,58,A3#,80,1
16920,20.142872,227,0.270238,70,A4#,80,1
16920,20.142872,151,0.179762,56,G3#,80,2
17080,20.333348,151,0.179762,62,D4,80,2
17240,20.523824,151,0.179762,46,A2#,80,2
17240,20.523824,151,0.179762,34,A1#,80,2
17240,20.523824,151,0.179762,46,A2#,80,2
17280,20.571444,113,0.134523,65,F4,80,1
17280,20.571444,113,0.134523,77,F5,80,1
17400,20.714301,911,1.084524,65,F4,96,1
17400,20.714301,911,1.084524,77,F5,96,1
17400,20.714301,911,1.084524,70,A4#,96,1
17400,20.714301,151,0.179762,39,D2#,96,2
17400,20.714301,227,0.270238,27,D1#,96,2
17400,20.714301,151,0.179762,39,D2#,96,2
17560,20.904777,151,0.179762,58,A3#,96,2
17720,21.095253,151,0.179762,46,A2#,96,2
17880,21.28573,151,0.179762,54,F3#,96,2
18040,21.476206,151,0.179762,70,A4#,96,2
18200,21.666682,151,0.179762,46,A2#,96,2
18360,21.857159,151,0.179762,63,D4#,96,1
18360,21.857159,151,0.179762,75,D5#,96,1
18360,21.857159,455,0.541667,70,A4#,96,1
18360,21.857159,151,0.179762,39,D2#,96,2
18360,21.857159,151,0.179762,54,F3#,96,2
18520,22.047635,151,0.179762,62,D4,96,1
18520,22.047635,151,0.179762,74,D5,96,1
18520,22.047635,151,0.179762,58,A3#,96,2
18680,22.238111,151,0.179762,63,D4#,96,1
18680,22.238111,151,0.179762,75,D5#,96,1
18680,22.238111,151,0.179762,46,A2#,96,2
18840,22.428588,113,0.134524,65,F4,96,1
18840,22.428588,113,0.134524,77,F5,96,1
18840,22.428588,227,0.270238,70,A4#,96,1
18840,22.428588,151,0.179762,54,F3#,96,2
18960,22.571445,113,0.134524,66,F4#,100,1
18960,22.571445,113,0.134524,78,F5#,100,1
19000,22.619064,151,0.179762,63,D4#,102,2
19080,22.714302,113,0.134524,70,A4#,105,1
19080,22.714302,113,0.134524,82,A5#,105,1
19080,22.714302,113,0.134524,75,D5#,105,1
19160,22.80954,151,0.179762,51,D3#,108,2
19160,22.80954,151,0.179762,39,D2#,108,2
19160,22.80954,151,0.179762,51,D3#,108,2
19260,22.928588,56,0.066667,73,C5#,112,1
19260,22.928588,56,0.066667,85,C6#,112,1
19320,23.000017,455,0.541667,73,C5#,112,1
19320,23.000017,455,0.541667,85,C6#,112,1
19320,23.000017,911,1.084524,78,F5#,112,1
19320,23.000017,151,0.179762,39,D2#,112,2
19320,23.000017,227,0.270238,27,D1#,112,2
19320,23.000017,151,0.179762,39,D2#,112,2
19480,23.190493,151,0.179762,59,B3,112,2
19640,23.380969,151,0.179762,47,B2,112,2
19800,23.571446,455,0.541667,71,B4,112,1
19800,23.571446,455,0.541667,83,B5,112,1
19800,23.571446,151,0.179762,54,F3#,112,2
19960,23.761922,151,0.179762,59,B3,112,2
19960,23.761922,151,0.179762,66,F4#,112,2
20120,23.952398,151,0.179762,47,B2,112,2
20280,24.142875,151,0.179762,39,D2#,112,2
20280,24.142875,151,0.179762,54,F3#,112,2
20440,24.333351,151,0.179762,59,B3,112,2
20600,24.523827,151,0.179762,47,B2,112,2
20640,24.571447,113,0.134523,71,B4,112,1
20640,24.571447,113,0.134523,83,B5,112,1
20760,24.714304,341,0.405952,59,B3,112,1
20760,24.714304,341,0.405952,71,B4,112,1
20760,24.714304,151,0.179762,54,F3#,112,2
20920,24.90478,151,0.179762,63,D4#,112,2
21080,25.095256,151,0.179762,59,B3,112,2
21080,25.095256,151,0.179762,47,B2,112,2
21080,25.095256,151,0.179762,59,B3,112,2
21120,25.142876,113,0.134523,66,F4#,112,1
21120,25.142876,113,0.134523,78,F5#,112,1
21240,25.285733,911,1.084524,66,F4#,112,1
21240,25.285733,911,1.084524,78,F5#,112,1
21240,25.285733,911,1.084524,71,B4,112,1
21240,25.285733,151,0.179762,39,D2#,112,2
21240,25.285733,227,0.270238,27,D1#,112,2
21240,25.285733,151,0.179762,39,D2#,112,2
21400,25.476209,151,0.179762,59,B3,112,2
21560,25.666685,151,0.179762,47,B2,112,2
21720,25.857162,151,0.179762,56,G3#,112,2
21880,26.047638,151,0.179762,71,B4,112,2
22040,26.238114,151,0.179762,47,B2,112,2
22200,26.428591,151,0.179762,64,E4,112,1
22200,26.428591,151,0.179762,76,E5,112,1
22200,26.428591,455,0.541667,71,B4,112,1
22200,26.428591,151,0.179762,39,D2#,112,2
22200,26.428591,151,0.179762,56,G3#,112,2
22360,26.619067,151,0.179762,63,D4#,112,1
22360,26.619067,151,0.179762,75,D5#,112,1
22360,26.619067,151,0.179762,59,B3,112,2
22520,26.809543,151,0.179762,64,E4,112,1
22520,26.809543,151,0.179762,76,E5,112,1
22520,26.809543,151,0.179762,47,B2,112,2
22680,27.00002,113,0.134524,66,F4#,112,1
22680,27.00002,113,0.134524,78,F5#,112,1
22680,27.00002,227,0.270238,71,B4,112,1
22680,27.00002,151,0.179762,56,G3#,112,2
22800,27.142877,113,0.134524,68,G4#,112,1
22800,27.142877,113,0.134524,80,G5#,112,1
22840,27.190496,151,0.179762,64,E4,112,2
22920,27.285734,113,0.134524,71,B4,112,1
22920,27.285734,113,0.134524,83,B5,112,1
22920,27.285734,113,0.134524,76,E5,112,1
23000,27.380972,151,0.179762,59,B3,112,2
23000,27.380972,151,0.179762,47,B2,112,2
23000,27.380972,151,0.179762,59,B3,112,2
23100,27.50002,56,0.066667,75,D5#,112,1
23100,27.50002,56,0.066667,87,D6#,112,1
23160,27.571449,455,0.541667,75,D5#,112,1
23160,27.571449,455,0.541667,87,D6#,112,1
23160,27.571449,455,0.541667,80,G5#,112,1
23160,27.571449,151,0.179762,39,D2#,112,2
23160,27.571449,227,0.270238,27,D1#,112,2
23160,27.571449,151,0.179762,39,D2#,112,2
23320,27.761925,151,0.179762,59,B3,112,2
23480,27.952401,151,0.179762,53,F3,112,2
23640,28.142878,455,0.541667,74,D5,112,1
23640,28.142878,455,0.541667,86,D6,112,1
23640,28.142878,455,0.541667,80,G5#,112,1
23640,28.142878,151,0.179762,56,G3#,112,2
23800,28.333354,151,0.179762,62,D4,112,2
23800,28.333354,151,0.179762,68,G4#,112,2
23960,28.52383,151,0.179762,47,B2,112,2
24120,28.714307,151,0.179762,39,D2#,112,2
24120,28.714307,151,0.179762,56,G3#,112,2
24280,28.904783,151,0.179762,59,B3,112,2
24440,29.095259,151,0.179762,51,D3#,112,2
24480,29.142879,113,0.134523,75,D5#,112,1
24480,29.142879,113,0.134523,87,D6#,112,1
24600,29.285736,341,0.405952,63,D4#,112,1
24600,29.285736,341,0.405952,75,D5#,112,1
24600,29.285736,151,0.179762,56,G3#,112,2
24760,29.476212,151,0.179762,59,B3,112,2
24760,29.476212,151,0.179762,68,G4#,112,2
24920,29.666688,151,0.179762,59,B3,112,2
24920,29.666688,151,0.179762,47,B2,112,2
24920,29.666688,151,0.179762,59,B3,112,2
24960,29.714308,113,0.134523,70,A4#,112,1
24960,29.714308,113,0.134523,82,A5#,112,1
25080,29.857165,911,1.084524,70,A4#,112,1
25080,29.857165,911,1.084524,82,A5#,112,1
25080,29.857165,911,1.084524,75,D5#,112,1
25080,29.857165,151,0.179762,39,D2#,112,2
25080,29.857165,227,0.270238,27,D1#,112,2
25080,29.857165,151,0.179762,39,D2#,112,2
25240,30.047641,151,0.179762,63,D4#,112,2
25400,30.238117,151,0.179762,51,D3#,112,2
25560,30.428594,151,0.179762,59,B3,112,2
25720,30.61907,151,0.179762,75,D5#,112,2
25880,30.809546,151,0.179762,47,B2,112,2
26040,31.000023,151,0.179762,68,G4#,112,1
26040,31.000023,151,0.179762,80,G5#,112,1
26040,31.000023,455,0.541667,75,D5#,112,1
26040,31.000023,151,0.179762,39,D2#,112,2
26040,31.000023,151,0.179762,56,G3#,112,2
26200,31.190499,151,0.179762,67,G4,112,1
26200,31.190499,151,0.179762,79,G5,112,1
26200,31.190499,151,0.179762,63,D4#,112,2
26360,31.380975,151,0.179762,68,G4#,112,1
26360,31.380975,151,0.179762,80,G5#,112,1
26360,31.380975,151,0.179762,51,D3#,112,2
26520,31.571452,113,0.134524,70,A4#,112,1
26520,31.571452,113,0.134524,82,A5#,112,1
26520,31.571452,227,0.270238,75,D5#,112,1
26520,31.571452,151,0.179762,59,B3,112,2
26640,31.714309,113,0.134524,71,B4,112,1
26640,31.714309,113,0.134524,83,B5,112,1
26680,31.761928,151,0.179762,68,G4#,112,2
26760,31.857166,113,0.134524,75,D5#,112,1
26760,31.857166,113,0.134524,87,D6#,112,1
26760,31.857166,113,0.134524,80,G5#,112,1
26840,31.952404,151,0.179762,56,G3#,112,2
26840,31.952404,151,0.179762,44,G2#,112,2
26840,31.952404,151,0.179762,56,G3#,112,2
26940,32.071452,56,0.066667,78,F5#,112,1
26940,32.071452,56,0.066667,90,F6#,112,1
27000,32.142881,455,0.541667,78,F5#,112,1
27000,32.142881,455,0.541667,90,F6#,112,1
27000,32.142881,455,0.541667,83,B5,112,1
27000,32.142881,151,0.179762,51,D3#,112,2
27000,32.142881,151,0.179762,39,D2#,112,2
27000,32.142881,151,0.179762,51,D3#,112,2
27160,32.333357,151,0.179762,59,B3,112,2
27320,32.523833,151,0.179762,50,D3,112,2
27480,32.71431,911,1.084524,77,F5,112,1
27480,32.71431,911,1.084524,89,F6,112,1
27480,32.71431,911,1.084524,83,B5,112,1
27480,32.71431,151,0.179762,56,G3#,112,2
27640,32.904786,151,0.179762,59,B3,112,2
27640,32.904786,151,0.179762,65,F4,112,2
27800,33.095262,151,0.179762,56,G3#,112,2
27800,33.095262,151,0.179762,44,G2#,112,2
27800,33.095262,151,0.179762,56,G3#,112,2
27960,33.285739,151,0.179762,51,D3#,112,2
27960,33.285739,151,0.179762,39,D2#,112,2
27960,33.285739,151,0.179762,51,D3#,112,2
28120,33.476215,151,0.179762,59,B3,112,2
28280,33.666691,151,0.179762,50,D3,112,2
28440,33.857168,455,0.622022,76,E5,112,1
28440,33.857168,455,0.622022,88,E6,112,1
28440,33.857168,455,0.622022,83,B5,112,1
28440,33.857168,151,0.179762,56,G3#,112,2
28600,34.047644,151,0.179762,59,B3,112,2
28600,34.047644,151,0.179762,64,E4,112,2
28760,34.23812,151,0.269641,51,D3#,112,2
28760,34.23812,151,0.269641,39,D2#,112,2
28760,34.23812,151,0.269641,51,D3#,112,2
28920,34.523833,455,0.631944,75,D5#,112,1
28920,34.523833,455,0.631944,87,D6#,112,1
28920,34.523833,455,0.631944,80,G5#,112,1
28920,34.523833,455,0.631944,83,B5,112,1
28920,34.523833,151,0.209722,44,G2#,112,2
28920,34.523833,151,0.209722,32,G1#,112,2
28920,34.523833,151,0.209722,44,G2#,112,2
29080,34.746055,151,0.209722,63,D4#,127,2
29240,34.968277,151,0.209722,51,D3#,112,2
29400,35.1905,227,0.270238,73,C5#,112,1
29400,35.1905,227,0.270238,85,C6#,112,1
29400,35.1905,455,0.662202,75,D5#,112,1
29400,35.1905,455,0.662202,80,G5#,112,1
29400,35.1905,151,0.179762,56,G3#,112,2
29560,35.380976,151,0.179762,63,D4#,112,2
29640,35.476214,227,0.401488,71,B4,112,1
29640,35.476214,227,0.401488,83,B5,112,1
29720,35.571452,151,0.314583,44,G2#,112,2
29720,35.571452,151,0.314583,32,G1#,112,2
29720,35.571452,151,0.314583,44,G2#,112,2
29880,35.904785,227,0.43802,70,A4#,70,1
29880,35.904785,227,0.43802,82,A5#,70,1
29880,35.904785,455,0.794271,73,C5#,70,1
29880,35.904785,455,0.794271,77,F5,70,1
29880,35.904785,151,0.314583,49,C3#,70,2
29880,35.904785,151,0.314583,37,C2#,70,2
29880,35.904785,151,0.314583,49,C3#,70,2
30040,36.238118,151,0.235938,61,C4#,70,2
30120,36.363118,531,0.82969,68,G4#,70,1
30120,36.363118,531,0.82969,80,G5#,70,1
30200,36.488118,151,0.235938,49,C3#,70,2
30360,36.738119,455,0.687501,73,C5#,70,1
30360,36.738119,455,0.687501,77,F5,70,1
30360,36.738119,151,0.235938,59,B3,70,2
30520,36.98812,151,0.235938,65,F4,70,2
30680,37.23812,151,0.209722,70,A4#,70,1
30680,37.23812,151,0.209722,82,A5#,70,1
30680,37.23812,151,0.209722,49,C3#,70,2
30680,37.23812,151,0.209722,37,C2#,70,2
30680,37.23812,151,0.209722,49,C3#,70,2
30840,37.460342,455,0.631945,68,G4#,70,1
30840,37.460342,455,0.631945,80,G5#,70,1
30840,37.460342,911,1.265278,73,C5#,70,1
30840,37.460342,151,0.209722,42,F2#,70,2
30840,37.460342,151,0.209722,30,F1#,70,2
30840,37.460342,151,0.209722,42,F2#,70,2
31000,37.682564,151,0.209722,61,C4#,70,2
31160,37.904787,151,0.209722,49,C3#,70,2
31320,38.127009,455,0.631945,66,F4#,70,1
31320,38.127009,455,0.631945,78,F5#,70,1
31320,38.127009,151,0.209722,58,A3#,70,2
31480,38.349231,151,0.209722,66,F4#,64,2
31640,38.571454,151,0.209722,49,C3#,57,2
31800,38.793676,151,0.209722,42,F2#,50,2
31800,38.793676,151,0.209722,54,F3#,50,2
31960,39.015898,151,0.209722,57,A3,50,2
32120,39.238121,151,0.194587,73,C5#,50,1
32120,39.238121,151,0.194587,85,C6#,50,1
32120,39.238121,151,0.194587,49,C3#,50,2
32280,39.444306,151,0.194587,68,G4#,50,1
32280,39.444306,151,0.194587,80,G5#,50,1
32280,39.444306,151,0.194587,54,F3#,50,2
32440,39.650491,151,0.194587,66,F4#,50,1
32440,39.650491,151,0.194587,78,F5#,50,1
32440,39.650491,151,0.194587,61,C4#,50,2
32600,39.856676,151,0.194587,68,G4#,50,1
32600,39.856676,151,0.194587,80,G5#,50,1
32600,39.856676,151,0.194587,49,C3#,50,2
32760,40.062861,151,0.179762,61,C4#,50,1
32760,40.062861,151,0.179762,73,C5#,50,1
32760,40.062861,151,0.179762,42,F2#,50,2
32760,40.062861,151,0.179762,54,F3#,50,2
32920,40.253337,151,0.179762,63,D4#,50,1
32920,40.253337,151,0.179762,75,D5#,50,1
32920,40.253337,151,0.179762,61,C4#,50,2
33080,40.443813,151,0.179762,64,E4,50,1
33080,40.443813,151,0.179762,76,E5,50,1
33080,40.443813,151,0.179762,49,C3#,50,2
33240,40.63429,607,0.722619,68,G4#,50,1
33240,40.63429,607,0.722619,80,G5#,50,1
33240,40.63429,151,0.179762,57,A3,50,2
33400,40.824766,151,0.179762,64,E4,50,2
33560,41.015242,151,0.179762,49,C3#,50,2
33720,41.205719,151,0.179762,42,F2#,50,2
33720,41.205719,151,0.179762,54,F3#,50,2
33880,41.396195,151,0.179762,66,F4#,50,1
33880,41.396195,151,0.179762,78,F5#,50,1
33880,41.396195,151,0.179762,61,C4#,50,2
34040,41.586671,151,0.179762,68,G4#,50,1
34040,41.586671,151,0.179762,80,G5#,50,1
34040,41.586671,151,0.179762,49,C3#,50,2
34200,41.777148,113,0.134523,69,A4,50,1
34200,41.777148,113,0.134523,81,A5,50,1
34200,41.777148,151,0.179762,54,F3#,50,2
34320,41.920005,113,0.134524,73,C5#,57,1
34320,41.920005,113,0.134524,85,C6#,57,1
34360,41.967624,151,0.179762,57,A3,60,2
34360,41.967624,151,0.179762,64,E4,60,2
34440,42.062862,113,0.134524,76,E5,65,1
34440,42.062862,113,0.134524,88,E6,65,1
34520,42.1581,151,0.179762,54,F3#,70,2
34520,42.1581,151,0.179762,42,F2#,70,2
34520,42.1581,151,0.179762,54,F3#,70,2
34620,42.277148,56,0.066667,80,G5#,70,1
34620,42.277148,56,0.066667,92,G6#,70,1
34680,42.348577,455,0.541667,80,G5#,70,1
34680,42.348577,455,0.541667,92,G6#,70,1
34680,42.348577,151,0.179762,49,C3#,70,2
34680,42.348577,151,0.179762,37,C2#,70,2
34680,42.348577,151,0.179762,49,C3#,70,2
34840,42.539053,151,0.179762,57,A3,70,2
35000,42.729529,151,0.179762,49,C3#,70,2
35160,42.920006,607,0.722619,78,F5#,60,1
35160,42.920006,607,0.722619,90,F6#,60,1
35160,42.920006,151,0.179762,54,F3#,60,2
35320,43.110482,151,0.179762,57,A3,60,2
35320,43.110482,151,0.179762,64,E4,60,2
35480,43.300958,151,0.179762,49,C3#,60,2
35640,43.491435,151,0.179762,37,C2#,60,2
35800,43.681911,151,0.179762,76,E5,60,1
35800,43.681911,151,0.179762,88,E6,60,1
35800,43.681911,151,0.179762,57,A3,60,2
35960,43.872387,151,0.179762,73,C5#,60,1
35960,43.872387,151,0.179762,85,C6#,60,1
35960,43.872387,151,0.179762,49,C3#,60,2
36120,44.062864,151,0.179762,69,A4,60,1
36120,44.062864,151,0.179762,81,A5,60,1
36120,44.062864,151,0.179762,54,F3#,60,2
36280,44.25334,151,0.179762,68,G4#,60,1
36280,44.25334,151,0.179762,80,G5#,60,1
36280,44.25334,151,0.179762,57,A3,60,2
36280,44.25334,151,0.179762,64,E4,60,2
36440,44.443816,151,0.179762,69,A4,60,1
36440,44.443816,151,0.179762,81,A5,60,1
36440,44.443816,151,0.179762,54,F3#,60,2
36440,44.443816,151,0.179762,42,F2#,60,2
36440,44.443816,151,0.179762,54,F3#,60,2
36600,44.634293,151,0.179762,66,F4#,60,1
36600,44.634293,151,0.179762,78,F5#,60,1
36600,44.634293,151,0.179762,49,C3#,60,2
36600,44.634293,151,0.179762,37,C2#,60,2
36600,44.634293,151,0.179762,49,C3#,60,2
36760,44.824769,151,0.179762,68,G4#,60,1
36760,44.824769,151,0.179762,80,G5#,60,1
36760,44.824769,151,0.179762,57,A3,60,2
36920,45.015245,151,0.179762,69,A4,60,1
36920,45.015245,151,0.179762,81,A5,60,1
36920,45.015245,151,0.179762,49,C3#,60,2
37080,45.205722,911,1.084524,78,F5#,60,1
37080,45.205722,911,1.084524,90,F6#,60,1
37080,45.205722,151,0.179762,54,F3#,60,2
37240,45.396198,151,0.179762,57,A3,60,2
37240,45.396198,151,0.179762,64,E4,60,2
37400,45.586674,151,0.179762,54,F3#,60,2
37400,45.586674,151,0.179762,42,F2#,60,2
37400,45.586674,151,0.179762,54,F3#,60,2
37560,45.777151,151,0.179762,48,C3,60,2
37720,45.967627,151,0.179762,57,A3,60,2
37880,46.158103,151,0.179762,48,C3,61,2
38040,46.34858,303,0.360714,76,E5,62,1
38040,46.34858,303,0.360714,88,E6,62,1
38040,46.34858,151,0.179762,54,F3#,62,2
38200,46.539056,151,0.179762,57,A3,63,2
38200,46.539056,151,0.179762,64,E4,63,2
38360,46.729532,151,0.179762,78,F5#,64,1
38360,46.729532,151,0.179762,90,F6#,64,1
38360,46.729532,151,0.179762,54,F3#,64,2
38360,46.729532,151,0.179762,42,F2#,64,2
38360,46.729532,151,0.179762,54,F3#,64,2
38520,46.920009,455,0.541667,76,E5,65,1
38520,46.920009,455,0.541667,88,E6,65,1
38520,46.920009,151,0.179762,47,B2,65,2
38520,46.920009,303,0.360714,35,B1,65,2
38520,46.920009,151,0.179762,47,B2,65,2
38680,47.110485,151,0.179762,57,A3,65,2
38840,47.300961,151,0.179762,47,B2,65,2
39000,47.491438,303,0.360714,75,D5#,65,1
39000,47.491438,303,0.360714,87,D6#,65,1
39000,47.491438,151,0.179762,54,F3#,65,2
39160,47.681914,151,0.179762,57,A3,65,2
39160,47.681914,151,0.179762,63,D4#,65,2
39320,47.87239,151,0.179762,73,C5#,64,1
39320,47.87239,151,0.179762,85,C6#,64,1
39320,47.87239,151,0.179762,47,B2,64,2
39480,48.062867,151,0.179762,71,B4,64,1
39480,48.062867,151,0.179762,83,B5,64,1
39480,48.062867,151,0.179762,35,B1,64,2
39480,48.062867,151,0.179762,35,B1,64,2
39640,48.253343,151,0.179762,69,A4,63,1
39640,48.253343,151,0.179762,81,A5,63,1
39640,48.253343,151,0.179762,57,A3,63,2
39800,48.443819,151,0.179762,68,G4#,63,1
39800,48.443819,151,0.179762,80,G5#,63,1
39800,48.443819,151,0.179762,47,B2,63,2
39960,48.634296,151,0.179762,66,F4#,62,1
39960,48.634296,151,0.179762,78,F5#,62,1
39960,48.634296,151,0.179762,54,F3#,62,2
40120,48.824772,151,0.179762,64,E4,62,1
40120,48.824772,151,0.179762,76,E5,62,1
40120,48.824772,151,0.179762,57,A3,62,2
40120,48.824772,151,0.179762,60,C4,62,2
40280,49.015248,151,0.179762,66,F4#,61,1
40280,49.015248,151,0.179762,78,F5#,61,1
40280,49.015248,151,0.179762,47,B2,61,2
40440,49.205725,151,0.179762,59,B3,60,1
40440,49.205725,151,0.179762,71,B4,60,1
40440,49.205725,151,0.179762,40,E2,60,2
40440,49.205725,151,0.179762,52,E3,60,2
40600,49.396201,151,0.179762,61,C4#,60,1
40600,49.396201,151,0.179762,73,C5#,60,1
40600,49.396201,151,0.179762,55,G3,60,2
40760,49.586677,151,0.179762,62,D4,60,1
40760,49.586677,151,0.179762,74,D5,60,1
40760,49.586677,151,0.179762,47,B2,60,2
40920,49.777154,607,0.722619,66,F4#,60,1
40920,49.777154,607,0.722619,78,F5#,60,1
40920,49.777154,151,0.179762,52,E3,60,2
41080,49.96763,151,0.179762,55,G3,60,2
41080,49.96763,151,0.179762,62,D4,60,2
41240,50.158106,151,0.179762,47,B2,60,2
41400,50.348583,151,0.179762,40,E2,60,2
41400,50.348583,151,0.179762,52,E3,60,2
41560,50.539059,151,0.179762,64,E4,60,1
41560,50.539059,151,0.179762,76,E5,60,1
41560,50.539059,151,0.179762,55,G3,60,2
41720,50.729535,151,0.179762,66,F4#,60,1
41720,50.729535,151,0.179762,78,F5#,60,1
41720,50.729535,151,0.179762,47,B2,60,2
41880,50.920012,113,0.134523,67,G4,60,1
41880,50.920012,113,0.134523,79,G5,60,1
41880,50.920012,151,0.179762,52,E3,60,2
42000,51.062869,113,0.134524,71,B4,75,1
42000,51.062869,113,0.134524,83,B5,75,1
42040,51.110488,151,0.179762,55,G3,80,2
42040,51.110488,151,0.179762,62,D4,80,2
42120,51.205726,113,0.134524,74,D5,90,1
42120,51.205726,113,0.134524,86,D6,90,1
42200,51.300964,151,0.179762,52,E3,100,2
42200,51.300964,151,0.179762,40,E2,100,2
42200,51.300964,151,0.179762,52,E3,100,2
42300,51.420012,56,0.066667,78,F5#,100,1
42300,51.420012,56,0.066667,90,F6#,100,1
42360,51.491441,455,0.541667,78,F5#,100,1
42360,51.491441,455,0.541667,90,F6#,100,1
42360,51.491441,151,0.179762,47,B2,100,2
42360,51.491441,303,0.360714,35,B1,100,2
42360,51.491441,151,0.179762,47,B2,100,2
42520,51.681917,151,0.179762,55,G3,100,2
42680,51.872393,151,0.179762,47,B2,100,2
42840,52.06287,607,0.722619,76,E5,80,1
42840,52.06287,607,0.722619,88,E6,80,1
42840,52.06287,151,0.179762,52,E3,80,2
43000,52.253346,151,0.179762,55,G3,80,2
43000,52.253346,151,0.179762,62,D4,80,2
43160,52.443822,151,0.179762,47,B2,80,2
43320,52.634299,151,0.179762,35,B1,80,2
43480,52.824775,151,0.179762,74,D5,80,1
43480,52.824775,151,0.179762,86,D6,80,1
43480,52.824775,151,0.179762,55,G3,80,2
43640,53.015251,151,0.179762,71,B4,80,1
43640,53.015251,151,0.179762,83,B5,80,1
43640,53.015251,151,0.179762,47,B2,80,2
43800,53.205728,151,0.179762,67,G4,80,1
43800,53.205728,151,0.179762,79,G5,80,1
43800,53.205728,151,0.179762,52,E3,80,2
43960,53.396204,151,0.179762,66,F4#,80,1
43960,53.396204,151,0.179762,78,F5#,80,1
43960,53.396204,151,0.179762,55,G3,80,2
43960,53.396204,151,0.179762,62,D4,80,2
44120,53.58668,151,0.179762,67,G4,80,1
44120,53.58668,151,0.179762,79,G5,80,1
44120,53.58668,151,0.179762,52,E3,80,2
44120,53.58668,151,0.179762,40,E2,80,2
44120,53.58668,151,0.179762,52,E3,80,2
44280,53.777157,151,0.179762,64,E4,80,1
44280,53.777157,151,0.179762,76,E5,80,1
44280,53.777157,151,0.179762,47,B2,80,2
44280,53.777157,303,0.360714,35,B1,80,2
44280,53.777157,151,0.179762,47,B2,80,2
44440,53.967633,151,0.179762,66,F4#,80,1
44440,53.967633,151,0.179762,78,F5#,80,1
44440,53.967633,151,0.179762,55,G3,80,2
44600,54.158109,151,0.179762,67,G4,80,1
44600,54.158109,151,0.179762,79,G5,80,1
44600,54.158109,151,0.179762,47,B2,80,2
44760,54.348586,911,1.084524,76,E5,80,1
44760,54.348586,911,1.084524,88,E6,80,1
44760,54.348586,151,0.179762,52,E3,80,2
44920,54.539062,151,0.179762,55,G3,82,2
44920,54.539062,151,0.179762,62,D4,82,2
45080,54.729538,151,0.179762,52,E3,84,2
45240,54.920015,151,0.179762,46,A2#,86,2
45240,54.920015,303,0.360714,34,A1#,86,2
45240,54.920015,151,0.179762,46,A2#,86,2
45400,55.110491,151,0.179762,55,G3,88,2
45560,55.300967,151,0.179762,46,A2#,91,2
45720,55.491444,303,0.360714,74,D5,93,1
45720,55.491444,303,0.360714,86,D6,93,1
45720,55.491444,151,0.179762,52,E3,93,2
45880,55.68192,151,0.179762,55,G3,95,2
45880,55.68192,151,0.179762,62,D4,95,2
46040,55.872396,151,0.179762,76,E5,97,1
46040,55.872396,151,0.179762,88,E6,97,1
46040,55.872396,151,0.179762,52,E3,97,2
46040,55.872396,151,0.179762,40,E2,97,2
46040,55.872396,151,0.179762,52,E3,97,2
46200,56.062873,455,0.541667,74,D5,100,1
46200,56.062873,455,0.541667,86,D6,100,1
46200,56.062873,151,0.179762,45,A2,100,2
46200,56.062873,303,0.360714,33,A1,100,2
46200,56.062873,151,0.179762,45,A2,100,2
46360,56.253349,151,0.179762,55,G3,100,2
46520,56.443825,151,0.179762,45,A2,100,2
46680,56.634302,303,0.360714,73,C5#,100,1
46680,56.634302,303,0.360714,85,C6#,100,1
46680,56.634302,151,0.179762,52,E3,100,2
46840,56.824778,151,0.179762,55,G3,100,2
46840,56.824778,151,0.179762,61,C4#,100,2
47000,57.015254,151,0.179762,71,B4,100,1
47000,57.015254,151,0.179762,83,B5,100,1
47000,57.015254,151,0.179762,40,E2,100,2
47000,57.015254,151,0.179762,52,E3,100,2
47160,57.205731,151,0.179762,69,A4,100,1
47160,57.205731,151,0.179762,81,A5,100,1
47160,57.205731,151,0.179762,33,A1,100,2
47160,57.205731,151,0.179762,45,A2,100,2
47320,57.396207,151,0.179762,67,G4,100,1
47320,57.396207,151,0.179762,79,G5,100,1
47320,57.396207,151,0.179762,55,G3,100,2
47480,57.586683,151,0.179762,66,F4#,100,1
47480,57.586683,151,0.179762,78,F5#,100,1
47480,57.586683,151,0.179762,45,A2,100,2
47640,57.77716,151,0.179762,64,E4,100,1
47640,57.77716,151,0.179762,76,E5,100,1
47640,57.77716,151,0.179762,52,E3,100,2
47800,57.967636,151,0.179762,62,D4,100,1
47800,57.967636,151,0.179762,74,D5,100,1
47800,57.967636,151,0.179762,55,G3,100,2
47800,57.967636,151,0.179762,58,A3#,100,2
47960,58.158112,151,0.179762,64,E4,100,1
47960,58.158112,151,0.179762,76,E5,100,1
47960,58.158112,151,0.179762,45,A2,100,2
48120,58.348589,151,0.179762,57,A3,100,1
48120,58.348589,151,0.179762,69,A4,100,1
48120,58.348589,151,0.179762,50,D3,100,2
48120,58.348589,151,0.179762,38,D2,100,2
48120,58.348589,151,0.179762,50,D3,100,2
48280,58.539065,151,0.179762,61,C4#,100,1
48280,58.539065,151,0.179762,73,C5#,100,1
48280,58.539065,151,0.179762,57,A3,100,2
48440,58.729541,151,0.179762,62,D4,100,1
48440,58.729541,151,0.179762,74,D5,100,1
48440,58.729541,151,0.179762,45,A2,100,2
48600,58.920018,683,0.813095,69,A4,100,1
48600,58.920018,683,0.813095,74,D5,100,1
48600,58.920018,683,0.813095,81,A5,100,1
48600,58.920018,151,0.179762,54,F3#,100,2
48760,59.110494,151,0.179762,62,D4,100,2
48920,59.30097,151,0.179762,45,A2,100,2
48920,59.30097,151,0.179762,33,A1,100,2
48920,59.30097,151,0.179762,45,A2,100,2
49080,59.491447,151,0.179762,38,D2,100,2
49080,59.491447,151,0.179762,26,D1,100,2
49080,59.491447,151,0.179762,38,D2,100,2
49240,59.681923,151,0.179762,57,A3,100,2
49320,59.777161,391,0.449845,69,A4,120,1
49320,59.777161,391,0.449845,73,C5#,120,1
49320,59.777161,391,0.449845,78,F5#,120,1
49320,59.777161,391,0.449845,81,A5,120,1
49400,59.872399,151,0.179762,45,A2,100,2
49560,60.062876,151,0.16413,54,F3#,100,2
49720,60.236788,151,0.16413,61,C4#,100,2
49880,60.410701,159,0.172826,69,A4,120,1
49880,60.410701,159,0.172826,73,C5#,120,1
49880,60.410701,159,0.172826,78,F5#,120,1
49880,60.410701,159,0.172826,81,A5,120,1
49880,60.410701,151,0.16413,38,D2,100,2
49880,60.410701,151,0.16413,26,D1,100,2
49880,60.410701,151,0.16413,38,D2,100,2
50040,60.584614,455,0.494564,69,A4,100,1
50040,60.584614,455,0.494564,72,C5,100,1
50040,60.584614,455,0.494564,78,F5#,100,1
50040,60.584614,455,0.494564,81,A5,100,1
50040,60.584614,151,0.16413,44,G2#,100,2
50040,60.584614,303,0.329347,32,G1#,100,2
50040,60.584614,151,0.16413,44,G2#,100,2
50200,60.758526,151,0.16413,54,F3#,97,2
50360,60.932439,151,0.16413,44,G2#,94,2
50520,61.106352,455,0.494564,68,G4#,90,1
50520,61.106352,455,0.494564,72,C5,90,1
50520,61.106352,455,0.494564,78,F5#,90,1
50520,61.106352,455,0.494564,80,G5#,90,1
50520,61.106352,151,0.16413,51,D3#,90,2
50680,61.280264,151,0.16413,60,C4,90,2
50840,61.454177,151,0.16413,51,D3#,90,2
50840,61.454177,151,0.16413,39,D2#,90,2
50840,61.454177,151,0.16413,51,D3#,90,2
51000,61.62809,151,0.16413,44,G2#,90,2
51000,61.62809,303,0.329347,32,G1#,90,2
51000,61.62809,151,0.16413,44,G2#,90,2
51160,61.802002,151,0.16413,54,F3#,90,2
51320,61.975915,151,0.16413,68,G4#,90,1
51320,61.975915,151,0.16413,80,G5#,90,1
51320,61.975915,151,0.16413,44,G2#,90,2
51480,62.149828,151,0.16413,63,D4#,90,1
51480,62.149828,151,0.16413,75,D5#,90,1
51480,62.149828,151,0.16413,51,D3#,90,2
51640,62.32374,151,0.16413,61,C4#,93,1
51640,62.32374,151,0.16413,73,C5#,93,1
51640,62.32374,151,0.16413,57,A3,93,2
51800,62.497653,151,0.16413,63,D4#,96,1
51800,62.497653,151,0.16413,75,D5#,96,1
51800,62.497653,151,0.16413,44,G2#,96,2
51960,62.671566,151,0.16413,56,G3#,100,1
51960,62.671566,151,0.16413,68,G4#,100,1
51960,62.671566,151,0.16413,49,C3#,100,2
51960,62.671566,303,0.329347,37,C2#,100,2
51960,62.671566,151,0.16413,49,C3#,100,2
52120,62.845478,151,0.16413,60,C4,100,1
52120,62.845478,151,0.16413,72,C5,100,1
52120,62.845478,151,0.16413,56,G3#,100,2
52280,63.019391,151,0.16413,61,C4#,100,1
52280,63.019391,151,0.16413,73,C5#,100,1
52280,63.019391,151,0.16413,44,G2#,100,2
52440,63.193304,683,0.742389,68,G4#,100,1
52440,63.193304,683,0.742389,73,C5#,100,1
52440,63.193304,683,0.742389,80,G5#,100,1
52440,63.193304,151,0.16413,52,E3,100,2
52600,63.367216,151,0.16413,61,C4#,100,2
52760,63.541129,151,0.16413,44,G2#,100,2
52760,63.541129,151,0.16413,32,G1#,100,2
52760,63.541129,151,0.16413,44,G2#,100,2
52920,63.715042,151,0.16413,37,C2#,100,2
52920,63.715042,303,0.329347,25,C1#,100,2
52920,63.715042,151,0.16413,37,C2#,100,2
53080,63.888954,151,0.16413,52,E3,100,2
53160,63.975911,543,0.563869,67,G4,120,1
53160,63.975911,543,0.563869,71,B4,120,1
53160,63.975911,543,0.563869,76,E5,120,1
53160,63.975911,543,0.563869,79,G5,120,1
53240,64.062867,151,0.16413,43,G2,100,2
53400,64.23678,151,0.151,52,E3,100,2
53560,64.39678,151,0.151,59,B3,100,2
53720,64.55678,159,0.159,67,G4,120,1
53720,64.55678,159,0.159,71,B4,120,1
53720,64.55678,159,0.159,76,E5,120,1
53720,64.55678,159,0.159,79,G5,120,1
53720,64.55678,151,0.151,37,C2#,100,2
53720,64.55678,151,0.151,25,C1#,100,2
53720,64.55678,151,0.151,37,C2#,100,2
53880,64.716781,455,0.455,67,G4,100,1
53880,64.716781,455,0.455,70,A4#,100,1
53880,64.716781,455,0.455,76,E5,100,1
53880,64.716781,455,0.455,79,G5,100,1
53880,64.716781,151,0.151,42,F2#,100,2
53880,64.716781,303,0.303,30,F1#,100,2
53880,64.716781,151,0.151,42,F2#,100,2
54040,64.876781,151,0.151,52,E3,95,2
54200,65.036781,151,0.151,42,F2#,90,2
54360,65.196782,455,0.455,66,F4#,85,1
54360,65.196782,455,0.455,70,A4#,85,1
54360,65.196782,455,0.455,76,E5,85,1
54360,65.196782,455,0.455,78,F5#,85,1
54360,65.196782,151,0.151,49,C3#,85,2
54520,65.356782,151,0.151,58,A3#,85,2
54680,65.516782,151,0.151,49,C3#,85,2
54680,65.516782,151,0.151,37,C2#,85,2
54680,65.516782,151,0.151,49,C3#,85,2
54840,65.676783,151,0.151,42,F2#,85,2
54840,65.676783,303,0.303,30,F1#,85,2
54840,65.676783,151,0.151,42,F2#,85,2
55000,65.836783,151,0.151,52,E3,85,2
55160,65.996783,151,0.151,66,F4#,85,1
55160,65.996783,151,0.151,78,F5#,85,1
55160,65.996783,151,0.151,42,F2#,85,2
55320,66.156784,151,0.151,61,C4#,85,1
55320,66.156784,151,0.151,73,C5#,85,1
55320,66.156784,151,0.151,49,C3#,85,2
55480,66.316784,151,0.151,59,B3,94,1
55480,66.316784,151,0.151,71,B4,94,1
55480,66.316784,151,0.151,54,F3#,94,2
55640,66.476784,151,0.151,61,C4#,103,1
55640,66.476784,151,0.151,73,C5#,103,1
55640,66.476784,151,0.151,42,F2#,103,2
55640,66.476784,151,0.151,30,F1#,103,2
55640,66.476784,151,0.151,42,F2#,103,2
55800,66.636785,151,0.151,54,F3#,112,1
55800,66.636785,151,0.151,66,F4#,112,1
55800,66.636785,151,0.151,35,B1,112,2
55800,66.636785,303,0.303,23,B0,112,2
55800,66.636785,151,0.151,35,B1,112,2
55960,66.796785,151,0.151,58,A3#,112,1
55960,66.796785,151,0.151,70,A4#,112,1
55960,66.796785,151,0.151,54,F3#,112,2
56120,66.956785,151,0.151,59,B3,112,1
56120,66.956785,151,0.151,71,B4,112,1
56120,66.956785,151,0.151,42,F2#,112,2
56280,67.116786,911,0.911001,66,F4#,112,1
56280,67.116786,911,0.911001,71,B4,112,1
56280,67.116786,911,0.911001,78,F5#,112,1
56280,67.116786,151,0.151,51,D3#,112,2
56440,67.276786,151,0.151,59,B3,112,2
56600,67.436786,151,0.151,54,F3#,112,2
56600,67.436786,151,0.151,42,F2#,112,2
56600,67.436786,151,0.151,54,F3#,112,2
56760,67.596787,151,0.151,47,B2,112,2
56760,67.596787,303,0.303,35,B1,112,2
56760,67.596787,151,0.151,47,B2,112,2
56920,67.756787,151,0.151,54,F3#,112,2
57080,67.916787,151,0.151,42,F2#,112,2
57240,68.076788,303,0.360714,65,F4,112,1
57240,68.076788,303,0.360714,69,A4,112,1
57240,68.076788,303,0.360714,77,F5,112,1
57240,68.076788,151,0.179762,51,D3#,112,2
57400,68.267264,151,0.179762,57,A3,112,2
57560,68.45774,151,0.251666,63,D4#,112,1
57560,68.45774,151,0.251666,69,A4,112,1
57560,68.45774,151,0.251666,75,D5#,112,1
57560,68.45774,151,0.251666,54,F3#,112,2
57560,68.45774,151,0.251666,42,F2#,112,2
57560,68.45774,151,0.251666,54,F3#,112,2
57720,68.724406,151,0.179762,58,A3#,112,1
57720,68.724406,151,0.179762,63,D4#,112,1
57720,68.724406,151,0.179762,70,A4#,112,1
57720,68.724406,151,0.179762,46,A2#,112,2
57720,68.724406,303,0.360714,34,A1#,112,2
57720,68.724406,151,0.179762,46,A2#,112,2
57880,68.914882,151,0.179762,62,D4,112,1
57880,68.914882,151,0.179762,74,D5,112,1
57880,68.914882,151,0.179762,58,A3#,112,2
58040,69.105358,151,0.179762,63,D4#,112,1
58040,69.105358,151,0.179762,75,D5#,112,1
58040,69.105358,151,0.179762,46,A2#,112,2
58200,69.295835,455,0.541667,70,A4#,112,1
58200,69.295835,455,0.541667,75,D5#,112,1
58200,69.295835,455,0.541667,82,A5#,112,1
58200,69.295835,151,0.179762,54,F3#,112,2
58360,69.486311,151,0.179762,63,D4#,112,2
58520,69.676787,151,0.179762,54,F3#,112,2
58520,69.676787,151,0.179762,42,F2#,112,2
58520,69.676787,151,0.179762,54,F3#,112,2
58680,69.867264,151,0.16413,58,A3#,112,1
58680,69.867264,151,0.16413,63,D4#,112,1
58680,69.867264,151,0.16413,70,A4#,112,1
58680,69.867264,151,0.16413,46,A2#,112,2
58680,69.867264,303,0.329347,34,A1#,112,2
58680,69.867264,151,0.16413,46,A2#,112,2
58840,70.041176,151,0.16413,62,D4,112,1
58840,70.041176,151,0.16413,74,D5,112,1
58840,70.041176,151,0.16413,58,A3#,112,2
59000,70.215089,151,0.16413,63,D4#,112,1
59000,70.215089,151,0.16413,75,D5#,112,1
59000,70.215089,151,0.16413,46,A2#,112,2
59160,70.389002,455,0.494564,71,B4,112,1
59160,70.389002,455,0.494564,75,D5#,112,1
59160,70.389002,455,0.494564,83,B5,112,1
59160,70.389002,151,0.16413,54,F3#,112,2
59320,70.562914,151,0.16413,63,D4#,112,2
59480,70.736827,151,0.16413,54,F3#,112,2
59480,70.736827,151,0.16413,42,F2#,112,2
59480,70.736827,151,0.16413,54,F3#,112,2
59640,70.91074,151,0.151,59,B3,112,1
59640,70.91074,151,0.151,71,B4,112,1
59640,70.91074,151,0.151,34,A1#,112,2
59640,70.91074,151,0.151,46,A2#,112,2
59800,71.07074,151,0.151,63,D4#,112,1
59800,71.07074,151,0.151,75,D5#,112,1
59800,71.07074,159,0.159,59,B3,127,2
59960,71.23074,151,0.151,65,F4,112,1
59960,71.23074,151,0.151,77,F5,112,1
59960,71.23074,159,0.159,53,F3,127,2
60120,71.390741,303,0.303,71,B4,112,1
60120,71.390741,303,0.303,75,D5#,112,1
60120,71.390741,303,0.303,83,B5,112,1
60120,71.390741,159,0.159,56,G3#,127,2
60280,71.550741,151,0.151,63,D4#,112,2
60440,71.710741,159,0.159,70,A4#,127,1
60440,71.710741,159,0.159,75,D5#,127,1
60440,71.710741,159,0.159,82,A5#,127,1
60440,71.710741,159,0.159,59,B3,127,2
60440,71.710741,159,0.159,63,D4#,127,2
60440,71.710741,159,0.159,71,B4,127,2
60600,71.870742,151,0.151,70,A4#,127,1
60600,71.870742,319,0.319,82,A5#,127,1
60600,71.870742,151,0.151,70,A4#,112,1
60600,71.870742,151,0.151,75,D5#,112,1
60600,71.870742,159,0.159,59,B3,127,2
60600,71.870742,159,0.159,63,D4#,127,2
60600,71.870742,159,0.159,71,B4,127,2
60760,72.030742,151,0.151,70,A4#,112,1
60760,72.030742,151,0.151,75,D5#,112,1
60760,72.030742,151,0.151,59,B3,112,2
60760,72.030742,151,0.151,63,D4#,112,2
60760,72.030742,151,0.151,71,B4,112,2
60920,72.190742,151,0.151,68,G4#,112,1
60920,72.190742,151,0.151,80,G5#,112,1
60920,72.190742,151,0.151,75,D5#,112,1
60920,72.190742,151,0.151,59,B3,112,2
60920,72.190742,151,0.151,63,D4#,112,2
60920,72.190742,151,0.151,71,B4,112,2
61080,72.350743,151,0.151,68,G4#,112,1
61080,72.350743,455,0.455,80,G5#,112,1
61080,72.350743,151,0.151,68,G4#,112,1
61080,72.350743,151,0.151,75,D5#,112,1
61080,72.350743,151,0.151,59,B3,112,2
61080,72.350743,151,0.151,63,D4#,112,2
61080,72.350743,151,0.151,71,B4,112,2
61240,72.510743,151,0.151,68,G4#,112,1
61240,72.510743,151,0.151,75,D5#,112,1
61240,72.510743,151,0.151,59,B3,112,2
61240,72.510743,151,0.151,63,D4#,112,2
61240,72.510743,151,0.151,71,B4,112,2
61400,72.670743,135,0.135,68,G4#,112,1
61400,72.670743,151,0.151,75,D5#,112,1
61400,72.670743,151,0.151,53,F3,112,2
61400,72.670743,151,0.151,41,F2,112,2
61400,72.670743,151,0.151,53,F3,112,2
61560,72.830744,151,0.179762,58,A3#,112,1
61560,72.830744,151,0.179762,70,A4#,112,1
61560,72.830744,151,0.179762,46,A2#,112,2
61560,72.830744,303,0.360714,34,A1#,112,2
61560,72.830744,151,0.179762,46,A2#,112,2
61720,73.02122,151,0.179762,61,C4#,112,1
61720,73.02122,151,0.179762,73,C5#,112,1
61720,73.02122,151,0.179762,58,A3#,112,2
61880,73.211696,151,0.179762,62,D4,112,1
61880,73.211696,151,0.179762,74,D5,112,1
61880,73.211696,151,0.179762,53,F3,112,2
62040,73.402173,455,0.541667,70,A4#,112,1
62040,73.402173,455,0.541667,82,A5#,112,1
62040,73.402173,151,0.179762,56,G3#,112,2
62200,73.592649,151,0.179762,62,D4,112,2
62360,73.783125,151,0.179762,56,G3#,112,2
62360,73.783125,151,0.179762,62,D4,112,2
62360,73.783125,151,0.179762,68,G4#,112,2
62520,73.973602,151,0.179762,56,G3#,112,2
62520,73.973602,151,0.179762,62,D4,112,2
62520,73.973602,151,0.179762,68,G4#,112,2
62680,74.164078,151,0.179762,56,G3#,112,2
62680,74.164078,151,0.179762,62,D4,112,2
62840,74.354554,151,0.232619,56,G3#,112,2
62840,74.354554,151,0.232619,62,D4,112,2
62880,74.402173,113,0.188333,70,A4#,112,1
62880,74.402173,113,0.188333,82,A5#,112,1
63000,74.602173,341,0.573717,58,A3#,112,1
63000,74.602173,341,0.573717,70,A4#,112,1
63000,74.602173,151,0.251666,56,G3#,112,2
63000,74.602173,151,0.251666,62,D4,112,2
63160,74.868839,151,0.251667,56,G3#,112,2
63160,74.868839,151,0.251667,62,D4,112,2
63320,75.135506,151,0.290385,46,A2#,112,2
63320,75.135506,151,0.290385,34,A1#,112,2
63320,75.135506,151,0.290385,46,A2#,112,2
63360,75.212429,113,0.217308,65,F4,112,1
63360,75.212429,113,0.217308,77,F5,112,1
63480,75.443199,311,0.471823,65,F4,112,1
63480,75.443199,911,1.123995,77,F5,112,1
63480,75.443199,151,0.290385,39,D2#,112,2
63480,75.443199,319,0.480518,27,D1#,127,2
63480,75.443199,151,0.290385,39,D2#,127,2
63640,75.750892,151,0.16413,65,F4,112,1
63640,75.750892,151,0.16413,70,A4#,112,1
63640,75.750892,151,0.16413,46,A2#,112,2
63640,75.750892,151,0.16413,54,F3#,112,2
63640,75.750892,151,0.16413,58,A3#,112,2
63800,75.924804,151,0.16413,65,F4,112,1
63800,75.924804,151,0.16413,70,A4#,112,1
63800,75.924804,151,0.16413,46,A2#,112,2
63800,75.924804,151,0.16413,54,F3#,112,2
63800,75.924804,151,0.16413,58,A3#,112,2
63960,76.098717,151,0.16413,65,F4,112,1
63960,76.098717,151,0.16413,70,A4#,112,1
63960,76.098717,151,0.16413,46,A2#,112,2
63960,76.098717,151,0.16413,54,F3#,112,2
63960,76.098717,151,0.16413,58,A3#,112,2
64120,76.27263,151,0.16413,65,F4,112,1
64120,76.27263,151,0.16413,70,A4#,112,1
64120,76.27263,151,0.16413,46,A2#,112,2
64120,76.27263,151,0.16413,54,F3#,112,2
64120,76.27263,151,0.16413,58,A3#,112,2
64280,76.446542,111,0.120652,65,F4,112,1
64280,76.446542,151,0.16413,70,A4#,112,1
64280,76.446542,151,0.16413,46,A2#,112,2
64280,76.446542,151,0.16413,54,F3#,112,2
64280,76.446542,151,0.16413,58,A3#,112,2
64440,76.620455,151,0.179762,63,D4#,112,1
64440,76.620455,151,0.179762,70,A4#,112,1
64440,76.620455,151,0.179762,75,D5#,112,1
64440,76.620455,151,0.179762,54,F3#,112,2
64440,76.620455,151,0.179762,58,A3#,112,2
64440,76.620455,151,0.179762,66,F4#,112,2
64600,76.810931,151,0.179762,62,D4,112,1
64600,76.810931,151,0.179762,70,A4#,112,1
64600,76.810931,151,0.179762,74,D5,112,1
64600,76.810931,151,0.179762,46,A2#,112,2
64600,76.810931,151,0.179762,54,F3#,112,2
64600,76.810931,151,0.179762,58,A3#,112,2
64760,77.001407,151,0.179762,63,D4#,112,1
64760,77.001407,151,0.179762,70,A4#,112,1
64760,77.001407,151,0.179762,75,D5#,112,1
64760,77.001407,151,0.179762,46,A2#,112,2
64760,77.001407,151,0.179762,54,F3#,112,2
64760,77.001407,151,0.179762,58,A3#,112,2
64920,77.191884,113,0.134523,65,F4,112,1
64920,77.191884,113,0.134523,77,F5,112,1
64920,77.191884,227,0.270238,70,A4#,112,1
64920,77.191884,151,0.179762,51,D3#,112,2
64920,77.191884,151,0.179762,58,A3#,112,2
64920,77.191884,151,0.179762,63,D4#,112,2
65040,77.334741,113,0.134524,66,F4#,116,1
65040,77.334741,113,0.134524,78,F5#,116,1
65080,77.38236,151,0.179762,63,D4#,117,2
65080,77.38236,151,0.179762,66,F4#,117,2
65160,77.477598,113,0.134524,70,A4#,120,1
65160,77.477598,113,0.134524,82,A5#,120,1
65160,77.477598,113,0.134524,75,D5#,120,1
65240,77.572836,151,0.179762,51,D3#,122,2
65240,77.572836,151,0.179762,39,D2#,122,2
65240,77.572836,151,0.179762,51,D3#,122,2
65340,77.691884,56,0.066667,73,C5#,126,1
65340,77.691884,56,0.066667,85,C6#,126,1
65400,77.763313,311,0.471823,73,C5#,126,1
65400,77.763313,455,0.628344,85,C6#,126,1
65400,77.763313,151,0.290385,39,D2#,126,2
65400,77.763313,319,0.480518,27,D1#,127,2
65400,77.763313,151,0.290385,39,D2#,127,2
65560,78.071006,151,0.16413,73,C5#,126,1
65560,78.071006,151,0.16413,78,F5#,126,1
65560,78.071006,151,0.16413,54,F3#,126,2
65560,78.071006,151,0.16413,59,B3,126,2
65560,78.071006,151,0.16413,66,F4#,126,2
65720,78.244918,135,0.146739,73,C5#,126,1
65720,78.244918,151,0.16413,78,F5#,126,1
65720,78.244918,151,0.16413,54,F3#,126,2
65720,78.244918,151,0.16413,59,B3,126,2
65720,78.244918,151,0.16413,66,F4#,126,2
65880,78.418831,151,0.16413,73,C5#,126,1
65880,78.418831,151,0.16413,78,F5#,126,1
65880,78.418831,455,0.494564,71,B4,126,1
65880,78.418831,455,0.494564,83,B5,126,1
65880,78.418831,151,0.16413,54,F3#,126,2
65880,78.418831,151,0.16413,59,B3,126,2
65880,78.418831,151,0.16413,66,F4#,126,2
66040,78.592744,151,0.16413,73,C5#,126,1
66040,78.592744,151,0.16413,78,F5#,126,1
66040,78.592744,151,0.16413,47,B2,126,2
66040,78.592744,151,0.16413,54,F3#,126,2
66040,78.592744,151,0.16413,59,B3,126,2
66200,78.766656,151,0.16413,73,C5#,126,1
66200,78.766656,151,0.16413,78,F5#,126,1
66200,78.766656,151,0.16413,47,B2,126,2
66200,78.766656,151,0.16413,54,F3#,126,2
66200,78.766656,151,0.16413,59,B3,126,2
66360,78.940569,455,0.541667,73,C5#,126,1
66360,78.940569,455,0.541667,78,F5#,126,1
66360,78.940569,151,0.179762,47,B2,126,2
66360,78.940569,151,0.179762,54,F3#,126,2
66360,78.940569,151,0.179762,59,B3,126,2
66520,79.131045,151,0.179762,47,B2,126,2
66520,79.131045,151,0.179762,54,F3#,126,2
66520,79.131045,151,0.179762,59,B3,126,2
66680,79.321521,151,0.179762,47,B2,126,2
66680,79.321521,151,0.179762,54,F3#,126,2
66680,79.321521,151,0.179762,59,B3,126,2
66760,79.416759,75,0.089286,71,B4,126,1
66760,79.416759,75,0.089286,83,B5,126,1
66840,79.511998,341,0.405952,59,B3,126,1
66840,79.511998,341,0.405952,71,B4,126,1
66840,79.511998,151,0.179762,54,F3#,126,2
66840,79.511998,151,0.179762,63,D4#,126,2
67000,79.702474,151,0.179762,54,F3#,126,2
67000,79.702474,151,0.179762,66,F4#,126,2
67160,79.89295,151,0.179762,59,B3,126,2
67160,79.89295,151,0.179762,47,B2,126,2
67160,79.89295,151,0.179762,59,B3,126,2
67200,79.940569,113,0.134524,66,F4#,126,1
67200,79.940569,113,0.134524,78,F5#,126,1
67320,80.083427,311,0.471823,66,F4#,126,1
67320,80.083427,911,1.123995,78,F5#,126,1
67320,80.083427,159,0.30577,27,D1#,127,2
67320,80.083427,319,0.480518,39,D2#,127,2
67480,80.39112,151,0.16413,66,F4#,126,1
67480,80.39112,151,0.16413,71,B4,126,1
67480,80.39112,151,0.16413,47,B2,126,2
67480,80.39112,151,0.16413,56,G3#,126,2
67480,80.39112,151,0.16413,59,B3,126,2
67640,80.565032,151,0.16413,66,F4#,126,1
67640,80.565032,151,0.16413,71,B4,126,1
67640,80.565032,151,0.16413,47,B2,126,2
67640,80.565032,151,0.16413,56,G3#,126,2
67640,80.565032,151,0.16413,59,B3,126,2
67800,80.738945,151,0.16413,66,F4#,126,1
67800,80.738945,151,0.16413,71,B4,126,1
67800,80.738945,151,0.16413,47,B2,126,2
67800,80.738945,151,0.16413,56,G3#,126,2
67800,80.738945,151,0.16413,59,B3,126,2
67960,80.912858,151,0.16413,66,F4#,126,1
67960,80.912858,151,0.16413,71,B4,126,1
67960,80.912858,151,0.16413,47,B2,126,2
67960,80.912858,151,0.16413,56,G3#,126,2
67960,80.912858,151,0.16413,59,B3,126,2
68120,81.08677,111,0.120652,66,F4#,126,1
68120,81.08677,151,0.16413,71,B4,126,1
68120,81.08677,151,0.16413,47,B2,126,2
68120,81.08677,151,0.16413,56,G3#,126,2
68120,81.08677,151,0.16413,59,B3,126,2
68280,81.260683,151,0.179762,64,E4,126,1
68280,81.260683,151,0.179762,71,B4,126,1
68280,81.260683,151,0.179762,76,E5,126,1
68280,81.260683,151,0.179762,56,G3#,126,2
68280,81.260683,151,0.179762,59,B3,126,2
68280,81.260683,151,0.179762,68,G4#,126,2
68440,81.451159,151,0.179762,63,D4#,126,1
68440,81.451159,151,0.179762,71,B4,126,1
68440,81.451159,151,0.179762,75,D5#,126,1
68440,81.451159,151,0.179762,47,B2,126,2
68440,81.451159,151,0.179762,56,G3#,126,2
68440,81.451159,151,0.179762,59,B3,126,2
68600,81.641635,151,0.179762,64,E4,126,1
68600,81.641635,151,0.179762,71,B4,126,1
68600,81.641635,151,0.179762,76,E5,126,1
68600,81.641635,151,0.179762,47,B2,126,2
68600,81.641635,151,0.179762,56,G3#,126,2
68600,81.641635,151,0.179762,59,B3,126,2
68760,81.832112,113,0.134523,66,F4#,126,1
68760,81.832112,113,0.134523,78,F5#,126,1
68760,81.832112,227,0.270238,71,B4,126,1
68760,81.832112,151,0.179762,52,E3,126,2
68760,81.832112,151,0.179762,59,B3,126,2
68760,81.832112,151,0.179762,64,E4,126,2
68880,81.974969,113,0.134524,68,G4#,126,1
68880,81.974969,113,0.134524,80,G5#,126,1
68920,82.022588,151,0.179762,56,G3#,126,2
68920,82.022588,151,0.179762,64,E4,126,2
68920,82.022588,151,0.179762,68,G4#,126,2
69000,82.117826,113,0.134524,71,B4,126,1
69000,82.117826,113,0.134524,83,B5,126,1
69000,82.117826,113,0.134524,76,E5,126,1
69080,82.213064,151,0.179762,59,B3,126,2
69080,82.213064,151,0.179762,47,B2,126,2
69080,82.213064,151,0.179762,59,B3,126,2
69180,82.332112,56,0.066667,75,D5#,127,1
69180,82.332112,56,0.066667,87,D6#,127,1
69240,82.403541,311,0.471823,75,D5#,127,1
69240,82.403541,455,0.628344,87,D6#,127,1
69240,82.403541,159,0.30577,27,D1#,127,2
69240,82.403541,319,0.480518,39,D2#,127,2
69400,82.711234,151,0.16413,75,D5#,124,1
69400,82.711234,151,0.16413,80,G5#,124,1
69400,82.711234,151,0.16413,47,B2,124,2
69400,82.711234,151,0.16413,53,F3,124,2
69400,82.711234,151,0.16413,56,G3#,124,2
69400,82.711234,151,0.16413,59,B3,124,2
69560,82.885146,135,0.146739,75,D5#,120,1
69560,82.885146,151,0.16413,80,G5#,120,1
69560,82.885146,151,0.16413,47,B2,120,2
69560,82.885146,151,0.16413,53,F3,120,2
69560,82.885146,151,0.16413,56,G3#,120,2
69560,82.885146,151,0.16413,59,B3,120,2
69720,83.059059,151,0.16413,74,D5,116,1
69720,83.059059,151,0.16413,80,G5#,116,1
69720,83.059059,151,0.16413,74,D5,116,1
69720,83.059059,455,0.494564,86,D6,116,1
69720,83.059059,151,0.16413,53,F3,116,2
69720,83.059059,151,0.16413,56,G3#,116,2
69720,83.059059,151,0.16413,59,B3,116,2
69720,83.059059,151,0.16413,65,F4,116,2
69880,83.232972,151,0.16413,74,D5,112,1
69880,83.232972,151,0.16413,80,G5#,112,1
69880,83.232972,151,0.16413,53,F3,112,2
69880,83.232972,151,0.16413,56,G3#,112,2
69880,83.232972,151,0.16413,59,B3,112,2
69880,83.232972,151,0.16413,65,F4,112,2
70040,83.406884,135,0.146739,74,D5,112,1
70040,83.406884,151,0.16413,80,G5#,112,1
70040,83.406884,151,0.16413,53,F3,112,2
70040,83.406884,151,0.16413,56,G3#,112,2
70040,83.406884,151,0.16413,59,B3,112,2
70040,83.406884,151,0.16413,65,F4,112,2
70200,83.580797,151,0.179762,74,D5,112,1
70200,83.580797,151,0.179762,80,G5#,112,1
70200,83.580797,151,0.179762,53,F3,112,2
70200,83.580797,151,0.179762,56,G3#,112,2
70200,83.580797,151,0.179762,59,B3,112,2
70200,83.580797,151,0.179762,65,F4,112,2
70360,83.771273,151,0.179762,74,D5,112,1
70360,83.771273,151,0.179762,80,G5#,112,1
70360,83.771273,151,0.179762,53,F3,112,2
70360,83.771273,151,0.179762,56,G3#,112,2
70360,83.771273,151,0.179762,59,B3,112,2
70360,83.771273,151,0.179762,65,F4,112,2
70520,83.961749,151,0.179762,75,D5#,112,1
70520,83.961749,151,0.179762,80,G5#,112,1
70520,83.961749,151,0.179762,75,D5#,112,1
70520,83.961749,151,0.179762,87,D6#,112,1
70520,83.961749,151,0.179762,51,D3#,112,2
70520,83.961749,151,0.179762,56,G3#,112,2
70520,83.961749,151,0.179762,59,B3,112,2
70520,83.961749,151,0.179762,63,D4#,112,2
70680,84.152226,151,0.179762,63,D4#,112,1
70680,84.152226,151,0.179762,71,B4,112,1
70680,84.152226,151,0.179762,63,D4#,112,1
70680,84.152226,303,0.360714,75,D5#,112,1
70680,84.152226,151,0.179762,56,G3#,112,2
70680,84.152226,151,0.179762,59,B3,112,2
70680,84.152226,151,0.179762,68,G4#,112,2
70840,84.342702,143,0.170238,63,D4#,112,1
70840,84.342702,151,0.179762,71,B4,112,1
70840,84.342702,151,0.179762,56,G3#,112,2
70840,84.342702,151,0.179762,59,B3,112,2
70840,84.342702,151,0.179762,68,G4#,112,2
71000,84.533178,151,0.179762,75,D5#,112,1
71000,84.533178,151,0.179762,70,A4#,112,1
71000,84.533178,151,0.179762,82,A5#,112,1
71000,84.533178,151,0.179762,51,D3#,112,2
71000,84.533178,151,0.179762,59,B3,112,2
71000,84.533178,151,0.179762,63,D4#,112,2
71160,84.723655,311,0.471823,70,A4#,112,1
71160,84.723655,911,1.123995,82,A5#,112,1
71160,84.723655,151,0.290385,51,D3#,127,2
71160,84.723655,319,0.480518,39,D2#,127,2
71160,84.723655,151,0.290385,51,D3#,127,2
71320,85.031348,151,0.16413,70,A4#,112,1
71320,85.031348,151,0.16413,75,D5#,112,1
71320,85.031348,151,0.16413,51,D3#,112,2
71320,85.031348,151,0.16413,59,B3,112,2
71320,85.031348,151,0.16413,63,D4#,112,2
71480,85.20526,151,0.16413,70,A4#,112,1
71480,85.20526,151,0.16413,75,D5#,112,1
71480,85.20526,151,0.16413,51,D3#,112,2
71480,85.20526,151,0.16413,59,B3,112,2
71480,85.20526,151,0.16413,63,D4#,112,2
71640,85.379173,151,0.16413,70,A4#,112,1
71640,85.379173,151,0.16413,75,D5#,112,1
71640,85.379173,151,0.16413,51,D3#,112,2
71640,85.379173,151,0.16413,59,B3,112,2
71640,85.379173,151,0.16413,63,D4#,112,2
71800,85.553086,151,0.16413,70,A4#,112,1
71800,85.553086,151,0.16413,75,D5#,112,1
71800,85.553086,151,0.16413,51,D3#,112,2
71800,85.553086,151,0.16413,59,B3,112,2
71800,85.553086,151,0.16413,63,D4#,112,2
71960,85.726998,111,0.120652,70,A4#,112,1
71960,85.726998,151,0.16413,75,D5#,112,1
71960,85.726998,151,0.16413,51,D3#,112,2
71960,85.726998,151,0.16413,59,B3,112,2
71960,85.726998,151,0.16413,63,D4#,112,2
72120,85.900911,151,0.179762,68,G4#,112,1
72120,85.900911,151,0.179762,75,D5#,112,1
72120,85.900911,151,0.179762,80,G5#,112,1
72120,85.900911,151,0.179762,59,B3,112,2
72120,85.900911,151,0.179762,63,D4#,112,2
72120,85.900911,151,0.179762,71,B4,112,2
72280,86.091387,151,0.179762,67,G4,112,1
72280,86.091387,151,0.179762,75,D5#,112,1
72280,86.091387,151,0.179762,79,G5,112,1
72280,86.091387,151,0.179762,51,D3#,112,2
72280,86.091387,151,0.179762,59,B3,112,2
72280,86.091387,151,0.179762,63,D4#,112,2
72440,86.281863,151,0.179762,68,G4#,112,1
72440,86.281863,151,0.179762,75,D5#,112,1
72440,86.281863,151,0.179762,80,G5#,112,1
72440,86.281863,151,0.179762,51,D3#,112,2
72440,86.281863,151,0.179762,59,B3,112,2
72440,86.281863,151,0.179762,63,D4#,112,2
72600,86.47234,113,0.134523,70,A4#,112,1
72600,86.47234,113,0.134523,82,A5#,112,1
72600,86.47234,227,0.270238,75,D5#,112,1
72600,86.47234,151,0.179762,56,G3#,112,2
72600,86.47234,151,0.179762,63,D4#,112,2
72600,86.47234,151,0.179762,68,G4#,112,2
72720,86.615197,113,0.134524,71,B4,112,1
72720,86.615197,113,0.134524,83,B5,112,1
72760,86.662816,151,0.179762,59,B3,112,2
72760,86.662816,151,0.179762,68,G4#,112,2
72760,86.662816,151,0.179762,71,B4,112,2
72840,86.758054,113,0.134524,75,D5#,112,1
72840,86.758054,113,0.134524,87,D6#,112,1
72840,86.758054,113,0.134524,80,G5#,112,1
72920,86.853292,151,0.179762,56,G3#,112,2
72920,86.853292,151,0.179762,44,G2#,112,2
72920,86.853292,151,0.179762,56,G3#,112,2
73020,86.97234,56,0.066667,78,F5#,112,1
73020,86.97234,56,0.066667,90,F6#,112,1
73080,87.043769,319,0.496978,78,F5#,112,1
73080,87.043769,455,0.658883,90,F6#,112,1
73080,87.043769,159,0.30577,39,D2#,127,2
73080,87.043769,319,0.496978,51,D3#,127,2
73240,87.351462,159,0.189285,78,F5#,127,1
73240,87.351462,159,0.189285,83,B5,127,1
73240,87.351462,159,0.189285,50,D3,127,2
73240,87.351462,159,0.189285,56,G3#,127,2
73240,87.351462,159,0.189285,59,B3,127,2
73400,87.541938,135,0.160714,78,F5#,127,1
73400,87.541938,159,0.189286,83,B5,127,1
73400,87.541938,159,0.189286,50,D3,127,2
73400,87.541938,159,0.189286,56,G3#,127,2
73400,87.541938,159,0.189286,59,B3,127,2
73560,87.732414,151,0.179762,77,F5,112,1
73560,87.732414,911,1.039906,89,F6,112,1
73560,87.732414,151,0.179762,77,F5,112,1
73560,87.732414,151,0.179762,83,B5,112,1
73560,87.732414,159,0.189286,56,G3#,127,2
73560,87.732414,159,0.189286,59,B3,127,2
73560,87.732414,159,0.189286,65,F4,127,2
73720,87.922891,159,0.189285,77,F5,127,1
73720,87.922891,159,0.189285,83,B5,127,1
73720,87.922891,159,0.189285,56,G3#,127,2
73720,87.922891,159,0.189285,59,B3,127,2
73720,87.922891,159,0.189285,65,F4,127,2
73880,88.113367,159,0.189286,77,F5,127,1
73880,88.113367,159,0.189286,83,B5,127,1
73880,88.113367,151,0.179762,44,G2#,112,2
73880,88.113367,151,0.179762,56,G3#,112,2
73880,88.113367,151,0.179762,44,G2#,112,2
74040,88.303843,159,0.172825,77,F5,127,1
74040,88.303843,159,0.172825,83,B5,127,1
74040,88.303843,159,0.172825,39,D2#,127,2
74040,88.303843,319,0.346738,51,D3#,127,2
74200,88.477755,159,0.172826,77,F5,127,1
74200,88.477755,159,0.172826,83,B5,127,1
74200,88.477755,159,0.172826,50,D3,127,2
74200,88.477755,159,0.172826,56,G3#,127,2
74200,88.477755,159,0.172826,59,B3,127,2
74360,88.651668,111,0.120652,77,F5,127,1
74360,88.651668,159,0.172826,83,B5,127,1
74360,88.651668,159,0.172826,50,D3,127,2
74360,88.651668,159,0.172826,56,G3#,127,2
74360,88.651668,159,0.172826,59,B3,127,2
74520,88.825581,159,0.20921,76,E5,112,1
74520,88.825581,455,0.670819,88,E6,112,1
74520,88.825581,159,0.20921,76,E5,127,1
74520,88.825581,159,0.20921,83,B5,127,1
74520,88.825581,159,0.20921,56,G3#,127,2
74520,88.825581,159,0.20921,59,B3,127,2
74520,88.825581,159,0.20921,64,E4,127,2
74680,89.036107,159,0.233823,76,E5,127,1
74680,89.036107,159,0.233823,83,B5,127,1
74680,89.036107,159,0.233823,56,G3#,127,2
74680,89.036107,159,0.233823,59,B3,127,2
74680,89.036107,159,0.233823,64,E4,127,2
74840,89.2714,135,0.225,76,E5,127,1
74840,89.2714,159,0.265,83,B5,127,1
74840,89.2714,151,0.251666,51,D3#,112,2
74840,89.2714,151,0.251666,39,D2#,112,2
74840,89.2714,151,0.251666,51,D3#,112,2
75000,89.538066,151,0.419444,75,D5#,112,1
75000,89.538066,455,0.795634,87,D6#,112,1
75000,89.538066,151,0.419444,75,D5#,112,1
75000,89.538066,151,0.419444,80,G5#,112,1
75000,89.538066,151,0.419444,83,B5,112,1
75000,89.538066,151,0.419444,44,G2#,127,2
75000,89.538066,319,0.633729,32,G1#,127,2
75000,89.538066,151,0.419444,44,G2#,127,2
75160,89.98251,151,0.179762,75,D5#,112,1
75160,89.98251,151,0.179762,80,G5#,112,1
75160,89.98251,151,0.179762,83,B5,112,1
75160,89.98251,151,0.179762,51,D3#,112,2
75160,89.98251,151,0.179762,56,G3#,112,2
75160,89.98251,151,0.179762,63,D4#,112,2
75320,90.172986,135,0.160714,75,D5#,112,1
75320,90.172986,151,0.179762,80,G5#,112,1
75320,90.172986,151,0.179762,83,B5,112,1
75320,90.172986,151,0.179762,51,D3#,112,2
75320,90.172986,151,0.179762,56,G3#,112,2
75320,90.172986,151,0.179762,63,D4#,112,2
75480,90.363462,227,0.270238,73,C5#,112,1
75480,90.363462,227,0.270238,85,C6#,112,1
75480,90.363462,151,0.179762,75,D5#,112,1
75480,90.363462,151,0.179762,80,G5#,112,1
75480,90.363462,151,0.179762,51,D3#,112,2
75480,90.363462,151,0.179762,56,G3#,112,2
75480,90.363462,151,0.179762,63,D4#,112,2
75640,90.553939,151,0.179762,75,D5#,112,1
75640,90.553939,151,0.179762,80,G5#,112,1
75640,90.553939,151,0.179762,51,D3#,112,2
75640,90.553939,151,0.179762,56,G3#,112,2
75640,90.553939,151,0.179762,63,D4#,112,2
75720,90.649177,227,0.270238,71,B4,112,1
75720,90.649177,227,0.270238,83,B5,112,1
75800,90.744415,151,0.179762,75,D5#,112,1
75800,90.744415,151,0.179762,80,G5#,112,1
75800,90.744415,151,0.179762,51,D3#,112,2
75800,90.744415,151,0.179762,56,G3#,112,2
75800,90.744415,151,0.179762,63,D4#,112,2
75960,90.934891,303,0.360715,70,A4#,112,1
75960,90.934891,303,0.360715,82,A5#,112,1
75960,90.934891,151,0.179762,75,D5#,112,1
75960,90.934891,151,0.179762,59,B3,112,2
75960,90.934891,151,0.179762,63,D4#,112,2
75960,90.934891,151,0.179762,71,B4,112,2
76120,91.125368,143,0.170238,70,A4#,112,1
76120,91.125368,151,0.179762,75,D5#,112,1
76120,91.125368,151,0.179762,59,B3,112,2
76120,91.125368,151,0.179762,63,D4#,112,2
76120,91.125368,151,0.179762,71,B4,112,2
76280,91.315844,311,0.518333,68,G4#,112,1
76280,91.315844,455,0.758333,80,G5#,112,1
76280,91.315844,151,0.251666,70,A4#,112,1
76280,91.315844,151,0.251666,75,D5#,112,1
76280,91.315844,151,0.251666,59,B3,112,2
76280,91.315844,151,0.251666,63,D4#,112,2
76280,91.315844,151,0.251666,71,B4,112,2
76440,91.58251,151,0.251667,68,G4#,112,1
76440,91.58251,151,0.251667,75,D5#,112,1
76440,91.58251,151,0.251667,51,D3#,112,2
76440,91.58251,151,0.251667,59,B3,112,2
76440,91.58251,151,0.251667,63,D4#,112,2
76600,91.849177,135,0.225,68,G4#,112,1
76600,91.849177,151,0.251667,75,D5#,112,1
76600,91.849177,151,0.251667,51,D3#,60,2
76600,91.849177,151,0.251667,59,B3,60,2
76600,91.849177,151,0.251667,63,D4#,60,2
76760,92.115844,151,0.251666,66,F4#,112,1
76760,92.115844,151,0.251666,78,F5#,112,1
76760,92.115844,151,0.251666,71,B4,112,1
76760,92.115844,151,0.251666,75,D5#,112,1
76760,92.115844,151,0.251666,44,G2#,60,2
76760,92.115844,151,0.251666,32,G1#,60,2
76760,92.115844,151,0.251666,44,G2#,112,2
76920,92.38251,311,0.446429,66,F4#,112,1
76920,92.38251,911,1.160715,78,F5#,112,1
76920,92.38251,151,0.251667,39,D2#,112,2
76920,92.38251,319,0.455952,27,D1#,127,2
76920,92.38251,151,0.251667,39,D2#,127,2
77080,92.649177,151,0.179762,66,F4#,112,1
77080,92.649177,151,0.179762,71,B4,112,1
77080,92.649177,151,0.179762,75,D5#,112,1
77080,92.649177,151,0.179762,47,B2,112,2
77080,92.649177,151,0.179762,54,F3#,112,2
77080,92.649177,151,0.179762,59,B3,112,2
77240,92.839653,151,0.179762,66,F4#,112,1
77240,92.839653,151,0.179762,71,B4,112,1
77240,92.839653,151,0.179762,75,D5#,112,1
77240,92.839653,151,0.179762,47,B2,112,2
77240,92.839653,151,0.179762,54,F3#,112,2
77240,92.839653,151,0.179762,59,B3,112,2
77400,93.030129,151,0.179762,66,F4#,112,1
77400,93.030129,151,0.179762,71,B4,112,1
77400,93.030129,151,0.179762,75,D5#,112,1
77400,93.030129,151,0.179762,47,B2,112,2
77400,93.030129,151,0.179762,54,F3#,112,2
77400,93.030129,151,0.179762,59,B3,112,2
77560,93.220606,151,0.179762,66,F4#,112,1
77560,93.220606,151,0.179762,71,B4,112,1
77560,93.220606,151,0.179762,75,D5#,112,1
77560,93.220606,151,0.179762,47,B2,112,2
77560,93.220606,151,0.179762,54,F3#,112,2
77560,93.220606,151,0.179762,59,B3,112,2
77720,93.411082,111,0.132143,66,F4#,112,1
77720,93.411082,151,0.179762,71,B4,112,1
77720,93.411082,151,0.179762,75,D5#,112,1
77720,93.411082,151,0.179762,47,B2,112,2
77720,93.411082,151,0.179762,54,F3#,112,2
77720,93.411082,151,0.179762,59,B3,112,2
77880,93.601558,151,0.16413,65,F4,112,1
77880,93.601558,455,0.494564,77,F5,112,1
77880,93.601558,151,0.16413,65,F4,112,1
77880,93.601558,151,0.16413,71,B4,112,1
77880,93.601558,151,0.16413,75,D5#,112,1
77880,93.601558,151,0.16413,47,B2,112,2
77880,93.601558,151,0.16413,53,F3,112,2
77880,93.601558,151,0.16413,59,B3,112,2
78040,93.77547,151,0.16413,65,F4,112,1
78040,93.77547,151,0.16413,71,B4,112,1
78040,93.77547,151,0.16413,75,D5#,112,1
78040,93.77547,151,0.16413,44,G2#,112,2
78040,93.77547,151,0.16413,56,G3#,112,2
78200,93.949383,135,0.146739,65,F4,112,1
78200,93.949383,151,0.16413,71,B4,112,1
78200,93.949383,151,0.16413,75,D5#,112,1
78200,93.949383,151,0.16413,44,G2#,112,2
78200,93.949383,151,0.16413,56,G3#,112,2
78360,94.123296,151,0.16413,65,F4,112,1
78360,94.123296,151,0.16413,71,B4,112,1
78360,94.123296,151,0.16413,75,D5#,112,1
78360,94.123296,151,0.16413,44,G2#,112,2
78360,94.123296,151,0.16413,56,G3#,112,2
78520,94.297208,151,0.16413,65,F4,112,1
78520,94.297208,151,0.16413,71,B4,112,1
78520,94.297208,151,0.16413,75,D5#,112,1
78520,94.297208,151,0.16413,44,G2#,112,2
78520,94.297208,151,0.16413,56,G3#,112,2
78680,94.471121,151,0.16413,70,A4#,112,1
78680,94.471121,151,0.16413,82,A5#,112,1
78680,94.471121,151,0.16413,75,D5#,112,1
78680,94.471121,151,0.16413,78,F5#,112,1
78680,94.471121,151,0.16413,44,G2#,112,2
78680,94.471121,151,0.16413,32,G1#,112,2
78680,94.471121,151,0.16413,44,G2#,112,2
78840,94.645034,311,0.311,70,A4#,112,1
78840,94.645034,911,0.879074,82,A5#,112,1
78840,94.645034,151,0.151,27,D1#,127,2
78840,94.645034,303,0.303,39,D2#,127,2
79000,94.805034,151,0.151,70,A4#,112,1
79000,94.805034,151,0.151,75,D5#,112,1
79000,94.805034,151,0.151,78,F5#,112,1
79000,94.805034,151,0.151,47,B2,112,2
79000,94.805034,151,0.151,54,F3#,112,2
79000,94.805034,151,0.151,59,B3,112,2
79160,94.965034,151,0.151,70,A4#,112,1
79160,94.965034,151,0.151,75,D5#,112,1
79160,94.965034,151,0.151,78,F5#,112,1
79160,94.965034,151,0.151,47,B2,112,2
79160,94.965034,151,0.151,54,F3#,112,2
79160,94.965034,151,0.151,59,B3,112,2
79320,95.125035,151,0.139814,70,A4#,112,1
79320,95.125035,151,0.139814,75,D5#,112,1
79320,95.125035,151,0.139814,78,F5#,112,1
79320,95.125035,151,0.139814,47,B2,112,2
79320,95.125035,151,0.139814,54,F3#,112,2
79320,95.125035,151,0.139814,59,B3,112,2
79480,95.273183,151,0.139814,70,A4#,112,1
79480,95.273183,151,0.139814,75,D5#,112,1
79480,95.273183,151,0.139814,78,F5#,112,1
79480,95.273183,151,0.139814,47,B2,112,2
79480,95.273183,151,0.139814,54,F3#,112,2
79480,95.273183,151,0.139814,59,B3,112,2
79640,95.421331,111,0.102777,70,A4#,112,1
79640,95.421331,151,0.139814,75,D5#,112,1
79640,95.421331,151,0.139814,78,F5#,112,1
79640,95.421331,151,0.139814,47,B2,112,2
79640,95.421331,151,0.139814,54,F3#,112,2
79640,95.421331,151,0.139814,59,B3,112,2
79800,95.569479,151,0.139814,68,G4#,112,1
79800,95.569479,151,0.139814,75,D5#,112,1
79800,95.569479,151,0.139814,77,F5,112,1
79800,95.569479,151,0.139814,68,G4#,112,1
79800,95.569479,455,0.421295,80,G5#,112,1
79800,95.569479,151,0.139814,47,B2,112,2
79800,95.569479,151,0.139814,53,F3,112,2
79800,95.569479,151,0.139814,59,B3,112,2
79960,95.717627,151,0.139814,68,G4#,112,1
79960,95.717627,151,0.139814,75,D5#,112,1
79960,95.717627,151,0.139814,77,F5,112,1
79960,95.717627,151,0.139814,44,G2#,112,2
79960,95.717627,151,0.139814,56,G3#,112,2
80120,95.865775,135,0.124999,68,G4#,112,1
80120,95.865775,151,0.139814,75,D5#,112,1
80120,95.865775,151,0.139814,77,F5,112,1
80120,95.865775,151,0.139814,44,G2#,112,2
80120,95.865775,151,0.139814,56,G3#,112,2
80280,96.013923,151,0.139814,68,G4#,112,1
80280,96.013923,151,0.139814,75,D5#,112,1
80280,96.013923,151,0.139814,77,F5,112,1
80280,96.013923,151,0.139814,44,G2#,112,2
80280,96.013923,151,0.139814,56,G3#,112,2
80440,96.162071,151,0.139814,68,G4#,112,1
80440,96.162071,151,0.139814,75,D5#,112,1
80440,96.162071,151,0.139814,77,F5,112,1
80440,96.162071,151,0.139814,44,G2#,112,2
80440,96.162071,151,0.139814,56,G3#,112,2
80600,96.310219,151,0.139814,75,D5#,112,1
80600,96.310219,151,0.139814,80,G5#,112,1
80600,96.310219,151,0.139814,73,C5#,112,1
80600,96.310219,151,0.139814,85,C6#,112,1
80600,96.310219,151,0.139814,44,G2#,112,2
80600,96.310219,151,0.139814,32,G1#,112,2
80600,96.310219,151,0.139814,44,G2#,112,2
80760,96.458367,311,0.268103,73,C5#,112,1
80760,96.458367,911,0.785344,85,C6#,112,1
80760,96.458367,151,0.130172,39,D2#,112,2
80760,96.458367,319,0.274999,27,D1#,127,2
80760,96.458367,151,0.130172,39,D2#,127,2
80920,96.596298,151,0.130172,73,C5#,112,1
80920,96.596298,151,0.130172,75,D5#,112,1
80920,96.596298,151,0.130172,80,G5#,112,1
80920,96.596298,151,0.130172,51,D3#,112,2
80920,96.596298,151,0.130172,56,G3#,112,2
80920,96.596298,151,0.130172,63,D4#,112,2
81080,96.734229,151,0.130172,73,C5#,112,1
81080,96.734229,151,0.130172,75,D5#,112,1
81080,96.734229,151,0.130172,80,G5#,112,1
81080,96.734229,151,0.130172,51,D3#,112,2
81080,96.734229,151,0.130172,56,G3#,112,2
81080,96.734229,151,0.130172,63,D4#,112,2
81240,96.87216,151,0.130172,73,C5#,112,1
81240,96.87216,151,0.130172,75,D5#,112,1
81240,96.87216,151,0.130172,80,G5#,112,1
81240,96.87216,151,0.130172,51,D3#,112,2
81240,96.87216,151,0.130172,56,G3#,112,2
81240,96.87216,151,0.130172,63,D4#,112,2
81400,97.010091,151,0.130172,73,C5#,112,1
81400,97.010091,151,0.130172,75,D5#,112,1
81400,97.010091,151,0.130172,80,G5#,112,1
81400,97.010091,151,0.130172,51,D3#,112,2
81400,97.010091,151,0.130172,56,G3#,112,2
81400,97.010091,151,0.130172,63,D4#,112,2
81560,97.148022,111,0.095689,73,C5#,112,1
81560,97.148022,151,0.130172,75,D5#,112,1
81560,97.148022,151,0.130172,80,G5#,112,1
81560,97.148022,151,0.130172,51,D3#,112,2
81560,97.148022,151,0.130172,56,G3#,112,2
81560,97.148022,151,0.130172,63,D4#,112,2
81720,97.285953,151,0.130172,71,B4,112,1
81720,97.285953,455,0.392241,83,B5,112,1
81720,97.285953,151,0.130172,71,B4,112,1
81720,97.285953,151,0.130172,75,D5#,112,1
81720,97.285953,151,0.130172,80,G5#,112,1
81720,97.285953,151,0.130172,56,G3#,112,2
81720,97.285953,151,0.130172,63,D4#,112,2
81720,97.285953,151,0.130172,68,G4#,112,2
81880,97.423884,151,0.130172,71,B4,112,1
81880,97.423884,151,0.130172,75,D5#,112,1
81880,97.423884,151,0.130172,80,G5#,112,1
81880,97.423884,151,0.130172,47,B2,112,2
81880,97.423884,151,0.130172,59,B3,112,2
82040,97.561815,135,0.116379,71,B4,112,1
82040,97.561815,151,0.130172,75,D5#,112,1
82040,97.561815,151,0.130172,80,G5#,112,1
82040,97.561815,151,0.130172,47,B2,112,2
82040,97.561815,151,0.130172,59,B3,112,2
82200,97.699746,151,0.151,71,B4,112,1
82200,97.699746,151,0.151,75,D5#,112,1
82200,97.699746,151,0.151,80,G5#,112,1
82200,97.699746,151,0.151,47,B2,112,2
82200,97.699746,151,0.151,59,B3,112,2
82360,97.859746,151,0.151,71,B4,112,1
82360,97.859746,151,0.151,75,D5#,112,1
82360,97.859746,151,0.151,80,G5#,112,1
82360,97.859746,151,0.151,47,B2,112,2
82360,97.859746,151,0.151,59,B3,112,2
82520,98.019746,151,0.251666,78,F5#,112,1
82520,98.019746,151,0.251666,90,F6#,112,1
82520,98.019746,151,0.251666,83,B5,112,1
82520,98.019746,151,0.251666,59,B3,112,2
82520,98.019746,151,0.251666,47,B2,112,2
82520,98.019746,151,0.251666,59,B3,112,2
82680,98.286412,151,0.290385,78,F5#,112,1
82680,98.286412,455,0.602693,90,F6#,112,1
82680,98.286412,151,0.290385,78,F5#,112,1
82680,98.286412,151,0.290385,83,B5,112,1
82680,98.286412,239,0.386693,26,D1,127,2
82680,98.286412,239,0.386693,38,D2,127,2
82840,98.594105,151,0.151,78,F5#,112,1
82840,98.594105,151,0.151,83,B5,112,1
82920,98.674105,227,0.227,47,B2,112,2
82920,98.674105,227,0.227,59,B3,112,2
83000,98.754105,135,0.135,78,F5#,112,1
83000,98.754105,151,0.151,83,B5,112,1
83160,98.914105,151,0.151,77,F5,112,1
83160,98.914105,911,0.879074,89,F6,112,1
83160,98.914105,151,0.151,77,F5,112,1
83160,98.914105,151,0.151,83,B5,112,1
83160,98.914105,227,0.227001,53,F3,112,2
83160,98.914105,227,0.227001,59,B3,112,2
83160,98.914105,227,0.227001,65,F4,112,2
83320,99.074106,151,0.151,77,F5,112,1
83320,99.074106,151,0.151,83,B5,112,1
83400,99.154106,227,0.227,47,B2,112,2
83400,99.154106,227,0.227,59,B3,112,2
83480,99.234106,151,0.151,77,F5,112,1
83480,99.234106,151,0.151,83,B5,112,1
83640,99.394106,151,0.139814,77,F5,112,1
83640,99.394106,151,0.139814,83,B5,112,1
83640,99.394106,239,0.221296,27,D1#,127,2
83640,99.394106,239,0.221296,39,D2#,127,2
83800,99.542254,151,0.139814,77,F5,112,1
83800,99.542254,151,0.139814,83,B5,112,1
83880,99.616328,227,0.210184,47,B2,112,2
83880,99.616328,227,0.210184,59,B3,112,2
83960,99.690402,111,0.102777,77,F5,112,1
83960,99.690402,151,0.139814,83,B5,112,1
84120,99.83855,151,0.139814,76,E5,112,1
84120,99.83855,911,0.815995,88,E6,112,1
84120,99.83855,151,0.139814,76,E5,112,1
84120,99.83855,151,0.139814,83,B5,112,1
84120,99.83855,227,0.210184,52,E3,112,2
84120,99.83855,227,0.210184,59,B3,112,2
84120,99.83855,227,0.210184,64,E4,112,2
84280,99.986698,151,0.139814,76,E5,112,1
84280,99.986698,151,0.139814,83,B5,112,1
84360,100.060772,227,0.210184,47,B2,112,2
84360,100.060772,227,0.210184,59,B3,112,2
84440,100.134846,151,0.139814,76,E5,112,1
84440,100.134846,151,0.139814,83,B5,112,1
84600,100.282994,151,0.130172,76,E5,112,1
84600,100.282994,151,0.130172,83,B5,112,1
84600,100.282994,239,0.206034,28,E1,127,2
84600,100.282994,239,0.206034,40,E2,127,2
84760,100.420925,151,0.130172,76,E5,112,1
84760,100.420925,151,0.130172,83,B5,112,1
84840,100.48989,227,0.19569,47,B2,112,2
84840,100.48989,227,0.19569,59,B3,112,2
84920,100.558856,111,0.095689,76,E5,112,1
84920,100.558856,151,0.130172,83,B5,112,1
85080,100.696787,151,0.130172,75,D5#,112,1
85080,100.696787,911,0.785344,87,D6#,112,1
85080,100.696787,151,0.130172,75,D5#,112,1
85080,100.696787,151,0.130172,80,G5#,112,1
85080,100.696787,151,0.130172,83,B5,112,1
85080,100.696787,227,0.195689,51,D3#,112,2
85080,100.696787,227,0.195689,56,G3#,112,2
85080,100.696787,227,0.195689,59,B3,112,2
85080,100.696787,227,0.195689,63,D4#,112,2
85240,100.834718,151,0.130172,75,D5#,112,1
85240,100.834718,151,0.130172,80,G5#,112,1
85240,100.834718,151,0.130172,83,B5,112,1
85320,100.903683,227,0.19569,47,B2,112,2
85320,100.903683,227,0.19569,59,B3,112,2
85400,100.972649,151,0.130172,75,D5#,112,1
85400,100.972649,151,0.130172,80,G5#,112,1
85400,100.972649,151,0.130172,83,B5,112,1
85560,101.11058,151,0.130172,75,D5#,112,1
85560,101.11058,151,0.130172,80,G5#,112,1
85560,101.11058,151,0.130172,83,B5,112,1
85560,101.11058,239,0.206034,29,F1,127,2
85560,101.11058,239,0.206034,41,F2,127,2
85720,101.248511,151,0.130172,75,D5#,112,1
85720,101.248511,151,0.130172,80,G5#,112,1
85720,101.248511,151,0.130172,83,B5,112,1
85800,101.317476,227,0.19569,47,B2,112,2
85800,101.317476,227,0.19569,59,B3,112,2
85880,101.386442,111,0.095689,75,D5#,112,1
85880,101.386442,151,0.130172,80,G5#,112,1
85880,101.386442,151,0.130172,83,B5,112,1
86040,101.524373,151,0.130172,74,D5,112,1
86040,101.524373,911,0.785344,86,D6,112,1
86040,101.524373,151,0.130172,74,D5,112,1
86040,101.524373,151,0.130172,80,G5#,112,1
86040,101.524373,151,0.130172,83,B5,112,1
86040,101.524373,455,0.392241,50,D3,112,2
86040,101.524373,455,0.392241,56,G3#,112,2
86040,101.524373,455,0.392241,59,B3,112,2
86040,101.524373,455,0.392241,62,D4,112,2
86200,101.662304,151,0.130172,74,D5,112,1
86200,101.662304,151,0.130172,80,G5#,112,1
86200,101.662304,151,0.130172,83,B5,112,1
86360,101.800235,151,0.130172,74,D5,112,1
86360,101.800235,151,0.130172,80,G5#,112,1
86360,101.800235,151,0.130172,83,B5,112,1
86520,101.938166,151,0.130172,74,D5,112,1
86520,101.938166,151,0.130172,80,G5#,112,1
86520,101.938166,151,0.130172,83,B5,112,1
86520,101.938166,239,0.206034,30,F1#,127,2
86520,101.938166,239,0.206034,42,F2#,127,2
86680,102.076097,151,0.130172,74,D5,112,1
86680,102.076097,151,0.130172,80,G5#,112,1
86680,102.076097,151,0.130172,83,B5,112,1
86760,102.145062,227,0.19569,50,D3,112,2
86760,102.145062,227,0.19569,56,G3#,112,2
86760,102.145062,227,0.19569,59,B3,112,2
86760,102.145062,227,0.19569,62,D4,112,2
86840,102.214028,111,0.095689,74,D5,112,1
86840,102.214028,151,0.130172,80,G5#,112,1
86840,102.214028,151,0.130172,83,B5,112,1
87000,102.351959,151,0.130172,75,D5#,112,1
87000,102.351959,911,0.785344,87,D6#,112,1
87000,102.351959,151,0.130172,75,D5#,112,1
87000,102.351959,151,0.130172,83,B5,112,1
87000,102.351959,227,0.195689,51,D3#,112,2
87000,102.351959,227,0.195689,54,F3#,112,2
87000,102.351959,227,0.195689,59,B3,112,2
87000,102.351959,227,0.195689,63,D4#,112,2
87160,102.48989,151,0.130172,75,D5#,112,1
87160,102.48989,151,0.130172,83,B5,112,1
87240,102.558855,227,0.19569,39,D2#,112,2
87240,102.558855,227,0.19569,51,D3#,112,2
87320,102.627821,151,0.130172,75,D5#,112,1
87320,102.627821,151,0.130172,83,B5,112,1
87480,102.765752,151,0.130172,75,D5#,112,1
87480,102.765752,151,0.130172,83,B5,112,1
87480,102.765752,239,0.206034,31,G1,127,2
87480,102.765752,239,0.206034,43,G2,127,2
87640,102.903683,151,0.130172,75,D5#,112,1
87640,102.903683,151,0.130172,83,B5,112,1
87720,102.972648,227,0.19569,51,D3#,112,2
87720,102.972648,227,0.19569,54,F3#,112,2
87720,102.972648,227,0.19569,59,B3,112,2
87720,102.972648,227,0.19569,63,D4#,112,2
87800,103.041614,111,0.095689,75,D5#,112,1
87800,103.041614,151,0.130172,83,B5,112,1
87960,103.179545,151,0.130172,73,C5#,112,1
87960,103.179545,911,0.785344,85,C6#,112,1
87960,103.179545,151,0.130172,73,C5#,112,1
87960,103.179545,151,0.130172,82,A5#,112,1
87960,103.179545,227,0.195689,52,E3,112,2
87960,103.179545,227,0.195689,58,A3#,112,2
87960,103.179545,227,0.195689,62,D4,112,2
87960,103.179545,227,0.195689,64,E4,112,2
88120,103.317476,151,0.130172,73,C5#,112,1
88120,103.317476,151,0.130172,82,A5#,112,1
88200,103.386441,227,0.19569,40,E2,112,2
88200,103.386441,227,0.19569,52,E3,112,2
88280,103.455407,151,0.130172,73,C5#,112,1
88280,103.455407,151,0.130172,82,A5#,112,1
88440,103.593338,151,0.130172,73,C5#,112,1
88440,103.593338,151,0.130172,82,A5#,112,1
88440,103.593338,239,0.206034,32,G1#,127,2
88440,103.593338,239,0.206034,44,G2#,127,2
88600,103.731269,151,0.130172,73,C5#,112,1
88600,103.731269,151,0.130172,82,A5#,112,1
88680,103.800234,227,0.19569,52,E3,112,2
88680,103.800234,227,0.19569,58,A3#,112,2
88680,103.800234,227,0.19569,61,C4#,112,2
88680,103.800234,227,0.19569,64,E4,112,2
88760,103.8692,111,0.095689,73,C5#,112,1
88760,103.8692,151,0.130172,76,E5,112,1
88760,103.8692,151,0.130172,82,A5#,112,1
88920,104.007131,151,0.130172,71,B4,112,1
88920,104.007131,911,0.785344,83,B5,112,1
88920,104.007131,151,0.130172,71,B4,112,1
88920,104.007131,151,0.130172,76,E5,112,1
88920,104.007131,151,0.130172,80,G5#,112,1
88920,104.007131,227,0.195689,52,E3,112,2
88920,104.007131,227,0.195689,56,G3#,112,2
88920,104.007131,227,0.195689,59,B3,112,2
88920,104.007131,227,0.195689,64,E4,112,2
89080,104.145062,151,0.130172,71,B4,112,1
89080,104.145062,151,0.130172,76,E5,112,1
89080,104.145062,151,0.130172,80,G5#,112,1
89160,104.214027,227,0.19569,40,E2,112,2
89160,104.214027,227,0.19569,52,E3,112,2
89240,104.282993,151,0.130172,71,B4,112,1
89240,104.282993,151,0.130172,76,E5,112,1
89240,104.282993,151,0.130172,80,G5#,112,1
89400,104.420924,151,0.130172,71,B4,112,1
89400,104.420924,151,0.130172,76,E5,112,1
89400,104.420924,151,0.130172,80,G5#,112,1
89400,104.420924,239,0.206034,33,A1,127,2
89400,104.420924,239,0.206034,45,A2,127,2
89560,104.558855,151,0.130172,71,B4,112,1
89560,104.558855,151,0.130172,76,E5,112,1
89560,104.558855,151,0.130172,80,G5#,112,1
89640,104.62782,227,0.19569,52,E3,112,2
89640,104.62782,227,0.19569,56,G3#,112,2
89640,104.62782,227,0.19569,59,B3,112,2
89640,104.62782,227,0.19569,64,E4,112,2
89720,104.696786,111,0.095689,71,B4,112,1
89720,104.696786,151,0.130172,76,E5,112,1
89720,104.696786,151,0.130172,80,G5#,112,1
89880,104.834717,151,0.130172,71,B4,112,1
89880,104.834717,911,0.785344,83,B5,112,1
89880,104.834717,151,0.130172,71,B4,112,1
89880,104.834717,151,0.130172,75,D5#,112,1
89880,104.834717,151,0.130172,78,F5#,112,1
89880,104.834717,227,0.195689,51,D3#,112,2
89880,104.834717,227,0.195689,54,F3#,112,2
89880,104.834717,227,0.195689,59,B3,112,2
89880,104.834717,227,0.195689,63,D4#,112,2
90040,104.972648,151,0.130172,71,B4,112,1
90040,104.972648,151,0.130172,75,D5#,112,1
90040,104.972648,151,0.130172,78,F5#,112,1
90120,105.041613,227,0.19569,33,A1,127,2
90120,105.041613,227,0.19569,45,A2,127,2
90200,105.110579,151,0.130172,71,B4,112,1
90200,105.110579,151,0.130172,75,D5#,112,1
90200,105.110579,151,0.130172,78,F5#,112,1
90360,105.24851,151,0.130172,71,B4,112,1
90360,105.24851,151,0.130172,75,D5#,112,1
90360,105.24851,151,0.130172,78,F5#,112,1
90360,105.24851,239,0.206034,34,A1#,127,2
90360,105.24851,239,0.206034,46,A2#,127,2
90520,105.386441,151,0.130172,71,B4,112,1
90520,105.386441,151,0.130172,75,D5#,112,1
90520,105.386441,151,0.130172,78,F5#,112,1
90600,105.455406,227,0.19569,54,F3#,112,2
90600,105.455406,227,0.19569,59,B3,112,2
90600,105.455406,227,0.19569,63,D4#,112,2
90600,105.455406,227,0.19569,66,F4#,112,2
90680,105.524372,111,0.095689,71,B4,112,1
90680,105.524372,151,0.130172,75,D5#,112,1
90680,105.524372,151,0.130172,78,F5#,112,1
90840,105.662303,151,0.139814,70,A4#,112,1
90840,105.662303,455,0.421295,82,A5#,112,1
90840,105.662303,151,0.139814,70,A4#,112,1
90840,105.662303,151,0.139814,75,D5#,112,1
90840,105.662303,151,0.139814,78,F5#,112,1
90840,105.662303,151,0.139814,54,F3#,112,2
90840,105.662303,151,0.139814,58,A3#,112,2
90840,105.662303,151,0.139814,63,D4#,112,2
90840,105.662303,151,0.139814,66,F4#,112,2
91000,105.810451,151,0.139814,70,A4#,112,1
91000,105.810451,151,0.139814,75,D5#,112,1
91000,105.810451,151,0.139814,78,F5#,112,1
91000,105.810451,151,0.139814,54,F3#,112,2
91000,105.810451,151,0.139814,58,A3#,112,2
91000,105.810451,151,0.139814,63,D4#,112,2
91000,105.810451,151,0.139814,66,F4#,112,2
91160,105.958599,135,0.124999,70,A4#,112,1
91160,105.958599,151,0.139814,75,D5#,112,1
91160,105.958599,151,0.139814,78,F5#,112,1
91160,105.958599,151,0.139814,54,F3#,112,2
91160,105.958599,151,0.139814,58,A3#,112,2
91160,105.958599,151,0.139814,63,D4#,112,2
91160,105.958599,151,0.139814,66,F4#,112,2
91320,106.106747,151,0.139814,71,B4,112,1
91320,106.106747,455,0.421295,83,B5,112,1
91320,106.106747,151,0.139814,71,B4,112,1
91320,106.106747,151,0.139814,75,D5#,112,1
91320,106.106747,151,0.139814,54,F3#,112,2
91320,106.106747,151,0.139814,57,A3,112,2
91320,106.106747,151,0.139814,59,B3,112,2
91320,106.106747,151,0.139814,63,D4#,112,2
91320,106.106747,151,0.139814,66,F4#,112,2
91480,106.254895,151,0.139814,71,B4,112,1
91480,106.254895,151,0.139814,75,D5#,112,1
91480,106.254895,151,0.139814,54,F3#,112,2
91480,106.254895,151,0.139814,57,A3,112,2
91480,106.254895,151,0.139814,59,B3,112,2
91480,106.254895,151,0.139814,63,D4#,112,2
91480,106.254895,151,0.139814,66,F4#,112,2
91640,106.403043,135,0.124999,71,B4,112,1
91640,106.403043,151,0.139814,75,D5#,112,1
91640,106.403043,151,0.139814,54,F3#,112,2
91640,106.403043,151,0.139814,57,A3,112,2
91640,106.403043,151,0.139814,59,B3,112,2
91640,106.403043,151,0.139814,63,D4#,112,2
91640,106.403043,151,0.139814,66,F4#,112,2
91800,106.551191,455,0.455,66,F4#,112,1
91800,106.551191,455,0.455,78,F5#,112,1
91800,106.551191,151,0.151,71,B4,112,1
91800,106.551191,151,0.151,75,D5#,112,1
91800,106.551191,151,0.151,54,F3#,112,2
91800,106.551191,151,0.151,57,A3,112,2
91800,106.551191,151,0.151,59,B3,112,2
91800,106.551191,151,0.151,63,D4#,112,2
91800,106.551191,151,0.151,66,F4#,112,2
91960,106.711191,151,0.151,71,B4,112,1
91960,106.711191,151,0.151,75,D5#,112,1
91960,106.711191,151,0.151,54,F3#,112,2
91960,106.711191,151,0.151,57,A3,112,2
91960,106.711191,151,0.151,59,B3,112,2
91960,106.711191,151,0.151,63,D4#,112,2
91960,106.711191,151,0.151,66,F4#,112,2
92120,106.871191,151,0.151,71,B4,112,1
92120,106.871191,151,0.151,75,D5#,112,1
92120,106.871191,151,0.151,54,F3#,112,2
92120,106.871191,151,0.151,57,A3,112,2
92120,106.871191,151,0.151,59,B3,112,2
92120,106.871191,151,0.151,63,D4#,112,2
92120,106.871191,151,0.151,66,F4#,112,2
92280,107.031192,911,0.948478,68,G4#,112,1
92280,107.031192,911,0.948478,80,G5#,112,1
92280,107.031192,151,0.151,71,B4,112,1
92280,107.031192,151,0.151,75,D5#,112,1
92280,107.031192,151,0.151,54,F3#,112,2
92280,107.031192,151,0.151,56,G3#,112,2
92280,107.031192,151,0.151,63,D4#,112,2
92280,107.031192,151,0.151,66,F4#,112,2
92440,107.191192,151,0.151,71,B4,112,1
92440,107.191192,151,0.151,75,D5#,112,1
92440,107.191192,151,0.151,54,F3#,112,2
92440,107.191192,151,0.151,56,G3#,112,2
92440,107.191192,151,0.151,63,D4#,112,2
92440,107.191192,151,0.151,66,F4#,112,2
92600,107.351192,151,0.151,71,B4,112,1
92600,107.351192,151,0.151,75,D5#,112,1
92600,107.351192,151,0.151,54,F3#,112,2
92600,107.351192,151,0.151,56,G3#,112,2
92600,107.351192,151,0.151,63,D4#,112,2
92600,107.351192,151,0.151,66,F4#,112,2
92760,107.511193,151,0.16413,71,B4,112,1
92760,107.511193,151,0.16413,75,D5#,112,1
92760,107.511193,151,0.16413,54,F3#,112,2
92760,107.511193,151,0.16413,56,G3#,112,2
92760,107.511193,151,0.16413,63,D4#,112,2
92760,107.511193,151,0.16413,66,F4#,112,2
92920,107.685105,151,0.16413,71,B4,112,1
92920,107.685105,151,0.16413,75,D5#,112,1
92920,107.685105,151,0.16413,54,F3#,112,2
92920,107.685105,151,0.16413,56,G3#,112,2
92920,107.685105,151,0.16413,63,D4#,112,2
92920,107.685105,151,0.16413,66,F4#,112,2
93080,107.859018,151,0.16413,71,B4,112,1
93080,107.859018,151,0.16413,75,D5#,112,1
93080,107.859018,151,0.16413,54,F3#,112,2
93080,107.859018,151,0.16413,56,G3#,112,2
93080,107.859018,151,0.16413,63,D4#,112,2
93080,107.859018,151,0.16413,66,F4#,112,2
93240,108.032931,151,0.16413,70,A4#,112,1
93240,108.032931,151,0.16413,74,D5,112,1
93240,108.032931,151,0.16413,53,F3,112,2
93240,108.032931,151,0.16413,56,G3#,112,2
93240,108.032931,151,0.16413,62,D4,112,2
93240,108.032931,151,0.16413,65,F4,112,2
93400,108.206843,151,0.16413,56,G3#,112,2
93400,108.206843,151,0.16413,62,D4,112,2
93400,108.206843,151,0.16413,65,F4,112,2
93560,108.380756,151,0.17562,56,G3#,112,2
93560,108.380756,151,0.17562,62,D4,112,2
93560,108.380756,151,0.17562,65,F4,112,2
93600,108.424234,113,0.134523,70,A4#,126,1
93600,108.424234,113,0.134523,82,A5#,126,1
93720,108.567091,341,0.411834,58,A3#,126,1
93720,108.567091,341,0.411834,70,A4#,126,1
93720,108.567091,151,0.179762,56,G3#,126,2
93720,108.567091,151,0.179762,62,D4,126,2
93880,108.757567,151,0.179762,56,G3#,126,2
93880,108.757567,151,0.179762,62,D4,126,2
94040,108.948043,151,0.222058,34,A1#,126,2
94040,108.948043,151,0.222058,46,A2#,126,2
94080,109.006866,113,0.166176,65,F4,126,1
94080,109.006866,113,0.166176,77,F5,126,1
94200,109.183336,311,0.595444,65,F4,126,1
94200,109.183336,911,1.195445,77,F5,126,1
94200,109.183336,159,0.441666,27,D1#,127,2
94200,109.183336,159,0.441666,39,D2#,127,2
94360,109.62778,151,0.151,65,F4,126,1
94360,109.62778,151,0.151,70,A4#,126,1
94360,109.62778,151,0.151,46,A2#,126,2
94360,109.62778,151,0.151,54,F3#,126,2
94360,109.62778,151,0.151,58,A3#,126,2
94520,109.78778,151,0.151,65,F4,126,1
94520,109.78778,151,0.151,70,A4#,126,1
94520,109.78778,151,0.151,46,A2#,126,2
94520,109.78778,151,0.151,54,F3#,126,2
94520,109.78778,151,0.151,58,A3#,126,2
94680,109.94778,151,0.151,65,F4,126,1
94680,109.94778,151,0.151,70,A4#,126,1
94680,109.94778,151,0.151,46,A2#,126,2
94680,109.94778,151,0.151,54,F3#,126,2
94680,109.94778,151,0.151,58,A3#,126,2
94840,110.107781,151,0.151,65,F4,126,1
94840,110.107781,151,0.151,70,A4#,126,1
94840,110.107781,151,0.151,46,A2#,126,2
94840,110.107781,151,0.151,54,F3#,126,2
94840,110.107781,151,0.151,58,A3#,126,2
95000,110.267781,111,0.111,65,F4,126,1
95000,110.267781,151,0.151,70,A4#,126,1
95000,110.267781,151,0.151,46,A2#,126,2
95000,110.267781,151,0.151,54,F3#,126,2
95000,110.267781,151,0.151,58,A3#,126,2
95160,110.427781,227,0.227001,63,D4#,126,1
95160,110.427781,227,0.227001,75,D5#,126,1
95160,110.427781,227,0.227001,63,D4#,126,1
95160,110.427781,455,0.455001,70,A4#,126,1
95160,110.427781,151,0.151,54,F3#,126,2
95160,110.427781,151,0.151,58,A3#,126,2
95160,110.427781,151,0.151,66,F4#,126,2
95320,110.587782,151,0.151,46,A2#,126,2
95320,110.587782,151,0.151,58,A3#,126,2
95480,110.747782,151,0.151,46,A2#,126,2
95480,110.747782,151,0.151,58,A3#,126,2
95520,110.787782,95,0.095,70,A4#,126,1
95640,110.907782,341,0.350883,58,A3#,126,1
95640,110.907782,151,0.151,46,A2#,126,2
95640,110.907782,151,0.151,58,A3#,126,2
95800,111.067783,151,0.151,46,A2#,126,2
95800,111.067783,151,0.151,58,A3#,126,2
95960,111.227783,151,0.222058,46,A2#,126,2
95960,111.227783,151,0.222058,58,A3#,126,2
96000,111.286606,113,0.166176,65,F4,126,1
96120,111.463076,911,1.114637,65,F4,126,1
96120,111.463076,159,0.361363,27,D1#,127,2
96120,111.463076,159,0.361363,39,D2#,127,2
96280,111.826712,151,0.151,54,F3#,126,1
96280,111.826712,151,0.151,46,A2#,126,2
96280,111.826712,151,0.151,58,A3#,126,2
96440,111.986712,151,0.151,54,F3#,126,1
96440,111.986712,151,0.151,46,A2#,126,2
96440,111.986712,151,0.151,58,A3#,126,2
96600,112.146712,151,0.151,54,F3#,126,1
96600,112.146712,151,0.151,46,A2#,126,2
96600,112.146712,151,0.151,58,A3#,126,2
96760,112.306713,151,0.151,54,F3#,126,1
96760,112.306713,151,0.151,46,A2#,126,2
96760,112.306713,151,0.151,58,A3#,126,2
96920,112.466713,151,0.151,54,F3#,126,1
96920,112.466713,151,0.151,46,A2#,126,2
96920,112.466713,151,0.151,58,A3#,126,2
97080,112.626713,227,0.227001,63,D4#,126,1
97080,112.626713,455,0.455001,54,F3#,126,1
97080,112.626713,151,0.151,46,A2#,126,2
97080,112.626713,151,0.151,58,A3#,126,2
97240,112.786714,151,0.151,34,A1#,126,2
97240,112.786714,151,0.151,46,A2#,126,2
97400,112.946714,151,0.151,34,A1#,126,2
97400,112.946714,151,0.151,46,A2#,126,2
97440,112.986714,113,0.113,58,A3#,126,1
97560,113.106714,341,0.426176,46,A2#,126,1
97560,113.106714,151,0.151,34,A1#,126,2
97560,113.106714,151,0.151,46,A2#,126,2
97720,113.266715,151,0.222058,34,A1#,126,2
97720,113.266715,151,0.222058,46,A2#,126,2
97880,113.502008,151,0.222059,34,A1#,126,2
97880,113.502008,151,0.222059,46,A2#,126,2
97920,113.560832,113,0.166176,53,F3,126,1
98040,113.737302,151,0.151,53,F3,126,1
98040,113.737302,303,0.303,46,A2#,126,1
98040,113.737302,303,0.303,58,A3#,126,1
98040,113.737302,151,0.151,34,A1#,126,2
98200,113.897302,151,0.151,51,D3#,126,1
98200,113.897302,151,0.151,27,D1#,126,2
98200,113.897302,151,0.151,39,D2#,126,2
98360,114.057302,151,0.151,53,F3,126,1
98360,114.057302,151,0.151,46,A2#,126,1
98360,114.057302,151,0.151,58,A3#,126,1
98360,114.057302,151,0.151,34,A1#,126,2
98520,114.217303,151,0.130172,53,F3,126,1
98520,114.217303,303,0.261206,46,A2#,126,1
98520,114.217303,303,0.261206,58,A3#,126,1
98520,114.217303,151,0.130172,34,A1#,126,2
98680,114.355234,151,0.130172,51,D3#,126,1
98680,114.355234,151,0.130172,27,D1#,126,2
98680,114.355234,151,0.130172,39,D2#,126,2
98840,114.493165,151,0.130172,59,B3,126,1
98840,114.493165,151,0.130172,51,D3#,126,1
98840,114.493165,151,0.130172,63,D4#,126,1
98840,114.493165,151,0.130172,39,D2#,126,2
99000,114.631096,151,0.130172,59,B3,126,1
99000,114.631096,303,0.261206,51,D3#,126,1
99000,114.631096,303,0.261206,63,D4#,126,1
99000,114.631096,151,0.130172,39,D2#,126,2
99160,114.769027,151,0.130172,58,A3#,126,1
99160,114.769027,151,0.130172,34,A1#,126,2
99160,114.769027,151,0.130172,46,A2#,126,2
99320,114.906958,151,0.130172,65,F4,126,1
99320,114.906958,151,0.130172,58,A3#,126,1
99320,114.906958,151,0.130172,70,A4#,126,1
99320,114.906958,151,0.130172,46,A2#,126,2
99480,115.044889,151,0.121774,65,F4,126,1
99480,115.044889,303,0.244354,58,A3#,126,1
99480,115.044889,303,0.244354,70,A4#,126,1
99480,115.044889,151,0.121774,46,A2#,126,2
99640,115.173921,151,0.121774,63,D4#,126,1
99640,115.173921,151,0.121774,39,D2#,126,2
99640,115.173921,151,0.121774,51,D3#,126,2
99800,115.302953,151,0.121774,71,B4,126,1
99800,115.302953,151,0.121774,63,D4#,126,1
99800,115.302953,151,0.121774,75,D5#,126,1
99800,115.302953,151,0.121774,51,D3#,126,2
99960,115.431986,151,0.121774,71,B4,126,1
99960,115.431986,303,0.244354,63,D4#,126,1
99960,115.431986,303,0.244354,75,D5#,126,1
99960,115.431986,151,0.121774,51,D3#,126,2
100120,115.561018,151,0.121774,70,A4#,126,1
100120,115.561018,151,0.121774,46,A2#,126,2
100120,115.561018,151,0.121774,58,A3#,126,2
100280,115.69005,151,0.121774,77,F5,126,1
100280,115.69005,151,0.121774,70,A4#,126,1
100280,115.69005,151,0.121774,82,A5#,126,1
100280,115.69005,151,0.121774,58,A3#,126,2
100440,115.819083,151,0.121774,77,F5,126,1
100440,115.819083,303,0.244354,70,A4#,126,1
100440,115.819083,303,0.244354,82,A5#,126,1
100440,115.819083,151,0.121774,58,A3#,126,2
100600,115.948115,151,0.121774,75,D5#,126,1
100600,115.948115,151,0.121774,51,D3#,126,2
100600,115.948115,151,0.121774,63,D4#,126,2
100760,116.077147,151,0.121774,83,B5,126,1
100760,116.077147,151,0.121774,75,D5#,126,1
100760,116.077147,151,0.121774,87,D6#,126,1
100760,116.077147,151,0.121774,63,D4#,126,2
100920,116.20618,151,0.121774,83,B5,126,1
100920,116.20618,303,0.244354,75,D5#,126,1
100920,116.20618,303,0.244354,87,D6#,126,1
100920,116.20618,151,0.121774,63,D4#,126,2
101080,116.335212,151,0.121774,82,A5#,126,1
101080,116.335212,151,0.121774,58,A3#,126,2
101080,116.335212,151,0.121774,70,A4#,126,2
101240,116.464244,151,0.121774,89,F6,126,1
101240,116.464244,151,0.121774,82,A5#,126,1
101240,116.464244,151,0.121774,94,A6#,126,1
101240,116.464244,151,0.121774,70,A4#,126,2
101400,116.593277,151,0.121774,89,F6,126,1
101400,116.593277,227,0.183064,82,A5#,126,1
101400,116.593277,227,0.183064,94,A6#,126,1
101400,116.593277,151,0.121774,70,A4#,126,2
101560,116.722309,151,0.121774,87,D6#,126,1
101560,116.722309,151,0.121774,63,D4#,126,2
101560,116.722309,151,0.121774,75,D5#,126,2
101640,116.786825,71,0.057258,87,D6#,126,1
101640,116.786825,227,0.183065,99,D7#,126,1
101720,116.851341,151,0.121774,94,A6#,126,1
101720,116.851341,151,0.121774,70,A4#,126,2
101720,116.851341,151,0.121774,75,D5#,126,2
101720,116.851341,151,0.121774,82,A5#,126,2
101880,116.980374,455,0.366935,75,D5#,126,1
101880,116.980374,455,0.366935,82,A5#,126,1
101880,116.980374,455,0.366935,87,D6#,126,1
101880,116.980374,455,0.366935,70,A4#,126,2
101880,116.980374,455,0.366935,75,D5#,126,2
101880,116.980374,455,0.366935,82,A5#,126,2
102840,117.754568,911,0.734677,54,F3#,126,1
102840,117.754568,911,0.734677,63,D4#,126,1
102840,117.754568,911,0.734677,70,A4#,126,1
102840,117.754568,911,0.734677,27,D1#,126,2
102840,117.754568,911,0.734677,39,D2#,126,2
102840,117.754568,911,0.734677,46,A2#,126,2
103800,118.528762,1823,2.398688,54,F3#,126,1
103800,118.528762,1823,2.398688,58,A3#,126,1
103800,118.528762,1823,2.398688,63,D4#,126,1
103800,118.528762,1823,2.398688,66,F4#,126,1
103800,118.528762,1823,2.398688,39,D2#,126,2
103800,118.528762,1823,2.398688,46,A2#,126,2
103800,118.528762,1823,2.398688,51,D3#,126,2
