start_ticks,start_secs,dur_ticks,dur_secs,pitch,fullNoteOctave,velocity,part
0,0.0,68,0.080952,37,C2#,80,3
69,0.082142,68,0.080953,44,G2#,80,3
138,0.164285,68,0.080953,49,C3#,80,3
207,0.246428,68,0.080953,53,F3,80,3
276,0.328571,68,0.080953,56,G3#,80,3
345,0.410714,68,0.080953,61,C4#,80,3
414,0.492857,68,0.080952,65,F4,80,3
480,0.571429,68,0.080952,68,G4#,80,3
549,0.653571,68,0.080953,65,F4,80,3
618,0.735714,68,0.080953,61,C4#,80,3
687,0.817857,68,0.080953,56,G3#,80,3
756,0.9,68,0.080953,53,F3,80,3
825,0.982143,68,0.080953,49,C3#,80,3
894,1.064286,64,0.076191,44,G2#,80,3
960,1.142858,68,0.080952,37,C2#,80,3
1029,1.225,68,0.080953,44,G2#,80,3
1098,1.307143,68,0.080953,49,C3#,80,3
1167,1.389286,68,0.080953,53,F3,80,3
1236,1.471429,68,0.080953,56,G3#,80,3
1305,1.553572,68,0.080953,61,C4#,80,3
1374,1.635715,68,0.080952,65,F4,80,3
1440,1.714287,68,0.080952,68,G4#,80,3
1509,1.796429,68,0.080953,65,F4,80,3
1578,1.878572,68,0.080953,61,C4#,80,3
1647,1.960715,68,0.080953,56,G3#,80,3
1716,2.042858,68,0.080953,53,F3,80,3
1785,2.125001,68,0.080953,49,C3#,80,3
1854,2.207144,64,0.076191,44,G2#,80,3
1920,2.285716,68,0.080952,37,C2#,80,3
1989,2.367858,68,0.080953,44,G2#,80,3
2058,2.450001,68,0.080953,49,C3#,80,3
2127,2.532144,68,0.080953,53,F3,80,3
2196,2.614287,68,0.080953,56,G3#,80,3
2265,2.69643,68,0.080953,61,C4#,80,3
2334,2.778573,68,0.080952,65,F4,80,3
2400,2.857145,68,0.080952,68,G4#,80,3
2469,2.939287,68,0.080953,65,F4,80,3
2538,3.02143,68,0.080953,61,C4#,80,3
2607,3.103573,68,0.080953,56,G3#,80,3
2676,3.185716,68,0.080953,53,F3,80,3
2745,3.267859,68,0.080953,49,C3#,80,3
2814,3.350002,64,0.076191,44,G2#,80,3
2880,3.428574,68,0.080952,37,C2#,80,3
2949,3.510716,68,0.080953,44,G2#,80,3
3018,3.592859,68,0.080953,49,C3#,80,3
3087,3.675002,68,0.080953,53,F3,80,3
3156,3.757145,68,0.080953,56,G3#,80,3
3225,3.839288,68,0.080953,61,C4#,80,3
3294,3.921431,68,0.080952,65,F4,80,3
3360,4.000003,68,0.080952,68,G4#,80,3
3429,4.082145,68,0.080953,65,F4,80,3
3498,4.164288,68,0.080953,61,C4#,80,3
3567,4.246431,68,0.080953,56,G3#,80,3
3636,4.328574,68,0.080953,53,F3,80,3
3705,4.410717,68,0.080953,49,C3#,80,3
3774,4.49286,64,0.076191,44,G2#,80,3
3840,4.571432,68,0.080952,37,C2#,80,3
3909,4.653574,68,0.080953,44,G2#,80,3
3978,4.735717,68,0.080953,49,C3#,80,3
4047,4.81786,68,0.080953,53,F3,80,3
4116,4.900003,68,0.080953,56,G3#,80,3
4185,4.982146,68,0.080953,61,C4#,80,3
4254,5.064289,68,0.080952,65,F4,80,3
4320,5.142861,119,0.141666,68,G4#,80,1
4389,5.225003,68,0.080953,65,F4,80,3
4458,5.307146,68,0.080953,61,C4#,80,3
4527,5.389289,68,0.080953,56,G3#,80,3
4596,5.471432,68,0.080953,53,F3,80,3
4665,5.553575,68,0.080953,49,C3#,80,3
4734,5.635718,64,0.076191,44,G2#,80,3
4800,5.71429,119,0.141666,70,A4#,80,1
4800,5.71429,68,0.080952,37,C2#,80,3
4869,5.796432,68,0.080953,44,G2#,80,3
4938,5.878575,68,0.080953,49,C3#,80,3
5007,5.960718,68,0.080953,53,F3,80,3
5076,6.042861,68,0.080953,56,G3#,80,3
5145,6.125004,68,0.080953,61,C4#,80,3
5214,6.207147,68,0.080952,65,F4,80,3
5280,6.285719,119,0.141666,73,C5#,80,1
5349,6.367861,68,0.080953,65,F4,80,3
5418,6.450004,68,0.080953,61,C4#,80,3
5487,6.532147,68,0.080953,56,G3#,80,3
5556,6.61429,68,0.080953,53,F3,80,3
5625,6.696433,68,0.080953,49,C3#,80,3
5694,6.778576,64,0.076191,44,G2#,80,3
5760,6.857148,119,0.141666,75,D5#,80,1
5760,6.857148,68,0.080952,37,C2#,80,3
5829,6.93929,68,0.080953,46,A2#,80,3
5898,7.021433,68,0.080953,49,C3#,80,3
5967,7.103576,68,0.080953,54,F3#,80,3
6036,7.185719,68,0.080953,58,A3#,80,3
6105,7.267862,68,0.080953,61,C4#,80,3
6174,7.350005,68,0.080952,66,F4#,80,3
6240,7.428577,119,0.141666,77,F5,80,1
6309,7.510719,68,0.080953,66,F4#,80,3
6378,7.592862,68,0.080953,61,C4#,80,3
6447,7.675005,68,0.080953,58,A3#,80,3
6516,7.757148,68,0.080953,54,F3#,80,3
6585,7.839291,68,0.080953,49,C3#,80,3
6654,7.921434,64,0.076191,46,A2#,80,3
6720,8.000006,119,0.141666,75,D5#,80,1
6720,8.000006,68,0.080952,37,C2#,80,3
6789,8.082148,68,0.080953,46,A2#,80,3
6858,8.164291,68,0.080953,49,C3#,80,3
6927,8.246434,68,0.080953,54,F3#,80,3
6996,8.328577,68,0.080953,58,A3#,80,3
7065,8.41072,68,0.080953,61,C4#,80,3
7134,8.492863,68,0.080952,66,F4#,80,3
7200,8.571435,119,0.141666,70,A4#,80,1
7269,8.653577,68,0.080953,66,F4#,80,3
7338,8.73572,68,0.080953,61,C4#,80,3
7407,8.817863,68,0.080953,58,A3#,80,3
7476,8.900006,68,0.080953,54,F3#,80,3
7545,8.982149,68,0.080953,49,C3#,80,3
7614,9.064292,64,0.076191,46,A2#,80,3
7680,9.142864,455,0.541667,73,C5#,80,1
7680,9.142864,68,0.080952,37,C2#,80,3
7749,9.225006,68,0.080953,44,G2#,80,3
7818,9.307149,68,0.080953,49,C3#,80,3
7887,9.389292,68,0.080953,53,F3,80,3
7956,9.471435,68,0.080953,56,G3#,80,3
8025,9.553578,68,0.080953,61,C4#,80,3
8094,9.635721,68,0.080952,65,F4,80,3
8160,9.714293,68,0.080952,68,G4#,80,3
8229,9.796435,68,0.080953,65,F4,80,3
8298,9.878578,68,0.080953,61,C4#,80,3
8367,9.960721,68,0.080953,56,G3#,80,3
8436,10.042864,68,0.080953,53,F3,80,3
8505,10.125007,68,0.080953,49,C3#,80,3
8574,10.20715,64,0.076191,44,G2#,80,3
8640,10.285722,68,0.080952,37,C2#,80,3
8709,10.367864,68,0.080953,44,G2#,80,3
8778,10.450007,68,0.080953,49,C3#,80,3
8847,10.53215,68,0.080953,53,F3,80,3
8916,10.614293,68,0.080953,56,G3#,80,3
8985,10.696436,68,0.080953,61,C4#,80,3
9054,10.778579,68,0.080952,65,F4,80,3
9120,10.857151,68,0.080952,68,G4#,80,3
9189,10.939293,68,0.080953,65,F4,80,3
9258,11.021436,68,0.080953,61,C4#,80,3
9327,11.103579,68,0.080953,56,G3#,80,3
9396,11.185722,68,0.080953,53,F3,80,3
9465,11.267865,68,0.080953,49,C3#,80,3
9534,11.350008,64,0.076191,44,G2#,80,3
9600,11.42858,68,0.080952,37,C2#,80,3
9669,11.510722,68,0.080953,44,G2#,80,3
9738,11.592865,68,0.080953,49,C3#,80,3
9807,11.675008,68,0.080953,53,F3,80,3
9876,11.757151,68,0.080953,56,G3#,80,3
9945,11.839294,68,0.080953,61,C4#,80,3
10014,11.921437,68,0.080952,65,F4,80,3
10080,12.000009,119,0.141666,68,G4#,33,1
10149,12.082151,68,0.080953,65,F4,80,3
10218,12.164294,68,0.080953,61,C4#,80,3
10287,12.246437,68,0.080953,56,G3#,80,3
10356,12.32858,68,0.080953,53,F3,80,3
10425,12.410723,68,0.080953,49,C3#,80,3
10494,12.492866,64,0.076191,44,G2#,80,3
10560,12.571438,119,0.141666,70,A4#,33,1
10560,12.571438,68,0.080952,37,C2#,80,3
10629,12.65358,68,0.080953,44,G2#,80,3
10698,12.735723,68,0.080953,49,C3#,80,3
10767,12.817866,68,0.080953,53,F3,80,3
10836,12.900009,68,0.080953,56,G3#,80,3
10905,12.982152,68,0.080953,61,C4#,80,3
10974,13.064295,68,0.080952,65,F4,80,3
11040,13.142867,119,0.141666,73,C5#,33,1
11109,13.225009,68,0.080953,65,F4,80,3
11178,13.307152,68,0.080953,61,C4#,80,3
11247,13.389295,68,0.080953,56,G3#,80,3
11316,13.471438,68,0.080953,53,F3,80,3
11385,13.553581,68,0.080953,49,C3#,80,3
11454,13.635724,64,0.076191,44,G2#,80,3
11520,13.714296,119,0.141666,75,D5#,33,1
11520,13.714296,68,0.080952,37,C2#,80,3
11589,13.796438,68,0.080953,46,A2#,80,3
11658,13.878581,68,0.080953,49,C3#,80,3
11727,13.960724,68,0.080953,54,F3#,80,3
11796,14.042867,68,0.080953,58,A3#,80,3
11865,14.12501,68,0.080953,61,C4#,80,3
11934,14.207153,68,0.080952,66,F4#,80,3
12000,14.285725,119,0.141666,77,F5,33,1
12069,14.367867,68,0.080953,66,F4#,80,3
12138,14.45001,68,0.080953,61,C4#,80,3
12207,14.532153,68,0.080953,58,A3#,80,3
12276,14.614296,68,0.080953,54,F3#,80,3
12345,14.696439,68,0.080953,49,C3#,80,3
12414,14.778582,64,0.076191,46,A2#,80,3
12480,14.857154,119,0.141666,75,D5#,33,1
12480,14.857154,68,0.080952,37,C2#,80,3
12549,14.939296,68,0.080953,46,A2#,80,3
12618,15.021439,68,0.080953,49,C3#,80,3
12687,15.103582,68,0.080953,54,F3#,80,3
12756,15.185725,68,0.080953,58,A3#,80,3
12825,15.267868,68,0.080953,61,C4#,80,3
12894,15.350011,68,0.080952,66,F4#,80,3
12960,15.428583,119,0.141666,70,A4#,33,1
13029,15.510725,68,0.080953,66,F4#,80,3
13098,15.592868,68,0.080953,61,C4#,80,3
13167,15.675011,68,0.080953,58,A3#,80,3
13236,15.757154,68,0.080953,54,F3#,80,3
13305,15.839297,68,0.080953,49,C3#,80,3
13374,15.92144,64,0.076191,46,A2#,80,3
13440,16.000012,455,0.541667,73,C5#,33,1
13440,16.000012,68,0.080952,37,C2#,80,3
13509,16.082154,68,0.080953,44,G2#,80,3
13578,16.164297,68,0.080953,49,C3#,80,3
13647,16.24644,68,0.080953,53,F3,80,3
13716,16.328583,68,0.080953,56,G3#,80,3
13785,16.410726,68,0.080953,61,C4#,80,3
13854,16.492869,68,0.080952,65,F4,80,3
13920,16.571441,68,0.080952,68,G4#,80,3
13989,16.653583,68,0.080953,65,F4,80,3
14058,16.735726,68,0.080953,61,C4#,80,3
14127,16.817869,68,0.080953,56,G3#,80,3
14196,16.900012,68,0.080953,53,F3,80,3
14265,16.982155,68,0.080953,49,C3#,80,3
14334,17.064298,64,0.076191,44,G2#,80,3
14400,17.14287,68,0.080952,37,C2#,80,3
14469,17.225012,68,0.080953,44,G2#,80,3
14538,17.307155,68,0.080953,49,C3#,80,3
14607,17.389298,68,0.080953,53,F3,80,3
14676,17.471441,68,0.080953,56,G3#,80,3
14745,17.553584,68,0.080953,61,C4#,80,3
14814,17.635727,68,0.080952,65,F4,80,3
14880,17.714299,68,0.080952,68,G4#,80,3
14949,17.796441,68,0.080953,65,F4,80,3
15018,17.878584,68,0.080953,61,C4#,80,3
15087,17.960727,68,0.080953,56,G3#,80,3
15156,18.04287,68,0.080953,53,F3,80,3
15225,18.125013,68,0.080953,49,C3#,80,3
15294,18.207156,64,0.076191,44,G2#,80,3
15360,18.285728,59,0.070238,36,C2,80,3
15360,18.285728,59,0.070238,36,C2,80,3
15420,18.357156,59,0.070238,45,A2,80,3
15480,18.428585,59,0.070238,51,D3#,80,3
15540,18.500013,59,0.070239,53,F3,80,3
15600,18.571442,59,0.070238,57,A3,80,3
15660,18.642871,59,0.070238,63,D4#,80,3
15720,18.714299,59,0.070238,65,F4,80,3
15780,18.785728,59,0.070238,69,A4,80,3
15840,18.857157,239,0.284524,78,F5#,39,1
15900,18.928585,59,0.070238,69,A4,80,3
15960,19.000014,59,0.070238,65,F4,80,3
16020,19.071442,59,0.070239,63,D4#,80,3
16080,19.142871,59,0.070238,57,A3,80,3
16140,19.2143,59,0.070238,53,F3,80,3
16200,19.285728,59,0.070238,51,D3#,80,3
16260,19.357157,56,0.066667,45,A2,80,3
16320,19.428586,119,0.141666,77,F5,33,1
16320,19.428586,455,0.541667,33,A1,80,3
16389,19.510728,68,0.080953,48,C3,80,3
16458,19.592871,68,0.080953,51,D3#,80,3
16527,19.675014,68,0.080953,53,F3,80,3
16596,19.757157,68,0.080953,60,C4,80,3
16665,19.8393,68,0.080953,63,D4#,80,3
16734,19.921443,68,0.080952,65,F4,80,3
16800,20.000015,119,0.141666,72,C5,33,1
16869,20.082157,68,0.080953,65,F4,80,3
16938,20.1643,68,0.080953,63,D4#,80,3
17007,20.246443,68,0.080953,60,C4,80,3
17076,20.328586,68,0.080953,53,F3,80,3
17145,20.410729,68,0.080953,51,D3#,80,3
17214,20.492872,64,0.076191,48,C3,80,3
17280,20.571444,119,0.141666,75,D5#,33,1
17280,20.571444,455,0.541667,34,A1#,80,3
17349,20.653586,68,0.080953,49,C3#,80,3
17418,20.735729,68,0.080953,53,F3,80,3
17487,20.817872,68,0.080953,58,A3#,80,3
17556,20.900015,68,0.080953,61,C4#,80,3
17625,20.982158,68,0.080953,65,F4,80,3
17694,21.064301,68,0.080952,70,A4#,80,3
17760,21.142873,119,0.141666,73,C5#,33,1
17829,21.225015,68,0.080953,70,A4#,80,3
17898,21.307158,68,0.080953,65,F4,80,3
17967,21.389301,68,0.080953,61,C4#,80,3
18036,21.471444,68,0.080953,58,A3#,80,3
18105,21.553587,68,0.080953,53,F3,80,3
18174,21.63573,64,0.076191,49,C3#,80,3
18240,21.714302,119,0.141666,80,G5#,33,1
18240,21.714302,68,0.080952,42,F2#,80,3
18309,21.796444,68,0.080953,49,C3#,80,3
18378,21.878587,68,0.080953,51,D3#,80,3
18447,21.96073,68,0.080953,58,A3#,80,3
18516,22.042873,68,0.080953,61,C4#,80,3
18585,22.125016,68,0.080953,63,D4#,80,3
18654,22.207159,68,0.080952,70,A4#,80,3
18720,22.285731,119,0.141666,78,F5#,33,1
18789,22.367873,68,0.080953,70,A4#,80,3
18858,22.450016,68,0.080953,63,D4#,80,3
18927,22.532159,68,0.080953,61,C4#,80,3
18996,22.614302,68,0.080953,58,A3#,80,3
19065,22.696445,68,0.080953,51,D3#,80,3
19134,22.778588,64,0.076191,49,C3#,80,3
19200,22.85716,479,0.570238,68,G4#,33,1
19200,22.85716,79,0.094047,44,G2#,80,3
19280,22.952398,79,0.094047,53,F3,80,3
19360,23.047636,79,0.094048,56,G3#,80,3
19440,23.142874,79,0.094048,61,C4#,80,3
19520,23.238112,79,0.094048,61,C4#,80,3
19600,23.33335,79,0.094048,65,F4,80,3
19680,23.428589,359,0.427381,67,G4,33,1
19760,23.523827,79,0.094047,65,F4,80,3
19840,23.619065,79,0.094048,61,C4#,80,3
19920,23.714303,79,0.094048,61,C4#,80,3
20000,23.809541,79,0.094048,56,G3#,80,3
20040,23.85716,119,0.141667,68,G4#,33,1
20080,23.904779,75,0.089286,53,F3,80,3
20160,24.000018,53,0.063095,68,G4#,33,1
20160,24.000018,68,0.080952,44,G2#,80,3
20214,24.064303,424,0.504763,77,F5,33,1
20229,24.08216,68,0.080953,54,F3#,80,3
20298,24.164303,68,0.080953,56,G3#,80,3
20367,24.246446,68,0.080953,60,C4,80,3
20436,24.328589,68,0.080953,60,C4,80,3
20505,24.410732,68,0.080953,66,F4#,80,3
20574,24.492875,68,0.080952,68,G4#,80,3
20640,24.571447,419,0.498809,77,F5,33,1
20709,24.653589,68,0.080953,68,G4#,80,3
20778,24.735732,68,0.080953,66,F4#,80,3
20847,24.817875,68,0.080953,60,C4,80,3
20916,24.900018,68,0.080953,60,C4,80,3
20985,24.982161,68,0.080953,56,G3#,80,3
21054,25.064304,64,0.076191,54,F3#,80,3
21060,25.071447,56,0.066667,75,D5#,33,1
21120,25.142876,455,0.541667,73,C5#,33,1
21120,25.142876,68,0.080952,37,C2#,80,3
21189,25.225018,68,0.080953,44,G2#,80,3
21258,25.307161,68,0.080953,49,C3#,80,3
21327,25.389304,68,0.080953,53,F3,80,3
21396,25.471447,68,0.080953,56,G3#,80,3
21465,25.55359,68,0.080953,61,C4#,80,3
21534,25.635733,68,0.080952,65,F4,80,3
21600,25.714305,68,0.080952,68,G4#,80,3
21669,25.796447,68,0.080953,65,F4,80,3
21738,25.87859,68,0.080953,61,C4#,80,3
21807,25.960733,68,0.080953,56,G3#,80,3
21876,26.042876,68,0.080953,53,F3,80,3
21945,26.125019,68,0.080953,49,C3#,80,3
22014,26.207162,64,0.076191,44,G2#,80,3
22080,26.285734,68,0.080952,37,C2#,80,3
22149,26.367876,68,0.080953,44,G2#,80,3
22218,26.450019,68,0.080953,49,C3#,80,3
22287,26.532162,68,0.080953,53,F3,80,3
22356,26.614305,68,0.080953,56,G3#,80,3
22425,26.696448,68,0.080953,61,C4#,80,3
22494,26.778591,68,0.080952,65,F4,80,3
22560,26.857163,68,0.080952,68,G4#,80,3
22629,26.939305,68,0.080953,65,F4,80,3
22698,27.021448,68,0.080953,61,C4#,80,3
22767,27.103591,68,0.080953,56,G3#,80,3
22836,27.185734,68,0.080953,53,F3,80,3
22905,27.267877,68,0.080953,49,C3#,80,3
22974,27.35002,64,0.076191,44,G2#,80,3
23040,27.428592,68,0.080952,37,C2#,80,3
23109,27.510734,68,0.080953,44,G2#,80,3
23178,27.592877,68,0.080953,49,C3#,80,3
23247,27.67502,68,0.080953,53,F3,80,3
23316,27.757163,68,0.080953,56,G3#,80,3
23385,27.839306,68,0.080953,61,C4#,80,3
23454,27.921449,68,0.080952,65,F4,80,3
23520,28.000021,79,0.094047,68,G4#,33,1
23589,28.082163,68,0.080953,65,F4,80,3
23658,28.164306,68,0.080953,61,C4#,80,3
23680,28.190497,79,0.094048,80,G5#,33,1
23727,28.246449,68,0.080953,56,G3#,80,3
23796,28.328592,68,0.080953,53,F3,80,3
23865,28.410735,68,0.080953,49,C3#,80,3
23934,28.492878,64,0.076191,44,G2#,80,3
24000,28.57145,79,0.094047,70,A4#,33,1
24000,28.57145,68,0.080952,37,C2#,80,3
24069,28.653592,68,0.080953,44,G2#,80,3
24138,28.735735,68,0.080953,49,C3#,80,3
24160,28.761926,79,0.094048,82,A5#,33,1
24207,28.817878,68,0.080953,53,F3,80,3
24276,28.900021,68,0.080953,56,G3#,80,3
24345,28.982164,68,0.080953,61,C4#,80,3
24414,29.064307,68,0.080952,65,F4,80,3
24480,29.142879,79,0.094047,73,C5#,33,1
24549,29.225021,68,0.080953,65,F4,80,3
24618,29.307164,68,0.080953,61,C4#,80,3
24640,29.333355,79,0.094048,85,C6#,33,1
24687,29.389307,68,0.080953,56,G3#,80,3
24756,29.47145,68,0.080953,53,F3,80,3
24825,29.553593,68,0.080953,49,C3#,80,3
24894,29.635736,64,0.076191,44,G2#,80,3
24960,29.714308,79,0.094047,75,D5#,33,1
24960,29.714308,68,0.080952,37,C2#,80,3
25029,29.79645,68,0.080953,46,A2#,80,3
25098,29.878593,68,0.080953,49,C3#,80,3
25120,29.904784,79,0.094048,87,D6#,33,1
25167,29.960736,68,0.080953,54,F3#,80,3
25236,30.042879,68,0.080953,58,A3#,80,3
25305,30.125022,68,0.080953,61,C4#,80,3
25374,30.207165,68,0.080952,66,F4#,80,3
25440,30.285737,79,0.094047,77,F5,33,1
25509,30.367879,68,0.080953,66,F4#,80,3
25578,30.450022,68,0.080953,61,C4#,80,3
25600,30.476213,79,0.094048,89,F6,33,1
25647,30.532165,68,0.080953,58,A3#,80,3
25716,30.614308,68,0.080953,54,F3#,80,3
25785,30.696451,68,0.080953,49,C3#,80,3
25854,30.778594,64,0.076191,46,A2#,80,3
25920,30.857166,79,0.094047,75,D5#,33,1
25920,30.857166,68,0.080952,37,C2#,80,3
25989,30.939308,68,0.080953,46,A2#,80,3
26058,31.021451,68,0.080953,49,C3#,80,3
26080,31.047642,79,0.094048,87,D6#,33,1
26127,31.103594,68,0.080953,54,F3#,80,3
26196,31.185737,68,0.080953,58,A3#,80,3
26265,31.26788,68,0.080953,61,C4#,80,3
26334,31.350023,68,0.080952,66,F4#,80,3
26400,31.428595,79,0.094047,70,A4#,33,1
26469,31.510737,68,0.080953,66,F4#,80,3
26538,31.59288,68,0.080953,61,C4#,80,3
26560,31.619071,79,0.094048,82,A5#,33,1
26607,31.675023,68,0.080953,58,A3#,80,3
26676,31.757166,68,0.080953,54,F3#,80,3
26745,31.839309,68,0.080953,49,C3#,80,3
26814,31.921452,64,0.076191,46,A2#,80,3
26880,32.000024,79,0.094047,73,C5#,33,1
26880,32.000024,68,0.080952,37,C2#,80,3
26949,32.082166,68,0.080953,44,G2#,80,3
27018,32.164309,68,0.080953,49,C3#,80,3
27040,32.1905,79,0.094048,85,C6#,33,1
27087,32.246452,68,0.080953,53,F3,80,3
27156,32.328595,68,0.080953,56,G3#,80,3
27225,32.410738,68,0.080953,61,C4#,80,3
27294,32.492881,68,0.080952,65,F4,80,3
27360,32.571453,68,0.080952,68,G4#,80,3
27429,32.653595,68,0.080953,65,F4,80,3
27498,32.735738,68,0.080953,61,C4#,80,3
27567,32.817881,68,0.080953,56,G3#,80,3
27636,32.900024,68,0.080953,53,F3,80,3
27705,32.982167,68,0.080953,49,C3#,80,3
27774,33.06431,64,0.076191,44,G2#,80,3
27840,33.142882,68,0.080952,37,C2#,80,3
27909,33.225024,68,0.080953,44,G2#,80,3
27978,33.307167,68,0.080953,49,C3#,80,3
28047,33.38931,68,0.080953,53,F3,80,3
28116,33.471453,68,0.080953,56,G3#,80,3
28185,33.553596,68,0.080953,61,C4#,80,3
28254,33.635739,68,0.080952,65,F4,80,3
28320,33.714311,68,0.080952,68,G4#,80,3
28389,33.796453,68,0.080953,65,F4,80,3
28458,33.878596,68,0.080953,61,C4#,80,3
28527,33.960739,68,0.080953,56,G3#,80,3
28596,34.042882,68,0.080953,53,F3,80,3
28665,34.125025,68,0.080953,49,C3#,80,3
28734,34.207168,64,0.076191,44,G2#,80,3
28800,34.28574,68,0.080952,37,C2#,80,3
28869,34.367882,68,0.080953,44,G2#,80,3
28938,34.450025,68,0.080953,49,C3#,80,3
29007,34.532168,68,0.080953,53,F3,80,3
29076,34.614311,68,0.080953,56,G3#,80,3
29145,34.696454,68,0.080953,61,C4#,80,3
29214,34.778597,68,0.080952,65,F4,80,3
29280,34.857169,79,0.094047,68,G4#,33,1
29349,34.939311,68,0.080953,65,F4,80,3
29418,35.021454,68,0.080953,61,C4#,80,3
29440,35.047645,79,0.094048,80,G5#,33,1
29487,35.103597,68,0.080953,56,G3#,80,3
29556,35.18574,68,0.080953,53,F3,80,3
29625,35.267883,68,0.080953,49,C3#,80,3
29694,35.350026,64,0.076191,44,G2#,80,3
29760,35.428598,79,0.094047,70,A4#,33,1
29760,35.428598,68,0.080952,37,C2#,80,3
29829,35.51074,68,0.080953,44,G2#,80,3
29898,35.592883,68,0.080953,49,C3#,80,3
29920,35.619074,79,0.094048,82,A5#,33,1
29967,35.675026,68,0.080953,53,F3,80,3
30036,35.757169,68,0.080953,56,G3#,80,3
30105,35.839312,68,0.080953,61,C4#,80,3
30174,35.921455,68,0.080952,65,F4,80,3
30240,36.000027,79,0.094047,73,C5#,33,1
30309,36.082169,68,0.080953,65,F4,80,3
30378,36.164312,68,0.080953,61,C4#,80,3
30400,36.190503,79,0.094048,85,C6#,33,1
30447,36.246455,68,0.080953,56,G3#,80,3
30516,36.328598,68,0.080953,53,F3,80,3
30585,36.410741,68,0.080953,49,C3#,80,3
30654,36.492884,64,0.076191,44,G2#,80,3
30720,36.571456,79,0.094047,75,D5#,33,1
30720,36.571456,68,0.080952,37,C2#,80,3
30789,36.653598,68,0.080953,46,A2#,80,3
30858,36.735741,68,0.080953,49,C3#,80,3
30880,36.761932,79,0.094048,87,D6#,33,1
30927,36.817884,68,0.080953,54,F3#,80,3
30996,36.900027,68,0.080953,58,A3#,80,3
31065,36.98217,68,0.080953,61,C4#,80,3
31134,37.064313,68,0.080952,66,F4#,80,3
31200,37.142885,79,0.094047,77,F5,33,1
31269,37.225027,68,0.080953,66,F4#,80,3
31338,37.30717,68,0.080953,61,C4#,80,3
31360,37.333361,79,0.094048,89,F6,33,1
31407,37.389313,68,0.080953,58,A3#,80,3
31476,37.471456,68,0.080953,54,F3#,80,3
31545,37.553599,68,0.080953,49,C3#,80,3
31614,37.635742,64,0.076191,46,A2#,80,3
31680,37.714314,79,0.094047,75,D5#,33,1
31680,37.714314,68,0.080952,37,C2#,80,3
31749,37.796456,68,0.080953,46,A2#,80,3
31818,37.878599,68,0.080953,49,C3#,80,3
31840,37.90479,79,0.094048,87,D6#,33,1
31887,37.960742,68,0.080953,54,F3#,80,3
31956,38.042885,68,0.080953,58,A3#,80,3
32025,38.125028,68,0.080953,61,C4#,80,3
32094,38.207171,68,0.080952,66,F4#,80,3
32160,38.285743,79,0.094047,70,A4#,33,1
32229,38.367885,68,0.080953,66,F4#,80,3
32298,38.450028,68,0.080953,61,C4#,80,3
32320,38.476219,79,0.094048,82,A5#,33,1
32367,38.532171,68,0.080953,58,A3#,80,3
32436,38.614314,68,0.080953,54,F3#,80,3
32505,38.696457,68,0.080953,49,C3#,80,3
32574,38.7786,64,0.076191,46,A2#,80,3
32640,38.857172,79,0.094047,73,C5#,33,1
32640,38.857172,68,0.080952,37,C2#,80,3
32709,38.939314,68,0.080953,44,G2#,81,3
32778,39.021457,68,0.080953,49,C3#,82,3
32800,39.047648,79,0.094048,85,C6#,33,1
32847,39.1036,68,0.080953,53,F3,83,3
32916,39.185743,68,0.080953,56,G3#,84,3
32985,39.267886,68,0.080953,61,C4#,85,3
33054,39.350029,68,0.080952,65,F4,86,3
33120,39.428601,68,0.080952,73,C5#,88,3
33189,39.510743,68,0.080953,65,F4,89,3
33258,39.592886,68,0.080953,61,C4#,90,3
33327,39.675029,68,0.080953,56,G3#,91,3
33396,39.757172,68,0.080953,53,F3,92,3
33465,39.839315,68,0.080953,49,C3#,93,3
33534,39.921458,64,0.076191,44,G2#,94,3
33600,40.00003,68,0.080952,37,C2#,96,3
33669,40.082172,68,0.080953,44,G2#,97,3
33738,40.164315,68,0.080953,49,C3#,98,3
33807,40.246458,68,0.080953,52,E3,99,3
33876,40.328601,68,0.080953,56,G3#,100,3
33945,40.410744,68,0.080953,61,C4#,101,3
34014,40.492887,68,0.080952,64,E4,102,3
34080,40.571459,68,0.080952,68,G4#,104,3
34149,40.653601,68,0.080953,64,E4,105,3
34218,40.735744,68,0.080953,61,C4#,106,3
34287,40.817887,68,0.080953,56,G3#,107,3
34356,40.90003,68,0.080953,52,E3,108,3
34425,40.982173,68,0.080953,49,C3#,109,3
34494,41.064316,64,0.076191,44,G2#,110,3
34560,41.142888,59,0.070238,35,B1,112,3
34620,41.214316,59,0.070238,44,G2#,112,3
34680,41.285745,59,0.070238,50,D3,112,3
34740,41.357173,59,0.070239,52,E3,112,3
34800,41.428602,59,0.070238,56,G3#,112,3
34860,41.500031,59,0.070238,62,D4,112,3
34920,41.571459,59,0.070238,64,E4,112,3
34980,41.642888,59,0.070238,68,G4#,112,3
35040,41.714317,79,0.094047,78,F5#,33,1
35100,41.785745,59,0.070238,68,G4#,112,3
35160,41.857174,59,0.070238,64,E4,112,3
35200,41.904793,79,0.094048,90,F6#,33,1
35220,41.928602,59,0.070239,62,D4,112,3
35280,42.000031,59,0.070238,56,G3#,112,3
35340,42.07146,59,0.070238,52,E3,112,3
35400,42.142888,59,0.070238,50,D3,112,3
35460,42.214317,56,0.066667,44,G2#,112,3
35520,42.285746,79,0.094047,76,E5,33,1
35520,42.285746,455,0.541667,32,G1#,112,3
35589,42.367888,68,0.080953,47,B2,112,3
35658,42.450031,68,0.080953,50,D3,112,3
35680,42.476222,79,0.094048,88,E6,33,1
35727,42.532174,68,0.080953,52,E3,112,3
35796,42.614317,68,0.080953,59,B3,112,3
35865,42.69646,68,0.080953,62,D4,112,3
35934,42.778603,68,0.080952,64,E4,112,3
36000,42.857175,79,0.094047,71,B4,33,1
36069,42.939317,68,0.080953,64,E4,112,3
36138,43.02146,68,0.080953,62,D4,112,3
36160,43.047651,79,0.094048,83,B5,33,1
36207,43.103603,68,0.080953,59,B3,112,3
36276,43.185746,68,0.080953,52,E3,112,3
36345,43.267889,68,0.080953,50,D3,112,3
36414,43.350032,64,0.076191,47,B2,112,3
36480,43.428604,79,0.094047,73,C5#,33,1
36480,43.428604,455,0.541667,33,A1,112,3
36549,43.510746,68,0.080953,49,C3#,112,3
36618,43.592889,68,0.080953,52,E3,112,3
36640,43.61908,79,0.094048,85,C6#,33,1
36687,43.675032,68,0.080953,57,A3,112,3
36756,43.757175,68,0.080953,61,C4#,112,3
36825,43.839318,68,0.080953,64,E4,112,3
36894,43.921461,68,0.080952,69,A4,112,3
36960,44.000033,79,0.094047,76,E5,33,1
37029,44.082175,68,0.080953,69,A4,112,3
37098,44.164318,68,0.080953,64,E4,112,3
37120,44.190509,79,0.094048,88,E6,33,1
37167,44.246461,68,0.080953,61,C4#,112,3
37236,44.328604,68,0.080953,57,A3,112,3
37305,44.410747,68,0.080953,52,E3,112,3
37374,44.49289,64,0.076191,49,C3#,112,3
37440,44.571462,79,0.094047,83,B5,33,1
37440,44.571462,455,0.541667,37,C2#,112,3
37509,44.653604,68,0.080953,49,C3#,112,3
37578,44.735747,68,0.080953,53,F3,112,3
37600,44.761938,79,0.094048,95,B6,33,1
37647,44.81789,68,0.080953,57,A3,112,3
37716,44.900033,68,0.080953,61,C4#,112,3
37785,44.982176,68,0.080953,65,F4,112,3
37854,45.064319,68,0.080952,69,A4,112,3
37920,45.142891,79,0.094047,81,A5,33,1
37989,45.225033,68,0.080953,69,A4,112,3
38058,45.307176,68,0.080953,65,F4,112,3
38080,45.333367,79,0.094048,93,A6,33,1
38127,45.389319,68,0.080953,61,C4#,112,3
38196,45.471462,68,0.080953,57,A3,112,3
38265,45.553605,68,0.080953,53,F3,112,3
38334,45.635748,64,0.076191,49,C3#,112,3
38400,45.71432,319,0.379762,80,G5#,112,2
38400,45.71432,75,0.089285,38,D2,112,3
38480,45.809558,75,0.089285,45,A2,112,3
38560,45.904796,79,0.094048,92,G6#,112,2
38560,45.904796,75,0.089286,47,B2,112,3
38640,46.000034,75,0.089286,54,F3#,112,3
38720,46.095272,159,0.189286,78,F5#,112,2
38720,46.095272,159,0.189286,78,F5#,112,2
38720,46.095272,75,0.089286,57,A3,112,3
38800,46.19051,75,0.089286,59,B3,112,3
38880,46.285749,79,0.094047,90,F6#,112,2
38880,46.285749,75,0.089285,66,F4#,112,3
38960,46.380987,75,0.089285,59,B3,112,3
39040,46.476225,159,0.189286,71,B4,112,2
39040,46.476225,159,0.189286,71,B4,112,2
39040,46.476225,75,0.089286,57,A3,112,3
39120,46.571463,75,0.089286,54,F3#,112,3
39200,46.666701,79,0.094048,83,B5,112,2
39200,46.666701,75,0.089286,47,B2,112,3
39280,46.761939,75,0.089286,45,A2,112,3
39360,46.857178,79,0.094047,73,C5#,112,2
39360,46.857178,79,0.094047,73,C5#,112,2
39360,46.857178,75,0.089285,40,E2,112,3
39440,46.952416,75,0.089285,85,C6#,112,2
39440,46.952416,75,0.089285,47,B2,112,3
39520,47.047654,79,0.094048,74,D5,112,2
39520,47.047654,79,0.094048,74,D5,112,2
39520,47.047654,75,0.089286,50,D3,112,3
39600,47.142892,75,0.089286,86,D6,112,2
39600,47.142892,75,0.089286,56,G3#,112,3
39680,47.23813,79,0.094048,78,F5#,112,2
39680,47.23813,79,0.094048,78,F5#,112,2
39680,47.23813,75,0.089286,59,B3,112,3
39760,47.333368,75,0.089286,90,F6#,112,2
39760,47.333368,75,0.089286,62,D4,112,3
39840,47.428607,79,0.094047,66,F4#,127,2
39840,47.428607,79,0.094047,66,F4#,112,2
39920,47.523845,79,0.094047,78,F5#,112,2
39920,47.523845,75,0.089285,66,F4#,112,3
40000,47.619083,79,0.094048,68,G4#,112,2
40000,47.619083,79,0.094048,68,G4#,112,2
40000,47.619083,75,0.089286,64,E4,112,3
40080,47.714321,79,0.094048,80,G5#,112,2
40080,47.714321,75,0.089286,62,D4,112,3
40160,47.809559,79,0.094048,73,C5#,112,2
40160,47.809559,79,0.094048,73,C5#,112,2
40160,47.809559,75,0.089286,56,G3#,112,3
40240,47.904797,75,0.089286,85,C6#,112,2
40240,47.904797,75,0.089286,52,E3,112,3
40320,48.000036,479,0.570238,71,B4,112,2
40320,48.000036,479,0.570238,83,B5,112,2
40400,48.095274,75,0.089285,45,A2,112,3
40480,48.190512,75,0.089286,52,E3,112,3
40560,48.28575,75,0.089286,57,A3,112,3
40640,48.380988,75,0.089286,61,C4#,112,3
40720,48.476226,75,0.089286,64,E4,112,3
40800,48.571465,227,0.270238,69,A4,112,2
40800,48.571465,227,0.270238,81,A5,112,2
40800,48.571465,75,0.089285,73,C5#,112,3
40880,48.666703,75,0.089285,69,A4,112,3
40960,48.761941,75,0.089286,64,E4,112,3
41040,48.857179,75,0.089286,61,C4#,112,3
41120,48.952417,75,0.089286,57,A3,112,3
41200,49.047655,75,0.089286,52,E3,112,3
41280,49.142894,75,0.089285,45,A2,112,3
41360,49.238132,75,0.089285,52,E3,112,3
41440,49.33337,75,0.089286,57,A3,112,3
41520,49.428608,75,0.089286,61,C4#,112,3
41600,49.523846,75,0.089286,64,E4,112,3
41680,49.619084,75,0.089286,69,A4,112,3
41760,49.714323,479,0.570238,52,E3,127,2
41760,49.714323,75,0.089285,73,C5#,112,3
41840,49.809561,75,0.089285,69,A4,112,3
41920,49.904799,75,0.089286,64,E4,112,3
42000,50.000037,75,0.089286,61,C4#,112,3
42080,50.095275,75,0.089286,57,A3,112,3
42160,50.190513,75,0.089286,52,E3,112,3
42240,50.285752,479,0.570238,54,F3#,127,2
42320,50.38099,75,0.089285,45,A2,112,3
42400,50.476228,75,0.089286,54,F3#,112,3
42480,50.571466,75,0.089286,57,A3,112,3
42560,50.666704,75,0.089286,62,D4,112,3
42640,50.761942,75,0.089286,66,F4#,112,3
42720,50.857181,479,0.570238,57,A3,127,2
42720,50.857181,75,0.089285,73,C5#,112,3
42800,50.952419,75,0.089285,69,A4,112,3
42880,51.047657,75,0.089286,66,F4#,112,3
42960,51.142895,75,0.089286,62,D4,112,3
43040,51.238133,75,0.089286,57,A3,112,3
43120,51.333371,75,0.089286,54,F3#,112,3
43200,51.42861,479,0.570238,59,B3,127,2
43280,51.523848,75,0.089285,45,A2,112,3
43360,51.619086,75,0.089286,53,F3,112,3
43440,51.714324,75,0.089286,56,G3#,112,3
43520,51.809562,75,0.089286,62,D4,112,3
43600,51.9048,75,0.089286,65,F4,112,3
43680,52.000039,479,0.570238,61,C4#,127,2
43680,52.000039,75,0.089285,73,C5#,112,3
43760,52.095277,75,0.089285,68,G4#,112,3
43840,52.190515,75,0.089286,65,F4,112,3
43920,52.285753,75,0.089286,62,D4,112,3
44000,52.380991,75,0.089286,56,G3#,112,3
44080,52.476229,75,0.089286,53,F3,112,3
44160,52.571468,52,0.061904,61,C4#,127,2
44213,52.634563,905,1.077382,64,E4,127,2
44240,52.666706,75,0.089285,45,A2,112,3
44320,52.761944,75,0.089286,52,E3,112,3
44400,52.857182,75,0.089286,57,A3,112,3
44480,52.95242,75,0.089286,61,C4#,112,3
44560,53.047658,75,0.089286,64,E4,112,3
44640,53.142897,75,0.089285,73,C5#,112,3
44720,53.238135,75,0.089285,69,A4,112,3
44800,53.333373,75,0.089286,64,E4,112,3
44880,53.428611,75,0.089286,61,C4#,112,3
44960,53.523849,75,0.089286,57,A3,112,3
45040,53.619087,75,0.089286,52,E3,112,3
45120,53.714326,64,0.07619,45,A2,112,2
45189,53.796468,64,0.076191,52,E3,112,2
45258,53.878611,64,0.076191,57,A3,112,2
45327,53.960754,64,0.076191,61,C4#,112,2
45396,54.042897,64,0.076191,64,E4,112,2
45465,54.12504,64,0.076191,69,A4,112,2
45534,54.207183,64,0.076191,73,C5#,112,2
45600,54.285755,129,0.153571,76,E5,112,3
45669,54.367897,64,0.076191,73,C5#,112,2
45738,54.45004,64,0.076191,69,A4,112,2
45807,54.532183,64,0.076191,64,E4,112,2
45876,54.614326,64,0.076191,61,C4#,112,2
45945,54.696469,64,0.076191,57,A3,112,2
46014,54.778612,64,0.076191,52,E3,112,2
46080,54.857184,227,0.270238,78,F5#,112,2
46080,54.857184,64,0.07619,45,A2,112,3
46149,54.939326,64,0.076191,54,F3#,112,3
46218,55.021469,64,0.076191,57,A3,112,3
46287,55.103612,64,0.076191,62,D4,112,3
46356,55.185755,64,0.076191,66,F4#,112,3
46425,55.267898,64,0.076191,69,A4,112,3
46494,55.350041,64,0.076191,73,C5#,112,3
46560,55.428613,129,0.153571,81,A5,112,3
46629,55.510755,64,0.076191,73,C5#,112,2
46698,55.592898,64,0.076191,69,A4,112,2
46767,55.675041,64,0.076191,66,F4#,112,2
46836,55.757184,64,0.076191,62,D4,112,2
46905,55.839327,64,0.076191,57,A3,112,2
46974,55.92147,64,0.076191,54,F3#,112,2
47040,56.000042,227,0.270238,83,B5,112,2
47040,56.000042,56,0.066666,45,A2,112,3
47100,56.07147,56,0.066667,53,F3,112,3
47160,56.142899,56,0.066666,56,G3#,112,3
47220,56.214327,56,0.066667,59,B3,112,3
47280,56.285756,56,0.066667,62,D4,112,3
47340,56.357185,56,0.066666,65,F4,112,3
47400,56.428613,56,0.066667,68,G4#,112,3
47460,56.500042,56,0.066667,71,B4,112,3
47520,56.571471,227,0.270238,85,C6#,112,3
47580,56.642899,56,0.066667,71,B4,112,2
47640,56.714328,56,0.066666,68,G4#,112,2
47700,56.785756,56,0.066667,65,F4,112,2
47760,56.857185,56,0.066667,62,D4,112,2
47820,56.928614,56,0.066666,59,B3,112,2
47880,57.000042,56,0.066667,56,G3#,112,2
47940,57.071471,56,0.066667,53,F3,112,2
48000,57.1429,52,0.061904,85,C6#,112,2
48000,57.1429,64,0.07619,45,A2,112,3
48053,57.205995,1771,2.108335,88,E6,112,2
48069,57.225042,64,0.076191,52,E3,112,3
48138,57.307185,64,0.076191,57,A3,112,3
48207,57.389328,64,0.076191,61,C4#,112,3
48276,57.471471,64,0.076191,64,E4,112,3
48345,57.553614,64,0.076191,69,A4,112,3
48414,57.635757,64,0.076191,73,C5#,112,3
48480,57.714329,64,0.07619,76,E5,112,3
48549,57.796471,64,0.076191,73,C5#,112,3
48618,57.878614,64,0.076191,69,A4,112,3
48687,57.960757,64,0.076191,64,E4,112,3
48756,58.0429,64,0.076191,61,C4#,112,3
48825,58.125043,64,0.076191,57,A3,112,3
48894,58.207186,64,0.076191,52,E3,112,3
48960,58.285758,64,0.07619,45,A2,112,3
49029,58.3679,64,0.076191,52,E3,112,3
49098,58.450043,64,0.076191,56,G3#,112,3
49167,58.532186,64,0.076191,61,C4#,112,3
49236,58.614329,64,0.076191,64,E4,112,3
49305,58.696472,64,0.076191,68,G4#,112,3
49374,58.778615,64,0.076191,73,C5#,112,3
49440,58.857187,64,0.07619,76,E5,112,3
49509,58.939329,64,0.076191,73,C5#,112,3
49578,59.021472,64,0.076191,68,G4#,112,3
49647,59.103615,64,0.076191,64,E4,112,3
49716,59.185758,64,0.076191,61,C4#,112,3
49785,59.267901,64,0.076191,56,G3#,112,3
49854,59.350044,64,0.076191,52,E3,112,3
49920,59.428616,75,0.089285,46,A2#,112,3
50000,59.523854,75,0.089285,52,E3,112,3
50080,59.619092,75,0.089286,55,G3,112,3
50160,59.71433,227,0.270238,76,E5,112,2
50160,59.71433,227,0.270238,88,E6,112,2
50160,59.71433,75,0.089286,61,C4#,112,3
50240,59.809568,75,0.089286,64,E4,112,3
50320,59.904806,75,0.089286,67,G4,112,3
50400,60.000045,319,0.379762,76,E5,112,2
50400,60.000045,319,0.379762,88,E6,112,2
50400,60.000045,75,0.089285,73,C5#,112,3
50480,60.095283,75,0.089285,67,G4,112,3
50560,60.190521,75,0.089286,64,E4,112,3
50640,60.285759,75,0.089286,61,C4#,112,3
50720,60.380997,151,0.179762,76,E5,112,2
50720,60.380997,151,0.179762,88,E6,112,2
50720,60.380997,75,0.089286,55,G3,112,3
50800,60.476235,75,0.089286,52,E3,112,3
50880,60.571474,151,0.179762,76,E5,112,2
50880,60.571474,151,0.179762,88,E6,112,2
50880,60.571474,75,0.089285,46,A2#,112,3
50960,60.666712,75,0.089285,52,E3,112,3
51040,60.76195,151,0.179762,76,E5,112,2
51040,60.76195,151,0.179762,88,E6,112,2
51040,60.76195,75,0.089286,55,G3,112,3
51120,60.857188,75,0.089286,61,C4#,112,3
51200,60.952426,151,0.179762,76,E5,112,2
51200,60.952426,151,0.179762,88,E6,112,2
51200,60.952426,75,0.089286,64,E4,112,3
51280,61.047664,75,0.089286,67,G4,112,3
51360,61.142903,53,0.063095,76,E5,112,2
51360,61.142903,53,0.063095,88,E6,112,2
51360,61.142903,75,0.089285,73,C5#,112,3
51414,61.207188,60,0.071429,80,G5#,112,2
51414,61.207188,60,0.071429,92,G6#,112,2
51440,61.238141,75,0.089285,67,G4,112,3
51520,61.333379,75,0.089286,64,E4,112,3
51600,61.428617,75,0.089286,61,C4#,112,3
51680,61.523855,75,0.089286,55,G3,112,3
51720,61.571474,113,0.134524,76,E5,112,2
51720,61.571474,113,0.134524,88,E6,112,2
51760,61.619093,75,0.089286,52,E3,112,3
51840,61.714332,227,0.270238,76,E5,112,2
51840,61.714332,227,0.270238,88,E6,112,2
51840,61.714332,75,0.089285,44,G2#,112,3
51920,61.80957,75,0.089285,53,F3,112,3
52000,61.904808,75,0.089286,56,G3#,112,3
52080,62.000046,227,0.270238,77,F5,112,2
52080,62.000046,227,0.270238,89,F6,112,2
52080,62.000046,75,0.089286,60,C4,112,3
52160,62.095284,75,0.089286,65,F4,112,3
52240,62.190522,75,0.089286,68,G4#,112,3
52320,62.285761,472,0.561905,87,D6#,127,2
52320,62.285761,472,0.561905,99,D7#,127,2
52320,62.285761,75,0.089285,72,C5,112,3
52400,62.380999,75,0.089285,68,G4#,112,3
52480,62.476237,75,0.089286,65,F4,112,3
52560,62.571475,75,0.089286,60,C4,112,3
52640,62.666713,75,0.089286,56,G3#,112,3
52720,62.761951,75,0.089286,53,F3,112,3
52800,62.85719,75,0.089285,46,A2#,112,3
52880,62.952428,75,0.089285,53,F3,112,3
52960,63.047666,151,0.179762,85,C6#,112,2
52960,63.047666,151,0.179762,97,C7#,112,2
52960,63.047666,75,0.089286,55,G3,112,3
53040,63.142904,75,0.089286,61,C4#,112,3
53120,63.238142,151,0.179762,82,A5#,112,2
53120,63.238142,151,0.179762,94,A6#,112,2
53120,63.238142,75,0.089286,65,F4,112,3
53200,63.33338,75,0.089286,67,G4,112,3
53280,63.428619,151,0.179762,80,G5#,112,2
53280,63.428619,151,0.179762,92,G6#,112,2
53280,63.428619,75,0.089285,73,C5#,112,3
53360,63.523857,75,0.089285,67,G4,112,3
53440,63.619095,151,0.179762,79,G5,112,2
53440,63.619095,151,0.179762,91,G6,112,2
53440,63.619095,75,0.089286,65,F4,112,3
53520,63.714333,75,0.089286,61,C4#,112,3
53600,63.809571,151,0.179762,75,D5#,112,2
53600,63.809571,151,0.179762,87,D6#,112,2
53600,63.809571,75,0.089286,55,G3,112,3
53680,63.904809,75,0.089286,53,F3,112,3
53760,64.000048,151,0.179762,73,C5#,112,2
53760,64.000048,151,0.179762,85,C6#,112,2
53760,64.000048,75,0.089285,36,C2,112,3
53840,64.095286,75,0.089285,44,G2#,112,3
53920,64.190524,151,0.179762,72,C5,112,2
53920,64.190524,151,0.179762,84,C6,112,2
53920,64.190524,75,0.089286,48,C3,112,3
54000,64.285762,75,0.089286,53,F3,112,3
54080,64.381,151,0.179762,68,G4#,112,2
54080,64.381,151,0.179762,80,G5#,112,2
54080,64.381,75,0.089286,56,G3#,112,3
54160,64.476238,75,0.089286,60,C4,112,3
54240,64.571477,151,0.179762,67,G4,112,2
54240,64.571477,151,0.179762,79,G5,112,2
54240,64.571477,75,0.089285,68,G4#,112,3
54320,64.666715,75,0.089285,60,C4,112,3
54400,64.761953,151,0.179762,65,F4,112,2
54400,64.761953,151,0.179762,77,F5,112,2
54400,64.761953,75,0.089286,56,G3#,112,3
54480,64.857191,75,0.089286,53,F3,112,3
54560,64.952429,151,0.179762,61,C4#,112,2
54560,64.952429,151,0.179762,73,C5#,112,2
54560,64.952429,75,0.089286,48,C3,112,3
54640,65.047667,75,0.089286,44,G2#,112,3
54720,65.142906,756,0.9,61,C4#,127,2
54720,65.142906,756,0.9,73,C5#,127,2
54720,65.142906,75,0.089285,36,C2,112,3
54800,65.238144,75,0.089285,46,A2#,112,3
54880,65.333382,75,0.089286,52,E3,112,3
54960,65.42862,75,0.089286,55,G3,112,3
55040,65.523858,75,0.089286,58,A3#,112,3
55120,65.619096,75,0.089286,64,E4,112,3
55200,65.714335,75,0.089285,67,G4,112,3
55280,65.809573,75,0.089285,64,E4,112,3
55360,65.904811,75,0.089286,58,A3#,112,3
55440,66.000049,75,0.089286,55,G3,112,3
55520,66.095287,75,0.089286,52,E3,112,3
55600,66.190525,75,0.089286,46,A2#,112,3
55800,66.428621,113,0.134524,60,C4,112,2
55800,66.428621,113,0.134524,72,C5,112,2
55920,66.571478,113,0.134524,59,B3,112,2
55920,66.571478,113,0.134524,71,B4,112,2
56040,66.714335,113,0.134524,60,C4,112,2
56040,66.714335,113,0.134524,72,C5,112,2
56160,66.857193,113,0.134523,59,B3,112,2
56160,66.857193,113,0.134523,71,B4,112,2
56280,67.00005,113,0.134524,60,C4,112,2
56280,67.00005,113,0.134524,72,C5,112,2
56400,67.142907,113,0.134524,59,B3,112,2
56400,67.142907,113,0.134524,71,B4,112,2
56520,67.285764,113,0.134524,60,C4,112,2
56520,67.285764,113,0.134524,72,C5,112,2
56640,67.428622,90,0.107142,59,B3,112,2
56640,67.428622,90,0.107142,71,B4,112,2
56736,67.542907,90,0.107143,60,C4,112,2
56736,67.542907,90,0.107143,72,C5,112,2
56832,67.657193,90,0.107143,59,B3,112,2
56832,67.657193,90,0.107143,71,B4,112,2
56928,67.771479,90,0.107143,60,C4,112,2
56928,67.771479,90,0.107143,72,C5,112,2
57024,67.885765,90,0.107143,63,D4#,112,2
57024,67.885765,90,0.107143,75,D5#,112,2
57120,68.000051,78,0.092857,61,C4#,112,2
57120,68.000051,78,0.092857,73,C5#,112,2
57480,68.428622,113,0.134524,60,C4,112,2
57480,68.428622,113,0.134524,72,C5,112,2
57600,68.57148,639,0.760714,60,C4,112,2
57600,68.57148,879,1.046429,72,C5,112,2
57600,68.57148,227,0.270238,29,F1,112,3
57840,68.857194,79,0.094048,41,F2,112,2
57920,68.952432,79,0.094048,48,C3,112,2
58000,69.04767,79,0.094048,53,F3,112,2
58000,69.04767,79,0.094048,57,A3,112,2
58080,69.142909,79,0.094047,57,A3,112,2
58160,69.238147,79,0.094047,60,C4,112,2
58240,69.333385,79,0.094048,65,F4,112,2
58240,69.333385,79,0.094048,69,A4,112,2
58320,69.428623,79,0.094048,69,A4,112,2
58400,69.523861,79,0.094048,72,C5,112,2
58480,69.619099,79,0.094048,77,F5,112,2
58480,69.619099,79,0.094048,81,A5,112,2
58560,69.714338,79,0.094047,81,A5,112,2
58640,69.809576,79,0.094047,84,C6,112,2
58720,69.904814,79,0.094048,89,F6,112,2
58720,69.904814,79,0.094048,93,A6,112,2
58800,70.000052,79,0.094048,89,F6,112,2
58800,70.000052,79,0.094048,93,A6,112,2
58880,70.09529,79,0.094048,84,C6,112,2
58960,70.190528,79,0.094048,81,A5,112,2
59040,70.285767,75,0.089285,77,F5,112,2
59040,70.285767,75,0.089285,81,A5,112,2
59040,70.285767,479,0.570238,48,C3,127,3
59040,70.285767,479,0.570238,60,C4,127,3
59120,70.381005,75,0.089285,72,C5,112,2
59200,70.476243,75,0.089286,69,A4,112,2
59280,70.571481,75,0.089286,65,F4,112,2
59280,70.571481,75,0.089286,69,A4,112,2
59360,70.666719,75,0.089286,60,C4,112,2
59440,70.761957,75,0.089286,57,A3,112,2
59520,70.857196,478,0.569048,50,D3,127,3
59520,70.857196,479,0.570238,62,D4,127,3
59760,71.14291,79,0.094048,59,B3,112,2
59840,71.238148,79,0.094048,62,D4,112,2
59840,71.238148,79,0.094048,65,F4,112,2
59880,71.285767,119,0.141667,41,F2,112,3
59907,71.31791,91,0.108334,47,B2,112,3
59920,71.333386,79,0.094048,69,A4,112,2
59935,71.351243,63,0.075001,50,D3,112,3
60000,71.428625,79,0.094047,69,A4,112,2
60000,71.428625,479,0.570238,53,F3,127,3
60000,71.428625,479,0.570238,65,F4,127,3
60080,71.523863,79,0.094047,71,B4,112,2
60080,71.523863,79,0.094047,74,D5,112,2
60160,71.619101,79,0.094048,81,A5,112,2
60240,71.714339,79,0.094048,81,A5,112,2
60320,71.809577,79,0.094048,83,B5,112,2
60320,71.809577,79,0.094048,86,D6,112,2
60400,71.904815,75,0.089286,93,A6,112,2
60480,72.000054,479,0.570238,55,G3,127,3
60480,72.000054,479,0.570238,67,G4,127,3
60720,72.285768,79,0.094048,58,A3#,112,2
60800,72.381006,79,0.094048,61,C4#,112,2
60800,72.381006,79,0.094048,64,E4,112,2
60840,72.428625,119,0.141667,41,F2,112,3
60867,72.460768,91,0.108334,46,A2#,112,3
60880,72.476244,79,0.094048,69,A4,112,2
60895,72.494101,63,0.075001,49,C3#,112,3
60924,72.528625,35,0.041667,52,E3,112,3
60960,72.571483,79,0.094047,70,A4#,112,2
60960,72.571483,479,0.570238,57,A3,127,3
60960,72.571483,479,0.570238,69,A4,127,3
61040,72.666721,79,0.094047,73,C5#,112,2
61040,72.666721,79,0.094047,76,E5,112,2
61120,72.761959,79,0.094048,81,A5,112,2
61200,72.857197,79,0.094048,82,A5#,112,2
61280,72.952435,79,0.094048,85,C6#,112,2
61280,72.952435,79,0.094048,88,E6,112,2
61360,73.047673,75,0.089286,93,A6,112,2
61440,73.142912,399,0.475,60,C4,112,2
61440,73.142912,639,0.760714,72,C5,112,2
61680,73.428626,79,0.094048,57,A3,112,2
61760,73.523864,79,0.094048,60,C4,112,2
61800,73.571483,113,0.134524,29,F1,112,3
61800,73.571483,113,0.134524,33,A1,112,3
61800,73.571483,113,0.134524,36,C2,112,3
61800,73.571483,113,0.134524,41,F2,112,3
61840,73.619102,79,0.094048,65,F4,112,2
61840,73.619102,79,0.094048,69,A4,112,2
61920,73.714341,79,0.094047,69,A4,112,2
61920,73.714341,227,0.270238,29,F1,112,3
61920,73.714341,227,0.270238,33,A1,112,3
61920,73.714341,227,0.270238,36,C2,112,3
61920,73.714341,227,0.270238,41,F2,112,3
62000,73.809579,79,0.094047,72,C5,112,2
62080,73.904817,79,0.094048,77,F5,112,2
62080,73.904817,79,0.094048,81,A5,112,2
62160,74.000055,79,0.094048,81,A5,112,2
62240,74.095293,79,0.094048,84,C6,112,2
62320,74.190531,79,0.094048,89,F6,112,2
62320,74.190531,79,0.094048,93,A6,112,2
62400,74.28577,79,0.094047,89,F6,112,2
62400,74.28577,79,0.094047,93,A6,112,2
62480,74.381008,79,0.094047,84,C6,112,2
62560,74.476246,79,0.094048,81,A5,112,2
62640,74.571484,79,0.094048,77,F5,112,2
62640,74.571484,79,0.094048,81,A5,112,2
62720,74.666722,79,0.094048,72,C5,112,2
62800,74.76196,79,0.094048,69,A4,112,2
62880,74.857199,79,0.094047,77,F5,112,2
62880,74.857199,79,0.094047,81,A5,112,2
62880,74.857199,479,0.570238,48,C3,127,3
62880,74.857199,479,0.570238,60,C4,127,3
62960,74.952437,79,0.094047,72,C5,112,2
63040,75.047675,79,0.094048,69,A4,112,2
63120,75.142913,75,0.089286,65,F4,112,2
63120,75.142913,75,0.089286,69,A4,112,2
63200,75.238151,75,0.089286,60,C4,112,2
63280,75.333389,75,0.089286,57,A3,112,2
63360,75.428628,478,0.569048,50,D3,127,3
63360,75.428628,479,0.570238,62,D4,127,3
63600,75.714342,79,0.094048,59,B3,112,2
63680,75.80958,79,0.094048,62,D4,112,2
63680,75.80958,79,0.094048,65,F4,112,2
63720,75.857199,119,0.141667,41,F2,112,3
63747,75.889342,91,0.108334,47,B2,112,3
63760,75.904818,79,0.094048,69,A4,112,2
63775,75.922675,63,0.075001,50,D3,112,3
63840,76.000057,79,0.094047,69,A4,112,2
63840,76.000057,479,0.570238,53,F3,127,3
63840,76.000057,479,0.570238,65,F4,127,3
63920,76.095295,79,0.094047,71,B4,112,2
63920,76.095295,79,0.094047,74,D5,112,2
64000,76.190533,79,0.094048,81,A5,112,2
64080,76.285771,79,0.094048,81,A5,112,2
64160,76.381009,79,0.094048,83,B5,112,2
64160,76.381009,79,0.094048,86,D6,112,2
64240,76.476247,75,0.089286,93,A6,112,2
64320,76.571486,479,0.570238,55,G3,127,3
64320,76.571486,479,0.570238,67,G4,127,3
64560,76.8572,79,0.094048,58,A3#,112,2
64640,76.952438,79,0.094048,61,C4#,112,2
64640,76.952438,79,0.094048,64,E4,112,2
64680,77.000057,119,0.141667,41,F2,112,3
64707,77.0322,91,0.108334,46,A2#,112,3
64720,77.047676,79,0.094048,69,A4,112,2
64735,77.065533,63,0.075001,49,C3#,112,3
64764,77.100057,35,0.041667,52,E3,112,3
64800,77.142915,79,0.094047,70,A4#,112,2
64800,77.142915,479,0.570238,57,A3,127,3
64800,77.142915,479,0.570238,69,A4,127,3
64880,77.238153,79,0.094047,73,C5#,112,2
64880,77.238153,79,0.094047,76,E5,112,2
64960,77.333391,79,0.094048,81,A5,112,2
65040,77.428629,79,0.094048,82,A5#,112,2
65120,77.523867,79,0.094048,85,C6#,112,2
65120,77.523867,79,0.094048,88,E6,112,2
65200,77.619105,75,0.089286,93,A6,112,2
65280,77.714344,399,0.475,60,C4,112,2
65280,77.714344,639,0.760714,72,C5,112,2
65520,78.000058,79,0.094048,57,A3,112,2
65600,78.095296,79,0.094048,60,C4,112,2
65640,78.142915,113,0.134524,29,F1,112,3
65640,78.142915,113,0.134524,33,A1,112,3
65640,78.142915,113,0.134524,36,C2,112,3
65640,78.142915,113,0.134524,41,F2,112,3
65680,78.190534,79,0.094048,65,F4,112,2
65680,78.190534,79,0.094048,69,A4,112,2
65760,78.285773,79,0.094047,69,A4,112,2
65760,78.285773,227,0.270238,29,F1,112,3
65760,78.285773,227,0.270238,33,A1,112,3
65760,78.285773,227,0.270238,36,C2,112,3
65760,78.285773,227,0.270238,41,F2,112,3
65840,78.381011,79,0.094047,72,C5,112,2
65920,78.476249,79,0.094048,77,F5,112,2
65920,78.476249,79,0.094048,81,A5,112,2
66000,78.571487,79,0.094048,81,A5,112,2
66080,78.666725,79,0.094048,84,C6,112,2
66160,78.761963,79,0.094048,89,F6,112,2
66160,78.761963,79,0.094048,93,A6,112,2
66240,78.857202,79,0.094047,89,F6,112,2
66240,78.857202,79,0.094047,93,A6,112,2
66320,78.95244,79,0.094047,84,C6,112,2
66400,79.047678,79,0.094048,81,A5,112,2
66480,79.142916,79,0.094048,77,F5,112,2
66480,79.142916,79,0.094048,81,A5,112,2
66560,79.238154,79,0.094048,72,C5,112,2
66640,79.333392,79,0.094048,69,A4,112,2
66720,79.428631,79,0.094047,77,F5,112,2
66720,79.428631,79,0.094047,81,A5,112,2
66720,79.428631,320,0.380952,49,C3#,127,3
66720,79.428631,455,0.541667,40,E2,112,3
66720,79.428631,455,0.541667,45,A2,112,3
66800,79.523869,79,0.094047,72,C5,112,2
66880,79.619107,79,0.094048,69,A4,112,2
66960,79.714345,75,0.089286,65,F4,112,2
66960,79.714345,75,0.089286,69,A4,112,2
67040,79.809583,75,0.089286,60,C4,112,2
67120,79.904821,75,0.089286,57,A3,112,2
67200,80.00006,320,0.380952,48,C3,127,3
67200,80.00006,479,0.570238,39,D2#,112,3
67263,80.07506,415,0.494048,42,F2#,112,3
67327,80.15125,351,0.417858,45,A2,112,3
67440,80.285774,79,0.094048,57,A3,112,2
67520,80.381012,79,0.094048,60,C4,112,2
67600,80.47625,79,0.094048,66,F4#,112,2
67600,80.47625,79,0.094048,69,A4,112,2
67680,80.571489,79,0.094047,69,A4,112,2
67680,80.571489,320,0.380952,57,A3,127,3
67680,80.571489,239,0.284524,37,C2#,112,3
67760,80.666727,79,0.094047,73,C5#,112,2
67840,80.761965,79,0.094048,76,E5,112,2
67840,80.761965,79,0.094048,81,A5,112,2
67920,80.857203,79,0.094048,81,A5,112,2
67920,80.857203,227,0.270238,49,C3#,112,3
67920,80.857203,227,0.270238,52,E3,112,3
68000,80.952441,79,0.094048,85,C6#,112,2
68080,81.047679,75,0.089286,88,E6,112,2
68080,81.047679,75,0.089286,93,A6,112,2
68160,81.142918,320,0.380952,56,G3#,127,3
68160,81.142918,239,0.284524,36,C2,112,3
68240,81.238156,79,0.094047,68,G4#,112,2
68320,81.333394,79,0.094048,72,C5,112,2
68400,81.428632,79,0.094048,75,D5#,112,2
68400,81.428632,79,0.094048,80,G5#,112,2
68400,81.428632,227,0.270238,48,C3,112,3
68400,81.428632,227,0.270238,51,D3#,112,3
68480,81.52387,79,0.094048,80,G5#,112,2
68560,81.619108,79,0.094048,84,C6,112,2
68640,81.714347,79,0.094047,87,D6#,112,2
68640,81.714347,79,0.094047,92,G6#,112,2
68640,81.714347,320,0.380952,51,D3#,127,3
68640,81.714347,239,0.284524,32,G1#,112,3
68720,81.809585,79,0.094047,84,C6,112,2
68800,81.904823,79,0.094048,80,G5#,112,2
68880,82.000061,79,0.094048,84,C6,112,2
68880,82.000061,79,0.094048,87,D6#,112,2
68880,82.000061,227,0.270238,44,G2#,112,3
68880,82.000061,227,0.270238,48,C3,112,3
68960,82.095299,79,0.094048,80,G5#,112,2
69040,82.190537,75,0.089286,75,D5#,112,2
69120,82.285776,320,0.380952,54,F3#,127,3
69120,82.285776,479,0.570238,37,C2#,112,3
69183,82.360776,415,0.494048,44,G2#,112,3
69247,82.436966,351,0.417858,49,C3#,112,3
69360,82.57149,79,0.094048,66,F4#,112,2
69440,82.666728,79,0.094048,68,G4#,112,2
69440,82.666728,79,0.094048,73,C5#,112,2
69520,82.761966,75,0.089286,78,F5#,112,2
69600,82.857205,75,0.089285,64,E4,112,2
69600,82.857205,642,0.764286,52,E3,127,3
69600,82.857205,959,1.141667,37,C2#,112,3
69663,82.932205,895,1.065477,44,G2#,112,3
69680,82.952443,75,0.089285,68,G4#,112,2
69680,82.952443,75,0.089285,73,C5#,112,2
69727,83.008395,831,0.989287,49,C3#,112,3
69760,83.047681,75,0.089286,76,E5,112,2
69840,83.142919,75,0.089286,76,E5,112,2
69920,83.238157,75,0.089286,80,G5#,112,2
69920,83.238157,75,0.089286,85,C6#,112,2
70000,83.333395,75,0.089286,88,E6,112,2
70080,83.428634,75,0.089285,88,E6,112,2
70160,83.523872,75,0.089285,92,G6#,112,2
70160,83.523872,75,0.089285,97,C7#,112,2
70240,83.61911,75,0.089286,100,E7,112,2
70320,83.714348,75,0.089286,100,E7,112,2
70400,83.809586,75,0.089286,92,G6#,112,2
70400,83.809586,75,0.089286,97,C7#,112,2
70480,83.904824,75,0.089286,88,E6,112,2
70560,84.000063,79,0.094047,86,D6,112,2
70560,84.000063,320,0.380952,50,D3,127,3
70560,84.000063,455,0.541667,35,B1,112,3
70560,84.000063,455,0.541667,41,F2,112,3
70560,84.000063,455,0.541667,44,G2#,112,3
70640,84.095301,79,0.094047,77,F5,112,2
70640,84.095301,79,0.094047,80,G5#,112,2
70720,84.190539,79,0.094048,74,D5,112,2
70800,84.285777,79,0.094048,74,D5,112,2
70880,84.381015,79,0.094048,65,F4,112,2
70880,84.381015,79,0.094048,68,G4#,112,2
70960,84.476253,75,0.089286,62,D4,112,2
71040,84.571492,455,0.541667,50,D3,112,3
71040,84.571492,455,0.541667,34,A1#,112,3
71040,84.571492,455,0.541667,42,F2#,112,3
71120,84.66673,75,0.089285,62,D4,112,2
71200,84.761968,75,0.089286,66,F4#,112,2
71200,84.761968,75,0.089286,70,A4#,112,2
71280,84.857206,75,0.089286,74,D5,112,2
71360,84.952444,75,0.089286,74,D5,112,2
71440,85.047682,75,0.089286,78,F5#,112,2
71440,85.047682,75,0.089286,82,A5#,112,2
71440,85.047682,75,0.089286,86,D6,112,2
71520,85.142921,75,0.089285,85,C6#,112,2
71520,85.142921,455,0.541667,49,C3#,112,3
71520,85.142921,455,0.541667,34,A1#,112,3
71520,85.142921,455,0.541667,42,F2#,112,3
71600,85.238159,75,0.089285,78,F5#,112,2
71600,85.238159,75,0.089285,82,A5#,112,2
71680,85.333397,75,0.089286,73,C5#,112,2
71760,85.428635,75,0.089286,73,C5#,112,2
71840,85.523873,75,0.089286,66,F4#,112,2
71840,85.523873,75,0.089286,70,A4#,112,2
71920,85.619111,75,0.089286,61,C4#,112,2
72000,85.71435,455,0.541667,52,E3,112,2
72000,85.71435,271,0.322619,64,E4,112,2
72000,85.71435,455,0.541667,49,C3#,112,3
72000,85.71435,455,0.541667,34,A1#,112,3
72000,85.71435,455,0.541667,40,E2,112,3
72000,85.71435,455,0.541667,43,G2,112,3
72069,85.796492,64,0.076191,55,G3,112,2
72138,85.878635,64,0.076191,61,C4#,112,2
72207,85.960778,64,0.076191,64,E4,112,2
72276,86.042921,68,0.080953,55,G3,112,2
72345,86.125064,68,0.080953,61,C4#,112,2
72414,86.207207,21,0.025,64,E4,112,2
72480,86.285779,75,0.089285,64,E4,112,3
72560,86.381017,75,0.089285,67,G4,112,3
72640,86.476255,75,0.089286,73,C5#,112,3
72640,86.476255,75,0.089286,76,E5,112,3
72720,86.571493,79,0.094048,67,G4,112,3
72800,86.666731,79,0.094048,73,C5#,112,3
72880,86.761969,25,0.029762,76,E5,112,3
72960,86.857208,75,0.089285,76,E5,112,2
73040,86.952446,75,0.089285,79,G5,112,2
73120,87.047684,75,0.089286,85,C6#,112,2
73120,87.047684,75,0.089286,88,E6,112,2
73200,87.142922,79,0.094048,79,G5,112,2
73280,87.23816,79,0.094048,85,C6#,112,2
73360,87.333398,25,0.029762,88,E6,112,2
73440,87.428637,90,0.097825,88,E6,112,2
73536,87.532984,90,0.097826,91,G6,112,2
73632,87.637332,90,0.097826,96,C7,112,2
73632,87.637332,90,0.097826,87,D6#,112,3
73728,87.741679,90,0.097826,97,C7#,112,2
73728,87.741679,90,0.097826,88,E6,112,3
73824,87.846027,90,0.097826,99,D7#,112,2
73824,87.846027,90,0.097826,90,F6#,112,3
73920,87.950375,45,0.048912,102,F7#,127,2
73920,87.950375,64,0.069565,93,A6,112,3
73989,88.025374,64,0.069565,101,F7,112,2
73989,88.025374,64,0.069565,92,G6#,112,3
74058,88.100374,64,0.069565,100,E7,112,2
74058,88.100374,64,0.069565,91,G6,112,3
74127,88.175374,64,0.069565,99,D7#,112,2
74127,88.175374,64,0.069565,90,F6#,112,3
74196,88.250374,64,0.069565,98,D7,112,2
74196,88.250374,64,0.069565,89,F6,112,3
74265,88.325374,64,0.069565,97,C7#,112,2
74265,88.325374,64,0.069565,88,E6,112,3
74334,88.400374,64,0.069565,96,C7,112,2
74334,88.400374,64,0.069565,87,D6#,112,3
74400,88.472113,64,0.069565,95,B6,112,2
74400,88.472113,64,0.069565,86,D6,112,3
74469,88.547112,64,0.069565,94,A6#,112,2
74469,88.547112,64,0.069565,85,C6#,112,3
74538,88.622112,64,0.069565,93,A6,112,2
74538,88.622112,64,0.069565,84,C6,112,3
74607,88.697112,64,0.069565,92,G6#,112,2
74607,88.697112,64,0.069565,83,B5,112,3
74676,88.772112,64,0.069565,91,G6,112,2
74676,88.772112,64,0.069565,82,A5#,112,3
74745,88.847112,64,0.069565,90,F6#,112,2
74745,88.847112,64,0.069565,81,A5,112,3
74814,88.922112,64,0.069565,89,F6,112,2
74814,88.922112,64,0.069565,80,G5#,112,3
74880,88.993851,64,0.069565,88,E6,112,2
74880,88.993851,64,0.069565,79,G5,112,3
74949,89.06885,64,0.069565,84,C6,112,2
74949,89.06885,64,0.069565,75,D5#,112,3
75018,89.14385,64,0.069565,85,C6#,112,2
75018,89.14385,64,0.069565,76,E5,112,3
75087,89.21885,64,0.069565,87,D6#,112,2
75087,89.21885,64,0.069565,78,F5#,112,3
75156,89.29385,45,0.048913,90,F6#,127,2
75156,89.29385,64,0.069565,81,A5,112,3
75225,89.36885,64,0.069565,89,F6,112,2
75225,89.36885,64,0.069565,80,G5#,112,3
75294,89.44385,64,0.069565,88,E6,112,2
75294,89.44385,64,0.069565,79,G5,112,3
75360,89.515589,64,0.069565,87,D6#,112,2
75360,89.515589,64,0.069565,78,F5#,112,3
75429,89.590588,64,0.069565,86,D6,112,2
75429,89.590588,64,0.069565,77,F5,112,3
75498,89.665588,64,0.069565,85,C6#,112,2
75498,89.665588,64,0.069565,76,E5,112,3
75567,89.740588,64,0.069565,84,C6,112,2
75567,89.740588,64,0.069565,75,D5#,112,3
75636,89.815588,64,0.069565,83,B5,112,2
75636,89.815588,64,0.069565,74,D5,112,3
75705,89.890588,64,0.069565,82,A5#,112,2
75705,89.890588,64,0.069565,73,C5#,112,3
75774,89.965588,64,0.069565,81,A5,112,2
75774,89.965588,64,0.069565,72,C5,112,3
75840,90.037327,64,0.069565,80,G5#,112,2
75840,90.037327,64,0.069565,71,B4,112,3
75909,90.112326,64,0.069565,79,G5,112,2
75909,90.112326,64,0.069565,70,A4#,112,3
75978,90.187326,64,0.069565,78,F5#,112,2
75978,90.187326,64,0.069565,69,A4,112,3
76047,90.262326,64,0.069565,77,F5,112,2
76047,90.262326,64,0.069565,68,G4#,112,3
76116,90.337326,64,0.069565,76,E5,112,2
76116,90.337326,64,0.069565,67,G4,112,3
76185,90.412326,64,0.069565,72,C5,112,2
76185,90.412326,64,0.069565,63,D4#,112,3
76254,90.487326,64,0.069565,73,C5#,112,2
76254,90.487326,64,0.069565,64,E4,112,3
76320,90.559065,64,0.069565,75,D5#,112,2
76320,90.559065,64,0.069565,66,F4#,112,3
76389,90.634064,45,0.048913,78,F5#,127,2
76389,90.634064,64,0.069565,69,A4,112,3
76458,90.709064,64,0.069565,77,F5,112,2
76458,90.709064,64,0.069565,68,G4#,112,3
76527,90.784064,64,0.069565,76,E5,112,2
76527,90.784064,64,0.069565,67,G4,112,3
76596,90.859064,64,0.069565,75,D5#,112,2
76596,90.859064,64,0.069565,66,F4#,112,3
76665,90.934064,64,0.069565,74,D5,112,2
76665,90.934064,64,0.069565,65,F4,112,3
76734,91.009064,64,0.069565,73,C5#,112,2
76734,91.009064,64,0.069565,64,E4,112,3
76800,91.080803,64,0.069565,72,C5,112,2
76800,91.080803,64,0.069565,63,D4#,112,3
76869,91.155802,64,0.069565,71,B4,112,2
76869,91.155802,64,0.069565,62,D4,112,3
76938,91.230802,64,0.069565,70,A4#,112,2
76938,91.230802,64,0.069565,61,C4#,112,3
77007,91.305802,64,0.069565,69,A4,112,2
77007,91.305802,64,0.069565,60,C4,112,3
77076,91.380802,64,0.069565,68,G4#,112,2
77076,91.380802,64,0.069565,59,B3,112,3
77145,91.455802,64,0.069565,67,G4,112,2
77145,91.455802,64,0.069565,58,A3#,112,3
77214,91.530802,64,0.069565,66,F4#,112,2
77214,91.530802,64,0.069565,57,A3,112,3
77280,91.602541,90,0.097825,65,F4,112,2
77280,91.602541,90,0.097825,56,G3#,112,3
77376,91.706888,90,0.097826,64,E4,112,2
77376,91.706888,90,0.097826,55,G3,112,3
77472,91.811236,90,0.097826,60,C4,112,2
77472,91.811236,90,0.097826,51,D3#,112,3
77568,91.915583,90,0.097826,61,C4#,112,2
77568,91.915583,90,0.097826,52,E3,112,3
77664,92.019931,90,0.097826,63,D4#,112,2
77664,92.019931,90,0.097826,54,F3#,112,3
77760,92.124279,75,0.081521,66,F4#,112,2
77760,92.124279,75,0.081521,57,A3,112,3
77840,92.211235,75,0.081521,65,F4,112,2
77840,92.211235,75,0.081521,56,G3#,112,3
77920,92.298191,75,0.081522,64,E4,112,2
77920,92.298191,75,0.081522,55,G3,112,3
78000,92.385148,75,0.081521,60,C4,112,2
78000,92.385148,75,0.081521,51,D3#,112,3
78080,92.472104,75,0.081521,61,C4#,112,2
78080,92.472104,75,0.081521,52,E3,112,3
78160,92.55906,75,0.081522,63,D4#,112,2
78160,92.55906,75,0.081522,54,F3#,112,3
78240,92.646017,75,0.081521,66,F4#,112,2
78240,92.646017,75,0.081521,57,A3,112,3
78320,92.732973,75,0.081521,65,F4,105,2
78320,92.732973,75,0.081521,56,G3#,105,3
78400,92.819929,75,0.081522,64,E4,98,2
78400,92.819929,75,0.081522,55,G3,98,3
78480,92.906886,75,0.081521,60,C4,91,2
78480,92.906886,75,0.081521,51,D3#,91,3
78560,92.993842,75,0.081521,61,C4#,84,2
78560,92.993842,75,0.081521,52,E3,84,3
78640,93.080798,75,0.081522,63,D4#,77,2
78640,93.080798,75,0.081522,54,F3#,77,3
78720,93.167755,75,0.081521,66,F4#,69,2
78720,93.167755,75,0.081521,57,A3,69,3
78800,93.254711,75,0.081521,65,F4,62,2
78800,93.254711,75,0.081521,56,G3#,62,3
78880,93.341667,75,0.081522,64,E4,55,2
78880,93.341667,75,0.081522,55,G3,55,3
78960,93.428624,75,0.081521,60,C4,48,2
78960,93.428624,75,0.081521,51,D3#,48,3
79040,93.51558,75,0.081521,61,C4#,41,2
79040,93.51558,75,0.081521,52,E3,41,3
79120,93.602536,75,0.081522,63,D4#,33,2
79120,93.602536,75,0.081522,54,F3#,33,3
79200,93.689493,79,0.085869,66,F4#,33,2
79200,93.689493,79,0.085869,57,A3,33,3
79360,93.863405,79,0.08587,65,F4,33,2
79360,93.863405,79,0.08587,56,G3#,33,3
79520,94.037318,79,0.085869,64,E4,33,2
79520,94.037318,79,0.085869,55,G3,33,3
79680,94.211231,79,0.085869,63,D4#,33,2
79680,94.211231,79,0.085869,54,F3#,33,3
79840,94.385143,79,0.08587,62,D4,33,2
79840,94.385143,79,0.08587,53,F3,33,3
80000,94.559056,79,0.085869,61,C4#,33,2
80000,94.559056,79,0.085869,52,E3,33,3
80160,94.732969,79,0.085869,60,C4,33,2
80160,94.732969,79,0.085869,51,D3#,33,3
80320,94.906881,79,0.08587,63,D4#,33,2
80320,94.906881,79,0.08587,54,F3#,33,3
80480,95.080794,79,0.085869,61,C4#,33,2
80480,95.080794,79,0.085869,52,E3,33,3
80640,95.254707,79,0.085869,64,E4,33,2
80640,95.254707,79,0.085869,55,G3,33,3
80800,95.428619,79,0.08587,63,D4#,33,2
80800,95.428619,79,0.08587,54,F3#,33,3
80960,95.602532,79,0.085869,66,F4#,33,2
80960,95.602532,79,0.085869,57,A3,33,3
81120,95.776445,79,0.085869,64,E4,33,2
81120,95.776445,79,0.085869,56,G3#,33,3
81280,95.950357,79,0.08587,54,F3#,33,2
81280,95.950357,79,0.08587,60,C4,33,2
81280,95.950357,151,0.16413,45,A2,33,3
81280,95.950357,151,0.16413,51,D3#,33,3
81440,96.12427,79,0.085869,55,G3,33,2
81440,96.12427,79,0.085869,61,C4#,33,2
81440,96.12427,151,0.16413,45,A2,33,3
81440,96.12427,151,0.16413,52,E3,33,3
81600,96.298183,479,0.570238,69,A4,39,1
81680,96.393421,79,0.094047,44,G2#,33,3
81760,96.488659,79,0.094048,51,D3#,33,3
81840,96.583897,79,0.094048,56,G3#,33,3
81920,96.679135,79,0.094048,60,C4,33,3
82000,96.774373,79,0.094048,63,D4#,33,3
82080,96.869612,455,0.541667,68,G4#,33,1
82080,96.869612,95,0.113095,68,G4#,33,3
82176,96.983897,95,0.113096,63,D4#,33,3
82272,97.098183,95,0.113095,60,C4,33,3
82368,97.212469,95,0.113095,56,G3#,33,3
82464,97.326755,90,0.107143,51,D3#,33,3
82560,97.441041,79,0.094047,44,G2#,33,3
82640,97.536279,79,0.094047,51,D3#,33,3
82720,97.631517,79,0.094048,56,G3#,33,3
82800,97.726755,79,0.094048,60,C4,33,3
82880,97.821993,79,0.094048,63,D4#,33,3
82960,97.917231,79,0.094048,68,G4#,33,3
83040,98.01247,119,0.141666,68,G4#,33,1
83040,98.01247,119,0.141666,72,C5,33,1
83120,98.107708,79,0.094047,68,G4#,33,3
83200,98.202946,79,0.094048,63,D4#,33,3
83280,98.298184,79,0.094048,60,C4,33,3
83360,98.393422,79,0.094048,56,G3#,33,3
83440,98.48866,75,0.089286,51,D3#,33,3
83520,98.583899,119,0.141666,69,A4,33,1
83520,98.583899,119,0.141666,73,C5#,33,1
83520,98.583899,79,0.094047,45,A2,33,3
83600,98.679137,79,0.094047,52,E3,33,3
83680,98.774375,79,0.094048,57,A3,33,3
83760,98.869613,79,0.094048,61,C4#,33,3
83840,98.964851,79,0.094048,64,E4,33,3
83920,99.060089,79,0.094048,69,A4,33,3
84000,99.155328,119,0.141666,73,C5#,33,1
84000,99.155328,119,0.141666,76,E5,33,1
84080,99.250566,79,0.094047,69,A4,33,3
84160,99.345804,79,0.094048,64,E4,33,3
84240,99.441042,79,0.094048,61,C4#,33,3
84320,99.53628,79,0.094048,57,A3,33,3
84400,99.631518,75,0.089286,52,E3,33,3
84480,99.726757,119,0.141666,74,D5,33,1
84480,99.726757,119,0.141666,78,F5#,33,1
84480,99.726757,68,0.080952,42,F2#,33,3
84549,99.808899,68,0.080953,54,F3#,33,3
84618,99.891042,68,0.080953,57,A3,33,3
84687,99.973185,68,0.080953,62,D4,33,3
84756,100.055328,68,0.080953,66,F4#,33,3
84825,100.137471,68,0.080953,69,A4,33,3
84894,100.219614,68,0.080952,74,D5,33,3
84960,100.298186,119,0.141666,78,F5#,33,1
84960,100.298186,119,0.141666,81,A5,33,1
85029,100.380328,68,0.080953,74,D5,33,3
85098,100.462471,68,0.080953,69,A4,33,3
85167,100.544614,68,0.080953,66,F4#,33,3
85236,100.626757,68,0.080953,62,D4,33,3
85305,100.7089,68,0.080953,57,A3,33,3
85374,100.791043,64,0.076191,54,F3#,33,3
85440,100.869615,959,1.141667,80,G5#,39,1
85440,100.869615,959,1.141667,84,C6,39,1
85440,100.869615,68,0.080952,44,G2#,33,3
85509,100.951757,68,0.080953,51,D3#,33,3
85578,101.0339,68,0.080953,56,G3#,33,3
85647,101.116043,68,0.080953,60,C4,33,3
85716,101.198186,68,0.080953,63,D4#,33,3
85785,101.280329,68,0.080953,68,G4#,33,3
85854,101.362472,68,0.080952,72,C5,33,3
85920,101.441044,68,0.080952,75,D5#,33,3
85989,101.523186,68,0.080953,72,C5,33,3
86058,101.605329,68,0.080953,68,G4#,33,3
86127,101.687472,68,0.080953,63,D4#,33,3
86196,101.769615,68,0.080953,60,C4,33,3
86265,101.851758,68,0.080953,56,G3#,33,3
86334,101.933901,64,0.076191,51,D3#,33,3
86400,102.012473,79,0.094047,44,G2#,33,3
86480,102.107711,79,0.094047,51,D3#,33,3
86560,102.202949,79,0.094048,56,G3#,33,3
86640,102.298187,79,0.094048,60,C4,33,3
86720,102.393425,79,0.094048,63,D4#,33,3
86800,102.488663,79,0.094048,68,G4#,33,3
86880,102.583902,119,0.141666,68,G4#,33,1
86880,102.583902,119,0.141666,72,C5,33,1
86960,102.67914,79,0.094047,68,G4#,33,3
87040,102.774378,79,0.094048,63,D4#,33,3
87120,102.869616,79,0.094048,60,C4,33,3
87200,102.964854,79,0.094048,56,G3#,33,3
87280,103.060092,75,0.089286,51,D3#,33,3
87360,103.155331,119,0.141666,69,A4,33,1
87360,103.155331,119,0.141666,73,C5#,33,1
87360,103.155331,79,0.094047,45,A2,33,3
87440,103.250569,79,0.094047,52,E3,33,3
87520,103.345807,79,0.094048,57,A3,33,3
87600,103.441045,79,0.094048,61,C4#,33,3
87680,103.536283,79,0.094048,64,E4,33,3
87760,103.631521,79,0.094048,69,A4,33,3
87840,103.72676,119,0.141666,73,C5#,33,1
87840,103.72676,119,0.141666,76,E5,33,1
87920,103.821998,79,0.094047,69,A4,33,3
88000,103.917236,79,0.094048,64,E4,33,3
88080,104.012474,79,0.094048,61,C4#,33,3
88160,104.107712,79,0.094048,57,A3,33,3
88240,104.20295,75,0.089286,52,E3,33,3
88320,104.298189,119,0.141666,74,D5,33,1
88320,104.298189,119,0.141666,78,F5#,33,1
88320,104.298189,68,0.080952,42,F2#,33,3
88389,104.380331,68,0.080953,54,F3#,33,3
88458,104.462474,68,0.080953,57,A3,33,3
88527,104.544617,68,0.080953,62,D4,33,3
88596,104.62676,68,0.080953,66,F4#,33,3
88665,104.708903,68,0.080953,69,A4,33,3
88734,104.791046,68,0.080952,74,D5,33,3
88800,104.869618,119,0.141666,78,F5#,33,1
88800,104.869618,119,0.141666,81,A5,33,1
88869,104.95176,68,0.080953,74,D5,33,3
88938,105.033903,68,0.080953,69,A4,33,3
89007,105.116046,68,0.080953,66,F4#,33,3
89076,105.198189,68,0.080953,62,D4,33,3
89145,105.280332,68,0.080953,57,A3,33,3
89214,105.362475,64,0.076191,54,F3#,33,3
89280,105.441047,911,1.084524,68,G4#,33,2
89280,105.441047,911,1.084524,75,D5#,33,2
89280,105.441047,911,1.084524,84,C6,33,2
89280,105.441047,455,0.541667,44,G2#,33,3
89349,105.523189,68,0.080953,51,D3#,33,3
89418,105.605332,68,0.080953,56,G3#,33,3
89487,105.687475,68,0.080953,60,C4,33,3
89556,105.769618,68,0.080953,63,D4#,33,3
89625,105.851761,68,0.080953,68,G4#,33,3
89694,105.933904,68,0.080952,72,C5,33,3
89760,106.012476,68,0.080952,75,D5#,33,3
89829,106.094618,68,0.080953,72,C5,33,3
89898,106.176761,68,0.080953,68,G4#,33,3
89967,106.258904,68,0.080953,63,D4#,33,3
90036,106.341047,68,0.080953,60,C4,33,3
90105,106.42319,68,0.080953,56,G3#,33,3
90174,106.505333,64,0.076191,51,D3#,33,3
90240,106.583905,479,0.570238,42,F2#,33,3
90309,106.666047,68,0.080953,51,D3#,33,3
90378,106.74819,68,0.080953,56,G3#,33,3
90447,106.830333,68,0.080953,60,C4,33,3
90516,106.912476,68,0.080953,63,D4#,33,3
90585,106.994619,68,0.080953,68,G4#,33,3
90654,107.076762,68,0.080952,72,C5,33,3
90720,107.155334,68,0.080952,75,D5#,33,3
90789,107.237476,68,0.080953,72,C5,33,3
90858,107.319619,68,0.080953,68,G4#,33,3
90927,107.401762,68,0.080953,63,D4#,33,3
90996,107.483905,68,0.080953,60,C4,33,3
91065,107.566048,68,0.080953,56,G3#,33,3
91134,107.648191,64,0.076191,51,D3#,33,3
91200,107.726763,959,1.141667,69,A4,33,2
91200,107.726763,479,0.570238,41,F2,33,3
91263,107.801763,895,1.065477,75,D5#,33,2
91269,107.808905,68,0.080953,51,D3#,33,3
91327,107.877953,831,0.989287,84,C6,33,2
91338,107.891048,68,0.080953,57,A3,33,3
91407,107.973191,68,0.080953,60,C4,33,3
91476,108.055334,68,0.080953,63,D4#,33,3
91545,108.137477,68,0.080953,69,A4,33,3
91614,108.21962,68,0.080952,72,C5,33,3
91680,108.298192,68,0.080952,75,D5#,33,3
91749,108.380334,68,0.080953,72,C5,33,3
91818,108.462477,68,0.080953,69,A4,33,3
91887,108.54462,68,0.080953,63,D4#,33,3
91956,108.626763,68,0.080953,60,C4,33,3
92025,108.708906,68,0.080953,57,A3,33,3
92094,108.791049,64,0.076191,51,D3#,33,3
92160,108.869621,959,1.141667,69,A4,33,2
92160,108.869621,479,0.570238,40,E2,33,3
92223,108.944621,895,1.065477,76,E5,33,2
92229,108.951763,68,0.080953,52,E3,33,3
92287,109.020811,831,0.989287,84,C6,33,2
92298,109.033906,68,0.080953,57,A3,33,3
92367,109.116049,68,0.080953,60,C4,33,3
92436,109.198192,68,0.080953,64,E4,33,3
92505,109.280335,68,0.080953,69,A4,33,3
92574,109.362478,68,0.080952,72,C5,33,3
92640,109.44105,68,0.080952,76,E5,33,3
92709,109.523192,68,0.080953,72,C5,33,3
92778,109.605335,68,0.080953,69,A4,33,3
92847,109.687478,68,0.080953,64,E4,33,3
92916,109.769621,68,0.080953,60,C4,33,3
92985,109.851764,68,0.080953,57,A3,33,3
93054,109.933907,64,0.076191,52,E3,33,3
93120,110.012479,1823,2.170239,74,D5,33,2
93120,110.012479,1823,2.170239,81,A5,33,2
93120,110.012479,1823,2.170239,90,F6#,33,2
93120,110.012479,479,0.570238,38,D2,33,3
93189,110.094621,68,0.080953,54,F3#,33,3
93258,110.176764,68,0.080953,57,A3,33,3
93327,110.258907,68,0.080953,62,D4,33,3
93396,110.34105,68,0.080953,66,F4#,33,3
93465,110.423193,68,0.080953,69,A4,33,3
93534,110.505336,68,0.080952,74,D5,33,3
93600,110.583908,68,0.080952,78,F5#,33,3
93669,110.66605,68,0.080953,74,D5,33,3
93738,110.748193,68,0.080953,69,A4,33,3
93807,110.830336,68,0.080953,66,F4#,33,3
93876,110.912479,68,0.080953,62,D4,33,3
93945,110.994622,68,0.080953,57,A3,33,3
94014,111.076765,64,0.076191,54,F3#,33,3
94080,111.155337,479,0.570238,36,C2,33,3
94149,111.237479,68,0.080953,54,F3#,33,3
94218,111.319622,68,0.080953,57,A3,33,3
94287,111.401765,68,0.080953,62,D4,33,3
94356,111.483908,68,0.080953,66,F4#,33,3
94425,111.566051,68,0.080953,69,A4,33,3
94494,111.648194,68,0.080952,74,D5,33,3
94560,111.726766,68,0.080952,78,F5#,33,3
94629,111.808908,68,0.080953,74,D5,33,3
94698,111.891051,68,0.080953,69,A4,33,3
94767,111.973194,68,0.080953,66,F4#,33,3
94836,112.055337,68,0.080953,62,D4,33,3
94905,112.13748,68,0.080953,57,A3,33,3
94974,112.219623,64,0.076191,54,F3#,33,3
95040,112.298195,959,1.141667,75,D5#,33,2
95040,112.298195,479,0.570238,35,B1,39,3
95103,112.373195,895,1.065477,83,B5,33,2
95109,112.380337,68,0.080953,54,F3#,33,3
95167,112.449385,831,0.989287,90,F6#,33,2
95178,112.46248,68,0.080953,59,B3,33,3
95247,112.544623,68,0.080953,63,D4#,33,3
95316,112.626766,68,0.080953,66,F4#,33,3
95385,112.708909,68,0.080953,71,B4,33,3
95454,112.791052,68,0.080952,75,D5#,33,3
95520,112.869624,68,0.080952,78,F5#,33,3
95589,112.951766,68,0.080953,75,D5#,33,3
95658,113.033909,68,0.080953,71,B4,33,3
95727,113.116052,68,0.080953,66,F4#,33,3
95796,113.198195,68,0.080953,63,D4#,33,3
95865,113.280338,68,0.080953,59,B3,33,3
95934,113.362481,64,0.076191,54,F3#,33,3
96000,113.441053,959,1.141667,75,D5#,33,2
96000,113.441053,479,0.570238,33,A1,39,3
96063,113.516053,895,1.065477,83,B5,33,2
96069,113.523195,68,0.080953,54,F3#,33,3
96127,113.592243,831,0.989287,90,F6#,33,2
96138,113.605338,68,0.080953,59,B3,33,3
96207,113.687481,68,0.080953,63,D4#,33,3
96276,113.769624,68,0.080953,66,F4#,33,3
96345,113.851767,68,0.080953,71,B4,33,3
96414,113.93391,68,0.080952,75,D5#,33,3
96480,114.012482,68,0.080952,78,F5#,33,3
96549,114.094624,68,0.080953,75,D5#,33,3
96618,114.176767,68,0.080953,71,B4,33,3
96687,114.25891,68,0.080953,66,F4#,33,3
96756,114.341053,68,0.080953,63,D4#,33,3
96825,114.423196,68,0.080953,59,B3,33,3
96894,114.505339,64,0.076191,54,F3#,33,3
96960,114.583911,239,0.284524,78,F5#,33,2
96960,114.583911,119,0.141666,32,G1#,33,3
97002,114.633911,197,0.234524,84,C6,33,2
97044,114.683911,155,0.184524,87,D6#,33,2
97086,114.733911,113,0.134524,93,A6,33,2
97200,114.869625,75,0.089286,44,G2#,33,3
97280,114.964863,75,0.089286,60,C4,33,2
97280,114.964863,75,0.089286,51,D3#,33,3
97360,115.060101,75,0.089286,63,D4#,33,2
97360,115.060101,75,0.089286,54,F3#,33,3
97440,115.15534,75,0.089285,69,A4,33,2
97440,115.15534,75,0.089285,60,C4,33,3
97520,115.250578,75,0.089285,72,C5,33,2
97520,115.250578,75,0.089285,63,D4#,33,3
97600,115.345816,75,0.089286,75,D5#,33,2
97600,115.345816,75,0.089286,66,F4#,33,3
97680,115.441054,75,0.089286,81,A5,33,2
97680,115.441054,75,0.089286,72,C5,33,3
97760,115.536292,75,0.089286,84,C6,33,2
97760,115.536292,75,0.089286,75,D5#,33,3
97840,115.63153,75,0.089286,87,D6#,33,2
97840,115.63153,75,0.089286,78,F5#,33,3
97920,115.726769,75,0.089285,93,A6,33,2
97920,115.726769,79,0.094047,84,C6,33,3
98000,115.822007,75,0.089285,87,D6#,33,2
98000,115.822007,79,0.094047,78,F5#,33,3
98080,115.917245,75,0.089286,81,A5,33,2
98080,115.917245,79,0.094048,72,C5,33,3
98160,116.012483,75,0.089286,75,D5#,33,2
98160,116.012483,119,0.141667,66,F4#,33,3
98240,116.107721,75,0.089286,81,A5,33,2
98320,116.202959,75,0.089286,87,D6#,33,2
98400,116.298198,75,0.089285,93,A6,33,2
98400,116.298198,79,0.094047,84,C6,33,3
98480,116.393436,75,0.089285,87,D6#,33,2
98480,116.393436,79,0.094047,78,F5#,33,3
98560,116.488674,75,0.089286,81,A5,33,2
98560,116.488674,79,0.094048,72,C5,33,3
98640,116.583912,75,0.089286,75,D5#,33,2
98640,116.583912,119,0.141667,66,F4#,33,3
98720,116.67915,75,0.089286,81,A5,33,2
98800,116.774388,75,0.089286,87,D6#,33,2
98880,116.869627,239,0.284524,78,F5#,33,2
98880,116.869627,119,0.141666,32,G1#,33,3
98922,116.919627,197,0.234524,84,C6,33,2
98964,116.969627,155,0.184524,87,D6#,33,2
99006,117.019627,113,0.134524,93,A6,33,2
99120,117.155341,75,0.089286,44,G2#,33,3
99200,117.250579,75,0.089286,60,C4,33,2
99200,117.250579,75,0.089286,51,D3#,33,3
99280,117.345817,75,0.089286,63,D4#,33,2
99280,117.345817,75,0.089286,54,F3#,33,3
99360,117.441056,75,0.089285,69,A4,33,2
99360,117.441056,75,0.089285,60,C4,33,3
99440,117.536294,75,0.089285,72,C5,33,2
99440,117.536294,75,0.089285,63,D4#,33,3
99520,117.631532,75,0.089286,75,D5#,33,2
99520,117.631532,75,0.089286,66,F4#,33,3
99600,117.72677,75,0.089286,81,A5,33,2
99600,117.72677,75,0.089286,72,C5,33,3
99680,117.822008,75,0.089286,84,C6,33,2
99680,117.822008,75,0.089286,75,D5#,33,3
99760,117.917246,75,0.089286,87,D6#,33,2
99760,117.917246,75,0.089286,78,F5#,33,3
99840,118.012485,75,0.089285,93,A6,33,2
99840,118.012485,79,0.094047,84,C6,33,3
99920,118.107723,75,0.089285,87,D6#,33,2
99920,118.107723,79,0.094047,78,F5#,33,3
100000,118.202961,75,0.089286,81,A5,33,2
100000,118.202961,79,0.094048,72,C5,33,3
100080,118.298199,75,0.089286,75,D5#,33,2
100080,118.298199,119,0.141667,66,F4#,33,3
100160,118.393437,75,0.089286,81,A5,33,2
100240,118.488675,75,0.089286,87,D6#,33,2
100320,118.583914,75,0.089285,93,A6,33,2
100320,118.583914,79,0.094047,84,C6,33,3
100400,118.679152,75,0.089285,87,D6#,33,2
100400,118.679152,79,0.094047,78,F5#,33,3
100480,118.77439,75,0.089286,81,A5,33,2
100480,118.77439,79,0.094048,72,C5,33,3
100560,118.869628,75,0.089286,75,D5#,33,2
100560,118.869628,119,0.141667,66,F4#,33,3
100640,118.964866,75,0.089286,81,A5,33,2
100720,119.060104,75,0.089286,87,D6#,33,2
100800,119.155343,239,0.284524,78,F5#,33,2
100800,119.155343,119,0.141666,32,G1#,33,3
100842,119.205343,197,0.234524,84,C6,33,2
100884,119.255343,155,0.184524,87,D6#,33,2
100926,119.305343,113,0.134524,93,A6,33,2
101040,119.441057,75,0.089286,44,G2#,33,3
101120,119.536295,75,0.089286,60,C4,33,2
101120,119.536295,75,0.089286,51,D3#,33,3
101200,119.631533,75,0.089286,63,D4#,33,2
101200,119.631533,75,0.089286,54,F3#,33,3
101280,119.726772,75,0.089285,69,A4,33,2
101280,119.726772,75,0.089285,60,C4,33,3
101360,119.82201,75,0.089285,72,C5,33,2
101360,119.82201,75,0.089285,63,D4#,33,3
101440,119.917248,75,0.089286,75,D5#,33,2
101440,119.917248,75,0.089286,66,F4#,33,3
101520,120.012486,75,0.089286,81,A5,33,2
101520,120.012486,75,0.089286,72,C5,33,3
101600,120.107724,75,0.089286,84,C6,33,2
101600,120.107724,75,0.089286,75,D5#,33,3
101680,120.202962,75,0.089286,87,D6#,33,2
101680,120.202962,75,0.089286,78,F5#,33,3
101760,120.298201,75,0.089285,93,A6,33,2
101760,120.298201,79,0.094047,84,C6,33,3
101840,120.393439,75,0.089285,87,D6#,33,2
101840,120.393439,79,0.094047,78,F5#,33,3
101920,120.488677,75,0.089286,81,A5,33,2
101920,120.488677,79,0.094048,72,C5,33,3
102000,120.583915,75,0.089286,75,D5#,33,2
102000,120.583915,119,0.141667,66,F4#,33,3
102080,120.679153,75,0.089286,81,A5,33,2
102160,120.774391,75,0.089286,87,D6#,33,2
102240,120.86963,75,0.089285,93,A6,33,2
102240,120.86963,79,0.094047,84,C6,33,3
102320,120.964868,75,0.089285,87,D6#,33,2
102320,120.964868,79,0.094047,78,F5#,33,3
102400,121.060106,75,0.089286,81,A5,33,2
102400,121.060106,79,0.094048,72,C5,33,3
102480,121.155344,75,0.089286,75,D5#,33,2
102480,121.155344,119,0.141667,66,F4#,33,3
102560,121.250582,75,0.089286,81,A5,33,2
102640,121.34582,75,0.089286,87,D6#,33,2
102720,121.441059,75,0.089285,93,A6,33,2
102720,121.441059,79,0.094047,84,C6,33,3
102800,121.536297,75,0.089285,87,D6#,33,2
102800,121.536297,79,0.094047,78,F5#,33,3
102880,121.631535,75,0.089286,81,A5,33,2
102880,121.631535,79,0.094048,72,C5,33,3
102960,121.726773,75,0.089286,75,D5#,33,2
102960,121.726773,119,0.141667,66,F4#,33,3
103040,121.822011,75,0.089286,81,A5,33,2
103120,121.917249,75,0.089286,87,D6#,33,2
103200,122.012488,75,0.089285,93,A6,33,2
103200,122.012488,79,0.094047,84,C6,33,3
103280,122.107726,75,0.089285,87,D6#,33,2
103280,122.107726,79,0.094047,78,F5#,33,3
103360,122.202964,75,0.089286,81,A5,33,2
103360,122.202964,79,0.094048,72,C5,33,3
103440,122.298202,75,0.089286,75,D5#,33,2
103440,122.298202,119,0.141667,66,F4#,33,3
103520,122.39344,75,0.089286,81,A5,33,2
103600,122.488678,75,0.089286,87,D6#,33,2
103680,122.583917,75,0.089285,93,A6,33,2
103680,122.583917,79,0.094047,84,C6,33,3
103760,122.679155,75,0.089285,87,D6#,33,2
103760,122.679155,79,0.094047,78,F5#,33,3
103840,122.774393,75,0.089286,81,A5,33,2
103840,122.774393,79,0.094048,72,C5,33,3
103920,122.869631,75,0.089286,75,D5#,33,2
103920,122.869631,119,0.141667,66,F4#,33,3
104000,122.964869,75,0.089286,81,A5,33,2
104080,123.060107,75,0.089286,87,D6#,33,2
104160,123.155346,75,0.089285,96,C7,16,2
104160,123.155346,75,0.089285,87,D6#,16,3
104240,123.250584,75,0.089285,87,D6#,16,2
104240,123.250584,75,0.089285,78,F5#,16,3
104320,123.345822,75,0.089286,81,A5,16,2
104320,123.345822,75,0.089286,71,B4,16,3
104400,123.44106,75,0.089286,84,C6,16,2
104400,123.44106,75,0.089286,75,D5#,16,3
104480,123.536298,75,0.089286,75,D5#,16,2
104480,123.536298,75,0.089286,66,F4#,16,3
104560,123.631536,75,0.089286,69,A4,16,2
104560,123.631536,75,0.089286,59,B3,16,3
104640,123.726775,75,0.089285,75,D5#,16,2
104640,123.726775,75,0.089285,66,F4#,16,3
104720,123.822013,75,0.089285,78,F5#,16,2
104720,123.822013,75,0.089285,69,A4,16,3
104800,123.917251,75,0.089286,84,C6,16,2
104800,123.917251,75,0.089286,75,D5#,16,3
104880,124.012489,75,0.089286,81,A5,16,2
104880,124.012489,75,0.089286,71,B4,16,3
104960,124.107727,75,0.089286,87,D6#,16,2
104960,124.107727,75,0.089286,78,F5#,16,3
105040,124.202965,75,0.089286,90,F6#,16,2
105040,124.202965,75,0.089286,81,A5,16,3
105120,124.298204,75,0.089285,96,C7,16,2
105120,124.298204,75,0.089285,87,D6#,16,3
105200,124.393442,75,0.089285,87,D6#,16,2
105200,124.393442,75,0.089285,78,F5#,16,3
105280,124.48868,75,0.089286,81,A5,16,2
105280,124.48868,75,0.089286,71,B4,16,3
105360,124.583918,75,0.089286,84,C6,16,2
105360,124.583918,75,0.089286,75,D5#,16,3
105440,124.679156,75,0.089286,75,D5#,16,2
105440,124.679156,75,0.089286,66,F4#,16,3
105520,124.774394,75,0.089286,69,A4,16,2
105520,124.774394,75,0.089286,59,B3,16,3
105600,124.869633,75,0.089285,75,D5#,16,2
105600,124.869633,75,0.089285,66,F4#,16,3
105680,124.964871,75,0.089285,78,F5#,16,2
105680,124.964871,75,0.089285,69,A4,16,3
105760,125.060109,75,0.089286,84,C6,16,2
105760,125.060109,75,0.089286,75,D5#,16,3
105840,125.155347,75,0.089286,81,A5,16,2
105840,125.155347,75,0.089286,71,B4,16,3
105920,125.250585,75,0.089286,87,D6#,16,2
105920,125.250585,75,0.089286,78,F5#,16,3
106000,125.345823,75,0.089286,90,F6#,16,2
106000,125.345823,75,0.089286,81,A5,16,3
106080,125.441062,75,0.089285,96,C7,16,2
106080,125.441062,75,0.089285,87,D6#,16,3
106160,125.5363,75,0.089285,87,D6#,16,2
106160,125.5363,75,0.089285,78,F5#,16,3
106240,125.631538,75,0.089286,90,F6#,16,2
106240,125.631538,75,0.089286,81,A5,16,3
106320,125.726776,75,0.089286,81,A5,16,2
106320,125.726776,75,0.089286,71,B4,16,3
106400,125.822014,75,0.089286,87,D6#,16,2
106400,125.822014,75,0.089286,78,F5#,16,3
106480,125.917252,75,0.089286,90,F6#,16,2
106480,125.917252,75,0.089286,81,A5,16,3
106560,126.012491,75,0.089285,96,C7,16,2
106560,126.012491,75,0.089285,87,D6#,16,3
106640,126.107729,75,0.089285,87,D6#,16,2
106640,126.107729,75,0.089285,78,F5#,16,3
106720,126.202967,75,0.089286,90,F6#,16,2
106720,126.202967,75,0.089286,81,A5,16,3
106800,126.298205,75,0.089286,81,A5,16,2
106800,126.298205,75,0.089286,71,B4,16,3
106880,126.393443,75,0.089286,87,D6#,16,2
106880,126.393443,75,0.089286,78,F5#,16,3
106960,126.488681,75,0.089286,90,F6#,16,2
106960,126.488681,75,0.089286,81,A5,16,3
107040,126.58392,75,0.089285,96,C7,16,2
107040,126.58392,75,0.089285,87,D6#,16,3
107120,126.679158,75,0.089285,87,D6#,16,2
107120,126.679158,75,0.089285,78,F5#,16,3
107200,126.774396,75,0.089286,90,F6#,16,2
107200,126.774396,75,0.089286,81,A5,16,3
107280,126.869634,75,0.089286,81,A5,16,2
107280,126.869634,75,0.089286,71,B4,16,3
107360,126.964872,75,0.089286,87,D6#,16,2
107360,126.964872,75,0.089286,78,F5#,16,3
107440,127.06011,75,0.089286,90,F6#,16,2
107440,127.06011,75,0.089286,81,A5,16,3
107520,127.155349,75,0.089285,96,C7,16,2
107520,127.155349,75,0.089285,87,D6#,16,3
107600,127.250587,75,0.089285,87,D6#,16,2
107600,127.250587,75,0.089285,78,F5#,16,3
107680,127.345825,75,0.089286,90,F6#,16,2
107680,127.345825,75,0.089286,81,A5,16,3
107760,127.441063,75,0.089286,81,A5,16,2
107760,127.441063,75,0.089286,71,B4,16,3
107840,127.536301,75,0.089286,87,D6#,16,2
107840,127.536301,75,0.089286,78,F5#,16,3
107920,127.631539,75,0.089286,90,F6#,16,2
107920,127.631539,75,0.089286,81,A5,16,3
108000,127.726778,64,0.07619,96,C7,16,2
108000,127.726778,75,0.089285,87,D6#,16,3
108069,127.80892,64,0.076191,87,D6#,16,2
108080,127.822016,75,0.089285,78,F5#,16,3
108138,127.891063,64,0.076191,90,F6#,16,2
108160,127.917254,75,0.089286,81,A5,16,3
108207,127.973206,64,0.076191,81,A5,16,2
108240,128.012492,75,0.089286,71,B4,16,3
108276,128.055349,64,0.076191,87,D6#,16,2
108320,128.10773,75,0.089286,78,F5#,16,3
108345,128.137492,64,0.076191,90,F6#,16,2
108400,128.202968,75,0.089286,81,A5,16,3
108414,128.219635,64,0.076191,96,C7,16,2
108480,128.298207,68,0.075892,84,C6,16,2
108480,128.298207,239,0.26674,56,G3#,16,3
108491,128.310483,56,0.0625,90,F6#,16,2
108503,128.323876,44,0.049107,92,G6#,16,2
108515,128.337269,32,0.035714,101,F7,16,2
108522,128.345081,197,0.219866,63,D4#,16,3
108549,128.375215,64,0.071429,99,D7#,16,2
108564,128.391956,155,0.172991,66,F4#,16,3
108606,128.438831,113,0.126116,72,C5,16,3
108618,128.452224,64,0.071428,97,C7#,16,2
108687,128.529233,64,0.071428,96,C7,16,2
108756,128.606241,64,0.071429,94,A6#,16,2
108825,128.68325,64,0.071429,92,G6#,16,2
108894,128.760259,64,0.071428,91,G6,16,2
108960,128.83392,75,0.083705,94,A6#,16,2
108960,128.83392,75,0.083705,85,C6#,16,3
109040,128.923205,75,0.083705,92,G6#,16,2
109040,128.923205,75,0.083705,84,C6,16,3
109120,129.012491,75,0.083705,90,F6#,16,2
109120,129.012491,75,0.083705,82,A5#,16,3
109200,129.101776,75,0.083705,89,F6,16,2
109200,129.101776,75,0.083705,80,G5#,16,3
109280,129.191062,75,0.083705,87,D6#,16,2
109280,129.191062,75,0.083705,78,F5#,16,3
109360,129.280347,75,0.083705,86,D6,16,2
109360,129.280347,75,0.083705,77,F5,16,3
109440,129.369633,56,0.062499,90,F6#,16,2
109440,129.369633,56,0.062499,82,A5#,16,3
109500,129.436597,56,0.062499,89,F6,16,2
109500,129.436597,56,0.062499,80,G5#,16,3
109560,129.503561,56,0.0625,87,D6#,16,2
109560,129.503561,56,0.0625,78,F5#,16,3
109620,129.570525,56,0.0625,85,C6#,16,2
109620,129.570525,56,0.0625,77,F5,16,3
109680,129.637489,56,0.0625,84,C6,16,2
109680,129.637489,56,0.0625,75,D5#,16,3
109740,129.704453,56,0.0625,82,A5#,16,2
109740,129.704453,56,0.0625,73,C5#,16,3
109800,129.771417,56,0.0625,80,G5#,16,2
109800,129.771417,56,0.0625,72,C5,16,3
109860,129.838381,56,0.0625,79,G5,16,2
109860,129.838381,56,0.0625,71,B4,16,3
109920,129.905346,75,0.083705,82,A5#,16,2
109920,129.905346,75,0.083705,73,C5#,16,3
110000,129.994631,75,0.083705,80,G5#,16,2
110000,129.994631,75,0.083705,72,C5,16,3
110080,130.083917,75,0.083705,78,F5#,16,2
110080,130.083917,75,0.083705,70,A4#,16,3
110160,130.173202,75,0.083705,77,F5,16,2
110160,130.173202,75,0.083705,68,G4#,16,3
110240,130.262488,75,0.083705,75,D5#,16,2
110240,130.262488,75,0.083705,66,F4#,16,3
110320,130.351773,75,0.083705,74,D5,16,2
110320,130.351773,75,0.083705,65,F4,16,3
110400,130.441059,56,0.062499,78,F5#,16,2
110400,130.441059,56,0.062499,70,A4#,16,3
110460,130.508023,56,0.062499,77,F5,16,2
110460,130.508023,56,0.062499,68,G4#,16,3
110520,130.574987,56,0.0625,75,D5#,16,2
110520,130.574987,56,0.0625,66,F4#,16,3
110580,130.641951,56,0.0625,73,C5#,16,2
110580,130.641951,56,0.0625,65,F4,16,3
110640,130.708915,56,0.0625,72,C5,16,2
110640,130.708915,56,0.0625,63,D4#,16,3
110700,130.775879,56,0.0625,70,A4#,16,2
110700,130.775879,56,0.0625,61,C4#,16,3
110760,130.842843,56,0.0625,68,G4#,16,2
110760,130.842843,56,0.0625,60,C4,16,3
110820,130.909807,56,0.0625,67,G4,16,2
110820,130.909807,56,0.0625,59,B3,16,3
110880,130.976772,75,0.083705,70,A4#,16,2
110880,130.976772,75,0.083705,61,C4#,16,3
110960,131.066057,75,0.083705,68,G4#,16,2
110960,131.066057,75,0.083705,60,C4,16,3
111040,131.155343,75,0.083705,66,F4#,16,2
111040,131.155343,75,0.083705,58,A3#,16,3
111120,131.244628,75,0.083705,65,F4,16,2
111120,131.244628,75,0.083705,56,G3#,16,3
111200,131.333914,75,0.083705,63,D4#,16,2
111200,131.333914,75,0.083705,54,F3#,16,3
111280,131.423199,75,0.083705,62,D4,16,2
111280,131.423199,75,0.083705,53,F3,16,3
111360,131.512485,64,0.071428,66,F4#,16,2
111360,131.512485,64,0.071428,58,A3#,16,3
111429,131.589493,64,0.071429,65,F4,16,2
111429,131.589493,64,0.071429,56,G3#,16,3
111498,131.666502,64,0.071428,63,D4#,16,2
111498,131.666502,64,0.071428,54,F3#,16,3
111567,131.743511,64,0.071428,61,C4#,16,2
111567,131.743511,64,0.071428,53,F3,16,3
111636,131.820519,64,0.071429,60,C4,16,2
111636,131.820519,64,0.071429,51,D3#,16,3
111705,131.897528,64,0.071429,58,A3#,16,2
111705,131.897528,64,0.071429,49,C3#,16,3
111774,131.974537,64,0.071428,56,G3#,16,2
111774,131.974537,64,0.071428,48,C3,16,3
111840,132.048198,40,0.044642,55,G3,16,2
111840,132.048198,40,0.044642,47,B2,16,3
111884,132.097305,40,0.044642,56,G3#,16,2
111884,132.097305,40,0.044642,48,C3,16,3
111928,132.146412,40,0.044642,58,A3#,16,2
111928,132.146412,40,0.044642,49,C3#,16,3
111972,132.195519,40,0.044642,60,C4,16,2
111972,132.195519,40,0.044642,51,D3#,16,3
112016,132.244626,40,0.044642,61,C4#,16,2
112016,132.244626,40,0.044642,53,F3,16,3
112060,132.293733,40,0.044642,63,D4#,16,2
112060,132.293733,40,0.044642,54,F3#,16,3
112104,132.34284,40,0.044642,65,F4,16,2
112104,132.34284,40,0.044642,56,G3#,16,3
112148,132.391947,40,0.044642,66,F4#,16,2
112148,132.391947,40,0.044642,58,A3#,16,3
112192,132.441054,40,0.044642,67,G4,16,2
112192,132.441054,40,0.044642,59,B3,16,3
112236,132.490161,40,0.044642,68,G4#,16,2
112236,132.490161,40,0.044642,60,C4,16,3
112280,132.539268,40,0.044643,70,A4#,16,2
112280,132.539268,40,0.044643,61,C4#,16,3
112320,132.583911,20,0.022321,72,C5,16,2
112320,132.583911,20,0.022321,63,D4#,16,3
112343,132.60958,20,0.022321,73,C5#,16,2
112343,132.60958,20,0.022321,65,F4,16,3
112366,132.63525,20,0.022321,75,D5#,16,2
112366,132.63525,20,0.022321,66,F4#,16,3
112389,132.660919,20,0.022322,77,F5,16,2
112389,132.660919,20,0.022322,68,G4#,16,3
112412,132.686589,20,0.022321,78,F5#,16,2
112412,132.686589,20,0.022321,70,A4#,16,3
112435,132.712258,20,0.022322,79,G5,16,2
112435,132.712258,20,0.022322,71,B4,16,3
112458,132.737928,20,0.022321,80,G5#,16,2
112458,132.737928,20,0.022321,72,C5,16,3
112481,132.763598,20,0.022321,82,A5#,16,2
112481,132.763598,20,0.022321,73,C5#,16,3
112504,132.789267,20,0.022322,84,C6,16,2
112504,132.789267,20,0.022322,75,D5#,16,3
112527,132.814937,20,0.022321,85,C6#,16,2
112527,132.814937,20,0.022321,77,F5,16,3
112550,132.840606,20,0.022322,87,D6#,16,2
112550,132.840606,20,0.022322,78,F5#,16,3
112573,132.866276,20,0.022321,89,F6,16,2
112573,132.866276,20,0.022321,80,G5#,16,3
112596,132.891945,20,0.022322,90,F6#,16,2
112596,132.891945,20,0.022322,81,A5,16,3
112619,132.917615,20,0.022321,91,G6,16,2
112619,132.917615,20,0.022321,82,A5#,16,3
112642,132.943285,20,0.022321,92,G6#,16,2
112642,132.943285,20,0.022321,83,B5,16,3
112665,132.968954,20,0.022322,93,A6,16,2
112665,132.968954,20,0.022322,84,C6,16,3
112688,132.994624,20,0.022321,94,A6#,16,2
112688,132.994624,20,0.022321,85,C6#,16,3
112711,133.020293,20,0.022322,95,B6,16,2
112711,133.020293,20,0.022322,86,D6,16,3
112734,133.045963,20,0.022321,96,C7,16,2
112734,133.045963,20,0.022321,87,D6#,16,3
112757,133.071633,20,0.022321,97,C7#,16,2
112757,133.071633,20,0.022321,88,E6,16,3
112780,133.097302,20,0.022322,98,D7,16,2
112780,133.097302,20,0.022322,89,F6,16,3
112800,133.119624,227,0.253347,99,D7#,16,2
112800,133.119624,227,0.253347,90,F6#,16,3
114240,134.751799,239,0.279206,56,G3#,19,2
114240,134.751799,79,0.092289,37,C2#,16,3
114320,134.845257,75,0.087617,61,C4#,16,2
114400,134.938715,75,0.087617,68,G4#,16,2
114400,134.938715,79,0.09229,44,G2#,16,3
114480,135.032173,75,0.087617,68,G4#,16,2
114560,135.125631,75,0.087617,73,C5#,16,2
114560,135.125631,79,0.09229,53,F3,16,3
114640,135.219089,75,0.087617,80,G5#,16,2
114720,135.312548,75,0.087617,82,A5#,16,2
114720,135.312548,475,0.554907,58,A3#,19,2
114800,135.406006,75,0.087617,73,C5#,16,2
114880,135.499464,75,0.087617,70,A4#,16,2
114880,135.499464,151,0.176402,53,F3,16,3
114960,135.592922,75,0.087617,70,A4#,16,2
115040,135.68638,75,0.087617,61,C4#,16,2
115040,135.68638,151,0.176402,49,C3#,16,3
115120,135.779838,75,0.087617,58,A3#,16,2
115200,135.873297,239,0.279206,61,C4#,19,2
115200,135.873297,79,0.092289,37,C2#,16,3
115280,135.966755,75,0.087617,68,G4#,16,2
115360,136.060213,75,0.087617,73,C5#,16,2
115360,136.060213,79,0.09229,44,G2#,16,3
115440,136.153671,75,0.087617,73,C5#,16,2
115520,136.247129,75,0.087617,80,G5#,16,2
115520,136.247129,79,0.09229,53,F3,16,3
115600,136.340587,75,0.087617,85,C6#,16,2
115680,136.434046,75,0.087617,87,D6#,16,2
115680,136.434046,475,0.554907,63,D4#,19,2
115680,136.434046,151,0.176402,63,D4#,16,3
115760,136.527504,75,0.087617,82,A5#,16,2
115840,136.620962,75,0.087617,75,D5#,16,2
115840,136.620962,151,0.176402,58,A3#,16,3
115920,136.71442,75,0.087617,75,D5#,16,2
116000,136.807878,75,0.087617,70,A4#,16,2
116000,136.807878,151,0.176402,54,F3#,16,3
116080,136.901336,75,0.087617,63,D4#,16,2
116160,136.994795,239,0.279206,65,F4,19,2
116160,136.994795,79,0.092289,37,C2#,16,3
116240,137.088253,75,0.087617,70,A4#,16,2
116320,137.181711,75,0.087617,77,F5,16,2
116320,137.181711,79,0.09229,46,A2#,16,3
116400,137.275169,75,0.087617,77,F5,16,2
116480,137.368627,75,0.087617,82,A5#,16,2
116480,137.368627,79,0.09229,54,F3#,16,3
116560,137.462085,75,0.087617,89,F6,16,2
116640,137.555544,75,0.087617,87,D6#,16,2
116640,137.555544,475,0.554907,63,D4#,19,2
116640,137.555544,151,0.176402,63,D4#,16,3
116720,137.649002,75,0.087617,82,A5#,16,2
116800,137.74246,75,0.087617,75,D5#,16,2
116800,137.74246,151,0.176402,58,A3#,16,3
116880,137.835918,75,0.087617,75,D5#,16,2
116960,137.929376,75,0.087617,70,A4#,16,2
116960,137.929376,151,0.176402,54,F3#,16,3
117040,138.022834,75,0.087617,63,D4#,16,2
117120,138.116293,239,0.279206,58,A3#,19,2
117120,138.116293,79,0.092289,37,C2#,16,3
117200,138.209751,75,0.087617,63,D4#,16,2
117280,138.303209,75,0.087617,70,A4#,16,2
117280,138.303209,79,0.09229,46,A2#,16,3
117360,138.396667,75,0.087617,70,A4#,16,2
117440,138.490125,75,0.087617,75,D5#,16,2
117440,138.490125,79,0.09229,54,F3#,16,3
117520,138.583583,75,0.087617,82,A5#,16,2
117600,138.677042,75,0.087617,85,C6#,16,2
117600,138.677042,455,0.531543,61,C4#,16,2
117600,138.677042,151,0.176402,61,C4#,16,3
117680,138.7705,75,0.087617,80,G5#,16,2
117760,138.863958,75,0.087617,73,C5#,16,2
117760,138.863958,151,0.176402,56,G3#,16,3
117840,138.957416,75,0.087617,73,C5#,16,2
117920,139.050874,75,0.087617,68,G4#,16,2
117920,139.050874,151,0.176402,53,F3,16,3
118000,139.144332,55,0.064253,61,C4#,16,2
118080,139.237791,75,0.087617,56,G3#,16,2
118080,139.237791,79,0.092289,37,C2#,16,3
118160,139.331249,75,0.087617,61,C4#,16,2
118240,139.424707,75,0.087617,68,G4#,16,2
118240,139.424707,79,0.09229,44,G2#,16,3
118320,139.518165,75,0.087617,61,C4#,16,2
118400,139.611623,75,0.087617,68,G4#,16,2
118400,139.611623,79,0.09229,53,F3,16,3
118480,139.705081,75,0.087617,73,C5#,16,2
118560,139.79854,75,0.087617,68,G4#,16,2
118560,139.79854,79,0.092289,56,G3#,16,3
118640,139.891998,75,0.087617,73,C5#,16,2
118720,139.985456,75,0.087617,80,G5#,16,2
118720,139.985456,79,0.09229,61,C4#,16,3
118800,140.078914,75,0.087617,73,C5#,16,2
118880,140.172372,75,0.087617,80,G5#,16,2
118880,140.172372,79,0.09229,65,F4,16,3
118960,140.26583,75,0.087617,85,C6#,16,2
119040,140.359289,75,0.087617,80,G5#,16,2
119040,140.359289,79,0.092289,68,G4#,16,3
119120,140.452747,75,0.087617,85,C6#,16,2
119200,140.546205,75,0.087617,92,G6#,16,2
119200,140.546205,79,0.09229,73,C5#,16,3
119280,140.639663,75,0.087617,85,C6#,16,2
119360,140.733121,75,0.087617,92,G6#,16,2
119360,140.733121,79,0.09229,77,F5,16,3
119440,140.826579,75,0.087617,97,C7#,16,2
119520,140.920038,75,0.087617,92,G6#,16,2
119600,141.013496,75,0.087617,85,C6#,16,2
119680,141.106954,75,0.087617,80,G5#,16,2
119760,141.200412,75,0.087617,73,C5#,16,2
119840,141.29387,75,0.087617,68,G4#,16,2
119920,141.387328,75,0.087617,61,C4#,16,2
120000,141.480787,239,0.279206,56,G3#,19,2
120000,141.480787,79,0.092289,37,C2#,16,3
120080,141.574245,75,0.087617,61,C4#,16,2
120160,141.667703,75,0.087617,68,G4#,16,2
120160,141.667703,79,0.09229,44,G2#,16,3
120240,141.761161,75,0.087617,68,G4#,16,2
120320,141.854619,75,0.087617,73,C5#,16,2
120320,141.854619,79,0.09229,53,F3,16,3
120400,141.948077,75,0.087617,80,G5#,16,2
120480,142.041536,75,0.087617,82,A5#,16,2
120480,142.041536,475,0.554907,58,A3#,19,2
120560,142.134994,75,0.087617,73,C5#,16,2
120640,142.228452,75,0.087617,70,A4#,16,2
120640,142.228452,151,0.176402,53,F3,16,3
120720,142.32191,75,0.087617,70,A4#,16,2
120800,142.415368,75,0.087617,61,C4#,16,2
120800,142.415368,151,0.176402,49,C3#,16,3
120880,142.508826,75,0.087617,58,A3#,16,2
120960,142.602285,239,0.279206,61,C4#,19,2
120960,142.602285,79,0.092289,37,C2#,16,3
121040,142.695743,75,0.087617,68,G4#,16,2
121120,142.789201,75,0.087617,73,C5#,16,2
121120,142.789201,79,0.09229,44,G2#,16,3
121200,142.882659,75,0.087617,73,C5#,16,2
121280,142.976117,75,0.087617,80,G5#,16,2
121280,142.976117,79,0.09229,53,F3,16,3
121360,143.069575,75,0.087617,85,C6#,16,2
121440,143.163034,75,0.087617,87,D6#,16,2
121440,143.163034,475,0.554907,63,D4#,19,2
121440,143.163034,151,0.176402,63,D4#,16,3
121520,143.256492,75,0.087617,82,A5#,16,2
121600,143.34995,75,0.087617,75,D5#,16,2
121600,143.34995,151,0.176402,58,A3#,16,3
121680,143.443408,75,0.087617,75,D5#,16,2
121760,143.536866,75,0.087617,70,A4#,16,2
121760,143.536866,151,0.176402,54,F3#,16,3
121840,143.630324,75,0.087617,63,D4#,16,2
121920,143.723783,239,0.279206,65,F4,19,2
121920,143.723783,79,0.092289,37,C2#,16,3
122000,143.817241,75,0.087617,70,A4#,16,2
122080,143.910699,75,0.087617,77,F5,16,2
122080,143.910699,79,0.09229,46,A2#,16,3
122160,144.004157,75,0.087617,77,F5,16,2
122240,144.097615,75,0.087617,82,A5#,16,2
122240,144.097615,79,0.09229,54,F3#,16,3
122320,144.191073,75,0.087617,89,F6,16,2
122400,144.284532,75,0.087617,87,D6#,16,2
122400,144.284532,475,0.554907,63,D4#,19,2
122400,144.284532,151,0.176402,63,D4#,16,3
122480,144.37799,75,0.087617,82,A5#,16,2
122560,144.471448,75,0.087617,75,D5#,16,2
122560,144.471448,151,0.176402,58,A3#,16,3
122640,144.564906,75,0.087617,75,D5#,16,2
122720,144.658364,75,0.087617,70,A4#,16,2
122720,144.658364,151,0.176402,54,F3#,16,3
122800,144.751822,75,0.087617,63,D4#,16,2
122880,144.845281,239,0.279206,58,A3#,19,2
122880,144.845281,79,0.092289,37,C2#,16,3
122960,144.938739,75,0.087617,63,D4#,16,2
123040,145.032197,75,0.087617,70,A4#,16,2
123040,145.032197,79,0.09229,46,A2#,16,3
123120,145.125655,75,0.087617,70,A4#,16,2
123200,145.219113,75,0.087617,75,D5#,16,2
123200,145.219113,79,0.09229,54,F3#,16,3
123280,145.312571,75,0.087617,82,A5#,16,2
123360,145.40603,75,0.087617,85,C6#,16,2
123360,145.40603,455,0.531543,61,C4#,16,2
123360,145.40603,151,0.176402,61,C4#,16,3
123440,145.499488,75,0.087617,80,G5#,16,2
123520,145.592946,75,0.087617,73,C5#,16,2
123520,145.592946,151,0.176402,56,G3#,16,3
123600,145.686404,75,0.087617,73,C5#,16,2
123680,145.779862,75,0.087617,68,G4#,16,2
123680,145.779862,151,0.176402,53,F3,16,3
123760,145.87332,55,0.064253,61,C4#,16,2
123840,145.966779,75,0.087617,56,G3#,16,2
123840,145.966779,79,0.092289,37,C2#,16,3
123920,146.060237,75,0.087617,61,C4#,16,2
124000,146.153695,75,0.087617,68,G4#,16,2
124000,146.153695,79,0.09229,44,G2#,16,3
124080,146.247153,75,0.087617,61,C4#,16,2
124160,146.340611,75,0.087617,68,G4#,16,2
124160,146.340611,79,0.09229,53,F3,16,3
124240,146.434069,75,0.087617,73,C5#,16,2
124320,146.527528,75,0.087617,68,G4#,16,2
124320,146.527528,79,0.092289,56,G3#,16,3
124400,146.620986,75,0.087617,73,C5#,16,2
124480,146.714444,75,0.087617,80,G5#,16,2
124480,146.714444,79,0.09229,61,C4#,16,3
124560,146.807902,75,0.087617,73,C5#,16,2
124640,146.90136,75,0.087617,80,G5#,16,2
124640,146.90136,79,0.09229,65,F4,16,3
124720,146.994818,75,0.087617,85,C6#,16,2
124800,147.088277,75,0.087617,80,G5#,16,2
124800,147.088277,79,0.092289,68,G4#,16,3
124880,147.181735,75,0.087617,85,C6#,16,2
124960,147.275193,75,0.087617,92,G6#,16,2
124960,147.275193,79,0.09229,73,C5#,16,3
125040,147.368651,75,0.087617,85,C6#,16,2
125120,147.462109,75,0.087617,92,G6#,16,2
125120,147.462109,79,0.09229,77,F5,16,3
125200,147.555567,75,0.087617,97,C7#,16,2
125280,147.649026,75,0.087617,92,G6#,16,2
125360,147.742484,75,0.087617,85,C6#,16,2
125440,147.835942,75,0.087617,80,G5#,16,2
125520,147.9294,75,0.087617,73,C5#,16,2
125600,148.022858,75,0.087617,68,G4#,16,2
125680,148.116316,75,0.087617,61,C4#,16,2
125760,148.209775,227,0.265187,66,F4#,16,2
125760,148.209775,151,0.176402,45,A2,16,3
125840,148.303233,75,0.087617,72,C5,16,2
125920,148.396691,75,0.087617,78,F5#,16,2
125920,148.396691,151,0.176402,51,D3#,16,3
126000,148.490149,75,0.087617,78,F5#,16,2
126080,148.583607,75,0.087617,84,C6,16,2
126080,148.583607,151,0.176402,60,C4,16,3
126160,148.677065,75,0.087617,90,F6#,16,2
126240,148.770524,75,0.087617,89,F6,16,2
126240,148.770524,455,0.531543,65,F4,16,2
126320,148.863982,75,0.087617,84,C6,16,2
126400,148.95744,75,0.087617,77,F5,16,2
126400,148.95744,151,0.176402,60,C4,16,3
126480,149.050898,75,0.087617,77,F5,16,2
126560,149.144356,75,0.087617,72,C5,16,2
126560,149.144356,151,0.176402,57,A3,16,3
126640,149.237814,55,0.064253,65,F4,16,2
126720,149.331273,455,0.531543,60,C4,16,2
126720,149.331273,151,0.176402,45,A2,16,3
126800,149.424731,75,0.087617,65,F4,16,2
126880,149.518189,75,0.087617,72,C5,16,2
126880,149.518189,151,0.176402,53,F3,16,3
126960,149.611647,75,0.087617,72,C5,16,2
127040,149.705105,75,0.087617,77,F5,16,2
127040,149.705105,151,0.176402,60,C4,16,3
127120,149.798563,75,0.087617,84,C6,16,2
127200,149.892022,75,0.087617,87,D6#,16,2
127200,149.892022,455,0.531543,63,D4#,16,2
127200,149.892022,151,0.176402,63,D4#,16,3
127280,149.98548,75,0.087617,82,A5#,16,2
127360,150.078938,75,0.087617,75,D5#,21,2
127360,150.078938,151,0.176402,54,F3#,21,3
127440,150.172396,75,0.087617,75,D5#,27,2
127520,150.265854,75,0.087617,70,A4#,33,2
127520,150.265854,151,0.176402,46,A2#,33,3
127600,150.359312,55,0.064253,63,D4#,39,2
127680,150.452771,455,0.531543,61,C4#,45,2
127680,150.452771,151,0.176402,46,A2#,45,3
127760,150.546229,75,0.087617,65,F4,50,2
127840,150.639687,75,0.087617,73,C5#,56,2
127840,150.639687,151,0.176402,53,F3,56,3
127920,150.733145,75,0.087617,73,C5#,62,2
128000,150.826603,75,0.087617,77,F5,68,2
128000,150.826603,151,0.176402,61,C4#,68,3
128080,150.920061,75,0.087617,85,C6#,74,2
128160,151.01352,75,0.087617,68,G4#,80,2
128160,151.01352,75,0.087617,68,G4#,96,2
128160,151.01352,151,0.176402,59,B3,80,3
128160,151.01352,151,0.176402,62,D4,80,3
128160,151.01352,151,0.176402,65,F4,80,3
128240,151.106978,75,0.087617,71,B4,80,2
128320,151.200436,75,0.087617,80,G5#,80,2
128320,151.200436,151,0.176402,54,F3#,80,3
128400,151.293894,75,0.087617,80,G5#,80,2
128480,151.387352,75,0.087617,83,B5,80,2
128480,151.387352,151,0.176402,42,F2#,80,3
128560,151.48081,75,0.087617,92,G6#,80,2
128640,151.574269,75,0.087617,66,F4#,80,2
128640,151.574269,75,0.087617,66,F4#,80,2
128640,151.574269,151,0.176402,58,A3#,80,3
128640,151.574269,151,0.176402,63,D4#,80,3
128720,151.667727,75,0.087617,70,A4#,80,2
128800,151.761185,75,0.087617,78,F5#,80,2
128800,151.761185,151,0.176402,54,F3#,80,3
128880,151.854643,75,0.087617,78,F5#,80,2
128960,151.948101,75,0.087617,82,A5#,80,2
128960,151.948101,151,0.176402,42,F2#,80,3
129040,152.041559,75,0.087617,90,F6#,80,2
129120,152.135018,455,0.531543,56,G3#,80,2
129120,152.135018,227,0.265187,44,G2#,80,3
129120,152.135018,227,0.265187,53,F3,80,3
129200,152.228476,75,0.087617,61,C4#,80,2
129280,152.321934,75,0.087617,68,G4#,80,2
129360,152.415392,75,0.087617,68,G4#,80,2
129360,152.415392,227,0.265188,32,G1#,80,3
129440,152.50885,75,0.087617,73,C5#,80,2
129520,152.602308,75,0.087617,80,G5#,80,2
129600,152.695767,227,0.265187,55,G3,80,2
129600,152.695767,227,0.265187,44,G2#,80,3
129600,152.695767,227,0.265187,52,E3,80,3
129680,152.789225,75,0.087617,61,C4#,80,2
129760,152.882683,75,0.087617,67,G4,80,2
129840,152.976141,75,0.087617,56,G3#,80,2
129840,152.976141,75,0.087617,56,G3#,80,2
129840,152.976141,227,0.265188,44,G2#,80,3
129840,152.976141,227,0.265188,53,F3,80,3
129920,153.069599,75,0.087617,61,C4#,80,2
130000,153.163057,75,0.087617,68,G4#,80,2
130080,153.256516,303,0.353972,65,F4,80,2
130080,153.256516,227,0.265187,44,G2#,80,3
130080,153.256516,227,0.265187,54,F3#,80,3
130080,153.256516,227,0.265187,60,C4,80,3
130160,153.349974,75,0.087617,68,G4#,80,2
130240,153.443432,75,0.087617,68,G4#,80,2
130320,153.53689,75,0.087617,77,F5,80,2
130400,153.630348,75,0.087617,68,G4#,80,2
130480,153.723806,75,0.087617,77,F5,80,2
130560,153.817265,75,0.087617,77,F5,80,2
130640,153.910723,75,0.087617,80,G5#,80,2
130720,154.004181,75,0.087617,80,G5#,80,2
130800,154.097639,75,0.087617,89,F6,80,2
130880,154.191097,75,0.087617,80,G5#,80,2
130960,154.284555,75,0.087617,89,F6,80,2
131040,154.378014,75,0.087617,89,F6,80,2
131120,154.471472,75,0.087617,92,G6#,80,2
131200,154.56493,75,0.087617,92,G6#,80,2
131280,154.658388,75,0.087617,101,F7,80,2
131360,154.751846,75,0.087617,92,G6#,80,2
131440,154.845304,75,0.087617,92,G6#,80,2
131520,154.938763,75,0.087617,89,F6,80,2
131600,155.032221,75,0.087617,89,F6,80,2
131680,155.125679,75,0.087617,80,G5#,80,2
131760,155.219137,75,0.087617,80,G5#,80,2
131840,155.312595,75,0.087617,77,F5,80,2
131920,155.406053,75,0.087617,77,F5,80,2
132000,155.499512,75,0.087617,68,G4#,80,2
132080,155.59297,75,0.087617,68,G4#,80,2
132160,155.686428,75,0.087617,65,F4,80,2
132240,155.779886,29,0.033879,80,G5#,80,2
132300,155.84998,29,0.033878,77,F5,80,2
132360,155.920073,29,0.033879,92,G6#,80,2
132420,155.990167,29,0.033878,89,F6,80,2
132480,156.060261,227,0.265187,104,G7#,80,2
133440,157.181759,455,0.531543,60,C4,80,2
133440,157.181759,455,0.531543,68,G4#,80,2
133440,157.181759,341,0.398365,65,F4,80,2
133440,157.181759,455,0.531543,54,F3#,80,3
133440,157.181759,455,0.531543,32,G1#,80,3
133440,157.181759,455,0.531543,44,G2#,80,3
133800,157.60232,113,0.13201,63,D4#,80,2
133920,157.742508,75,0.089285,37,C2#,80,3
134000,157.837746,75,0.089285,44,G2#,80,3
134080,157.932984,75,0.089286,49,C3#,80,3
134160,158.028222,75,0.089286,53,F3,80,3
134240,158.12346,75,0.089286,61,C4#,80,3
134320,158.218698,75,0.089286,65,F4,80,3
134400,158.313937,75,0.089285,68,G4#,80,3
134480,158.409175,75,0.089285,65,F4,80,3
134560,158.504413,75,0.089286,61,C4#,80,3
134640,158.599651,75,0.089286,53,F3,80,3
134720,158.694889,75,0.089286,49,C3#,80,3
134800,158.790127,75,0.089286,44,G2#,80,3
134880,158.885366,75,0.089285,37,C2#,80,3
134960,158.980604,75,0.089285,47,B2,80,3
135040,159.075842,75,0.089286,49,C3#,80,3
135120,159.17108,75,0.089286,53,F3,80,3
135200,159.266318,75,0.089286,56,G3#,80,3
135280,159.361556,75,0.089286,61,C4#,80,3
135360,159.456795,119,0.141666,61,C4#,33,1
135360,159.456795,119,0.141666,65,F4,33,1
135440,159.552033,75,0.089285,61,C4#,80,3
135520,159.647271,75,0.089286,56,G3#,80,3
135600,159.742509,75,0.089286,53,F3,80,3
135680,159.837747,75,0.089286,49,C3#,80,3
135760,159.932985,75,0.089286,47,B2,80,3
135840,160.028224,119,0.141666,62,D4,33,1
135840,160.028224,119,0.141666,66,F4#,33,1
135840,160.028224,75,0.089285,37,C2#,80,3
135920,160.123462,75,0.089285,45,A2,80,3
136000,160.2187,75,0.089286,50,D3,80,3
136080,160.313938,75,0.089286,54,F3#,80,3
136160,160.409176,75,0.089286,57,A3,80,3
136240,160.504414,75,0.089286,62,D4,80,3
136320,160.599653,119,0.141666,66,F4#,33,1
136320,160.599653,119,0.141666,69,A4,33,1
136400,160.694891,75,0.089285,62,D4,80,3
136480,160.790129,75,0.089286,57,A3,80,3
136560,160.885367,75,0.089286,54,F3#,80,3
136640,160.980605,75,0.089286,50,D3,80,3
136720,161.075843,75,0.089286,45,A2,80,3
136800,161.171082,119,0.141666,67,G4,33,1
136800,161.171082,119,0.141666,71,B4,33,1
136800,161.171082,64,0.07619,37,C2#,80,3
136869,161.253224,64,0.076191,47,B2,80,3
136938,161.335367,64,0.076191,50,D3,80,3
137007,161.41751,64,0.076191,55,G3,80,3
137076,161.499653,64,0.076191,59,B3,80,3
137145,161.581796,64,0.076191,62,D4,80,3
137214,161.663939,64,0.076191,67,G4,80,3
137280,161.742511,119,0.141666,71,B4,33,1
137280,161.742511,119,0.141666,74,D5,33,1
137349,161.824653,64,0.076191,67,G4,80,3
137418,161.906796,64,0.076191,62,D4,80,3
137487,161.988939,64,0.076191,59,B3,80,3
137556,162.071082,64,0.076191,55,G3,80,3
137625,162.153225,64,0.076191,50,D3,80,3
137694,162.235368,64,0.076191,47,B2,80,3
137760,162.31394,959,1.141667,73,C5#,39,1
137760,162.31394,959,1.141667,77,F5,39,1
137760,162.31394,64,0.07619,37,C2#,80,3
137829,162.396082,64,0.076191,44,G2#,80,3
137898,162.478225,64,0.076191,49,C3#,80,3
137967,162.560368,64,0.076191,53,F3,80,3
138036,162.642511,64,0.076191,56,G3#,80,3
138105,162.724654,64,0.076191,61,C4#,80,3
138174,162.806797,64,0.076191,65,F4,80,3
138240,162.885369,64,0.07619,68,G4#,80,3
138309,162.967511,64,0.076191,65,F4,80,3
138378,163.049654,64,0.076191,61,C4#,80,3
138447,163.131797,64,0.076191,56,G3#,80,3
138516,163.21394,64,0.076191,53,F3,80,3
138585,163.296083,64,0.076191,49,C3#,80,3
138654,163.378226,64,0.076191,44,G2#,80,3
138720,163.456798,56,0.066666,37,C2#,80,3
138780,163.528226,56,0.066667,53,F3,80,3
138840,163.599655,56,0.066666,56,G3#,80,3
138900,163.671083,56,0.066667,59,B3,80,3
138960,163.742512,56,0.066667,61,C4#,80,3
139020,163.813941,56,0.066666,65,F4,80,3
139080,163.885369,56,0.066667,68,G4#,80,3
139140,163.956798,56,0.066667,73,C5#,80,3
139200,164.028227,119,0.141666,73,C5#,33,1
139200,164.028227,119,0.141666,77,F5,33,1
139260,164.099655,56,0.066667,73,C5#,80,3
139320,164.171084,56,0.066666,68,G4#,80,3
139380,164.242512,56,0.066667,65,F4,80,3
139440,164.313941,56,0.066667,61,C4#,80,3
139500,164.38537,56,0.066666,59,B3,80,3
139560,164.456798,56,0.066667,56,G3#,80,3
139620,164.528227,56,0.066667,53,F3,80,3
139680,164.599656,119,0.141666,74,D5,33,1
139680,164.599656,119,0.141666,78,F5#,33,1
139680,164.599656,64,0.07619,49,C3#,80,3
139749,164.681798,64,0.076191,54,F3#,80,3
139818,164.763941,64,0.076191,57,A3,80,3
139887,164.846084,64,0.076191,62,D4,80,3
139956,164.928227,64,0.076191,66,F4#,80,3
140025,165.01037,64,0.076191,69,A4,80,3
140094,165.092513,64,0.076191,74,D5,80,3
140160,165.171085,119,0.141666,78,F5#,42,1
140160,165.171085,119,0.141666,81,A5,42,1
140229,165.253227,64,0.076191,74,D5,80,3
140298,165.33537,64,0.076191,69,A4,80,3
140367,165.417513,64,0.076191,66,F4#,80,3
140436,165.499656,64,0.076191,62,D4,80,3
140505,165.581799,64,0.076191,57,A3,80,3
140574,165.663942,64,0.076191,54,F3#,80,3
140640,165.742514,119,0.141666,79,G5,61,1
140640,165.742514,119,0.141666,83,B5,61,1
140640,165.742514,64,0.07619,49,C3#,80,3
140709,165.824656,64,0.076191,59,B3,80,3
140778,165.906799,64,0.076191,62,D4,80,3
140847,165.988942,64,0.076191,67,G4,80,3
140916,166.071085,64,0.076191,71,B4,80,3
140985,166.153228,64,0.076191,74,D5,80,3
141054,166.235371,64,0.076191,79,G5,80,3
141120,166.313943,119,0.141666,83,B5,80,1
141120,166.313943,119,0.141666,86,D6,80,1
141189,166.396085,64,0.076191,79,G5,80,3
141258,166.478228,64,0.076191,74,D5,80,3
141327,166.560371,64,0.076191,71,B4,80,3
141396,166.642514,64,0.076191,67,G4,80,3
141465,166.724657,64,0.076191,62,D4,80,3
141534,166.8068,64,0.076191,59,B3,80,3
141600,166.885372,1823,2.170239,73,C5#,80,2
141600,166.885372,1823,2.170239,80,G5#,80,2
141600,166.885372,1823,2.170239,85,C6#,80,2
141600,166.885372,1823,2.170239,89,F6,80,2
141600,166.885372,64,0.07619,49,C3#,80,3
141669,166.967514,64,0.076191,56,G3#,80,3
141738,167.049657,64,0.076191,61,C4#,80,3
141807,167.1318,64,0.076191,65,F4,80,3
141876,167.213943,64,0.076191,68,G4#,80,3
141945,167.296086,64,0.076191,73,C5#,80,3
142014,167.378229,64,0.076191,77,F5,80,3
142080,167.456801,64,0.07619,80,G5#,80,3
142149,167.538943,64,0.076191,77,F5,80,3
142218,167.621086,64,0.076191,73,C5#,80,3
142287,167.703229,64,0.076191,68,G4#,80,3
142356,167.785372,64,0.076191,65,F4,80,3
142425,167.867515,64,0.076191,61,C4#,80,3
142494,167.949658,64,0.076191,56,G3#,80,3
142560,168.02823,959,1.141667,47,B2,80,3
142620,168.099658,56,0.066667,56,G3#,80,3
142680,168.171087,56,0.066666,61,C4#,80,3
142740,168.242515,56,0.066667,65,F4,80,3
142800,168.313944,56,0.066667,68,G4#,80,3
142860,168.385373,56,0.066666,73,C5#,80,3
142920,168.456801,56,0.066667,77,F5,80,3
142980,168.52823,56,0.066667,80,G5#,80,3
143040,168.599659,56,0.066666,85,C6#,80,3
143100,168.671087,56,0.066667,80,G5#,80,3
143160,168.742516,56,0.066666,77,F5,80,3
143220,168.813944,56,0.066667,73,C5#,80,3
143280,168.885373,56,0.066667,68,G4#,80,3
143340,168.956802,56,0.066666,65,F4,80,3
143400,169.02823,56,0.066667,61,C4#,80,3
143460,169.099659,56,0.066667,56,G3#,80,3
143520,169.171088,1823,2.170239,74,D5,80,2
143520,169.171088,1823,2.170239,82,A5#,80,2
143520,169.171088,1823,2.170239,89,F6,80,2
143520,169.171088,959,1.141667,46,A2#,80,3
143580,169.242516,56,0.066667,53,F3,80,3
143640,169.313945,56,0.066666,58,A3#,80,3
143700,169.385373,56,0.066667,62,D4,80,3
143760,169.456802,56,0.066667,70,A4#,80,3
143820,169.528231,56,0.066666,74,D5,80,3
143880,169.599659,56,0.066667,77,F5,80,3
143940,169.671088,56,0.066667,82,A5#,80,3
144000,169.742517,56,0.066666,86,D6,80,3
144060,169.813945,56,0.066667,82,A5#,80,3
144120,169.885374,56,0.066666,77,F5,80,3
144180,169.956802,56,0.066667,74,D5,80,3
144240,170.028231,56,0.066667,70,A4#,80,3
144300,170.09966,56,0.066666,65,F4,80,3
144360,170.171088,56,0.066667,62,D4,80,3
144420,170.242517,56,0.066667,56,G3#,80,3
144480,170.313946,959,1.141667,44,G2#,80,3
144540,170.385374,56,0.066667,56,G3#,80,3
144600,170.456803,56,0.066666,62,D4,80,3
144660,170.528231,56,0.066667,65,F4,80,3
144720,170.59966,56,0.066667,68,G4#,80,3
144780,170.671089,56,0.066666,74,D5,80,3
144840,170.742517,56,0.066667,77,F5,80,3
144900,170.813946,56,0.066667,80,G5#,80,3
144960,170.885375,56,0.066666,86,D6,80,3
145020,170.956803,56,0.066667,80,G5#,80,3
145080,171.028232,56,0.066666,77,F5,80,3
145140,171.09966,56,0.066667,74,D5,80,3
145200,171.171089,56,0.066667,68,G4#,80,3
145260,171.242518,56,0.066666,65,F4,80,3
145320,171.313946,56,0.066667,62,D4,80,3
145380,171.385375,56,0.066667,56,G3#,80,3
145440,171.456804,1823,2.170239,74,D5,80,2
145440,171.456804,1823,2.170239,83,B5,80,2
145440,171.456804,1823,2.170239,91,G6,80,2
145440,171.456804,959,1.141667,43,G2,80,3
145500,171.528232,56,0.066667,55,G3,80,3
145560,171.599661,56,0.066666,59,B3,80,3
145620,171.671089,56,0.066667,62,D4,80,3
145680,171.742518,56,0.066667,67,G4,80,3
145740,171.813947,56,0.066666,71,B4,80,3
145800,171.885375,56,0.066667,74,D5,80,3
145860,171.956804,56,0.066667,79,G5,80,3
145920,172.028233,56,0.066666,83,B5,80,3
145980,172.099661,56,0.066667,79,G5,80,3
146040,172.17109,56,0.066666,74,D5,80,3
146100,172.242518,56,0.066667,71,B4,80,3
146160,172.313947,56,0.066667,67,G4,80,3
146220,172.385376,56,0.066666,62,D4,80,3
146280,172.456804,56,0.066667,59,B3,80,3
146340,172.528233,56,0.066667,55,G3,80,3
146400,172.599662,959,1.141667,41,F2,80,3
146460,172.67109,56,0.066667,55,G3,80,3
146520,172.742519,56,0.066666,59,B3,80,3
146580,172.813947,56,0.066667,62,D4,80,3
146640,172.885376,56,0.066667,67,G4,80,3
146700,172.956805,56,0.066666,71,B4,80,3
146760,173.028233,56,0.066667,74,D5,80,3
146820,173.099662,56,0.066667,79,G5,80,3
146880,173.171091,56,0.066666,83,B5,80,3
146940,173.242519,56,0.066667,79,G5,80,3
147000,173.313948,56,0.066666,74,D5,80,3
147060,173.385376,56,0.066667,71,B4,80,3
147120,173.456805,56,0.066667,67,G4,80,3
147180,173.528234,56,0.066666,62,D4,80,3
147240,173.599662,56,0.066667,59,B3,80,3
147300,173.671091,56,0.066667,55,G3,80,3
147360,173.74252,911,1.084524,76,E5,80,2
147360,173.74252,911,1.084524,83,B5,80,2
147360,173.74252,911,1.084524,92,G6#,80,2
147360,173.74252,959,1.141667,40,E2,80,3
147413,173.805615,49,0.058333,56,G3#,80,3
147466,173.86871,49,0.058333,59,B3,80,3
147519,173.931805,49,0.058334,64,E4,80,3
147572,173.994901,49,0.058333,68,G4#,80,3
147625,174.057996,49,0.058333,71,B4,80,3
147678,174.121091,49,0.058334,76,E5,80,3
147731,174.184186,49,0.058334,80,G5#,80,3
147784,174.247282,49,0.058333,83,B5,80,3
147840,174.313949,49,0.058333,88,E6,80,3
147893,174.377044,49,0.058333,83,B5,80,3
147946,174.440139,49,0.058333,80,G5#,80,3
147999,174.503234,49,0.058334,76,E5,80,3
148052,174.56633,49,0.058333,71,B4,80,3
148105,174.629425,49,0.058333,68,G4#,80,3
148158,174.69252,49,0.058334,64,E4,80,3
148211,174.755615,49,0.058334,59,B3,80,3
148264,174.818711,49,0.058333,56,G3#,80,3
148320,174.885378,959,1.141667,38,D2,80,3
148373,174.948473,49,0.058333,56,G3#,80,2
148426,175.011568,49,0.058333,59,B3,80,2
148479,175.074663,49,0.058334,64,E4,80,2
148532,175.137759,49,0.058333,68,G4#,80,2
148585,175.200854,49,0.058333,71,B4,80,2
148638,175.263949,49,0.058334,76,E5,80,2
148691,175.327044,49,0.058334,80,G5#,80,2
148744,175.39014,49,0.058333,83,B5,80,2
148800,175.456807,49,0.058333,88,E6,80,2
148853,175.519902,49,0.058333,83,B5,80,2
148906,175.582997,49,0.058333,80,G5#,80,2
148959,175.646092,49,0.058334,76,E5,80,2
149012,175.709188,49,0.058333,71,B4,80,2
149065,175.772283,49,0.058333,68,G4#,80,2
149118,175.835378,49,0.058334,64,E4,80,2
149171,175.898473,49,0.058334,59,B3,80,2
149224,175.961569,49,0.058333,56,G3#,80,2
149280,176.028236,31,0.048437,37,C2#,80,3
149314,176.081361,31,0.048437,44,G2#,80,3
149348,176.134486,31,0.048437,49,C3#,80,3
149382,176.187611,31,0.048438,53,F3,80,3
149416,176.240736,31,0.048438,56,G3#,80,3
149450,176.293861,31,0.048438,61,C4#,80,3
149484,176.346986,31,0.048438,65,F4,80,3
149520,176.403237,911,1.423441,68,G4#,80,3
149600,176.528237,531,0.82969,73,C5#,80,3
149680,176.653237,531,0.82969,77,F5,80,3
149760,176.778238,227,0.354688,80,G5#,80,2
149820,176.871988,284,0.443751,85,C6#,80,2
149880,176.965738,284,0.443751,89,F6,80,2
149940,177.059488,284,0.443751,92,G6#,80,2
150240,177.52824,31,0.048437,34,A1#,80,3
150274,177.581365,31,0.048437,46,A2#,80,3
150308,177.63449,31,0.048437,49,C3#,80,3
150342,177.687615,31,0.048438,53,F3,80,3
150376,177.74074,31,0.048438,58,A3#,80,3
150410,177.793865,31,0.048438,61,C4#,80,3
150444,177.84699,31,0.048438,65,F4,80,3
150480,177.903241,341,0.532813,70,A4#,80,3
150560,178.028241,417,0.651564,73,C5#,80,3
150640,178.153241,417,0.651564,77,F5,80,3
150720,178.278242,56,0.0875,82,A5#,80,2
150720,178.278242,56,0.0875,82,A5#,80,2
150780,178.371992,143,0.223438,85,C6#,80,2
150840,178.465742,170,0.265626,89,F6,80,2
150900,178.559492,170,0.265626,94,A6#,80,2
151200,179.028244,27,0.042187,30,F1#,80,3
151230,179.075119,27,0.042187,42,F2#,80,3
151260,179.121994,27,0.042187,49,C3#,80,3
151290,179.168869,27,0.042187,54,F3#,80,3
151320,179.215744,27,0.042188,58,A3#,80,3
151350,179.262619,27,0.042188,61,C4#,80,3
151380,179.309494,27,0.042188,66,F4#,80,3
151410,179.356369,27,0.042188,70,A4#,80,3
151440,179.403245,227,0.354688,73,C5#,80,3
151520,179.528245,381,0.595314,78,F5#,80,3
151600,179.653245,417,0.651564,82,A5#,80,3
151680,179.778246,56,0.0875,85,C6#,80,2
151680,179.778246,56,0.0875,85,C6#,80,2
151740,179.871996,143,0.223438,90,F6#,80,2
151800,179.965746,170,0.265626,94,A6#,80,2
151860,180.059496,170,0.265626,97,C7#,80,2
152160,180.528248,24,0.0375,27,D1#,80,3
152187,180.570435,24,0.0375,39,D2#,80,3
152214,180.612623,24,0.0375,46,A2#,80,3
152241,180.65481,24,0.0375,51,D3#,80,3
152268,180.696998,24,0.0375,54,F3#,80,3
152295,180.739186,24,0.0375,58,A3#,80,3
152322,180.781373,24,0.0375,63,D4#,80,3
152349,180.823561,24,0.0375,66,F4#,80,3
152376,180.865748,24,0.037501,70,A4#,80,3
152400,180.903249,341,0.532813,75,D5#,80,3
152480,181.028249,531,0.82969,78,F5#,80,3
152560,181.153249,531,0.82969,82,A5#,80,3
152640,181.27825,37,0.057812,87,D6#,80,2
152640,181.27825,37,0.057812,87,D6#,80,2
152680,181.34075,37,0.057812,90,F6#,80,2
152720,181.40325,37,0.057812,94,A6#,80,2
152760,181.46575,341,0.532814,87,D6#,80,2
152760,181.46575,341,0.532814,90,F6#,80,2
152760,181.46575,341,0.532814,94,A6#,80,2
152760,181.46575,341,0.532814,99,D7#,80,2
153120,182.028252,227,0.354688,89,F6,80,2
153120,182.028252,227,0.354688,101,F7,80,2
153120,182.028252,227,0.354688,77,F5,80,3
153360,182.403253,455,0.710939,87,D6#,80,2
153360,182.403253,455,0.710939,99,D7#,80,2
153360,182.403253,455,0.710939,75,D5#,80,3
153840,183.153255,455,0.710939,82,A5#,80,2
153840,183.153255,455,0.710939,94,A6#,80,2
153840,183.153255,455,0.710939,70,A4#,80,3
154800,184.653259,341,0.532813,63,D4#,80,2
155160,185.21576,113,0.176563,65,F4,80,2
155280,185.403261,455,0.710939,63,D4#,80,2
155760,186.153263,455,0.710939,54,F3#,80,2
155760,186.153263,455,0.710939,58,A3#,80,2
155760,186.153263,455,0.710939,51,D3#,80,3
156240,186.903265,911,1.423441,53,F3,80,2
156240,186.903265,911,1.423441,56,G3#,80,2
156240,186.903265,911,1.423441,61,C4#,80,2
156240,186.903265,911,1.423441,49,C3#,80,3
157200,188.403269,911,1.423441,52,E3,80,2
157200,188.403269,911,1.423441,57,A3,80,2
157200,188.403269,911,1.423441,61,C4#,80,2
157200,188.403269,911,1.423441,45,A2,80,3
158160,189.903273,911,1.423441,54,F3#,80,2
158160,189.903273,911,1.423441,58,A3#,80,2
158160,189.903273,911,1.423441,61,C4#,80,2
158160,189.903273,911,1.423441,42,F2#,80,3
159120,191.403277,911,1.423441,54,F3#,80,2
159120,191.403277,911,1.423441,58,A3#,80,2
159120,191.403277,911,1.423441,63,D4#,80,2
159120,191.403277,911,1.423441,39,D2#,80,3
160080,192.903281,1367,2.135943,65,F4,80,2
160080,192.903281,1823,2.848445,53,F3,80,2
160080,192.903281,1823,2.848445,56,G3#,80,2
160080,192.903281,1823,2.848445,61,C4#,80,2
160080,192.903281,1823,2.848445,37,C2#,80,3
160080,192.903281,1823,2.848445,44,G2#,80,3
161520,195.153287,455,0.710939,65,F4,80,2
162000,195.903289,911,1.423441,65,F4,80,2
162000,195.903289,1823,2.848445,53,F3,80,2
162000,195.903289,1823,2.848445,57,A3,80,2
162000,195.903289,1823,2.848445,60,C4,80,2
162000,195.903289,1823,2.848445,29,F1,80,3
162000,195.903289,1823,2.848445,36,C2,80,3
162000,195.903289,1823,2.848445,41,F2,80,3
162000,195.903289,1823,2.848445,48,C3,80,3
162960,197.403293,455,0.710939,65,F4,80,2
163440,198.153295,455,0.710939,65,F4,80,2
163920,198.903297,1823,2.848445,53,F3,80,2
163920,198.903297,1823,2.848445,56,G3#,80,2
163920,198.903297,1823,2.848445,61,C4#,80,2
163920,198.903297,1823,2.848445,65,F4,80,2
163920,198.903297,1823,2.848445,25,C1#,80,3
163920,198.903297,1823,2.848445,32,G1#,80,3
163920,198.903297,1823,2.848445,37,C2#,80,3
163920,198.903297,1823,2.848445,44,G2#,80,3
