start_ticks,start_secs,dur_ticks,dur_secs,pitch,fullNoteOctave,velocity,part
0,0.0,239,0.196546,36,C2,33,2
240,0.197368,239,0.196546,52,E3,33,1
240,0.197368,239,0.196546,48,C3,33,1
240,0.197368,239,0.196546,43,G2,33,2
240,0.197368,239,0.196546,36,C2,33,2
480,0.394737,239,0.196546,52,E3,33,1
480,0.394737,239,0.196546,48,C3,33,1
480,0.394737,239,0.196546,43,G2,33,2
480,0.394737,239,0.196546,36,C2,33,2
720,0.592105,239,0.196546,52,E3,33,1
720,0.592105,239,0.196546,48,C3,33,1
720,0.592105,239,0.196546,43,G2,33,2
720,0.592105,239,0.196546,36,C2,33,2
960,0.789474,239,0.196546,52,E3,33,1
960,0.789474,239,0.196546,48,C3,33,1
960,0.789474,239,0.196546,43,G2,33,2
960,0.789474,239,0.196546,36,C2,33,2
1200,0.986842,239,0.196546,52,E3,33,1
1200,0.986842,239,0.196546,48,C3,33,1
1200,0.986842,239,0.196546,43,G2,33,2
1200,0.986842,239,0.196546,36,C2,33,2
1440,1.184211,239,0.196546,52,E3,33,1
1440,1.184211,239,0.196546,48,C3,33,1
1440,1.184211,239,0.196546,43,G2,33,2
1440,1.184211,239,0.196546,36,C2,33,2
1680,1.381579,239,0.196546,52,E3,33,1
1680,1.381579,239,0.196546,48,C3,33,1
1680,1.381579,239,0.196546,43,G2,33,2
1680,1.381579,239,0.196546,36,C2,33,2
1920,1.578948,239,0.196546,52,E3,33,1
1920,1.578948,239,0.196546,48,C3,33,1
1920,1.578948,239,0.196546,43,G2,33,2
1920,1.578948,239,0.196546,36,C2,33,2
2160,1.776316,239,0.196546,52,E3,33,1
2160,1.776316,239,0.196546,48,C3,33,1
2160,1.776316,239,0.196546,43,G2,33,2
2160,1.776316,239,0.196546,36,C2,33,2
2400,1.973685,239,0.196546,52,E3,33,1
2400,1.973685,239,0.196546,48,C3,33,1
2400,1.973685,239,0.196546,43,G2,33,2
2400,1.973685,239,0.196546,36,C2,33,2
2640,2.171053,239,0.196546,52,E3,33,1
2640,2.171053,239,0.196546,48,C3,33,1
2640,2.171053,239,0.196546,43,G2,33,2
2640,2.171053,239,0.196546,36,C2,33,2
2880,2.368422,239,0.196546,52,E3,33,1
2880,2.368422,239,0.196546,48,C3,33,1
2880,2.368422,239,0.196546,43,G2,33,2
2880,2.368422,239,0.196546,36,C2,33,2
3120,2.56579,239,0.196546,52,E3,33,1
3120,2.56579,239,0.196546,48,C3,33,1
3120,2.56579,239,0.196546,43,G2,33,2
3120,2.56579,239,0.196546,36,C2,33,2
3360,2.763159,239,0.196546,54,F3#,33,1
3360,2.763159,239,0.196546,50,D3,33,1
3360,2.763159,239,0.196546,45,A2,33,2
3360,2.763159,239,0.196546,36,C2,33,2
3600,2.960527,239,0.196546,54,F3#,33,1
3600,2.960527,239,0.196546,50,D3,33,1
3600,2.960527,239,0.196546,45,A2,33,2
3600,2.960527,239,0.196546,36,C2,33,2
3840,3.157896,719,0.591283,55,G3,33,1
3840,3.157896,719,0.591283,50,D3,33,1
3840,3.157896,239,0.196546,43,G2,33,2
3840,3.157896,239,0.196546,35,B1,33,2
4080,3.355264,239,0.196546,43,G2,33,2
4080,3.355264,239,0.196546,35,B1,33,2
4320,3.552633,239,0.196546,43,G2,33,2
4320,3.552633,239,0.196546,35,B1,33,2
4560,3.750001,119,0.097862,59,B3,33,1
4560,3.750001,239,0.196546,43,G2,33,2
4560,3.750001,239,0.196546,35,B1,33,2
4680,3.848685,119,0.097862,57,A3,33,1
4800,3.94737,119,0.097861,55,G3,33,1
4800,3.94737,239,0.196546,43,G2,33,2
4800,3.94737,239,0.196546,35,B1,33,2
5040,4.144738,239,0.196546,43,G2,33,2
5040,4.144738,239,0.196546,35,B1,33,2
5280,4.342107,239,0.196546,43,G2,33,2
5280,4.342107,239,0.196546,35,B1,33,2
5520,4.539475,239,0.196546,43,G2,33,2
5520,4.539475,239,0.196546,35,B1,33,2
5760,4.736844,119,0.097861,85,C6#,33,1
5760,4.736844,239,0.196546,43,G2,33,2
5760,4.736844,239,0.196546,35,B1,33,2
5880,4.835528,599,0.492599,86,D6,33,1
6000,4.934212,239,0.196546,43,G2,33,2
6000,4.934212,239,0.196546,35,B1,33,2
6240,5.131581,239,0.196546,43,G2,33,2
6240,5.131581,239,0.196546,35,B1,33,2
6360,5.230265,119,0.097862,84,C6,33,1
6480,5.328949,119,0.097862,83,B5,33,1
6480,5.328949,239,0.196546,43,G2,33,2
6480,5.328949,239,0.196546,35,B1,33,2
6600,5.427633,119,0.097862,81,A5,33,1
6720,5.526318,239,0.196546,79,G5,33,1
6720,5.526318,239,0.196546,43,G2,33,2
6720,5.526318,239,0.196546,35,B1,33,2
6960,5.723686,239,0.196546,43,G2,33,2
6960,5.723686,239,0.196546,35,B1,33,2
7200,5.921055,239,0.196546,43,G2,33,2
7200,5.921055,239,0.196546,35,B1,33,2
7440,6.118423,239,0.196546,43,G2,33,2
7440,6.118423,239,0.196546,35,B1,33,2
7680,6.315792,239,0.196546,50,D3,33,1
7680,6.315792,239,0.196546,46,A2#,33,1
7680,6.315792,239,0.196546,41,F2,33,2
7680,6.315792,239,0.196546,34,A1#,33,2
7920,6.51316,239,0.196546,50,D3,33,1
7920,6.51316,239,0.196546,46,A2#,33,1
7920,6.51316,239,0.196546,41,F2,33,2
7920,6.51316,239,0.196546,34,A1#,33,2
8160,6.710529,239,0.196546,50,D3,33,1
8160,6.710529,239,0.196546,46,A2#,33,1
8160,6.710529,239,0.196546,41,F2,33,2
8160,6.710529,239,0.196546,34,A1#,33,2
8400,6.907897,239,0.196546,50,D3,33,1
8400,6.907897,239,0.196546,46,A2#,33,1
8400,6.907897,239,0.196546,41,F2,33,2
8400,6.907897,239,0.196546,34,A1#,33,2
8640,7.105266,239,0.196546,50,D3,33,1
8640,7.105266,239,0.196546,46,A2#,33,1
8640,7.105266,239,0.196546,41,F2,33,2
8640,7.105266,239,0.196546,34,A1#,33,2
8880,7.302634,239,0.196546,50,D3,33,1
8880,7.302634,239,0.196546,46,A2#,33,1
8880,7.302634,239,0.196546,41,F2,33,2
8880,7.302634,239,0.196546,34,A1#,33,2
9120,7.500003,239,0.196546,50,D3,33,1
9120,7.500003,239,0.196546,46,A2#,33,1
9120,7.500003,239,0.196546,41,F2,33,2
9120,7.500003,239,0.196546,34,A1#,33,2
9360,7.697371,239,0.196546,50,D3,33,1
9360,7.697371,239,0.196546,46,A2#,33,1
9360,7.697371,239,0.196546,41,F2,33,2
9360,7.697371,239,0.196546,34,A1#,33,2
9600,7.89474,239,0.196546,50,D3,33,1
9600,7.89474,239,0.196546,46,A2#,33,1
9600,7.89474,239,0.196546,41,F2,33,2
9600,7.89474,239,0.196546,34,A1#,33,2
9840,8.092108,239,0.196546,50,D3,33,1
9840,8.092108,239,0.196546,46,A2#,33,1
9840,8.092108,239,0.196546,41,F2,33,2
9840,8.092108,239,0.196546,34,A1#,33,2
10080,8.289477,239,0.196546,50,D3,33,1
10080,8.289477,239,0.196546,46,A2#,33,1
10080,8.289477,239,0.196546,41,F2,33,2
10080,8.289477,239,0.196546,34,A1#,33,2
10320,8.486845,239,0.196546,50,D3,33,1
10320,8.486845,239,0.196546,46,A2#,33,1
10320,8.486845,239,0.196546,41,F2,33,2
10320,8.486845,239,0.196546,34,A1#,33,2
10560,8.684214,239,0.196546,50,D3,33,1
10560,8.684214,239,0.196546,46,A2#,33,1
10560,8.684214,239,0.196546,41,F2,33,2
10560,8.684214,239,0.196546,34,A1#,33,2
10800,8.881582,239,0.196546,50,D3,33,1
10800,8.881582,239,0.196546,46,A2#,33,1
10800,8.881582,239,0.196546,41,F2,33,2
10800,8.881582,239,0.196546,34,A1#,33,2
11040,9.078951,239,0.196546,52,E3,33,1
11040,9.078951,239,0.196546,48,C3,33,1
11040,9.078951,239,0.196546,43,G2,33,2
11040,9.078951,239,0.196546,34,A1#,33,2
11280,9.276319,239,0.196546,52,E3,33,1
11280,9.276319,239,0.196546,48,C3,33,1
11280,9.276319,239,0.196546,43,G2,33,2
11280,9.276319,239,0.196546,34,A1#,33,2
11520,9.473688,719,0.591283,53,F3,33,1
11520,9.473688,719,0.591283,48,C3,33,1
11520,9.473688,239,0.196546,41,F2,33,2
11520,9.473688,239,0.196546,33,A1,33,2
11760,9.671056,239,0.196546,41,F2,33,2
11760,9.671056,239,0.196546,33,A1,33,2
12000,9.868425,239,0.196546,41,F2,33,2
12000,9.868425,239,0.196546,33,A1,33,2
12240,10.065793,119,0.097862,57,A3,33,1
12240,10.065793,239,0.196546,41,F2,33,2
12240,10.065793,239,0.196546,33,A1,33,2
12360,10.164477,119,0.097862,55,G3,33,1
12480,10.263162,119,0.097861,53,F3,33,1
12480,10.263162,239,0.196546,41,F2,33,2
12480,10.263162,239,0.196546,33,A1,33,2
12720,10.46053,239,0.196546,41,F2,33,2
12720,10.46053,239,0.196546,33,A1,33,2
12960,10.657899,239,0.196546,41,F2,33,2
12960,10.657899,239,0.196546,33,A1,33,2
13200,10.855267,239,0.196546,41,F2,33,2
13200,10.855267,239,0.196546,33,A1,33,2
13440,11.052636,119,0.097861,83,B5,33,1
13440,11.052636,239,0.196546,41,F2,33,2
13440,11.052636,239,0.196546,32,G1#,33,2
13560,11.15132,599,0.492599,84,C6,33,1
13680,11.250004,239,0.196546,41,F2,33,2
13680,11.250004,239,0.196546,32,G1#,33,2
13920,11.447373,239,0.196546,41,F2,33,2
13920,11.447373,239,0.196546,32,G1#,33,2
14040,11.546057,119,0.097862,82,A5#,33,1
14160,11.644741,119,0.097862,80,G5#,33,1
14160,11.644741,239,0.196546,41,F2,33,2
14160,11.644741,239,0.196546,32,G1#,33,2
14280,11.743425,119,0.097862,79,G5,33,1
14400,11.84211,239,0.196546,77,F5,33,1
14400,11.84211,239,0.196546,41,F2,33,2
14400,11.84211,239,0.196546,32,G1#,33,2
14640,12.039478,239,0.196546,41,F2,33,2
14640,12.039478,239,0.196546,32,G1#,33,2
14880,12.236847,239,0.196546,41,F2,33,2
14880,12.236847,239,0.196546,32,G1#,33,2
15120,12.434215,239,0.196546,41,F2,33,2
15120,12.434215,239,0.196546,32,G1#,33,2
15360,12.631584,119,0.097861,88,E6,36,1
15360,12.631584,239,0.196546,41,F2,6,2
15360,12.631584,239,0.196546,31,G1,36,2
15480,12.730268,1439,1.183388,89,F6,36,1
15600,12.828952,239,0.196546,41,F2,39,2
15600,12.828952,239,0.196546,31,G1,39,2
15840,13.026321,239,0.196546,41,F2,42,2
15840,13.026321,239,0.196546,31,G1,42,2
16080,13.223689,239,0.196546,41,F2,45,2
16080,13.223689,239,0.196546,31,G1,45,2
16320,13.421058,239,0.196546,41,F2,48,2
16320,13.421058,239,0.196546,31,G1,48,2
16560,13.618426,239,0.196546,41,F2,51,2
16560,13.618426,239,0.196546,31,G1,51,2
16800,13.815795,119,0.097861,89,F6,54,1
16800,13.815795,239,0.196546,41,F2,54,2
16800,13.815795,239,0.196546,32,G1#,54,2
16920,13.914479,119,0.097862,87,D6#,54,1
17040,14.013163,119,0.097862,86,D6,57,1
17040,14.013163,239,0.196546,41,F2,57,2
17040,14.013163,239,0.196546,32,G1#,57,2
17160,14.111847,119,0.097862,84,C6,57,1
17280,14.210532,119,0.097861,83,B5,60,1
17280,14.210532,239,0.196546,41,F2,60,2
17280,14.210532,239,0.196546,31,G1,60,2
17400,14.309216,119,0.097862,84,C6,60,1
17520,14.4079,119,0.097862,86,D6,64,1
17520,14.4079,239,0.196546,41,F2,64,2
17520,14.4079,239,0.196546,31,G1,64,2
17640,14.506584,119,0.097862,87,D6#,64,1
17760,14.605269,119,0.097861,89,F6,68,1
17760,14.605269,239,0.196546,41,F2,68,2
17760,14.605269,239,0.196546,32,G1#,68,2
17880,14.703953,119,0.097862,87,D6#,68,1
18000,14.802637,119,0.097862,86,D6,72,1
18000,14.802637,239,0.196546,41,F2,72,2
18000,14.802637,239,0.196546,32,G1#,72,2
18120,14.901321,119,0.097862,84,C6,72,1
18240,15.000006,119,0.097861,83,B5,76,1
18240,15.000006,239,0.196546,41,F2,76,2
18240,15.000006,239,0.196546,31,G1,76,2
18360,15.09869,119,0.097862,84,C6,76,1
18480,15.197374,119,0.097862,86,D6,80,1
18480,15.197374,239,0.196546,41,F2,80,2
18480,15.197374,239,0.196546,31,G1,80,2
18600,15.296058,119,0.097862,87,D6#,80,1
18720,15.394743,119,0.097861,89,F6,84,1
18720,15.394743,239,0.196546,41,F2,84,2
18720,15.394743,239,0.196546,32,G1#,84,2
18840,15.493427,119,0.097862,87,D6#,84,1
18960,15.592111,119,0.097862,86,D6,90,1
18960,15.592111,239,0.196546,41,F2,90,2
18960,15.592111,239,0.196546,32,G1#,90,2
19080,15.690795,119,0.097862,84,C6,90,1
19200,15.78948,119,0.097861,83,B5,96,1
19200,15.78948,479,0.393914,41,F2,96,2
19200,15.78948,479,0.393914,31,G1,96,2
19320,15.888164,119,0.097862,84,C6,96,1
19440,15.986848,119,0.097862,86,D6,96,1
19560,16.085532,119,0.097862,87,D6#,96,1
19680,16.184217,119,0.097861,89,F6,105,1
19680,16.184217,1199,0.98602,55,G3,105,2
19680,16.184217,1199,0.98602,43,G2,105,2
19800,16.282901,119,0.097862,87,D6#,96,1
19920,16.381585,119,0.097862,86,D6,96,1
20040,16.480269,119,0.097862,84,C6,96,1
20160,16.578954,119,0.097861,83,B5,96,1
20280,16.677638,119,0.097862,80,G5#,96,1
20400,16.776322,119,0.097862,79,G5,96,1
20520,16.875006,119,0.097862,77,F5,96,1
20640,16.973691,119,0.097861,75,D5#,96,1
20760,17.072375,119,0.097862,74,D5,96,1
20880,17.171059,119,0.097862,72,C5,96,1
20880,17.171059,119,0.097862,57,A3,96,2
21000,17.269743,119,0.097862,71,B4,96,1
21000,17.269743,119,0.097862,59,B3,96,2
21120,17.368428,239,0.196546,72,C5,96,1
21120,17.368428,239,0.196546,60,C4,96,2
21600,17.763165,239,0.196546,67,G4,84,1
21600,17.763165,239,0.196546,55,G3,84,2
21600,17.763165,239,0.196546,43,G2,84,2
22080,18.157902,239,0.196546,63,D4#,72,1
22080,18.157902,239,0.196546,51,D3#,72,2
22080,18.157902,239,0.196546,39,D2#,72,2
22560,18.552639,239,0.196546,60,C4,60,1
22560,18.552639,239,0.196546,48,C3,60,2
22560,18.552639,239,0.196546,36,C2,60,2
23040,18.947376,1919,3.156243,55,G3,49,1
23040,18.947376,1919,3.156243,43,G2,49,2
23040,18.947376,1919,3.156243,31,G1,49,2
24960,22.105264,119,0.097861,64,E4,33,1
24960,22.105264,239,0.196546,48,C3,33,2
24960,22.105264,239,0.196546,36,C2,33,2
25080,22.203948,119,0.097862,60,C4,33,1
25200,22.302632,119,0.097862,64,E4,33,1
25200,22.302632,119,0.097862,48,C3,33,2
25320,22.401316,119,0.097862,60,C4,33,1
25320,22.401316,119,0.097862,55,G3,33,2
25440,22.500001,119,0.097861,64,E4,33,1
25440,22.500001,119,0.097861,48,C3,33,2
25560,22.598685,119,0.097862,60,C4,33,1
25560,22.598685,119,0.097862,55,G3,33,2
25680,22.697369,119,0.097862,64,E4,33,1
25680,22.697369,119,0.097862,48,C3,33,2
25800,22.796053,119,0.097862,60,C4,33,1
25800,22.796053,119,0.097862,55,G3,33,2
25920,22.894738,119,0.097861,64,E4,33,1
25920,22.894738,119,0.097861,48,C3,33,2
26040,22.993422,119,0.097862,60,C4,33,1
26040,22.993422,119,0.097862,55,G3,33,2
26160,23.092106,119,0.097862,64,E4,33,1
26160,23.092106,119,0.097862,48,C3,33,2
26280,23.19079,119,0.097862,60,C4,33,1
26280,23.19079,119,0.097862,55,G3,33,2
26400,23.289475,119,0.097861,64,E4,33,1
26400,23.289475,119,0.097861,48,C3,33,2
26520,23.388159,119,0.097862,60,C4,33,1
26520,23.388159,119,0.097862,55,G3,33,2
26640,23.486843,119,0.097862,64,E4,33,1
26640,23.486843,119,0.097862,48,C3,33,2
26760,23.585527,119,0.097862,60,C4,33,1
26760,23.585527,119,0.097862,55,G3,33,2
26880,23.684212,119,0.097861,64,E4,33,1
26880,23.684212,119,0.097861,48,C3,33,2
27000,23.782896,119,0.097862,60,C4,33,1
27000,23.782896,119,0.097862,55,G3,33,2
27120,23.88158,119,0.097862,64,E4,33,1
27120,23.88158,119,0.097862,48,C3,33,2
27240,23.980264,119,0.097862,60,C4,33,1
27240,23.980264,119,0.097862,55,G3,33,2
27360,24.078949,119,0.097861,64,E4,33,1
27360,24.078949,119,0.097861,48,C3,33,2
27480,24.177633,119,0.097862,60,C4,33,1
27480,24.177633,119,0.097862,55,G3,33,2
27600,24.276317,119,0.097862,64,E4,33,1
27600,24.276317,119,0.097862,48,C3,33,2
27720,24.375001,119,0.097862,60,C4,33,1
27720,24.375001,119,0.097862,55,G3,33,2
27840,24.473686,119,0.097861,64,E4,33,1
27840,24.473686,119,0.097861,48,C3,33,2
27960,24.57237,119,0.097862,60,C4,33,1
27960,24.57237,119,0.097862,55,G3,33,2
28080,24.671054,119,0.097862,64,E4,33,1
28080,24.671054,119,0.097862,48,C3,33,2
28200,24.769738,119,0.097862,60,C4,33,1
28200,24.769738,119,0.097862,55,G3,33,2
28320,24.868423,119,0.097861,66,F4#,33,1
28320,24.868423,119,0.097861,48,C3,33,2
28440,24.967107,119,0.097862,62,D4,33,1
28440,24.967107,119,0.097862,57,A3,33,2
28560,25.065791,119,0.097862,66,F4#,33,1
28560,25.065791,119,0.097862,48,C3,33,2
28680,25.164475,119,0.097862,62,D4,33,1
28680,25.164475,119,0.097862,57,A3,33,2
28800,25.26316,719,0.591283,67,G4,33,1
28800,25.26316,119,0.097861,50,D3,33,2
28800,25.26316,119,0.097861,47,B2,33,2
28920,25.361844,119,0.097862,55,G3,33,2
29040,25.460528,119,0.097862,50,D3,33,2
29040,25.460528,119,0.097862,47,B2,33,2
29160,25.559212,119,0.097862,55,G3,33,2
29280,25.657897,119,0.097861,50,D3,33,2
29280,25.657897,119,0.097861,47,B2,33,2
29400,25.756581,119,0.097862,55,G3,33,2
29520,25.855265,119,0.097862,71,B4,33,1
29520,25.855265,119,0.097862,50,D3,33,2
29520,25.855265,119,0.097862,47,B2,33,2
29640,25.953949,119,0.097862,69,A4,33,1
29640,25.953949,119,0.097862,55,G3,33,2
29760,26.052634,119,0.097861,67,G4,33,1
29760,26.052634,119,0.097861,50,D3,33,2
29760,26.052634,119,0.097861,47,B2,33,2
29880,26.151318,119,0.097862,55,G3,33,2
30000,26.250002,119,0.097862,50,D3,33,2
30000,26.250002,119,0.097862,47,B2,33,2
30120,26.348686,119,0.097862,55,G3,33,2
30240,26.447371,119,0.097861,50,D3,33,2
30240,26.447371,119,0.097861,47,B2,33,2
30360,26.546055,119,0.097862,55,G3,33,2
30480,26.644739,119,0.097862,50,D3,33,2
30480,26.644739,119,0.097862,47,B2,33,2
30600,26.743423,119,0.097862,55,G3,33,2
30720,26.842108,119,0.097861,85,C6#,33,1
30720,26.842108,119,0.097861,50,D3,33,2
30720,26.842108,119,0.097861,47,B2,33,2
30840,26.940792,599,0.492599,86,D6,33,1
30840,26.940792,119,0.097862,55,G3,33,2
30960,27.039476,119,0.097862,50,D3,33,2
30960,27.039476,119,0.097862,47,B2,33,2
31080,27.13816,119,0.097862,55,G3,33,2
31200,27.236845,119,0.097861,50,D3,33,2
31200,27.236845,119,0.097861,47,B2,33,2
31320,27.335529,119,0.097862,84,C6,33,1
31320,27.335529,119,0.097862,55,G3,33,2
31440,27.434213,119,0.097862,83,B5,33,1
31440,27.434213,119,0.097862,50,D3,33,2
31440,27.434213,119,0.097862,47,B2,33,2
31560,27.532897,119,0.097862,81,A5,33,1
31560,27.532897,119,0.097862,55,G3,33,2
31680,27.631582,239,0.196546,79,G5,33,1
31680,27.631582,119,0.097861,50,D3,33,2
31680,27.631582,119,0.097861,47,B2,33,2
31800,27.730266,119,0.097862,55,G3,33,2
31920,27.82895,119,0.097862,50,D3,33,2
31920,27.82895,119,0.097862,47,B2,33,2
32040,27.927634,119,0.097862,55,G3,33,2
32160,28.026319,119,0.097861,50,D3,33,2
32160,28.026319,119,0.097861,47,B2,33,2
32280,28.125003,119,0.097862,55,G3,33,2
32400,28.223687,119,0.097862,50,D3,33,2
32400,28.223687,119,0.097862,47,B2,33,2
32520,28.322371,119,0.097862,55,G3,33,2
32640,28.421056,119,0.097861,65,F4,33,1
32640,28.421056,239,0.196546,50,D3,33,2
32640,28.421056,239,0.196546,38,D2,33,2
32760,28.51974,119,0.097862,62,D4,33,1
32880,28.618424,119,0.097862,65,F4,33,1
32880,28.618424,119,0.097862,50,D3,33,2
33000,28.717108,119,0.097862,62,D4,33,1
33000,28.717108,119,0.097862,57,A3,33,2
33120,28.815793,119,0.097861,65,F4,33,1
33120,28.815793,119,0.097861,50,D3,33,2
33240,28.914477,119,0.097862,62,D4,33,1
33240,28.914477,119,0.097862,57,A3,33,2
33360,29.013161,119,0.097862,65,F4,33,1
33360,29.013161,119,0.097862,50,D3,33,2
33480,29.111845,119,0.097862,62,D4,33,1
33480,29.111845,119,0.097862,57,A3,33,2
33600,29.21053,119,0.097861,65,F4,33,1
33600,29.21053,119,0.097861,50,D3,33,2
33720,29.309214,119,0.097862,62,D4,33,1
33720,29.309214,119,0.097862,57,A3,33,2
33840,29.407898,119,0.097862,65,F4,33,1
33840,29.407898,119,0.097862,50,D3,33,2
33960,29.506582,119,0.097862,62,D4,33,1
33960,29.506582,119,0.097862,57,A3,33,2
34080,29.605267,119,0.097861,65,F4,33,1
34080,29.605267,119,0.097861,50,D3,33,2
34200,29.703951,119,0.097862,62,D4,33,1
34200,29.703951,119,0.097862,57,A3,33,2
34320,29.802635,119,0.097862,65,F4,33,1
34320,29.802635,119,0.097862,50,D3,33,2
34440,29.901319,119,0.097862,62,D4,33,1
34440,29.901319,119,0.097862,57,A3,33,2
34560,30.000004,119,0.097861,65,F4,33,1
34560,30.000004,119,0.097861,50,D3,33,2
34680,30.098688,119,0.097862,62,D4,33,1
34680,30.098688,119,0.097862,57,A3,33,2
34800,30.197372,119,0.097862,65,F4,33,1
34800,30.197372,119,0.097862,50,D3,33,2
34920,30.296056,119,0.097862,62,D4,33,1
34920,30.296056,119,0.097862,57,A3,33,2
35040,30.394741,119,0.097861,65,F4,33,1
35040,30.394741,119,0.097861,50,D3,33,2
35160,30.493425,119,0.097862,62,D4,33,1
35160,30.493425,119,0.097862,57,A3,33,2
35280,30.592109,119,0.097862,65,F4,33,1
35280,30.592109,119,0.097862,50,D3,33,2
35400,30.690793,119,0.097862,62,D4,33,1
35400,30.690793,119,0.097862,57,A3,33,2
35520,30.789478,119,0.097861,65,F4,33,1
35520,30.789478,119,0.097861,50,D3,33,2
35640,30.888162,119,0.097862,62,D4,33,1
35640,30.888162,119,0.097862,57,A3,33,2
35760,30.986846,119,0.097862,65,F4,33,1
35760,30.986846,119,0.097862,50,D3,33,2
35880,31.08553,119,0.097862,62,D4,33,1
35880,31.08553,119,0.097862,57,A3,33,2
36000,31.184215,119,0.097861,68,G4#,33,1
36000,31.184215,119,0.097861,50,D3,33,2
36120,31.282899,119,0.097862,64,E4,33,1
36120,31.282899,119,0.097862,59,B3,33,2
36240,31.381583,119,0.097862,68,G4#,33,1
36240,31.381583,119,0.097862,50,D3,33,2
36360,31.480267,119,0.097862,64,E4,33,1
36360,31.480267,119,0.097862,59,B3,33,2
36480,31.578952,719,0.591283,69,A4,33,1
36480,31.578952,119,0.097861,52,E3,33,2
36480,31.578952,119,0.097861,48,C3,33,2
36600,31.677636,119,0.097862,57,A3,33,2
36720,31.77632,119,0.097862,52,E3,33,2
36720,31.77632,119,0.097862,48,C3,33,2
36840,31.875004,119,0.097862,57,A3,33,2
36960,31.973689,119,0.097861,52,E3,33,2
36960,31.973689,119,0.097861,48,C3,33,2
37080,32.072373,119,0.097862,57,A3,33,2
37200,32.171057,119,0.097862,72,C5,33,1
37200,32.171057,119,0.097862,52,E3,33,2
37200,32.171057,119,0.097862,48,C3,33,2
37320,32.269741,119,0.097862,71,B4,33,1
37320,32.269741,119,0.097862,57,A3,33,2
37440,32.368426,119,0.097861,69,A4,33,1
37440,32.368426,119,0.097861,52,E3,33,2
37440,32.368426,119,0.097861,48,C3,33,2
37560,32.46711,119,0.097862,57,A3,33,2
37680,32.565794,119,0.097862,52,E3,33,2
37680,32.565794,119,0.097862,48,C3,33,2
37800,32.664478,119,0.097862,57,A3,33,2
37920,32.763163,119,0.097861,52,E3,33,2
37920,32.763163,119,0.097861,48,C3,33,2
38040,32.861847,119,0.097862,57,A3,33,2
38160,32.960531,119,0.097862,52,E3,33,2
38160,32.960531,119,0.097862,48,C3,33,2
38280,33.059215,119,0.097862,57,A3,33,2
38400,33.1579,119,0.097861,87,D6#,37,1
38400,33.1579,119,0.097861,52,E3,37,2
38400,33.1579,119,0.097861,48,C3,37,2
38520,33.256584,599,0.492599,88,E6,37,1
38520,33.256584,119,0.097862,57,A3,37,2
38640,33.355268,119,0.097862,52,E3,41,2
38640,33.355268,119,0.097862,48,C3,41,2
38760,33.453952,119,0.097862,57,A3,41,2
38880,33.552637,119,0.097861,52,E3,45,2
38880,33.552637,119,0.097861,48,C3,45,2
39000,33.651321,119,0.097862,86,D6,45,1
39000,33.651321,119,0.097862,57,A3,45,2
39120,33.750005,119,0.097862,84,C6,49,1
39120,33.750005,119,0.097862,52,E3,49,2
39120,33.750005,119,0.097862,48,C3,49,2
39240,33.848689,119,0.097862,83,B5,49,1
39240,33.848689,119,0.097862,57,A3,49,2
39360,33.947374,239,0.196546,81,A5,53,1
39360,33.947374,119,0.097861,52,E3,53,2
39360,33.947374,119,0.097861,48,C3,53,2
39480,34.046058,119,0.097862,57,A3,53,2
39600,34.144742,119,0.097862,52,E3,57,2
39600,34.144742,119,0.097862,48,C3,57,2
39720,34.243426,119,0.097862,57,A3,57,2
39840,34.342111,119,0.097861,52,E3,61,2
39840,34.342111,119,0.097861,48,C3,61,2
39960,34.440795,119,0.097862,57,A3,61,2
40080,34.539479,119,0.097862,52,E3,65,2
40080,34.539479,119,0.097862,48,C3,65,2
40200,34.638163,119,0.097862,57,A3,65,2
40320,34.736848,119,0.097861,87,D6#,69,1
40320,34.736848,119,0.097861,52,E3,69,2
40320,34.736848,119,0.097861,48,C3,69,2
40440,34.835532,599,0.492599,88,E6,69,1
40440,34.835532,119,0.097862,58,A3#,69,2
40560,34.934216,119,0.097862,52,E3,73,2
40560,34.934216,119,0.097862,48,C3,73,2
40680,35.0329,119,0.097862,58,A3#,73,2
40800,35.131585,119,0.097861,52,E3,77,2
40800,35.131585,119,0.097861,48,C3,77,2
40920,35.230269,119,0.097862,86,D6,77,1
40920,35.230269,119,0.097862,58,A3#,77,2
41040,35.328953,119,0.097862,84,C6,81,1
41040,35.328953,119,0.097862,52,E3,81,2
41040,35.328953,119,0.097862,48,C3,81,2
41160,35.427637,119,0.097862,83,B5,81,1
41160,35.427637,119,0.097862,58,A3#,81,2
41280,35.526322,239,0.196546,82,A5#,86,1
41280,35.526322,119,0.097861,52,E3,86,2
41280,35.526322,119,0.097861,48,C3,86,2
41400,35.625006,119,0.097862,58,A3#,86,2
41520,35.72369,119,0.097862,52,E3,90,2
41520,35.72369,119,0.097862,48,C3,90,2
41640,35.822374,119,0.097862,58,A3#,90,2
41760,35.921059,119,0.097861,52,E3,93,2
41760,35.921059,119,0.097861,48,C3,93,2
41880,36.019743,119,0.097862,58,A3#,93,2
42000,36.118427,119,0.097862,52,E3,96,2
42000,36.118427,119,0.097862,48,C3,96,2
42120,36.217111,119,0.097862,58,A3#,96,2
42240,36.315796,599,0.492598,83,B5,49,1
42240,36.315796,119,0.097861,47,B2,49,2
42360,36.41448,119,0.097862,51,D3#,49,2
42480,36.513164,119,0.097862,54,F3#,49,2
42600,36.611848,119,0.097862,59,B3,49,2
42720,36.710533,119,0.097861,47,B2,49,2
42840,36.809217,119,0.097862,81,A5,49,1
42840,36.809217,119,0.097862,51,D3#,49,2
42960,36.907901,119,0.097862,79,G5,49,1
42960,36.907901,119,0.097862,54,F3#,49,2
43080,37.006585,119,0.097862,78,F5#,49,1
43080,37.006585,119,0.097862,59,B3,49,2
43200,37.10527,119,0.097861,79,G5,49,1
43200,37.10527,119,0.097861,47,B2,49,2
43320,37.203954,119,0.097862,78,F5#,49,1
43320,37.203954,119,0.097862,52,E3,49,2
43440,37.302638,119,0.097862,76,E5,49,1
43440,37.302638,119,0.097862,55,G3,49,2
43560,37.401322,119,0.097862,75,D5#,49,1
43560,37.401322,119,0.097862,59,B3,49,2
43680,37.500007,119,0.097861,76,E5,49,1
43680,37.500007,119,0.097861,47,B2,49,2
43800,37.598691,119,0.097862,79,G5,49,1
43800,37.598691,119,0.097862,52,E3,49,2
43920,37.697375,119,0.097862,78,F5#,49,1
43920,37.697375,119,0.097862,55,G3,49,2
44040,37.796059,119,0.097862,76,E5,49,1
44040,37.796059,119,0.097862,59,B3,49,2
44160,37.894744,119,0.097861,75,D5#,49,1
44160,37.894744,119,0.097861,47,B2,49,2
44280,37.993428,119,0.097862,73,C5#,49,1
44280,37.993428,119,0.097862,54,F3#,49,2
44400,38.092112,119,0.097862,71,B4,49,1
44400,38.092112,119,0.097862,57,A3,49,2
44520,38.190796,119,0.097862,70,A4#,49,1
44520,38.190796,119,0.097862,59,B3,49,2
44640,38.289481,119,0.097861,71,B4,49,1
44640,38.289481,119,0.097861,47,B2,49,2
44760,38.388165,119,0.097862,73,C5#,49,1
44760,38.388165,119,0.097862,54,F3#,49,2
44880,38.486849,119,0.097862,74,D5,49,1
44880,38.486849,119,0.097862,57,A3,49,2
45000,38.585533,119,0.097862,75,D5#,49,1
45000,38.585533,119,0.097862,59,B3,49,2
45120,38.684218,119,0.097861,76,E5,49,1
45120,38.684218,119,0.097861,47,B2,49,2
45240,38.782902,119,0.097862,75,D5#,49,1
45240,38.782902,119,0.097862,52,E3,49,2
45360,38.881586,119,0.097862,76,E5,49,1
45360,38.881586,119,0.097862,55,G3,49,2
45480,38.98027,119,0.097862,78,F5#,49,1
45480,38.98027,119,0.097862,59,B3,49,2
45600,39.078955,119,0.097861,79,G5,49,1
45600,39.078955,119,0.097861,47,B2,49,2
45720,39.177639,119,0.097862,80,G5#,49,1
45720,39.177639,119,0.097862,52,E3,49,2
45840,39.276323,119,0.097862,81,A5,49,1
45840,39.276323,119,0.097862,55,G3,49,2
45960,39.375007,119,0.097862,82,A5#,49,1
45960,39.375007,119,0.097862,59,B3,49,2
46080,39.473692,119,0.097861,83,B5,49,1
46080,39.473692,119,0.097861,47,B2,49,2
46200,39.572376,119,0.097862,82,A5#,49,1
46200,39.572376,119,0.097862,51,D3#,49,2
46320,39.67106,119,0.097862,83,B5,49,1
46320,39.67106,119,0.097862,54,F3#,49,2
46440,39.769744,119,0.097862,82,A5#,49,1
46440,39.769744,119,0.097862,59,B3,49,2
46560,39.868429,119,0.097861,83,B5,49,1
46560,39.868429,119,0.097861,47,B2,49,2
46680,39.967113,119,0.097862,81,A5,49,1
46680,39.967113,119,0.097862,51,D3#,49,2
46800,40.065797,119,0.097862,79,G5,49,1
46800,40.065797,119,0.097862,54,F3#,49,2
46920,40.164481,119,0.097862,78,F5#,49,1
46920,40.164481,119,0.097862,59,B3,49,2
47040,40.263166,119,0.097861,79,G5,49,1
47040,40.263166,119,0.097861,47,B2,49,2
47160,40.36185,119,0.097862,78,F5#,49,1
47160,40.36185,119,0.097862,52,E3,49,2
47280,40.460534,119,0.097862,76,E5,49,1
47280,40.460534,119,0.097862,55,G3,49,2
47400,40.559218,119,0.097862,75,D5#,49,1
47400,40.559218,119,0.097862,59,B3,49,2
47520,40.657903,119,0.097861,76,E5,49,1
47520,40.657903,119,0.097861,47,B2,49,2
47640,40.756587,119,0.097862,79,G5,49,1
47640,40.756587,119,0.097862,52,E3,49,2
47760,40.855271,119,0.097862,78,F5#,49,1
47760,40.855271,119,0.097862,55,G3,49,2
47880,40.953955,119,0.097862,76,E5,49,1
47880,40.953955,119,0.097862,59,B3,49,2
48000,41.05264,119,0.097861,75,D5#,49,1
48000,41.05264,119,0.097861,47,B2,49,2
48120,41.151324,119,0.097862,73,C5#,49,1
48120,41.151324,119,0.097862,54,F3#,49,2
48240,41.250008,119,0.097862,71,B4,49,1
48240,41.250008,119,0.097862,57,A3,49,2
48360,41.348692,119,0.097862,70,A4#,49,1
48360,41.348692,119,0.097862,59,B3,49,2
48480,41.447377,119,0.097861,71,B4,49,1
48480,41.447377,119,0.097861,47,B2,49,2
48600,41.546061,119,0.097862,73,C5#,49,1
48600,41.546061,119,0.097862,54,F3#,49,2
48720,41.644745,119,0.097862,74,D5,49,1
48720,41.644745,119,0.097862,57,A3,49,2
48840,41.743429,119,0.097862,75,D5#,49,1
48840,41.743429,119,0.097862,59,B3,49,2
48960,41.842114,119,0.097861,76,E5,49,1
48960,41.842114,119,0.097861,47,B2,49,2
49080,41.940798,119,0.097862,75,D5#,49,1
49080,41.940798,119,0.097862,52,E3,49,2
49200,42.039482,119,0.097862,76,E5,49,1
49200,42.039482,119,0.097862,55,G3,49,2
49320,42.138166,119,0.097862,78,F5#,49,1
49320,42.138166,119,0.097862,59,B3,49,2
49440,42.236851,119,0.097861,79,G5,49,1
49440,42.236851,119,0.097861,47,B2,49,2
49560,42.335535,119,0.097862,80,G5#,49,1
49560,42.335535,119,0.097862,52,E3,49,2
49680,42.434219,119,0.097862,81,A5,49,1
49680,42.434219,119,0.097862,55,G3,49,2
49800,42.532903,119,0.097862,82,A5#,49,1
49800,42.532903,119,0.097862,59,B3,49,2
49920,42.631588,119,0.097861,83,B5,56,1
49920,42.631588,119,0.097861,47,B2,56,2
50040,42.730272,119,0.097862,78,F5#,56,1
50040,42.730272,119,0.097862,51,D3#,56,2
50160,42.828956,119,0.097862,75,D5#,61,1
50160,42.828956,119,0.097862,54,F3#,61,2
50280,42.92764,119,0.097862,71,B4,61,1
50280,42.92764,119,0.097862,59,B3,61,2
50400,43.026325,119,0.097861,70,A4#,66,1
50400,43.026325,119,0.097861,58,A3#,66,2
50520,43.125009,119,0.097862,71,B4,66,1
50520,43.125009,119,0.097862,59,B3,66,2
50640,43.223693,119,0.097862,76,E5,71,1
50640,43.223693,119,0.097862,55,G3,71,2
50760,43.322377,119,0.097862,79,G5,71,1
50760,43.322377,119,0.097862,52,E3,71,2
50880,43.421062,119,0.097861,83,B5,76,1
50880,43.421062,119,0.097861,47,B2,76,2
51000,43.519746,119,0.097862,78,F5#,76,1
51000,43.519746,119,0.097862,51,D3#,76,2
51120,43.61843,119,0.097862,75,D5#,81,1
51120,43.61843,119,0.097862,54,F3#,81,2
51240,43.717114,119,0.097862,71,B4,81,1
51240,43.717114,119,0.097862,59,B3,81,2
51360,43.815799,119,0.097861,70,A4#,86,1
51360,43.815799,119,0.097861,58,A3#,86,2
51480,43.914483,119,0.097862,71,B4,86,1
51480,43.914483,119,0.097862,59,B3,86,2
51600,44.013167,119,0.097862,76,E5,91,1
51600,44.013167,119,0.097862,55,G3,91,2
51720,44.111851,119,0.097862,79,G5,91,1
51720,44.111851,119,0.097862,52,E3,91,2
51840,44.210536,119,0.097861,83,B5,96,1
51840,44.210536,119,0.097861,47,B2,96,2
51960,44.30922,119,0.097862,78,F5#,96,1
51960,44.30922,119,0.097862,51,D3#,96,2
52080,44.407904,119,0.097862,75,D5#,96,1
52080,44.407904,119,0.097862,54,F3#,96,2
52200,44.506588,119,0.097862,71,B4,96,1
52200,44.506588,119,0.097862,59,B3,96,2
52320,44.605273,119,0.097861,83,B5,105,1
52320,44.605273,119,0.097861,47,B2,105,2
52440,44.703957,119,0.097862,79,G5,96,1
52440,44.703957,119,0.097862,52,E3,96,2
52560,44.802641,119,0.097862,76,E5,96,1
52560,44.802641,119,0.097862,55,G3,96,2
52680,44.901325,119,0.097862,71,B4,96,1
52680,44.901325,119,0.097862,59,B3,96,2
52800,45.00001,119,0.097861,83,B5,105,1
52800,45.00001,119,0.097861,47,B2,105,2
52920,45.098694,119,0.097862,78,F5#,96,1
52920,45.098694,119,0.097862,51,D3#,96,2
53040,45.197378,119,0.097862,75,D5#,96,1
53040,45.197378,119,0.097862,54,F3#,96,2
53160,45.296062,119,0.097862,71,B4,96,1
53160,45.296062,119,0.097862,59,B3,96,2
53280,45.394747,119,0.097861,83,B5,105,1
53280,45.394747,119,0.097861,47,B2,105,2
53400,45.493431,119,0.097862,79,G5,96,1
53400,45.493431,119,0.097862,52,E3,96,2
53520,45.592115,119,0.097862,76,E5,96,1
53520,45.592115,119,0.097862,55,G3,96,2
53640,45.690799,119,0.097862,71,B4,96,1
53640,45.690799,119,0.097862,59,B3,96,2
53760,45.789484,119,0.097861,83,B5,96,1
53760,45.789484,479,0.393914,59,B3,96,2
53760,45.789484,479,0.393914,54,F3#,96,2
53760,45.789484,479,0.393914,51,D3#,96,2
53760,45.789484,479,0.393914,47,B2,96,2
53880,45.888168,119,0.097862,78,F5#,96,1
54000,45.986852,119,0.097862,75,D5#,96,1
54120,46.085536,119,0.097862,71,B4,96,1
54240,46.184221,119,0.097861,78,F5#,96,1
54360,46.282905,119,0.097862,75,D5#,96,1
54480,46.381589,119,0.097862,71,B4,96,1
54600,46.480273,119,0.097862,66,F4#,96,1
54720,46.578958,119,0.097861,75,D5#,96,1
54840,46.677642,119,0.097862,71,B4,96,1
54960,46.776326,119,0.097862,66,F4#,96,1
55080,46.87501,119,0.097862,63,D4#,96,1
55200,46.973695,119,0.097861,71,B4,96,1
55320,47.072379,119,0.097862,66,F4#,96,1
55440,47.171063,119,0.097862,63,D4#,96,1
55560,47.269747,119,0.097862,59,B3,96,1
55680,47.368432,119,0.097861,66,F4#,96,1
55800,47.467116,119,0.097862,63,D4#,96,1
55920,47.5658,119,0.097862,59,B3,96,1
56040,47.664484,119,0.097862,54,F3#,96,1
56160,47.763169,119,0.097861,63,D4#,96,1
56280,47.861853,119,0.097862,59,B3,96,1
56400,47.960537,119,0.097862,54,F3#,96,1
56520,48.059221,119,0.097862,51,D3#,96,1
56640,48.157906,119,0.097861,59,B3,96,1
56760,48.25659,119,0.097862,54,F3#,96,1
56880,48.355274,119,0.097862,51,D3#,96,1
57000,48.453958,119,0.097862,47,B2,96,1
57120,48.552643,119,0.097861,35,B1,96,2
57240,48.651327,119,0.097862,39,D2#,96,2
57360,48.750011,119,0.097862,42,F2#,96,2
57480,48.848695,119,0.097862,47,B2,96,2
57600,48.94738,119,0.097861,35,B1,94,2
57840,49.144748,119,0.097862,47,B2,92,2
58080,49.342117,119,0.097861,37,C2#,90,2
58320,49.539485,119,0.097862,49,C3#,89,2
58560,49.736854,119,0.097861,71,B4,87,1
58560,49.736854,119,0.097861,39,D2#,87,2
58800,49.934222,119,0.097862,59,B3,85,1
58800,49.934222,119,0.097862,51,D3#,85,2
59040,50.131591,119,0.097861,73,C5#,83,1
59280,50.328959,119,0.097862,61,C4#,81,1
59520,50.526328,119,0.097861,75,D5#,78,1
59520,50.526328,119,0.097861,39,D2#,78,2
59760,50.723696,119,0.097862,63,D4#,75,1
59760,50.723696,119,0.097862,51,D3#,75,2
60000,50.921065,119,0.097861,40,E2,72,2
60240,51.118433,119,0.097862,52,E3,69,2
60480,51.315802,119,0.097861,75,D5#,66,1
60480,51.315802,119,0.097861,42,F2#,66,2
60720,51.51317,119,0.097862,63,D4#,60,1
60720,51.51317,119,0.097862,54,F3#,60,2
60960,51.710539,119,0.097861,76,E5,57,1
61200,51.907907,119,0.097862,64,E4,53,1
61440,52.105276,119,0.097861,78,F5#,49,1
61680,52.302644,119,0.097862,66,F4#,49,1
61920,52.500013,119,0.097861,80,G5#,49,1
62160,52.697381,119,0.097862,68,G4#,49,1
62400,52.89475,119,0.097861,81,A5,49,1
62400,52.89475,119,0.097861,42,F2#,49,2
62640,53.092118,119,0.097862,69,A4,49,1
62640,53.092118,119,0.097862,54,F3#,49,2
62880,53.289487,119,0.097861,81,A5,49,1
62880,53.289487,119,0.097861,44,G2#,49,2
63120,53.486855,119,0.097862,71,B4,49,1
63120,53.486855,119,0.097862,56,G3#,49,2
63360,53.684224,119,0.097861,81,A5,49,1
63360,53.684224,119,0.097861,45,A2,49,2
63600,53.881592,119,0.097862,73,C5#,49,1
63600,53.881592,119,0.097862,57,A3,49,2
63840,54.078961,119,0.097861,81,A5,49,1
63840,54.078961,119,0.097861,47,B2,49,2
64080,54.276329,119,0.097862,75,D5#,49,1
64080,54.276329,119,0.097862,59,B3,49,2
64320,54.473698,119,0.097861,81,A5,49,1
64320,54.473698,119,0.097861,49,C3#,49,2
64560,54.671066,119,0.097862,76,E5,49,1
64560,54.671066,119,0.097862,61,C4#,49,2
64800,54.868435,119,0.097861,81,A5,49,1
64800,54.868435,119,0.097861,51,D3#,49,2
65040,55.065803,119,0.097862,78,F5#,49,1
65040,55.065803,119,0.097862,63,D4#,49,2
65280,55.263172,959,0.788651,76,E5,49,1
65280,55.263172,959,0.788651,71,B4,49,1
65280,55.263172,959,0.788651,80,G5#,49,1
65280,55.263172,959,0.788651,68,G4#,49,2
65280,55.263172,959,0.788651,64,E4,49,2
66240,56.052646,479,0.393914,75,D5#,49,1
66240,56.052646,479,0.393914,69,A4,49,1
66240,56.052646,479,0.393914,78,F5#,49,1
66240,56.052646,479,0.393914,66,F4#,49,2
66240,56.052646,479,0.393914,63,D4#,49,2
66240,56.052646,479,0.393914,59,B3,49,2
66720,56.447383,479,0.393914,73,C5#,49,1
66720,56.447383,479,0.393914,68,G4#,49,1
66720,56.447383,479,0.393914,76,E5,49,1
66720,56.447383,479,0.393914,64,E4,49,2
66720,56.447383,479,0.393914,61,C4#,49,2
67200,56.84212,959,0.788651,66,F4#,49,1
67200,56.84212,959,0.788651,75,D5#,49,1
67200,56.84212,959,0.788651,72,C5,49,1
67200,56.84212,959,0.788651,63,D4#,49,2
67200,56.84212,959,0.788651,60,C4,49,2
67200,56.84212,959,0.788651,56,G3#,49,2
68160,57.631594,959,0.788651,64,E4,49,1
68160,57.631594,959,0.788651,73,C5#,49,1
68160,57.631594,959,0.788651,61,C4#,49,2
68160,57.631594,959,0.788651,57,A3,49,2
69120,58.421068,959,0.788651,71,B4,52,1
69120,58.421068,959,0.788651,69,A4,52,1
69120,58.421068,959,0.788651,75,D5#,52,1
69120,58.421068,959,0.788651,63,D4#,52,2
69120,58.421068,959,0.788651,59,B3,52,2
69120,58.421068,959,0.788651,57,A3,52,2
69120,58.421068,959,0.788651,54,F3#,52,2
70080,59.210542,479,0.393914,71,B4,57,1
70080,59.210542,479,0.393914,76,E5,57,1
70080,59.210542,479,0.393914,64,E4,57,2
70080,59.210542,479,0.393914,59,B3,57,2
70080,59.210542,479,0.393914,56,G3#,57,2
70560,59.605279,479,0.393914,76,E5,60,1
70560,59.605279,479,0.393914,73,C5#,60,1
70560,59.605279,479,0.393914,78,F5#,60,1
70560,59.605279,479,0.393914,66,F4#,60,2
70560,59.605279,479,0.393914,61,C4#,60,2
70560,59.605279,479,0.393914,57,A3,60,2
71040,60.000016,1439,1.183388,71,B4,64,1
71040,60.000016,959,0.788651,80,G5#,64,1
71040,60.000016,959,0.788651,76,E5,64,1
71040,60.000016,1919,1.578125,59,B3,64,2
71040,60.000016,959,0.788651,68,G4#,64,2
71040,60.000016,959,0.788651,64,E4,64,2
72000,60.78949,959,0.788651,78,F5#,56,1
72000,60.78949,959,0.788651,75,D5#,56,1
72000,60.78949,959,0.788651,66,F4#,56,2
72000,60.78949,959,0.788651,63,D4#,56,2
72480,61.184227,479,0.393914,69,A4,56,1
72960,61.578964,959,0.788651,68,G4#,49,1
72960,61.578964,959,0.788651,64,E4,49,1
72960,61.578964,959,0.788651,59,B3,49,1
72960,61.578964,959,0.788651,56,G3#,49,2
72960,61.578964,959,0.788651,52,E3,49,2
73920,62.368438,479,0.393914,66,F4#,49,1
73920,62.368438,479,0.393914,63,D4#,49,1
73920,62.368438,479,0.393914,57,A3,49,1
73920,62.368438,479,0.393914,54,F3#,49,2
73920,62.368438,479,0.393914,51,D3#,49,2
73920,62.368438,479,0.393914,47,B2,49,2
74400,62.763175,479,0.393914,64,E4,49,1
74400,62.763175,479,0.393914,61,C4#,49,1
74400,62.763175,479,0.393914,56,G3#,49,1
74400,62.763175,479,0.393914,52,E3,49,2
74400,62.763175,479,0.393914,49,C3#,49,2
74880,63.157912,959,0.788651,63,D4#,49,1
74880,63.157912,959,0.788651,60,C4,49,1
74880,63.157912,959,0.788651,54,F3#,49,1
74880,63.157912,959,0.788651,51,D3#,49,2
74880,63.157912,959,0.788651,48,C3,49,2
74880,63.157912,959,0.788651,44,G2#,49,2
75840,63.947386,959,0.788651,61,C4#,49,1
75840,63.947386,959,0.788651,57,A3,49,1
75840,63.947386,959,0.788651,52,E3,49,1
75840,63.947386,959,0.788651,49,C3#,49,2
75840,63.947386,959,0.788651,45,A2,49,2
76800,64.73686,959,0.788651,59,B3,49,1
76800,64.73686,1919,1.578125,47,B2,49,2
76800,64.73686,1919,1.578125,35,B1,49,2
76800,64.73686,479,0.393914,56,G3#,49,2
76800,64.73686,479,0.393914,52,E3,49,2
77280,65.131597,1439,1.183388,57,A3,53,2
77280,65.131597,1439,1.183388,54,F3#,53,2
77760,65.526334,479,0.393914,61,C4#,57,1
78240,65.921071,479,0.393914,63,D4#,61,1
78720,66.315808,159,0.130756,64,E4,49,1
78720,66.315808,159,0.130756,56,G3#,49,1
78720,66.315808,479,0.393914,52,E3,49,2
78720,66.315808,479,0.393914,40,E2,49,2
78880,66.447387,159,0.130756,66,F4#,49,1
79040,66.578966,159,0.130756,68,G4#,49,1
79200,66.710545,159,0.130756,69,A4,49,1
79360,66.842124,159,0.130756,71,B4,49,1
79520,66.973703,159,0.130756,73,C5#,49,1
79680,67.105282,159,0.130756,74,D5,49,1
79840,67.236861,159,0.130756,75,D5#,49,1
80000,67.36844,159,0.130756,76,E5,49,1
80160,67.500019,159,0.130756,77,F5,49,1
80320,67.631598,159,0.130756,78,F5#,49,1
80480,67.763177,159,0.130756,79,G5,49,1
80640,67.894756,959,0.788651,71,B4,49,1
80640,67.894756,159,0.130756,80,G5#,49,1
80640,67.894756,959,0.788651,68,G4#,49,2
80640,67.894756,959,0.788651,64,E4,49,2
80800,68.026335,159,0.130756,79,G5,49,1
80960,68.157914,159,0.130756,80,G5#,49,1
81120,68.289493,159,0.130756,81,A5,49,1
81280,68.421072,159,0.130756,79,G5,49,1
81440,68.552651,159,0.130756,80,G5#,49,1
81600,68.68423,479,0.393914,69,A4,49,1
81600,68.68423,479,0.393914,66,F4#,49,2
81600,68.68423,479,0.393914,63,D4#,49,2
81600,68.68423,479,0.393914,59,B3,49,2
81760,68.815809,159,0.130756,80,G5#,49,1
81920,68.947388,159,0.130756,78,F5#,49,1
82080,69.078967,479,0.393914,68,G4#,49,1
82080,69.078967,479,0.393914,64,E4,49,2
82080,69.078967,479,0.393914,61,C4#,49,2
82240,69.210546,159,0.130756,78,F5#,49,1
82400,69.342125,159,0.130756,76,E5,49,1
82560,69.473704,159,0.130756,66,F4#,49,1
82560,69.473704,159,0.130756,66,F4#,49,1
82560,69.473704,959,0.788651,63,D4#,49,2
82560,69.473704,959,0.788651,60,C4,49,2
82560,69.473704,959,0.788651,56,G3#,49,2
82720,69.605283,159,0.130756,72,C5,49,1
82880,69.736862,159,0.130756,75,D5#,49,1
83040,69.868441,159,0.130756,76,E5,49,1
83200,70.00002,159,0.130756,72,C5,49,1
83360,70.131599,159,0.130756,75,D5#,49,1
83520,70.263178,159,0.130756,64,E4,49,1
83520,70.263178,159,0.130756,64,E4,49,1
83520,70.263178,959,0.788651,61,C4#,49,2
83520,70.263178,959,0.788651,57,A3,49,2
83680,70.394757,159,0.130756,69,A4,49,1
83840,70.526336,159,0.130756,73,C5#,49,1
84000,70.657915,159,0.130756,75,D5#,49,1
84160,70.789494,159,0.130756,69,A4,49,1
84320,70.921073,159,0.130756,73,C5#,49,1
84480,71.052652,159,0.130756,69,A4,52,1
84480,71.052652,159,0.130756,69,A4,52,1
84480,71.052652,959,0.788651,63,D4#,52,2
84480,71.052652,959,0.788651,59,B3,52,2
84480,71.052652,959,0.788651,57,A3,52,2
84480,71.052652,959,0.788651,54,F3#,52,2
84640,71.184231,159,0.130756,74,D5,52,1
84800,71.31581,159,0.130756,75,D5#,52,1
84960,71.447389,159,0.130756,76,E5,55,1
85120,71.578968,159,0.130756,74,D5,55,1
85280,71.710547,159,0.130756,75,D5#,55,1
85440,71.842126,479,0.393914,71,B4,58,1
85440,71.842126,479,0.393914,64,E4,58,2
85440,71.842126,479,0.393914,59,B3,58,2
85440,71.842126,479,0.393914,56,G3#,58,2
85600,71.973705,159,0.130756,78,F5#,58,1
85760,72.105284,159,0.130756,76,E5,58,1
85920,72.236863,479,0.393914,73,C5#,64,1
85920,72.236863,479,0.393914,66,F4#,64,2
85920,72.236863,479,0.393914,61,C4#,64,2
85920,72.236863,479,0.393914,57,A3,64,2
86080,72.368442,159,0.130756,80,G5#,64,1
86240,72.500021,159,0.130756,78,F5#,64,1
86400,72.6316,959,0.788651,76,E5,64,1
86400,72.6316,159,0.130756,80,G5#,64,1
86400,72.6316,1439,1.183388,59,B3,64,2
86400,72.6316,959,0.788651,68,G4#,64,2
86400,72.6316,959,0.788651,64,E4,64,2
86560,72.763179,159,0.130756,79,G5,64,1
86720,72.894758,159,0.130756,80,G5#,64,1
86880,73.026337,159,0.130756,83,B5,59,1
87040,73.157916,159,0.130756,81,A5,59,1
87200,73.289495,159,0.130756,80,G5#,59,1
87360,73.421074,159,0.130756,75,D5#,55,1
87360,73.421074,159,0.130756,78,F5#,55,1
87360,73.421074,479,0.393914,66,F4#,55,2
87360,73.421074,479,0.393914,63,D4#,55,2
87520,73.552653,159,0.130756,73,C5#,55,1
87520,73.552653,159,0.130756,76,E5,55,1
87680,73.684232,159,0.130756,71,B4,55,1
87680,73.684232,159,0.130756,75,D5#,55,1
87840,73.815811,159,0.130756,69,A4,49,1
87840,73.815811,159,0.130756,73,C5#,49,1
87840,73.815811,159,0.130756,47,B2,49,2
88000,73.94739,159,0.130756,68,G4#,49,1
88000,73.94739,159,0.130756,71,B4,49,1
88000,73.94739,159,0.130756,49,C3#,49,2
88160,74.078969,159,0.130756,66,F4#,49,1
88160,74.078969,159,0.130756,69,A4,49,1
88160,74.078969,159,0.130756,51,D3#,49,2
88320,74.210548,959,0.788651,59,B3,49,1
88320,74.210548,159,0.130756,68,G4#,49,1
88320,74.210548,959,0.788651,56,G3#,49,2
88320,74.210548,959,0.788651,52,E3,49,2
88480,74.342127,159,0.130756,67,G4,49,1
88640,74.473706,159,0.130756,68,G4#,49,1
88800,74.605285,159,0.130756,69,A4,49,1
88960,74.736864,159,0.130756,67,G4,49,1
89120,74.868443,159,0.130756,68,G4#,49,1
89280,75.000022,479,0.393914,57,A3,49,1
89280,75.000022,479,0.393914,54,F3#,49,2
89280,75.000022,479,0.393914,51,D3#,49,2
89280,75.000022,479,0.393914,47,B2,49,2
89440,75.131601,159,0.130756,68,G4#,49,1
89600,75.26318,159,0.130756,66,F4#,49,1
89760,75.394759,479,0.393914,56,G3#,49,1
89760,75.394759,479,0.393914,52,E3,49,2
89760,75.394759,479,0.393914,49,C3#,49,2
89920,75.526338,159,0.130756,66,F4#,49,1
90080,75.657917,159,0.130756,64,E4,49,1
90240,75.789496,159,0.130756,54,F3#,49,1
90240,75.789496,159,0.130756,54,F3#,49,1
90240,75.789496,959,0.788651,51,D3#,49,2
90240,75.789496,959,0.788651,48,C3,49,2
90240,75.789496,959,0.788651,44,G2#,49,2
90400,75.921075,159,0.130756,60,C4,49,1
90560,76.052654,159,0.130756,63,D4#,49,1
90720,76.184233,159,0.130756,64,E4,49,1
90880,76.315812,159,0.130756,60,C4,49,1
91040,76.447391,159,0.130756,63,D4#,49,1
91200,76.57897,159,0.130756,52,E3,49,1
91200,76.57897,159,0.130756,52,E3,49,1
91200,76.57897,959,0.788651,49,C3#,49,2
91200,76.57897,959,0.788651,45,A2,49,2
91360,76.710549,159,0.130756,57,A3,49,1
91520,76.842128,159,0.130756,61,C4#,49,1
91680,76.973707,159,0.130756,63,D4#,49,1
91840,77.105286,159,0.130756,57,A3,49,1
92000,77.236865,159,0.130756,61,C4#,49,1
92160,77.368444,479,0.393914,52,E3,55,1
92160,77.368444,1919,1.578125,47,B2,55,2
92160,77.368444,1919,1.578125,35,B1,55,2
92320,77.500023,159,0.130756,56,G3#,55,1
92480,77.631602,159,0.130756,59,B3,55,1
92640,77.763181,479,0.393914,54,F3#,55,1
92800,77.89476,159,0.130756,57,A3,55,1
92960,78.026339,159,0.130756,59,B3,55,1
93120,78.157918,479,0.393914,54,F3#,55,1
93280,78.289497,159,0.130756,57,A3,55,1
93440,78.421076,159,0.130756,61,C4#,55,1
93600,78.552655,479,0.393914,54,F3#,55,1
93760,78.684234,159,0.130756,57,A3,55,1
93920,78.815813,159,0.130756,63,D4#,55,1
94080,78.947392,159,0.130756,64,E4,61,1
94080,78.947392,159,0.130756,56,G3#,61,1
94080,78.947392,479,0.393914,52,E3,61,2
94080,78.947392,479,0.393914,40,E2,61,2
94240,79.078971,159,0.130756,59,B3,61,1
94400,79.21055,159,0.130756,56,G3#,61,1
94560,79.342129,159,0.130756,59,B3,61,1
94560,79.342129,959,0.788651,47,B2,61,2
94720,79.473708,159,0.130756,64,E4,61,1
94880,79.605287,159,0.130756,68,G4#,61,1
95040,79.736866,159,0.130756,66,F4#,61,1
95200,79.868445,159,0.130756,63,D4#,61,1
95360,80.000024,159,0.130756,59,B3,61,1
95520,80.131603,159,0.130756,63,D4#,61,1
95520,80.131603,959,0.788651,47,B2,61,2
95680,80.263182,159,0.130756,66,F4#,61,1
95840,80.394761,159,0.130756,69,A4,61,1
96000,80.52634,159,0.130756,68,G4#,67,1
96160,80.657919,159,0.130756,64,E4,67,1
96320,80.789498,159,0.130756,59,B3,67,1
96480,80.921077,159,0.130756,64,E4,67,1
96480,80.921077,959,0.788651,47,B2,67,2
96640,81.052656,159,0.130756,68,G4#,67,1
96800,81.184235,159,0.130756,71,B4,67,1
96960,81.315814,159,0.130756,69,A4,67,1
97120,81.447393,159,0.130756,66,F4#,67,1
97280,81.578972,159,0.130756,63,D4#,67,1
97440,81.710551,159,0.130756,75,D5#,67,1
97440,81.710551,479,0.393914,47,B2,67,2
97600,81.84213,159,0.130756,69,A4,67,1
97760,81.973709,159,0.130756,66,F4#,67,1
97920,82.105288,479,0.393914,76,E5,73,1
97920,82.105288,479,0.393914,68,G4#,73,1
97920,82.105288,159,0.130756,52,E3,73,2
98080,82.236867,159,0.130756,47,B2,73,2
98240,82.368446,159,0.130756,44,G2#,73,2
98400,82.500025,959,0.788651,71,B4,73,1
98400,82.500025,159,0.130756,47,B2,73,2
98560,82.631604,159,0.130756,52,E3,73,2
98720,82.763183,159,0.130756,56,G3#,73,2
98880,82.894762,159,0.130756,54,F3#,73,2
99040,83.026341,159,0.130756,51,D3#,73,2
99200,83.15792,159,0.130756,47,B2,73,2
99360,83.289499,959,0.788651,71,B4,73,1
99360,83.289499,159,0.130756,51,D3#,73,2
99520,83.421078,159,0.130756,54,F3#,73,2
99680,83.552657,159,0.130756,57,A3,73,2
99840,83.684236,159,0.130756,56,G3#,79,2
100000,83.815815,159,0.130756,52,E3,79,2
100160,83.947394,159,0.130756,47,B2,79,2
100320,84.078973,959,0.788651,71,B4,79,1
100320,84.078973,159,0.130756,52,E3,79,2
100480,84.210552,159,0.130756,56,G3#,79,2
100640,84.342131,159,0.130756,59,B3,79,2
100800,84.47371,159,0.130756,57,A3,79,2
100960,84.605289,159,0.130756,54,F3#,79,2
101120,84.736868,159,0.130756,51,D3#,79,2
101280,84.868447,479,0.393914,71,B4,79,1
101280,84.868447,159,0.130756,63,D4#,79,2
101440,85.000026,159,0.130756,57,A3,79,2
101600,85.131605,159,0.130756,54,F3#,79,2
101760,85.263184,159,0.130756,76,E5,87,1
101760,85.263184,159,0.130756,56,G3#,87,2
101920,85.394763,159,0.130756,71,B4,87,1
101920,85.394763,159,0.130756,59,B3,87,2
102080,85.526342,159,0.130756,68,G4#,87,1
102080,85.526342,159,0.130756,64,E4,87,2
102240,85.657921,159,0.130756,71,B4,87,1
102240,85.657921,159,0.130756,59,B3,87,2
102400,85.7895,159,0.130756,76,E5,87,1
102400,85.7895,159,0.130756,56,G3#,87,2
102560,85.921079,159,0.130756,80,G5#,87,1
102560,85.921079,159,0.130756,52,E3,87,2
102720,86.052658,159,0.130756,78,F5#,87,1
102720,86.052658,159,0.130756,51,D3#,87,2
102880,86.184237,159,0.130756,75,D5#,87,1
102880,86.184237,159,0.130756,54,F3#,87,2
103040,86.315816,159,0.130756,71,B4,87,1
103040,86.315816,159,0.130756,57,A3,87,2
103200,86.447395,159,0.130756,75,D5#,87,1
103200,86.447395,159,0.130756,54,F3#,87,2
103360,86.578974,159,0.130756,78,F5#,87,1
103360,86.578974,159,0.130756,51,D3#,87,2
103520,86.710553,159,0.130756,81,A5,87,1
103520,86.710553,159,0.130756,47,B2,87,2
103680,86.842132,159,0.130756,80,G5#,96,1
103680,86.842132,159,0.130756,52,E3,96,2
103840,86.973711,159,0.130756,76,E5,96,1
103840,86.973711,159,0.130756,56,G3#,96,2
104000,87.10529,159,0.130756,71,B4,96,1
104000,87.10529,159,0.130756,59,B3,96,2
104160,87.236869,159,0.130756,76,E5,96,1
104160,87.236869,159,0.130756,56,G3#,96,2
104320,87.368448,159,0.130756,80,G5#,96,1
104320,87.368448,159,0.130756,52,E3,96,2
104480,87.500027,159,0.130756,83,B5,96,1
104480,87.500027,159,0.130756,47,B2,96,2
104640,87.631606,159,0.130756,81,A5,96,1
104640,87.631606,159,0.130756,54,F3#,96,2
104800,87.763185,159,0.130756,78,F5#,96,1
104800,87.763185,159,0.130756,57,A3,96,2
104960,87.894764,159,0.130756,75,D5#,96,1
104960,87.894764,159,0.130756,59,B3,96,2
105120,88.026343,159,0.130756,87,D6#,96,1
105120,88.026343,159,0.130756,57,A3,96,2
105280,88.157922,159,0.130756,83,B5,96,1
105280,88.157922,159,0.130756,59,B3,96,2
105440,88.289501,159,0.130756,78,F5#,96,1
105440,88.289501,159,0.130756,66,F4#,96,2
105600,88.42108,159,0.130756,88,E6,87,1
105600,88.42108,159,0.130756,56,G3#,87,2
105760,88.552659,159,0.130756,83,B5,87,1
105760,88.552659,159,0.130756,59,B3,87,2
105920,88.684238,159,0.130756,80,G5#,87,1
105920,88.684238,159,0.130756,64,E4,87,2
106080,88.815817,159,0.130756,83,B5,87,1
106080,88.815817,159,0.130756,52,E3,87,2
106240,88.947396,159,0.130756,80,G5#,87,1
106240,88.947396,159,0.130756,56,G3#,87,2
106400,89.078975,159,0.130756,76,E5,87,1
106400,89.078975,159,0.130756,59,B3,87,2
106560,89.210554,159,0.130756,81,A5,78,1
106560,89.210554,159,0.130756,54,F3#,78,2
106720,89.342133,159,0.130756,78,F5#,78,1
106720,89.342133,159,0.130756,57,A3,78,2
106880,89.473712,159,0.130756,75,D5#,78,1
106880,89.473712,159,0.130756,59,B3,78,2
107040,89.605291,159,0.130756,87,D6#,78,1
107040,89.605291,159,0.130756,57,A3,78,2
107200,89.73687,159,0.130756,83,B5,78,1
107200,89.73687,159,0.130756,59,B3,78,2
107360,89.868449,159,0.130756,78,F5#,78,1
107360,89.868449,159,0.130756,66,F4#,78,2
107520,90.000028,159,0.130756,88,E6,76,1
107520,90.000028,159,0.130756,56,G3#,76,2
107680,90.131607,159,0.130756,83,B5,76,1
107680,90.131607,159,0.130756,59,B3,76,2
107840,90.263186,159,0.130756,80,G5#,76,1
107840,90.263186,159,0.130756,64,E4,76,2
108000,90.394765,159,0.130756,83,B5,76,1
108000,90.394765,159,0.130756,52,E3,76,2
108160,90.526344,159,0.130756,80,G5#,76,1
108160,90.526344,159,0.130756,56,G3#,76,2
108320,90.657923,159,0.130756,76,E5,76,1
108320,90.657923,159,0.130756,59,B3,76,2
108480,90.789502,159,0.130756,81,A5,67,1
108480,90.789502,159,0.130756,54,F3#,67,2
108640,90.921081,159,0.130756,78,F5#,67,1
108640,90.921081,159,0.130756,57,A3,67,2
108800,91.05266,159,0.130756,75,D5#,67,1
108800,91.05266,159,0.130756,59,B3,67,2
108960,91.184239,159,0.130756,87,D6#,58,1
108960,91.184239,159,0.130756,57,A3,58,2
109120,91.315818,159,0.130756,83,B5,58,1
109120,91.315818,159,0.130756,59,B3,58,2
109280,91.447397,159,0.130756,78,F5#,58,1
109280,91.447397,159,0.130756,66,F4#,58,2
109440,91.578976,119,0.097861,88,E6,49,1
109440,91.578976,119,0.097861,56,G3#,49,2
109560,91.67766,119,0.097862,83,B5,49,1
109560,91.67766,119,0.097862,59,B3,49,2
109680,91.776344,119,0.097862,80,G5#,49,1
109680,91.776344,119,0.097862,52,E3,49,2
109800,91.875028,119,0.097862,76,E5,49,1
109800,91.875028,119,0.097862,59,B3,49,2
109920,91.973713,119,0.097861,81,A5,55,1
109920,91.973713,119,0.097861,54,F3#,55,2
110040,92.072397,119,0.097862,78,F5#,55,1
110040,92.072397,119,0.097862,59,B3,55,2
110160,92.171081,119,0.097862,87,D6#,55,1
110160,92.171081,119,0.097862,57,A3,55,2
110280,92.269765,119,0.097862,83,B5,55,1
110280,92.269765,119,0.097862,59,B3,55,2
110400,92.36845,119,0.097861,88,E6,61,1
110400,92.36845,119,0.097861,56,G3#,61,2
110520,92.467134,119,0.097862,83,B5,61,1
110520,92.467134,119,0.097862,59,B3,61,2
110640,92.565818,119,0.097862,80,G5#,61,1
110640,92.565818,119,0.097862,52,E3,61,2
110760,92.664502,119,0.097862,76,E5,61,1
110760,92.664502,119,0.097862,59,B3,61,2
110880,92.763187,119,0.097861,81,A5,67,1
110880,92.763187,119,0.097861,54,F3#,67,2
111000,92.861871,119,0.097862,78,F5#,67,1
111000,92.861871,119,0.097862,59,B3,67,2
111120,92.960555,119,0.097862,87,D6#,67,1
111120,92.960555,119,0.097862,57,A3,67,2
111240,93.059239,119,0.097862,83,B5,67,1
111240,93.059239,119,0.097862,59,B3,67,2
111360,93.157924,119,0.097861,88,E6,73,1
111360,93.157924,119,0.097861,56,G3#,73,2
111480,93.256608,119,0.097862,83,B5,73,1
111480,93.256608,119,0.097862,59,B3,73,2
111600,93.355292,119,0.097862,87,D6#,73,1
111600,93.355292,119,0.097862,57,A3,73,2
111720,93.453976,119,0.097862,83,B5,73,1
111720,93.453976,119,0.097862,59,B3,73,2
111840,93.552661,119,0.097861,88,E6,79,1
111840,93.552661,119,0.097861,56,G3#,79,2
111960,93.651345,119,0.097862,83,B5,79,1
111960,93.651345,119,0.097862,59,B3,79,2
112080,93.750029,119,0.097862,87,D6#,79,1
112080,93.750029,119,0.097862,57,A3,79,2
112200,93.848713,119,0.097862,83,B5,79,1
112200,93.848713,119,0.097862,59,B3,79,2
112320,93.947398,119,0.097861,88,E6,85,1
112320,93.947398,119,0.097861,56,G3#,85,2
112440,94.046082,119,0.097862,83,B5,85,1
112440,94.046082,119,0.097862,59,B3,85,2
112560,94.144766,119,0.097862,87,D6#,85,1
112560,94.144766,119,0.097862,57,A3,85,2
112680,94.24345,119,0.097862,83,B5,85,1
112680,94.24345,119,0.097862,59,B3,85,2
112800,94.342135,119,0.097861,88,E6,90,1
112800,94.342135,119,0.097861,56,G3#,90,2
112920,94.440819,119,0.097862,83,B5,90,1
112920,94.440819,119,0.097862,59,B3,90,2
113040,94.539503,119,0.097862,87,D6#,90,1
113040,94.539503,119,0.097862,57,A3,90,2
113160,94.638187,119,0.097862,83,B5,90,1
113160,94.638187,119,0.097862,59,B3,90,2
113280,94.736872,119,0.097861,88,E6,96,1
113280,94.736872,119,0.097861,56,G3#,96,2
113400,94.835556,119,0.097862,83,B5,96,1
113400,94.835556,119,0.097862,59,B3,96,2
113520,94.93424,119,0.097862,86,D6,96,1
113520,94.93424,119,0.097862,44,G2#,96,2
113640,95.032924,119,0.097862,83,B5,96,1
113640,95.032924,119,0.097862,52,E3,96,2
113760,95.131609,119,0.097861,86,D6,96,1
113760,95.131609,119,0.097861,44,G2#,96,2
113880,95.230293,119,0.097862,83,B5,96,1
113880,95.230293,119,0.097862,52,E3,96,2
114000,95.328977,119,0.097862,86,D6,96,1
114000,95.328977,119,0.097862,44,G2#,96,2
114120,95.427661,119,0.097862,83,B5,96,1
114120,95.427661,119,0.097862,52,E3,96,2
114240,95.526346,119,0.097861,86,D6,96,1
114240,95.526346,119,0.097861,44,G2#,96,2
114360,95.62503,119,0.097862,83,B5,96,1
114360,95.62503,119,0.097862,52,E3,96,2
114480,95.723714,119,0.097862,86,D6,96,1
114480,95.723714,119,0.097862,44,G2#,96,2
114600,95.822398,119,0.097862,83,B5,96,1
114600,95.822398,119,0.097862,52,E3,96,2
114720,95.921083,119,0.097861,86,D6,96,1
114720,95.921083,119,0.097861,44,G2#,96,2
114840,96.019767,119,0.097862,83,B5,96,1
114840,96.019767,119,0.097862,52,E3,96,2
114960,96.118451,119,0.097862,86,D6,96,1
114960,96.118451,119,0.097862,44,G2#,96,2
115080,96.217135,119,0.097862,83,B5,96,1
115080,96.217135,119,0.097862,52,E3,96,2
115200,96.31582,239,0.196546,86,D6,96,1
115200,96.31582,119,0.097861,44,G2#,96,2
115320,96.414504,119,0.097862,52,E3,96,2
115440,96.513188,119,0.097862,85,C6#,96,1
115440,96.513188,119,0.097862,44,G2#,96,2
115560,96.611872,119,0.097862,83,B5,96,1
115560,96.611872,119,0.097862,52,E3,96,2
115680,96.710557,119,0.097861,81,A5,96,1
115680,96.710557,119,0.097861,44,G2#,96,2
115800,96.809241,119,0.097862,80,G5#,96,1
115800,96.809241,119,0.097862,52,E3,96,2
115920,96.907925,119,0.097862,78,F5#,96,1
115920,96.907925,119,0.097862,44,G2#,96,2
116040,97.006609,119,0.097862,76,E5,96,1
116040,97.006609,119,0.097862,52,E3,96,2
116160,97.105294,119,0.097861,74,D5,96,1
116160,97.105294,119,0.097861,44,G2#,96,2
116280,97.203978,119,0.097862,73,C5#,96,1
116280,97.203978,119,0.097862,52,E3,96,2
116400,97.302662,119,0.097862,71,B4,96,1
116400,97.302662,119,0.097862,44,G2#,96,2
116520,97.401346,119,0.097862,69,A4,96,1
116520,97.401346,119,0.097862,52,E3,96,2
116640,97.500031,119,0.097861,68,G4#,96,1
116640,97.500031,119,0.097861,44,G2#,96,2
116760,97.598715,119,0.097862,66,F4#,96,1
116760,97.598715,119,0.097862,52,E3,96,2
116880,97.697399,119,0.097862,64,E4,96,1
116880,97.697399,119,0.097862,44,G2#,96,2
117000,97.796083,119,0.097862,62,D4,96,1
117000,97.796083,119,0.097862,52,E3,96,2
117120,97.894768,119,0.097861,61,C4#,112,1
117120,97.894768,239,0.196546,52,E3,112,2
117120,97.894768,239,0.196546,49,C3#,112,2
117120,97.894768,239,0.196546,45,A2,112,2
117240,97.993452,119,0.097862,63,D4#,112,1
117360,98.092136,119,0.097862,64,E4,112,1
117360,98.092136,239,0.196546,52,E3,112,2
117360,98.092136,239,0.196546,49,C3#,112,2
117360,98.092136,239,0.196546,45,A2,112,2
117480,98.19082,119,0.097862,63,D4#,112,1
117600,98.289505,119,0.097861,64,E4,112,1
117720,98.388189,119,0.097862,68,G4#,112,1
117840,98.486873,119,0.097862,69,A4,112,1
117840,98.486873,239,0.196546,52,E3,112,2
117840,98.486873,239,0.196546,49,C3#,112,2
117840,98.486873,239,0.196546,45,A2,112,2
117960,98.585557,119,0.097862,68,G4#,112,1
118080,98.684242,119,0.097861,69,A4,112,1
118080,98.684242,239,0.196546,52,E3,112,2
118080,98.684242,239,0.196546,49,C3#,112,2
118080,98.684242,239,0.196546,45,A2,112,2
118200,98.782926,119,0.097862,72,C5,112,1
118320,98.88161,119,0.097862,73,C5#,112,1
118320,98.88161,239,0.196546,52,E3,112,2
118320,98.88161,239,0.196546,49,C3#,112,2
118320,98.88161,239,0.196546,45,A2,112,2
118440,98.980294,119,0.097862,72,C5,112,1
118560,99.078979,119,0.097861,73,C5#,112,1
118680,99.177663,119,0.097862,75,D5#,112,1
118800,99.276347,119,0.097862,76,E5,112,1
118800,99.276347,239,0.196546,52,E3,112,2
118800,99.276347,239,0.196546,49,C3#,112,2
118800,99.276347,239,0.196546,45,A2,112,2
118920,99.375031,119,0.097862,75,D5#,112,1
119040,99.473716,119,0.097861,76,E5,112,1
119040,99.473716,239,0.196546,52,E3,112,2
119040,99.473716,239,0.196546,49,C3#,112,2
119040,99.473716,239,0.196546,45,A2,112,2
119160,99.5724,119,0.097862,80,G5#,112,1
119280,99.671084,119,0.097862,81,A5,112,1
119280,99.671084,239,0.196546,52,E3,112,2
119280,99.671084,239,0.196546,49,C3#,112,2
119280,99.671084,239,0.196546,45,A2,112,2
119400,99.769768,119,0.097862,80,G5#,112,1
119520,99.868453,119,0.097861,81,A5,112,1
119640,99.967137,119,0.097862,84,C6,112,1
119760,100.065821,119,0.097862,85,C6#,112,1
119760,100.065821,239,0.196546,52,E3,112,2
119760,100.065821,239,0.196546,49,C3#,112,2
119760,100.065821,239,0.196546,45,A2,112,2
119880,100.164505,119,0.097862,84,C6,112,1
120000,100.26319,119,0.097861,85,C6#,112,1
120000,100.26319,239,0.196546,52,E3,112,2
120000,100.26319,239,0.196546,49,C3#,112,2
120000,100.26319,239,0.196546,45,A2,112,2
120120,100.361874,119,0.097862,87,D6#,112,1
120240,100.460558,119,0.097862,88,E6,112,1
120240,100.460558,239,0.196546,52,E3,112,2
120240,100.460558,239,0.196546,49,C3#,112,2
120240,100.460558,239,0.196546,45,A2,112,2
120360,100.559242,119,0.097862,87,D6#,112,1
120480,100.657927,119,0.097861,88,E6,112,1
120600,100.756611,119,0.097862,87,D6#,112,1
120720,100.855295,119,0.097862,85,C6#,112,1
120720,100.855295,239,0.196546,52,E3,112,2
120720,100.855295,239,0.196546,49,C3#,112,2
120720,100.855295,239,0.196546,45,A2,112,2
120840,100.953979,119,0.097862,84,C6,112,1
120960,101.052664,119,0.097861,85,C6#,112,1
120960,101.052664,239,0.196546,54,F3#,112,2
120960,101.052664,239,0.196546,52,E3,112,2
120960,101.052664,239,0.196546,49,C3#,112,2
120960,101.052664,239,0.196546,46,A2#,112,2
121080,101.151348,119,0.097862,84,C6,112,1
121200,101.250032,119,0.097862,85,C6#,112,1
121200,101.250032,239,0.196546,54,F3#,112,2
121200,101.250032,239,0.196546,52,E3,112,2
121200,101.250032,239,0.196546,49,C3#,112,2
121200,101.250032,239,0.196546,46,A2#,112,2
121320,101.348716,119,0.097862,87,D6#,112,1
121440,101.447401,119,0.097861,88,E6,112,1
121560,101.546085,119,0.097862,87,D6#,112,1
121680,101.644769,119,0.097862,85,C6#,112,1
121680,101.644769,239,0.196546,54,F3#,112,2
121680,101.644769,239,0.196546,52,E3,112,2
121680,101.644769,239,0.196546,49,C3#,112,2
121680,101.644769,239,0.196546,46,A2#,112,2
121800,101.743453,119,0.097862,84,C6,112,1
121920,101.842138,119,0.097861,85,C6#,112,1
121920,101.842138,239,0.196546,54,F3#,112,2
121920,101.842138,239,0.196546,52,E3,112,2
121920,101.842138,239,0.196546,49,C3#,112,2
121920,101.842138,239,0.196546,46,A2#,112,2
122040,101.940822,119,0.097862,84,C6,112,1
122160,102.039506,119,0.097862,85,C6#,112,1
122160,102.039506,239,0.196546,54,F3#,112,2
122160,102.039506,239,0.196546,52,E3,112,2
122160,102.039506,239,0.196546,49,C3#,112,2
122160,102.039506,239,0.196546,46,A2#,112,2
122280,102.13819,119,0.097862,87,D6#,112,1
122400,102.236875,119,0.097861,88,E6,112,1
122520,102.335559,119,0.097862,87,D6#,112,1
122640,102.434243,119,0.097862,85,C6#,112,1
122640,102.434243,239,0.196546,54,F3#,112,2
122640,102.434243,239,0.196546,52,E3,112,2
122640,102.434243,239,0.196546,49,C3#,112,2
122640,102.434243,239,0.196546,46,A2#,112,2
122760,102.532927,119,0.097862,84,C6,112,1
122880,102.631612,119,0.097861,85,C6#,112,1
122880,102.631612,239,0.196546,54,F3#,112,2
122880,102.631612,239,0.196546,52,E3,112,2
122880,102.631612,239,0.196546,49,C3#,112,2
122880,102.631612,239,0.196546,46,A2#,112,2
123000,102.730296,119,0.097862,84,C6,112,1
123120,102.82898,119,0.097862,85,C6#,112,1
123120,102.82898,239,0.196546,54,F3#,112,2
123120,102.82898,239,0.196546,52,E3,112,2
123120,102.82898,239,0.196546,49,C3#,112,2
123120,102.82898,239,0.196546,46,A2#,112,2
123240,102.927664,119,0.097862,87,D6#,112,1
123360,103.026349,119,0.097861,88,E6,112,1
123480,103.125033,119,0.097862,87,D6#,112,1
123600,103.223717,119,0.097862,85,C6#,112,1
123600,103.223717,239,0.196546,54,F3#,112,2
123600,103.223717,239,0.196546,52,E3,112,2
123600,103.223717,239,0.196546,49,C3#,112,2
123600,103.223717,239,0.196546,46,A2#,112,2
123720,103.322401,119,0.097862,84,C6,112,1
123840,103.421086,119,0.097861,85,C6#,112,1
123840,103.421086,239,0.196546,54,F3#,112,2
123840,103.421086,239,0.196546,52,E3,112,2
123840,103.421086,239,0.196546,49,C3#,112,2
123840,103.421086,239,0.196546,46,A2#,112,2
123960,103.51977,119,0.097862,84,C6,112,1
124080,103.618454,119,0.097862,85,C6#,112,1
124080,103.618454,239,0.196546,54,F3#,112,2
124080,103.618454,239,0.196546,52,E3,112,2
124080,103.618454,239,0.196546,49,C3#,112,2
124080,103.618454,239,0.196546,46,A2#,112,2
124200,103.717138,119,0.097862,87,D6#,112,1
124320,103.815823,119,0.097861,88,E6,112,1
124440,103.914507,119,0.097862,87,D6#,112,1
124560,104.013191,119,0.097862,88,E6,112,1
124560,104.013191,239,0.196546,54,F3#,112,2
124560,104.013191,239,0.196546,52,E3,112,2
124560,104.013191,239,0.196546,49,C3#,112,2
124560,104.013191,239,0.196546,46,A2#,112,2
124680,104.111875,119,0.097862,85,C6#,112,1
124800,104.21056,119,0.097861,83,B5,119,1
124800,104.21056,119,0.097861,71,B4,119,1
124800,104.21056,119,0.097861,47,B2,112,2
124920,104.309244,119,0.097862,52,E3,112,2
125040,104.407928,119,0.097862,83,B5,112,1
125040,104.407928,119,0.097862,71,B4,112,1
125040,104.407928,119,0.097862,56,G3#,112,2
125160,104.506612,119,0.097862,59,B3,112,2
125280,104.605297,119,0.097861,80,G5#,112,1
125280,104.605297,119,0.097861,68,G4#,112,1
125280,104.605297,119,0.097861,47,B2,112,2
125400,104.703981,119,0.097862,52,E3,112,2
125520,104.802665,119,0.097862,76,E5,112,1
125520,104.802665,119,0.097862,64,E4,112,1
125520,104.802665,119,0.097862,56,G3#,112,2
125640,104.901349,119,0.097862,59,B3,112,2
125760,105.000034,119,0.097861,88,E6,119,1
125760,105.000034,119,0.097861,76,E5,119,1
125760,105.000034,119,0.097861,47,B2,112,2
125880,105.098718,119,0.097862,52,E3,112,2
126000,105.197402,119,0.097862,88,E6,112,1
126000,105.197402,119,0.097862,76,E5,112,1
126000,105.197402,119,0.097862,56,G3#,112,2
126120,105.296086,119,0.097862,59,B3,112,2
126240,105.394771,119,0.097861,83,B5,112,1
126240,105.394771,119,0.097861,71,B4,112,1
126240,105.394771,119,0.097861,47,B2,112,2
126360,105.493455,119,0.097862,52,E3,112,2
126480,105.592139,119,0.097862,80,G5#,112,1
126480,105.592139,119,0.097862,68,G4#,112,1
126480,105.592139,119,0.097862,56,G3#,112,2
126600,105.690823,119,0.097862,59,B3,112,2
126720,105.789508,119,0.097861,83,B5,119,1
126720,105.789508,119,0.097861,71,B4,119,1
126720,105.789508,119,0.097861,47,B2,112,2
126840,105.888192,119,0.097862,52,E3,112,2
126960,105.986876,119,0.097862,83,B5,112,1
126960,105.986876,119,0.097862,71,B4,112,1
126960,105.986876,119,0.097862,56,G3#,112,2
127080,106.08556,119,0.097862,59,B3,112,2
127200,106.184245,119,0.097861,80,G5#,112,1
127200,106.184245,119,0.097861,68,G4#,112,1
127200,106.184245,119,0.097861,47,B2,112,2
127320,106.282929,119,0.097862,52,E3,112,2
127440,106.381613,119,0.097862,76,E5,112,1
127440,106.381613,119,0.097862,64,E4,112,1
127440,106.381613,119,0.097862,56,G3#,112,2
127560,106.480297,119,0.097862,59,B3,112,2
127680,106.578982,119,0.097861,88,E6,119,1
127680,106.578982,119,0.097861,76,E5,119,1
127680,106.578982,119,0.097861,56,G3#,119,2
127920,106.77635,119,0.097862,88,E6,112,1
127920,106.77635,119,0.097862,76,E5,112,1
127920,106.77635,119,0.097862,56,G3#,112,2
128160,106.973719,119,0.097861,83,B5,112,1
128160,106.973719,119,0.097861,71,B4,112,1
128160,106.973719,119,0.097861,52,E3,112,2
128400,107.171087,119,0.097862,80,G5#,112,1
128400,107.171087,119,0.097862,68,G4#,112,1
128400,107.171087,119,0.097862,47,B2,112,2
128640,107.368456,119,0.097861,59,B3,96,2
128760,107.46714,119,0.097862,80,G5#,49,1
128880,107.565824,119,0.097862,83,B5,49,1
128880,107.565824,119,0.097862,56,G3#,49,2
129000,107.664508,119,0.097862,80,G5#,49,1
129120,107.763193,119,0.097861,83,B5,49,1
129120,107.763193,119,0.097861,64,E4,49,2
129240,107.861877,119,0.097862,80,G5#,49,1
129360,107.960561,119,0.097862,83,B5,49,1
129360,107.960561,119,0.097862,59,B3,49,2
129480,108.059245,119,0.097862,80,G5#,49,1
129600,108.15793,119,0.097861,83,B5,49,1
129600,108.15793,119,0.097861,68,G4#,49,2
129720,108.256614,119,0.097862,80,G5#,49,1
129840,108.355298,119,0.097862,83,B5,49,1
129840,108.355298,119,0.097862,64,E4,49,2
129960,108.453982,119,0.097862,80,G5#,49,1
130080,108.552667,119,0.097861,83,B5,49,1
130080,108.552667,119,0.097861,71,B4,49,2
130200,108.651351,119,0.097862,80,G5#,49,1
130320,108.750035,119,0.097862,83,B5,49,1
130320,108.750035,119,0.097862,68,G4#,49,2
130440,108.848719,119,0.097862,80,G5#,49,1
130560,108.947404,119,0.097861,83,B5,49,1
130560,108.947404,119,0.097861,76,E5,49,2
130680,109.046088,119,0.097862,80,G5#,49,1
130800,109.144772,119,0.097862,83,B5,49,1
130800,109.144772,119,0.097862,71,B4,49,2
130920,109.243456,119,0.097862,80,G5#,49,1
131040,109.342141,119,0.097861,83,B5,49,1
131040,109.342141,119,0.097861,76,E5,49,2
131160,109.440825,119,0.097862,80,G5#,49,1
131280,109.539509,119,0.097862,83,B5,49,1
131280,109.539509,119,0.097862,71,B4,49,2
131400,109.638193,119,0.097862,80,G5#,49,1
131520,109.736878,119,0.097861,83,B5,49,1
131520,109.736878,119,0.097861,76,E5,49,2
131640,109.835562,119,0.097862,80,G5#,49,1
131760,109.934246,119,0.097862,83,B5,49,1
131760,109.934246,119,0.097862,71,B4,49,2
131880,110.03293,119,0.097862,80,G5#,49,1
132000,110.131615,119,0.097861,83,B5,49,1
132000,110.131615,119,0.097861,76,E5,49,2
132120,110.230299,119,0.097862,80,G5#,49,1
132240,110.328983,119,0.097862,83,B5,49,1
132240,110.328983,119,0.097862,71,B4,49,2
132360,110.427667,119,0.097862,80,G5#,49,1
132480,110.526352,119,0.097861,75,D5#,45,2
132600,110.625036,119,0.097862,81,A5,45,1
132720,110.72372,119,0.097862,83,B5,45,1
132720,110.72372,119,0.097862,71,B4,45,2
132840,110.822404,119,0.097862,81,A5,45,1
132960,110.921089,119,0.097861,84,C6,45,1
132960,110.921089,119,0.097861,75,D5#,45,2
133080,111.019773,119,0.097862,81,A5,45,1
133200,111.118457,119,0.097862,83,B5,41,1
133200,111.118457,119,0.097862,71,B4,41,2
133320,111.217141,119,0.097862,81,A5,41,1
133440,111.315826,119,0.097861,84,C6,41,1
133440,111.315826,119,0.097861,75,D5#,41,2
133560,111.41451,119,0.097862,81,A5,41,1
133680,111.513194,119,0.097862,83,B5,41,1
133680,111.513194,119,0.097862,71,B4,41,2
133800,111.611878,119,0.097862,81,A5,41,1
133920,111.710563,119,0.097861,84,C6,37,1
133920,111.710563,119,0.097861,75,D5#,37,2
134040,111.809247,119,0.097862,81,A5,37,1
134160,111.907931,119,0.097862,83,B5,37,1
134160,111.907931,119,0.097862,71,B4,37,2
134280,112.006615,119,0.097862,81,A5,37,1
134400,112.1053,119,0.097861,84,C6,33,1
134400,112.1053,119,0.097861,75,D5#,33,2
134520,112.203984,119,0.097862,81,A5,33,1
134640,112.302668,119,0.097862,83,B5,33,1
134640,112.302668,119,0.097862,71,B4,33,2
134760,112.401352,119,0.097862,81,A5,33,1
134880,112.500037,119,0.097861,84,C6,33,1
134880,112.500037,119,0.097861,75,D5#,33,2
135000,112.598721,119,0.097862,81,A5,33,1
135120,112.697405,119,0.097862,83,B5,33,1
135120,112.697405,119,0.097862,71,B4,33,2
135240,112.796089,119,0.097862,81,A5,33,1
135360,112.894774,119,0.097861,84,C6,33,1
135360,112.894774,119,0.097861,75,D5#,33,2
135480,112.993458,119,0.097862,81,A5,33,1
135600,113.092142,119,0.097862,83,B5,33,1
135600,113.092142,119,0.097862,71,B4,33,2
135720,113.190826,119,0.097862,81,A5,33,1
135840,113.289511,119,0.097861,84,C6,33,1
135840,113.289511,119,0.097861,75,D5#,33,2
135960,113.388195,119,0.097862,81,A5,33,1
136080,113.486879,119,0.097862,83,B5,33,1
136080,113.486879,119,0.097862,71,B4,33,2
136200,113.585563,119,0.097862,81,A5,33,1
136320,113.684248,119,0.097861,85,C6#,42,1
136320,113.684248,119,0.097861,75,D5#,42,2
136320,113.684248,119,0.097861,75,D5#,42,2
136440,113.782932,119,0.097862,81,A5,42,1
136440,113.782932,119,0.097862,76,E5,42,2
136560,113.881616,119,0.097862,83,B5,42,1
136560,113.881616,119,0.097862,75,D5#,42,2
136680,113.9803,119,0.097862,81,A5,42,1
136680,113.9803,119,0.097862,76,E5,42,2
136800,114.078985,119,0.097861,85,C6#,51,1
136800,114.078985,119,0.097861,75,D5#,51,2
136920,114.177669,119,0.097862,81,A5,51,1
136920,114.177669,119,0.097862,76,E5,51,2
137040,114.276353,119,0.097862,83,B5,51,1
137040,114.276353,119,0.097862,75,D5#,51,2
137160,114.375037,119,0.097862,81,A5,51,1
137160,114.375037,119,0.097862,76,E5,51,2
137280,114.473722,119,0.097861,85,C6#,60,1
137280,114.473722,119,0.097861,75,D5#,60,2
137400,114.572406,119,0.097862,81,A5,60,1
137400,114.572406,119,0.097862,76,E5,60,2
137520,114.67109,119,0.097862,83,B5,60,1
137520,114.67109,119,0.097862,75,D5#,60,2
137640,114.769774,119,0.097862,81,A5,60,1
137640,114.769774,119,0.097862,76,E5,60,2
137760,114.868459,119,0.097861,85,C6#,69,1
137760,114.868459,119,0.097861,75,D5#,69,2
137880,114.967143,119,0.097862,81,A5,69,1
137880,114.967143,119,0.097862,76,E5,69,2
138000,115.065827,119,0.097862,83,B5,69,1
138000,115.065827,119,0.097862,75,D5#,69,2
138120,115.164511,119,0.097862,81,A5,69,1
138120,115.164511,119,0.097862,76,E5,69,2
138240,115.263196,119,0.097861,90,F6#,78,1
138240,115.263196,119,0.097861,75,D5#,78,2
138360,115.36188,119,0.097862,83,B5,78,1
138360,115.36188,119,0.097862,81,A5,78,1
138360,115.36188,119,0.097862,76,E5,78,2
138480,115.460564,119,0.097862,90,F6#,78,1
138480,115.460564,119,0.097862,75,D5#,78,2
138600,115.559248,119,0.097862,83,B5,78,1
138600,115.559248,119,0.097862,81,A5,78,1
138600,115.559248,119,0.097862,76,E5,78,2
138720,115.657933,119,0.097861,90,F6#,78,1
138720,115.657933,119,0.097861,75,D5#,78,2
138840,115.756617,119,0.097862,83,B5,78,1
138840,115.756617,119,0.097862,81,A5,78,1
138840,115.756617,119,0.097862,76,E5,78,2
138960,115.855301,119,0.097862,90,F6#,78,1
138960,115.855301,119,0.097862,75,D5#,78,2
139080,115.953985,119,0.097862,83,B5,78,1
139080,115.953985,119,0.097862,81,A5,78,1
139080,115.953985,119,0.097862,76,E5,78,2
139200,116.05267,119,0.097861,90,F6#,87,1
139200,116.05267,119,0.097861,75,D5#,87,2
139320,116.151354,119,0.097862,83,B5,87,1
139320,116.151354,119,0.097862,81,A5,87,1
139320,116.151354,119,0.097862,76,E5,87,2
139440,116.250038,119,0.097862,90,F6#,87,1
139440,116.250038,119,0.097862,75,D5#,87,2
139560,116.348722,119,0.097862,83,B5,87,1
139560,116.348722,119,0.097862,81,A5,87,1
139560,116.348722,119,0.097862,76,E5,87,2
139680,116.447407,119,0.097861,90,F6#,90,1
139680,116.447407,119,0.097861,75,D5#,90,2
139800,116.546091,119,0.097862,83,B5,90,1
139800,116.546091,119,0.097862,81,A5,90,1
139800,116.546091,119,0.097862,76,E5,90,2
139920,116.644775,119,0.097862,90,F6#,90,1
139920,116.644775,119,0.097862,73,C5#,90,2
140040,116.743459,119,0.097862,83,B5,90,1
140040,116.743459,119,0.097862,81,A5,90,1
140040,116.743459,119,0.097862,75,D5#,90,2
140160,116.842144,1439,1.183388,88,E6,96,1
140160,116.842144,1439,1.183388,83,B5,96,1
140160,116.842144,1439,1.183388,80,G5#,96,1
140160,116.842144,3839,3.157073,64,E4,96,2
140160,116.842144,959,0.788651,76,E5,96,2
141120,117.631618,959,0.788651,74,D5,49,2
141120,117.631618,959,0.788651,71,B4,49,2
141120,117.631618,959,0.788651,68,G4#,49,2
141600,118.026355,119,0.097861,88,E6,49,1
141720,118.125039,119,0.097862,86,D6,49,1
141840,118.223723,119,0.097862,84,C6,49,1
141960,118.322407,119,0.097862,83,B5,49,1
142080,118.421092,119,0.097861,84,C6,49,1
142080,118.421092,959,0.788651,72,C5,49,2
142080,118.421092,959,0.788651,69,A4,49,2
142200,118.519776,119,0.097862,83,B5,49,1
142320,118.61846,119,0.097862,81,A5,49,1
142440,118.717144,119,0.097862,80,G5#,49,1
142560,118.815829,119,0.097861,81,A5,49,1
142680,118.914513,119,0.097862,83,B5,49,1
142800,119.013197,119,0.097862,84,C6,49,1
142920,119.111881,119,0.097862,86,D6,49,1
143040,119.210566,119,0.097861,88,E6,49,1
143040,119.210566,959,0.788651,74,D5,49,2
143040,119.210566,959,0.788651,71,B4,49,2
143040,119.210566,959,0.788651,68,G4#,49,2
143160,119.30925,119,0.097862,89,F6,49,1
143280,119.407934,119,0.097862,88,E6,49,1
143400,119.506618,119,0.097862,87,D6#,49,1
143520,119.605303,119,0.097861,88,E6,49,1
143640,119.703987,119,0.097862,86,D6,49,1
143760,119.802671,119,0.097862,84,C6,49,1
143880,119.901355,119,0.097862,83,B5,49,1
144000,120.00004,119,0.097861,84,C6,49,1
144000,120.00004,479,0.393914,69,A4,49,2
144000,120.00004,479,0.393914,72,C5,49,2
144120,120.098724,119,0.097862,86,D6,49,1
144240,120.197408,119,0.097862,84,C6,49,1
144360,120.296092,119,0.097862,83,B5,49,1
144480,120.394777,119,0.097861,81,A5,49,1
144600,120.493461,119,0.097862,80,G5#,49,1
144720,120.592145,119,0.097862,81,A5,49,1
144840,120.690829,119,0.097862,83,B5,49,1
144960,120.789514,959,0.788651,72,C5,49,1
144960,120.789514,479,0.393914,84,C6,49,1
144960,120.789514,959,0.788651,69,A4,49,2
144960,120.789514,959,0.788651,66,F4#,49,2
144960,120.789514,959,0.788651,60,C4,49,2
144960,120.789514,959,0.788651,57,A3,49,2
145440,121.184251,239,0.196546,81,A5,49,1
145680,121.381619,239,0.196546,78,F5#,49,1
145920,121.578988,959,0.788651,71,B4,49,1
145920,121.578988,479,0.393914,83,B5,49,1
145920,121.578988,959,0.788651,67,G4,49,2
145920,121.578988,959,0.788651,64,E4,49,2
145920,121.578988,959,0.788651,59,B3,49,2
146400,121.973725,239,0.196546,79,G5,49,1
146640,122.171093,239,0.196546,76,E5,49,1
146880,122.368462,959,0.788651,69,A4,49,1
146880,122.368462,479,0.393914,81,A5,49,1
146880,122.368462,959,0.788651,66,F4#,49,2
146880,122.368462,959,0.788651,63,D4#,49,2
146880,122.368462,959,0.788651,59,B3,49,2
147360,122.763199,239,0.196546,78,F5#,49,1
147600,122.960567,239,0.196546,75,D5#,49,1
147840,123.157936,1439,1.183388,76,E5,96,1
147840,123.157936,3839,3.157073,52,E3,96,2
147840,123.157936,959,0.788651,64,E4,96,2
148800,123.94741,959,0.788651,62,D4,49,2
148800,123.94741,959,0.788651,59,B3,49,2
148800,123.94741,959,0.788651,56,G3#,49,2
149280,124.342147,119,0.097861,76,E5,49,1
149400,124.440831,119,0.097862,74,D5,49,1
149520,124.539515,119,0.097862,72,C5,49,1
149640,124.638199,119,0.097862,71,B4,49,1
149760,124.736884,119,0.097861,72,C5,49,1
149760,124.736884,959,0.788651,60,C4,49,2
149760,124.736884,959,0.788651,57,A3,49,2
149880,124.835568,119,0.097862,71,B4,49,1
150000,124.934252,119,0.097862,69,A4,49,1
150120,125.032936,119,0.097862,68,G4#,49,1
150240,125.131621,119,0.097861,69,A4,49,1
150360,125.230305,119,0.097862,71,B4,49,1
150480,125.328989,119,0.097862,72,C5,49,1
150600,125.427673,119,0.097862,74,D5,49,1
150720,125.526358,119,0.097861,76,E5,49,1
150720,125.526358,959,0.788651,62,D4,49,2
150720,125.526358,959,0.788651,59,B3,49,2
150720,125.526358,959,0.788651,56,G3#,49,2
150840,125.625042,119,0.097862,77,F5,49,1
150960,125.723726,119,0.097862,76,E5,49,1
151080,125.82241,119,0.097862,75,D5#,49,1
151200,125.921095,119,0.097861,76,E5,49,1
151320,126.019779,119,0.097862,74,D5,49,1
151440,126.118463,119,0.097862,72,C5,49,1
151560,126.217147,119,0.097862,71,B4,49,1
151680,126.315832,119,0.097861,72,C5,49,1
151680,126.315832,479,0.393914,57,A3,49,2
151680,126.315832,479,0.393914,60,C4,49,2
151800,126.414516,119,0.097862,74,D5,49,1
151920,126.5132,119,0.097862,72,C5,49,1
152040,126.611884,119,0.097862,71,B4,49,1
152160,126.710569,119,0.097861,69,A4,49,1
152280,126.809253,119,0.097862,68,G4#,49,1
152400,126.907937,119,0.097862,69,A4,49,1
152520,127.006621,119,0.097862,71,B4,49,1
152640,127.105306,959,0.788651,60,C4,49,1
152640,127.105306,479,0.393914,72,C5,49,1
152640,127.105306,959,0.788651,57,A3,49,2
152640,127.105306,959,0.788651,54,F3#,49,2
152640,127.105306,959,0.788651,48,C3,49,2
152640,127.105306,959,0.788651,45,A2,49,2
153120,127.500043,239,0.196546,69,A4,49,1
153360,127.697411,239,0.196546,66,F4#,49,1
153600,127.89478,959,0.788651,59,B3,49,1
153600,127.89478,479,0.393914,71,B4,49,1
153600,127.89478,959,0.788651,55,G3,49,2
153600,127.89478,959,0.788651,52,E3,49,2
153600,127.89478,959,0.788651,47,B2,49,2
154080,128.289517,239,0.196546,67,G4,49,1
154320,128.486885,239,0.196546,64,E4,49,1
154560,128.684254,959,0.788651,57,A3,49,1
154560,128.684254,479,0.393914,69,A4,49,1
154560,128.684254,959,0.788651,54,F3#,49,2
154560,128.684254,959,0.788651,51,D3#,49,2
154560,128.684254,959,0.788651,47,B2,49,2
155040,129.078991,239,0.196546,66,F4#,49,1
155280,129.276359,239,0.196546,63,D4#,49,1
155520,129.473728,239,0.196546,64,E4,49,1
155520,129.473728,479,0.393914,55,G3,49,2
155520,129.473728,479,0.393914,52,E3,49,2
156000,129.868465,239,0.196546,76,E5,55,1
156000,129.868465,479,0.393914,43,G2,55,2
156000,129.868465,719,0.591283,52,E3,55,2
156240,130.065833,239,0.196546,74,D5,55,1
156480,130.263202,479,0.393914,72,C5,60,1
156480,130.263202,959,0.788651,45,A2,60,2
156720,130.46057,239,0.196546,53,F3,60,2
156960,130.657939,239,0.196546,69,A4,64,1
156960,130.657939,239,0.196546,55,G3,64,2
157200,130.855307,239,0.196546,65,F4,64,1
157200,130.855307,239,0.196546,57,A3,64,2
157440,131.052676,479,0.393914,71,B4,49,1
157440,131.052676,1919,1.578125,47,B2,49,2
157440,131.052676,959,0.788651,59,B3,49,2
157440,131.052676,959,0.788651,55,G3,49,2
157920,131.447413,239,0.196546,67,G4,49,1
158160,131.644781,239,0.196546,64,E4,49,1
158400,131.84215,479,0.393914,69,A4,49,1
158400,131.84215,959,0.788651,57,A3,49,2
158400,131.84215,959,0.788651,54,F3#,49,2
158880,132.236887,239,0.196546,66,F4#,49,1
159120,132.434255,239,0.196546,63,D4#,49,1
159360,132.631624,239,0.196546,64,E4,49,1
159360,132.631624,479,0.393914,48,C3,49,2
159360,132.631624,479,0.393914,55,G3,49,2
159360,132.631624,479,0.393914,52,E3,49,2
159840,133.026361,239,0.196546,72,C5,55,1
159840,133.026361,479,0.393914,40,E2,55,2
159840,133.026361,719,0.591283,48,C3,55,2
160080,133.223729,239,0.196546,71,B4,55,1
160320,133.421098,479,0.393914,69,A4,60,1
160320,133.421098,959,0.788651,41,F2,60,2
160560,133.618466,239,0.196546,50,D3,60,2
160800,133.815835,239,0.196546,65,F4,64,1
160800,133.815835,239,0.196546,52,E3,64,2
161040,134.013203,239,0.196546,62,D4,64,1
161040,134.013203,239,0.196546,53,F3,64,2
161280,134.210572,479,0.393914,67,G4,49,1
161280,134.210572,1919,1.578125,43,G2,49,2
161280,134.210572,959,0.788651,55,G3,49,2
161280,134.210572,959,0.788651,52,E3,49,2
161760,134.605309,239,0.196546,64,E4,49,1
162000,134.802677,239,0.196546,60,C4,49,1
162240,135.000046,479,0.393914,65,F4,49,1
162240,135.000046,959,0.788651,53,F3,49,2
162240,135.000046,959,0.788651,50,D3,49,2
162720,135.394783,239,0.196546,62,D4,49,1
162960,135.592151,239,0.196546,59,B3,49,1
163200,135.78952,239,0.196546,60,C4,33,1
163200,135.78952,239,0.196546,52,E3,33,1
163200,135.78952,239,0.196546,48,C3,33,2
163200,135.78952,239,0.196546,36,C2,33,2
163440,135.986888,239,0.196546,52,E3,33,1
163440,135.986888,239,0.196546,48,C3,33,1
163440,135.986888,239,0.196546,43,G2,33,2
163440,135.986888,239,0.196546,36,C2,33,2
163680,136.184257,239,0.196546,52,E3,33,1
163680,136.184257,239,0.196546,48,C3,33,1
163680,136.184257,239,0.196546,43,G2,33,2
163680,136.184257,239,0.196546,36,C2,33,2
163920,136.381625,239,0.196546,52,E3,33,1
163920,136.381625,239,0.196546,48,C3,33,1
163920,136.381625,239,0.196546,43,G2,33,2
163920,136.381625,239,0.196546,36,C2,33,2
164160,136.578994,239,0.196546,52,E3,33,1
164160,136.578994,239,0.196546,48,C3,33,1
164160,136.578994,239,0.196546,43,G2,33,2
164160,136.578994,239,0.196546,36,C2,33,2
164400,136.776362,239,0.196546,52,E3,33,1
164400,136.776362,239,0.196546,48,C3,33,1
164400,136.776362,239,0.196546,43,G2,33,2
164400,136.776362,239,0.196546,36,C2,33,2
164640,136.973731,239,0.196546,52,E3,33,1
164640,136.973731,239,0.196546,48,C3,33,1
164640,136.973731,239,0.196546,43,G2,33,2
164640,136.973731,239,0.196546,36,C2,33,2
164880,137.171099,239,0.196546,52,E3,33,1
164880,137.171099,239,0.196546,48,C3,33,1
164880,137.171099,239,0.196546,43,G2,33,2
164880,137.171099,239,0.196546,36,C2,33,2
165120,137.368468,239,0.196546,52,E3,33,1
165120,137.368468,239,0.196546,48,C3,33,1
165120,137.368468,239,0.196546,43,G2,33,2
165120,137.368468,239,0.196546,36,C2,33,2
165360,137.565836,239,0.196546,52,E3,33,1
165360,137.565836,239,0.196546,48,C3,33,1
165360,137.565836,239,0.196546,43,G2,33,2
165360,137.565836,239,0.196546,36,C2,33,2
165600,137.763205,239,0.196546,52,E3,33,1
165600,137.763205,239,0.196546,48,C3,33,1
165600,137.763205,239,0.196546,43,G2,33,2
165600,137.763205,239,0.196546,36,C2,33,2
165840,137.960573,239,0.196546,52,E3,33,1
165840,137.960573,239,0.196546,48,C3,33,1
165840,137.960573,239,0.196546,43,G2,33,2
165840,137.960573,239,0.196546,36,C2,33,2
166080,138.157942,239,0.196546,52,E3,33,1
166080,138.157942,239,0.196546,48,C3,33,1
166080,138.157942,239,0.196546,43,G2,33,2
166080,138.157942,239,0.196546,36,C2,33,2
166320,138.35531,239,0.196546,52,E3,33,1
166320,138.35531,239,0.196546,48,C3,33,1
166320,138.35531,239,0.196546,43,G2,33,2
166320,138.35531,239,0.196546,36,C2,33,2
166560,138.552679,239,0.196546,54,F3#,33,1
166560,138.552679,239,0.196546,50,D3,33,1
166560,138.552679,239,0.196546,45,A2,33,2
166560,138.552679,239,0.196546,36,C2,33,2
166800,138.750047,239,0.196546,54,F3#,33,1
166800,138.750047,239,0.196546,50,D3,33,1
166800,138.750047,239,0.196546,45,A2,33,2
166800,138.750047,239,0.196546,36,C2,33,2
167040,138.947416,719,0.591283,55,G3,33,1
167040,138.947416,719,0.591283,50,D3,33,1
167040,138.947416,239,0.196546,43,G2,33,2
167040,138.947416,239,0.196546,35,B1,33,2
167280,139.144784,239,0.196546,43,G2,33,2
167280,139.144784,239,0.196546,35,B1,33,2
167520,139.342153,239,0.196546,43,G2,33,2
167520,139.342153,239,0.196546,35,B1,33,2
167760,139.539521,119,0.097862,59,B3,33,1
167760,139.539521,239,0.196546,43,G2,33,2
167760,139.539521,239,0.196546,35,B1,33,2
167880,139.638205,119,0.097862,57,A3,33,1
168000,139.73689,119,0.097861,55,G3,33,1
168000,139.73689,239,0.196546,43,G2,33,2
168000,139.73689,239,0.196546,35,B1,33,2
168240,139.934258,239,0.196546,43,G2,33,2
168240,139.934258,239,0.196546,35,B1,33,2
168480,140.131627,239,0.196546,43,G2,33,2
168480,140.131627,239,0.196546,35,B1,33,2
168720,140.328995,239,0.196546,43,G2,33,2
168720,140.328995,239,0.196546,35,B1,33,2
168960,140.526364,119,0.097861,85,C6#,33,1
168960,140.526364,239,0.196546,43,G2,33,2
168960,140.526364,239,0.196546,35,B1,33,2
169080,140.625048,599,0.492599,86,D6,33,1
169200,140.723732,239,0.196546,43,G2,33,2
169200,140.723732,239,0.196546,35,B1,33,2
169440,140.921101,239,0.196546,43,G2,33,2
169440,140.921101,239,0.196546,35,B1,33,2
169560,141.019785,119,0.097862,84,C6,33,1
169680,141.118469,119,0.097862,83,B5,33,1
169680,141.118469,239,0.196546,43,G2,33,2
169680,141.118469,239,0.196546,35,B1,33,2
169800,141.217153,119,0.097862,81,A5,33,1
169920,141.315838,239,0.196546,79,G5,33,1
169920,141.315838,239,0.196546,43,G2,33,2
169920,141.315838,239,0.196546,35,B1,33,2
170160,141.513206,239,0.196546,43,G2,33,2
170160,141.513206,239,0.196546,35,B1,33,2
170400,141.710575,239,0.196546,43,G2,33,2
170400,141.710575,239,0.196546,35,B1,33,2
170640,141.907943,239,0.196546,43,G2,33,2
170640,141.907943,239,0.196546,35,B1,33,2
170880,142.105312,239,0.196546,50,D3,33,1
170880,142.105312,239,0.196546,46,A2#,33,1
170880,142.105312,239,0.196546,41,F2,33,2
170880,142.105312,239,0.196546,34,A1#,33,2
171120,142.30268,239,0.196546,50,D3,33,1
171120,142.30268,239,0.196546,46,A2#,33,1
171120,142.30268,239,0.196546,41,F2,33,2
171120,142.30268,239,0.196546,34,A1#,33,2
171360,142.500049,239,0.196546,50,D3,33,1
171360,142.500049,239,0.196546,46,A2#,33,1
171360,142.500049,239,0.196546,41,F2,33,2
171360,142.500049,239,0.196546,34,A1#,33,2
171600,142.697417,239,0.196546,50,D3,33,1
171600,142.697417,239,0.196546,46,A2#,33,1
171600,142.697417,239,0.196546,41,F2,33,2
171600,142.697417,239,0.196546,34,A1#,33,2
171840,142.894786,239,0.196546,50,D3,33,1
171840,142.894786,239,0.196546,46,A2#,33,1
171840,142.894786,239,0.196546,41,F2,33,2
171840,142.894786,239,0.196546,34,A1#,33,2
172080,143.092154,239,0.196546,50,D3,33,1
172080,143.092154,239,0.196546,46,A2#,33,1
172080,143.092154,239,0.196546,41,F2,33,2
172080,143.092154,239,0.196546,34,A1#,33,2
172320,143.289523,239,0.196546,50,D3,33,1
172320,143.289523,239,0.196546,46,A2#,33,1
172320,143.289523,239,0.196546,41,F2,33,2
172320,143.289523,239,0.196546,34,A1#,33,2
172560,143.486891,239,0.196546,50,D3,33,1
172560,143.486891,239,0.196546,46,A2#,33,1
172560,143.486891,239,0.196546,41,F2,33,2
172560,143.486891,239,0.196546,34,A1#,33,2
172800,143.68426,239,0.196546,50,D3,33,1
172800,143.68426,239,0.196546,46,A2#,33,1
172800,143.68426,239,0.196546,41,F2,33,2
172800,143.68426,239,0.196546,34,A1#,33,2
173040,143.881628,239,0.196546,50,D3,33,1
173040,143.881628,239,0.196546,46,A2#,33,1
173040,143.881628,239,0.196546,41,F2,33,2
173040,143.881628,239,0.196546,34,A1#,33,2
173280,144.078997,239,0.196546,50,D3,33,1
173280,144.078997,239,0.196546,46,A2#,33,1
173280,144.078997,239,0.196546,41,F2,33,2
173280,144.078997,239,0.196546,34,A1#,33,2
173520,144.276365,239,0.196546,50,D3,33,1
173520,144.276365,239,0.196546,46,A2#,33,1
173520,144.276365,239,0.196546,41,F2,33,2
173520,144.276365,239,0.196546,34,A1#,33,2
173760,144.473734,239,0.196546,50,D3,33,1
173760,144.473734,239,0.196546,46,A2#,33,1
173760,144.473734,239,0.196546,41,F2,33,2
173760,144.473734,239,0.196546,34,A1#,33,2
174000,144.671102,239,0.196546,50,D3,33,1
174000,144.671102,239,0.196546,46,A2#,33,1
174000,144.671102,239,0.196546,41,F2,33,2
174000,144.671102,239,0.196546,34,A1#,33,2
174240,144.868471,239,0.196546,52,E3,33,1
174240,144.868471,239,0.196546,48,C3,33,1
174240,144.868471,239,0.196546,43,G2,33,2
174240,144.868471,239,0.196546,34,A1#,33,2
174480,145.065839,239,0.196546,52,E3,33,1
174480,145.065839,239,0.196546,48,C3,33,1
174480,145.065839,239,0.196546,43,G2,33,2
174480,145.065839,239,0.196546,34,A1#,33,2
174720,145.263208,719,0.591283,53,F3,33,1
174720,145.263208,719,0.591283,48,C3,33,1
174720,145.263208,239,0.196546,41,F2,33,2
174720,145.263208,239,0.196546,33,A1,33,2
174960,145.460576,239,0.196546,41,F2,33,2
174960,145.460576,239,0.196546,33,A1,33,2
175200,145.657945,239,0.196546,41,F2,33,2
175200,145.657945,239,0.196546,33,A1,33,2
175440,145.855313,119,0.097862,57,A3,33,1
175440,145.855313,239,0.196546,41,F2,33,2
175440,145.855313,239,0.196546,33,A1,33,2
175560,145.953997,119,0.097862,55,G3,33,1
175680,146.052682,119,0.097861,53,F3,33,1
175680,146.052682,239,0.196546,41,F2,33,2
175680,146.052682,239,0.196546,33,A1,33,2
175920,146.25005,239,0.196546,41,F2,33,2
175920,146.25005,239,0.196546,33,A1,33,2
176160,146.447419,239,0.196546,41,F2,33,2
176160,146.447419,239,0.196546,33,A1,33,2
176400,146.644787,239,0.196546,41,F2,33,2
176400,146.644787,239,0.196546,33,A1,33,2
176640,146.842156,119,0.097861,83,B5,33,1
176640,146.842156,239,0.196546,41,F2,33,2
176640,146.842156,239,0.196546,32,G1#,33,2
176760,146.94084,599,0.492599,84,C6,33,1
176880,147.039524,239,0.196546,41,F2,33,2
176880,147.039524,239,0.196546,32,G1#,33,2
177120,147.236893,239,0.196546,41,F2,33,2
177120,147.236893,239,0.196546,32,G1#,33,2
177240,147.335577,119,0.097862,82,A5#,33,1
177360,147.434261,119,0.097862,80,G5#,33,1
177360,147.434261,239,0.196546,41,F2,33,2
177360,147.434261,239,0.196546,32,G1#,33,2
177480,147.532945,119,0.097862,79,G5,33,1
177600,147.63163,239,0.196546,77,F5,33,1
177600,147.63163,239,0.196546,41,F2,33,2
177600,147.63163,239,0.196546,32,G1#,33,2
177840,147.828998,239,0.196546,41,F2,33,2
177840,147.828998,239,0.196546,32,G1#,33,2
178080,148.026367,239,0.196546,41,F2,33,2
178080,148.026367,239,0.196546,32,G1#,33,2
178320,148.223735,239,0.196546,41,F2,33,2
178320,148.223735,239,0.196546,32,G1#,33,2
178560,148.421104,119,0.097861,88,E6,36,1
178560,148.421104,239,0.196546,41,F2,6,2
178560,148.421104,239,0.196546,31,G1,36,2
178680,148.519788,1439,1.183388,89,F6,36,1
178800,148.618472,239,0.196546,41,F2,39,2
178800,148.618472,239,0.196546,31,G1,39,2
179040,148.815841,239,0.196546,41,F2,42,2
179040,148.815841,239,0.196546,31,G1,42,2
179280,149.013209,239,0.196546,41,F2,45,2
179280,149.013209,239,0.196546,31,G1,45,2
179520,149.210578,239,0.196546,41,F2,48,2
179520,149.210578,239,0.196546,31,G1,48,2
179760,149.407946,239,0.196546,41,F2,51,2
179760,149.407946,239,0.196546,31,G1,51,2
180000,149.605315,119,0.097861,89,F6,54,1
180000,149.605315,239,0.196546,41,F2,54,2
180000,149.605315,239,0.196546,32,G1#,54,2
180120,149.703999,119,0.097862,87,D6#,54,1
180240,149.802683,119,0.097862,86,D6,57,1
180240,149.802683,239,0.196546,41,F2,57,2
180240,149.802683,239,0.196546,32,G1#,57,2
180360,149.901367,119,0.097862,84,C6,57,1
180480,150.000052,119,0.097861,83,B5,60,1
180480,150.000052,239,0.196546,41,F2,60,2
180480,150.000052,239,0.196546,31,G1,60,2
180600,150.098736,119,0.097862,84,C6,60,1
180720,150.19742,119,0.097862,86,D6,64,1
180720,150.19742,239,0.196546,41,F2,64,2
180720,150.19742,239,0.196546,31,G1,64,2
180840,150.296104,119,0.097862,87,D6#,64,1
180960,150.394789,119,0.097861,89,F6,68,1
180960,150.394789,239,0.196546,41,F2,68,2
180960,150.394789,239,0.196546,32,G1#,68,2
181080,150.493473,119,0.097862,87,D6#,68,1
181200,150.592157,119,0.097862,86,D6,72,1
181200,150.592157,239,0.196546,41,F2,72,2
181200,150.592157,239,0.196546,32,G1#,72,2
181320,150.690841,119,0.097862,84,C6,72,1
181440,150.789526,119,0.097861,83,B5,76,1
181440,150.789526,239,0.196546,41,F2,76,2
181440,150.789526,239,0.196546,31,G1,76,2
181560,150.88821,119,0.097862,84,C6,76,1
181680,150.986894,119,0.097862,86,D6,80,1
181680,150.986894,239,0.196546,41,F2,80,2
181680,150.986894,239,0.196546,31,G1,80,2
181800,151.085578,119,0.097862,87,D6#,80,1
181920,151.184263,119,0.097861,89,F6,84,1
181920,151.184263,239,0.196546,41,F2,84,2
181920,151.184263,239,0.196546,32,G1#,84,2
182040,151.282947,119,0.097862,87,D6#,84,1
182160,151.381631,119,0.097862,86,D6,90,1
182160,151.381631,239,0.196546,41,F2,90,2
182160,151.381631,239,0.196546,32,G1#,90,2
182280,151.480315,119,0.097862,84,C6,90,1
182400,151.579,119,0.097861,83,B5,96,1
182400,151.579,479,0.393914,41,F2,96,2
182400,151.579,479,0.393914,31,G1,96,2
182520,151.677684,119,0.097862,84,C6,96,1
182640,151.776368,119,0.097862,86,D6,96,1
182760,151.875052,119,0.097862,87,D6#,96,1
182880,151.973737,119,0.097861,89,F6,105,1
182880,151.973737,1199,0.98602,55,G3,105,2
182880,151.973737,1199,0.98602,43,G2,105,2
183000,152.072421,119,0.097862,87,D6#,96,1
183120,152.171105,119,0.097862,86,D6,96,1
183240,152.269789,119,0.097862,84,C6,96,1
183360,152.368474,119,0.097861,83,B5,96,1
183480,152.467158,119,0.097862,80,G5#,96,1
183600,152.565842,119,0.097862,79,G5,96,1
183720,152.664526,119,0.097862,77,F5,96,1
183840,152.763211,119,0.097861,75,D5#,96,1
183960,152.861895,119,0.097862,74,D5,96,1
184080,152.960579,119,0.097862,72,C5,96,1
184080,152.960579,119,0.097862,57,A3,96,2
184200,153.059263,119,0.097862,71,B4,96,1
184200,153.059263,119,0.097862,59,B3,96,2
184320,153.157948,239,0.196546,72,C5,96,1
184320,153.157948,239,0.196546,60,C4,96,2
184800,153.552685,239,0.196546,67,G4,84,1
184800,153.552685,239,0.196546,55,G3,84,2
184800,153.552685,239,0.196546,43,G2,84,2
185280,153.947422,239,0.196546,63,D4#,72,1
185280,153.947422,239,0.196546,51,D3#,72,2
185280,153.947422,239,0.196546,39,D2#,72,2
185760,154.342159,239,0.196546,60,C4,60,1
185760,154.342159,239,0.196546,48,C3,60,2
185760,154.342159,239,0.196546,36,C2,60,2
186240,154.736896,1919,3.156243,55,G3,49,1
186240,154.736896,1919,3.156243,43,G2,49,2
186240,154.736896,1919,3.156243,31,G1,49,2
188160,157.894784,119,0.097861,64,E4,33,1
188160,157.894784,239,0.196546,48,C3,33,2
188160,157.894784,239,0.196546,36,C2,33,2
188280,157.993468,119,0.097862,60,C4,33,1
188400,158.092152,119,0.097862,64,E4,33,1
188400,158.092152,119,0.097862,48,C3,33,2
188520,158.190836,119,0.097862,60,C4,33,1
188520,158.190836,119,0.097862,55,G3,33,2
188640,158.289521,119,0.097861,64,E4,33,1
188640,158.289521,119,0.097861,48,C3,33,2
188760,158.388205,119,0.097862,60,C4,33,1
188760,158.388205,119,0.097862,55,G3,33,2
188880,158.486889,119,0.097862,64,E4,33,1
188880,158.486889,119,0.097862,48,C3,33,2
189000,158.585573,119,0.097862,60,C4,33,1
189000,158.585573,119,0.097862,55,G3,33,2
189120,158.684258,119,0.097861,64,E4,33,1
189120,158.684258,119,0.097861,48,C3,33,2
189240,158.782942,119,0.097862,60,C4,33,1
189240,158.782942,119,0.097862,55,G3,33,2
189360,158.881626,119,0.097862,64,E4,33,1
189360,158.881626,119,0.097862,48,C3,33,2
189480,158.98031,119,0.097862,60,C4,33,1
189480,158.98031,119,0.097862,55,G3,33,2
189600,159.078995,119,0.097861,64,E4,33,1
189600,159.078995,119,0.097861,48,C3,33,2
189720,159.177679,119,0.097862,60,C4,33,1
189720,159.177679,119,0.097862,55,G3,33,2
189840,159.276363,119,0.097862,64,E4,33,1
189840,159.276363,119,0.097862,48,C3,33,2
189960,159.375047,119,0.097862,60,C4,33,1
189960,159.375047,119,0.097862,55,G3,33,2
190080,159.473732,119,0.097861,64,E4,33,1
190080,159.473732,119,0.097861,48,C3,33,2
190200,159.572416,119,0.097862,60,C4,33,1
190200,159.572416,119,0.097862,55,G3,33,2
190320,159.6711,119,0.097862,64,E4,33,1
190320,159.6711,119,0.097862,48,C3,33,2
190440,159.769784,119,0.097862,60,C4,33,1
190440,159.769784,119,0.097862,55,G3,33,2
190560,159.868469,119,0.097861,64,E4,33,1
190560,159.868469,119,0.097861,48,C3,33,2
190680,159.967153,119,0.097862,60,C4,33,1
190680,159.967153,119,0.097862,55,G3,33,2
190800,160.065837,119,0.097862,64,E4,33,1
190800,160.065837,119,0.097862,48,C3,33,2
190920,160.164521,119,0.097862,60,C4,33,1
190920,160.164521,119,0.097862,55,G3,33,2
191040,160.263206,119,0.097861,64,E4,33,1
191040,160.263206,119,0.097861,48,C3,33,2
191160,160.36189,119,0.097862,60,C4,33,1
191160,160.36189,119,0.097862,55,G3,33,2
191280,160.460574,119,0.097862,64,E4,33,1
191280,160.460574,119,0.097862,48,C3,33,2
191400,160.559258,119,0.097862,60,C4,33,1
191400,160.559258,119,0.097862,55,G3,33,2
191520,160.657943,119,0.097861,66,F4#,33,1
191520,160.657943,119,0.097861,48,C3,33,2
191640,160.756627,119,0.097862,62,D4,33,1
191640,160.756627,119,0.097862,57,A3,33,2
191760,160.855311,119,0.097862,66,F4#,33,1
191760,160.855311,119,0.097862,48,C3,33,2
191880,160.953995,119,0.097862,62,D4,33,1
191880,160.953995,119,0.097862,57,A3,33,2
192000,161.05268,719,0.591283,67,G4,33,1
192000,161.05268,119,0.097861,50,D3,33,2
192000,161.05268,119,0.097861,47,B2,33,2
192120,161.151364,119,0.097862,55,G3,33,2
192240,161.250048,119,0.097862,50,D3,33,2
192240,161.250048,119,0.097862,47,B2,33,2
192360,161.348732,119,0.097862,55,G3,33,2
192480,161.447417,119,0.097861,50,D3,33,2
192480,161.447417,119,0.097861,47,B2,33,2
192600,161.546101,119,0.097862,55,G3,33,2
192720,161.644785,119,0.097862,71,B4,33,1
192720,161.644785,119,0.097862,50,D3,33,2
192720,161.644785,119,0.097862,47,B2,33,2
192840,161.743469,119,0.097862,69,A4,33,1
192840,161.743469,119,0.097862,55,G3,33,2
192960,161.842154,119,0.097861,67,G4,33,1
192960,161.842154,119,0.097861,50,D3,33,2
192960,161.842154,119,0.097861,47,B2,33,2
193080,161.940838,119,0.097862,55,G3,33,2
193200,162.039522,119,0.097862,50,D3,33,2
193200,162.039522,119,0.097862,47,B2,33,2
193320,162.138206,119,0.097862,55,G3,33,2
193440,162.236891,119,0.097861,50,D3,33,2
193440,162.236891,119,0.097861,47,B2,33,2
193560,162.335575,119,0.097862,55,G3,33,2
193680,162.434259,119,0.097862,50,D3,33,2
193680,162.434259,119,0.097862,47,B2,33,2
193800,162.532943,119,0.097862,55,G3,33,2
193920,162.631628,119,0.097861,85,C6#,33,1
193920,162.631628,119,0.097861,50,D3,33,2
193920,162.631628,119,0.097861,47,B2,33,2
194040,162.730312,599,0.492599,86,D6,33,1
194040,162.730312,119,0.097862,55,G3,33,2
194160,162.828996,119,0.097862,50,D3,33,2
194160,162.828996,119,0.097862,47,B2,33,2
194280,162.92768,119,0.097862,55,G3,33,2
194400,163.026365,119,0.097861,50,D3,33,2
194400,163.026365,119,0.097861,47,B2,33,2
194520,163.125049,119,0.097862,84,C6,33,1
194520,163.125049,119,0.097862,55,G3,33,2
194640,163.223733,119,0.097862,83,B5,33,1
194640,163.223733,119,0.097862,50,D3,33,2
194640,163.223733,119,0.097862,47,B2,33,2
194760,163.322417,119,0.097862,81,A5,33,1
194760,163.322417,119,0.097862,55,G3,33,2
194880,163.421102,239,0.196546,79,G5,33,1
194880,163.421102,119,0.097861,50,D3,33,2
194880,163.421102,119,0.097861,47,B2,33,2
195000,163.519786,119,0.097862,55,G3,33,2
195120,163.61847,119,0.097862,50,D3,33,2
195120,163.61847,119,0.097862,47,B2,33,2
195240,163.717154,119,0.097862,55,G3,33,2
195360,163.815839,119,0.097861,50,D3,33,2
195360,163.815839,119,0.097861,47,B2,33,2
195480,163.914523,119,0.097862,55,G3,33,2
195600,164.013207,119,0.097862,50,D3,33,2
195600,164.013207,119,0.097862,47,B2,33,2
195720,164.111891,119,0.097862,55,G3,33,2
195840,164.210576,119,0.097861,65,F4,33,1
195840,164.210576,239,0.196546,50,D3,33,2
195840,164.210576,239,0.196546,38,D2,33,2
195960,164.30926,119,0.097862,62,D4,33,1
196080,164.407944,119,0.097862,65,F4,33,1
196080,164.407944,119,0.097862,50,D3,33,2
196200,164.506628,119,0.097862,62,D4,33,1
196200,164.506628,119,0.097862,57,A3,33,2
196320,164.605313,119,0.097861,65,F4,33,1
196320,164.605313,119,0.097861,50,D3,33,2
196440,164.703997,119,0.097862,62,D4,33,1
196440,164.703997,119,0.097862,57,A3,33,2
196560,164.802681,119,0.097862,65,F4,33,1
196560,164.802681,119,0.097862,50,D3,33,2
196680,164.901365,119,0.097862,62,D4,33,1
196680,164.901365,119,0.097862,57,A3,33,2
196800,165.00005,119,0.097861,65,F4,33,1
196800,165.00005,119,0.097861,50,D3,33,2
196920,165.098734,119,0.097862,62,D4,33,1
196920,165.098734,119,0.097862,57,A3,33,2
197040,165.197418,119,0.097862,65,F4,33,1
197040,165.197418,119,0.097862,50,D3,33,2
197160,165.296102,119,0.097862,62,D4,33,1
197160,165.296102,119,0.097862,57,A3,33,2
197280,165.394787,119,0.097861,65,F4,33,1
197280,165.394787,119,0.097861,50,D3,33,2
197400,165.493471,119,0.097862,62,D4,33,1
197400,165.493471,119,0.097862,57,A3,33,2
197520,165.592155,119,0.097862,65,F4,33,1
197520,165.592155,119,0.097862,50,D3,33,2
197640,165.690839,119,0.097862,62,D4,33,1
197640,165.690839,119,0.097862,57,A3,33,2
197760,165.789524,119,0.097861,65,F4,33,1
197760,165.789524,119,0.097861,50,D3,33,2
197880,165.888208,119,0.097862,62,D4,33,1
197880,165.888208,119,0.097862,57,A3,33,2
198000,165.986892,119,0.097862,65,F4,33,1
198000,165.986892,119,0.097862,50,D3,33,2
198120,166.085576,119,0.097862,62,D4,33,1
198120,166.085576,119,0.097862,57,A3,33,2
198240,166.184261,119,0.097861,65,F4,33,1
198240,166.184261,119,0.097861,50,D3,33,2
198360,166.282945,119,0.097862,62,D4,33,1
198360,166.282945,119,0.097862,57,A3,33,2
198480,166.381629,119,0.097862,65,F4,33,1
198480,166.381629,119,0.097862,50,D3,33,2
198600,166.480313,119,0.097862,62,D4,33,1
198600,166.480313,119,0.097862,57,A3,33,2
198720,166.578998,119,0.097861,65,F4,33,1
198720,166.578998,119,0.097861,50,D3,33,2
198840,166.677682,119,0.097862,62,D4,33,1
198840,166.677682,119,0.097862,57,A3,33,2
198960,166.776366,119,0.097862,65,F4,33,1
198960,166.776366,119,0.097862,50,D3,33,2
199080,166.87505,119,0.097862,62,D4,33,1
199080,166.87505,119,0.097862,57,A3,33,2
199200,166.973735,119,0.097861,68,G4#,33,1
199200,166.973735,119,0.097861,50,D3,33,2
199320,167.072419,119,0.097862,64,E4,33,1
199320,167.072419,119,0.097862,59,B3,33,2
199440,167.171103,119,0.097862,68,G4#,33,1
199440,167.171103,119,0.097862,50,D3,33,2
199560,167.269787,119,0.097862,64,E4,33,1
199560,167.269787,119,0.097862,59,B3,33,2
199680,167.368472,719,0.591283,69,A4,33,1
199680,167.368472,119,0.097861,52,E3,33,2
199680,167.368472,119,0.097861,48,C3,33,2
199800,167.467156,119,0.097862,57,A3,33,2
199920,167.56584,119,0.097862,52,E3,33,2
199920,167.56584,119,0.097862,48,C3,33,2
200040,167.664524,119,0.097862,57,A3,33,2
200160,167.763209,119,0.097861,52,E3,33,2
200160,167.763209,119,0.097861,48,C3,33,2
200280,167.861893,119,0.097862,57,A3,33,2
200400,167.960577,119,0.097862,72,C5,33,1
200400,167.960577,119,0.097862,52,E3,33,2
200400,167.960577,119,0.097862,48,C3,33,2
200520,168.059261,119,0.097862,71,B4,33,1
200520,168.059261,119,0.097862,57,A3,33,2
200640,168.157946,119,0.097861,69,A4,33,1
200640,168.157946,119,0.097861,52,E3,33,2
200640,168.157946,119,0.097861,48,C3,33,2
200760,168.25663,119,0.097862,57,A3,33,2
200880,168.355314,119,0.097862,52,E3,33,2
200880,168.355314,119,0.097862,48,C3,33,2
201000,168.453998,119,0.097862,57,A3,33,2
201120,168.552683,119,0.097861,52,E3,33,2
201120,168.552683,119,0.097861,48,C3,33,2
201240,168.651367,119,0.097862,57,A3,33,2
201360,168.750051,119,0.097862,52,E3,33,2
201360,168.750051,119,0.097862,48,C3,33,2
201480,168.848735,119,0.097862,57,A3,33,2
201600,168.94742,119,0.097861,87,D6#,37,1
201600,168.94742,119,0.097861,52,E3,37,2
201600,168.94742,119,0.097861,48,C3,37,2
201720,169.046104,599,0.492599,88,E6,37,1
201720,169.046104,119,0.097862,57,A3,37,2
201840,169.144788,119,0.097862,52,E3,41,2
201840,169.144788,119,0.097862,48,C3,41,2
201960,169.243472,119,0.097862,57,A3,41,2
202080,169.342157,119,0.097861,52,E3,45,2
202080,169.342157,119,0.097861,48,C3,45,2
202200,169.440841,119,0.097862,86,D6,45,1
202200,169.440841,119,0.097862,57,A3,45,2
202320,169.539525,119,0.097862,84,C6,49,1
202320,169.539525,119,0.097862,52,E3,49,2
202320,169.539525,119,0.097862,48,C3,49,2
202440,169.638209,119,0.097862,83,B5,49,1
202440,169.638209,119,0.097862,57,A3,49,2
202560,169.736894,239,0.196546,81,A5,53,1
202560,169.736894,119,0.097861,52,E3,53,2
202560,169.736894,119,0.097861,48,C3,53,2
202680,169.835578,119,0.097862,57,A3,53,2
202800,169.934262,119,0.097862,52,E3,57,2
202800,169.934262,119,0.097862,48,C3,57,2
202920,170.032946,119,0.097862,57,A3,57,2
203040,170.131631,119,0.097861,52,E3,61,2
203040,170.131631,119,0.097861,48,C3,61,2
203160,170.230315,119,0.097862,57,A3,61,2
203280,170.328999,119,0.097862,52,E3,65,2
203280,170.328999,119,0.097862,48,C3,65,2
203400,170.427683,119,0.097862,57,A3,65,2
203520,170.526368,119,0.097861,87,D6#,69,1
203520,170.526368,119,0.097861,52,E3,69,2
203520,170.526368,119,0.097861,48,C3,69,2
203640,170.625052,599,0.492599,88,E6,69,1
203640,170.625052,119,0.097862,58,A3#,69,2
203760,170.723736,119,0.097862,52,E3,73,2
203760,170.723736,119,0.097862,48,C3,73,2
203880,170.82242,119,0.097862,58,A3#,73,2
204000,170.921105,119,0.097861,52,E3,77,2
204000,170.921105,119,0.097861,48,C3,77,2
204120,171.019789,119,0.097862,86,D6,77,1
204120,171.019789,119,0.097862,58,A3#,77,2
204240,171.118473,119,0.097862,84,C6,81,1
204240,171.118473,119,0.097862,52,E3,81,2
204240,171.118473,119,0.097862,48,C3,81,2
204360,171.217157,119,0.097862,83,B5,81,1
204360,171.217157,119,0.097862,58,A3#,81,2
204480,171.315842,239,0.196546,82,A5#,86,1
204480,171.315842,119,0.097861,52,E3,86,2
204480,171.315842,119,0.097861,48,C3,86,2
204600,171.414526,119,0.097862,58,A3#,86,2
204720,171.51321,119,0.097862,52,E3,90,2
204720,171.51321,119,0.097862,48,C3,90,2
204840,171.611894,119,0.097862,58,A3#,90,2
204960,171.710579,119,0.097861,52,E3,93,2
204960,171.710579,119,0.097861,48,C3,93,2
205080,171.809263,119,0.097862,58,A3#,93,2
205200,171.907947,119,0.097862,52,E3,96,2
205200,171.907947,119,0.097862,48,C3,96,2
205320,172.006631,119,0.097862,58,A3#,96,2
205440,172.105316,599,0.492598,83,B5,49,1
205440,172.105316,119,0.097861,47,B2,49,2
205560,172.204,119,0.097862,51,D3#,49,2
205680,172.302684,119,0.097862,54,F3#,49,2
205800,172.401368,119,0.097862,59,B3,49,2
205920,172.500053,119,0.097861,47,B2,49,2
206040,172.598737,119,0.097862,81,A5,49,1
206040,172.598737,119,0.097862,51,D3#,49,2
206160,172.697421,119,0.097862,79,G5,49,1
206160,172.697421,119,0.097862,54,F3#,49,2
206280,172.796105,119,0.097862,78,F5#,49,1
206280,172.796105,119,0.097862,59,B3,49,2
206400,172.89479,119,0.097861,79,G5,49,1
206400,172.89479,119,0.097861,47,B2,49,2
206520,172.993474,119,0.097862,78,F5#,49,1
206520,172.993474,119,0.097862,52,E3,49,2
206640,173.092158,119,0.097862,76,E5,49,1
206640,173.092158,119,0.097862,55,G3,49,2
206760,173.190842,119,0.097862,75,D5#,49,1
206760,173.190842,119,0.097862,59,B3,49,2
206880,173.289527,119,0.097861,76,E5,49,1
206880,173.289527,119,0.097861,47,B2,49,2
207000,173.388211,119,0.097862,79,G5,49,1
207000,173.388211,119,0.097862,52,E3,49,2
207120,173.486895,119,0.097862,78,F5#,49,1
207120,173.486895,119,0.097862,55,G3,49,2
207240,173.585579,119,0.097862,76,E5,49,1
207240,173.585579,119,0.097862,59,B3,49,2
207360,173.684264,119,0.097861,75,D5#,49,1
207360,173.684264,119,0.097861,47,B2,49,2
207480,173.782948,119,0.097862,73,C5#,49,1
207480,173.782948,119,0.097862,54,F3#,49,2
207600,173.881632,119,0.097862,71,B4,49,1
207600,173.881632,119,0.097862,57,A3,49,2
207720,173.980316,119,0.097862,70,A4#,49,1
207720,173.980316,119,0.097862,59,B3,49,2
207840,174.079001,119,0.097861,71,B4,49,1
207840,174.079001,119,0.097861,47,B2,49,2
207960,174.177685,119,0.097862,73,C5#,49,1
207960,174.177685,119,0.097862,54,F3#,49,2
208080,174.276369,119,0.097862,74,D5,49,1
208080,174.276369,119,0.097862,57,A3,49,2
208200,174.375053,119,0.097862,75,D5#,49,1
208200,174.375053,119,0.097862,59,B3,49,2
208320,174.473738,119,0.097861,76,E5,49,1
208320,174.473738,119,0.097861,47,B2,49,2
208440,174.572422,119,0.097862,75,D5#,49,1
208440,174.572422,119,0.097862,52,E3,49,2
208560,174.671106,119,0.097862,76,E5,49,1
208560,174.671106,119,0.097862,55,G3,49,2
208680,174.76979,119,0.097862,78,F5#,49,1
208680,174.76979,119,0.097862,59,B3,49,2
208800,174.868475,119,0.097861,79,G5,49,1
208800,174.868475,119,0.097861,47,B2,49,2
208920,174.967159,119,0.097862,80,G5#,49,1
208920,174.967159,119,0.097862,52,E3,49,2
209040,175.065843,119,0.097862,81,A5,49,1
209040,175.065843,119,0.097862,55,G3,49,2
209160,175.164527,119,0.097862,82,A5#,49,1
209160,175.164527,119,0.097862,59,B3,49,2
209280,175.263212,119,0.097861,83,B5,49,1
209280,175.263212,119,0.097861,47,B2,49,2
209400,175.361896,119,0.097862,82,A5#,49,1
209400,175.361896,119,0.097862,51,D3#,49,2
209520,175.46058,119,0.097862,83,B5,49,1
209520,175.46058,119,0.097862,54,F3#,49,2
209640,175.559264,119,0.097862,82,A5#,49,1
209640,175.559264,119,0.097862,59,B3,49,2
209760,175.657949,119,0.097861,83,B5,49,1
209760,175.657949,119,0.097861,47,B2,49,2
209880,175.756633,119,0.097862,81,A5,49,1
209880,175.756633,119,0.097862,51,D3#,49,2
210000,175.855317,119,0.097862,79,G5,49,1
210000,175.855317,119,0.097862,54,F3#,49,2
210120,175.954001,119,0.097862,78,F5#,49,1
210120,175.954001,119,0.097862,59,B3,49,2
210240,176.052686,119,0.097861,79,G5,49,1
210240,176.052686,119,0.097861,47,B2,49,2
210360,176.15137,119,0.097862,78,F5#,49,1
210360,176.15137,119,0.097862,52,E3,49,2
210480,176.250054,119,0.097862,76,E5,49,1
210480,176.250054,119,0.097862,55,G3,49,2
210600,176.348738,119,0.097862,75,D5#,49,1
210600,176.348738,119,0.097862,59,B3,49,2
210720,176.447423,119,0.097861,76,E5,49,1
210720,176.447423,119,0.097861,47,B2,49,2
210840,176.546107,119,0.097862,79,G5,49,1
210840,176.546107,119,0.097862,52,E3,49,2
210960,176.644791,119,0.097862,78,F5#,49,1
210960,176.644791,119,0.097862,55,G3,49,2
211080,176.743475,119,0.097862,76,E5,49,1
211080,176.743475,119,0.097862,59,B3,49,2
211200,176.84216,119,0.097861,75,D5#,49,1
211200,176.84216,119,0.097861,47,B2,49,2
211320,176.940844,119,0.097862,73,C5#,49,1
211320,176.940844,119,0.097862,54,F3#,49,2
211440,177.039528,119,0.097862,71,B4,49,1
211440,177.039528,119,0.097862,57,A3,49,2
211560,177.138212,119,0.097862,70,A4#,49,1
211560,177.138212,119,0.097862,59,B3,49,2
211680,177.236897,119,0.097861,71,B4,49,1
211680,177.236897,119,0.097861,47,B2,49,2
211800,177.335581,119,0.097862,73,C5#,49,1
211800,177.335581,119,0.097862,54,F3#,49,2
211920,177.434265,119,0.097862,74,D5,49,1
211920,177.434265,119,0.097862,57,A3,49,2
212040,177.532949,119,0.097862,75,D5#,49,1
212040,177.532949,119,0.097862,59,B3,49,2
212160,177.631634,119,0.097861,76,E5,49,1
212160,177.631634,119,0.097861,47,B2,49,2
212280,177.730318,119,0.097862,75,D5#,49,1
212280,177.730318,119,0.097862,52,E3,49,2
212400,177.829002,119,0.097862,76,E5,49,1
212400,177.829002,119,0.097862,55,G3,49,2
212520,177.927686,119,0.097862,78,F5#,49,1
212520,177.927686,119,0.097862,59,B3,49,2
212640,178.026371,119,0.097861,79,G5,49,1
212640,178.026371,119,0.097861,47,B2,49,2
212760,178.125055,119,0.097862,80,G5#,49,1
212760,178.125055,119,0.097862,52,E3,49,2
212880,178.223739,119,0.097862,81,A5,49,1
212880,178.223739,119,0.097862,55,G3,49,2
213000,178.322423,119,0.097862,82,A5#,49,1
213000,178.322423,119,0.097862,59,B3,49,2
213120,178.421108,119,0.097861,83,B5,56,1
213120,178.421108,119,0.097861,47,B2,56,2
213240,178.519792,119,0.097862,78,F5#,56,1
213240,178.519792,119,0.097862,51,D3#,56,2
213360,178.618476,119,0.097862,75,D5#,61,1
213360,178.618476,119,0.097862,54,F3#,61,2
213480,178.71716,119,0.097862,71,B4,61,1
213480,178.71716,119,0.097862,59,B3,61,2
213600,178.815845,119,0.097861,70,A4#,66,1
213600,178.815845,119,0.097861,58,A3#,66,2
213720,178.914529,119,0.097862,71,B4,66,1
213720,178.914529,119,0.097862,59,B3,66,2
213840,179.013213,119,0.097862,76,E5,71,1
213840,179.013213,119,0.097862,55,G3,71,2
213960,179.111897,119,0.097862,79,G5,71,1
213960,179.111897,119,0.097862,52,E3,71,2
214080,179.210582,119,0.097861,83,B5,76,1
214080,179.210582,119,0.097861,47,B2,76,2
214200,179.309266,119,0.097862,78,F5#,76,1
214200,179.309266,119,0.097862,51,D3#,76,2
214320,179.40795,119,0.097862,75,D5#,81,1
214320,179.40795,119,0.097862,54,F3#,81,2
214440,179.506634,119,0.097862,71,B4,81,1
214440,179.506634,119,0.097862,59,B3,81,2
214560,179.605319,119,0.097861,70,A4#,86,1
214560,179.605319,119,0.097861,58,A3#,86,2
214680,179.704003,119,0.097862,71,B4,86,1
214680,179.704003,119,0.097862,59,B3,86,2
214800,179.802687,119,0.097862,76,E5,91,1
214800,179.802687,119,0.097862,55,G3,91,2
214920,179.901371,119,0.097862,79,G5,91,1
214920,179.901371,119,0.097862,52,E3,91,2
215040,180.000056,119,0.097861,83,B5,96,1
215040,180.000056,119,0.097861,47,B2,96,2
215160,180.09874,119,0.097862,78,F5#,96,1
215160,180.09874,119,0.097862,51,D3#,96,2
215280,180.197424,119,0.097862,75,D5#,96,1
215280,180.197424,119,0.097862,54,F3#,96,2
215400,180.296108,119,0.097862,71,B4,96,1
215400,180.296108,119,0.097862,59,B3,96,2
215520,180.394793,119,0.097861,83,B5,105,1
215520,180.394793,119,0.097861,47,B2,105,2
215640,180.493477,119,0.097862,79,G5,96,1
215640,180.493477,119,0.097862,52,E3,96,2
215760,180.592161,119,0.097862,76,E5,96,1
215760,180.592161,119,0.097862,55,G3,96,2
215880,180.690845,119,0.097862,71,B4,96,1
215880,180.690845,119,0.097862,59,B3,96,2
216000,180.78953,119,0.097861,83,B5,105,1
216000,180.78953,119,0.097861,47,B2,105,2
216120,180.888214,119,0.097862,78,F5#,96,1
216120,180.888214,119,0.097862,51,D3#,96,2
216240,180.986898,119,0.097862,75,D5#,96,1
216240,180.986898,119,0.097862,54,F3#,96,2
216360,181.085582,119,0.097862,71,B4,96,1
216360,181.085582,119,0.097862,59,B3,96,2
216480,181.184267,119,0.097861,83,B5,105,1
216480,181.184267,119,0.097861,47,B2,105,2
216600,181.282951,119,0.097862,79,G5,96,1
216600,181.282951,119,0.097862,52,E3,96,2
216720,181.381635,119,0.097862,76,E5,96,1
216720,181.381635,119,0.097862,55,G3,96,2
216840,181.480319,119,0.097862,71,B4,96,1
216840,181.480319,119,0.097862,59,B3,96,2
216960,181.579004,119,0.097861,83,B5,96,1
216960,181.579004,479,0.393914,59,B3,96,2
216960,181.579004,479,0.393914,54,F3#,96,2
216960,181.579004,479,0.393914,51,D3#,96,2
216960,181.579004,479,0.393914,47,B2,96,2
217080,181.677688,119,0.097862,78,F5#,96,1
217200,181.776372,119,0.097862,75,D5#,96,1
217320,181.875056,119,0.097862,71,B4,96,1
217440,181.973741,119,0.097861,78,F5#,96,1
217560,182.072425,119,0.097862,75,D5#,96,1
217680,182.171109,119,0.097862,71,B4,96,1
217800,182.269793,119,0.097862,66,F4#,96,1
217920,182.368478,119,0.097861,75,D5#,96,1
218040,182.467162,119,0.097862,71,B4,96,1
218160,182.565846,119,0.097862,66,F4#,96,1
218280,182.66453,119,0.097862,63,D4#,96,1
218400,182.763215,119,0.097861,71,B4,96,1
218520,182.861899,119,0.097862,66,F4#,96,1
218640,182.960583,119,0.097862,63,D4#,96,1
218760,183.059267,119,0.097862,59,B3,96,1
218880,183.157952,119,0.097861,66,F4#,96,1
219000,183.256636,119,0.097862,63,D4#,96,1
219120,183.35532,119,0.097862,59,B3,96,1
219240,183.454004,119,0.097862,54,F3#,96,1
219360,183.552689,119,0.097861,63,D4#,96,1
219480,183.651373,119,0.097862,59,B3,96,1
219600,183.750057,119,0.097862,54,F3#,96,1
219720,183.848741,119,0.097862,51,D3#,96,1
219840,183.947426,119,0.097861,59,B3,96,1
219960,184.04611,119,0.097862,54,F3#,96,1
220080,184.144794,119,0.097862,51,D3#,96,1
220200,184.243478,119,0.097862,47,B2,96,1
220320,184.342163,119,0.097861,35,B1,96,2
220440,184.440847,119,0.097862,39,D2#,96,2
220560,184.539531,119,0.097862,42,F2#,96,2
220680,184.638215,119,0.097862,47,B2,96,2
220800,184.7369,119,0.097861,35,B1,94,2
221040,184.934268,119,0.097862,47,B2,92,2
221280,185.131637,119,0.097861,37,C2#,90,2
221520,185.329005,119,0.097862,49,C3#,89,2
221760,185.526374,119,0.097861,71,B4,87,1
221760,185.526374,119,0.097861,39,D2#,87,2
222000,185.723742,119,0.097862,59,B3,85,1
222000,185.723742,119,0.097862,51,D3#,85,2
222240,185.921111,119,0.097861,73,C5#,83,1
222480,186.118479,119,0.097862,61,C4#,81,1
222720,186.315848,119,0.097861,75,D5#,78,1
222720,186.315848,119,0.097861,39,D2#,78,2
222960,186.513216,119,0.097862,63,D4#,75,1
222960,186.513216,119,0.097862,51,D3#,75,2
223200,186.710585,119,0.097861,40,E2,72,2
223440,186.907953,119,0.097862,52,E3,69,2
223680,187.105322,119,0.097861,75,D5#,66,1
223680,187.105322,119,0.097861,42,F2#,66,2
223920,187.30269,119,0.097862,63,D4#,60,1
223920,187.30269,119,0.097862,54,F3#,60,2
224160,187.500059,119,0.097861,76,E5,57,1
224400,187.697427,119,0.097862,64,E4,53,1
224640,187.894796,119,0.097861,78,F5#,49,1
224880,188.092164,119,0.097862,66,F4#,49,1
225120,188.289533,119,0.097861,80,G5#,49,1
225360,188.486901,119,0.097862,68,G4#,49,1
225600,188.68427,119,0.097861,81,A5,49,1
225600,188.68427,119,0.097861,42,F2#,49,2
225840,188.881638,119,0.097862,69,A4,49,1
225840,188.881638,119,0.097862,54,F3#,49,2
226080,189.079007,119,0.097861,81,A5,49,1
226080,189.079007,119,0.097861,44,G2#,49,2
226320,189.276375,119,0.097862,71,B4,49,1
226320,189.276375,119,0.097862,56,G3#,49,2
226560,189.473744,119,0.097861,81,A5,49,1
226560,189.473744,119,0.097861,45,A2,49,2
226800,189.671112,119,0.097862,73,C5#,49,1
226800,189.671112,119,0.097862,57,A3,49,2
227040,189.868481,119,0.097861,81,A5,49,1
227040,189.868481,119,0.097861,47,B2,49,2
227280,190.065849,119,0.097862,75,D5#,49,1
227280,190.065849,119,0.097862,59,B3,49,2
227520,190.263218,119,0.097861,81,A5,49,1
227520,190.263218,119,0.097861,49,C3#,49,2
227760,190.460586,119,0.097862,76,E5,49,1
227760,190.460586,119,0.097862,61,C4#,49,2
228000,190.657955,119,0.097861,81,A5,49,1
228000,190.657955,119,0.097861,51,D3#,49,2
228240,190.855323,119,0.097862,78,F5#,49,1
228240,190.855323,119,0.097862,63,D4#,49,2
228480,191.052692,959,0.788651,76,E5,49,1
228480,191.052692,959,0.788651,71,B4,49,1
228480,191.052692,959,0.788651,80,G5#,49,1
228480,191.052692,959,0.788651,68,G4#,49,2
228480,191.052692,959,0.788651,64,E4,49,2
229440,191.842166,479,0.393914,75,D5#,49,1
229440,191.842166,479,0.393914,69,A4,49,1
229440,191.842166,479,0.393914,78,F5#,49,1
229440,191.842166,479,0.393914,66,F4#,49,2
229440,191.842166,479,0.393914,63,D4#,49,2
229440,191.842166,479,0.393914,59,B3,49,2
229920,192.236903,479,0.393914,73,C5#,49,1
229920,192.236903,479,0.393914,68,G4#,49,1
229920,192.236903,479,0.393914,76,E5,49,1
229920,192.236903,479,0.393914,64,E4,49,2
229920,192.236903,479,0.393914,61,C4#,49,2
230400,192.63164,959,0.788651,66,F4#,49,1
230400,192.63164,959,0.788651,75,D5#,49,1
230400,192.63164,959,0.788651,72,C5,49,1
230400,192.63164,959,0.788651,63,D4#,49,2
230400,192.63164,959,0.788651,60,C4,49,2
230400,192.63164,959,0.788651,56,G3#,49,2
231360,193.421114,959,0.788651,64,E4,49,1
231360,193.421114,959,0.788651,73,C5#,49,1
231360,193.421114,959,0.788651,61,C4#,49,2
231360,193.421114,959,0.788651,57,A3,49,2
232320,194.210588,959,0.788651,71,B4,52,1
232320,194.210588,959,0.788651,69,A4,52,1
232320,194.210588,959,0.788651,75,D5#,52,1
232320,194.210588,959,0.788651,63,D4#,52,2
232320,194.210588,959,0.788651,59,B3,52,2
232320,194.210588,959,0.788651,57,A3,52,2
232320,194.210588,959,0.788651,54,F3#,52,2
233280,195.000062,479,0.393914,71,B4,57,1
233280,195.000062,479,0.393914,76,E5,57,1
233280,195.000062,479,0.393914,64,E4,57,2
233280,195.000062,479,0.393914,59,B3,57,2
233280,195.000062,479,0.393914,56,G3#,57,2
233760,195.394799,479,0.393914,76,E5,60,1
233760,195.394799,479,0.393914,73,C5#,60,1
233760,195.394799,479,0.393914,78,F5#,60,1
233760,195.394799,479,0.393914,66,F4#,60,2
233760,195.394799,479,0.393914,61,C4#,60,2
233760,195.394799,479,0.393914,57,A3,60,2
234240,195.789536,1439,1.183388,71,B4,64,1
234240,195.789536,959,0.788651,80,G5#,64,1
234240,195.789536,959,0.788651,76,E5,64,1
234240,195.789536,1919,1.578125,59,B3,64,2
234240,195.789536,959,0.788651,68,G4#,64,2
234240,195.789536,959,0.788651,64,E4,64,2
235200,196.57901,959,0.788651,78,F5#,56,1
235200,196.57901,959,0.788651,75,D5#,56,1
235200,196.57901,959,0.788651,66,F4#,56,2
235200,196.57901,959,0.788651,63,D4#,56,2
235680,196.973747,479,0.393914,69,A4,56,1
236160,197.368484,959,0.788651,68,G4#,49,1
236160,197.368484,959,0.788651,64,E4,49,1
236160,197.368484,959,0.788651,59,B3,49,1
236160,197.368484,959,0.788651,56,G3#,49,2
236160,197.368484,959,0.788651,52,E3,49,2
237120,198.157958,479,0.393914,66,F4#,49,1
237120,198.157958,479,0.393914,63,D4#,49,1
237120,198.157958,479,0.393914,57,A3,49,1
237120,198.157958,479,0.393914,54,F3#,49,2
237120,198.157958,479,0.393914,51,D3#,49,2
237120,198.157958,479,0.393914,47,B2,49,2
237600,198.552695,479,0.393914,64,E4,49,1
237600,198.552695,479,0.393914,61,C4#,49,1
237600,198.552695,479,0.393914,56,G3#,49,1
237600,198.552695,479,0.393914,52,E3,49,2
237600,198.552695,479,0.393914,49,C3#,49,2
238080,198.947432,959,0.788651,63,D4#,49,1
238080,198.947432,959,0.788651,60,C4,49,1
238080,198.947432,959,0.788651,54,F3#,49,1
238080,198.947432,959,0.788651,51,D3#,49,2
238080,198.947432,959,0.788651,48,C3,49,2
238080,198.947432,959,0.788651,44,G2#,49,2
239040,199.736906,959,0.788651,61,C4#,49,1
239040,199.736906,959,0.788651,57,A3,49,1
239040,199.736906,959,0.788651,52,E3,49,1
239040,199.736906,959,0.788651,49,C3#,49,2
239040,199.736906,959,0.788651,45,A2,49,2
240000,200.52638,959,0.788651,59,B3,49,1
240000,200.52638,1919,1.578125,47,B2,49,2
240000,200.52638,1919,1.578125,35,B1,49,2
240000,200.52638,479,0.393914,56,G3#,49,2
240000,200.52638,479,0.393914,52,E3,49,2
240480,200.921117,1439,1.183388,57,A3,53,2
240480,200.921117,1439,1.183388,54,F3#,53,2
240960,201.315854,479,0.393914,61,C4#,57,1
241440,201.710591,479,0.393914,63,D4#,61,1
241920,202.105328,159,0.130756,64,E4,49,1
241920,202.105328,159,0.130756,56,G3#,49,1
241920,202.105328,479,0.393914,52,E3,49,2
241920,202.105328,479,0.393914,40,E2,49,2
242080,202.236907,159,0.130756,66,F4#,49,1
242240,202.368486,159,0.130756,68,G4#,49,1
242400,202.500065,159,0.130756,69,A4,49,1
242560,202.631644,159,0.130756,71,B4,49,1
242720,202.763223,159,0.130756,73,C5#,49,1
242880,202.894802,159,0.130756,74,D5,49,1
243040,203.026381,159,0.130756,75,D5#,49,1
243200,203.15796,159,0.130756,76,E5,49,1
243360,203.289539,159,0.130756,77,F5,49,1
243520,203.421118,159,0.130756,78,F5#,49,1
243680,203.552697,159,0.130756,79,G5,49,1
243840,203.684276,959,0.788651,71,B4,49,1
243840,203.684276,159,0.130756,80,G5#,49,1
243840,203.684276,959,0.788651,68,G4#,49,2
243840,203.684276,959,0.788651,64,E4,49,2
244000,203.815855,159,0.130756,79,G5,49,1
244160,203.947434,159,0.130756,80,G5#,49,1
244320,204.079013,159,0.130756,81,A5,49,1
244480,204.210592,159,0.130756,79,G5,49,1
244640,204.342171,159,0.130756,80,G5#,49,1
244800,204.47375,479,0.393914,69,A4,49,1
244800,204.47375,479,0.393914,66,F4#,49,2
244800,204.47375,479,0.393914,63,D4#,49,2
244800,204.47375,479,0.393914,59,B3,49,2
244960,204.605329,159,0.130756,80,G5#,49,1
245120,204.736908,159,0.130756,78,F5#,49,1
245280,204.868487,479,0.393914,68,G4#,49,1
245280,204.868487,479,0.393914,64,E4,49,2
245280,204.868487,479,0.393914,61,C4#,49,2
245440,205.000066,159,0.130756,78,F5#,49,1
245600,205.131645,159,0.130756,76,E5,49,1
245760,205.263224,159,0.130756,66,F4#,49,1
245760,205.263224,159,0.130756,66,F4#,49,1
245760,205.263224,959,0.788651,63,D4#,49,2
245760,205.263224,959,0.788651,60,C4,49,2
245760,205.263224,959,0.788651,56,G3#,49,2
245920,205.394803,159,0.130756,72,C5,49,1
246080,205.526382,159,0.130756,75,D5#,49,1
246240,205.657961,159,0.130756,76,E5,49,1
246400,205.78954,159,0.130756,72,C5,49,1
246560,205.921119,159,0.130756,75,D5#,49,1
246720,206.052698,159,0.130756,64,E4,49,1
246720,206.052698,159,0.130756,64,E4,49,1
246720,206.052698,959,0.788651,61,C4#,49,2
246720,206.052698,959,0.788651,57,A3,49,2
246880,206.184277,159,0.130756,69,A4,49,1
247040,206.315856,159,0.130756,73,C5#,49,1
247200,206.447435,159,0.130756,75,D5#,49,1
247360,206.579014,159,0.130756,69,A4,49,1
247520,206.710593,159,0.130756,73,C5#,49,1
247680,206.842172,159,0.130756,69,A4,52,1
247680,206.842172,159,0.130756,69,A4,52,1
247680,206.842172,959,0.788651,63,D4#,52,2
247680,206.842172,959,0.788651,59,B3,52,2
247680,206.842172,959,0.788651,57,A3,52,2
247680,206.842172,959,0.788651,54,F3#,52,2
247840,206.973751,159,0.130756,74,D5,52,1
248000,207.10533,159,0.130756,75,D5#,52,1
248160,207.236909,159,0.130756,76,E5,55,1
248320,207.368488,159,0.130756,74,D5,55,1
248480,207.500067,159,0.130756,75,D5#,55,1
248640,207.631646,479,0.393914,71,B4,58,1
248640,207.631646,479,0.393914,64,E4,58,2
248640,207.631646,479,0.393914,59,B3,58,2
248640,207.631646,479,0.393914,56,G3#,58,2
248800,207.763225,159,0.130756,78,F5#,58,1
248960,207.894804,159,0.130756,76,E5,58,1
249120,208.026383,479,0.393914,73,C5#,64,1
249120,208.026383,479,0.393914,66,F4#,64,2
249120,208.026383,479,0.393914,61,C4#,64,2
249120,208.026383,479,0.393914,57,A3,64,2
249280,208.157962,159,0.130756,80,G5#,64,1
249440,208.289541,159,0.130756,78,F5#,64,1
249600,208.42112,959,0.788651,76,E5,64,1
249600,208.42112,159,0.130756,80,G5#,64,1
249600,208.42112,1439,1.183388,59,B3,64,2
249600,208.42112,959,0.788651,68,G4#,64,2
249600,208.42112,959,0.788651,64,E4,64,2
249760,208.552699,159,0.130756,79,G5,64,1
249920,208.684278,159,0.130756,80,G5#,64,1
250080,208.815857,159,0.130756,83,B5,59,1
250240,208.947436,159,0.130756,81,A5,59,1
250400,209.079015,159,0.130756,80,G5#,59,1
250560,209.210594,159,0.130756,75,D5#,55,1
250560,209.210594,159,0.130756,78,F5#,55,1
250560,209.210594,479,0.393914,66,F4#,55,2
250560,209.210594,479,0.393914,63,D4#,55,2
250720,209.342173,159,0.130756,73,C5#,55,1
250720,209.342173,159,0.130756,76,E5,55,1
250880,209.473752,159,0.130756,71,B4,55,1
250880,209.473752,159,0.130756,75,D5#,55,1
251040,209.605331,159,0.130756,69,A4,49,1
251040,209.605331,159,0.130756,73,C5#,49,1
251040,209.605331,159,0.130756,47,B2,49,2
251200,209.73691,159,0.130756,68,G4#,49,1
251200,209.73691,159,0.130756,71,B4,49,1
251200,209.73691,159,0.130756,49,C3#,49,2
251360,209.868489,159,0.130756,66,F4#,49,1
251360,209.868489,159,0.130756,69,A4,49,1
251360,209.868489,159,0.130756,51,D3#,49,2
251520,210.000068,959,0.788651,59,B3,49,1
251520,210.000068,159,0.130756,68,G4#,49,1
251520,210.000068,959,0.788651,56,G3#,49,2
251520,210.000068,959,0.788651,52,E3,49,2
251680,210.131647,159,0.130756,67,G4,49,1
251840,210.263226,159,0.130756,68,G4#,49,1
252000,210.394805,159,0.130756,69,A4,49,1
252160,210.526384,159,0.130756,67,G4,49,1
252320,210.657963,159,0.130756,68,G4#,49,1
252480,210.789542,479,0.393914,57,A3,49,1
252480,210.789542,479,0.393914,54,F3#,49,2
252480,210.789542,479,0.393914,51,D3#,49,2
252480,210.789542,479,0.393914,47,B2,49,2
252640,210.921121,159,0.130756,68,G4#,49,1
252800,211.0527,159,0.130756,66,F4#,49,1
252960,211.184279,479,0.393914,56,G3#,49,1
252960,211.184279,479,0.393914,52,E3,49,2
252960,211.184279,479,0.393914,49,C3#,49,2
253120,211.315858,159,0.130756,66,F4#,49,1
253280,211.447437,159,0.130756,64,E4,49,1
253440,211.579016,159,0.130756,54,F3#,49,1
253440,211.579016,159,0.130756,54,F3#,49,1
253440,211.579016,959,0.788651,51,D3#,49,2
253440,211.579016,959,0.788651,48,C3,49,2
253440,211.579016,959,0.788651,44,G2#,49,2
253600,211.710595,159,0.130756,60,C4,49,1
253760,211.842174,159,0.130756,63,D4#,49,1
253920,211.973753,159,0.130756,64,E4,49,1
254080,212.105332,159,0.130756,60,C4,49,1
254240,212.236911,159,0.130756,63,D4#,49,1
254400,212.36849,159,0.130756,52,E3,49,1
254400,212.36849,159,0.130756,52,E3,49,1
254400,212.36849,959,0.788651,49,C3#,49,2
254400,212.36849,959,0.788651,45,A2,49,2
254560,212.500069,159,0.130756,57,A3,49,1
254720,212.631648,159,0.130756,61,C4#,49,1
254880,212.763227,159,0.130756,63,D4#,49,1
255040,212.894806,159,0.130756,57,A3,49,1
255200,213.026385,159,0.130756,61,C4#,49,1
255360,213.157964,479,0.393914,52,E3,55,1
255360,213.157964,1919,1.578125,47,B2,55,2
255360,213.157964,1919,1.578125,35,B1,55,2
255520,213.289543,159,0.130756,56,G3#,55,1
255680,213.421122,159,0.130756,59,B3,55,1
255840,213.552701,479,0.393914,54,F3#,55,1
256000,213.68428,159,0.130756,57,A3,55,1
256160,213.815859,159,0.130756,59,B3,55,1
256320,213.947438,479,0.393914,54,F3#,55,1
256480,214.079017,159,0.130756,57,A3,55,1
256640,214.210596,159,0.130756,61,C4#,55,1
256800,214.342175,479,0.393914,54,F3#,55,1
256960,214.473754,159,0.130756,57,A3,55,1
257120,214.605333,159,0.130756,63,D4#,55,1
257280,214.736912,159,0.130756,64,E4,61,1
257280,214.736912,159,0.130756,56,G3#,61,1
257280,214.736912,479,0.393914,52,E3,61,2
257280,214.736912,479,0.393914,40,E2,61,2
257440,214.868491,159,0.130756,59,B3,61,1
257600,215.00007,159,0.130756,56,G3#,61,1
257760,215.131649,159,0.130756,59,B3,61,1
257760,215.131649,959,0.788651,47,B2,61,2
257920,215.263228,159,0.130756,64,E4,61,1
258080,215.394807,159,0.130756,68,G4#,61,1
258240,215.526386,159,0.130756,66,F4#,61,1
258400,215.657965,159,0.130756,63,D4#,61,1
258560,215.789544,159,0.130756,59,B3,61,1
258720,215.921123,159,0.130756,63,D4#,61,1
258720,215.921123,959,0.788651,47,B2,61,2
258880,216.052702,159,0.130756,66,F4#,61,1
259040,216.184281,159,0.130756,69,A4,61,1
259200,216.31586,159,0.130756,68,G4#,67,1
259360,216.447439,159,0.130756,64,E4,67,1
259520,216.579018,159,0.130756,59,B3,67,1
259680,216.710597,159,0.130756,64,E4,67,1
259680,216.710597,959,0.788651,47,B2,67,2
259840,216.842176,159,0.130756,68,G4#,67,1
260000,216.973755,159,0.130756,71,B4,67,1
260160,217.105334,159,0.130756,69,A4,67,1
260320,217.236913,159,0.130756,66,F4#,67,1
260480,217.368492,159,0.130756,63,D4#,67,1
260640,217.500071,159,0.130756,75,D5#,67,1
260640,217.500071,479,0.393914,47,B2,67,2
260800,217.63165,159,0.130756,69,A4,67,1
260960,217.763229,159,0.130756,66,F4#,67,1
261120,217.894808,479,0.393914,76,E5,73,1
261120,217.894808,479,0.393914,68,G4#,73,1
261120,217.894808,159,0.130756,52,E3,73,2
261280,218.026387,159,0.130756,47,B2,73,2
261440,218.157966,159,0.130756,44,G2#,73,2
261600,218.289545,959,0.788651,71,B4,73,1
261600,218.289545,159,0.130756,47,B2,73,2
261760,218.421124,159,0.130756,52,E3,73,2
261920,218.552703,159,0.130756,56,G3#,73,2
262080,218.684282,159,0.130756,54,F3#,73,2
262240,218.815861,159,0.130756,51,D3#,73,2
262400,218.94744,159,0.130756,47,B2,73,2
262560,219.079019,959,0.788651,71,B4,73,1
262560,219.079019,159,0.130756,51,D3#,73,2
262720,219.210598,159,0.130756,54,F3#,73,2
262880,219.342177,159,0.130756,57,A3,73,2
263040,219.473756,159,0.130756,56,G3#,79,2
263200,219.605335,159,0.130756,52,E3,79,2
263360,219.736914,159,0.130756,47,B2,79,2
263520,219.868493,959,0.788651,71,B4,79,1
263520,219.868493,159,0.130756,52,E3,79,2
263680,220.000072,159,0.130756,56,G3#,79,2
263840,220.131651,159,0.130756,59,B3,79,2
264000,220.26323,159,0.130756,57,A3,79,2
264160,220.394809,159,0.130756,54,F3#,79,2
264320,220.526388,159,0.130756,51,D3#,79,2
264480,220.657967,479,0.393914,71,B4,79,1
264480,220.657967,159,0.130756,63,D4#,79,2
264640,220.789546,159,0.130756,57,A3,79,2
264800,220.921125,159,0.130756,54,F3#,79,2
264960,221.052704,159,0.130756,76,E5,87,1
264960,221.052704,159,0.130756,56,G3#,87,2
265120,221.184283,159,0.130756,71,B4,87,1
265120,221.184283,159,0.130756,59,B3,87,2
265280,221.315862,159,0.130756,68,G4#,87,1
265280,221.315862,159,0.130756,64,E4,87,2
265440,221.447441,159,0.130756,71,B4,87,1
265440,221.447441,159,0.130756,59,B3,87,2
265600,221.57902,159,0.130756,76,E5,87,1
265600,221.57902,159,0.130756,56,G3#,87,2
265760,221.710599,159,0.130756,80,G5#,87,1
265760,221.710599,159,0.130756,52,E3,87,2
265920,221.842178,159,0.130756,78,F5#,87,1
265920,221.842178,159,0.130756,51,D3#,87,2
266080,221.973757,159,0.130756,75,D5#,87,1
266080,221.973757,159,0.130756,54,F3#,87,2
266240,222.105336,159,0.130756,71,B4,87,1
266240,222.105336,159,0.130756,57,A3,87,2
266400,222.236915,159,0.130756,75,D5#,87,1
266400,222.236915,159,0.130756,54,F3#,87,2
266560,222.368494,159,0.130756,78,F5#,87,1
266560,222.368494,159,0.130756,51,D3#,87,2
266720,222.500073,159,0.130756,81,A5,87,1
266720,222.500073,159,0.130756,47,B2,87,2
266880,222.631652,159,0.130756,80,G5#,96,1
266880,222.631652,159,0.130756,52,E3,96,2
267040,222.763231,159,0.130756,76,E5,96,1
267040,222.763231,159,0.130756,56,G3#,96,2
267200,222.89481,159,0.130756,71,B4,96,1
267200,222.89481,159,0.130756,59,B3,96,2
267360,223.026389,159,0.130756,76,E5,96,1
267360,223.026389,159,0.130756,56,G3#,96,2
267520,223.157968,159,0.130756,80,G5#,96,1
267520,223.157968,159,0.130756,52,E3,96,2
267680,223.289547,159,0.130756,83,B5,96,1
267680,223.289547,159,0.130756,47,B2,96,2
267840,223.421126,159,0.130756,81,A5,96,1
267840,223.421126,159,0.130756,54,F3#,96,2
268000,223.552705,159,0.130756,78,F5#,96,1
268000,223.552705,159,0.130756,57,A3,96,2
268160,223.684284,159,0.130756,75,D5#,96,1
268160,223.684284,159,0.130756,59,B3,96,2
268320,223.815863,159,0.130756,87,D6#,96,1
268320,223.815863,159,0.130756,57,A3,96,2
268480,223.947442,159,0.130756,83,B5,96,1
268480,223.947442,159,0.130756,59,B3,96,2
268640,224.079021,159,0.130756,78,F5#,96,1
268640,224.079021,159,0.130756,66,F4#,96,2
268800,224.2106,159,0.130756,88,E6,87,1
268800,224.2106,159,0.130756,56,G3#,87,2
268960,224.342179,159,0.130756,83,B5,87,1
268960,224.342179,159,0.130756,59,B3,87,2
269120,224.473758,159,0.130756,80,G5#,87,1
269120,224.473758,159,0.130756,64,E4,87,2
269280,224.605337,159,0.130756,83,B5,87,1
269280,224.605337,159,0.130756,52,E3,87,2
269440,224.736916,159,0.130756,80,G5#,87,1
269440,224.736916,159,0.130756,56,G3#,87,2
269600,224.868495,159,0.130756,76,E5,87,1
269600,224.868495,159,0.130756,59,B3,87,2
269760,225.000074,159,0.130756,81,A5,78,1
269760,225.000074,159,0.130756,54,F3#,78,2
269920,225.131653,159,0.130756,78,F5#,78,1
269920,225.131653,159,0.130756,57,A3,78,2
270080,225.263232,159,0.130756,75,D5#,78,1
270080,225.263232,159,0.130756,59,B3,78,2
270240,225.394811,159,0.130756,87,D6#,78,1
270240,225.394811,159,0.130756,57,A3,78,2
270400,225.52639,159,0.130756,83,B5,78,1
270400,225.52639,159,0.130756,59,B3,78,2
270560,225.657969,159,0.130756,78,F5#,78,1
270560,225.657969,159,0.130756,66,F4#,78,2
270720,225.789548,159,0.130756,88,E6,76,1
270720,225.789548,159,0.130756,56,G3#,76,2
270880,225.921127,159,0.130756,83,B5,76,1
270880,225.921127,159,0.130756,59,B3,76,2
271040,226.052706,159,0.130756,80,G5#,76,1
271040,226.052706,159,0.130756,64,E4,76,2
271200,226.184285,159,0.130756,83,B5,76,1
271200,226.184285,159,0.130756,52,E3,76,2
271360,226.315864,159,0.130756,80,G5#,76,1
271360,226.315864,159,0.130756,56,G3#,76,2
271520,226.447443,159,0.130756,76,E5,76,1
271520,226.447443,159,0.130756,59,B3,76,2
271680,226.579022,159,0.130756,81,A5,67,1
271680,226.579022,159,0.130756,54,F3#,67,2
271840,226.710601,159,0.130756,78,F5#,67,1
271840,226.710601,159,0.130756,57,A3,67,2
272000,226.84218,159,0.130756,75,D5#,67,1
272000,226.84218,159,0.130756,59,B3,67,2
272160,226.973759,159,0.130756,87,D6#,58,1
272160,226.973759,159,0.130756,57,A3,58,2
272320,227.105338,159,0.130756,83,B5,58,1
272320,227.105338,159,0.130756,59,B3,58,2
272480,227.236917,159,0.130756,78,F5#,58,1
272480,227.236917,159,0.130756,66,F4#,58,2
272640,227.368496,119,0.097861,88,E6,49,1
272640,227.368496,119,0.097861,56,G3#,49,2
272760,227.46718,119,0.097862,83,B5,49,1
272760,227.46718,119,0.097862,59,B3,49,2
272880,227.565864,119,0.097862,80,G5#,49,1
272880,227.565864,119,0.097862,52,E3,49,2
273000,227.664548,119,0.097862,76,E5,49,1
273000,227.664548,119,0.097862,59,B3,49,2
273120,227.763233,119,0.097861,81,A5,55,1
273120,227.763233,119,0.097861,54,F3#,55,2
273240,227.861917,119,0.097862,78,F5#,55,1
273240,227.861917,119,0.097862,59,B3,55,2
273360,227.960601,119,0.097862,87,D6#,55,1
273360,227.960601,119,0.097862,57,A3,55,2
273480,228.059285,119,0.097862,83,B5,55,1
273480,228.059285,119,0.097862,59,B3,55,2
273600,228.15797,119,0.097861,88,E6,61,1
273600,228.15797,119,0.097861,56,G3#,61,2
273720,228.256654,119,0.097862,83,B5,61,1
273720,228.256654,119,0.097862,59,B3,61,2
273840,228.355338,119,0.097862,80,G5#,61,1
273840,228.355338,119,0.097862,52,E3,61,2
273960,228.454022,119,0.097862,76,E5,61,1
273960,228.454022,119,0.097862,59,B3,61,2
274080,228.552707,119,0.097861,81,A5,67,1
274080,228.552707,119,0.097861,54,F3#,67,2
274200,228.651391,119,0.097862,78,F5#,67,1
274200,228.651391,119,0.097862,59,B3,67,2
274320,228.750075,119,0.097862,87,D6#,67,1
274320,228.750075,119,0.097862,57,A3,67,2
274440,228.848759,119,0.097862,83,B5,67,1
274440,228.848759,119,0.097862,59,B3,67,2
274560,228.947444,119,0.097861,88,E6,73,1
274560,228.947444,119,0.097861,56,G3#,73,2
274680,229.046128,119,0.097862,83,B5,73,1
274680,229.046128,119,0.097862,59,B3,73,2
274800,229.144812,119,0.097862,87,D6#,73,1
274800,229.144812,119,0.097862,57,A3,73,2
274920,229.243496,119,0.097862,83,B5,73,1
274920,229.243496,119,0.097862,59,B3,73,2
275040,229.342181,119,0.097861,88,E6,79,1
275040,229.342181,119,0.097861,56,G3#,79,2
275160,229.440865,119,0.097862,83,B5,79,1
275160,229.440865,119,0.097862,59,B3,79,2
275280,229.539549,119,0.097862,87,D6#,79,1
275280,229.539549,119,0.097862,57,A3,79,2
275400,229.638233,119,0.097862,83,B5,79,1
275400,229.638233,119,0.097862,59,B3,79,2
275520,229.736918,119,0.097861,88,E6,85,1
275520,229.736918,119,0.097861,56,G3#,85,2
275640,229.835602,119,0.097862,83,B5,85,1
275640,229.835602,119,0.097862,59,B3,85,2
275760,229.934286,119,0.097862,87,D6#,85,1
275760,229.934286,119,0.097862,57,A3,85,2
275880,230.03297,119,0.097862,83,B5,85,1
275880,230.03297,119,0.097862,59,B3,85,2
276000,230.131655,119,0.097861,88,E6,90,1
276000,230.131655,119,0.097861,56,G3#,90,2
276120,230.230339,119,0.097862,83,B5,90,1
276120,230.230339,119,0.097862,59,B3,90,2
276240,230.329023,119,0.097862,87,D6#,90,1
276240,230.329023,119,0.097862,57,A3,90,2
276360,230.427707,119,0.097862,83,B5,90,1
276360,230.427707,119,0.097862,59,B3,90,2
276480,230.526392,119,0.097861,88,E6,96,1
276480,230.526392,119,0.097861,56,G3#,96,2
276600,230.625076,119,0.097862,83,B5,96,1
276600,230.625076,119,0.097862,59,B3,96,2
276720,230.72376,119,0.097862,86,D6,96,1
276720,230.72376,119,0.097862,44,G2#,96,2
276840,230.822444,119,0.097862,83,B5,96,1
276840,230.822444,119,0.097862,52,E3,96,2
276960,230.921129,119,0.097861,86,D6,96,1
276960,230.921129,119,0.097861,44,G2#,96,2
277080,231.019813,119,0.097862,83,B5,96,1
277080,231.019813,119,0.097862,52,E3,96,2
277200,231.118497,119,0.097862,86,D6,96,1
277200,231.118497,119,0.097862,44,G2#,96,2
277320,231.217181,119,0.097862,83,B5,96,1
277320,231.217181,119,0.097862,52,E3,96,2
277440,231.315866,119,0.097861,86,D6,96,1
277440,231.315866,119,0.097861,44,G2#,96,2
277560,231.41455,119,0.097862,83,B5,96,1
277560,231.41455,119,0.097862,52,E3,96,2
277680,231.513234,119,0.097862,86,D6,96,1
277680,231.513234,119,0.097862,44,G2#,96,2
277800,231.611918,119,0.097862,83,B5,96,1
277800,231.611918,119,0.097862,52,E3,96,2
277920,231.710603,119,0.097861,86,D6,96,1
277920,231.710603,119,0.097861,44,G2#,96,2
278040,231.809287,119,0.097862,83,B5,96,1
278040,231.809287,119,0.097862,52,E3,96,2
278160,231.907971,119,0.097862,86,D6,96,1
278160,231.907971,119,0.097862,44,G2#,96,2
278280,232.006655,119,0.097862,83,B5,96,1
278280,232.006655,119,0.097862,52,E3,96,2
278400,232.10534,239,0.196546,86,D6,96,1
278400,232.10534,119,0.097861,44,G2#,96,2
278520,232.204024,119,0.097862,52,E3,96,2
278640,232.302708,119,0.097862,85,C6#,96,1
278640,232.302708,119,0.097862,44,G2#,96,2
278760,232.401392,119,0.097862,83,B5,96,1
278760,232.401392,119,0.097862,52,E3,96,2
278880,232.500077,119,0.097861,81,A5,96,1
278880,232.500077,119,0.097861,44,G2#,96,2
279000,232.598761,119,0.097862,80,G5#,96,1
279000,232.598761,119,0.097862,52,E3,96,2
279120,232.697445,119,0.097862,78,F5#,96,1
279120,232.697445,119,0.097862,44,G2#,96,2
279240,232.796129,119,0.097862,76,E5,96,1
279240,232.796129,119,0.097862,52,E3,96,2
279360,232.894814,119,0.097861,74,D5,96,1
279360,232.894814,119,0.097861,44,G2#,96,2
279480,232.993498,119,0.097862,73,C5#,96,1
279480,232.993498,119,0.097862,52,E3,96,2
279600,233.092182,119,0.097862,71,B4,96,1
279600,233.092182,119,0.097862,44,G2#,96,2
279720,233.190866,119,0.097862,69,A4,96,1
279720,233.190866,119,0.097862,52,E3,96,2
279840,233.289551,119,0.097861,68,G4#,96,1
279840,233.289551,119,0.097861,44,G2#,96,2
279960,233.388235,119,0.097862,66,F4#,96,1
279960,233.388235,119,0.097862,52,E3,96,2
280080,233.486919,119,0.097862,64,E4,96,1
280080,233.486919,119,0.097862,44,G2#,96,2
280200,233.585603,119,0.097862,62,D4,96,1
280200,233.585603,119,0.097862,52,E3,96,2
280320,233.684288,119,0.097861,61,C4#,112,1
280320,233.684288,239,0.196546,52,E3,112,2
280320,233.684288,239,0.196546,49,C3#,112,2
280320,233.684288,239,0.196546,45,A2,112,2
280440,233.782972,119,0.097862,63,D4#,112,1
280560,233.881656,119,0.097862,64,E4,112,1
280560,233.881656,239,0.196546,52,E3,112,2
280560,233.881656,239,0.196546,49,C3#,112,2
280560,233.881656,239,0.196546,45,A2,112,2
280680,233.98034,119,0.097862,63,D4#,112,1
280800,234.079025,119,0.097861,64,E4,112,1
280920,234.177709,119,0.097862,68,G4#,112,1
281040,234.276393,119,0.097862,69,A4,112,1
281040,234.276393,239,0.196546,52,E3,112,2
281040,234.276393,239,0.196546,49,C3#,112,2
281040,234.276393,239,0.196546,45,A2,112,2
281160,234.375077,119,0.097862,68,G4#,112,1
281280,234.473762,119,0.097861,69,A4,112,1
281280,234.473762,239,0.196546,52,E3,112,2
281280,234.473762,239,0.196546,49,C3#,112,2
281280,234.473762,239,0.196546,45,A2,112,2
281400,234.572446,119,0.097862,72,C5,112,1
281520,234.67113,119,0.097862,73,C5#,112,1
281520,234.67113,239,0.196546,52,E3,112,2
281520,234.67113,239,0.196546,49,C3#,112,2
281520,234.67113,239,0.196546,45,A2,112,2
281640,234.769814,119,0.097862,72,C5,112,1
281760,234.868499,119,0.097861,73,C5#,112,1
281880,234.967183,119,0.097862,75,D5#,112,1
282000,235.065867,119,0.097862,76,E5,112,1
282000,235.065867,239,0.196546,52,E3,112,2
282000,235.065867,239,0.196546,49,C3#,112,2
282000,235.065867,239,0.196546,45,A2,112,2
282120,235.164551,119,0.097862,75,D5#,112,1
282240,235.263236,119,0.097861,76,E5,112,1
282240,235.263236,239,0.196546,52,E3,112,2
282240,235.263236,239,0.196546,49,C3#,112,2
282240,235.263236,239,0.196546,45,A2,112,2
282360,235.36192,119,0.097862,80,G5#,112,1
282480,235.460604,119,0.097862,81,A5,112,1
282480,235.460604,239,0.196546,52,E3,112,2
282480,235.460604,239,0.196546,49,C3#,112,2
282480,235.460604,239,0.196546,45,A2,112,2
282600,235.559288,119,0.097862,80,G5#,112,1
282720,235.657973,119,0.097861,81,A5,112,1
282840,235.756657,119,0.097862,84,C6,112,1
282960,235.855341,119,0.097862,85,C6#,112,1
282960,235.855341,239,0.196546,52,E3,112,2
282960,235.855341,239,0.196546,49,C3#,112,2
282960,235.855341,239,0.196546,45,A2,112,2
283080,235.954025,119,0.097862,84,C6,112,1
283200,236.05271,119,0.097861,85,C6#,112,1
283200,236.05271,239,0.196546,52,E3,112,2
283200,236.05271,239,0.196546,49,C3#,112,2
283200,236.05271,239,0.196546,45,A2,112,2
283320,236.151394,119,0.097862,87,D6#,112,1
283440,236.250078,119,0.097862,88,E6,112,1
283440,236.250078,239,0.196546,52,E3,112,2
283440,236.250078,239,0.196546,49,C3#,112,2
283440,236.250078,239,0.196546,45,A2,112,2
283560,236.348762,119,0.097862,87,D6#,112,1
283680,236.447447,119,0.097861,88,E6,112,1
283800,236.546131,119,0.097862,87,D6#,112,1
283920,236.644815,119,0.097862,85,C6#,112,1
283920,236.644815,239,0.196546,52,E3,112,2
283920,236.644815,239,0.196546,49,C3#,112,2
283920,236.644815,239,0.196546,45,A2,112,2
284040,236.743499,119,0.097862,84,C6,112,1
284160,236.842184,119,0.097861,85,C6#,112,1
284160,236.842184,239,0.196546,54,F3#,112,2
284160,236.842184,239,0.196546,52,E3,112,2
284160,236.842184,239,0.196546,49,C3#,112,2
284160,236.842184,239,0.196546,46,A2#,112,2
284280,236.940868,119,0.097862,84,C6,112,1
284400,237.039552,119,0.097862,85,C6#,112,1
284400,237.039552,239,0.196546,54,F3#,112,2
284400,237.039552,239,0.196546,52,E3,112,2
284400,237.039552,239,0.196546,49,C3#,112,2
284400,237.039552,239,0.196546,46,A2#,112,2
284520,237.138236,119,0.097862,87,D6#,112,1
284640,237.236921,119,0.097861,88,E6,112,1
284760,237.335605,119,0.097862,87,D6#,112,1
284880,237.434289,119,0.097862,85,C6#,112,1
284880,237.434289,239,0.196546,54,F3#,112,2
284880,237.434289,239,0.196546,52,E3,112,2
284880,237.434289,239,0.196546,49,C3#,112,2
284880,237.434289,239,0.196546,46,A2#,112,2
285000,237.532973,119,0.097862,84,C6,112,1
285120,237.631658,119,0.097861,85,C6#,112,1
285120,237.631658,239,0.196546,54,F3#,112,2
285120,237.631658,239,0.196546,52,E3,112,2
285120,237.631658,239,0.196546,49,C3#,112,2
285120,237.631658,239,0.196546,46,A2#,112,2
285240,237.730342,119,0.097862,84,C6,112,1
285360,237.829026,119,0.097862,85,C6#,112,1
285360,237.829026,239,0.196546,54,F3#,112,2
285360,237.829026,239,0.196546,52,E3,112,2
285360,237.829026,239,0.196546,49,C3#,112,2
285360,237.829026,239,0.196546,46,A2#,112,2
285480,237.92771,119,0.097862,87,D6#,112,1
285600,238.026395,119,0.097861,88,E6,112,1
285720,238.125079,119,0.097862,87,D6#,112,1
285840,238.223763,119,0.097862,85,C6#,112,1
285840,238.223763,239,0.196546,54,F3#,112,2
285840,238.223763,239,0.196546,52,E3,112,2
285840,238.223763,239,0.196546,49,C3#,112,2
285840,238.223763,239,0.196546,46,A2#,112,2
285960,238.322447,119,0.097862,84,C6,112,1
286080,238.421132,119,0.097861,85,C6#,112,1
286080,238.421132,239,0.196546,54,F3#,112,2
286080,238.421132,239,0.196546,52,E3,112,2
286080,238.421132,239,0.196546,49,C3#,112,2
286080,238.421132,239,0.196546,46,A2#,112,2
286200,238.519816,119,0.097862,84,C6,112,1
286320,238.6185,119,0.097862,85,C6#,112,1
286320,238.6185,239,0.196546,54,F3#,112,2
286320,238.6185,239,0.196546,52,E3,112,2
286320,238.6185,239,0.196546,49,C3#,112,2
286320,238.6185,239,0.196546,46,A2#,112,2
286440,238.717184,119,0.097862,87,D6#,112,1
286560,238.815869,119,0.097861,88,E6,112,1
286680,238.914553,119,0.097862,87,D6#,112,1
286800,239.013237,119,0.097862,85,C6#,112,1
286800,239.013237,239,0.196546,54,F3#,112,2
286800,239.013237,239,0.196546,52,E3,112,2
286800,239.013237,239,0.196546,49,C3#,112,2
286800,239.013237,239,0.196546,46,A2#,112,2
286920,239.111921,119,0.097862,84,C6,112,1
287040,239.210606,119,0.097861,85,C6#,112,1
287040,239.210606,239,0.196546,54,F3#,112,2
287040,239.210606,239,0.196546,52,E3,112,2
287040,239.210606,239,0.196546,49,C3#,112,2
287040,239.210606,239,0.196546,46,A2#,112,2
287160,239.30929,119,0.097862,84,C6,112,1
287280,239.407974,119,0.097862,85,C6#,112,1
287280,239.407974,239,0.196546,54,F3#,112,2
287280,239.407974,239,0.196546,52,E3,112,2
287280,239.407974,239,0.196546,49,C3#,112,2
287280,239.407974,239,0.196546,46,A2#,112,2
287400,239.506658,119,0.097862,87,D6#,112,1
287520,239.605343,119,0.097861,88,E6,112,1
287640,239.704027,119,0.097862,87,D6#,112,1
287760,239.802711,119,0.097862,88,E6,112,1
287760,239.802711,239,0.196546,54,F3#,112,2
287760,239.802711,239,0.196546,52,E3,112,2
287760,239.802711,239,0.196546,49,C3#,112,2
287760,239.802711,239,0.196546,46,A2#,112,2
287880,239.901395,119,0.097862,85,C6#,112,1
288000,240.00008,119,0.097861,83,B5,119,1
288000,240.00008,119,0.097861,71,B4,119,1
288000,240.00008,119,0.097861,47,B2,112,2
288120,240.098764,119,0.097862,52,E3,112,2
288240,240.197448,119,0.097862,83,B5,112,1
288240,240.197448,119,0.097862,71,B4,112,1
288240,240.197448,119,0.097862,56,G3#,112,2
288360,240.296132,119,0.097862,59,B3,112,2
288480,240.394817,119,0.097861,80,G5#,112,1
288480,240.394817,119,0.097861,68,G4#,112,1
288480,240.394817,119,0.097861,47,B2,112,2
288600,240.493501,119,0.097862,52,E3,112,2
288720,240.592185,119,0.097862,76,E5,112,1
288720,240.592185,119,0.097862,64,E4,112,1
288720,240.592185,119,0.097862,56,G3#,112,2
288840,240.690869,119,0.097862,59,B3,112,2
288960,240.789554,119,0.097861,88,E6,119,1
288960,240.789554,119,0.097861,76,E5,119,1
288960,240.789554,119,0.097861,47,B2,112,2
289080,240.888238,119,0.097862,52,E3,112,2
289200,240.986922,119,0.097862,88,E6,112,1
289200,240.986922,119,0.097862,76,E5,112,1
289200,240.986922,119,0.097862,56,G3#,112,2
289320,241.085606,119,0.097862,59,B3,112,2
289440,241.184291,119,0.097861,83,B5,112,1
289440,241.184291,119,0.097861,71,B4,112,1
289440,241.184291,119,0.097861,47,B2,112,2
289560,241.282975,119,0.097862,52,E3,112,2
289680,241.381659,119,0.097862,80,G5#,112,1
289680,241.381659,119,0.097862,68,G4#,112,1
289680,241.381659,119,0.097862,56,G3#,112,2
289800,241.480343,119,0.097862,59,B3,112,2
289920,241.579028,119,0.097861,83,B5,119,1
289920,241.579028,119,0.097861,71,B4,119,1
289920,241.579028,119,0.097861,47,B2,112,2
290040,241.677712,119,0.097862,52,E3,112,2
290160,241.776396,119,0.097862,83,B5,112,1
290160,241.776396,119,0.097862,71,B4,112,1
290160,241.776396,119,0.097862,56,G3#,112,2
290280,241.87508,119,0.097862,59,B3,112,2
290400,241.973765,119,0.097861,80,G5#,112,1
290400,241.973765,119,0.097861,68,G4#,112,1
290400,241.973765,119,0.097861,47,B2,112,2
290520,242.072449,119,0.097862,52,E3,112,2
290640,242.171133,119,0.097862,76,E5,112,1
290640,242.171133,119,0.097862,64,E4,112,1
290640,242.171133,119,0.097862,56,G3#,112,2
290760,242.269817,119,0.097862,59,B3,112,2
290880,242.368502,119,0.097861,88,E6,119,1
290880,242.368502,119,0.097861,76,E5,119,1
290880,242.368502,119,0.097861,56,G3#,119,2
291120,242.56587,119,0.097862,88,E6,112,1
291120,242.56587,119,0.097862,76,E5,112,1
291120,242.56587,119,0.097862,56,G3#,112,2
291360,242.763239,119,0.097861,83,B5,112,1
291360,242.763239,119,0.097861,71,B4,112,1
291360,242.763239,119,0.097861,52,E3,112,2
291600,242.960607,119,0.097862,80,G5#,112,1
291600,242.960607,119,0.097862,68,G4#,112,1
291600,242.960607,119,0.097862,47,B2,112,2
291840,243.157976,119,0.097861,59,B3,96,2
291960,243.25666,119,0.097862,80,G5#,49,1
292080,243.355344,119,0.097862,83,B5,49,1
292080,243.355344,119,0.097862,56,G3#,49,2
292200,243.454028,119,0.097862,80,G5#,49,1
292320,243.552713,119,0.097861,83,B5,49,1
292320,243.552713,119,0.097861,64,E4,49,2
292440,243.651397,119,0.097862,80,G5#,49,1
292560,243.750081,119,0.097862,83,B5,49,1
292560,243.750081,119,0.097862,59,B3,49,2
292680,243.848765,119,0.097862,80,G5#,49,1
292800,243.94745,119,0.097861,83,B5,49,1
292800,243.94745,119,0.097861,68,G4#,49,2
292920,244.046134,119,0.097862,80,G5#,49,1
293040,244.144818,119,0.097862,83,B5,49,1
293040,244.144818,119,0.097862,64,E4,49,2
293160,244.243502,119,0.097862,80,G5#,49,1
293280,244.342187,119,0.097861,83,B5,49,1
293280,244.342187,119,0.097861,71,B4,49,2
293400,244.440871,119,0.097862,80,G5#,49,1
293520,244.539555,119,0.097862,83,B5,49,1
293520,244.539555,119,0.097862,68,G4#,49,2
293640,244.638239,119,0.097862,80,G5#,49,1
293760,244.736924,119,0.097861,83,B5,49,1
293760,244.736924,119,0.097861,76,E5,49,2
293880,244.835608,119,0.097862,80,G5#,49,1
294000,244.934292,119,0.097862,83,B5,49,1
294000,244.934292,119,0.097862,71,B4,49,2
294120,245.032976,119,0.097862,80,G5#,49,1
294240,245.131661,119,0.097861,83,B5,49,1
294240,245.131661,119,0.097861,76,E5,49,2
294360,245.230345,119,0.097862,80,G5#,49,1
294480,245.329029,119,0.097862,83,B5,49,1
294480,245.329029,119,0.097862,71,B4,49,2
294600,245.427713,119,0.097862,80,G5#,49,1
294720,245.526398,119,0.097861,83,B5,49,1
294720,245.526398,119,0.097861,76,E5,49,2
294840,245.625082,119,0.097862,80,G5#,49,1
294960,245.723766,119,0.097862,83,B5,49,1
294960,245.723766,119,0.097862,71,B4,49,2
295080,245.82245,119,0.097862,80,G5#,49,1
295200,245.921135,119,0.097861,83,B5,49,1
295200,245.921135,119,0.097861,76,E5,49,2
295320,246.019819,119,0.097862,80,G5#,49,1
295440,246.118503,119,0.097862,83,B5,49,1
295440,246.118503,119,0.097862,71,B4,49,2
295560,246.217187,119,0.097862,80,G5#,49,1
295680,246.315872,119,0.097861,75,D5#,45,2
295800,246.414556,119,0.097862,81,A5,45,1
295920,246.51324,119,0.097862,83,B5,45,1
295920,246.51324,119,0.097862,71,B4,45,2
296040,246.611924,119,0.097862,81,A5,45,1
296160,246.710609,119,0.097861,84,C6,45,1
296160,246.710609,119,0.097861,75,D5#,45,2
296280,246.809293,119,0.097862,81,A5,45,1
296400,246.907977,119,0.097862,83,B5,41,1
296400,246.907977,119,0.097862,71,B4,41,2
296520,247.006661,119,0.097862,81,A5,41,1
296640,247.105346,119,0.097861,84,C6,41,1
296640,247.105346,119,0.097861,75,D5#,41,2
296760,247.20403,119,0.097862,81,A5,41,1
296880,247.302714,119,0.097862,83,B5,41,1
296880,247.302714,119,0.097862,71,B4,41,2
297000,247.401398,119,0.097862,81,A5,41,1
297120,247.500083,119,0.097861,84,C6,37,1
297120,247.500083,119,0.097861,75,D5#,37,2
297240,247.598767,119,0.097862,81,A5,37,1
297360,247.697451,119,0.097862,83,B5,37,1
297360,247.697451,119,0.097862,71,B4,37,2
297480,247.796135,119,0.097862,81,A5,37,1
297600,247.89482,119,0.097861,84,C6,33,1
297600,247.89482,119,0.097861,75,D5#,33,2
297720,247.993504,119,0.097862,81,A5,33,1
297840,248.092188,119,0.097862,83,B5,33,1
297840,248.092188,119,0.097862,71,B4,33,2
297960,248.190872,119,0.097862,81,A5,33,1
298080,248.289557,119,0.097861,84,C6,33,1
298080,248.289557,119,0.097861,75,D5#,33,2
298200,248.388241,119,0.097862,81,A5,33,1
298320,248.486925,119,0.097862,83,B5,33,1
298320,248.486925,119,0.097862,71,B4,33,2
298440,248.585609,119,0.097862,81,A5,33,1
298560,248.684294,119,0.097861,84,C6,33,1
298560,248.684294,119,0.097861,75,D5#,33,2
298680,248.782978,119,0.097862,81,A5,33,1
298800,248.881662,119,0.097862,83,B5,33,1
298800,248.881662,119,0.097862,71,B4,33,2
298920,248.980346,119,0.097862,81,A5,33,1
299040,249.079031,119,0.097861,84,C6,33,1
299040,249.079031,119,0.097861,75,D5#,33,2
299160,249.177715,119,0.097862,81,A5,33,1
299280,249.276399,119,0.097862,83,B5,33,1
299280,249.276399,119,0.097862,71,B4,33,2
299400,249.375083,119,0.097862,81,A5,33,1
299520,249.473768,119,0.097861,85,C6#,42,1
299520,249.473768,119,0.097861,75,D5#,42,2
299520,249.473768,119,0.097861,75,D5#,42,2
299640,249.572452,119,0.097862,81,A5,42,1
299640,249.572452,119,0.097862,76,E5,42,2
299760,249.671136,119,0.097862,83,B5,42,1
299760,249.671136,119,0.097862,75,D5#,42,2
299880,249.76982,119,0.097862,81,A5,42,1
299880,249.76982,119,0.097862,76,E5,42,2
300000,249.868505,119,0.097861,85,C6#,51,1
300000,249.868505,119,0.097861,75,D5#,51,2
300120,249.967189,119,0.097862,81,A5,51,1
300120,249.967189,119,0.097862,76,E5,51,2
300240,250.065873,119,0.097862,83,B5,51,1
300240,250.065873,119,0.097862,75,D5#,51,2
300360,250.164557,119,0.097862,81,A5,51,1
300360,250.164557,119,0.097862,76,E5,51,2
300480,250.263242,119,0.097861,85,C6#,60,1
300480,250.263242,119,0.097861,75,D5#,60,2
300600,250.361926,119,0.097862,81,A5,60,1
300600,250.361926,119,0.097862,76,E5,60,2
300720,250.46061,119,0.097862,83,B5,60,1
300720,250.46061,119,0.097862,75,D5#,60,2
300840,250.559294,119,0.097862,81,A5,60,1
300840,250.559294,119,0.097862,76,E5,60,2
300960,250.657979,119,0.097861,85,C6#,69,1
300960,250.657979,119,0.097861,75,D5#,69,2
301080,250.756663,119,0.097862,81,A5,69,1
301080,250.756663,119,0.097862,76,E5,69,2
301200,250.855347,119,0.097862,83,B5,69,1
301200,250.855347,119,0.097862,75,D5#,69,2
301320,250.954031,119,0.097862,81,A5,69,1
301320,250.954031,119,0.097862,76,E5,69,2
301440,251.052716,119,0.097861,90,F6#,78,1
301440,251.052716,119,0.097861,75,D5#,78,2
301560,251.1514,119,0.097862,83,B5,78,1
301560,251.1514,119,0.097862,81,A5,78,1
301560,251.1514,119,0.097862,76,E5,78,2
301680,251.250084,119,0.097862,90,F6#,78,1
301680,251.250084,119,0.097862,75,D5#,78,2
301800,251.348768,119,0.097862,83,B5,78,1
301800,251.348768,119,0.097862,81,A5,78,1
301800,251.348768,119,0.097862,76,E5,78,2
301920,251.447453,119,0.097861,90,F6#,78,1
301920,251.447453,119,0.097861,75,D5#,78,2
302040,251.546137,119,0.097862,83,B5,78,1
302040,251.546137,119,0.097862,81,A5,78,1
302040,251.546137,119,0.097862,76,E5,78,2
302160,251.644821,119,0.097862,90,F6#,78,1
302160,251.644821,119,0.097862,75,D5#,78,2
302280,251.743505,119,0.097862,83,B5,78,1
302280,251.743505,119,0.097862,81,A5,78,1
302280,251.743505,119,0.097862,76,E5,78,2
302400,251.84219,119,0.097861,90,F6#,87,1
302400,251.84219,119,0.097861,75,D5#,87,2
302520,251.940874,119,0.097862,83,B5,87,1
302520,251.940874,119,0.097862,81,A5,87,1
302520,251.940874,119,0.097862,76,E5,87,2
302640,252.039558,119,0.097862,90,F6#,87,1
302640,252.039558,119,0.097862,75,D5#,87,2
302760,252.138242,119,0.097862,83,B5,87,1
302760,252.138242,119,0.097862,81,A5,87,1
302760,252.138242,119,0.097862,76,E5,87,2
302880,252.236927,119,0.097861,90,F6#,90,1
302880,252.236927,119,0.097861,75,D5#,90,2
303000,252.335611,119,0.097862,83,B5,90,1
303000,252.335611,119,0.097862,81,A5,90,1
303000,252.335611,119,0.097862,76,E5,90,2
303120,252.434295,119,0.097862,90,F6#,90,1
303120,252.434295,119,0.097862,73,C5#,90,2
303240,252.532979,119,0.097862,83,B5,90,1
303240,252.532979,119,0.097862,81,A5,90,1
303240,252.532979,119,0.097862,75,D5#,90,2
303360,252.631664,1439,1.183388,88,E6,96,1
303360,252.631664,1439,1.183388,83,B5,96,1
303360,252.631664,1439,1.183388,80,G5#,96,1
303360,252.631664,3839,3.157073,64,E4,96,2
303360,252.631664,959,0.788651,76,E5,96,2
304320,253.421138,959,0.788651,74,D5,49,2
304320,253.421138,959,0.788651,71,B4,49,2
304320,253.421138,959,0.788651,68,G4#,49,2
304800,253.815875,119,0.097861,88,E6,49,1
304920,253.914559,119,0.097862,86,D6,49,1
305040,254.013243,119,0.097862,84,C6,49,1
305160,254.111927,119,0.097862,83,B5,49,1
305280,254.210612,119,0.097861,84,C6,49,1
305280,254.210612,959,0.788651,72,C5,49,2
305280,254.210612,959,0.788651,69,A4,49,2
305400,254.309296,119,0.097862,83,B5,49,1
305520,254.40798,119,0.097862,81,A5,49,1
305640,254.506664,119,0.097862,80,G5#,49,1
305760,254.605349,119,0.097861,81,A5,49,1
305880,254.704033,119,0.097862,83,B5,49,1
306000,254.802717,119,0.097862,84,C6,49,1
306120,254.901401,119,0.097862,86,D6,49,1
306240,255.000086,119,0.097861,88,E6,49,1
306240,255.000086,959,0.788651,74,D5,49,2
306240,255.000086,959,0.788651,71,B4,49,2
306240,255.000086,959,0.788651,68,G4#,49,2
306360,255.09877,119,0.097862,89,F6,49,1
306480,255.197454,119,0.097862,88,E6,49,1
306600,255.296138,119,0.097862,87,D6#,49,1
306720,255.394823,119,0.097861,88,E6,49,1
306840,255.493507,119,0.097862,86,D6,49,1
306960,255.592191,119,0.097862,84,C6,49,1
307080,255.690875,119,0.097862,83,B5,49,1
307200,255.78956,119,0.097861,84,C6,49,1
307200,255.78956,479,0.393914,69,A4,49,2
307200,255.78956,479,0.393914,72,C5,49,2
307320,255.888244,119,0.097862,86,D6,49,1
307440,255.986928,119,0.097862,84,C6,49,1
307560,256.085612,119,0.097862,83,B5,49,1
307680,256.184297,119,0.097861,81,A5,49,1
307800,256.282981,119,0.097862,80,G5#,49,1
307920,256.381665,119,0.097862,81,A5,49,1
308040,256.480349,119,0.097862,83,B5,49,1
308160,256.579034,959,0.788651,72,C5,49,1
308160,256.579034,479,0.393914,84,C6,49,1
308160,256.579034,959,0.788651,69,A4,49,2
308160,256.579034,959,0.788651,66,F4#,49,2
308160,256.579034,959,0.788651,60,C4,49,2
308160,256.579034,959,0.788651,57,A3,49,2
308640,256.973771,239,0.196546,81,A5,49,1
308880,257.171139,239,0.196546,78,F5#,49,1
309120,257.368508,959,0.788651,71,B4,49,1
309120,257.368508,479,0.393914,83,B5,49,1
309120,257.368508,959,0.788651,67,G4,49,2
309120,257.368508,959,0.788651,64,E4,49,2
309120,257.368508,959,0.788651,59,B3,49,2
309600,257.763245,239,0.196546,79,G5,49,1
309840,257.960613,239,0.196546,76,E5,49,1
310080,258.157982,959,0.788651,69,A4,49,1
310080,258.157982,479,0.393914,81,A5,49,1
310080,258.157982,959,0.788651,66,F4#,49,2
310080,258.157982,959,0.788651,63,D4#,49,2
310080,258.157982,959,0.788651,59,B3,49,2
310560,258.552719,239,0.196546,78,F5#,49,1
310800,258.750087,239,0.196546,75,D5#,49,1
311040,258.947456,1439,1.183388,76,E5,96,1
311040,258.947456,3839,3.157073,52,E3,96,2
311040,258.947456,959,0.788651,64,E4,96,2
312000,259.73693,959,0.788651,62,D4,49,2
312000,259.73693,959,0.788651,59,B3,49,2
312000,259.73693,959,0.788651,56,G3#,49,2
312480,260.131667,119,0.097861,76,E5,49,1
312600,260.230351,119,0.097862,74,D5,49,1
312720,260.329035,119,0.097862,72,C5,49,1
312840,260.427719,119,0.097862,71,B4,49,1
312960,260.526404,119,0.097861,72,C5,49,1
312960,260.526404,959,0.788651,60,C4,49,2
312960,260.526404,959,0.788651,57,A3,49,2
313080,260.625088,119,0.097862,71,B4,49,1
313200,260.723772,119,0.097862,69,A4,49,1
313320,260.822456,119,0.097862,68,G4#,49,1
313440,260.921141,119,0.097861,69,A4,49,1
313560,261.019825,119,0.097862,71,B4,49,1
313680,261.118509,119,0.097862,72,C5,49,1
313800,261.217193,119,0.097862,74,D5,49,1
313920,261.315878,119,0.097861,76,E5,49,1
313920,261.315878,959,0.788651,62,D4,49,2
313920,261.315878,959,0.788651,59,B3,49,2
313920,261.315878,959,0.788651,56,G3#,49,2
314040,261.414562,119,0.097862,77,F5,49,1
314160,261.513246,119,0.097862,76,E5,49,1
314280,261.61193,119,0.097862,75,D5#,49,1
314400,261.710615,119,0.097861,76,E5,49,1
314520,261.809299,119,0.097862,74,D5,49,1
314640,261.907983,119,0.097862,72,C5,49,1
314760,262.006667,119,0.097862,71,B4,49,1
314880,262.105352,119,0.097861,72,C5,49,1
314880,262.105352,479,0.393914,57,A3,49,2
314880,262.105352,479,0.393914,60,C4,49,2
315000,262.204036,119,0.097862,74,D5,49,1
315120,262.30272,119,0.097862,72,C5,49,1
315240,262.401404,119,0.097862,71,B4,49,1
315360,262.500089,119,0.097861,69,A4,49,1
315480,262.598773,119,0.097862,68,G4#,49,1
315600,262.697457,119,0.097862,69,A4,49,1
315720,262.796141,119,0.097862,71,B4,49,1
315840,262.894826,959,0.788651,60,C4,49,1
315840,262.894826,479,0.393914,72,C5,49,1
315840,262.894826,959,0.788651,57,A3,49,2
315840,262.894826,959,0.788651,54,F3#,49,2
315840,262.894826,959,0.788651,48,C3,49,2
315840,262.894826,959,0.788651,45,A2,49,2
316320,263.289563,239,0.196546,69,A4,49,1
316560,263.486931,239,0.196546,66,F4#,49,1
316800,263.6843,959,0.788651,59,B3,49,1
316800,263.6843,479,0.393914,71,B4,49,1
316800,263.6843,959,0.788651,55,G3,49,2
316800,263.6843,959,0.788651,52,E3,49,2
316800,263.6843,959,0.788651,47,B2,49,2
317280,264.079037,239,0.196546,67,G4,49,1
317520,264.276405,239,0.196546,64,E4,49,1
317760,264.473774,959,0.788651,57,A3,49,1
317760,264.473774,479,0.393914,69,A4,49,1
317760,264.473774,959,0.788651,54,F3#,49,2
317760,264.473774,959,0.788651,51,D3#,49,2
317760,264.473774,959,0.788651,47,B2,49,2
318240,264.868511,239,0.196546,66,F4#,49,1
318480,265.065879,239,0.196546,63,D4#,49,1
318720,265.263248,239,0.196546,64,E4,49,1
318720,265.263248,479,0.393914,55,G3,49,2
318720,265.263248,479,0.393914,52,E3,49,2
319200,265.657985,239,0.196546,76,E5,55,1
319200,265.657985,479,0.393914,43,G2,55,2
319200,265.657985,719,0.591283,52,E3,55,2
319440,265.855353,239,0.196546,74,D5,55,1
319680,266.052722,479,0.393914,72,C5,60,1
319680,266.052722,959,0.788651,45,A2,60,2
319920,266.25009,239,0.196546,53,F3,60,2
320160,266.447459,239,0.196546,69,A4,64,1
320160,266.447459,239,0.196546,55,G3,64,2
320400,266.644827,239,0.196546,65,F4,64,1
320400,266.644827,239,0.196546,57,A3,64,2
320640,266.842196,479,0.393914,71,B4,49,1
320640,266.842196,1919,1.578125,47,B2,49,2
320640,266.842196,959,0.788651,59,B3,49,2
320640,266.842196,959,0.788651,55,G3,49,2
321120,267.236933,239,0.196546,67,G4,49,1
321360,267.434301,239,0.196546,64,E4,49,1
321600,267.63167,479,0.393914,69,A4,49,1
321600,267.63167,959,0.788651,57,A3,49,2
321600,267.63167,959,0.788651,54,F3#,49,2
322080,268.026407,239,0.196546,66,F4#,49,1
322320,268.223775,239,0.196546,63,D4#,49,1
322560,268.421144,239,0.196546,64,E4,49,1
322560,268.421144,479,0.393914,48,C3,49,2
322560,268.421144,479,0.393914,55,G3,49,2
322560,268.421144,479,0.393914,52,E3,49,2
323040,268.815881,239,0.196546,72,C5,55,1
323040,268.815881,479,0.393914,40,E2,55,2
323040,268.815881,719,0.591283,48,C3,55,2
323280,269.013249,239,0.196546,71,B4,55,1
323520,269.210618,479,0.393914,69,A4,60,1
323520,269.210618,959,0.788651,41,F2,60,2
323760,269.407986,239,0.196546,50,D3,60,2
324000,269.605355,239,0.196546,65,F4,64,1
324000,269.605355,239,0.196546,52,E3,64,2
324240,269.802723,239,0.196546,62,D4,64,1
324240,269.802723,239,0.196546,53,F3,64,2
324480,270.000092,479,0.393914,67,G4,49,1
324480,270.000092,1919,1.578125,43,G2,49,2
324480,270.000092,959,0.788651,55,G3,49,2
324480,270.000092,959,0.788651,52,E3,49,2
324960,270.394829,239,0.196546,64,E4,49,1
325200,270.592197,239,0.196546,60,C4,49,1
325440,270.789566,479,0.393914,65,F4,49,1
325440,270.789566,959,0.788651,53,F3,49,2
325440,270.789566,959,0.788651,50,D3,49,2
325920,271.184303,239,0.196546,62,D4,49,1
326160,271.381671,239,0.196546,59,B3,49,1
326400,271.57904,239,0.196546,60,C4,49,1
326400,271.57904,479,0.393914,48,C3,49,2
326400,271.57904,479,0.393914,52,E3,49,2
326880,271.973777,239,0.196546,77,F5,55,1
326880,271.973777,479,0.393914,45,A2,55,2
326880,271.973777,719,0.591283,53,F3,55,2
327120,272.171145,239,0.196546,76,E5,55,1
327360,272.368514,479,0.393914,74,D5,60,1
327360,272.368514,959,0.788651,46,A2#,60,2
327600,272.565882,239,0.196546,55,G3,60,2
327840,272.763251,239,0.196546,70,A4#,64,1
327840,272.763251,239,0.196546,57,A3,64,2
328080,272.960619,239,0.196546,67,G4,64,1
328080,272.960619,239,0.196546,58,A3#,64,2
328320,273.157988,479,0.393914,72,C5,49,1
328320,273.157988,1919,1.578125,48,C3,49,2
328320,273.157988,959,0.788651,60,C4,49,2
328320,273.157988,959,0.788651,57,A3,49,2
328800,273.552725,239,0.196546,69,A4,49,1
329040,273.750093,239,0.196546,65,F4,49,1
329280,273.947462,479,0.393914,70,A4#,49,1
329280,273.947462,959,0.788651,58,A3#,49,2
329280,273.947462,959,0.788651,55,G3,49,2
329760,274.342199,239,0.196546,67,G4,49,1
330000,274.539567,239,0.196546,64,E4,49,1
330240,274.736936,239,0.196546,65,F4,49,1
330240,274.736936,479,0.393914,50,D3,49,2
330240,274.736936,479,0.393914,57,A3,49,2
330240,274.736936,479,0.393914,53,F3,49,2
330720,275.131673,239,0.196546,65,F4,55,1
330720,275.131673,479,0.393914,33,A1,55,2
330720,275.131673,719,0.591283,41,F2,55,2
330960,275.329041,239,0.196546,64,E4,55,1
331200,275.52641,479,0.393914,62,D4,60,1
331200,275.52641,959,0.788651,34,A1#,60,2
331440,275.723778,239,0.196546,43,G2,60,2
331680,275.921147,239,0.196546,58,A3#,64,1
331680,275.921147,239,0.196546,45,A2,64,2
331920,276.118515,239,0.196546,55,G3,64,1
331920,276.118515,239,0.196546,46,A2#,64,2
332160,276.315884,479,0.393914,60,C4,33,1
332160,276.315884,1919,1.578125,36,C2,33,2
332160,276.315884,959,0.788651,48,C3,33,2
332160,276.315884,959,0.788651,45,A2,33,2
332640,276.710621,239,0.196546,57,A3,33,1
332880,276.907989,239,0.196546,53,F3,33,1
333120,277.105358,479,0.393914,58,A3#,33,1
333120,277.105358,959,0.788651,46,A2#,33,2
333120,277.105358,959,0.788651,43,G2,33,2
333600,277.500095,239,0.196546,55,G3,33,1
333840,277.697463,239,0.196546,52,E3,33,1
334080,277.894832,239,0.196546,53,F3,33,1
334080,277.894832,239,0.196546,45,A2,33,1
334080,277.894832,239,0.196546,41,F2,33,2
334080,277.894832,239,0.196546,29,F1,33,2
334320,278.0922,239,0.196546,45,A2,33,1
334320,278.0922,239,0.196546,41,F2,33,1
334320,278.0922,239,0.196546,36,C2,33,2
334320,278.0922,239,0.196546,29,F1,33,2
334560,278.289569,239,0.196546,45,A2,33,1
334560,278.289569,239,0.196546,41,F2,33,1
334560,278.289569,239,0.196546,36,C2,33,2
334560,278.289569,239,0.196546,29,F1,33,2
334800,278.486937,239,0.196546,45,A2,33,1
334800,278.486937,239,0.196546,41,F2,33,1
334800,278.486937,239,0.196546,36,C2,33,2
334800,278.486937,239,0.196546,29,F1,33,2
335040,278.684306,239,0.196546,45,A2,33,1
335040,278.684306,239,0.196546,41,F2,33,1
335040,278.684306,239,0.196546,36,C2,33,2
335040,278.684306,239,0.196546,29,F1,33,2
335280,278.881674,239,0.196546,45,A2,33,1
335280,278.881674,239,0.196546,41,F2,33,1
335280,278.881674,239,0.196546,36,C2,33,2
335280,278.881674,239,0.196546,29,F1,33,2
335520,279.079043,239,0.196546,45,A2,33,1
335520,279.079043,239,0.196546,41,F2,33,1
335520,279.079043,239,0.196546,36,C2,33,2
335520,279.079043,239,0.196546,29,F1,33,2
335760,279.276411,239,0.196546,45,A2,33,1
335760,279.276411,239,0.196546,41,F2,33,1
335760,279.276411,239,0.196546,36,C2,33,2
335760,279.276411,239,0.196546,29,F1,33,2
336000,279.47378,239,0.196546,45,A2,33,1
336000,279.47378,239,0.196546,41,F2,33,1
336000,279.47378,239,0.196546,36,C2,33,2
336000,279.47378,239,0.196546,29,F1,33,2
336240,279.671148,239,0.196546,45,A2,33,1
336240,279.671148,239,0.196546,41,F2,33,1
336240,279.671148,239,0.196546,36,C2,33,2
336240,279.671148,239,0.196546,29,F1,33,2
336480,279.868517,239,0.196546,45,A2,33,1
336480,279.868517,239,0.196546,41,F2,33,1
336480,279.868517,239,0.196546,36,C2,33,2
336480,279.868517,239,0.196546,29,F1,33,2
336720,280.065885,239,0.196546,45,A2,33,1
336720,280.065885,239,0.196546,41,F2,33,1
336720,280.065885,239,0.196546,36,C2,33,2
336720,280.065885,239,0.196546,29,F1,33,2
336960,280.263254,239,0.196546,45,A2,33,1
336960,280.263254,239,0.196546,41,F2,33,1
336960,280.263254,239,0.196546,36,C2,33,2
336960,280.263254,239,0.196546,29,F1,33,2
337200,280.460622,239,0.196546,45,A2,33,1
337200,280.460622,239,0.196546,41,F2,33,1
337200,280.460622,239,0.196546,36,C2,33,2
337200,280.460622,239,0.196546,29,F1,33,2
337440,280.657991,239,0.196546,47,B2,33,1
337440,280.657991,239,0.196546,43,G2,33,1
337440,280.657991,239,0.196546,38,D2,33,2
337440,280.657991,239,0.196546,29,F1,33,2
337680,280.855359,239,0.196546,47,B2,33,1
337680,280.855359,239,0.196546,43,G2,33,1
337680,280.855359,239,0.196546,38,D2,33,2
337680,280.855359,239,0.196546,29,F1,33,2
337920,281.052728,719,0.591283,48,C3,33,1
337920,281.052728,239,0.196546,43,G2,33,2
337920,281.052728,239,0.196546,40,E2,33,2
338160,281.250096,239,0.196546,43,G2,33,2
338160,281.250096,239,0.196546,40,E2,33,2
338400,281.447465,239,0.196546,43,G2,33,2
338400,281.447465,239,0.196546,40,E2,33,2
338640,281.644833,119,0.097862,52,E3,33,1
338640,281.644833,239,0.196546,43,G2,33,2
338640,281.644833,239,0.196546,40,E2,33,2
338760,281.743517,119,0.097862,50,D3,33,1
338880,281.842202,119,0.097861,48,C3,33,1
338880,281.842202,239,0.196546,43,G2,33,2
338880,281.842202,239,0.196546,40,E2,33,2
339120,282.03957,239,0.196546,43,G2,33,2
339120,282.03957,239,0.196546,40,E2,33,2
339360,282.236939,239,0.196546,43,G2,33,2
339360,282.236939,239,0.196546,40,E2,33,2
339600,282.434307,239,0.196546,43,G2,33,2
339600,282.434307,239,0.196546,40,E2,33,2
339840,282.631676,119,0.097861,78,F5#,33,1
339840,282.631676,239,0.196546,43,G2,33,2
339840,282.631676,239,0.196546,39,D2#,33,2
339960,282.73036,599,0.492599,79,G5,33,1
340080,282.829044,239,0.196546,43,G2,33,2
340080,282.829044,239,0.196546,39,D2#,33,2
340320,283.026413,239,0.196546,43,G2,33,2
340320,283.026413,239,0.196546,39,D2#,33,2
340440,283.125097,119,0.097862,77,F5,33,1
340560,283.223781,119,0.097862,75,D5#,33,1
340560,283.223781,239,0.196546,43,G2,33,2
340560,283.223781,239,0.196546,39,D2#,33,2
340680,283.322465,119,0.097862,74,D5,33,1
340800,283.42115,239,0.196546,72,C5,33,1
340800,283.42115,239,0.196546,43,G2,33,2
340800,283.42115,239,0.196546,39,D2#,33,2
341040,283.618518,239,0.196546,43,G2,33,2
341040,283.618518,239,0.196546,39,D2#,33,2
341280,283.815887,239,0.196546,43,G2,33,2
341280,283.815887,239,0.196546,39,D2#,33,2
341520,284.013255,239,0.196546,43,G2,33,2
341520,284.013255,239,0.196546,39,D2#,33,2
341760,284.210624,719,0.591283,54,F3#,33,1
341760,284.210624,239,0.196546,45,A2,33,2
341760,284.210624,239,0.196546,38,D2,33,2
342000,284.407992,239,0.196546,45,A2,33,2
342000,284.407992,239,0.196546,38,D2,33,2
342240,284.605361,239,0.196546,45,A2,33,2
342240,284.605361,239,0.196546,38,D2,33,2
342480,284.802729,119,0.097862,57,A3,33,1
342480,284.802729,239,0.196546,45,A2,33,2
342480,284.802729,239,0.196546,38,D2,33,2
342600,284.901413,119,0.097862,55,G3,33,1
342720,285.000098,119,0.097861,54,F3#,33,1
342720,285.000098,239,0.196546,45,A2,33,2
342720,285.000098,239,0.196546,38,D2,33,2
342960,285.197466,239,0.196546,45,A2,33,2
342960,285.197466,239,0.196546,38,D2,33,2
343200,285.394835,239,0.196546,45,A2,33,2
343200,285.394835,239,0.196546,38,D2,33,2
343440,285.592203,239,0.196546,45,A2,33,2
343440,285.592203,239,0.196546,38,D2,33,2
343680,285.789572,119,0.097861,86,D6,33,1
343680,285.789572,239,0.196546,50,D3,33,2
343680,285.789572,239,0.196546,42,F2#,33,2
343800,285.888256,599,0.492599,87,D6#,33,1
343920,285.98694,239,0.196546,50,D3,33,2
343920,285.98694,239,0.196546,42,F2#,33,2
344160,286.184309,239,0.196546,50,D3,33,2
344160,286.184309,239,0.196546,42,F2#,33,2
344280,286.282993,119,0.097862,86,D6,33,1
344400,286.381677,119,0.097862,84,C6,33,1
344400,286.381677,239,0.196546,50,D3,33,2
344400,286.381677,239,0.196546,42,F2#,33,2
344520,286.480361,119,0.097862,82,A5#,33,1
344640,286.579046,239,0.196546,81,A5,33,1
344640,286.579046,239,0.196546,50,D3,33,2
344640,286.579046,239,0.196546,42,F2#,33,2
344880,286.776414,239,0.196546,50,D3,33,2
344880,286.776414,239,0.196546,42,F2#,33,2
345120,286.973783,239,0.196546,50,D3,33,2
345120,286.973783,239,0.196546,42,F2#,33,2
345360,287.171151,239,0.196546,50,D3,33,2
345360,287.171151,239,0.196546,42,F2#,33,2
345600,287.36852,239,0.196546,58,A3#,33,1
345600,287.36852,119,0.097861,43,G2,33,2
345720,287.467204,119,0.097862,50,D3,33,2
345840,287.565888,119,0.097862,62,D4,33,1
345840,287.565888,119,0.097862,43,G2,33,2
345960,287.664572,119,0.097862,60,C4,33,1
345960,287.664572,119,0.097862,50,D3,33,2
346080,287.763257,239,0.196546,58,A3#,33,1
346080,287.763257,119,0.097861,43,G2,33,2
346200,287.861941,119,0.097862,50,D3,33,2
346320,287.960625,119,0.097862,43,G2,33,2
346440,288.059309,119,0.097862,50,D3,33,2
346560,288.157994,119,0.097861,84,C6,33,1
346560,288.157994,119,0.097861,45,A2,33,2
346680,288.256678,119,0.097862,82,A5#,33,1
346680,288.256678,119,0.097862,50,D3,33,2
346800,288.355362,119,0.097862,81,A5,33,1
346800,288.355362,119,0.097862,45,A2,33,2
346920,288.454046,119,0.097862,79,G5,33,1
346920,288.454046,119,0.097862,50,D3,33,2
347040,288.552731,239,0.196546,78,F5#,33,1
347040,288.552731,119,0.097861,45,A2,33,2
347160,288.651415,119,0.097862,50,D3,33,2
347280,288.750099,119,0.097862,45,A2,33,2
347400,288.848783,119,0.097862,50,D3,33,2
347520,288.947468,239,0.196546,67,G4,33,1
347520,288.947468,119,0.097861,46,A2#,33,2
347640,289.046152,119,0.097862,50,D3,33,2
347760,289.144836,119,0.097862,70,A4#,33,1
347760,289.144836,119,0.097862,46,A2#,33,2
347880,289.24352,119,0.097862,69,A4,33,1
347880,289.24352,119,0.097862,50,D3,33,2
348000,289.342205,239,0.196546,67,G4,33,1
348000,289.342205,119,0.097861,46,A2#,33,2
348120,289.440889,119,0.097862,50,D3,33,2
348240,289.539573,119,0.097862,46,A2#,33,2
348360,289.638257,119,0.097862,50,D3,33,2
348480,289.736942,119,0.097861,87,D6#,33,1
348480,289.736942,119,0.097861,42,F2#,33,2
348600,289.835626,119,0.097862,86,D6,33,1
348600,289.835626,119,0.097862,50,D3,33,2
348720,289.93431,119,0.097862,84,C6,33,1
348720,289.93431,119,0.097862,42,F2#,33,2
348840,290.032994,119,0.097862,82,A5#,33,1
348840,290.032994,119,0.097862,50,D3,33,2
348960,290.131679,239,0.196546,81,A5,33,1
348960,290.131679,119,0.097861,42,F2#,33,2
349080,290.230363,119,0.097862,50,D3,33,2
349200,290.329047,119,0.097862,42,F2#,33,2
349320,290.427731,119,0.097862,50,D3,33,2
349440,290.526416,239,0.196546,58,A3#,43,1
349440,290.526416,119,0.097861,43,G2,43,2
349560,290.6251,119,0.097862,50,D3,43,2
349680,290.723784,119,0.097862,62,D4,43,1
349680,290.723784,119,0.097862,43,G2,43,2
349800,290.822468,119,0.097862,60,C4,43,1
349800,290.822468,119,0.097862,50,D3,43,2
349920,290.921153,239,0.196546,58,A3#,53,1
349920,290.921153,119,0.097861,43,G2,53,2
350040,291.019837,119,0.097862,50,D3,53,2
350160,291.118521,119,0.097862,43,G2,53,2
350280,291.217205,119,0.097862,50,D3,53,2
350400,291.31589,119,0.097861,84,C6,63,1
350400,291.31589,119,0.097861,45,A2,63,2
350520,291.414574,119,0.097862,82,A5#,63,1
350520,291.414574,119,0.097862,50,D3,63,2
350640,291.513258,119,0.097862,81,A5,63,1
350640,291.513258,119,0.097862,45,A2,63,2
350760,291.611942,119,0.097862,79,G5,63,1
350760,291.611942,119,0.097862,50,D3,63,2
350880,291.710627,239,0.196546,78,F5#,73,1
350880,291.710627,119,0.097861,45,A2,73,2
351000,291.809311,119,0.097862,50,D3,73,2
351120,291.907995,119,0.097862,45,A2,73,2
351240,292.006679,119,0.097862,50,D3,73,2
351360,292.105364,119,0.097861,74,D5,81,1
351360,292.105364,119,0.097861,46,A2#,81,2
351480,292.204048,119,0.097862,72,C5,81,1
351480,292.204048,119,0.097862,50,D3,81,2
351600,292.302732,119,0.097862,70,A4#,81,1
351600,292.302732,119,0.097862,46,A2#,81,2
351720,292.401416,119,0.097862,69,A4,81,1
351720,292.401416,119,0.097862,50,D3,81,2
351840,292.500101,239,0.196546,67,G4,88,1
351840,292.500101,119,0.097861,46,A2#,88,2
351960,292.598785,119,0.097862,55,G3,88,2
352080,292.697469,119,0.097862,46,A2#,88,2
352200,292.796153,119,0.097862,55,G3,88,2
352320,292.894838,119,0.097861,80,G5#,96,1
352320,292.894838,119,0.097861,47,B2,96,2
352440,292.993522,119,0.097862,79,G5,96,1
352440,292.993522,119,0.097862,55,G3,96,2
352560,293.092206,119,0.097862,77,F5,96,1
352560,293.092206,119,0.097862,47,B2,96,2
352680,293.19089,119,0.097862,75,D5#,96,1
352680,293.19089,119,0.097862,55,G3,96,2
352800,293.289575,239,0.196546,74,D5,96,1
352800,293.289575,119,0.097861,47,B2,96,2
352920,293.388259,119,0.097862,55,G3,96,2
353040,293.486943,119,0.097862,47,B2,96,2
353160,293.585627,119,0.097862,55,G3,96,2
353280,293.684312,239,0.196546,63,D4#,49,1
353280,293.684312,119,0.097861,48,C3,49,2
353400,293.782996,119,0.097862,55,G3,49,2
353520,293.88168,119,0.097862,67,G4,49,1
353520,293.88168,119,0.097862,48,C3,49,2
353640,293.980364,119,0.097862,65,F4,49,1
353640,293.980364,119,0.097862,55,G3,49,2
353760,294.079049,239,0.196546,63,D4#,49,1
353760,294.079049,119,0.097861,48,C3,49,2
353880,294.177733,119,0.097862,55,G3,49,2
354000,294.276417,119,0.097862,48,C3,49,2
354120,294.375101,119,0.097862,55,G3,49,2
354240,294.473786,119,0.097861,77,F5,49,1
354240,294.473786,119,0.097861,50,D3,49,2
354360,294.57247,119,0.097862,75,D5#,49,1
354360,294.57247,119,0.097862,55,G3,49,2
354480,294.671154,119,0.097862,74,D5,49,1
354480,294.671154,119,0.097862,50,D3,49,2
354600,294.769838,119,0.097862,72,C5,49,1
354600,294.769838,119,0.097862,55,G3,49,2
354720,294.868523,239,0.196546,71,B4,49,1
354720,294.868523,119,0.097861,50,D3,49,2
354840,294.967207,119,0.097862,55,G3,49,2
354960,295.065891,119,0.097862,50,D3,49,2
355080,295.164575,119,0.097862,55,G3,49,2
355200,295.26326,239,0.196546,60,C4,49,1
355200,295.26326,119,0.097861,51,D3#,49,2
355320,295.361944,119,0.097862,55,G3,49,2
355440,295.460628,119,0.097862,63,D4#,49,1
355440,295.460628,119,0.097862,51,D3#,49,2
355560,295.559312,119,0.097862,62,D4,49,1
355560,295.559312,119,0.097862,55,G3,49,2
355680,295.657997,239,0.196546,60,C4,49,1
355680,295.657997,119,0.097861,51,D3#,49,2
355800,295.756681,119,0.097862,55,G3,49,2
355920,295.855365,119,0.097862,51,D3#,49,2
356040,295.954049,119,0.097862,55,G3,49,2
356160,296.052734,119,0.097861,80,G5#,49,1
356160,296.052734,119,0.097861,47,B2,49,2
356280,296.151418,119,0.097862,79,G5,49,1
356280,296.151418,119,0.097862,55,G3,49,2
356400,296.250102,119,0.097862,77,F5,49,1
356400,296.250102,119,0.097862,47,B2,49,2
356520,296.348786,119,0.097862,75,D5#,49,1
356520,296.348786,119,0.097862,55,G3,49,2
356640,296.447471,239,0.196546,74,D5,49,1
356640,296.447471,119,0.097861,47,B2,49,2
356760,296.546155,119,0.097862,55,G3,49,2
356880,296.644839,119,0.097862,47,B2,49,2
357000,296.743523,119,0.097862,55,G3,49,2
357120,296.842208,239,0.196546,63,D4#,55,1
357120,296.842208,119,0.097861,48,C3,55,2
357240,296.940892,119,0.097862,55,G3,55,2
357360,297.039576,119,0.097862,67,G4,55,1
357360,297.039576,119,0.097862,48,C3,55,2
357480,297.13826,119,0.097862,65,F4,55,1
357480,297.13826,119,0.097862,55,G3,55,2
357600,297.236945,239,0.196546,63,D4#,61,1
357600,297.236945,119,0.097861,48,C3,61,2
357720,297.335629,119,0.097862,55,G3,61,2
357840,297.434313,119,0.097862,48,C3,61,2
357960,297.532997,119,0.097862,55,G3,61,2
358080,297.631682,119,0.097861,77,F5,68,1
358080,297.631682,119,0.097861,50,D3,68,2
358200,297.730366,119,0.097862,75,D5#,68,1
358200,297.730366,119,0.097862,55,G3,68,2
358320,297.82905,119,0.097862,74,D5,68,1
358320,297.82905,119,0.097862,50,D3,68,2
358440,297.927734,119,0.097862,72,C5,68,1
358440,297.927734,119,0.097862,55,G3,68,2
358560,298.026419,239,0.196546,71,B4,74,1
358560,298.026419,119,0.097861,50,D3,74,2
358680,298.125103,119,0.097862,55,G3,74,2
358800,298.223787,119,0.097862,50,D3,74,2
358920,298.322471,119,0.097862,55,G3,74,2
359040,298.421156,119,0.097861,79,G5,80,1
359040,298.421156,119,0.097861,51,D3#,80,2
359160,298.51984,119,0.097862,77,F5,80,1
359160,298.51984,119,0.097862,55,G3,80,2
359280,298.618524,119,0.097862,75,D5#,80,1
359280,298.618524,119,0.097862,51,D3#,80,2
359400,298.717208,119,0.097862,74,D5,80,1
359400,298.717208,119,0.097862,55,G3,80,2
359520,298.815893,239,0.196546,72,C5,88,1
359520,298.815893,119,0.097861,51,D3#,88,2
359640,298.914577,119,0.097862,60,C4,88,2
359760,299.013261,119,0.097862,51,D3#,88,2
359880,299.111945,119,0.097862,60,C4,88,2
360000,299.21063,119,0.097861,85,C6#,96,1
360000,299.21063,119,0.097861,52,E3,96,2
360120,299.309314,119,0.097862,84,C6,96,1
360120,299.309314,119,0.097862,60,C4,96,2
360240,299.407998,119,0.097862,82,A5#,96,1
360240,299.407998,119,0.097862,52,E3,96,2
360360,299.506682,119,0.097862,80,G5#,96,1
360360,299.506682,119,0.097862,60,C4,96,2
360480,299.605367,239,0.196546,79,G5,96,1
360480,299.605367,119,0.097861,52,E3,96,2
360600,299.704051,119,0.097862,60,C4,96,2
360720,299.802735,119,0.097862,52,E3,96,2
360840,299.901419,119,0.097862,60,C4,96,2
360960,300.000104,239,0.196546,80,G5#,33,1
360960,300.000104,119,0.097861,53,F3,33,2
361080,300.098788,119,0.097862,56,G3#,33,2
361200,300.197472,119,0.097862,84,C6,33,1
361200,300.197472,119,0.097862,60,C4,33,2
361320,300.296156,119,0.097862,82,A5#,33,1
361320,300.296156,119,0.097862,65,F4,33,2
361440,300.394841,239,0.196546,80,G5#,33,1
361440,300.394841,119,0.097861,53,F3,33,2
361560,300.493525,119,0.097862,56,G3#,33,2
361680,300.592209,119,0.097862,60,C4,33,2
361800,300.690893,119,0.097862,65,F4,33,2
361920,300.789578,239,0.196546,85,C6#,33,1
361920,300.789578,119,0.097861,53,F3,33,2
362040,300.888262,119,0.097862,58,A3#,33,2
362160,300.986946,119,0.097862,89,F6,33,1
362160,300.986946,119,0.097862,61,C4#,33,2
362280,301.08563,119,0.097862,87,D6#,33,1
362280,301.08563,119,0.097862,65,F4,33,2
362400,301.184315,239,0.196546,85,C6#,33,1
362400,301.184315,119,0.097861,53,F3,33,2
362520,301.282999,119,0.097862,58,A3#,33,2
362640,301.381683,119,0.097862,61,C4#,33,2
362760,301.480367,119,0.097862,65,F4,33,2
362880,301.579052,239,0.196546,66,F4#,33,1
362880,301.579052,119,0.097861,53,F3,33,2
363000,301.677736,119,0.097862,54,F3#,33,2
363120,301.77642,119,0.097862,70,A4#,33,1
363120,301.77642,119,0.097862,58,A3#,33,2
363240,301.875104,119,0.097862,68,G4#,33,1
363240,301.875104,119,0.097862,61,C4#,33,2
363360,301.973789,239,0.196546,66,F4#,33,1
363360,301.973789,119,0.097861,53,F3,33,2
363480,302.072473,119,0.097862,54,F3#,33,2
363600,302.171157,119,0.097862,58,A3#,33,2
363720,302.269841,119,0.097862,61,C4#,33,2
363840,302.368526,959,0.788651,71,B4,33,1
363840,302.368526,119,0.097861,51,D3#,33,2
363960,302.46721,119,0.097862,54,F3#,33,2
364080,302.565894,119,0.097862,59,B3,33,2
364200,302.664578,119,0.097862,63,D4#,33,2
364320,302.763263,119,0.097861,51,D3#,33,2
364440,302.861947,119,0.097862,54,F3#,33,2
364560,302.960631,119,0.097862,59,B3,33,2
364680,303.059315,119,0.097862,63,D4#,33,2
364800,303.158,239,0.196546,77,F5,33,1
364800,303.158,119,0.097861,51,D3#,33,2
364920,303.256684,119,0.097862,53,F3,33,2
365040,303.355368,119,0.097862,81,A5,33,1
365040,303.355368,119,0.097862,57,A3,33,2
365160,303.454052,119,0.097862,79,G5,33,1
365160,303.454052,119,0.097862,60,C4,33,2
365280,303.552737,239,0.196546,77,F5,33,1
365280,303.552737,119,0.097861,51,D3#,33,2
365400,303.651421,119,0.097862,53,F3,33,2
365520,303.750105,119,0.097862,57,A3,33,2
365640,303.848789,119,0.097862,60,C4,33,2
365760,303.947474,239,0.196546,82,A5#,33,1
365760,303.947474,119,0.097861,49,C3#,33,2
365880,304.046158,119,0.097862,53,F3,33,2
366000,304.144842,119,0.097862,85,C6#,33,1
366000,304.144842,119,0.097862,58,A3#,33,2
366120,304.243526,119,0.097862,84,C6,33,1
366120,304.243526,119,0.097862,61,C4#,33,2
366240,304.342211,239,0.196546,82,A5#,33,1
366240,304.342211,119,0.097861,49,C3#,33,2
366360,304.440895,119,0.097862,53,F3,33,2
366480,304.539579,119,0.097862,58,A3#,33,2
366600,304.638263,119,0.097862,61,C4#,33,2
366720,304.736948,239,0.196546,63,D4#,33,1
366720,304.736948,119,0.097861,49,C3#,33,2
366840,304.835632,119,0.097862,51,D3#,33,2
366960,304.934316,119,0.097862,67,G4,33,1
366960,304.934316,119,0.097862,55,G3,33,2
367080,305.033,119,0.097862,65,F4,33,1
367080,305.033,119,0.097862,58,A3#,33,2
367200,305.131685,239,0.196546,63,D4#,33,1
367200,305.131685,119,0.097861,49,C3#,33,2
367320,305.230369,119,0.097862,51,D3#,33,2
367440,305.329053,119,0.097862,55,G3,33,2
367560,305.427737,119,0.097862,58,A3#,33,2
367680,305.526422,959,0.788651,68,G4#,33,1
367680,305.526422,119,0.097861,48,C3,33,2
367800,305.625106,119,0.097862,51,D3#,33,2
367920,305.72379,119,0.097862,56,G3#,33,2
368040,305.822474,119,0.097862,60,C4,33,2
368160,305.921159,119,0.097861,48,C3,33,2
368280,306.019843,119,0.097862,51,D3#,33,2
368400,306.118527,119,0.097862,56,G3#,33,2
368520,306.217211,119,0.097862,60,C4,33,2
368640,306.315896,239,0.196546,73,C5#,33,1
368640,306.315896,119,0.097861,48,C3,33,2
368760,306.41458,119,0.097862,49,C3#,33,2
368880,306.513264,119,0.097862,77,F5,33,1
368880,306.513264,119,0.097862,53,F3,33,2
369000,306.611948,119,0.097862,75,D5#,33,1
369000,306.611948,119,0.097862,56,G3#,33,2
369120,306.710633,239,0.196546,73,C5#,33,1
369120,306.710633,119,0.097861,48,C3,33,2
369240,306.809317,119,0.097862,49,C3#,33,2
369360,306.908001,119,0.097862,53,F3,33,2
369480,307.006685,119,0.097862,56,G3#,33,2
369600,307.10537,239,0.196546,78,F5#,33,1
369600,307.10537,119,0.097861,46,A2#,33,2
369720,307.204054,119,0.097862,49,C3#,33,2
369840,307.302738,119,0.097862,82,A5#,33,1
369840,307.302738,119,0.097862,54,F3#,33,2
369960,307.401422,119,0.097862,80,G5#,33,1
369960,307.401422,119,0.097862,58,A3#,33,2
370080,307.500107,239,0.196546,78,F5#,33,1
370080,307.500107,119,0.097861,46,A2#,33,2
370200,307.598791,119,0.097862,49,C3#,33,2
370320,307.697475,119,0.097862,54,F3#,33,2
370440,307.796159,119,0.097862,58,A3#,33,2
370560,307.894844,239,0.196546,60,C4,33,1
370560,307.894844,119,0.097861,46,A2#,33,2
370680,307.993528,119,0.097862,48,C3,33,2
370800,308.092212,119,0.097862,64,E4,33,1
370800,308.092212,119,0.097862,52,E3,33,2
370920,308.190896,119,0.097862,62,D4,33,1
370920,308.190896,119,0.097862,55,G3,33,2
371040,308.289581,239,0.196546,60,C4,33,1
371040,308.289581,119,0.097861,46,A2#,33,2
371160,308.388265,119,0.097862,48,C3,33,2
371280,308.486949,119,0.097862,52,E3,33,2
371400,308.585633,119,0.097862,55,G3,33,2
371520,308.684318,959,0.788651,72,C5,33,1
371520,308.684318,119,0.097861,44,G2#,33,2
371640,308.783002,119,0.097862,48,C3,33,2
371760,308.881686,119,0.097862,53,F3,33,2
371880,308.98037,119,0.097862,56,G3#,33,2
372000,309.079055,119,0.097861,44,G2#,33,2
372120,309.177739,119,0.097862,48,C3,33,2
372240,309.276423,119,0.097862,53,F3,33,2
372360,309.375107,119,0.097862,56,G3#,33,2
372480,309.473792,239,0.196546,72,C5,40,1
372480,309.473792,119,0.097861,43,G2,40,2
372600,309.572476,119,0.097862,46,A2#,40,2
372720,309.67116,119,0.097862,76,E5,40,1
372720,309.67116,119,0.097862,52,E3,40,2
372840,309.769844,119,0.097862,74,D5,40,1
372840,309.769844,119,0.097862,55,G3,40,2
372960,309.868529,239,0.196546,72,C5,47,1
372960,309.868529,119,0.097861,43,G2,47,2
373080,309.967213,119,0.097862,46,A2#,47,2
373200,310.065897,119,0.097862,52,E3,47,2
373320,310.164581,119,0.097862,55,G3,47,2
373440,310.263266,959,0.788651,84,C6,54,1
373440,310.263266,119,0.097861,41,F2,54,2
373560,310.36195,119,0.097862,44,G2#,54,2
373680,310.460634,119,0.097862,48,C3,54,2
373800,310.559318,119,0.097862,53,F3,54,2
373920,310.658003,159,0.130756,41,F2,61,2
374080,310.789582,159,0.130756,44,G2#,61,2
374240,310.921161,159,0.130756,53,F3,61,2
374400,311.05274,239,0.196546,84,C6,68,1
374400,311.05274,159,0.130756,40,E2,68,2
374560,311.184319,159,0.130756,43,G2,68,2
374640,311.250108,119,0.097862,88,E6,68,1
374720,311.315898,159,0.130756,52,E3,68,2
374760,311.348792,119,0.097862,86,D6,68,1
374880,311.447477,119,0.097861,84,C6,75,1
374880,311.447477,159,0.130756,39,D2#,75,2
375040,311.579056,159,0.130756,43,G2,75,2
375120,311.644845,119,0.097862,84,C6,75,1
375200,311.710635,159,0.130756,51,D3#,75,2
375360,311.842214,119,0.097861,84,C6,85,1
375360,311.842214,159,0.130756,38,D2,85,2
375520,311.973793,159,0.130756,41,F2,85,2
375600,312.039582,239,0.196546,84,C6,85,1
375680,312.105372,159,0.130756,50,D3,85,2
375840,312.236951,239,0.196546,89,F6,92,1
375840,312.236951,159,0.130756,37,C2#,92,2
376000,312.36853,159,0.130756,41,F2,92,2
376080,312.434319,239,0.196546,83,B5,92,1
376160,312.500109,159,0.130756,49,C3#,92,2
376320,312.631688,479,0.393914,84,C6,96,1
376320,312.631688,159,0.130756,48,C3,96,2
376320,312.631688,159,0.130756,36,C2,96,2
376480,312.763267,159,0.130756,43,G2,96,2
376640,312.894846,159,0.130756,40,E2,96,2
376800,313.026425,959,0.788651,67,G4,96,1
376800,313.026425,159,0.130756,43,G2,96,2
376960,313.158004,159,0.130756,48,C3,96,2
377120,313.289583,159,0.130756,52,E3,96,2
377280,313.421162,159,0.130756,50,D3,96,2
377440,313.552741,159,0.130756,47,B2,96,2
377600,313.68432,159,0.130756,43,G2,96,2
377760,313.815899,479,0.393914,67,G4,96,1
377760,313.815899,159,0.130756,47,B2,96,2
377920,313.947478,159,0.130756,50,D3,96,2
378080,314.079057,159,0.130756,53,F3,96,2
378240,314.210636,159,0.130756,72,C5,96,1
378240,314.210636,159,0.130756,52,E3,96,2
378400,314.342215,159,0.130756,67,G4,96,1
378400,314.342215,159,0.130756,55,G3,96,2
378560,314.473794,159,0.130756,64,E4,96,1
378560,314.473794,159,0.130756,60,C4,96,2
378720,314.605373,159,0.130756,67,G4,96,1
378720,314.605373,159,0.130756,55,G3,96,2
378880,314.736952,159,0.130756,72,C5,96,1
378880,314.736952,159,0.130756,52,E3,96,2
379040,314.868531,159,0.130756,76,E5,96,1
379040,314.868531,159,0.130756,48,C3,96,2
379200,315.00011,159,0.130756,74,D5,96,1
379200,315.00011,159,0.130756,53,F3,96,2
379360,315.131689,159,0.130756,71,B4,96,1
379360,315.131689,159,0.130756,56,G3#,96,2
379520,315.263268,159,0.130756,68,G4#,96,1
379520,315.263268,159,0.130756,60,C4,96,2
379680,315.394847,159,0.130756,71,B4,96,1
379680,315.394847,159,0.130756,56,G3#,96,2
379840,315.526426,159,0.130756,74,D5,96,1
379840,315.526426,159,0.130756,53,F3,96,2
380000,315.658005,159,0.130756,77,F5,96,1
380000,315.658005,159,0.130756,48,C3,96,2
380160,315.789584,159,0.130756,76,E5,96,1
380160,315.789584,639,0.525493,55,G3,96,2
380320,315.921163,159,0.130756,73,C5#,96,1
380320,315.921163,319,0.262335,58,A3#,96,2
380480,316.052742,159,0.130756,70,A4#,96,1
380480,316.052742,3519,2.893915,60,C4,96,2
380640,316.184321,159,0.130756,73,C5#,96,1
380640,316.184321,3359,2.762336,58,A3#,96,2
380800,316.3159,159,0.130756,76,E5,96,1
380800,316.3159,3199,2.630757,55,G3,96,2
380960,316.447479,159,0.130756,79,G5,96,1
380960,316.447479,3039,2.499178,48,C3,96,2
381120,316.579058,159,0.130756,82,A5#,96,1
381280,316.710637,159,0.130756,76,E5,96,1
381440,316.842216,159,0.130756,85,C6#,96,1
381600,316.973795,159,0.130756,76,E5,96,1
381760,317.105374,159,0.130756,73,C5#,96,1
381920,317.236953,159,0.130756,82,A5#,96,1
382080,317.368532,159,0.130756,73,C5#,96,1
382240,317.500111,159,0.130756,70,A4#,96,1
382400,317.63169,159,0.130756,76,E5,96,1
382560,317.763269,159,0.130756,70,A4#,96,1
382720,317.894848,159,0.130756,64,E4,96,1
382880,318.026427,159,0.130756,73,C5#,96,1
383040,318.158006,159,0.130756,70,A4#,96,1
383200,318.289585,159,0.130756,64,E4,96,1
383360,318.421164,159,0.130756,72,C5,96,1
383520,318.552743,159,0.130756,70,A4#,96,1
383680,318.684322,159,0.130756,64,E4,96,1
383840,318.815901,159,0.130756,72,C5,96,1
384000,318.94748,479,0.393914,72,C5,96,1
384000,318.94748,479,0.393914,69,A4,96,1
384000,318.94748,479,0.393914,65,F4,96,1
384000,318.94748,159,0.130756,53,F3,96,2
384000,318.94748,159,0.130756,41,F2,96,2
384160,319.079059,159,0.130756,48,C3,96,2
384320,319.210638,159,0.130756,45,A2,96,2
384480,319.342217,959,0.788651,72,C5,96,1
384480,319.342217,159,0.130756,48,C3,96,2
384640,319.473796,159,0.130756,53,F3,96,2
384800,319.605375,159,0.130756,57,A3,96,2
384960,319.736954,159,0.130756,55,G3,96,2
385120,319.868533,159,0.130756,52,E3,96,2
385280,320.000112,159,0.130756,48,C3,96,2
385440,320.131691,479,0.393914,72,C5,96,1
385440,320.131691,159,0.130756,52,E3,96,2
385600,320.26327,159,0.130756,55,G3,96,2
385760,320.394849,159,0.130756,58,A3#,96,2
385920,320.526428,159,0.130756,77,F5,96,1
385920,320.526428,159,0.130756,57,A3,96,2
386080,320.658007,159,0.130756,72,C5,96,1
386080,320.658007,159,0.130756,60,C4,96,2
386240,320.789586,159,0.130756,69,A4,96,1
386240,320.789586,159,0.130756,65,F4,96,2
386400,320.921165,159,0.130756,72,C5,96,1
386400,320.921165,159,0.130756,60,C4,96,2
386560,321.052744,159,0.130756,77,F5,96,1
386560,321.052744,159,0.130756,57,A3,96,2
386720,321.184323,159,0.130756,81,A5,96,1
386720,321.184323,159,0.130756,53,F3,96,2
386880,321.315902,159,0.130756,79,G5,96,1
386880,321.315902,159,0.130756,58,A3#,96,2
387040,321.447481,159,0.130756,76,E5,96,1
387040,321.447481,159,0.130756,61,C4#,96,2
387200,321.57906,159,0.130756,73,C5#,96,1
387200,321.57906,159,0.130756,65,F4,96,2
387360,321.710639,159,0.130756,76,E5,96,1
387360,321.710639,159,0.130756,61,C4#,96,2
387520,321.842218,159,0.130756,79,G5,96,1
387520,321.842218,159,0.130756,58,A3#,96,2
387680,321.973797,159,0.130756,82,A5#,96,1
387680,321.973797,159,0.130756,53,F3,96,2
387840,322.105376,159,0.130756,81,A5,96,1
387840,322.105376,639,0.525493,60,C4,96,2
388000,322.236955,159,0.130756,78,F5#,96,1
388000,322.236955,319,0.262335,63,D4#,96,2
388160,322.368534,159,0.130756,75,D5#,96,1
388160,322.368534,3519,2.893915,65,F4,96,2
388320,322.500113,159,0.130756,78,F5#,96,1
388320,322.500113,3359,2.762336,63,D4#,96,2
388480,322.631692,159,0.130756,81,A5,96,1
388480,322.631692,3199,2.630757,60,C4,96,2
388640,322.763271,159,0.130756,84,C6,96,1
388640,322.763271,3039,2.499178,53,F3,96,2
388800,322.89485,159,0.130756,81,A5,96,1
388960,323.026429,159,0.130756,78,F5#,96,1
389120,323.158008,159,0.130756,87,D6#,96,1
389280,323.289587,159,0.130756,78,F5#,96,1
389440,323.421166,159,0.130756,75,D5#,96,1
389600,323.552745,159,0.130756,84,C6,96,1
389760,323.684324,159,0.130756,75,D5#,96,1
389920,323.815903,159,0.130756,72,C5,96,1
390080,323.947482,159,0.130756,81,A5,96,1
390240,324.079061,159,0.130756,75,D5#,96,1
390400,324.21064,159,0.130756,69,A4,96,1
390560,324.342219,159,0.130756,78,F5#,96,1
390720,324.473798,159,0.130756,75,D5#,96,1
390880,324.605377,159,0.130756,69,A4,96,1
391040,324.736956,159,0.130756,77,F5,96,1
391200,324.868535,159,0.130756,75,D5#,96,1
391360,325.000114,159,0.130756,69,A4,96,1
391520,325.131693,159,0.130756,77,F5,96,1
391680,325.263272,479,0.393914,77,F5,96,1
391680,325.263272,479,0.393914,74,D5,96,1
391680,325.263272,479,0.393914,70,A4#,96,1
391680,325.263272,159,0.130756,46,A2#,96,2
391680,325.263272,159,0.130756,34,A1#,96,2
391840,325.394851,159,0.130756,41,F2,96,2
392000,325.52643,159,0.130756,38,D2,96,2
392160,325.658009,959,0.788651,65,F4,96,1
392160,325.658009,159,0.130756,41,F2,96,2
392320,325.789588,159,0.130756,46,A2#,96,2
392480,325.921167,159,0.130756,50,D3,96,2
392640,326.052746,159,0.130756,48,C3,96,2
392800,326.184325,159,0.130756,45,A2,96,2
392960,326.315904,159,0.130756,41,F2,96,2
393120,326.447483,479,0.393914,65,F4,96,1
393120,326.447483,159,0.130756,45,A2,96,2
393280,326.579062,159,0.130756,48,C3,96,2
393440,326.710641,159,0.130756,51,D3#,96,2
393600,326.84222,159,0.130756,70,A4#,96,1
393600,326.84222,159,0.130756,50,D3,96,2
393760,326.973799,159,0.130756,65,F4,96,1
393760,326.973799,159,0.130756,53,F3,96,2
393920,327.105378,159,0.130756,62,D4,96,1
393920,327.105378,159,0.130756,58,A3#,96,2
394080,327.236957,159,0.130756,65,F4,96,1
394080,327.236957,159,0.130756,53,F3,96,2
394240,327.368536,159,0.130756,70,A4#,96,1
394240,327.368536,159,0.130756,50,D3,96,2
394400,327.500115,159,0.130756,74,D5,96,1
394400,327.500115,159,0.130756,46,A2#,96,2
394560,327.631694,159,0.130756,72,C5,96,1
394560,327.631694,159,0.130756,51,D3#,96,2
394720,327.763273,159,0.130756,69,A4,96,1
394720,327.763273,159,0.130756,54,F3#,96,2
394880,327.894852,159,0.130756,66,F4#,96,1
394880,327.894852,159,0.130756,58,A3#,96,2
395040,328.026431,159,0.130756,69,A4,96,1
395040,328.026431,159,0.130756,54,F3#,96,2
395200,328.15801,159,0.130756,72,C5,96,1
395200,328.15801,159,0.130756,51,D3#,96,2
395360,328.289589,159,0.130756,75,D5#,96,1
395360,328.289589,159,0.130756,46,A2#,96,2
395520,328.421168,159,0.130756,74,D5,96,1
395520,328.421168,639,0.525493,53,F3,96,2
395680,328.552747,159,0.130756,71,B4,96,1
395680,328.552747,319,0.262335,56,G3#,96,2
395840,328.684326,159,0.130756,68,G4#,96,1
395840,328.684326,3519,2.893915,58,A3#,96,2
396000,328.815905,159,0.130756,71,B4,96,1
396000,328.815905,3359,2.762336,56,G3#,96,2
396160,328.947484,159,0.130756,74,D5,96,1
396160,328.947484,3199,2.630757,53,F3,96,2
396320,329.079063,159,0.130756,77,F5,96,1
396320,329.079063,3039,2.499178,46,A2#,96,2
396480,329.210642,159,0.130756,80,G5#,96,1
396640,329.342221,159,0.130756,74,D5,96,1
396800,329.4738,159,0.130756,83,B5,96,1
396960,329.605379,159,0.130756,74,D5,96,1
397120,329.736958,159,0.130756,71,B4,96,1
397280,329.868537,159,0.130756,80,G5#,96,1
397440,330.000116,159,0.130756,71,B4,96,1
397600,330.131695,159,0.130756,68,G4#,96,1
397760,330.263274,159,0.130756,77,F5,96,1
397920,330.394853,159,0.130756,68,G4#,96,1
398080,330.526432,159,0.130756,65,F4,96,1
398240,330.658011,159,0.130756,74,D5,96,1
398400,330.78959,159,0.130756,68,G4#,96,1
398560,330.921169,159,0.130756,62,D4,96,1
398720,331.052748,159,0.130756,71,B4,96,1
398880,331.184327,159,0.130756,68,G4#,96,1
399040,331.315906,159,0.130756,62,D4,96,1
399200,331.447485,159,0.130756,70,A4#,96,1
399360,331.579064,159,0.130756,78,F5#,96,1
399360,331.579064,639,0.525493,51,D3#,96,2
399520,331.710643,159,0.130756,75,D5#,96,1
399520,331.710643,319,0.262335,54,F3#,96,2
399680,331.842222,159,0.130756,70,A4#,96,1
399680,331.842222,3519,2.893915,58,A3#,96,2
399840,331.973801,159,0.130756,75,D5#,96,1
399840,331.973801,3359,2.762336,54,F3#,96,2
400000,332.10538,159,0.130756,78,F5#,96,1
400000,332.10538,3199,2.630757,51,D3#,96,2
400160,332.236959,159,0.130756,82,A5#,96,1
400160,332.236959,3039,2.499178,46,A2#,96,2
400320,332.368538,159,0.130756,78,F5#,96,1
400480,332.500117,159,0.130756,75,D5#,96,1
400640,332.631696,159,0.130756,87,D6#,96,1
400800,332.763275,159,0.130756,75,D5#,96,1
400960,332.894854,159,0.130756,70,A4#,96,1
401120,333.026433,159,0.130756,82,A5#,96,1
401280,333.158012,159,0.130756,70,A4#,96,1
401440,333.289591,159,0.130756,66,F4#,96,1
401600,333.42117,159,0.130756,78,F5#,96,1
401760,333.552749,159,0.130756,66,F4#,96,1
401920,333.684328,159,0.130756,63,D4#,96,1
402080,333.815907,159,0.130756,75,D5#,96,1
402240,333.947486,159,0.130756,66,F4#,96,1
402400,334.079065,159,0.130756,63,D4#,96,1
402560,334.210644,159,0.130756,75,D5#,96,1
402720,334.342223,159,0.130756,66,F4#,96,1
402880,334.473802,159,0.130756,63,D4#,96,1
403040,334.605381,159,0.130756,75,D5#,96,1
403200,334.73696,159,0.130756,78,F5#,96,1
403200,334.73696,639,0.525493,49,C3#,96,2
403360,334.868539,159,0.130756,76,E5,96,1
403360,334.868539,319,0.262335,54,F3#,96,2
403520,335.000118,159,0.130756,73,C5#,96,1
403520,335.000118,3519,2.893915,58,A3#,96,2
403680,335.131697,159,0.130756,76,E5,96,1
403680,335.131697,3359,2.762336,54,F3#,96,2
403840,335.263276,159,0.130756,78,F5#,96,1
403840,335.263276,3199,2.630757,49,C3#,96,2
404000,335.394855,159,0.130756,85,C6#,96,1
404000,335.394855,3039,2.499178,46,A2#,96,2
404160,335.526434,159,0.130756,78,F5#,96,1
404320,335.658013,159,0.130756,76,E5,96,1
404480,335.789592,159,0.130756,88,E6,96,1
404640,335.921171,159,0.130756,76,E5,96,1
404800,336.05275,159,0.130756,73,C5#,96,1
404960,336.184329,159,0.130756,85,C6#,96,1
405120,336.315908,159,0.130756,73,C5#,96,1
405280,336.447487,159,0.130756,66,F4#,96,1
405440,336.579066,159,0.130756,78,F5#,96,1
405600,336.710645,159,0.130756,66,F4#,96,1
405760,336.842224,159,0.130756,64,E4,96,1
405920,336.973803,159,0.130756,76,E5,96,1
406080,337.105382,159,0.130756,66,F4#,96,1
406240,337.236961,159,0.130756,64,E4,96,1
406400,337.36854,159,0.130756,76,E5,96,1
406560,337.500119,159,0.130756,66,F4#,96,1
406720,337.631698,159,0.130756,64,E4,96,1
406880,337.763277,159,0.130756,76,E5,96,1
407040,337.894856,159,0.130756,78,F5#,96,1
407040,337.894856,639,0.525493,50,D3,96,2
407200,338.026435,159,0.130756,74,D5,96,1
407200,338.026435,319,0.262335,54,F3#,96,2
407360,338.158014,159,0.130756,71,B4,96,1
407360,338.158014,3519,2.893915,59,B3,96,2
407520,338.289593,159,0.130756,74,D5,96,1
407520,338.289593,3359,2.762336,54,F3#,96,2
407680,338.421172,159,0.130756,78,F5#,96,1
407680,338.421172,3199,2.630757,50,D3,96,2
407840,338.552751,159,0.130756,83,B5,96,1
407840,338.552751,3039,2.499178,47,B2,96,2
408000,338.68433,159,0.130756,78,F5#,96,1
408160,338.815909,159,0.130756,74,D5,96,1
408320,338.947488,159,0.130756,86,D6,96,1
408480,339.079067,159,0.130756,74,D5,96,1
408640,339.210646,159,0.130756,71,B4,96,1
408800,339.342225,159,0.130756,83,B5,96,1
408960,339.473804,159,0.130756,71,B4,96,1
409120,339.605383,159,0.130756,66,F4#,96,1
409280,339.736962,159,0.130756,78,F5#,96,1
409440,339.868541,159,0.130756,66,F4#,96,1
409600,340.00012,159,0.130756,62,D4,96,1
409760,340.131699,159,0.130756,74,D5,96,1
409920,340.263278,159,0.130756,66,F4#,96,1
410080,340.394857,159,0.130756,62,D4,96,1
410240,340.526436,159,0.130756,74,D5,96,1
410400,340.658015,159,0.130756,66,F4#,96,1
410560,340.789594,159,0.130756,62,D4,96,1
410720,340.921173,159,0.130756,74,D5,96,1
410880,341.052752,159,0.130756,79,G5,96,1
410880,341.052752,639,0.525493,50,D3,96,2
411040,341.184331,159,0.130756,74,D5,96,1
411040,341.184331,319,0.262335,55,G3,96,2
411200,341.31591,159,0.130756,71,B4,96,1
411200,341.31591,3519,2.893915,59,B3,96,2
411360,341.447489,159,0.130756,74,D5,96,1
411360,341.447489,3359,2.762336,55,G3,96,2
411520,341.579068,159,0.130756,79,G5,96,1
411520,341.579068,3199,2.630757,50,D3,96,2
411680,341.710647,159,0.130756,83,B5,96,1
411680,341.710647,3039,2.499178,47,B2,96,2
411840,341.842226,159,0.130756,79,G5,96,1
412000,341.973805,159,0.130756,74,D5,96,1
412160,342.105384,159,0.130756,86,D6,96,1
412320,342.236963,159,0.130756,74,D5,96,1
412480,342.368542,159,0.130756,71,B4,96,1
412640,342.500121,159,0.130756,83,B5,96,1
412800,342.6317,159,0.130756,71,B4,96,1
412960,342.763279,159,0.130756,67,G4,96,1
413120,342.894858,159,0.130756,79,G5,96,1
413280,343.026437,159,0.130756,67,G4,96,1
413440,343.158016,159,0.130756,65,F4,96,1
413600,343.289595,159,0.130756,77,F5,96,1
413760,343.421174,159,0.130756,67,G4,96,1
413920,343.552753,159,0.130756,62,D4,96,1
414080,343.684332,159,0.130756,74,D5,96,1
414240,343.815911,159,0.130756,67,G4,96,1
414400,343.94749,159,0.130756,62,D4,96,1
414560,344.079069,159,0.130756,74,D5,96,1
414720,344.210648,159,0.130756,84,C6,96,1
414720,344.210648,639,0.525493,51,D3#,96,2
414880,344.342227,159,0.130756,79,G5,96,1
414880,344.342227,319,0.262335,55,G3,96,2
415040,344.473806,159,0.130756,75,D5#,96,1
415040,344.473806,3519,2.893915,60,C4,96,2
415200,344.605385,159,0.130756,79,G5,96,1
415200,344.605385,3359,2.762336,55,G3,96,2
415360,344.736964,159,0.130756,84,C6,96,1
415360,344.736964,3199,2.630757,51,D3#,96,2
415520,344.868543,159,0.130756,87,D6#,96,1
415520,344.868543,3039,2.499178,48,C3,96,2
415680,345.000122,159,0.130756,79,G5,96,1
415840,345.131701,159,0.130756,75,D5#,96,1
416000,345.26328,159,0.130756,87,D6#,96,1
416160,345.394859,159,0.130756,75,D5#,96,1
416320,345.526438,159,0.130756,72,C5,96,1
416480,345.658017,159,0.130756,84,C6,96,1
416640,345.789596,159,0.130756,72,C5,96,1
416800,345.921175,159,0.130756,67,G4,96,1
416960,346.052754,159,0.130756,79,G5,96,1
417120,346.184333,159,0.130756,67,G4,96,1
417280,346.315912,159,0.130756,63,D4#,96,1
417440,346.447491,159,0.130756,75,D5#,96,1
417600,346.57907,159,0.130756,67,G4,96,1
417760,346.710649,159,0.130756,63,D4#,96,1
417920,346.842228,159,0.130756,75,D5#,96,1
418080,346.973807,159,0.130756,67,G4,96,1
418240,347.105386,159,0.130756,63,D4#,96,1
418400,347.236965,159,0.130756,75,D5#,96,1
418560,347.368544,159,0.130756,77,F5,96,1
418560,347.368544,1919,1.578125,56,G3#,96,2
418720,347.500123,159,0.130756,73,C5#,96,1
418720,347.500123,319,0.262335,61,C4#,96,2
418880,347.631702,159,0.130756,68,G4#,96,1
418880,347.631702,1599,1.314967,65,F4,96,2
419040,347.763281,159,0.130756,73,C5#,96,1
419040,347.763281,1439,1.183388,61,C4#,96,2
419200,347.89486,159,0.130756,77,F5,96,1
419360,348.026439,159,0.130756,80,G5#,96,1
419360,348.026439,1119,0.92023,53,F3,96,2
419520,348.158018,159,0.130756,77,F5,96,1
419680,348.289597,159,0.130756,73,C5#,96,1
419840,348.421176,159,0.130756,68,G4#,96,1
420000,348.552755,159,0.130756,77,F5,96,1
420160,348.684334,159,0.130756,73,C5#,96,1
420320,348.815913,159,0.130756,68,G4#,96,1
420480,348.947492,159,0.130756,75,D5#,96,1
420480,348.947492,1919,1.578125,60,C4,96,2
420640,349.079071,159,0.130756,72,C5,96,1
420640,349.079071,319,0.262335,63,D4#,96,2
420800,349.21065,159,0.130756,69,A4,96,1
420800,349.21065,1599,1.314967,66,F4#,96,2
420960,349.342229,159,0.130756,72,C5,96,1
420960,349.342229,1439,1.183388,63,D4#,96,2
421120,349.473808,159,0.130756,75,D5#,96,1
421280,349.605387,159,0.130756,81,A5,96,1
421280,349.605387,1119,0.92023,54,F3#,96,2
421440,349.736966,159,0.130756,75,D5#,96,1
421600,349.868545,159,0.130756,72,C5,96,1
421760,350.000124,159,0.130756,69,A4,96,1
421920,350.131703,159,0.130756,75,D5#,96,1
422080,350.263282,159,0.130756,72,C5,96,1
422240,350.394861,159,0.130756,69,A4,96,1
422400,350.52644,639,0.525493,59,B3,96,2
422560,350.658019,319,0.262335,62,D4,96,2
422720,350.789598,1119,0.92023,67,G4,96,2
422880,350.921177,159,0.130756,71,B4,96,1
422880,350.921177,479,0.393914,62,D4,96,2
423040,351.052756,159,0.130756,74,D5,96,1
423040,351.052756,319,0.262335,59,B3,96,2
423040,351.052756,319,0.262335,59,B3,96,2
423200,351.184335,159,0.130756,79,G5,96,1
423200,351.184335,1599,1.314967,55,G3,96,2
423360,351.315914,159,0.130756,74,D5,96,1
423520,351.447493,159,0.130756,71,B4,96,1
423680,351.579072,159,0.130756,67,G4,96,1
423840,351.710651,159,0.130756,77,F5,49,1
423840,351.710651,479,0.393914,62,D4,49,2
424000,351.84223,159,0.130756,71,B4,49,1
424160,351.973809,159,0.130756,67,G4,49,1
424320,352.105388,159,0.130756,77,F5,49,1
424320,352.105388,479,0.393914,59,B3,49,2
424480,352.236967,159,0.130756,74,D5,49,1
424640,352.368546,159,0.130756,67,G4,49,1
424800,352.500125,159,0.130756,75,D5#,49,1
424800,352.500125,479,0.393914,55,G3,49,2
424800,352.500125,479,0.393914,55,G3,49,2
424960,352.631704,159,0.130756,74,D5,49,1
425120,352.763283,159,0.130756,67,G4,49,1
425280,352.894862,159,0.130756,75,D5#,49,1
425280,352.894862,479,0.393914,60,C4,49,2
425440,353.026441,159,0.130756,72,C5,49,1
425600,353.15802,159,0.130756,67,G4,49,1
425760,353.289599,159,0.130756,74,D5,49,1
425760,353.289599,479,0.393914,66,F4#,49,2
425920,353.421178,159,0.130756,72,C5,49,1
426080,353.552757,159,0.130756,69,A4,49,1
426240,353.684336,639,0.525493,47,B2,96,2
426400,353.815915,319,0.262335,50,D3,96,2
426560,353.947494,1119,0.92023,55,G3,96,2
426720,354.079073,159,0.130756,59,B3,96,1
426720,354.079073,479,0.393914,50,D3,96,2
426880,354.210652,159,0.130756,62,D4,96,1
426880,354.210652,319,0.262335,47,B2,96,2
426880,354.210652,319,0.262335,47,B2,96,2
427040,354.342231,159,0.130756,67,G4,96,1
427040,354.342231,1599,1.314967,43,G2,96,2
427200,354.47381,159,0.130756,62,D4,96,1
427360,354.605389,159,0.130756,59,B3,96,1
427520,354.736968,159,0.130756,55,G3,96,1
427680,354.868547,159,0.130756,65,F4,49,1
427680,354.868547,479,0.393914,50,D3,49,2
427840,355.000126,159,0.130756,59,B3,49,1
428000,355.131705,159,0.130756,55,G3,49,1
428160,355.263284,159,0.130756,65,F4,49,1
428160,355.263284,479,0.393914,47,B2,49,2
428320,355.394863,159,0.130756,59,B3,49,1
428480,355.526442,159,0.130756,55,G3,49,1
428640,355.658021,159,0.130756,63,D4#,49,1
428640,355.658021,479,0.393914,43,G2,49,2
428640,355.658021,479,0.393914,43,G2,49,2
428800,355.7896,159,0.130756,62,D4,49,1
428960,355.921179,159,0.130756,55,G3,49,1
429120,356.052758,159,0.130756,63,D4#,49,1
429120,356.052758,479,0.393914,48,C3,49,2
429280,356.184337,159,0.130756,60,C4,49,1
429440,356.315916,159,0.130756,55,G3,49,1
429600,356.447495,159,0.130756,62,D4,49,1
429600,356.447495,479,0.393914,54,F3#,49,2
429760,356.579074,159,0.130756,60,C4,49,1
429920,356.710653,159,0.130756,57,A3,49,1
430080,356.842232,159,0.130756,62,D4,49,1
430080,356.842232,239,0.196546,55,G3,49,2
430240,356.973811,159,0.130756,59,B3,49,1
430400,357.10539,159,0.130756,55,G3,49,1
430560,357.236969,159,0.130756,60,C4,47,1
430560,357.236969,479,0.393914,48,C3,47,2
430720,357.368548,159,0.130756,55,G3,47,1
430880,357.500127,159,0.130756,51,D3#,47,1
431040,357.631706,159,0.130756,59,B3,45,1
431040,357.631706,479,0.393914,43,G2,45,2
431200,357.763285,159,0.130756,55,G3,45,1
431360,357.894864,159,0.130756,50,D3,45,1
431520,358.026443,159,0.130756,57,A3,43,1
431520,358.026443,479,0.393914,36,C2,43,2
431680,358.158022,159,0.130756,51,D3#,43,1
431840,358.289601,159,0.130756,48,C3,43,1
432000,358.42118,159,0.130756,55,G3,41,1
432000,358.42118,479,0.393914,31,G1,41,2
432160,358.552759,159,0.130756,50,D3,41,1
432320,358.684338,159,0.130756,47,B2,41,1
432480,358.815917,159,0.130756,54,F3#,39,1
432480,358.815917,479,0.393914,36,C2,39,2
432640,358.947496,159,0.130756,51,D3#,39,1
432800,359.079075,159,0.130756,45,A2,39,1
432960,359.210654,159,0.130756,55,G3,37,1
432960,359.210654,479,0.393914,31,G1,37,2
433120,359.342233,159,0.130756,50,D3,37,1
433280,359.473812,159,0.130756,47,B2,37,1
433440,359.605391,159,0.130756,54,F3#,35,1
433440,359.605391,479,0.393914,36,C2,35,2
433600,359.73697,159,0.130756,51,D3#,35,1
433760,359.868549,159,0.130756,45,A2,35,1
433920,360.000128,2039,1.676809,55,G3,33,1
433920,360.000128,2039,1.676809,50,D3,33,1
433920,360.000128,2039,1.676809,47,B2,33,1
433920,360.000128,119,0.097861,31,G1,33,2
434040,360.098812,119,0.097862,36,C2,33,2
434160,360.197496,119,0.097862,35,B1,33,2
434280,360.29618,119,0.097862,33,A1,33,2
434400,360.394865,119,0.097861,31,G1,33,2
434520,360.493549,119,0.097862,36,C2,33,2
434640,360.592233,119,0.097862,35,B1,33,2
434760,360.690917,119,0.097862,33,A1,33,2
434880,360.789602,119,0.097861,31,G1,33,2
435000,360.888286,119,0.097862,36,C2,33,2
435120,360.98697,119,0.097862,35,B1,33,2
435240,361.085654,119,0.097862,33,A1,33,2
435360,361.184339,119,0.097861,31,G1,33,2
435480,361.283023,119,0.097862,36,C2,33,2
435600,361.381707,119,0.097862,35,B1,33,2
435720,361.480391,119,0.097862,33,A1,33,2
435840,361.579076,2039,1.676809,31,G1,33,2
435960,361.67776,119,0.097862,50,D3,33,1
436080,361.776444,119,0.097862,52,E3,33,1
436200,361.875128,119,0.097862,54,F3#,33,1
436320,361.973813,119,0.097861,55,G3,33,1
436440,362.072497,119,0.097862,50,D3,33,1
436560,362.171181,119,0.097862,52,E3,33,1
436680,362.269865,119,0.097862,54,F3#,33,1
436800,362.36855,119,0.097861,55,G3,33,1
436920,362.467234,119,0.097862,50,D3,33,1
437040,362.565918,119,0.097862,52,E3,33,1
437160,362.664602,119,0.097862,54,F3#,33,1
437280,362.763287,119,0.097861,55,G3,33,1
437400,362.861971,119,0.097862,50,D3,33,1
437520,362.960655,119,0.097862,52,E3,33,1
437640,363.059339,119,0.097862,54,F3#,33,1
437760,363.158024,2039,1.676809,55,G3,33,1
437880,363.256708,119,0.097862,36,C2,33,2
438000,363.355392,119,0.097862,35,B1,33,2
438120,363.454076,119,0.097862,33,A1,33,2
438240,363.552761,119,0.097861,31,G1,33,2
438360,363.651445,119,0.097862,36,C2,33,2
438480,363.750129,119,0.097862,35,B1,33,2
438600,363.848813,119,0.097862,33,A1,33,2
438720,363.947498,119,0.097861,31,G1,33,2
438840,364.046182,119,0.097862,36,C2,33,2
438960,364.144866,119,0.097862,35,B1,33,2
439080,364.24355,119,0.097862,33,A1,33,2
439200,364.342235,119,0.097861,31,G1,33,2
439320,364.440919,119,0.097862,36,C2,33,2
439440,364.539603,119,0.097862,35,B1,33,2
439560,364.638287,119,0.097862,33,A1,33,2
439680,364.736972,2039,1.676809,31,G1,33,2
439800,364.835656,119,0.097862,54,F3#,33,1
439920,364.93434,119,0.097862,55,G3,33,1
440040,365.033024,119,0.097862,57,A3,33,1
440160,365.131709,119,0.097861,59,B3,33,1
440280,365.230393,119,0.097862,54,F3#,33,1
440400,365.329077,119,0.097862,55,G3,33,1
440520,365.427761,119,0.097862,57,A3,33,1
440640,365.526446,119,0.097861,59,B3,33,1
440760,365.62513,119,0.097862,54,F3#,33,1
440880,365.723814,119,0.097862,55,G3,33,1
441000,365.822498,119,0.097862,57,A3,33,1
441120,365.921183,119,0.097861,59,B3,33,1
441240,366.019867,119,0.097862,54,F3#,33,1
441360,366.118551,119,0.097862,55,G3,33,1
441480,366.217235,119,0.097862,57,A3,33,1
441600,366.31592,239,0.196546,59,B3,42,1
441720,366.414604,119,0.097862,36,C2,42,2
441840,366.513288,119,0.097862,35,B1,42,2
441960,366.611972,119,0.097862,33,A1,42,2
442080,366.710657,119,0.097861,31,G1,42,2
442200,366.809341,119,0.097862,36,C2,42,2
442320,366.908025,119,0.097862,59,B3,42,1
442320,366.908025,119,0.097862,35,B1,42,2
442440,367.006709,119,0.097862,60,C4,42,1
442440,367.006709,119,0.097862,33,A1,42,2
442560,367.105394,119,0.097861,62,D4,42,1
442560,367.105394,119,0.097861,31,G1,42,2
442680,367.204078,119,0.097862,36,C2,42,2
442800,367.302762,119,0.097862,35,B1,42,2
442920,367.401446,119,0.097862,33,A1,42,2
443040,367.500131,119,0.097861,31,G1,42,2
443160,367.598815,119,0.097862,36,C2,42,2
443280,367.697499,79,0.064967,62,D4,42,1
443280,367.697499,119,0.097862,35,B1,42,2
443360,367.763289,79,0.064967,64,E4,42,1
443400,367.796183,119,0.097862,33,A1,42,2
443440,367.829078,79,0.064967,66,F4#,42,1
443520,367.894868,119,0.097861,67,G4,51,1
443520,367.894868,119,0.097861,31,G1,51,2
443640,367.993552,119,0.097862,36,C2,51,2
443760,368.092236,119,0.097862,35,B1,51,2
443880,368.19092,119,0.097862,33,A1,51,2
444000,368.289605,119,0.097861,31,G1,51,2
444120,368.388289,119,0.097862,36,C2,51,2
444240,368.486973,119,0.097862,67,G4,51,1
444240,368.486973,119,0.097862,35,B1,51,2
444360,368.585657,119,0.097862,69,A4,51,1
444360,368.585657,119,0.097862,33,A1,51,2
444480,368.684342,119,0.097861,71,B4,51,1
444480,368.684342,119,0.097861,31,G1,51,2
444600,368.783026,119,0.097862,36,C2,51,2
444720,368.88171,119,0.097862,71,B4,51,1
444720,368.88171,119,0.097862,35,B1,51,2
444840,368.980394,119,0.097862,72,C5,51,1
444840,368.980394,119,0.097862,33,A1,51,2
444960,369.079079,119,0.097861,74,D5,51,1
444960,369.079079,119,0.097861,31,G1,51,2
445080,369.177763,119,0.097862,36,C2,51,2
445200,369.276447,79,0.064967,74,D5,51,1
445200,369.276447,119,0.097862,35,B1,51,2
445280,369.342237,79,0.064967,76,E5,51,1
445320,369.375131,119,0.097862,33,A1,51,2
445360,369.408026,79,0.064967,78,F5#,51,1
445440,369.473816,119,0.097861,79,G5,60,1
445440,369.473816,119,0.097861,31,G1,60,2
445560,369.5725,119,0.097862,36,C2,60,2
445680,369.671184,119,0.097862,35,B1,60,2
445800,369.769868,119,0.097862,33,A1,60,2
445920,369.868553,119,0.097861,31,G1,60,2
446040,369.967237,119,0.097862,36,C2,60,2
446160,370.065921,79,0.064967,62,D4,60,1
446160,370.065921,119,0.097862,35,B1,60,2
446240,370.131711,79,0.064967,64,E4,60,1
446280,370.164605,119,0.097862,33,A1,60,2
446320,370.1975,79,0.064967,66,F4#,60,1
446400,370.26329,119,0.097861,67,G4,60,1
446400,370.26329,119,0.097861,31,G1,60,2
446520,370.361974,119,0.097862,36,C2,60,2
446640,370.460658,119,0.097862,35,B1,60,2
446760,370.559342,119,0.097862,33,A1,60,2
446880,370.658027,119,0.097861,31,G1,60,2
447000,370.756711,119,0.097862,36,C2,60,2
447120,370.855395,119,0.097862,67,G4,60,1
447120,370.855395,119,0.097862,35,B1,60,2
447240,370.954079,119,0.097862,69,A4,60,1
447240,370.954079,119,0.097862,33,A1,60,2
447360,371.052764,119,0.097861,71,B4,69,1
447360,371.052764,119,0.097861,31,G1,69,2
447480,371.151448,119,0.097862,36,C2,69,2
447600,371.250132,119,0.097862,35,B1,69,2
447720,371.348816,119,0.097862,33,A1,69,2
447840,371.447501,119,0.097861,31,G1,69,2
447960,371.546185,119,0.097862,36,C2,69,2
448080,371.644869,119,0.097862,71,B4,69,1
448080,371.644869,119,0.097862,35,B1,69,2
448200,371.743553,119,0.097862,72,C5,69,1
448200,371.743553,119,0.097862,33,A1,69,2
448320,371.842238,119,0.097861,74,D5,69,1
448320,371.842238,119,0.097861,31,G1,69,2
448440,371.940922,119,0.097862,36,C2,69,2
448560,372.039606,79,0.064967,74,D5,69,1
448560,372.039606,119,0.097862,35,B1,69,2
448640,372.105396,79,0.064967,76,E5,69,1
448680,372.13829,119,0.097862,33,A1,69,2
448720,372.171185,79,0.064967,78,F5#,69,1
448800,372.236975,119,0.097861,79,G5,69,1
448800,372.236975,119,0.097861,31,G1,69,2
448920,372.335659,119,0.097862,36,C2,69,2
449040,372.434343,119,0.097862,79,G5,69,1
449040,372.434343,119,0.097862,35,B1,69,2
449160,372.533027,119,0.097862,81,A5,69,1
449160,372.533027,119,0.097862,33,A1,69,2
449280,372.631712,119,0.097861,83,B5,78,1
449280,372.631712,119,0.097861,31,G1,78,2
449400,372.730396,119,0.097862,36,C2,78,2
449520,372.82908,119,0.097862,35,B1,78,2
449640,372.927764,119,0.097862,33,A1,78,2
449760,373.026449,119,0.097861,31,G1,78,2
449880,373.125133,119,0.097862,36,C2,78,2
450000,373.223817,79,0.064967,74,D5,78,1
450000,373.223817,119,0.097862,35,B1,78,2
450080,373.289607,79,0.064967,76,E5,78,1
450120,373.322501,119,0.097862,33,A1,78,2
450160,373.355396,79,0.064967,78,F5#,78,1
450240,373.421186,239,0.196546,79,G5,78,1
450240,373.421186,119,0.097861,31,G1,78,2
450360,373.51987,119,0.097862,36,C2,78,2
450480,373.618554,119,0.097862,35,B1,78,2
450600,373.717238,119,0.097862,33,A1,78,2
450720,373.815923,119,0.097861,31,G1,78,2
450840,373.914607,119,0.097862,36,C2,78,2
450960,374.013291,119,0.097862,79,G5,78,1
450960,374.013291,119,0.097862,35,B1,78,2
451080,374.111975,119,0.097862,81,A5,78,1
451080,374.111975,119,0.097862,33,A1,78,2
451200,374.21066,239,0.196546,83,B5,87,1
451200,374.21066,119,0.097861,31,G1,87,2
451320,374.309344,119,0.097862,36,C2,87,2
451440,374.408028,119,0.097862,35,B1,87,2
451560,374.506712,119,0.097862,33,A1,87,2
451680,374.605397,119,0.097861,31,G1,87,2
451800,374.704081,119,0.097862,36,C2,87,2
451920,374.802765,119,0.097862,79,G5,87,1
451920,374.802765,119,0.097862,35,B1,87,2
452040,374.901449,119,0.097862,81,A5,87,1
452040,374.901449,119,0.097862,33,A1,87,2
452160,375.000134,119,0.097861,83,B5,87,1
452160,375.000134,119,0.097861,31,G1,87,2
452280,375.098818,119,0.097862,36,C2,87,2
452400,375.197502,119,0.097862,83,B5,87,1
452400,375.197502,119,0.097862,35,B1,87,2
452520,375.296186,119,0.097862,84,C6,87,1
452520,375.296186,119,0.097862,33,A1,87,2
452640,375.394871,119,0.097861,86,D6,87,1
452640,375.394871,119,0.097861,31,G1,87,2
452760,375.493555,119,0.097862,36,C2,87,2
452880,375.592239,119,0.097862,86,D6,87,1
452880,375.592239,119,0.097862,35,B1,87,2
453000,375.690923,119,0.097862,88,E6,87,1
453000,375.690923,119,0.097862,33,A1,87,2
453120,375.789608,239,0.196546,89,F6,96,1
453120,375.789608,119,0.097861,31,G1,96,2
453240,375.888292,119,0.097862,36,C2,96,2
453360,375.986976,119,0.097862,35,B1,96,2
453480,376.08566,119,0.097862,33,A1,96,2
453600,376.184345,119,0.097861,31,G1,96,2
453720,376.283029,119,0.097862,36,C2,96,2
453840,376.381713,119,0.097862,86,D6,96,1
453840,376.381713,119,0.097862,35,B1,96,2
453960,376.480397,119,0.097862,88,E6,96,1
453960,376.480397,119,0.097862,33,A1,96,2
454080,376.579082,239,0.196546,89,F6,96,1
454080,376.579082,119,0.097861,31,G1,96,2
454200,376.677766,119,0.097862,37,C2#,96,2
454320,376.77645,119,0.097862,35,B1,96,2
454440,376.875134,119,0.097862,33,A1,96,2
454560,376.973819,119,0.097861,31,G1,96,2
454680,377.072503,119,0.097862,37,C2#,96,2
454800,377.171187,119,0.097862,86,D6,96,1
454800,377.171187,119,0.097862,35,B1,96,2
454920,377.269871,119,0.097862,88,E6,96,1
454920,377.269871,119,0.097862,33,A1,96,2
455040,377.368556,119,0.097861,89,F6,96,1
455040,377.368556,119,0.097861,31,G1,96,2
455160,377.46724,119,0.097862,38,D2,96,2
455280,377.565924,119,0.097862,86,D6,96,1
455280,377.565924,119,0.097862,35,B1,96,2
455400,377.664608,119,0.097862,88,E6,96,1
455400,377.664608,119,0.097862,33,A1,96,2
455520,377.763293,119,0.097861,89,F6,96,1
455520,377.763293,119,0.097861,31,G1,96,2
455640,377.861977,119,0.097862,38,D2,96,2
455760,377.960661,119,0.097862,86,D6,96,1
455760,377.960661,119,0.097862,35,B1,96,2
455880,378.059345,119,0.097862,88,E6,96,1
455880,378.059345,119,0.097862,33,A1,96,2
456000,378.15803,119,0.097861,89,F6,96,1
456000,378.15803,119,0.097861,31,G1,96,2
456120,378.256714,119,0.097862,38,D2,96,2
456240,378.355398,119,0.097862,86,D6,96,1
456240,378.355398,119,0.097862,35,B1,96,2
456360,378.454082,119,0.097862,88,E6,96,1
456360,378.454082,119,0.097862,33,A1,96,2
456480,378.552767,119,0.097861,89,F6,96,1
456480,378.552767,119,0.097861,31,G1,96,2
456600,378.651451,119,0.097862,38,D2,96,2
456720,378.750135,119,0.097862,86,D6,96,1
456720,378.750135,119,0.097862,35,B1,96,2
456840,378.848819,119,0.097862,88,E6,96,1
456840,378.848819,119,0.097862,33,A1,87,2
456960,378.947504,119,0.097861,89,F6,105,1
456960,378.947504,119,0.097861,31,G1,105,2
457080,379.046188,119,0.097862,88,E6,96,1
457080,379.046188,119,0.097862,33,A1,96,2
457200,379.144872,119,0.097862,86,D6,96,1
457200,379.144872,119,0.097862,35,B1,96,2
457320,379.243556,119,0.097862,84,C6,96,1
457320,379.243556,119,0.097862,36,C2,96,2
457440,379.342241,119,0.097861,83,B5,96,1
457440,379.342241,119,0.097861,38,D2,96,2
457560,379.440925,119,0.097862,84,C6,96,1
457560,379.440925,119,0.097862,36,C2,96,2
457680,379.539609,119,0.097862,86,D6,96,1
457680,379.539609,119,0.097862,35,B1,96,2
457800,379.638293,119,0.097862,88,E6,96,1
457800,379.638293,119,0.097862,33,A1,96,2
457920,379.736978,119,0.097861,89,F6,105,1
457920,379.736978,119,0.097861,31,G1,105,2
458040,379.835662,119,0.097862,88,E6,96,1
458040,379.835662,119,0.097862,33,A1,96,2
458160,379.934346,119,0.097862,86,D6,96,1
458160,379.934346,119,0.097862,35,B1,96,2
458280,380.03303,119,0.097862,84,C6,96,1
458280,380.03303,119,0.097862,36,C2,96,2
458400,380.131715,119,0.097861,83,B5,96,1
458400,380.131715,119,0.097861,38,D2,96,2
458520,380.230399,119,0.097862,84,C6,96,1
458520,380.230399,119,0.097862,36,C2,96,2
458640,380.329083,119,0.097862,86,D6,96,1
458640,380.329083,119,0.097862,35,B1,96,2
458760,380.427767,119,0.097862,88,E6,96,1
458760,380.427767,119,0.097862,33,A1,96,2
458880,380.526452,239,0.196546,89,F6,112,1
458880,380.526452,239,0.196546,31,G1,112,2
459120,380.72382,119,0.097862,88,E6,112,1
459120,380.72382,119,0.097862,33,A1,112,2
459240,380.822504,119,0.097862,86,D6,112,1
459240,380.822504,119,0.097862,35,B1,112,2
459360,380.921189,119,0.097861,84,C6,112,1
459360,380.921189,119,0.097861,36,C2,112,2
459480,381.019873,119,0.097862,83,B5,112,1
459480,381.019873,119,0.097862,38,D2,112,2
459600,381.118557,119,0.097862,81,A5,112,1
459600,381.118557,119,0.097862,40,E2,112,2
459720,381.217241,119,0.097862,79,G5,112,1
459720,381.217241,119,0.097862,41,F2,112,2
459840,381.315926,119,0.097861,77,F5,112,1
459840,381.315926,119,0.097861,43,G2,112,2
459960,381.41461,119,0.097862,76,E5,112,1
459960,381.41461,119,0.097862,45,A2,112,2
460080,381.513294,119,0.097862,74,D5,112,1
460080,381.513294,119,0.097862,47,B2,112,2
460200,381.611978,119,0.097862,72,C5,112,1
460200,381.611978,119,0.097862,48,C3,112,2
460320,381.710663,119,0.097861,71,B4,112,1
460320,381.710663,119,0.097861,50,D3,112,2
460440,381.809347,119,0.097862,69,A4,112,1
460440,381.809347,119,0.097862,52,E3,112,2
460560,381.908031,119,0.097862,67,G4,112,1
460560,381.908031,119,0.097862,53,F3,112,2
460680,382.006715,119,0.097862,65,F4,112,1
460680,382.006715,119,0.097862,55,G3,112,2
460800,382.1054,239,0.196546,64,E4,112,1
460800,382.1054,239,0.196546,48,C3,112,2
461040,382.302768,239,0.196546,52,E3,33,1
461040,382.302768,239,0.196546,48,C3,33,1
461040,382.302768,239,0.196546,43,G2,33,2
461040,382.302768,239,0.196546,36,C2,33,2
461280,382.500137,239,0.196546,52,E3,33,1
461280,382.500137,239,0.196546,48,C3,33,1
461280,382.500137,239,0.196546,43,G2,33,2
461280,382.500137,239,0.196546,36,C2,33,2
461520,382.697505,239,0.196546,52,E3,33,1
461520,382.697505,239,0.196546,48,C3,33,1
461520,382.697505,239,0.196546,43,G2,33,2
461520,382.697505,239,0.196546,36,C2,33,2
461760,382.894874,239,0.196546,52,E3,33,1
461760,382.894874,239,0.196546,48,C3,33,1
461760,382.894874,239,0.196546,43,G2,33,2
461760,382.894874,239,0.196546,36,C2,33,2
462000,383.092242,239,0.196546,52,E3,33,1
462000,383.092242,239,0.196546,48,C3,33,1
462000,383.092242,239,0.196546,43,G2,33,2
462000,383.092242,239,0.196546,36,C2,33,2
462240,383.289611,239,0.196546,52,E3,33,1
462240,383.289611,239,0.196546,48,C3,33,1
462240,383.289611,239,0.196546,43,G2,33,2
462240,383.289611,239,0.196546,36,C2,33,2
462480,383.486979,239,0.196546,52,E3,33,1
462480,383.486979,239,0.196546,48,C3,33,1
462480,383.486979,239,0.196546,43,G2,33,2
462480,383.486979,239,0.196546,36,C2,33,2
462720,383.684348,239,0.196546,52,E3,33,1
462720,383.684348,239,0.196546,48,C3,33,1
462720,383.684348,239,0.196546,43,G2,33,2
462720,383.684348,239,0.196546,36,C2,33,2
462960,383.881716,239,0.196546,52,E3,33,1
462960,383.881716,239,0.196546,48,C3,33,1
462960,383.881716,239,0.196546,43,G2,33,2
462960,383.881716,239,0.196546,36,C2,33,2
463200,384.079085,239,0.196546,52,E3,33,1
463200,384.079085,239,0.196546,48,C3,33,1
463200,384.079085,239,0.196546,43,G2,33,2
463200,384.079085,239,0.196546,36,C2,33,2
463440,384.276453,239,0.196546,52,E3,33,1
463440,384.276453,239,0.196546,48,C3,33,1
463440,384.276453,239,0.196546,43,G2,33,2
463440,384.276453,239,0.196546,36,C2,33,2
463680,384.473822,239,0.196546,52,E3,33,1
463680,384.473822,239,0.196546,48,C3,33,1
463680,384.473822,239,0.196546,43,G2,33,2
463680,384.473822,239,0.196546,36,C2,33,2
463920,384.67119,239,0.196546,52,E3,33,1
463920,384.67119,239,0.196546,48,C3,33,1
463920,384.67119,239,0.196546,43,G2,33,2
463920,384.67119,239,0.196546,36,C2,33,2
464160,384.868559,239,0.196546,54,F3#,33,1
464160,384.868559,239,0.196546,50,D3,33,1
464160,384.868559,239,0.196546,45,A2,33,2
464160,384.868559,239,0.196546,36,C2,33,2
464400,385.065927,239,0.196546,54,F3#,33,1
464400,385.065927,239,0.196546,50,D3,33,1
464400,385.065927,239,0.196546,45,A2,33,2
464400,385.065927,239,0.196546,36,C2,33,2
464640,385.263296,719,0.591283,55,G3,33,1
464640,385.263296,719,0.591283,50,D3,33,1
464640,385.263296,239,0.196546,43,G2,33,2
464640,385.263296,239,0.196546,35,B1,33,2
464880,385.460664,239,0.196546,43,G2,33,2
464880,385.460664,239,0.196546,35,B1,33,2
465120,385.658033,239,0.196546,43,G2,33,2
465120,385.658033,239,0.196546,35,B1,33,2
465360,385.855401,119,0.097862,59,B3,33,1
465360,385.855401,239,0.196546,43,G2,33,2
465360,385.855401,239,0.196546,35,B1,33,2
465480,385.954085,119,0.097862,57,A3,33,1
465600,386.05277,119,0.097861,55,G3,33,1
465600,386.05277,239,0.196546,43,G2,33,2
465600,386.05277,239,0.196546,35,B1,33,2
465840,386.250138,239,0.196546,43,G2,33,2
465840,386.250138,239,0.196546,35,B1,33,2
466080,386.447507,239,0.196546,43,G2,33,2
466080,386.447507,239,0.196546,35,B1,33,2
466320,386.644875,239,0.196546,43,G2,33,2
466320,386.644875,239,0.196546,35,B1,33,2
466560,386.842244,119,0.097861,85,C6#,33,1
466560,386.842244,239,0.196546,43,G2,33,2
466560,386.842244,239,0.196546,35,B1,33,2
466680,386.940928,599,0.492599,86,D6,33,1
466800,387.039612,239,0.196546,43,G2,33,2
466800,387.039612,239,0.196546,35,B1,33,2
467040,387.236981,239,0.196546,43,G2,33,2
467040,387.236981,239,0.196546,35,B1,33,2
467160,387.335665,119,0.097862,84,C6,33,1
467280,387.434349,119,0.097862,83,B5,33,1
467280,387.434349,239,0.196546,43,G2,33,2
467280,387.434349,239,0.196546,35,B1,33,2
467400,387.533033,119,0.097862,81,A5,33,1
467520,387.631718,239,0.196546,79,G5,33,1
467520,387.631718,239,0.196546,43,G2,33,2
467520,387.631718,239,0.196546,35,B1,33,2
467760,387.829086,239,0.196546,43,G2,33,2
467760,387.829086,239,0.196546,35,B1,33,2
468000,388.026455,239,0.196546,43,G2,33,2
468000,388.026455,239,0.196546,35,B1,33,2
468240,388.223823,239,0.196546,43,G2,33,2
468240,388.223823,239,0.196546,35,B1,33,2
468480,388.421192,239,0.196546,50,D3,33,1
468480,388.421192,239,0.196546,46,A2#,33,1
468480,388.421192,239,0.196546,41,F2,33,2
468480,388.421192,239,0.196546,34,A1#,33,2
468720,388.61856,239,0.196546,50,D3,33,1
468720,388.61856,239,0.196546,46,A2#,33,1
468720,388.61856,239,0.196546,41,F2,33,2
468720,388.61856,239,0.196546,34,A1#,33,2
468960,388.815929,239,0.196546,50,D3,33,1
468960,388.815929,239,0.196546,46,A2#,33,1
468960,388.815929,239,0.196546,41,F2,33,2
468960,388.815929,239,0.196546,34,A1#,33,2
469200,389.013297,239,0.196546,50,D3,33,1
469200,389.013297,239,0.196546,46,A2#,33,1
469200,389.013297,239,0.196546,41,F2,33,2
469200,389.013297,239,0.196546,34,A1#,33,2
469440,389.210666,239,0.196546,50,D3,33,1
469440,389.210666,239,0.196546,46,A2#,33,1
469440,389.210666,239,0.196546,41,F2,33,2
469440,389.210666,239,0.196546,34,A1#,33,2
469680,389.408034,239,0.196546,50,D3,33,1
469680,389.408034,239,0.196546,46,A2#,33,1
469680,389.408034,239,0.196546,41,F2,33,2
469680,389.408034,239,0.196546,34,A1#,33,2
469920,389.605403,239,0.196546,50,D3,33,1
469920,389.605403,239,0.196546,46,A2#,33,1
469920,389.605403,239,0.196546,41,F2,33,2
469920,389.605403,239,0.196546,34,A1#,33,2
470160,389.802771,239,0.196546,50,D3,33,1
470160,389.802771,239,0.196546,46,A2#,33,1
470160,389.802771,239,0.196546,41,F2,33,2
470160,389.802771,239,0.196546,34,A1#,33,2
470400,390.00014,239,0.196546,50,D3,33,1
470400,390.00014,239,0.196546,46,A2#,33,1
470400,390.00014,239,0.196546,41,F2,33,2
470400,390.00014,239,0.196546,34,A1#,33,2
470640,390.197508,239,0.196546,50,D3,33,1
470640,390.197508,239,0.196546,46,A2#,33,1
470640,390.197508,239,0.196546,41,F2,33,2
470640,390.197508,239,0.196546,34,A1#,33,2
470880,390.394877,239,0.196546,50,D3,33,1
470880,390.394877,239,0.196546,46,A2#,33,1
470880,390.394877,239,0.196546,41,F2,33,2
470880,390.394877,239,0.196546,34,A1#,33,2
471120,390.592245,239,0.196546,50,D3,33,1
471120,390.592245,239,0.196546,46,A2#,33,1
471120,390.592245,239,0.196546,41,F2,33,2
471120,390.592245,239,0.196546,34,A1#,33,2
471360,390.789614,239,0.196546,50,D3,33,1
471360,390.789614,239,0.196546,46,A2#,33,1
471360,390.789614,239,0.196546,41,F2,33,2
471360,390.789614,239,0.196546,34,A1#,33,2
471600,390.986982,239,0.196546,50,D3,33,1
471600,390.986982,239,0.196546,46,A2#,33,1
471600,390.986982,239,0.196546,41,F2,33,2
471600,390.986982,239,0.196546,34,A1#,33,2
471840,391.184351,239,0.196546,52,E3,33,1
471840,391.184351,239,0.196546,48,C3,33,1
471840,391.184351,239,0.196546,43,G2,33,2
471840,391.184351,239,0.196546,34,A1#,33,2
472080,391.381719,239,0.196546,52,E3,33,1
472080,391.381719,239,0.196546,48,C3,33,1
472080,391.381719,239,0.196546,43,G2,33,2
472080,391.381719,239,0.196546,34,A1#,33,2
472320,391.579088,719,0.591283,53,F3,33,1
472320,391.579088,719,0.591283,48,C3,33,1
472320,391.579088,239,0.196546,41,F2,33,2
472320,391.579088,239,0.196546,33,A1,33,2
472560,391.776456,239,0.196546,41,F2,33,2
472560,391.776456,239,0.196546,33,A1,33,2
472800,391.973825,239,0.196546,41,F2,33,2
472800,391.973825,239,0.196546,33,A1,33,2
473040,392.171193,119,0.097862,57,A3,33,1
473040,392.171193,239,0.196546,41,F2,33,2
473040,392.171193,239,0.196546,33,A1,33,2
473160,392.269877,119,0.097862,55,G3,33,1
473280,392.368562,119,0.097861,53,F3,33,1
473280,392.368562,239,0.196546,41,F2,33,2
473280,392.368562,239,0.196546,33,A1,33,2
473520,392.56593,239,0.196546,41,F2,33,2
473520,392.56593,239,0.196546,33,A1,33,2
473760,392.763299,239,0.196546,41,F2,33,2
473760,392.763299,239,0.196546,33,A1,33,2
474000,392.960667,239,0.196546,41,F2,33,2
474000,392.960667,239,0.196546,33,A1,33,2
474240,393.158036,119,0.097861,83,B5,33,1
474240,393.158036,239,0.196546,41,F2,33,2
474240,393.158036,239,0.196546,32,G1#,33,2
474360,393.25672,599,0.492599,84,C6,33,1
474480,393.355404,239,0.196546,41,F2,33,2
474480,393.355404,239,0.196546,32,G1#,33,2
474720,393.552773,239,0.196546,41,F2,33,2
474720,393.552773,239,0.196546,32,G1#,33,2
474840,393.651457,119,0.097862,82,A5#,33,1
474960,393.750141,119,0.097862,80,G5#,33,1
474960,393.750141,239,0.196546,41,F2,33,2
474960,393.750141,239,0.196546,32,G1#,33,2
475080,393.848825,119,0.097862,79,G5,33,1
475200,393.94751,239,0.196546,77,F5,33,1
475200,393.94751,239,0.196546,41,F2,33,2
475200,393.94751,239,0.196546,32,G1#,33,2
475440,394.144878,239,0.196546,41,F2,33,2
475440,394.144878,239,0.196546,32,G1#,33,2
475680,394.342247,239,0.196546,41,F2,33,2
475680,394.342247,239,0.196546,32,G1#,33,2
475920,394.539615,239,0.196546,41,F2,33,2
475920,394.539615,239,0.196546,32,G1#,33,2
476160,394.736984,119,0.097861,88,E6,36,1
476160,394.736984,239,0.196546,41,F2,6,2
476160,394.736984,239,0.196546,31,G1,36,2
476280,394.835668,1439,1.183388,89,F6,36,1
476400,394.934352,239,0.196546,41,F2,39,2
476400,394.934352,239,0.196546,31,G1,39,2
476640,395.131721,239,0.196546,41,F2,42,2
476640,395.131721,239,0.196546,31,G1,42,2
476880,395.329089,239,0.196546,41,F2,45,2
476880,395.329089,239,0.196546,31,G1,45,2
477120,395.526458,239,0.196546,41,F2,48,2
477120,395.526458,239,0.196546,31,G1,48,2
477360,395.723826,239,0.196546,41,F2,51,2
477360,395.723826,239,0.196546,31,G1,51,2
477600,395.921195,119,0.097861,89,F6,54,1
477600,395.921195,239,0.196546,41,F2,54,2
477600,395.921195,239,0.196546,32,G1#,54,2
477720,396.019879,119,0.097862,87,D6#,54,1
477840,396.118563,119,0.097862,86,D6,57,1
477840,396.118563,239,0.196546,41,F2,57,2
477840,396.118563,239,0.196546,32,G1#,57,2
477960,396.217247,119,0.097862,84,C6,57,1
478080,396.315932,119,0.097861,83,B5,60,1
478080,396.315932,239,0.196546,41,F2,60,2
478080,396.315932,239,0.196546,31,G1,60,2
478200,396.414616,119,0.097862,84,C6,60,1
478320,396.5133,119,0.097862,86,D6,64,1
478320,396.5133,239,0.196546,41,F2,64,2
478320,396.5133,239,0.196546,31,G1,64,2
478440,396.611984,119,0.097862,87,D6#,64,1
478560,396.710669,119,0.097861,89,F6,68,1
478560,396.710669,239,0.196546,41,F2,68,2
478560,396.710669,239,0.196546,32,G1#,68,2
478680,396.809353,119,0.097862,87,D6#,68,1
478800,396.908037,119,0.097862,86,D6,72,1
478800,396.908037,239,0.196546,41,F2,72,2
478800,396.908037,239,0.196546,32,G1#,72,2
478920,397.006721,119,0.097862,84,C6,72,1
479040,397.105406,119,0.097861,83,B5,76,1
479040,397.105406,239,0.196546,41,F2,76,2
479040,397.105406,239,0.196546,31,G1,76,2
479160,397.20409,119,0.097862,84,C6,76,1
479280,397.302774,119,0.097862,86,D6,80,1
479280,397.302774,239,0.196546,41,F2,80,2
479280,397.302774,239,0.196546,31,G1,80,2
479400,397.401458,119,0.097862,87,D6#,80,1
479520,397.500143,119,0.097861,89,F6,84,1
479520,397.500143,239,0.196546,41,F2,84,2
479520,397.500143,239,0.196546,32,G1#,84,2
479640,397.598827,119,0.097862,87,D6#,84,1
479760,397.697511,119,0.097862,86,D6,90,1
479760,397.697511,239,0.196546,41,F2,90,2
479760,397.697511,239,0.196546,32,G1#,90,2
479880,397.796195,119,0.097862,84,C6,90,1
480000,397.89488,119,0.097861,83,B5,96,1
480000,397.89488,479,0.393914,41,F2,96,2
480000,397.89488,479,0.393914,31,G1,96,2
480120,397.993564,119,0.097862,84,C6,96,1
480240,398.092248,119,0.097862,86,D6,96,1
480360,398.190932,119,0.097862,87,D6#,96,1
480480,398.289617,119,0.097861,89,F6,105,1
480480,398.289617,1199,0.98602,55,G3,105,2
480480,398.289617,1199,0.98602,43,G2,105,2
480600,398.388301,119,0.097862,87,D6#,96,1
480720,398.486985,119,0.097862,86,D6,96,1
480840,398.585669,119,0.097862,84,C6,96,1
480960,398.684354,119,0.097861,83,B5,96,1
481080,398.783038,119,0.097862,80,G5#,96,1
481200,398.881722,119,0.097862,79,G5,96,1
481320,398.980406,119,0.097862,77,F5,96,1
481440,399.079091,119,0.097861,75,D5#,96,1
481560,399.177775,119,0.097862,74,D5,96,1
481680,399.276459,119,0.097862,72,C5,96,1
481680,399.276459,119,0.097862,57,A3,96,2
481800,399.375143,119,0.097862,71,B4,96,1
481800,399.375143,119,0.097862,59,B3,96,2
481920,399.473828,239,0.196546,72,C5,96,1
481920,399.473828,239,0.196546,60,C4,96,2
482400,399.868565,239,0.196546,67,G4,77,1
482400,399.868565,239,0.196546,55,G3,77,2
482400,399.868565,239,0.196546,43,G2,77,2
482880,400.263302,239,0.196546,63,D4#,68,1
482880,400.263302,239,0.196546,51,D3#,68,2
482880,400.263302,239,0.196546,39,D2#,68,2
483360,400.658039,239,0.196546,60,C4,58,1
483360,400.658039,239,0.196546,48,C3,58,2
483360,400.658039,239,0.196546,36,C2,58,2
483840,401.052776,1919,3.156243,56,G3#,49,1
483840,401.052776,1919,3.156243,44,G2#,49,2
483840,401.052776,1919,3.156243,32,G1#,49,2
485760,404.210664,239,0.196546,73,C5#,33,1
485760,404.210664,239,0.196546,61,C4#,33,2
486240,404.605401,239,0.196546,68,G4#,33,1
486240,404.605401,239,0.196546,56,G3#,33,2
486720,405.000138,239,0.196546,65,F4,33,1
486720,405.000138,239,0.196546,53,F3,33,2
487200,405.394875,239,0.196546,61,C4#,33,1
487200,405.394875,239,0.196546,49,C3#,33,2
487680,405.789612,1919,3.156243,58,A3#,33,1
487680,405.789612,1919,3.156243,46,A2#,33,2
487680,405.789612,1919,3.156243,34,A1#,33,2
489600,408.9475,239,0.196546,63,D4#,33,2
489720,409.046184,119,0.097862,67,G4,33,1
489840,409.144868,119,0.097862,70,A4#,33,1
489960,409.243552,119,0.097862,75,D5#,33,1
490080,409.342237,239,0.196546,58,A3#,33,2
490200,409.440921,119,0.097862,67,G4,33,1
490320,409.539605,119,0.097862,70,A4#,33,1
490440,409.638289,119,0.097862,75,D5#,33,1
490560,409.736974,239,0.196546,55,G3,33,2
490680,409.835658,119,0.097862,67,G4,33,1
490800,409.934342,119,0.097862,70,A4#,33,1
490920,410.033026,119,0.097862,75,D5#,33,1
491040,410.131711,239,0.196546,51,D3#,33,2
491160,410.230395,119,0.097862,67,G4,33,1
491280,410.329079,119,0.097862,70,A4#,33,1
491400,410.427763,119,0.097862,75,D5#,33,1
491520,410.526448,239,0.196546,53,F3,33,2
491640,410.625132,119,0.097862,65,F4,33,1
491760,410.723816,119,0.097862,68,G4#,33,1
491880,410.8225,119,0.097862,75,D5#,33,1
492000,410.921185,239,0.196546,56,G3#,33,2
492120,411.019869,119,0.097862,65,F4,33,1
492240,411.118553,119,0.097862,71,B4,33,1
492360,411.217237,119,0.097862,74,D5,33,1
492480,411.315922,239,0.196546,57,A3,33,2
492600,411.414606,119,0.097862,63,D4#,33,1
492720,411.51329,119,0.097862,66,F4#,33,1
492840,411.611974,119,0.097862,74,D5,33,1
492960,411.710659,239,0.196546,54,F3#,33,2
493080,411.809343,119,0.097862,63,D4#,33,1
493200,411.908027,119,0.097862,69,A4,33,1
493320,412.006711,119,0.097862,72,C5,33,1
493440,412.105396,239,0.196546,55,G3,33,2
493560,412.20408,119,0.097862,62,D4,33,1
493680,412.302764,119,0.097862,67,G4,33,1
493800,412.401448,119,0.097862,72,C5,33,1
493920,412.500133,239,0.196546,54,F3#,33,2
494040,412.598817,119,0.097862,62,D4,33,1
494160,412.697501,119,0.097862,67,G4,33,1
494280,412.796185,119,0.097862,72,C5,33,1
494400,412.89487,239,0.196546,55,G3,33,2
494520,412.993554,119,0.097862,62,D4,33,1
494640,413.092238,119,0.097862,67,G4,33,1
494760,413.190922,119,0.097862,71,B4,33,1
494880,413.289607,239,0.196546,43,G2,33,2
495000,413.388291,119,0.097862,62,D4,33,1
495120,413.486975,119,0.097862,65,F4,33,1
495240,413.585659,119,0.097862,71,B4,33,1
495360,413.684344,239,0.196546,72,C5,96,1
495360,413.684344,239,0.196546,64,E4,96,1
495360,413.684344,239,0.196546,48,C3,96,2
495360,413.684344,239,0.196546,36,C2,96,2
495600,413.881712,119,0.097862,64,E4,33,1
495600,413.881712,119,0.097862,48,C3,33,2
495720,413.980396,119,0.097862,60,C4,33,1
495720,413.980396,119,0.097862,55,G3,33,2
495840,414.079081,119,0.097861,64,E4,33,1
495840,414.079081,119,0.097861,48,C3,33,2
495960,414.177765,119,0.097862,60,C4,33,1
495960,414.177765,119,0.097862,55,G3,33,2
496080,414.276449,119,0.097862,64,E4,33,1
496080,414.276449,119,0.097862,48,C3,33,2
496200,414.375133,119,0.097862,60,C4,33,1
496200,414.375133,119,0.097862,55,G3,33,2
496320,414.473818,119,0.097861,64,E4,33,1
496320,414.473818,119,0.097861,48,C3,33,2
496440,414.572502,119,0.097862,60,C4,33,1
496440,414.572502,119,0.097862,55,G3,33,2
496560,414.671186,119,0.097862,64,E4,33,1
496560,414.671186,119,0.097862,48,C3,33,2
496680,414.76987,119,0.097862,60,C4,33,1
496680,414.76987,119,0.097862,55,G3,33,2
496800,414.868555,119,0.097861,64,E4,33,1
496800,414.868555,119,0.097861,48,C3,33,2
496920,414.967239,119,0.097862,60,C4,33,1
496920,414.967239,119,0.097862,55,G3,33,2
497040,415.065923,119,0.097862,64,E4,33,1
497040,415.065923,119,0.097862,48,C3,33,2
497160,415.164607,119,0.097862,60,C4,33,1
497160,415.164607,119,0.097862,55,G3,33,2
497280,415.263292,119,0.097861,64,E4,33,1
497280,415.263292,119,0.097861,48,C3,33,2
497400,415.361976,119,0.097862,60,C4,33,1
497400,415.361976,119,0.097862,55,G3,33,2
497520,415.46066,119,0.097862,64,E4,33,1
497520,415.46066,119,0.097862,48,C3,33,2
497640,415.559344,119,0.097862,60,C4,33,1
497640,415.559344,119,0.097862,55,G3,33,2
497760,415.658029,119,0.097861,64,E4,33,1
497760,415.658029,119,0.097861,48,C3,33,2
497880,415.756713,119,0.097862,60,C4,33,1
497880,415.756713,119,0.097862,55,G3,33,2
498000,415.855397,119,0.097862,64,E4,33,1
498000,415.855397,119,0.097862,48,C3,33,2
498120,415.954081,119,0.097862,60,C4,33,1
498120,415.954081,119,0.097862,55,G3,33,2
498240,416.052766,119,0.097861,64,E4,33,1
498240,416.052766,119,0.097861,48,C3,33,2
498360,416.15145,119,0.097862,60,C4,33,1
498360,416.15145,119,0.097862,55,G3,33,2
498480,416.250134,119,0.097862,64,E4,33,1
498480,416.250134,119,0.097862,48,C3,33,2
498600,416.348818,119,0.097862,60,C4,33,1
498600,416.348818,119,0.097862,55,G3,33,2
498720,416.447503,119,0.097861,66,F4#,33,1
498720,416.447503,119,0.097861,48,C3,33,2
498840,416.546187,119,0.097862,62,D4,33,1
498840,416.546187,119,0.097862,57,A3,33,2
498960,416.644871,119,0.097862,66,F4#,33,1
498960,416.644871,119,0.097862,48,C3,33,2
499080,416.743555,119,0.097862,62,D4,33,1
499080,416.743555,119,0.097862,57,A3,33,2
499200,416.84224,719,0.591283,67,G4,33,1
499200,416.84224,119,0.097861,50,D3,33,2
499200,416.84224,119,0.097861,47,B2,33,2
499320,416.940924,119,0.097862,55,G3,33,2
499440,417.039608,119,0.097862,50,D3,33,2
499440,417.039608,119,0.097862,47,B2,33,2
499560,417.138292,119,0.097862,55,G3,33,2
499680,417.236977,119,0.097861,50,D3,33,2
499680,417.236977,119,0.097861,47,B2,33,2
499800,417.335661,119,0.097862,55,G3,33,2
499920,417.434345,119,0.097862,71,B4,33,1
499920,417.434345,119,0.097862,50,D3,33,2
499920,417.434345,119,0.097862,47,B2,33,2
500040,417.533029,119,0.097862,69,A4,33,1
500040,417.533029,119,0.097862,55,G3,33,2
500160,417.631714,119,0.097861,67,G4,33,1
500160,417.631714,119,0.097861,50,D3,33,2
500160,417.631714,119,0.097861,47,B2,33,2
500280,417.730398,119,0.097862,55,G3,33,2
500400,417.829082,119,0.097862,50,D3,33,2
500400,417.829082,119,0.097862,47,B2,33,2
500520,417.927766,119,0.097862,55,G3,33,2
500640,418.026451,119,0.097861,50,D3,33,2
500640,418.026451,119,0.097861,47,B2,33,2
500760,418.125135,119,0.097862,55,G3,33,2
500880,418.223819,119,0.097862,50,D3,33,2
500880,418.223819,119,0.097862,47,B2,33,2
501000,418.322503,119,0.097862,55,G3,33,2
501120,418.421188,119,0.097861,85,C6#,33,1
501120,418.421188,119,0.097861,50,D3,33,2
501120,418.421188,119,0.097861,47,B2,33,2
501240,418.519872,599,0.492599,86,D6,33,1
501240,418.519872,119,0.097862,55,G3,33,2
501360,418.618556,119,0.097862,50,D3,33,2
501360,418.618556,119,0.097862,47,B2,33,2
501480,418.71724,119,0.097862,55,G3,33,2
501600,418.815925,119,0.097861,50,D3,33,2
501600,418.815925,119,0.097861,47,B2,33,2
501720,418.914609,119,0.097862,84,C6,33,1
501720,418.914609,119,0.097862,55,G3,33,2
501840,419.013293,119,0.097862,83,B5,33,1
501840,419.013293,119,0.097862,50,D3,33,2
501840,419.013293,119,0.097862,47,B2,33,2
501960,419.111977,119,0.097862,81,A5,33,1
501960,419.111977,119,0.097862,55,G3,33,2
502080,419.210662,239,0.196546,79,G5,33,1
502080,419.210662,119,0.097861,50,D3,33,2
502080,419.210662,119,0.097861,47,B2,33,2
502200,419.309346,119,0.097862,55,G3,33,2
502320,419.40803,119,0.097862,50,D3,33,2
502320,419.40803,119,0.097862,47,B2,33,2
502440,419.506714,119,0.097862,55,G3,33,2
502560,419.605399,119,0.097861,50,D3,33,2
502560,419.605399,119,0.097861,47,B2,33,2
502680,419.704083,119,0.097862,55,G3,33,2
502800,419.802767,119,0.097862,50,D3,33,2
502800,419.802767,119,0.097862,47,B2,33,2
502920,419.901451,119,0.097862,55,G3,33,2
503040,420.000136,119,0.097861,65,F4,33,1
503040,420.000136,239,0.196546,50,D3,33,2
503040,420.000136,239,0.196546,38,D2,33,2
503160,420.09882,119,0.097862,62,D4,33,1
503280,420.197504,119,0.097862,65,F4,33,1
503280,420.197504,119,0.097862,50,D3,33,2
503400,420.296188,119,0.097862,62,D4,33,1
503400,420.296188,119,0.097862,57,A3,33,2
503520,420.394873,119,0.097861,65,F4,33,1
503520,420.394873,119,0.097861,50,D3,33,2
503640,420.493557,119,0.097862,62,D4,33,1
503640,420.493557,119,0.097862,57,A3,33,2
503760,420.592241,119,0.097862,65,F4,33,1
503760,420.592241,119,0.097862,50,D3,33,2
503880,420.690925,119,0.097862,62,D4,33,1
503880,420.690925,119,0.097862,57,A3,33,2
504000,420.78961,119,0.097861,65,F4,33,1
504000,420.78961,119,0.097861,50,D3,33,2
504120,420.888294,119,0.097862,62,D4,33,1
504120,420.888294,119,0.097862,57,A3,33,2
504240,420.986978,119,0.097862,65,F4,33,1
504240,420.986978,119,0.097862,50,D3,33,2
504360,421.085662,119,0.097862,62,D4,33,1
504360,421.085662,119,0.097862,57,A3,33,2
504480,421.184347,119,0.097861,65,F4,33,1
504480,421.184347,119,0.097861,50,D3,33,2
504600,421.283031,119,0.097862,62,D4,33,1
504600,421.283031,119,0.097862,57,A3,33,2
504720,421.381715,119,0.097862,65,F4,33,1
504720,421.381715,119,0.097862,50,D3,33,2
504840,421.480399,119,0.097862,62,D4,33,1
504840,421.480399,119,0.097862,57,A3,33,2
504960,421.579084,119,0.097861,65,F4,33,1
504960,421.579084,119,0.097861,50,D3,33,2
505080,421.677768,119,0.097862,62,D4,33,1
505080,421.677768,119,0.097862,57,A3,33,2
505200,421.776452,119,0.097862,65,F4,33,1
505200,421.776452,119,0.097862,50,D3,33,2
505320,421.875136,119,0.097862,62,D4,33,1
505320,421.875136,119,0.097862,57,A3,33,2
505440,421.973821,119,0.097861,65,F4,33,1
505440,421.973821,119,0.097861,50,D3,33,2
505560,422.072505,119,0.097862,62,D4,33,1
505560,422.072505,119,0.097862,57,A3,33,2
505680,422.171189,119,0.097862,65,F4,33,1
505680,422.171189,119,0.097862,50,D3,33,2
505800,422.269873,119,0.097862,62,D4,33,1
505800,422.269873,119,0.097862,57,A3,33,2
505920,422.368558,119,0.097861,65,F4,33,1
505920,422.368558,119,0.097861,50,D3,33,2
506040,422.467242,119,0.097862,62,D4,33,1
506040,422.467242,119,0.097862,57,A3,33,2
506160,422.565926,119,0.097862,65,F4,33,1
506160,422.565926,119,0.097862,50,D3,33,2
506280,422.66461,119,0.097862,62,D4,33,1
506280,422.66461,119,0.097862,57,A3,33,2
506400,422.763295,119,0.097861,68,G4#,33,1
506400,422.763295,119,0.097861,50,D3,33,2
506520,422.861979,119,0.097862,64,E4,33,1
506520,422.861979,119,0.097862,59,B3,33,2
506640,422.960663,119,0.097862,68,G4#,33,1
506640,422.960663,119,0.097862,50,D3,33,2
506760,423.059347,119,0.097862,64,E4,33,1
506760,423.059347,119,0.097862,59,B3,33,2
506880,423.158032,719,0.591283,69,A4,33,1
506880,423.158032,119,0.097861,52,E3,33,2
506880,423.158032,119,0.097861,48,C3,33,2
507000,423.256716,119,0.097862,57,A3,33,2
507120,423.3554,119,0.097862,52,E3,33,2
507120,423.3554,119,0.097862,48,C3,33,2
507240,423.454084,119,0.097862,57,A3,33,2
507360,423.552769,119,0.097861,52,E3,33,2
507360,423.552769,119,0.097861,48,C3,33,2
507480,423.651453,119,0.097862,57,A3,33,2
507600,423.750137,119,0.097862,72,C5,33,1
507600,423.750137,119,0.097862,52,E3,33,2
507600,423.750137,119,0.097862,48,C3,33,2
507720,423.848821,119,0.097862,71,B4,33,1
507720,423.848821,119,0.097862,57,A3,33,2
507840,423.947506,119,0.097861,69,A4,33,1
507840,423.947506,119,0.097861,52,E3,33,2
507840,423.947506,119,0.097861,48,C3,33,2
507960,424.04619,119,0.097862,57,A3,33,2
508080,424.144874,119,0.097862,52,E3,33,2
508080,424.144874,119,0.097862,48,C3,33,2
508200,424.243558,119,0.097862,57,A3,33,2
508320,424.342243,119,0.097861,52,E3,33,2
508320,424.342243,119,0.097861,48,C3,33,2
508440,424.440927,119,0.097862,57,A3,33,2
508560,424.539611,119,0.097862,52,E3,33,2
508560,424.539611,119,0.097862,48,C3,33,2
508680,424.638295,119,0.097862,57,A3,33,2
508800,424.73698,119,0.097861,87,D6#,33,1
508800,424.73698,119,0.097861,52,E3,33,2
508800,424.73698,119,0.097861,48,C3,33,2
508920,424.835664,599,0.492599,88,E6,33,1
508920,424.835664,119,0.097862,57,A3,33,2
509040,424.934348,119,0.097862,52,E3,33,2
509040,424.934348,119,0.097862,48,C3,33,2
509160,425.033032,119,0.097862,57,A3,33,2
509280,425.131717,119,0.097861,52,E3,33,2
509280,425.131717,119,0.097861,48,C3,33,2
509400,425.230401,119,0.097862,86,D6,33,1
509400,425.230401,119,0.097862,57,A3,33,2
509520,425.329085,119,0.097862,84,C6,33,1
509520,425.329085,119,0.097862,52,E3,33,2
509520,425.329085,119,0.097862,48,C3,33,2
509640,425.427769,119,0.097862,83,B5,33,1
509640,425.427769,119,0.097862,57,A3,33,2
509760,425.526454,239,0.196546,81,A5,33,1
509760,425.526454,119,0.097861,52,E3,33,2
509760,425.526454,119,0.097861,48,C3,33,2
509880,425.625138,119,0.097862,57,A3,33,2
510000,425.723822,119,0.097862,52,E3,33,2
510000,425.723822,119,0.097862,48,C3,33,2
510120,425.822506,119,0.097862,57,A3,33,2
510240,425.921191,119,0.097861,52,E3,33,2
510240,425.921191,119,0.097861,48,C3,33,2
510360,426.019875,119,0.097862,57,A3,33,2
510480,426.118559,119,0.097862,52,E3,33,2
510480,426.118559,119,0.097862,48,C3,33,2
510600,426.217243,119,0.097862,57,A3,33,2
510720,426.315928,119,0.097861,83,B5,40,1
510720,426.315928,119,0.097861,57,A3,40,2
510720,426.315928,119,0.097861,53,F3,40,2
510840,426.414612,599,0.492599,84,C6,40,1
510840,426.414612,119,0.097862,60,C4,40,2
510960,426.513296,119,0.097862,57,A3,40,2
510960,426.513296,119,0.097862,53,F3,40,2
511080,426.61198,119,0.097862,60,C4,40,2
511200,426.710665,119,0.097861,57,A3,47,2
511200,426.710665,119,0.097861,53,F3,47,2
511320,426.809349,119,0.097862,83,B5,47,1
511320,426.809349,119,0.097862,60,C4,47,2
511440,426.908033,119,0.097862,81,A5,47,1
511440,426.908033,119,0.097862,57,A3,47,2
511440,426.908033,119,0.097862,53,F3,47,2
511560,427.006717,119,0.097862,80,G5#,47,1
511560,427.006717,119,0.097862,60,C4,47,2
511680,427.105402,239,0.196546,81,A5,54,1
511680,427.105402,119,0.097861,57,A3,54,2
511680,427.105402,119,0.097861,53,F3,54,2
511800,427.204086,119,0.097862,62,D4,54,2
511920,427.30277,119,0.097862,57,A3,54,2
511920,427.30277,119,0.097862,53,F3,54,2
512040,427.401454,119,0.097862,62,D4,54,2
512160,427.500139,119,0.097861,57,A3,61,2
512160,427.500139,119,0.097861,53,F3,61,2
512280,427.598823,119,0.097862,62,D4,61,2
512400,427.697507,119,0.097862,57,A3,61,2
512400,427.697507,119,0.097862,53,F3,61,2
512520,427.796191,119,0.097862,62,D4,61,2
512640,427.894876,119,0.097861,83,B5,68,1
512640,427.894876,119,0.097861,57,A3,68,2
512640,427.894876,119,0.097861,53,F3,68,2
512760,427.99356,599,0.492599,84,C6,68,1
512760,427.99356,119,0.097862,63,D4#,68,2
512880,428.092244,119,0.097862,57,A3,68,2
512880,428.092244,119,0.097862,53,F3,68,2
513000,428.190928,119,0.097862,63,D4#,68,2
513120,428.289613,119,0.097861,57,A3,75,2
513120,428.289613,119,0.097861,53,F3,75,2
513240,428.388297,119,0.097862,83,B5,75,1
513240,428.388297,119,0.097862,63,D4#,75,2
513360,428.486981,119,0.097862,81,A5,75,1
513360,428.486981,119,0.097862,57,A3,75,2
513360,428.486981,119,0.097862,53,F3,75,2
513480,428.585665,119,0.097862,80,G5#,75,1
513480,428.585665,119,0.097862,63,D4#,75,2
513600,428.68435,119,0.097861,81,A5,82,1
513600,428.68435,119,0.097861,57,A3,82,2
513600,428.68435,119,0.097861,53,F3,82,2
513720,428.783034,119,0.097862,80,G5#,82,1
513720,428.783034,119,0.097862,60,C4,82,2
513840,428.881718,119,0.097862,81,A5,82,1
513840,428.881718,119,0.097862,57,A3,82,2
513840,428.881718,119,0.097862,53,F3,82,2
513960,428.980402,119,0.097862,83,B5,82,1
513960,428.980402,119,0.097862,60,C4,82,2
514080,429.079087,119,0.097861,84,C6,89,1
514080,429.079087,119,0.097861,53,F3,89,2
514200,429.177771,119,0.097862,85,C6#,89,1
514200,429.177771,119,0.097862,57,A3,89,2
514320,429.276455,119,0.097862,86,D6,89,1
514320,429.276455,119,0.097862,53,F3,89,2
514440,429.375139,119,0.097862,87,D6#,89,1
514440,429.375139,119,0.097862,57,A3,89,2
514560,429.473824,599,0.492598,88,E6,49,1
514560,429.473824,119,0.097861,52,E3,49,2
514680,429.572508,119,0.097862,56,G3#,49,2
514800,429.671192,119,0.097862,59,B3,49,2
514920,429.769876,119,0.097862,64,E4,49,2
515040,429.868561,119,0.097861,52,E3,49,2
515160,429.967245,119,0.097862,86,D6,49,1
515160,429.967245,119,0.097862,56,G3#,49,2
515280,430.065929,119,0.097862,84,C6,49,1
515280,430.065929,119,0.097862,59,B3,49,2
515400,430.164613,119,0.097862,83,B5,49,1
515400,430.164613,119,0.097862,64,E4,49,2
515520,430.263298,119,0.097861,84,C6,49,1
515520,430.263298,119,0.097861,52,E3,49,2
515640,430.361982,119,0.097862,83,B5,49,1
515640,430.361982,119,0.097862,57,A3,49,2
515760,430.460666,119,0.097862,81,A5,49,1
515760,430.460666,119,0.097862,60,C4,49,2
515880,430.55935,119,0.097862,80,G5#,49,1
515880,430.55935,119,0.097862,64,E4,49,2
516000,430.658035,119,0.097861,81,A5,49,1
516000,430.658035,119,0.097861,52,E3,49,2
516120,430.756719,119,0.097862,84,C6,49,1
516120,430.756719,119,0.097862,57,A3,49,2
516240,430.855403,119,0.097862,83,B5,49,1
516240,430.855403,119,0.097862,60,C4,49,2
516360,430.954087,119,0.097862,81,A5,49,1
516360,430.954087,119,0.097862,64,E4,49,2
516480,431.052772,119,0.097861,80,G5#,49,1
516480,431.052772,119,0.097861,52,E3,49,2
516600,431.151456,119,0.097862,78,F5#,49,1
516600,431.151456,119,0.097862,59,B3,49,2
516720,431.25014,119,0.097862,76,E5,49,1
516720,431.25014,119,0.097862,62,D4,49,2
516840,431.348824,119,0.097862,75,D5#,49,1
516840,431.348824,119,0.097862,64,E4,49,2
516960,431.447509,119,0.097861,76,E5,49,1
516960,431.447509,119,0.097861,52,E3,49,2
517080,431.546193,119,0.097862,78,F5#,49,1
517080,431.546193,119,0.097862,59,B3,49,2
517200,431.644877,119,0.097862,79,G5,49,1
517200,431.644877,119,0.097862,62,D4,49,2
517320,431.743561,119,0.097862,80,G5#,49,1
517320,431.743561,119,0.097862,64,E4,49,2
517440,431.842246,119,0.097861,81,A5,49,1
517440,431.842246,119,0.097861,52,E3,49,2
517560,431.94093,119,0.097862,80,G5#,49,1
517560,431.94093,119,0.097862,57,A3,49,2
517680,432.039614,119,0.097862,81,A5,49,1
517680,432.039614,119,0.097862,60,C4,49,2
517800,432.138298,119,0.097862,83,B5,49,1
517800,432.138298,119,0.097862,64,E4,49,2
517920,432.236983,119,0.097861,84,C6,49,1
517920,432.236983,119,0.097861,52,E3,49,2
518040,432.335667,119,0.097862,85,C6#,49,1
518040,432.335667,119,0.097862,57,A3,49,2
518160,432.434351,119,0.097862,86,D6,49,1
518160,432.434351,119,0.097862,60,C4,49,2
518280,432.533035,119,0.097862,87,D6#,49,1
518280,432.533035,119,0.097862,64,E4,49,2
518400,432.63172,119,0.097861,88,E6,49,1
518400,432.63172,119,0.097861,52,E3,49,2
518520,432.730404,119,0.097862,87,D6#,49,1
518520,432.730404,119,0.097862,56,G3#,49,2
518640,432.829088,119,0.097862,88,E6,49,1
518640,432.829088,119,0.097862,59,B3,49,2
518760,432.927772,119,0.097862,87,D6#,49,1
518760,432.927772,119,0.097862,64,E4,49,2
518880,433.026457,119,0.097861,88,E6,49,1
518880,433.026457,119,0.097861,52,E3,49,2
519000,433.125141,119,0.097862,86,D6,49,1
519000,433.125141,119,0.097862,56,G3#,49,2
519120,433.223825,119,0.097862,84,C6,49,1
519120,433.223825,119,0.097862,59,B3,49,2
519240,433.322509,119,0.097862,83,B5,49,1
519240,433.322509,119,0.097862,64,E4,49,2
519360,433.421194,119,0.097861,84,C6,49,1
519360,433.421194,119,0.097861,52,E3,49,2
519480,433.519878,119,0.097862,83,B5,49,1
519480,433.519878,119,0.097862,57,A3,49,2
519600,433.618562,119,0.097862,81,A5,49,1
519600,433.618562,119,0.097862,60,C4,49,2
519720,433.717246,119,0.097862,80,G5#,49,1
519720,433.717246,119,0.097862,64,E4,49,2
519840,433.815931,119,0.097861,81,A5,49,1
519840,433.815931,119,0.097861,52,E3,49,2
519960,433.914615,119,0.097862,84,C6,49,1
519960,433.914615,119,0.097862,57,A3,49,2
520080,434.013299,119,0.097862,83,B5,49,1
520080,434.013299,119,0.097862,60,C4,49,2
520200,434.111983,119,0.097862,81,A5,49,1
520200,434.111983,119,0.097862,64,E4,49,2
520320,434.210668,119,0.097861,80,G5#,49,1
520320,434.210668,119,0.097861,52,E3,49,2
520440,434.309352,119,0.097862,78,F5#,49,1
520440,434.309352,119,0.097862,59,B3,49,2
520560,434.408036,119,0.097862,76,E5,49,1
520560,434.408036,119,0.097862,62,D4,49,2
520680,434.50672,119,0.097862,75,D5#,49,1
520680,434.50672,119,0.097862,64,E4,49,2
520800,434.605405,119,0.097861,76,E5,49,1
520800,434.605405,119,0.097861,52,E3,49,2
520920,434.704089,119,0.097862,78,F5#,49,1
520920,434.704089,119,0.097862,59,B3,49,2
521040,434.802773,119,0.097862,79,G5,49,1
521040,434.802773,119,0.097862,62,D4,49,2
521160,434.901457,119,0.097862,80,G5#,49,1
521160,434.901457,119,0.097862,64,E4,49,2
521280,435.000142,119,0.097861,81,A5,49,1
521280,435.000142,119,0.097861,52,E3,49,2
521400,435.098826,119,0.097862,80,G5#,49,1
521400,435.098826,119,0.097862,57,A3,49,2
521520,435.19751,119,0.097862,81,A5,49,1
521520,435.19751,119,0.097862,60,C4,49,2
521640,435.296194,119,0.097862,83,B5,49,1
521640,435.296194,119,0.097862,64,E4,49,2
521760,435.394879,119,0.097861,84,C6,49,1
521760,435.394879,119,0.097861,52,E3,49,2
521880,435.493563,119,0.097862,85,C6#,49,1
521880,435.493563,119,0.097862,57,A3,49,2
522000,435.592247,119,0.097862,86,D6,49,1
522000,435.592247,119,0.097862,60,C4,49,2
522120,435.690931,119,0.097862,87,D6#,49,1
522120,435.690931,119,0.097862,64,E4,49,2
522240,435.789616,119,0.097861,88,E6,56,1
522240,435.789616,119,0.097861,52,E3,56,2
522360,435.8883,119,0.097862,83,B5,56,1
522360,435.8883,119,0.097862,56,G3#,56,2
522480,435.986984,119,0.097862,80,G5#,61,1
522480,435.986984,119,0.097862,59,B3,61,2
522600,436.085668,119,0.097862,76,E5,61,1
522600,436.085668,119,0.097862,64,E4,61,2
522720,436.184353,119,0.097861,75,D5#,66,1
522720,436.184353,119,0.097861,63,D4#,66,2
522840,436.283037,119,0.097862,76,E5,66,1
522840,436.283037,119,0.097862,64,E4,66,2
522960,436.381721,119,0.097862,81,A5,71,1
522960,436.381721,119,0.097862,60,C4,71,2
523080,436.480405,119,0.097862,84,C6,71,1
523080,436.480405,119,0.097862,57,A3,71,2
523200,436.57909,119,0.097861,88,E6,76,1
523200,436.57909,119,0.097861,52,E3,76,2
523320,436.677774,119,0.097862,83,B5,76,1
523320,436.677774,119,0.097862,56,G3#,76,2
523440,436.776458,119,0.097862,80,G5#,81,1
523440,436.776458,119,0.097862,59,B3,81,2
523560,436.875142,119,0.097862,76,E5,81,1
523560,436.875142,119,0.097862,64,E4,81,2
523680,436.973827,119,0.097861,75,D5#,86,1
523680,436.973827,119,0.097861,63,D4#,86,2
523800,437.072511,119,0.097862,76,E5,86,1
523800,437.072511,119,0.097862,64,E4,86,2
523920,437.171195,119,0.097862,81,A5,91,1
523920,437.171195,119,0.097862,60,C4,91,2
524040,437.269879,119,0.097862,84,C6,91,1
524040,437.269879,119,0.097862,57,A3,91,2
524160,437.368564,119,0.097861,88,E6,96,1
524160,437.368564,119,0.097861,52,E3,96,2
524280,437.467248,119,0.097862,83,B5,96,1
524280,437.467248,119,0.097862,56,G3#,96,2
524400,437.565932,119,0.097862,80,G5#,96,1
524400,437.565932,119,0.097862,59,B3,96,2
524520,437.664616,119,0.097862,76,E5,96,1
524520,437.664616,119,0.097862,64,E4,96,2
524640,437.763301,119,0.097861,88,E6,105,1
524640,437.763301,119,0.097861,52,E3,105,2
524760,437.861985,119,0.097862,84,C6,96,1
524760,437.861985,119,0.097862,57,A3,96,2
524880,437.960669,119,0.097862,81,A5,96,1
524880,437.960669,119,0.097862,60,C4,96,2
525000,438.059353,119,0.097862,76,E5,96,1
525000,438.059353,119,0.097862,64,E4,96,2
525120,438.158038,119,0.097861,88,E6,105,1
525120,438.158038,119,0.097861,52,E3,105,2
525240,438.256722,119,0.097862,83,B5,96,1
525240,438.256722,119,0.097862,56,G3#,96,2
525360,438.355406,119,0.097862,80,G5#,96,1
525360,438.355406,119,0.097862,59,B3,96,2
525480,438.45409,119,0.097862,76,E5,96,1
525480,438.45409,119,0.097862,64,E4,96,2
525600,438.552775,119,0.097861,88,E6,105,1
525600,438.552775,119,0.097861,52,E3,105,2
525720,438.651459,119,0.097862,84,C6,96,1
525720,438.651459,119,0.097862,57,A3,96,2
525840,438.750143,119,0.097862,81,A5,96,1
525840,438.750143,119,0.097862,60,C4,96,2
525960,438.848827,119,0.097862,76,E5,96,1
525960,438.848827,119,0.097862,64,E4,96,2
526080,438.947512,119,0.097861,88,E6,96,1
526080,438.947512,479,0.393914,64,E4,96,2
526080,438.947512,479,0.393914,59,B3,96,2
526080,438.947512,479,0.393914,56,G3#,96,2
526080,438.947512,479,0.393914,52,E3,96,2
526200,439.046196,119,0.097862,83,B5,96,1
526320,439.14488,119,0.097862,80,G5#,96,1
526440,439.243564,119,0.097862,76,E5,96,1
526560,439.342249,119,0.097861,83,B5,96,1
526680,439.440933,119,0.097862,80,G5#,96,1
526800,439.539617,119,0.097862,76,E5,96,1
526920,439.638301,119,0.097862,71,B4,96,1
527040,439.736986,119,0.097861,80,G5#,96,1
527160,439.83567,119,0.097862,76,E5,96,1
527280,439.934354,119,0.097862,71,B4,96,1
527400,440.033038,119,0.097862,68,G4#,96,1
527520,440.131723,119,0.097861,76,E5,96,1
527640,440.230407,119,0.097862,71,B4,96,1
527760,440.329091,119,0.097862,68,G4#,96,1
527880,440.427775,119,0.097862,64,E4,96,1
528000,440.52646,119,0.097861,71,B4,96,1
528120,440.625144,119,0.097862,68,G4#,96,1
528240,440.723828,119,0.097862,64,E4,96,1
528360,440.822512,119,0.097862,59,B3,96,1
528480,440.921197,119,0.097861,68,G4#,96,1
528600,441.019881,119,0.097862,64,E4,96,1
528720,441.118565,119,0.097862,59,B3,96,1
528840,441.217249,119,0.097862,56,G3#,96,1
528960,441.315934,119,0.097861,64,E4,96,1
529080,441.414618,119,0.097862,59,B3,96,1
529200,441.513302,119,0.097862,56,G3#,96,1
529320,441.611986,119,0.097862,52,E3,96,1
529440,441.710671,119,0.097861,40,E2,96,2
529560,441.809355,119,0.097862,44,G2#,96,2
529680,441.908039,119,0.097862,47,B2,96,2
529800,442.006723,119,0.097862,52,E3,96,2
529920,442.105408,119,0.097861,40,E2,94,2
530160,442.302776,119,0.097862,52,E3,92,2
530400,442.500145,119,0.097861,42,F2#,90,2
530640,442.697513,119,0.097862,54,F3#,89,2
530880,442.894882,119,0.097861,76,E5,87,1
530880,442.894882,119,0.097861,44,G2#,87,2
531120,443.09225,119,0.097862,64,E4,85,1
531120,443.09225,119,0.097862,56,G3#,85,2
531360,443.289619,119,0.097861,78,F5#,83,1
531600,443.486987,119,0.097862,66,F4#,81,1
531840,443.684356,119,0.097861,80,G5#,78,1
531840,443.684356,119,0.097861,44,G2#,78,2
532080,443.881724,119,0.097862,68,G4#,75,1
532080,443.881724,119,0.097862,56,G3#,75,2
532320,444.079093,119,0.097861,45,A2,72,2
532560,444.276461,119,0.097862,57,A3,69,2
532800,444.47383,119,0.097861,80,G5#,66,1
532800,444.47383,119,0.097861,47,B2,66,2
533040,444.671198,119,0.097862,68,G4#,60,1
533040,444.671198,119,0.097862,59,B3,60,2
533280,444.868567,119,0.097861,81,A5,57,1
533520,445.065935,119,0.097862,69,A4,53,1
533760,445.263304,119,0.097861,83,B5,49,1
534000,445.460672,119,0.097862,71,B4,49,1
534240,445.658041,119,0.097861,85,C6#,49,1
534480,445.855409,119,0.097862,73,C5#,49,1
534720,446.052778,119,0.097861,86,D6,49,1
534720,446.052778,119,0.097861,47,B2,49,2
534960,446.250146,119,0.097862,74,D5,49,1
534960,446.250146,119,0.097862,59,B3,49,2
535200,446.447515,119,0.097861,86,D6,49,1
535200,446.447515,119,0.097861,49,C3#,49,2
535440,446.644883,119,0.097862,76,E5,49,1
535440,446.644883,119,0.097862,61,C4#,49,2
535680,446.842252,119,0.097861,86,D6,49,1
535680,446.842252,119,0.097861,50,D3,49,2
535920,447.03962,119,0.097862,78,F5#,49,1
535920,447.03962,119,0.097862,62,D4,49,2
536160,447.236989,119,0.097861,86,D6,49,1
536160,447.236989,119,0.097861,52,E3,49,2
536400,447.434357,119,0.097862,80,G5#,49,1
536400,447.434357,119,0.097862,64,E4,49,2
536640,447.631726,119,0.097861,86,D6,49,1
536640,447.631726,119,0.097861,54,F3#,49,2
536880,447.829094,119,0.097862,81,A5,49,1
536880,447.829094,119,0.097862,66,F4#,49,2
537120,448.026463,119,0.097861,86,D6,49,1
537120,448.026463,119,0.097861,56,G3#,49,2
537360,448.223831,119,0.097862,83,B5,49,1
537360,448.223831,119,0.097862,68,G4#,49,2
537600,448.4212,959,0.788651,85,C6#,49,1
537600,448.4212,959,0.788651,81,A5,49,1
537600,448.4212,959,0.788651,76,E5,49,1
537600,448.4212,959,0.788651,73,C5#,49,1
537600,448.4212,959,0.788651,69,A4,49,2
537600,448.4212,959,0.788651,64,E4,49,2
537600,448.4212,959,0.788651,61,C4#,49,2
537600,448.4212,959,0.788651,57,A3,49,2
538560,449.210674,479,0.393914,83,B5,49,1
538560,449.210674,479,0.393914,80,G5#,49,1
538560,449.210674,479,0.393914,76,E5,49,1
538560,449.210674,479,0.393914,71,B4,49,1
538560,449.210674,479,0.393914,64,E4,49,2
538560,449.210674,479,0.393914,59,B3,49,2
538560,449.210674,479,0.393914,56,G3#,49,2
538560,449.210674,479,0.393914,52,E3,49,2
539040,449.605411,479,0.393914,81,A5,49,1
539040,449.605411,479,0.393914,78,F5#,49,1
539040,449.605411,479,0.393914,73,C5#,49,1
539040,449.605411,479,0.393914,69,A4,49,1
539040,449.605411,479,0.393914,66,F4#,49,2
539040,449.605411,479,0.393914,61,C4#,49,2
539040,449.605411,479,0.393914,57,A3,49,2
539040,449.605411,479,0.393914,54,F3#,49,2
539520,450.000148,959,0.788651,80,G5#,49,1
539520,450.000148,959,0.788651,77,F5,49,1
539520,450.000148,959,0.788651,71,B4,49,1
539520,450.000148,959,0.788651,68,G4#,49,1
539520,450.000148,959,0.788651,61,C4#,49,2
539520,450.000148,959,0.788651,56,G3#,49,2
539520,450.000148,959,0.788651,53,F3,49,2
539520,450.000148,959,0.788651,49,C3#,49,2
540480,450.789622,959,0.788651,78,F5#,49,1
540480,450.789622,959,0.788651,74,D5,49,1
540480,450.789622,959,0.788651,69,A4,49,1
540480,450.789622,959,0.788651,66,F4#,49,1
540480,450.789622,959,0.788651,62,D4,49,2
540480,450.789622,959,0.788651,54,F3#,49,2
540480,450.789622,959,0.788651,50,D3,49,2
541440,451.579096,959,0.788651,80,G5#,52,1
541440,451.579096,959,0.788651,76,E5,52,1
541440,451.579096,959,0.788651,74,D5,52,1
541440,451.579096,959,0.788651,68,G4#,52,1
541440,451.579096,959,0.788651,59,B3,52,2
541440,451.579096,959,0.788651,56,G3#,52,2
541440,451.579096,959,0.788651,52,E3,52,2
541440,451.579096,959,0.788651,47,B2,52,2
542400,452.36857,479,0.393914,81,A5,57,1
542400,452.36857,479,0.393914,76,E5,57,1
542400,452.36857,479,0.393914,69,A4,57,1
542400,452.36857,479,0.393914,61,C4#,57,2
542400,452.36857,479,0.393914,57,A3,57,2
542400,452.36857,479,0.393914,52,E3,57,2
542400,452.36857,479,0.393914,49,C3#,57,2
542880,452.763307,479,0.393914,83,B5,60,1
542880,452.763307,479,0.393914,81,A5,60,1
542880,452.763307,479,0.393914,78,F5#,60,1
542880,452.763307,479,0.393914,71,B4,60,1
542880,452.763307,479,0.393914,62,D4,60,2
542880,452.763307,479,0.393914,59,B3,60,2
542880,452.763307,479,0.393914,54,F3#,60,2
542880,452.763307,479,0.393914,50,D3,60,2
543360,453.158044,1439,1.183388,76,E5,64,1
543360,453.158044,959,0.788651,73,C5#,64,1
543360,453.158044,959,0.788651,85,C6#,64,1
543360,453.158044,959,0.788651,81,A5,64,1
543360,453.158044,1919,1.578125,52,E3,64,2
543360,453.158044,959,0.788651,64,E4,64,2
543360,453.158044,959,0.788651,61,C4#,64,2
543360,453.158044,959,0.788651,57,A3,64,2
544320,453.947518,959,0.788651,71,B4,56,1
544320,453.947518,959,0.788651,83,B5,56,1
544320,453.947518,959,0.788651,80,G5#,56,1
544320,453.947518,959,0.788651,64,E4,56,2
544320,453.947518,959,0.788651,59,B3,56,2
544320,453.947518,959,0.788651,56,G3#,56,2
544800,454.342255,479,0.393914,74,D5,56,1
545280,454.736992,959,0.788651,72,C5,49,1
545280,454.736992,959,0.788651,69,A4,49,1
545280,454.736992,959,0.788651,64,E4,49,1
545280,454.736992,959,0.788651,60,C4,49,2
545280,454.736992,959,0.788651,57,A3,49,2
546240,455.526466,479,0.393914,71,B4,49,1
546240,455.526466,479,0.393914,67,G4,49,1
546240,455.526466,479,0.393914,64,E4,49,1
546240,455.526466,479,0.393914,59,B3,49,2
546240,455.526466,479,0.393914,55,G3,49,2
546240,455.526466,479,0.393914,52,E3,49,2
546720,455.921203,479,0.393914,69,A4,49,1
546720,455.921203,479,0.393914,65,F4,49,1
546720,455.921203,479,0.393914,60,C4,49,1
546720,455.921203,479,0.393914,57,A3,49,2
546720,455.921203,479,0.393914,53,F3,49,2
547200,456.31594,959,0.788651,67,G4,49,1
547200,456.31594,959,0.788651,64,E4,49,1
547200,456.31594,959,0.788651,60,C4,49,1
547200,456.31594,959,0.788651,55,G3,49,2
547200,456.31594,959,0.788651,52,E3,49,2
547200,456.31594,959,0.788651,48,C3,49,2
548160,457.105414,959,0.788651,65,F4,49,1
548160,457.105414,959,0.788651,62,D4,49,1
548160,457.105414,959,0.788651,57,A3,49,1
548160,457.105414,959,0.788651,53,F3,49,2
548160,457.105414,959,0.788651,50,D3,49,2
549120,457.894888,479,0.393914,64,E4,54,1
549120,457.894888,479,0.393914,60,C4,54,1
549120,457.894888,959,0.788651,67,G4,54,1
549120,457.894888,1919,1.578125,43,G2,54,2
549120,457.894888,479,0.393914,52,E3,54,2
549120,457.894888,479,0.393914,48,C3,54,2
549600,458.289625,1439,1.183388,65,F4,59,1
549600,458.289625,1439,1.183388,62,D4,59,1
549600,458.289625,1439,1.183388,53,F3,59,2
549600,458.289625,1439,1.183388,50,D3,59,2
550080,458.684362,479,0.393914,69,A4,64,1
550560,459.079099,479,0.393914,71,B4,64,1
551040,459.473836,159,0.130756,72,C5,49,1
551040,459.473836,159,0.130756,64,E4,49,1
551040,459.473836,159,0.130756,60,C4,49,1
551040,459.473836,479,0.393914,52,E3,49,2
551040,459.473836,479,0.393914,48,C3,49,2
551200,459.605415,159,0.130756,74,D5,49,1
551360,459.736994,159,0.130756,76,E5,49,1
551520,459.868573,159,0.130756,77,F5,49,1
551680,460.000152,159,0.130756,79,G5,49,1
551840,460.131731,159,0.130756,81,A5,49,1
552000,460.26331,159,0.130756,82,A5#,49,1
552160,460.394889,159,0.130756,83,B5,49,1
552320,460.526468,159,0.130756,84,C6,49,1
552480,460.658047,159,0.130756,85,C6#,49,1
552640,460.789626,159,0.130756,86,D6,49,1
552800,460.921205,159,0.130756,87,D6#,49,1
552960,461.052784,959,0.788651,84,C6,49,1
552960,461.052784,159,0.130756,88,E6,49,1
552960,461.052784,959,0.788651,76,E5,49,2
552960,461.052784,959,0.788651,72,C5,49,2
553120,461.184363,159,0.130756,87,D6#,49,1
553280,461.315942,159,0.130756,88,E6,49,1
553440,461.447521,159,0.130756,89,F6,49,1
553600,461.5791,159,0.130756,87,D6#,49,1
553760,461.710679,159,0.130756,88,E6,49,1
553920,461.842258,479,0.393914,83,B5,49,1
553920,461.842258,479,0.393914,77,F5,49,2
553920,461.842258,479,0.393914,74,D5,49,2
553920,461.842258,479,0.393914,71,B4,49,2
553920,461.842258,479,0.393914,68,G4#,49,2
554080,461.973837,159,0.130756,88,E6,49,1
554240,462.105416,159,0.130756,86,D6,49,1
554400,462.236995,479,0.393914,81,A5,49,1
554400,462.236995,479,0.393914,76,E5,49,2
554400,462.236995,479,0.393914,72,C5,49,2
554400,462.236995,479,0.393914,69,A4,49,2
554560,462.368574,159,0.130756,86,D6,49,1
554720,462.500153,159,0.130756,84,C6,49,1
554880,462.631732,159,0.130756,80,G5#,49,1
554880,462.631732,159,0.130756,80,G5#,49,1
554880,462.631732,959,0.788651,74,D5,49,2
554880,462.631732,959,0.788651,71,B4,49,2
554880,462.631732,959,0.788651,68,G4#,49,2
554880,462.631732,959,0.788651,64,E4,49,2
555040,462.763311,159,0.130756,82,A5#,49,1
555200,462.89489,159,0.130756,83,B5,49,1
555360,463.026469,159,0.130756,84,C6,49,1
555520,463.158048,159,0.130756,82,A5#,49,1
555680,463.289627,159,0.130756,83,B5,49,1
555840,463.421206,159,0.130756,77,F5,49,1
555840,463.421206,159,0.130756,77,F5,49,1
555840,463.421206,959,0.788651,72,C5,49,2
555840,463.421206,959,0.788651,69,A4,49,2
555840,463.421206,959,0.788651,65,F4,49,2
556000,463.552785,159,0.130756,80,G5#,49,1
556160,463.684364,159,0.130756,81,A5,49,1
556320,463.815943,159,0.130756,83,B5,49,1
556480,463.947522,159,0.130756,80,G5#,49,1
556640,464.079101,159,0.130756,81,A5,49,1
556800,464.21068,159,0.130756,77,F5,52,1
556800,464.21068,159,0.130756,77,F5,52,1
556800,464.21068,959,0.788651,71,B4,52,2
556800,464.21068,959,0.788651,67,G4,52,2
556800,464.21068,959,0.788651,65,F4,52,2
556800,464.21068,959,0.788651,62,D4,52,2
556960,464.342259,159,0.130756,82,A5#,52,1
557120,464.473838,159,0.130756,83,B5,52,1
557280,464.605417,159,0.130756,84,C6,55,1
557440,464.736996,159,0.130756,82,A5#,55,1
557600,464.868575,159,0.130756,83,B5,55,1
557760,465.000154,479,0.393914,79,G5,58,1
557760,465.000154,479,0.393914,72,C5,58,2
557760,465.000154,479,0.393914,67,G4,58,2
557760,465.000154,479,0.393914,64,E4,58,2
557920,465.131733,159,0.130756,86,D6,58,1
558080,465.263312,159,0.130756,84,C6,58,1
558240,465.394891,479,0.393914,81,A5,64,1
558240,465.394891,479,0.393914,74,D5,64,2
558240,465.394891,479,0.393914,72,C5,64,2
558240,465.394891,479,0.393914,69,A4,64,2
558240,465.394891,479,0.393914,65,F4,64,2
558400,465.52647,159,0.130756,88,E6,64,1
558560,465.658049,159,0.130756,86,D6,64,1
558720,465.789628,959,0.788651,84,C6,64,1
558720,465.789628,159,0.130756,88,E6,64,1
558720,465.789628,959,0.788651,76,E5,64,2
558720,465.789628,959,0.788651,72,C5,64,2
558720,465.789628,1439,1.183388,67,G4,64,2
558880,465.921207,159,0.130756,87,D6#,64,1
559040,466.052786,159,0.130756,88,E6,64,1
559200,466.184365,159,0.130756,91,G6,58,1
559360,466.315944,159,0.130756,89,F6,58,1
559520,466.447523,159,0.130756,88,E6,58,1
559680,466.579102,159,0.130756,83,B5,55,1
559680,466.579102,159,0.130756,86,D6,55,1
559680,466.579102,479,0.393914,74,D5,55,2
559680,466.579102,479,0.393914,71,B4,55,2
559840,466.710681,159,0.130756,81,A5,55,1
559840,466.710681,159,0.130756,84,C6,55,1
560000,466.84226,159,0.130756,79,G5,55,1
560000,466.84226,159,0.130756,83,B5,55,1
560160,466.973839,159,0.130756,77,F5,52,1
560160,466.973839,159,0.130756,81,A5,52,1
560160,466.973839,159,0.130756,55,G3,52,2
560320,467.105418,159,0.130756,76,E5,52,1
560320,467.105418,159,0.130756,79,G5,52,1
560320,467.105418,159,0.130756,57,A3,52,2
560480,467.236997,159,0.130756,74,D5,52,1
560480,467.236997,159,0.130756,77,F5,52,1
560480,467.236997,159,0.130756,59,B3,52,2
560640,467.368576,959,0.788651,67,G4,49,1
560640,467.368576,159,0.130756,76,E5,49,1
560640,467.368576,959,0.788651,64,E4,49,2
560640,467.368576,959,0.788651,60,C4,49,2
560800,467.500155,159,0.130756,75,D5#,49,1
560960,467.631734,159,0.130756,76,E5,49,1
561120,467.763313,159,0.130756,77,F5,49,1
561280,467.894892,159,0.130756,75,D5#,49,1
561440,468.026471,159,0.130756,76,E5,49,1
561600,468.15805,479,0.393914,65,F4,49,1
561600,468.15805,479,0.393914,62,D4,49,2
561600,468.15805,479,0.393914,59,B3,49,2
561600,468.15805,479,0.393914,56,G3#,49,2
561760,468.289629,159,0.130756,76,E5,49,1
561920,468.421208,159,0.130756,74,D5,49,1
562080,468.552787,479,0.393914,64,E4,49,1
562080,468.552787,479,0.393914,60,C4,49,2
562080,468.552787,479,0.393914,57,A3,49,2
562240,468.684366,159,0.130756,74,D5,49,1
562400,468.815945,159,0.130756,72,C5,49,1
562560,468.947524,159,0.130756,62,D4,49,1
562560,468.947524,159,0.130756,62,D4,49,1
562560,468.947524,959,0.788651,59,B3,49,2
562560,468.947524,959,0.788651,56,G3#,49,2
562560,468.947524,959,0.788651,52,E3,49,2
562720,469.079103,159,0.130756,70,A4#,49,1
562880,469.210682,159,0.130756,71,B4,49,1
563040,469.342261,159,0.130756,72,C5,49,1
563200,469.47384,159,0.130756,70,A4#,49,1
563360,469.605419,159,0.130756,71,B4,49,1
563520,469.736998,159,0.130756,60,C4,49,1
563520,469.736998,159,0.130756,60,C4,49,1
563520,469.736998,959,0.788651,57,A3,49,2
563520,469.736998,959,0.788651,53,F3,49,2
563680,469.868577,159,0.130756,68,G4#,49,1
563840,470.000156,159,0.130756,69,A4,49,1
564000,470.131735,159,0.130756,71,B4,49,1
564160,470.263314,159,0.130756,68,G4#,49,1
564320,470.394893,159,0.130756,69,A4,49,1
564480,470.526472,479,0.393914,60,C4,59,1
564480,470.526472,1919,1.578125,43,G2,59,2
564480,470.526472,479,0.393914,52,E3,59,2
564480,470.526472,479,0.393914,48,C3,59,2
564640,470.658051,159,0.130756,64,E4,59,1
564800,470.78963,159,0.130756,67,G4,59,1
564960,470.921209,479,0.393914,62,D4,69,1
564960,470.921209,1439,1.183388,53,F3,69,2
564960,470.921209,1439,1.183388,50,D3,69,2
565120,471.052788,159,0.130756,65,F4,69,1
565280,471.184367,159,0.130756,67,G4,69,1
565440,471.315946,479,0.393914,62,D4,79,1
565600,471.447525,159,0.130756,65,F4,79,1
565760,471.579104,159,0.130756,69,A4,79,1
565920,471.710683,479,0.393914,62,D4,89,1
566080,471.842262,159,0.130756,65,F4,89,1
566240,471.973841,159,0.130756,71,B4,89,1
566400,472.10542,159,0.130756,72,C5,96,1
566400,472.10542,159,0.130756,64,E4,96,1
566400,472.10542,479,0.393914,48,C3,96,2
566400,472.10542,479,0.393914,36,C2,96,2
566560,472.236999,159,0.130756,55,G3,96,1
566720,472.368578,159,0.130756,52,E3,96,1
566880,472.500157,159,0.130756,55,G3,96,1
566880,472.500157,959,0.788651,43,G2,96,2
567040,472.631736,159,0.130756,60,C4,96,1
567200,472.763315,159,0.130756,64,E4,96,1
567360,472.894894,159,0.130756,62,D4,96,1
567520,473.026473,159,0.130756,59,B3,96,1
567680,473.158052,159,0.130756,55,G3,96,1
567840,473.289631,159,0.130756,59,B3,96,1
567840,473.289631,959,0.788651,43,G2,96,2
568000,473.42121,159,0.130756,62,D4,96,1
568160,473.552789,159,0.130756,65,F4,96,1
568320,473.684368,159,0.130756,64,E4,96,1
568480,473.815947,159,0.130756,60,C4,96,1
568640,473.947526,159,0.130756,55,G3,96,1
568800,474.079105,159,0.130756,60,C4,96,1
568800,474.079105,959,0.788651,43,G2,96,2
568960,474.210684,159,0.130756,64,E4,96,1
569120,474.342263,159,0.130756,67,G4,96,1
569280,474.473842,159,0.130756,65,F4,96,1
569440,474.605421,159,0.130756,62,D4,96,1
569600,474.737,159,0.130756,59,B3,96,1
569760,474.868579,159,0.130756,71,B4,96,1
569760,474.868579,479,0.393914,43,G2,96,2
569920,475.000158,159,0.130756,65,F4,96,1
570080,475.131737,159,0.130756,62,D4,96,1
570240,475.263316,479,0.393914,72,C5,96,1
570240,475.263316,479,0.393914,64,E4,96,1
570240,475.263316,159,0.130756,48,C3,96,2
570400,475.394895,159,0.130756,43,G2,96,2
570560,475.526474,159,0.130756,40,E2,96,2
570720,475.658053,959,0.788651,67,G4,96,1
570720,475.658053,159,0.130756,43,G2,96,2
570880,475.789632,159,0.130756,48,C3,96,2
571040,475.921211,159,0.130756,52,E3,96,2
571200,476.05279,159,0.130756,50,D3,96,2
571360,476.184369,159,0.130756,47,B2,96,2
571520,476.315948,159,0.130756,43,G2,96,2
571680,476.447527,959,0.788651,67,G4,96,1
571680,476.447527,159,0.130756,47,B2,96,2
571840,476.579106,159,0.130756,50,D3,96,2
572000,476.710685,159,0.130756,53,F3,96,2
572160,476.842264,159,0.130756,52,E3,96,2
572320,476.973843,159,0.130756,48,C3,96,2
572480,477.105422,159,0.130756,43,G2,96,2
572640,477.237001,959,0.788651,67,G4,96,1
572640,477.237001,159,0.130756,48,C3,96,2
572800,477.36858,159,0.130756,52,E3,96,2
572960,477.500159,159,0.130756,55,G3,96,2
573120,477.631738,159,0.130756,53,F3,96,2
573280,477.763317,159,0.130756,50,D3,96,2
573440,477.894896,159,0.130756,47,B2,96,2
573600,478.026475,479,0.393914,67,G4,96,1
573600,478.026475,159,0.130756,59,B3,96,2
573760,478.158054,159,0.130756,53,F3,96,2
573920,478.289633,159,0.130756,50,D3,96,2
574080,478.421212,159,0.130756,72,C5,96,1
574080,478.421212,159,0.130756,52,E3,96,2
574240,478.552791,159,0.130756,67,G4,96,1
574240,478.552791,159,0.130756,55,G3,96,2
574400,478.68437,159,0.130756,64,E4,96,1
574400,478.68437,159,0.130756,60,C4,96,2
574560,478.815949,159,0.130756,67,G4,96,1
574560,478.815949,159,0.130756,55,G3,96,2
574720,478.947528,159,0.130756,72,C5,96,1
574720,478.947528,159,0.130756,52,E3,96,2
574880,479.079107,159,0.130756,76,E5,96,1
574880,479.079107,159,0.130756,48,C3,96,2
575040,479.210686,159,0.130756,74,D5,96,1
575040,479.210686,159,0.130756,47,B2,96,2
575200,479.342265,159,0.130756,71,B4,96,1
575200,479.342265,159,0.130756,50,D3,96,2
575360,479.473844,159,0.130756,67,G4,96,1
575360,479.473844,159,0.130756,53,F3,96,2
575520,479.605423,159,0.130756,71,B4,96,1
575520,479.605423,159,0.130756,50,D3,96,2
575680,479.737002,159,0.130756,74,D5,96,1
575680,479.737002,159,0.130756,47,B2,96,2
575840,479.868581,159,0.130756,77,F5,96,1
575840,479.868581,159,0.130756,43,G2,96,2
576000,480.00016,159,0.130756,76,E5,96,1
576000,480.00016,159,0.130756,48,C3,96,2
576160,480.131739,159,0.130756,72,C5,96,1
576160,480.131739,159,0.130756,52,E3,96,2
576320,480.263318,159,0.130756,67,G4,96,1
576320,480.263318,159,0.130756,55,G3,96,2
576480,480.394897,159,0.130756,72,C5,96,1
576480,480.394897,159,0.130756,52,E3,96,2
576640,480.526476,159,0.130756,76,E5,96,1
576640,480.526476,159,0.130756,48,C3,96,2
576800,480.658055,159,0.130756,79,G5,96,1
576800,480.658055,159,0.130756,43,G2,96,2
576960,480.789634,159,0.130756,77,F5,96,1
576960,480.789634,159,0.130756,50,D3,96,2
577120,480.921213,159,0.130756,74,D5,96,1
577120,480.921213,159,0.130756,53,F3,96,2
577280,481.052792,159,0.130756,71,B4,96,1
577280,481.052792,159,0.130756,55,G3,96,2
577440,481.184371,159,0.130756,83,B5,96,1
577440,481.184371,159,0.130756,53,F3,96,2
577600,481.31595,159,0.130756,79,G5,96,1
577600,481.31595,159,0.130756,55,G3,96,2
577760,481.447529,159,0.130756,74,D5,96,1
577760,481.447529,159,0.130756,62,D4,96,2
577920,481.579108,159,0.130756,84,C6,91,1
577920,481.579108,159,0.130756,52,E3,91,2
578080,481.710687,159,0.130756,79,G5,91,1
578080,481.710687,159,0.130756,55,G3,91,2
578240,481.842266,159,0.130756,76,E5,91,1
578240,481.842266,159,0.130756,60,C4,91,2
578400,481.973845,159,0.130756,79,G5,85,1
578400,481.973845,159,0.130756,48,C3,85,2
578560,482.105424,159,0.130756,76,E5,85,1
578560,482.105424,159,0.130756,52,E3,85,2
578720,482.237003,159,0.130756,72,C5,85,1
578720,482.237003,159,0.130756,55,G3,85,2
578880,482.368582,159,0.130756,77,F5,80,1
578880,482.368582,159,0.130756,50,D3,80,2
579040,482.500161,159,0.130756,74,D5,80,1
579040,482.500161,159,0.130756,53,F3,80,2
579200,482.63174,159,0.130756,71,B4,80,1
579200,482.63174,159,0.130756,55,G3,80,2
579360,482.763319,159,0.130756,83,B5,74,1
579360,482.763319,159,0.130756,53,F3,74,2
579520,482.894898,159,0.130756,79,G5,74,1
579520,482.894898,159,0.130756,55,G3,74,2
579680,483.026477,159,0.130756,74,D5,74,1
579680,483.026477,159,0.130756,62,D4,74,2
579840,483.158056,159,0.130756,84,C6,68,1
579840,483.158056,159,0.130756,52,E3,68,2
580000,483.289635,159,0.130756,79,G5,68,1
580000,483.289635,159,0.130756,55,G3,68,2
580160,483.421214,159,0.130756,76,E5,68,1
580160,483.421214,159,0.130756,60,C4,68,2
580320,483.552793,159,0.130756,79,G5,63,1
580320,483.552793,159,0.130756,48,C3,63,2
580480,483.684372,159,0.130756,76,E5,63,1
580480,483.684372,159,0.130756,52,E3,63,2
580640,483.815951,159,0.130756,72,C5,63,1
580640,483.815951,159,0.130756,55,G3,63,2
580800,483.94753,159,0.130756,77,F5,59,1
580800,483.94753,159,0.130756,50,D3,59,2
580960,484.079109,159,0.130756,74,D5,59,1
580960,484.079109,159,0.130756,53,F3,59,2
581120,484.210688,159,0.130756,71,B4,59,1
581120,484.210688,159,0.130756,55,G3,59,2
581280,484.342267,159,0.130756,83,B5,54,1
581280,484.342267,159,0.130756,53,F3,54,2
581440,484.473846,159,0.130756,79,G5,54,1
581440,484.473846,159,0.130756,55,G3,54,2
581600,484.605425,159,0.130756,74,D5,54,1
581600,484.605425,159,0.130756,62,D4,54,2
581760,484.737004,119,0.097861,84,C6,49,1
581760,484.737004,119,0.097861,52,E3,49,2
581880,484.835688,119,0.097862,79,G5,49,1
581880,484.835688,119,0.097862,55,G3,49,2
582000,484.934372,119,0.097862,76,E5,49,1
582000,484.934372,119,0.097862,48,C3,49,2
582120,485.033056,119,0.097862,72,C5,49,1
582120,485.033056,119,0.097862,55,G3,49,2
582240,485.131741,119,0.097861,77,F5,54,1
582240,485.131741,119,0.097861,50,D3,54,2
582360,485.230425,119,0.097862,74,D5,54,1
582360,485.230425,119,0.097862,55,G3,54,2
582480,485.329109,119,0.097862,83,B5,54,1
582480,485.329109,119,0.097862,53,F3,54,2
582600,485.427793,119,0.097862,79,G5,54,1
582600,485.427793,119,0.097862,55,G3,54,2
582720,485.526478,119,0.097861,84,C6,59,1
582720,485.526478,119,0.097861,52,E3,59,2
582840,485.625162,119,0.097862,79,G5,59,1
582840,485.625162,119,0.097862,55,G3,59,2
582960,485.723846,119,0.097862,76,E5,59,1
582960,485.723846,119,0.097862,48,C3,59,2
583080,485.82253,119,0.097862,72,C5,59,1
583080,485.82253,119,0.097862,55,G3,59,2
583200,485.921215,119,0.097861,77,F5,65,1
583200,485.921215,119,0.097861,50,D3,65,2
583320,486.019899,119,0.097862,74,D5,65,1
583320,486.019899,119,0.097862,55,G3,65,2
583440,486.118583,119,0.097862,83,B5,65,1
583440,486.118583,119,0.097862,53,F3,65,2
583560,486.217267,119,0.097862,79,G5,65,1
583560,486.217267,119,0.097862,55,G3,65,2
583680,486.315952,119,0.097861,84,C6,71,1
583680,486.315952,119,0.097861,52,E3,71,2
583800,486.414636,119,0.097862,79,G5,71,1
583800,486.414636,119,0.097862,55,G3,71,2
583920,486.51332,119,0.097862,83,B5,71,1
583920,486.51332,119,0.097862,53,F3,71,2
584040,486.612004,119,0.097862,79,G5,71,1
584040,486.612004,119,0.097862,55,G3,71,2
584160,486.710689,119,0.097861,84,C6,76,1
584160,486.710689,119,0.097861,52,E3,76,2
584280,486.809373,119,0.097862,79,G5,76,1
584280,486.809373,119,0.097862,55,G3,76,2
584400,486.908057,119,0.097862,83,B5,76,1
584400,486.908057,119,0.097862,53,F3,76,2
584520,487.006741,119,0.097862,79,G5,76,1
584520,487.006741,119,0.097862,55,G3,76,2
584640,487.105426,119,0.097861,84,C6,81,1
584640,487.105426,119,0.097861,52,E3,81,2
584760,487.20411,119,0.097862,79,G5,81,1
584760,487.20411,119,0.097862,55,G3,81,2
584880,487.302794,119,0.097862,83,B5,81,1
584880,487.302794,119,0.097862,53,F3,81,2
585000,487.401478,119,0.097862,79,G5,81,1
585000,487.401478,119,0.097862,55,G3,81,2
585120,487.500163,119,0.097861,84,C6,90,1
585120,487.500163,119,0.097861,52,E3,90,2
585240,487.598847,119,0.097862,79,G5,90,1
585240,487.598847,119,0.097862,55,G3,90,2
585360,487.697531,119,0.097862,83,B5,90,1
585360,487.697531,119,0.097862,53,F3,90,2
585480,487.796215,119,0.097862,79,G5,90,1
585480,487.796215,119,0.097862,55,G3,90,2
585600,487.8949,119,0.097861,84,C6,96,1
585600,487.8949,119,0.097861,52,E3,96,2
585720,487.993584,119,0.097862,79,G5,96,1
585720,487.993584,119,0.097862,55,G3,96,2
585840,488.092268,119,0.097862,82,A5#,96,1
585840,488.092268,119,0.097862,40,E2,96,2
585960,488.190952,119,0.097862,79,G5,96,1
585960,488.190952,119,0.097862,48,C3,96,2
586080,488.289637,119,0.097861,82,A5#,96,1
586080,488.289637,119,0.097861,40,E2,96,2
586200,488.388321,119,0.097862,79,G5,96,1
586200,488.388321,119,0.097862,48,C3,96,2
586320,488.487005,119,0.097862,82,A5#,96,1
586320,488.487005,119,0.097862,40,E2,96,2
586440,488.585689,119,0.097862,79,G5,96,1
586440,488.585689,119,0.097862,48,C3,96,2
586560,488.684374,119,0.097861,82,A5#,96,1
586560,488.684374,119,0.097861,40,E2,96,2
586680,488.783058,119,0.097862,79,G5,96,1
586680,488.783058,119,0.097862,48,C3,96,2
586800,488.881742,119,0.097862,82,A5#,96,1
586800,488.881742,119,0.097862,40,E2,96,2
586920,488.980426,119,0.097862,79,G5,96,1
586920,488.980426,119,0.097862,48,C3,96,2
587040,489.079111,119,0.097861,82,A5#,96,1
587040,489.079111,119,0.097861,40,E2,96,2
587160,489.177795,119,0.097862,79,G5,96,1
587160,489.177795,119,0.097862,48,C3,96,2
587280,489.276479,119,0.097862,82,A5#,96,1
587280,489.276479,119,0.097862,40,E2,96,2
587400,489.375163,119,0.097862,79,G5,96,1
587400,489.375163,119,0.097862,48,C3,96,2
587520,489.473848,239,0.196546,82,A5#,96,1
587520,489.473848,119,0.097861,40,E2,96,2
587640,489.572532,119,0.097862,48,C3,96,2
587760,489.671216,119,0.097862,81,A5,96,1
587760,489.671216,119,0.097862,40,E2,96,2
587880,489.7699,119,0.097862,79,G5,96,1
587880,489.7699,119,0.097862,48,C3,96,2
588000,489.868585,119,0.097861,77,F5,96,1
588000,489.868585,119,0.097861,40,E2,96,2
588120,489.967269,119,0.097862,76,E5,96,1
588120,489.967269,119,0.097862,48,C3,96,2
588240,490.065953,119,0.097862,74,D5,96,1
588240,490.065953,119,0.097862,40,E2,96,2
588360,490.164637,119,0.097862,72,C5,96,1
588360,490.164637,119,0.097862,48,C3,96,2
588480,490.263322,119,0.097861,70,A4#,96,1
588480,490.263322,119,0.097861,40,E2,96,2
588600,490.362006,119,0.097862,69,A4,96,1
588600,490.362006,119,0.097862,48,C3,96,2
588720,490.46069,119,0.097862,67,G4,96,1
588720,490.46069,119,0.097862,40,E2,96,2
588840,490.559374,119,0.097862,65,F4,96,1
588840,490.559374,119,0.097862,48,C3,96,2
588960,490.658059,119,0.097861,64,E4,96,1
588960,490.658059,119,0.097861,40,E2,96,2
589080,490.756743,119,0.097862,62,D4,96,1
589080,490.756743,119,0.097862,48,C3,96,2
589200,490.855427,119,0.097862,60,C4,96,1
589200,490.855427,119,0.097862,40,E2,96,2
589320,490.954111,119,0.097862,58,A3#,96,1
589320,490.954111,119,0.097862,48,C3,96,2
589440,491.052796,119,0.097861,57,A3,112,1
589440,491.052796,239,0.196546,48,C3,112,2
589440,491.052796,239,0.196546,45,A2,112,2
589440,491.052796,239,0.196546,41,F2,112,2
589560,491.15148,119,0.097862,59,B3,112,1
589680,491.250164,119,0.097862,60,C4,112,1
589680,491.250164,239,0.196546,48,C3,112,2
589680,491.250164,239,0.196546,45,A2,112,2
589680,491.250164,239,0.196546,41,F2,112,2
589800,491.348848,119,0.097862,59,B3,112,1
589920,491.447533,119,0.097861,60,C4,112,1
590040,491.546217,119,0.097862,64,E4,112,1
590160,491.644901,119,0.097862,65,F4,112,1
590160,491.644901,239,0.196546,48,C3,112,2
590160,491.644901,239,0.196546,45,A2,112,2
590160,491.644901,239,0.196546,41,F2,112,2
590280,491.743585,119,0.097862,64,E4,112,1
590400,491.84227,119,0.097861,65,F4,112,1
590400,491.84227,239,0.196546,48,C3,112,2
590400,491.84227,239,0.196546,45,A2,112,2
590400,491.84227,239,0.196546,41,F2,112,2
590520,491.940954,119,0.097862,68,G4#,112,1
590640,492.039638,119,0.097862,69,A4,112,1
590640,492.039638,239,0.196546,48,C3,112,2
590640,492.039638,239,0.196546,45,A2,112,2
590640,492.039638,239,0.196546,41,F2,112,2
590760,492.138322,119,0.097862,68,G4#,112,1
590880,492.237007,119,0.097861,69,A4,112,1
591000,492.335691,119,0.097862,71,B4,112,1
591120,492.434375,119,0.097862,72,C5,112,1
591120,492.434375,239,0.196546,48,C3,112,2
591120,492.434375,239,0.196546,45,A2,112,2
591120,492.434375,239,0.196546,41,F2,112,2
591240,492.533059,119,0.097862,71,B4,112,1
591360,492.631744,119,0.097861,72,C5,112,1
591360,492.631744,239,0.196546,48,C3,112,2
591360,492.631744,239,0.196546,45,A2,112,2
591360,492.631744,239,0.196546,41,F2,112,2
591480,492.730428,119,0.097862,76,E5,112,1
591600,492.829112,119,0.097862,77,F5,112,1
591600,492.829112,239,0.196546,48,C3,112,2
591600,492.829112,239,0.196546,45,A2,112,2
591600,492.829112,239,0.196546,41,F2,112,2
591720,492.927796,119,0.097862,76,E5,112,1
591840,493.026481,119,0.097861,77,F5,112,1
591960,493.125165,119,0.097862,80,G5#,112,1
592080,493.223849,119,0.097862,81,A5,112,1
592080,493.223849,239,0.196546,48,C3,112,2
592080,493.223849,239,0.196546,45,A2,112,2
592080,493.223849,239,0.196546,41,F2,112,2
592200,493.322533,119,0.097862,80,G5#,112,1
592320,493.421218,119,0.097861,81,A5,112,1
592320,493.421218,239,0.196546,48,C3,112,2
592320,493.421218,239,0.196546,45,A2,112,2
592320,493.421218,239,0.196546,41,F2,112,2
592440,493.519902,119,0.097862,83,B5,112,1
592560,493.618586,119,0.097862,84,C6,112,1
592560,493.618586,239,0.196546,48,C3,112,2
592560,493.618586,239,0.196546,45,A2,112,2
592560,493.618586,239,0.196546,41,F2,112,2
592680,493.71727,119,0.097862,83,B5,112,1
592800,493.815955,119,0.097861,84,C6,112,1
592920,493.914639,119,0.097862,83,B5,112,1
593040,494.013323,119,0.097862,81,A5,112,1
593040,494.013323,239,0.196546,48,C3,112,2
593040,494.013323,239,0.196546,45,A2,112,2
593040,494.013323,239,0.196546,41,F2,112,2
593160,494.112007,119,0.097862,80,G5#,112,1
593280,494.210692,119,0.097861,81,A5,112,1
593280,494.210692,239,0.196546,50,D3,112,2
593280,494.210692,239,0.196546,48,C3,112,2
593280,494.210692,239,0.196546,45,A2,112,2
593280,494.210692,239,0.196546,42,F2#,112,2
593400,494.309376,119,0.097862,80,G5#,112,1
593520,494.40806,119,0.097862,81,A5,112,1
593520,494.40806,239,0.196546,50,D3,112,2
593520,494.40806,239,0.196546,48,C3,112,2
593520,494.40806,239,0.196546,45,A2,112,2
593520,494.40806,239,0.196546,42,F2#,112,2
593640,494.506744,119,0.097862,83,B5,112,1
593760,494.605429,119,0.097861,84,C6,112,1
593880,494.704113,119,0.097862,83,B5,112,1
594000,494.802797,119,0.097862,81,A5,112,1
594000,494.802797,239,0.196546,50,D3,112,2
594000,494.802797,239,0.196546,48,C3,112,2
594000,494.802797,239,0.196546,45,A2,112,2
594000,494.802797,239,0.196546,42,F2#,112,2
594120,494.901481,119,0.097862,80,G5#,112,1
594240,495.000166,119,0.097861,81,A5,112,1
594240,495.000166,239,0.196546,50,D3,112,2
594240,495.000166,239,0.196546,48,C3,112,2
594240,495.000166,239,0.196546,45,A2,112,2
594240,495.000166,239,0.196546,42,F2#,112,2
594360,495.09885,119,0.097862,80,G5#,112,1
594480,495.197534,119,0.097862,81,A5,112,1
594480,495.197534,239,0.196546,50,D3,112,2
594480,495.197534,239,0.196546,48,C3,112,2
594480,495.197534,239,0.196546,45,A2,112,2
594480,495.197534,239,0.196546,42,F2#,112,2
594600,495.296218,119,0.097862,83,B5,112,1
594720,495.394903,119,0.097861,84,C6,112,1
594840,495.493587,119,0.097862,83,B5,112,1
594960,495.592271,119,0.097862,81,A5,112,1
594960,495.592271,239,0.196546,50,D3,112,2
594960,495.592271,239,0.196546,48,C3,112,2
594960,495.592271,239,0.196546,45,A2,112,2
594960,495.592271,239,0.196546,42,F2#,112,2
595080,495.690955,119,0.097862,80,G5#,112,1
595200,495.78964,119,0.097861,81,A5,112,1
595200,495.78964,239,0.196546,50,D3,112,2
595200,495.78964,239,0.196546,48,C3,112,2
595200,495.78964,239,0.196546,45,A2,112,2
595200,495.78964,239,0.196546,42,F2#,112,2
595320,495.888324,119,0.097862,80,G5#,112,1
595440,495.987008,119,0.097862,81,A5,112,1
595440,495.987008,239,0.196546,50,D3,112,2
595440,495.987008,239,0.196546,48,C3,112,2
595440,495.987008,239,0.196546,45,A2,112,2
595440,495.987008,239,0.196546,42,F2#,112,2
595560,496.085692,119,0.097862,83,B5,112,1
595680,496.184377,119,0.097861,84,C6,112,1
595800,496.283061,119,0.097862,83,B5,112,1
595920,496.381745,119,0.097862,81,A5,112,1
595920,496.381745,239,0.196546,50,D3,112,2
595920,496.381745,239,0.196546,48,C3,112,2
595920,496.381745,239,0.196546,45,A2,112,2
595920,496.381745,239,0.196546,42,F2#,112,2
596040,496.480429,119,0.097862,80,G5#,112,1
596160,496.579114,119,0.097861,81,A5,112,1
596160,496.579114,239,0.196546,50,D3,112,2
596160,496.579114,239,0.196546,48,C3,112,2
596160,496.579114,239,0.196546,45,A2,112,2
596160,496.579114,239,0.196546,42,F2#,112,2
596280,496.677798,119,0.097862,80,G5#,112,1
596400,496.776482,119,0.097862,81,A5,112,1
596400,496.776482,239,0.196546,50,D3,112,2
596400,496.776482,239,0.196546,48,C3,112,2
596400,496.776482,239,0.196546,45,A2,112,2
596400,496.776482,239,0.196546,42,F2#,112,2
596520,496.875166,119,0.097862,83,B5,112,1
596640,496.973851,119,0.097861,84,C6,112,1
596760,497.072535,119,0.097862,83,B5,112,1
596880,497.171219,119,0.097862,84,C6,112,1
596880,497.171219,239,0.196546,50,D3,112,2
596880,497.171219,239,0.196546,48,C3,112,2
596880,497.171219,239,0.196546,45,A2,112,2
596880,497.171219,239,0.196546,42,F2#,112,2
597000,497.269903,119,0.097862,81,A5,112,1
597120,497.368588,119,0.097861,79,G5,119,1
597120,497.368588,119,0.097861,67,G4,119,1
597120,497.368588,119,0.097861,43,G2,112,2
597240,497.467272,119,0.097862,48,C3,112,2
597360,497.565956,119,0.097862,79,G5,112,1
597360,497.565956,119,0.097862,67,G4,112,1
597360,497.565956,119,0.097862,52,E3,112,2
597480,497.66464,119,0.097862,55,G3,112,2
597600,497.763325,119,0.097861,76,E5,112,1
597600,497.763325,119,0.097861,64,E4,112,1
597600,497.763325,119,0.097861,43,G2,112,2
597720,497.862009,119,0.097862,48,C3,112,2
597840,497.960693,119,0.097862,72,C5,112,1
597840,497.960693,119,0.097862,60,C4,112,1
597840,497.960693,119,0.097862,52,E3,112,2
597960,498.059377,119,0.097862,55,G3,112,2
598080,498.158062,119,0.097861,84,C6,119,1
598080,498.158062,119,0.097861,72,C5,119,1
598080,498.158062,119,0.097861,43,G2,112,2
598200,498.256746,119,0.097862,48,C3,112,2
598320,498.35543,119,0.097862,84,C6,112,1
598320,498.35543,119,0.097862,72,C5,112,1
598320,498.35543,119,0.097862,52,E3,112,2
598440,498.454114,119,0.097862,55,G3,112,2
598560,498.552799,119,0.097861,79,G5,112,1
598560,498.552799,119,0.097861,67,G4,112,1
598560,498.552799,119,0.097861,43,G2,112,2
598680,498.651483,119,0.097862,48,C3,112,2
598800,498.750167,119,0.097862,76,E5,112,1
598800,498.750167,119,0.097862,64,E4,112,1
598800,498.750167,119,0.097862,52,E3,112,2
598920,498.848851,119,0.097862,55,G3,112,2
599040,498.947536,119,0.097861,79,G5,119,1
599040,498.947536,119,0.097861,67,G4,119,1
599040,498.947536,119,0.097861,43,G2,112,2
599160,499.04622,119,0.097862,48,C3,112,2
599280,499.144904,119,0.097862,79,G5,112,1
599280,499.144904,119,0.097862,67,G4,112,1
599280,499.144904,119,0.097862,52,E3,112,2
599400,499.243588,119,0.097862,55,G3,112,2
599520,499.342273,119,0.097861,76,E5,112,1
599520,499.342273,119,0.097861,64,E4,112,1
599520,499.342273,119,0.097861,43,G2,112,2
599640,499.440957,119,0.097862,48,C3,112,2
599760,499.539641,119,0.097862,72,C5,112,1
599760,499.539641,119,0.097862,60,C4,112,1
599760,499.539641,119,0.097862,52,E3,112,2
599880,499.638325,119,0.097862,55,G3,112,2
600000,499.73701,119,0.097861,84,C6,119,1
600000,499.73701,119,0.097861,72,C5,119,1
600000,499.73701,119,0.097861,52,E3,112,2
600240,499.934378,119,0.097862,84,C6,112,1
600240,499.934378,119,0.097862,72,C5,112,1
600240,499.934378,119,0.097862,52,E3,112,2
600480,500.131747,119,0.097861,79,G5,112,1
600480,500.131747,119,0.097861,67,G4,112,1
600480,500.131747,119,0.097861,48,C3,112,2
600720,500.329115,119,0.097862,76,E5,112,1
600720,500.329115,119,0.097862,64,E4,112,1
600720,500.329115,119,0.097862,43,G2,112,2
600960,500.526484,119,0.097861,55,G3,96,2
601080,500.625168,119,0.097862,84,C6,49,1
601200,500.723852,119,0.097862,88,E6,49,1
601200,500.723852,119,0.097862,52,E3,49,2
601320,500.822536,119,0.097862,84,C6,49,1
601440,500.921221,119,0.097861,91,G6,49,1
601440,500.921221,119,0.097861,60,C4,49,2
601560,501.019905,119,0.097862,88,E6,49,1
601680,501.118589,119,0.097862,91,G6,49,1
601680,501.118589,119,0.097862,55,G3,49,2
601800,501.217273,119,0.097862,88,E6,49,1
601920,501.315958,119,0.097861,91,G6,49,1
601920,501.315958,119,0.097861,64,E4,49,2
602040,501.414642,119,0.097862,88,E6,49,1
602160,501.513326,119,0.097862,91,G6,49,1
602160,501.513326,119,0.097862,60,C4,49,2
602280,501.61201,119,0.097862,88,E6,49,1
602400,501.710695,119,0.097861,91,G6,49,1
602400,501.710695,119,0.097861,67,G4,49,2
602520,501.809379,119,0.097862,88,E6,49,1
602640,501.908063,119,0.097862,91,G6,49,1
602640,501.908063,119,0.097862,64,E4,49,2
602760,502.006747,119,0.097862,88,E6,49,1
602880,502.105432,119,0.097861,91,G6,49,1
602880,502.105432,119,0.097861,72,C5,49,2
603000,502.204116,119,0.097862,88,E6,49,1
603120,502.3028,119,0.097862,91,G6,49,1
603120,502.3028,119,0.097862,67,G4,49,2
603240,502.401484,119,0.097862,88,E6,49,1
603360,502.500169,119,0.097861,91,G6,49,1
603360,502.500169,119,0.097861,76,E5,49,2
603480,502.598853,119,0.097862,88,E6,49,1
603600,502.697537,119,0.097862,91,G6,49,1
603600,502.697537,119,0.097862,72,C5,49,2
603720,502.796221,119,0.097862,88,E6,49,1
603840,502.894906,119,0.097861,91,G6,49,1
603840,502.894906,119,0.097861,79,G5,49,2
603960,502.99359,119,0.097862,88,E6,49,1
604080,503.092274,119,0.097862,91,G6,49,1
604080,503.092274,119,0.097862,76,E5,49,2
604200,503.190958,119,0.097862,88,E6,49,1
604320,503.289643,119,0.097861,91,G6,49,1
604320,503.289643,119,0.097861,84,C6,49,2
604440,503.388327,119,0.097862,88,E6,49,1
604560,503.487011,119,0.097862,91,G6,49,1
604560,503.487011,119,0.097862,79,G5,49,2
604680,503.585695,119,0.097862,88,E6,49,1
604800,503.68438,119,0.097861,83,B5,45,2
604920,503.783064,119,0.097862,89,F6,45,1
605040,503.881748,119,0.097862,91,G6,45,1
605040,503.881748,119,0.097862,79,G5,45,2
605160,503.980432,119,0.097862,89,F6,45,1
605280,504.079117,119,0.097861,92,G6#,41,1
605280,504.079117,119,0.097861,83,B5,41,2
605400,504.177801,119,0.097862,89,F6,41,1
605520,504.276485,119,0.097862,91,G6,41,1
605520,504.276485,119,0.097862,79,G5,41,2
605640,504.375169,119,0.097862,89,F6,41,1
605760,504.473854,119,0.097861,92,G6#,37,1
605760,504.473854,119,0.097861,83,B5,37,2
605880,504.572538,119,0.097862,89,F6,37,1
606000,504.671222,119,0.097862,91,G6,37,1
606000,504.671222,119,0.097862,79,G5,37,2
606120,504.769906,119,0.097862,89,F6,37,1
606240,504.868591,119,0.097861,92,G6#,33,1
606240,504.868591,119,0.097861,83,B5,33,2
606360,504.967275,119,0.097862,89,F6,33,1
606480,505.065959,119,0.097862,91,G6,33,1
606480,505.065959,119,0.097862,79,G5,33,2
606600,505.164643,119,0.097862,89,F6,33,1
606720,505.263328,119,0.097861,92,G6#,33,1
606720,505.263328,119,0.097861,83,B5,33,2
606840,505.362012,119,0.097862,89,F6,33,1
606960,505.460696,119,0.097862,91,G6,33,1
606960,505.460696,119,0.097862,79,G5,33,2
607080,505.55938,119,0.097862,89,F6,33,1
607200,505.658065,119,0.097861,92,G6#,33,1
607200,505.658065,119,0.097861,83,B5,33,2
607320,505.756749,119,0.097862,89,F6,33,1
607440,505.855433,119,0.097862,91,G6,33,1
607440,505.855433,119,0.097862,79,G5,33,2
607560,505.954117,119,0.097862,89,F6,33,1
607680,506.052802,119,0.097861,92,G6#,33,1
607680,506.052802,119,0.097861,83,B5,33,2
607800,506.151486,119,0.097862,89,F6,33,1
607920,506.25017,119,0.097862,91,G6,33,1
607920,506.25017,119,0.097862,79,G5,33,2
608040,506.348854,119,0.097862,89,F6,33,1
608160,506.447539,119,0.097861,92,G6#,33,1
608160,506.447539,119,0.097861,83,B5,33,2
608280,506.546223,119,0.097862,89,F6,33,1
608400,506.644907,119,0.097862,91,G6,33,1
608400,506.644907,119,0.097862,79,G5,33,2
608520,506.743591,119,0.097862,89,F6,33,1
608640,506.842276,119,0.097861,93,A6,42,1
608640,506.842276,119,0.097861,83,B5,42,2
608640,506.842276,119,0.097861,83,B5,42,2
608760,506.94096,119,0.097862,89,F6,42,1
608760,506.94096,119,0.097862,84,C6,42,2
608880,507.039644,119,0.097862,91,G6,42,1
608880,507.039644,119,0.097862,83,B5,42,2
609000,507.138328,119,0.097862,89,F6,42,1
609000,507.138328,119,0.097862,84,C6,42,2
609120,507.237013,119,0.097861,93,A6,51,1
609120,507.237013,119,0.097861,83,B5,51,2
609240,507.335697,119,0.097862,89,F6,51,1
609240,507.335697,119,0.097862,84,C6,51,2
609360,507.434381,119,0.097862,91,G6,51,1
609360,507.434381,119,0.097862,83,B5,51,2
609480,507.533065,119,0.097862,89,F6,51,1
609480,507.533065,119,0.097862,84,C6,51,2
609600,507.63175,119,0.097861,93,A6,60,1
609600,507.63175,119,0.097861,83,B5,60,2
609720,507.730434,119,0.097862,89,F6,60,1
609720,507.730434,119,0.097862,84,C6,60,2
609840,507.829118,119,0.097862,91,G6,60,1
609840,507.829118,119,0.097862,83,B5,60,2
609960,507.927802,119,0.097862,89,F6,60,1
609960,507.927802,119,0.097862,84,C6,60,2
610080,508.026487,119,0.097861,93,A6,69,1
610080,508.026487,119,0.097861,83,B5,69,2
610200,508.125171,119,0.097862,89,F6,69,1
610200,508.125171,119,0.097862,84,C6,69,2
610320,508.223855,119,0.097862,91,G6,69,1
610320,508.223855,119,0.097862,83,B5,69,2
610440,508.322539,119,0.097862,89,F6,69,1
610440,508.322539,119,0.097862,84,C6,69,2
610560,508.421224,239,0.196546,93,A6,78,1
610560,508.421224,119,0.097861,83,B5,78,2
610680,508.519908,119,0.097862,84,C6,78,2
610800,508.618592,239,0.196546,91,G6,78,1
610800,508.618592,239,0.196546,89,F6,78,1
610800,508.618592,119,0.097862,83,B5,78,2
610920,508.717276,119,0.097862,84,C6,78,2
611040,508.815961,239,0.196546,91,G6,78,1
611040,508.815961,239,0.196546,89,F6,78,1
611040,508.815961,119,0.097861,83,B5,78,2
611160,508.914645,119,0.097862,84,C6,78,2
611280,509.013329,239,0.196546,91,G6,78,1
611280,509.013329,239,0.196546,89,F6,78,1
611280,509.013329,119,0.097862,83,B5,78,2
611400,509.112013,119,0.097862,84,C6,78,2
611520,509.210698,239,0.196546,91,G6,87,1
611520,509.210698,239,0.196546,89,F6,87,1
611520,509.210698,119,0.097861,83,B5,87,2
611640,509.309382,119,0.097862,84,C6,87,2
611760,509.408066,239,0.196546,91,G6,87,1
611760,509.408066,239,0.196546,89,F6,87,1
611760,509.408066,119,0.097862,83,B5,87,2
611880,509.50675,119,0.097862,84,C6,87,2
612000,509.605435,239,0.196546,91,G6,90,1
612000,509.605435,239,0.196546,89,F6,90,1
612000,509.605435,119,0.097861,83,B5,90,2
612120,509.704119,119,0.097862,84,C6,90,2
612240,509.802803,239,0.196546,91,G6,90,1
612240,509.802803,239,0.196546,89,F6,90,1
612240,509.802803,119,0.097862,81,A5,90,2
612360,509.901487,119,0.097862,83,B5,90,2
612480,510.000172,1439,1.183388,84,C6,96,1
612480,510.000172,3839,3.157073,60,C4,96,2
612480,510.000172,959,0.788651,72,C5,96,2
613440,510.789646,959,0.788651,70,A4#,49,2
613440,510.789646,959,0.788651,67,G4,49,2
613440,510.789646,959,0.788651,64,E4,49,2
613920,511.184383,119,0.097861,84,C6,49,1
614040,511.283067,119,0.097862,82,A5#,49,1
614160,511.381751,119,0.097862,80,G5#,49,1
614280,511.480435,119,0.097862,79,G5,49,1
614400,511.57912,119,0.097861,80,G5#,49,1
614400,511.57912,959,0.788651,68,G4#,49,2
614400,511.57912,959,0.788651,65,F4,49,2
614520,511.677804,119,0.097862,79,G5,49,1
614640,511.776488,119,0.097862,77,F5,49,1
614760,511.875172,119,0.097862,76,E5,49,1
614880,511.973857,119,0.097861,77,F5,49,1
615000,512.072541,119,0.097862,79,G5,49,1
615120,512.171225,119,0.097862,80,G5#,49,1
615240,512.269909,119,0.097862,82,A5#,49,1
615360,512.368594,119,0.097861,84,C6,49,1
615360,512.368594,959,0.788651,70,A4#,49,2
615360,512.368594,959,0.788651,67,G4,49,2
615360,512.368594,959,0.788651,64,E4,49,2
615480,512.467278,119,0.097862,85,C6#,49,1
615600,512.565962,119,0.097862,84,C6,49,1
615720,512.664646,119,0.097862,83,B5,49,1
615840,512.763331,119,0.097861,84,C6,49,1
615960,512.862015,119,0.097862,82,A5#,49,1
616080,512.960699,119,0.097862,80,G5#,49,1
616200,513.059383,119,0.097862,79,G5,49,1
616320,513.158068,119,0.097861,80,G5#,49,1
616320,513.158068,479,0.393914,65,F4,49,2
616320,513.158068,479,0.393914,68,G4#,49,2
616320,513.158068,479,0.393914,65,F4,49,2
616440,513.256752,119,0.097862,82,A5#,49,1
616560,513.355436,119,0.097862,80,G5#,49,1
616680,513.45412,119,0.097862,79,G5,49,1
616800,513.552805,119,0.097861,77,F5,49,1
616920,513.651489,119,0.097862,76,E5,49,1
617040,513.750173,119,0.097862,77,F5,49,1
617160,513.848857,119,0.097862,79,G5,49,1
617280,513.947542,959,0.788651,68,G4#,49,1
617280,513.947542,479,0.393914,80,G5#,49,1
617280,513.947542,959,0.788651,65,F4,49,2
617280,513.947542,959,0.788651,61,C4#,49,2
617280,513.947542,959,0.788651,56,G3#,49,2
617280,513.947542,959,0.788651,53,F3,49,2
617760,514.342279,239,0.196546,77,F5,49,1
618000,514.539647,239,0.196546,73,C5#,49,1
618240,514.737016,959,0.788651,67,G4,49,1
618240,514.737016,479,0.393914,79,G5,49,1
618240,514.737016,959,0.788651,63,D4#,49,2
618240,514.737016,959,0.788651,60,C4,49,2
618240,514.737016,959,0.788651,55,G3,49,2
618720,515.131753,239,0.196546,75,D5#,49,1
618960,515.329121,239,0.196546,72,C5,49,1
619200,515.52649,959,0.788651,65,F4,49,1
619200,515.52649,479,0.393914,77,F5,49,1
619200,515.52649,959,0.788651,62,D4,49,2
619200,515.52649,959,0.788651,59,B3,49,2
619200,515.52649,959,0.788651,55,G3,49,2
619680,515.921227,239,0.196546,74,D5,49,1
619920,516.118595,239,0.196546,71,B4,49,1
620160,516.315964,1439,1.183388,72,C5,96,1
620160,516.315964,3839,3.157073,48,C3,96,2
620160,516.315964,959,0.788651,60,C4,96,2
621120,517.105438,959,0.788651,58,A3#,49,2
621120,517.105438,959,0.788651,55,G3,49,2
621120,517.105438,959,0.788651,52,E3,49,2
621600,517.500175,119,0.097861,72,C5,49,1
621720,517.598859,119,0.097862,70,A4#,49,1
621840,517.697543,119,0.097862,69,A4,49,1
621960,517.796227,119,0.097862,67,G4,49,1
622080,517.894912,119,0.097861,69,A4,49,1
622080,517.894912,959,0.788651,57,A3,49,2
622080,517.894912,959,0.788651,53,F3,49,2
622200,517.993596,119,0.097862,67,G4,49,1
622320,518.09228,119,0.097862,65,F4,49,1
622440,518.190964,119,0.097862,64,E4,49,1
622560,518.289649,119,0.097861,65,F4,49,1
622680,518.388333,119,0.097862,67,G4,49,1
622800,518.487017,119,0.097862,69,A4,49,1
622920,518.585701,119,0.097862,70,A4#,49,1
623040,518.684386,119,0.097861,72,C5,49,1
623040,518.684386,959,0.788651,58,A3#,49,2
623040,518.684386,959,0.788651,55,G3,49,2
623040,518.684386,959,0.788651,52,E3,49,2
623160,518.78307,119,0.097862,74,D5,49,1
623280,518.881754,119,0.097862,72,C5,49,1
623400,518.980438,119,0.097862,71,B4,49,1
623520,519.079123,119,0.097861,72,C5,49,1
623640,519.177807,119,0.097862,70,A4#,49,1
623760,519.276491,119,0.097862,69,A4,49,1
623880,519.375175,119,0.097862,67,G4,49,1
624000,519.47386,119,0.097861,69,A4,49,1
624000,519.47386,479,0.393914,53,F3,49,2
624000,519.47386,479,0.393914,57,A3,49,2
624000,519.47386,479,0.393914,53,F3,49,2
624120,519.572544,119,0.097862,70,A4#,49,1
624240,519.671228,119,0.097862,69,A4,49,1
624360,519.769912,119,0.097862,67,G4,49,1
624480,519.868597,119,0.097861,65,F4,49,1
624600,519.967281,119,0.097862,64,E4,49,1
624720,520.065965,119,0.097862,65,F4,49,1
624840,520.164649,119,0.097862,67,G4,49,1
624960,520.263334,959,0.788651,57,A3,49,1
624960,520.263334,479,0.393914,69,A4,49,1
624960,520.263334,959,0.788651,50,D3,49,2
624960,520.263334,959,0.788651,45,A2,49,2
624960,520.263334,959,0.788651,41,F2,49,2
625440,520.658071,239,0.196546,65,F4,49,1
625680,520.855439,239,0.196546,62,D4,49,1
625920,521.052808,1919,1.578125,55,G3,49,1
625920,521.052808,479,0.393914,67,G4,49,1
625920,521.052808,1919,1.578125,43,G2,49,2
625920,521.052808,959,0.788651,52,E3,49,2
625920,521.052808,959,0.788651,48,C3,49,2
626400,521.447545,239,0.196546,64,E4,49,1
626640,521.644913,239,0.196546,60,C4,49,1
626880,521.842282,479,0.393914,65,F4,49,1
626880,521.842282,959,0.788651,53,F3,49,2
626880,521.842282,959,0.788651,50,D3,49,2
627360,522.237019,239,0.196546,62,D4,49,1
627600,522.434387,239,0.196546,59,B3,49,1
627840,522.631756,479,0.393914,55,G3,49,1
627840,522.631756,479,0.393914,60,C4,49,1
627840,522.631756,479,0.393914,48,C3,49,2
627840,522.631756,479,0.393914,52,E3,49,2
628320,523.026493,239,0.196546,72,C5,55,1
628320,523.026493,479,0.393914,40,E2,49,2
628320,523.026493,719,0.591283,48,C3,55,2
628560,523.223861,239,0.196546,71,B4,55,1
628800,523.42123,479,0.393914,69,A4,60,1
628800,523.42123,959,0.788651,41,F2,49,2
629040,523.618598,239,0.196546,50,D3,60,2
629280,523.815967,239,0.196546,65,F4,64,1
629280,523.815967,239,0.196546,52,E3,64,2
629520,524.013335,239,0.196546,62,D4,64,1
629520,524.013335,239,0.196546,53,F3,64,2
629760,524.210704,479,0.393914,67,G4,49,1
629760,524.210704,1919,1.578125,43,G2,49,2
629760,524.210704,959,0.788651,55,G3,49,2
629760,524.210704,959,0.788651,52,E3,49,2
630240,524.605441,239,0.196546,64,E4,49,1
630480,524.802809,239,0.196546,60,C4,49,1
630720,525.000178,479,0.393914,65,F4,49,1
630720,525.000178,959,0.788651,53,F3,49,2
630720,525.000178,959,0.788651,50,D3,49,2
631200,525.394915,239,0.196546,62,D4,49,1
631440,525.592283,239,0.196546,59,B3,49,1
631680,525.789652,479,0.393914,60,C4,49,1
631680,525.789652,479,0.393914,52,E3,49,2
631680,525.789652,479,0.393914,48,C3,49,2
632160,526.184389,239,0.196546,77,F5,55,1
632160,526.184389,479,0.393914,45,A2,55,2
632160,526.184389,719,0.591283,53,F3,55,2
632400,526.381757,239,0.196546,76,E5,55,1
632640,526.579126,479,0.393914,74,D5,60,1
632640,526.579126,959,0.788651,46,A2#,60,2
632880,526.776494,239,0.196546,55,G3,60,2
633120,526.973863,239,0.196546,70,A4#,64,1
633120,526.973863,239,0.196546,57,A3,64,2
633360,527.171231,239,0.196546,67,G4,64,1
633360,527.171231,239,0.196546,58,A3#,64,2
633600,527.3686,479,0.393914,72,C5,49,1
633600,527.3686,1919,1.578125,48,C3,49,2
633600,527.3686,959,0.788651,60,C4,49,2
633600,527.3686,959,0.788651,57,A3,49,2
634080,527.763337,239,0.196546,69,A4,49,1
634320,527.960705,239,0.196546,65,F4,49,1
634560,528.158074,479,0.393914,70,A4#,49,1
634560,528.158074,959,0.788651,58,A3#,49,2
634560,528.158074,959,0.788651,55,G3,49,2
635040,528.552811,239,0.196546,67,G4,49,1
635280,528.750179,239,0.196546,64,E4,49,1
635520,528.947548,239,0.196546,65,F4,49,1
635520,528.947548,479,0.393914,56,G3#,49,2
635520,528.947548,479,0.393914,53,F3,49,2
636000,529.342285,239,0.196546,77,F5,55,1
636000,529.342285,479,0.393914,44,G2#,55,2
636000,529.342285,719,0.591283,53,F3,55,2
636240,529.539653,239,0.196546,75,D5#,55,1
636480,529.737022,479,0.393914,73,C5#,60,1
636480,529.737022,959,0.788651,46,A2#,60,2
636720,529.93439,239,0.196546,55,G3,60,2
636960,530.131759,239,0.196546,70,A4#,64,1
636960,530.131759,239,0.196546,56,G3#,64,2
637200,530.329127,239,0.196546,67,G4,64,1
637200,530.329127,239,0.196546,58,A3#,64,2
637440,530.526496,479,0.393914,72,C5,49,1
637440,530.526496,1919,1.578125,48,C3,49,2
637440,530.526496,959,0.788651,60,C4,49,2
637440,530.526496,959,0.788651,56,G3#,49,2
637920,530.921233,239,0.196546,68,G4#,49,1
638160,531.118601,239,0.196546,65,F4,49,1
638400,531.31597,479,0.393914,70,A4#,49,1
638400,531.31597,959,0.788651,58,A3#,49,2
638400,531.31597,959,0.788651,55,G3,49,2
638880,531.710707,239,0.196546,67,G4,49,1
639120,531.908075,239,0.196546,64,E4,49,1
639360,532.105444,239,0.196546,65,F4,49,1
639360,532.105444,239,0.196546,56,G3#,49,2
639360,532.105444,239,0.196546,53,F3,49,2
639360,532.105444,239,0.196546,49,C3#,49,2
639600,532.302812,239,0.196546,53,F3,33,1
639600,532.302812,239,0.196546,49,C3#,33,1
639600,532.302812,239,0.196546,44,G2#,33,2
639600,532.302812,239,0.196546,37,C2#,33,2
639840,532.500181,239,0.196546,53,F3,33,1
639840,532.500181,239,0.196546,49,C3#,33,1
639840,532.500181,239,0.196546,44,G2#,33,2
639840,532.500181,239,0.196546,37,C2#,33,2
640080,532.697549,239,0.196546,53,F3,33,1
640080,532.697549,239,0.196546,49,C3#,33,1
640080,532.697549,239,0.196546,44,G2#,33,2
640080,532.697549,239,0.196546,37,C2#,33,2
640320,532.894918,239,0.196546,53,F3,33,1
640320,532.894918,239,0.196546,49,C3#,33,1
640320,532.894918,239,0.196546,44,G2#,33,2
640320,532.894918,239,0.196546,37,C2#,33,2
640560,533.092286,239,0.196546,53,F3,33,1
640560,533.092286,239,0.196546,49,C3#,33,1
640560,533.092286,239,0.196546,44,G2#,33,2
640560,533.092286,239,0.196546,37,C2#,33,2
640800,533.289655,239,0.196546,53,F3,33,1
640800,533.289655,239,0.196546,49,C3#,33,1
640800,533.289655,239,0.196546,44,G2#,33,2
640800,533.289655,239,0.196546,37,C2#,33,2
641040,533.487023,239,0.196546,53,F3,33,1
641040,533.487023,239,0.196546,49,C3#,33,1
641040,533.487023,239,0.196546,44,G2#,33,2
641040,533.487023,239,0.196546,37,C2#,33,2
641280,533.684392,239,0.196546,53,F3,33,1
641280,533.684392,239,0.196546,49,C3#,33,1
641280,533.684392,239,0.196546,44,G2#,33,2
641280,533.684392,239,0.196546,37,C2#,33,2
641520,533.88176,239,0.196546,53,F3,33,1
641520,533.88176,239,0.196546,49,C3#,33,1
641520,533.88176,239,0.196546,44,G2#,33,2
641520,533.88176,239,0.196546,37,C2#,33,2
641760,534.079129,239,0.196546,53,F3,33,1
641760,534.079129,239,0.196546,49,C3#,33,1
641760,534.079129,239,0.196546,44,G2#,33,2
641760,534.079129,239,0.196546,37,C2#,33,2
642000,534.276497,239,0.196546,53,F3,33,1
642000,534.276497,239,0.196546,49,C3#,33,1
642000,534.276497,239,0.196546,44,G2#,33,2
642000,534.276497,239,0.196546,37,C2#,33,2
642240,534.473866,239,0.196546,53,F3,33,1
642240,534.473866,239,0.196546,49,C3#,33,1
642240,534.473866,239,0.196546,44,G2#,33,2
642240,534.473866,239,0.196546,37,C2#,33,2
642480,534.671234,239,0.196546,53,F3,33,1
642480,534.671234,239,0.196546,49,C3#,33,1
642480,534.671234,239,0.196546,44,G2#,33,2
642480,534.671234,239,0.196546,37,C2#,33,2
642720,534.868603,239,0.196546,55,G3,33,1
642720,534.868603,239,0.196546,51,D3#,33,1
642720,534.868603,239,0.196546,46,A2#,33,2
642720,534.868603,239,0.196546,37,C2#,33,2
642960,535.065971,239,0.196546,55,G3,33,1
642960,535.065971,239,0.196546,51,D3#,33,1
642960,535.065971,239,0.196546,46,A2#,33,2
642960,535.065971,239,0.196546,37,C2#,33,2
643200,535.26334,719,0.591283,56,G3#,33,1
643200,535.26334,719,0.591283,51,D3#,33,1
643200,535.26334,239,0.196546,44,G2#,33,2
643200,535.26334,239,0.196546,39,D2#,33,2
643200,535.26334,239,0.196546,36,C2,33,2
643440,535.460708,239,0.196546,44,G2#,33,2
643440,535.460708,239,0.196546,39,D2#,33,2
643440,535.460708,239,0.196546,36,C2,33,2
643680,535.658077,239,0.196546,44,G2#,33,2
643680,535.658077,239,0.196546,39,D2#,33,2
643680,535.658077,239,0.196546,36,C2,33,2
643920,535.855445,119,0.097862,60,C4,33,1
643920,535.855445,239,0.196546,44,G2#,33,2
643920,535.855445,239,0.196546,39,D2#,33,2
643920,535.855445,239,0.196546,36,C2,33,2
644040,535.954129,119,0.097862,58,A3#,33,1
644160,536.052814,119,0.097861,56,G3#,33,1
644160,536.052814,239,0.196546,44,G2#,33,2
644160,536.052814,239,0.196546,39,D2#,33,2
644160,536.052814,239,0.196546,36,C2,33,2
644400,536.250182,239,0.196546,44,G2#,33,2
644400,536.250182,239,0.196546,39,D2#,33,2
644400,536.250182,239,0.196546,36,C2,33,2
644640,536.447551,239,0.196546,44,G2#,33,2
644640,536.447551,239,0.196546,39,D2#,33,2
644640,536.447551,239,0.196546,36,C2,33,2
644880,536.644919,239,0.196546,44,G2#,33,2
644880,536.644919,239,0.196546,39,D2#,33,2
644880,536.644919,239,0.196546,36,C2,33,2
645120,536.842288,119,0.097861,86,D6,96,1
645120,536.842288,239,0.196546,45,A2,96,2
645120,536.842288,239,0.196546,41,F2,96,2
645120,536.842288,239,0.196546,39,D2#,96,2
645120,536.842288,239,0.196546,36,C2,96,2
645240,536.940972,599,0.492599,87,D6#,96,1
645360,537.039656,239,0.196546,45,A2,96,2
645360,537.039656,239,0.196546,41,F2,96,2
645360,537.039656,239,0.196546,39,D2#,96,2
645360,537.039656,239,0.196546,36,C2,96,2
645600,537.237025,239,0.196546,45,A2,96,2
645600,537.237025,239,0.196546,41,F2,96,2
645600,537.237025,239,0.196546,39,D2#,96,2
645600,537.237025,239,0.196546,36,C2,96,2
645720,537.335709,119,0.097862,85,C6#,96,1
645840,537.434393,119,0.097862,84,C6,96,1
645840,537.434393,239,0.196546,45,A2,96,2
645840,537.434393,239,0.196546,41,F2,96,2
645840,537.434393,239,0.196546,39,D2#,96,2
645840,537.434393,239,0.196546,36,C2,96,2
645960,537.533077,119,0.097862,82,A5#,96,1
646080,537.631762,239,0.196546,81,A5,96,1
646080,537.631762,239,0.196546,45,A2,96,2
646080,537.631762,239,0.196546,41,F2,96,2
646080,537.631762,239,0.196546,39,D2#,96,2
646080,537.631762,239,0.196546,36,C2,96,2
646320,537.82913,239,0.196546,45,A2,96,2
646320,537.82913,239,0.196546,41,F2,96,2
646320,537.82913,239,0.196546,39,D2#,96,2
646320,537.82913,239,0.196546,36,C2,96,2
646560,538.026499,239,0.196546,45,A2,96,2
646560,538.026499,239,0.196546,41,F2,96,2
646560,538.026499,239,0.196546,39,D2#,96,2
646560,538.026499,239,0.196546,36,C2,96,2
646800,538.223867,239,0.196546,45,A2,96,2
646800,538.223867,239,0.196546,41,F2,96,2
646800,538.223867,239,0.196546,39,D2#,96,2
646800,538.223867,239,0.196546,36,C2,96,2
647040,538.421236,719,0.591283,58,A3#,49,1
647040,538.421236,239,0.196546,46,A2#,49,2
647040,538.421236,239,0.196546,41,F2,49,2
647040,538.421236,239,0.196546,37,C2#,49,2
647280,538.618604,239,0.196546,46,A2#,49,2
647280,538.618604,239,0.196546,41,F2,49,2
647280,538.618604,239,0.196546,37,C2#,49,2
647520,538.815973,239,0.196546,46,A2#,49,2
647520,538.815973,239,0.196546,41,F2,49,2
647520,538.815973,239,0.196546,37,C2#,49,2
647760,539.013341,119,0.097862,61,C4#,49,1
647760,539.013341,239,0.196546,46,A2#,49,2
647760,539.013341,239,0.196546,41,F2,49,2
647760,539.013341,239,0.196546,37,C2#,49,2
647880,539.112025,119,0.097862,60,C4,49,1
648000,539.21071,119,0.097861,58,A3#,49,1
648000,539.21071,239,0.196546,46,A2#,49,2
648000,539.21071,239,0.196546,41,F2,49,2
648000,539.21071,239,0.196546,37,C2#,49,2
648240,539.408078,239,0.196546,46,A2#,49,2
648240,539.408078,239,0.196546,41,F2,49,2
648240,539.408078,239,0.196546,37,C2#,49,2
648480,539.605447,239,0.196546,46,A2#,49,2
648480,539.605447,239,0.196546,41,F2,49,2
648480,539.605447,239,0.196546,37,C2#,49,2
648720,539.802815,239,0.196546,46,A2#,49,2
648720,539.802815,239,0.196546,41,F2,49,2
648720,539.802815,239,0.196546,37,C2#,49,2
648960,540.000184,119,0.097861,88,E6,96,1
648960,540.000184,239,0.196546,47,B2,96,2
648960,540.000184,239,0.196546,41,F2,96,2
648960,540.000184,239,0.196546,38,D2,96,2
649080,540.098868,599,0.492599,89,F6,96,1
649200,540.197552,239,0.196546,47,B2,96,2
649200,540.197552,239,0.196546,41,F2,96,2
649200,540.197552,239,0.196546,38,D2,96,2
649440,540.394921,239,0.196546,47,B2,96,2
649440,540.394921,239,0.196546,41,F2,96,2
649440,540.394921,239,0.196546,38,D2,96,2
649560,540.493605,119,0.097862,87,D6#,96,1
649680,540.592289,119,0.097862,86,D6,96,1
649680,540.592289,239,0.196546,47,B2,96,2
649680,540.592289,239,0.196546,41,F2,96,2
649680,540.592289,239,0.196546,38,D2,96,2
649800,540.690973,119,0.097862,84,C6,96,1
649920,540.789658,239,0.196546,83,B5,96,1
649920,540.789658,239,0.196546,47,B2,96,2
649920,540.789658,239,0.196546,41,F2,96,2
649920,540.789658,239,0.196546,38,D2,96,2
650160,540.987026,239,0.196546,47,B2,96,2
650160,540.987026,239,0.196546,41,F2,96,2
650160,540.987026,239,0.196546,38,D2,96,2
650400,541.184395,239,0.196546,47,B2,96,2
650400,541.184395,239,0.196546,41,F2,96,2
650400,541.184395,239,0.196546,38,D2,96,2
650640,541.381763,239,0.196546,47,B2,96,2
650640,541.381763,239,0.196546,41,F2,96,2
650640,541.381763,239,0.196546,38,D2,96,2
650880,541.579132,239,0.196546,60,C4,96,1
650880,541.579132,239,0.196546,47,B2,96,2
650880,541.579132,239,0.196546,43,G2,96,2
650880,541.579132,239,0.196546,39,D2#,96,2
651120,541.7765,119,0.097862,63,D4#,96,1
651120,541.7765,239,0.196546,47,B2,96,2
651120,541.7765,239,0.196546,43,G2,96,2
651120,541.7765,239,0.196546,39,D2#,96,2
651240,541.875184,119,0.097862,62,D4,96,1
651360,541.973869,119,0.097861,60,C4,105,1
651360,541.973869,239,0.196546,48,C3,105,2
651360,541.973869,239,0.196546,43,G2,105,2
651360,541.973869,239,0.196546,39,D2#,105,2
651600,542.171237,239,0.196546,48,C3,96,2
651600,542.171237,239,0.196546,43,G2,96,2
651600,542.171237,239,0.196546,39,D2#,96,2
651840,542.368606,119,0.097861,80,G5#,96,1
651840,542.368606,239,0.196546,48,C3,96,2
651840,542.368606,239,0.196546,44,G2#,96,2
651840,542.368606,239,0.196546,41,F2,96,2
651960,542.46729,119,0.097862,79,G5,96,1
652080,542.565974,119,0.097862,77,F5,96,1
652080,542.565974,239,0.196546,48,C3,96,2
652080,542.565974,239,0.196546,44,G2#,96,2
652080,542.565974,239,0.196546,41,F2,96,2
652200,542.664658,119,0.097862,75,D5#,96,1
652320,542.763343,239,0.196546,74,D5,105,1
652320,542.763343,239,0.196546,50,D3,105,2
652320,542.763343,239,0.196546,44,G2#,105,2
652320,542.763343,239,0.196546,41,F2,105,2
652560,542.960711,239,0.196546,50,D3,96,2
652560,542.960711,239,0.196546,44,G2#,96,2
652560,542.960711,239,0.196546,41,F2,96,2
652800,543.15808,239,0.196546,64,E4,96,1
652800,543.15808,239,0.196546,50,D3,96,2
652800,543.15808,239,0.196546,46,A2#,96,2
652800,543.15808,239,0.196546,43,G2,96,2
653040,543.355448,119,0.097862,67,G4,96,1
653040,543.355448,239,0.196546,50,D3,96,2
653040,543.355448,239,0.196546,46,A2#,96,2
653040,543.355448,239,0.196546,43,G2,96,2
653160,543.454132,119,0.097862,65,F4,96,1
653280,543.552817,119,0.097861,64,E4,105,1
653280,543.552817,239,0.196546,52,E3,105,2
653280,543.552817,239,0.196546,46,A2#,105,2
653280,543.552817,239,0.196546,43,G2,105,2
653520,543.750185,239,0.196546,52,E3,96,2
653520,543.750185,239,0.196546,46,A2#,96,2
653520,543.750185,239,0.196546,43,G2,96,2
653760,543.947554,119,0.097861,84,C6,96,1
653760,543.947554,239,0.196546,52,E3,96,2
653760,543.947554,239,0.196546,48,C3,96,2
653760,543.947554,239,0.196546,44,G2#,96,2
653880,544.046238,119,0.097862,82,A5#,96,1
654000,544.144922,119,0.097862,80,G5#,96,1
654000,544.144922,239,0.196546,52,E3,96,2
654000,544.144922,239,0.196546,48,C3,96,2
654000,544.144922,239,0.196546,44,G2#,96,2
654120,544.243606,119,0.097862,79,G5,96,1
654240,544.342291,239,0.196546,77,F5,105,1
654240,544.342291,239,0.196546,53,F3,105,2
654240,544.342291,239,0.196546,48,C3,105,2
654240,544.342291,239,0.196546,44,G2#,105,2
654480,544.539659,239,0.196546,53,F3,96,2
654480,544.539659,239,0.196546,48,C3,96,2
654480,544.539659,239,0.196546,44,G2#,96,2
654720,544.737028,119,0.097861,87,D6#,112,1
654720,544.737028,239,0.196546,54,F3#,112,2
654720,544.737028,239,0.196546,48,C3,112,2
654720,544.737028,239,0.196546,45,A2,112,2
654840,544.835712,119,0.097862,86,D6,112,1
654960,544.934396,119,0.097862,84,C6,112,1
654960,544.934396,239,0.196546,54,F3#,112,2
654960,544.934396,239,0.196546,48,C3,112,2
654960,544.934396,239,0.196546,45,A2,112,2
655080,545.03308,119,0.097862,83,B5,112,1
655200,545.131765,239,0.196546,84,C6,112,1
655200,545.131765,239,0.196546,54,F3#,112,2
655200,545.131765,239,0.196546,48,C3,112,2
655200,545.131765,239,0.196546,45,A2,112,2
655440,545.329133,239,0.196546,54,F3#,112,2
655440,545.329133,239,0.196546,48,C3,112,2
655440,545.329133,239,0.196546,45,A2,112,2
655680,545.526502,119,0.097861,75,D5#,112,1
655680,545.526502,239,0.196546,54,F3#,112,2
655680,545.526502,239,0.196546,48,C3,112,2
655680,545.526502,239,0.196546,45,A2,112,2
655800,545.625186,119,0.097862,74,D5,112,1
655920,545.72387,119,0.097862,72,C5,112,1
655920,545.72387,239,0.196546,54,F3#,112,2
655920,545.72387,239,0.196546,48,C3,112,2
655920,545.72387,239,0.196546,45,A2,112,2
656040,545.822554,119,0.097862,71,B4,112,1
656160,545.921239,239,0.196546,72,C5,112,1
656160,545.921239,239,0.196546,54,F3#,112,2
656160,545.921239,239,0.196546,48,C3,112,2
656160,545.921239,239,0.196546,45,A2,112,2
656400,546.118607,239,0.196546,54,F3#,112,2
656400,546.118607,239,0.196546,48,C3,112,2
656400,546.118607,239,0.196546,45,A2,112,2
656640,546.315976,119,0.097861,63,D4#,112,1
656640,546.315976,239,0.196546,54,F3#,112,2
656640,546.315976,239,0.196546,48,C3,112,2
656640,546.315976,239,0.196546,44,G2#,112,2
656760,546.41466,119,0.097862,62,D4,112,1
656880,546.513344,119,0.097862,60,C4,112,1
656880,546.513344,239,0.196546,54,F3#,112,2
656880,546.513344,239,0.196546,48,C3,112,2
656880,546.513344,239,0.196546,44,G2#,112,2
657000,546.612028,119,0.097862,59,B3,112,1
657120,546.710713,239,0.196546,60,C4,112,1
657120,546.710713,239,0.196546,54,F3#,112,2
657120,546.710713,239,0.196546,48,C3,112,2
657120,546.710713,239,0.196546,44,G2#,112,2
657360,546.908081,239,0.196546,54,F3#,112,2
657360,546.908081,239,0.196546,48,C3,112,2
657360,546.908081,239,0.196546,44,G2#,112,2
657600,547.10545,119,0.097861,75,D5#,112,1
657600,547.10545,239,0.196546,51,D3#,112,2
657600,547.10545,239,0.196546,48,C3,112,2
657600,547.10545,239,0.196546,44,G2#,112,2
657720,547.204134,119,0.097862,74,D5,112,1
657840,547.302818,119,0.097862,72,C5,112,1
657840,547.302818,239,0.196546,51,D3#,112,2
657840,547.302818,239,0.196546,48,C3,112,2
657840,547.302818,239,0.196546,44,G2#,112,2
657960,547.401502,119,0.097862,71,B4,112,1
658080,547.500187,119,0.097861,72,C5,112,1
658080,547.500187,239,0.196546,48,C3,112,2
658080,547.500187,239,0.196546,44,G2#,112,2
658200,547.598871,119,0.097862,74,D5,112,1
658320,547.697555,119,0.097862,75,D5#,112,1
658320,547.697555,239,0.196546,48,C3,112,2
658320,547.697555,239,0.196546,44,G2#,112,2
658440,547.796239,119,0.097862,78,F5#,112,1
658560,547.894924,239,0.196546,79,G5,96,1
658560,547.894924,239,0.196546,47,B2,96,2
658560,547.894924,239,0.196546,43,G2,96,2
658800,548.092292,239,0.196546,79,G5,49,1
658800,548.092292,239,0.196546,67,G4,49,1
659040,548.289661,239,0.196546,79,G5,49,1
659040,548.289661,239,0.196546,67,G4,49,1
659280,548.487029,239,0.196546,79,G5,49,1
659280,548.487029,239,0.196546,67,G4,49,1
659520,548.684398,239,0.196546,79,G5,49,1
659520,548.684398,239,0.196546,67,G4,49,1
659760,548.881766,239,0.196546,79,G5,49,1
659760,548.881766,239,0.196546,67,G4,49,1
660000,549.079135,239,0.196546,79,G5,49,1
660000,549.079135,239,0.196546,67,G4,49,1
660240,549.276503,239,0.196546,79,G5,49,1
660240,549.276503,239,0.196546,67,G4,49,1
660480,549.473872,239,0.196546,79,G5,55,1
660480,549.473872,239,0.196546,73,C5#,55,1
660480,549.473872,239,0.196546,70,A4#,55,1
660480,549.473872,239,0.196546,67,G4,55,1
660720,549.67124,239,0.196546,79,G5,61,1
660720,549.67124,239,0.196546,73,C5#,61,1
660720,549.67124,239,0.196546,70,A4#,61,1
660720,549.67124,239,0.196546,67,G4,61,1
660960,549.868609,239,0.196546,79,G5,67,1
660960,549.868609,239,0.196546,73,C5#,67,1
660960,549.868609,239,0.196546,70,A4#,67,1
660960,549.868609,239,0.196546,67,G4,67,1
661200,550.065977,239,0.196546,79,G5,73,1
661200,550.065977,239,0.196546,73,C5#,73,1
661200,550.065977,239,0.196546,70,A4#,73,1
661200,550.065977,239,0.196546,67,G4,73,1
661440,550.263346,239,0.196546,79,G5,79,1
661440,550.263346,239,0.196546,73,C5#,79,1
661440,550.263346,239,0.196546,70,A4#,79,1
661440,550.263346,239,0.196546,67,G4,79,1
661680,550.460714,239,0.196546,79,G5,86,1
661680,550.460714,239,0.196546,73,C5#,86,1
661680,550.460714,239,0.196546,70,A4#,86,1
661680,550.460714,239,0.196546,67,G4,86,1
661920,550.658083,239,0.196546,79,G5,91,1
661920,550.658083,239,0.196546,73,C5#,91,1
661920,550.658083,239,0.196546,70,A4#,91,1
661920,550.658083,239,0.196546,67,G4,91,1
662160,550.855451,239,0.196546,79,G5,96,1
662160,550.855451,239,0.196546,73,C5#,96,1
662160,550.855451,239,0.196546,70,A4#,96,1
662160,550.855451,239,0.196546,67,G4,96,1
662400,551.05282,239,0.196546,79,G5,33,1
662400,551.05282,239,0.196546,74,D5,33,1
662400,551.05282,239,0.196546,71,B4,33,1
662400,551.05282,239,0.196546,67,G4,33,1
662400,551.05282,239,0.196546,50,D3,33,2
662400,551.05282,239,0.196546,47,B2,33,2
662640,551.250188,479,0.393915,91,G6,33,1
662640,551.250188,479,0.393915,79,G5,33,1
662640,551.250188,239,0.196546,50,D3,33,2
662640,551.250188,239,0.196546,47,B2,33,2
662880,551.447557,239,0.196546,50,D3,33,2
662880,551.447557,239,0.196546,47,B2,33,2
663120,551.644925,479,0.393915,89,F6,33,1
663120,551.644925,479,0.393915,77,F5,33,1
663120,551.644925,239,0.196546,50,D3,33,2
663120,551.644925,239,0.196546,47,B2,33,2
663360,551.842294,239,0.196546,50,D3,33,2
663360,551.842294,239,0.196546,47,B2,33,2
663600,552.039662,479,0.393915,88,E6,33,1
663600,552.039662,479,0.393915,76,E5,33,1
663600,552.039662,239,0.196546,50,D3,33,2
663600,552.039662,239,0.196546,47,B2,33,2
663840,552.237031,239,0.196546,50,D3,33,2
663840,552.237031,239,0.196546,47,B2,33,2
664080,552.434399,479,0.393915,86,D6,33,1
664080,552.434399,479,0.393915,74,D5,33,1
664080,552.434399,239,0.196546,50,D3,33,2
664080,552.434399,239,0.196546,47,B2,33,2
664320,552.631768,239,0.196546,50,D3,33,2
664320,552.631768,239,0.196546,47,B2,33,2
664560,552.829136,479,0.393915,84,C6,33,1
664560,552.829136,479,0.393915,72,C5,33,1
664560,552.829136,239,0.196546,50,D3,33,2
664560,552.829136,239,0.196546,47,B2,33,2
664800,553.026505,239,0.196546,50,D3,33,2
664800,553.026505,239,0.196546,47,B2,33,2
665040,553.223873,479,0.393915,83,B5,33,1
665040,553.223873,479,0.393915,71,B4,33,1
665040,553.223873,239,0.196546,50,D3,33,2
665040,553.223873,239,0.196546,47,B2,33,2
665280,553.421242,239,0.196546,50,D3,33,2
665280,553.421242,239,0.196546,47,B2,33,2
665520,553.61861,479,0.393915,81,A5,33,1
665520,553.61861,479,0.393915,69,A4,33,1
665520,553.61861,239,0.196546,50,D3,33,2
665520,553.61861,239,0.196546,47,B2,33,2
665760,553.815979,239,0.196546,52,E3,33,2
665760,553.815979,239,0.196546,49,C3#,33,2
666000,554.013347,239,0.196546,79,G5,33,1
666000,554.013347,239,0.196546,67,G4,33,1
666000,554.013347,239,0.196546,52,E3,33,2
666000,554.013347,239,0.196546,49,C3#,33,2
666240,554.210716,119,0.097861,77,F5,33,1
666240,554.210716,119,0.097861,65,F4,33,1
666240,554.210716,1199,0.98602,50,D3,33,2
666240,554.210716,719,0.591283,53,F3,33,2
666360,554.3094,119,0.097862,62,D4,33,1
666480,554.408084,119,0.097862,64,E4,33,1
666600,554.506768,119,0.097862,65,F4,33,1
666720,554.605453,119,0.097861,67,G4,33,1
666840,554.704137,119,0.097862,69,A4,33,1
666960,554.802821,119,0.097862,71,B4,33,1
666960,554.802821,119,0.097862,57,A3,33,2
667080,554.901505,119,0.097862,73,C5#,33,1
667080,554.901505,119,0.097862,55,G3,33,2
667200,555.00019,119,0.097861,74,D5,33,1
667200,555.00019,119,0.097861,53,F3,33,2
667320,555.098874,119,0.097862,65,F4,33,1
667440,555.197558,119,0.097862,67,G4,33,1
667560,555.296242,119,0.097862,69,A4,33,1
667680,555.394927,119,0.097861,71,B4,33,1
667800,555.493611,119,0.097862,73,C5#,33,1
667920,555.592295,119,0.097862,74,D5,33,1
668040,555.690979,119,0.097862,76,E5,33,1
668160,555.789664,119,0.097861,77,F5,33,1
668160,555.789664,599,0.492598,69,A4,33,2
668280,555.888348,119,0.097862,74,D5,33,1
668400,555.987032,119,0.097862,76,E5,33,1
668520,556.085716,119,0.097862,77,F5,33,1
668640,556.184401,119,0.097861,79,G5,33,1
668760,556.283085,119,0.097862,81,A5,33,1
668760,556.283085,119,0.097862,67,G4,33,2
668880,556.381769,119,0.097862,83,B5,33,1
668880,556.381769,119,0.097862,65,F4,33,2
669000,556.480453,119,0.097862,85,C6#,33,1
669000,556.480453,119,0.097862,64,E4,33,2
669120,556.579138,119,0.097861,86,D6,33,1
669120,556.579138,239,0.196546,62,D4,33,2
669240,556.677822,119,0.097862,85,C6#,33,1
669360,556.776506,119,0.097862,86,D6,33,1
669480,556.87519,119,0.097862,88,E6,33,1
669600,556.973875,119,0.097861,89,F6,33,1
669720,557.072559,119,0.097862,85,C6#,33,1
669840,557.171243,119,0.097862,86,D6,33,1
669960,557.269927,119,0.097862,88,E6,33,1
670080,557.368612,239,0.196546,89,F6,33,1
670080,557.368612,239,0.196546,48,C3,33,2
670080,557.368612,239,0.196546,45,A2,33,2
670320,557.56598,479,0.393915,89,F6,33,1
670320,557.56598,479,0.393915,77,F5,33,1
670320,557.56598,239,0.196546,48,C3,33,2
670320,557.56598,239,0.196546,45,A2,33,2
670560,557.763349,239,0.196546,48,C3,33,2
670560,557.763349,239,0.196546,45,A2,33,2
670800,557.960717,479,0.393915,88,E6,33,1
670800,557.960717,479,0.393915,76,E5,33,1
670800,557.960717,239,0.196546,48,C3,33,2
670800,557.960717,239,0.196546,45,A2,33,2
671040,558.158086,239,0.196546,48,C3,33,2
671040,558.158086,239,0.196546,45,A2,33,2
671280,558.355454,479,0.393915,86,D6,33,1
671280,558.355454,479,0.393915,74,D5,33,1
671280,558.355454,239,0.196546,48,C3,33,2
671280,558.355454,239,0.196546,45,A2,33,2
671520,558.552823,239,0.196546,48,C3,33,2
671520,558.552823,239,0.196546,45,A2,33,2
671760,558.750191,479,0.393915,84,C6,33,1
671760,558.750191,479,0.393915,72,C5,33,1
671760,558.750191,239,0.196546,48,C3,33,2
671760,558.750191,239,0.196546,45,A2,33,2
672000,558.94756,239,0.196546,48,C3,33,2
672000,558.94756,239,0.196546,45,A2,33,2
672240,559.144928,479,0.393915,83,B5,33,1
672240,559.144928,479,0.393915,71,B4,33,1
672240,559.144928,239,0.196546,48,C3,33,2
672240,559.144928,239,0.196546,45,A2,33,2
672480,559.342297,239,0.196546,48,C3,33,2
672480,559.342297,239,0.196546,45,A2,33,2
672720,559.539665,479,0.393915,81,A5,33,1
672720,559.539665,479,0.393915,69,A4,33,1
672720,559.539665,239,0.196546,48,C3,33,2
672720,559.539665,239,0.196546,45,A2,33,2
672960,559.737034,239,0.196546,48,C3,33,2
672960,559.737034,239,0.196546,45,A2,33,2
673200,559.934402,479,0.393915,79,G5,33,1
673200,559.934402,479,0.393915,67,G4,33,1
673200,559.934402,239,0.196546,48,C3,33,2
673200,559.934402,239,0.196546,45,A2,33,2
673440,560.131771,239,0.196546,50,D3,33,2
673440,560.131771,239,0.196546,47,B2,33,2
673680,560.329139,239,0.196546,77,F5,33,1
673680,560.329139,239,0.196546,65,F4,33,1
673680,560.329139,239,0.196546,50,D3,33,2
673680,560.329139,239,0.196546,47,B2,33,2
673920,560.526508,119,0.097861,76,E5,33,1
673920,560.526508,119,0.097861,64,E4,33,1
673920,560.526508,1199,0.98602,48,C3,33,2
673920,560.526508,719,0.591283,52,E3,33,2
674040,560.625192,119,0.097862,64,E4,33,1
674160,560.723876,119,0.097862,65,F4,33,1
674280,560.82256,119,0.097862,67,G4,33,1
674400,560.921245,119,0.097861,69,A4,33,1
674520,561.019929,119,0.097862,71,B4,33,1
674640,561.118613,119,0.097862,72,C5,33,1
674640,561.118613,119,0.097862,55,G3,33,2
674760,561.217297,119,0.097862,74,D5,33,1
674760,561.217297,119,0.097862,53,F3,33,2
674880,561.315982,119,0.097861,76,E5,33,1
674880,561.315982,119,0.097861,52,E3,33,2
675000,561.414666,119,0.097862,69,A4,33,1
675120,561.51335,119,0.097862,71,B4,33,1
675240,561.612034,119,0.097862,72,C5,33,1
675360,561.710719,119,0.097861,74,D5,33,1
675480,561.809403,119,0.097862,76,E5,33,1
675600,561.908087,119,0.097862,78,F5#,33,1
675720,562.006771,119,0.097862,80,G5#,33,1
675840,562.105456,119,0.097861,81,A5,33,1
675840,562.105456,119,0.097861,48,C3,33,2
675960,562.20414,119,0.097862,76,E5,33,1
675960,562.20414,599,0.492599,64,E4,33,2
676080,562.302824,119,0.097862,78,F5#,33,1
676200,562.401508,119,0.097862,80,G5#,33,1
676320,562.500193,119,0.097861,81,A5,33,1
676440,562.598877,119,0.097862,83,B5,33,1
676440,562.598877,119,0.097862,62,D4,33,2
676560,562.697561,119,0.097862,84,C6,33,1
676560,562.697561,119,0.097862,60,C4,33,2
676680,562.796245,119,0.097862,86,D6,33,1
676680,562.796245,119,0.097862,59,B3,33,2
676800,562.89493,119,0.097861,88,E6,33,1
676800,562.89493,119,0.097861,57,A3,33,2
676920,562.993614,119,0.097862,86,D6,33,1
677040,563.092298,119,0.097862,84,C6,33,1
677160,563.190982,119,0.097862,83,B5,33,1
677280,563.289667,119,0.097861,81,A5,33,1
677400,563.388351,119,0.097862,83,B5,33,1
677520,563.487035,119,0.097862,84,C6,33,1
677640,563.585719,119,0.097862,81,A5,33,1
677760,563.684404,1199,0.98602,50,D3,42,2
677760,563.684404,719,0.591283,53,F3,42,2
677880,563.783088,119,0.097862,65,F4,42,1
678000,563.881772,119,0.097862,67,G4,42,1
678120,563.980456,119,0.097862,69,A4,42,1
678240,564.079141,119,0.097861,71,B4,42,1
678360,564.177825,119,0.097862,72,C5,42,1
678480,564.276509,119,0.097862,74,D5,42,1
678480,564.276509,119,0.097862,57,A3,42,2
678600,564.375193,119,0.097862,76,E5,42,1
678600,564.375193,119,0.097862,55,G3,42,2
678720,564.473878,119,0.097861,77,F5,51,1
678720,564.473878,119,0.097861,53,F3,51,2
678840,564.572562,119,0.097862,71,B4,51,1
678960,564.671246,119,0.097862,72,C5,51,1
679080,564.76993,119,0.097862,74,D5,51,1
679200,564.868615,119,0.097861,76,E5,51,1
679320,564.967299,119,0.097862,77,F5,51,1
679440,565.065983,119,0.097862,79,G5,51,1
679560,565.164667,119,0.097862,81,A5,51,1
679680,565.263352,119,0.097861,83,B5,60,1
679680,565.263352,119,0.097861,50,D3,60,2
679800,565.362036,119,0.097862,77,F5,60,1
679800,565.362036,599,0.492599,65,F4,60,2
679920,565.46072,119,0.097862,79,G5,60,1
680040,565.559404,119,0.097862,81,A5,60,1
680160,565.658089,119,0.097861,83,B5,60,1
680280,565.756773,119,0.097862,84,C6,60,1
680280,565.756773,119,0.097862,64,E4,60,2
680400,565.855457,119,0.097862,86,D6,60,1
680400,565.855457,119,0.097862,62,D4,60,2
680520,565.954141,119,0.097862,88,E6,60,1
680520,565.954141,119,0.097862,60,C4,60,2
680640,566.052826,119,0.097861,89,F6,69,1
680640,566.052826,239,0.196546,59,B3,69,2
680760,566.15151,119,0.097862,88,E6,69,1
680880,566.250194,119,0.097862,86,D6,69,1
681000,566.348878,119,0.097862,84,C6,69,1
681120,566.447563,119,0.097861,83,B5,69,1
681240,566.546247,119,0.097862,84,C6,69,1
681360,566.644931,119,0.097862,86,D6,69,1
681480,566.743615,119,0.097862,83,B5,69,1
681600,566.8423,119,0.097861,52,E3,78,2
681720,566.940984,119,0.097862,79,G5,78,1
681720,566.940984,599,0.492599,67,G4,78,2
681840,567.039668,119,0.097862,81,A5,78,1
681960,567.138352,119,0.097862,83,B5,78,1
682080,567.237037,119,0.097861,84,C6,78,1
682200,567.335721,119,0.097862,86,D6,78,1
682200,567.335721,119,0.097862,65,F4,78,2
682320,567.434405,119,0.097862,88,E6,78,1
682320,567.434405,119,0.097862,64,E4,78,2
682440,567.533089,119,0.097862,89,F6,78,1
682440,567.533089,119,0.097862,62,D4,78,2
682560,567.631774,119,0.097861,91,G6,87,1
682560,567.631774,239,0.196546,61,C4#,87,2
682680,567.730458,119,0.097862,89,F6,87,1
682800,567.829142,119,0.097862,88,E6,87,1
682920,567.927826,119,0.097862,86,D6,87,1
683040,568.026511,119,0.097861,85,C6#,96,1
683160,568.125195,119,0.097862,86,D6,96,1
683280,568.223879,119,0.097862,88,E6,96,1
683400,568.322563,119,0.097862,85,C6#,96,1
683520,568.421248,119,0.097861,53,F3,96,2
683640,568.519932,119,0.097862,73,C5#,96,1
683640,568.519932,479,0.393914,69,A4,105,2
683760,568.618616,119,0.097862,74,D5,96,1
683880,568.7173,119,0.097862,76,E5,96,1
684000,568.815985,119,0.097861,77,F5,96,1
684000,568.815985,119,0.097861,67,G4,96,2
684120,568.914669,119,0.097862,79,G5,96,1
684120,568.914669,119,0.097862,65,F4,96,2
684240,569.013353,119,0.097862,81,A5,96,1
684240,569.013353,119,0.097862,64,E4,96,2
684360,569.112037,239,0.196546,77,F5,96,1
684360,569.112037,119,0.097862,62,D4,96,2
684480,569.210722,119,0.097861,55,G3,96,2
684600,569.309406,119,0.097862,75,D5#,96,1
684600,569.309406,479,0.393914,71,B4,105,2
684720,569.40809,119,0.097862,76,E5,96,1
684840,569.506774,119,0.097862,77,F5,96,1
684960,569.605459,119,0.097861,79,G5,96,1
684960,569.605459,119,0.097861,69,A4,96,2
685080,569.704143,119,0.097862,81,A5,96,1
685080,569.704143,119,0.097862,67,G4,96,2
685200,569.802827,119,0.097862,83,B5,96,1
685200,569.802827,119,0.097862,65,F4,96,2
685320,569.901511,239,0.196546,79,G5,96,1
685320,569.901511,119,0.097862,64,E4,96,2
685440,570.000196,119,0.097861,57,A3,96,2
685560,570.09888,119,0.097862,76,E5,96,1
685560,570.09888,479,0.393914,72,C5,105,2
685680,570.197564,119,0.097862,77,F5,96,1
685800,570.296248,119,0.097862,79,G5,96,1
685920,570.394933,119,0.097861,81,A5,96,1
685920,570.394933,119,0.097861,71,B4,96,2
686040,570.493617,119,0.097862,83,B5,96,1
686040,570.493617,119,0.097862,69,A4,96,2
686160,570.592301,119,0.097862,84,C6,96,1
686160,570.592301,119,0.097862,67,G4,96,2
686280,570.690985,239,0.196546,81,A5,96,1
686280,570.690985,119,0.097862,65,F4,96,2
686400,570.78967,119,0.097861,59,B3,96,2
686520,570.888354,119,0.097862,78,F5#,96,1
686520,570.888354,479,0.393914,74,D5,105,2
686640,570.987038,119,0.097862,79,G5,96,1
686760,571.085722,119,0.097862,81,A5,96,1
686880,571.184407,119,0.097861,83,B5,96,1
686880,571.184407,119,0.097861,72,C5,96,2
687000,571.283091,119,0.097862,84,C6,96,1
687000,571.283091,119,0.097862,71,B4,96,2
687120,571.381775,119,0.097862,86,D6,96,1
687120,571.381775,119,0.097862,69,A4,96,2
687240,571.480459,239,0.196546,83,B5,96,1
687240,571.480459,119,0.097862,67,G4,96,2
687360,571.579144,119,0.097861,60,C4,96,2
687480,571.677828,119,0.097862,80,G5#,96,1
687480,571.677828,479,0.393914,76,E5,105,2
687600,571.776512,119,0.097862,81,A5,96,1
687720,571.875196,119,0.097862,83,B5,96,1
687840,571.973881,119,0.097861,84,C6,96,1
687840,571.973881,119,0.097861,74,D5,96,2
687960,572.072565,119,0.097862,86,D6,96,1
687960,572.072565,119,0.097862,72,C5,96,2
688080,572.171249,119,0.097862,88,E6,96,1
688080,572.171249,119,0.097862,71,B4,96,2
688200,572.269933,239,0.196546,84,C6,96,1
688200,572.269933,119,0.097862,69,A4,96,2
688320,572.368618,119,0.097861,62,D4,96,2
688440,572.467302,119,0.097862,82,A5#,96,1
688440,572.467302,479,0.393914,77,F5,105,2
688560,572.565986,119,0.097862,83,B5,96,1
688680,572.66467,119,0.097862,84,C6,96,1
688800,572.763355,119,0.097861,86,D6,96,1
688800,572.763355,119,0.097861,76,E5,96,2
688920,572.862039,119,0.097862,88,E6,96,1
688920,572.862039,119,0.097862,74,D5,96,2
689040,572.960723,119,0.097862,89,F6,96,1
689040,572.960723,119,0.097862,72,C5,96,2
689160,573.059407,119,0.097862,86,D6,96,1
689160,573.059407,119,0.097862,71,B4,96,2
689280,573.158092,79,0.064967,64,E4,112,2
689360,573.223881,79,0.064967,72,C5,112,2
689440,573.289671,79,0.064967,76,E5,112,2
689520,573.35546,79,0.064967,79,G5,112,1
689600,573.42125,79,0.064967,84,C6,112,1
689680,573.487039,79,0.064967,91,G6,112,1
689760,573.552829,79,0.064967,64,E4,112,2
689840,573.618618,79,0.064967,72,C5,112,2
689920,573.684408,79,0.064967,76,E5,112,2
690000,573.750197,79,0.064967,79,G5,112,1
690080,573.815987,79,0.064967,84,C6,112,1
690160,573.881776,79,0.064967,91,G6,112,1
690240,573.947566,79,0.064967,64,E4,112,2
690320,574.013355,79,0.064967,72,C5,112,2
690400,574.079145,79,0.064967,76,E5,112,2
690480,574.144934,79,0.064967,80,G5#,112,1
690560,574.210724,79,0.064967,84,C6,112,1
690640,574.276513,79,0.064967,92,G6#,112,1
690720,574.342303,79,0.064967,64,E4,112,2
690800,574.408092,79,0.064967,72,C5,112,2
690880,574.473882,79,0.064967,76,E5,112,2
690960,574.539671,79,0.064967,80,G5#,112,1
691040,574.605461,79,0.064967,84,C6,112,1
691120,574.67125,79,0.064967,92,G6#,112,1
691200,574.73704,119,0.097861,81,A5,96,1
691200,574.73704,479,0.393914,77,F5,96,2
691200,574.73704,479,0.393914,72,C5,96,2
691200,574.73704,479,0.393914,65,F4,96,2
691320,574.835724,119,0.097862,93,A6,96,1
691440,574.934408,119,0.097862,91,G6,96,1
691560,575.033092,119,0.097862,89,F6,96,1
691680,575.131777,119,0.097861,88,E6,96,1
691800,575.230461,119,0.097862,86,D6,96,1
691920,575.329145,119,0.097862,84,C6,96,1
692040,575.427829,119,0.097862,83,B5,96,1
692160,575.526514,119,0.097861,81,A5,96,1
692280,575.625198,119,0.097862,79,G5,96,1
692400,575.723882,119,0.097862,77,F5,96,1
692520,575.822566,119,0.097862,76,E5,96,1
692640,575.921251,119,0.097861,74,D5,96,1
692760,576.019935,119,0.097862,72,C5,96,1
692880,576.118619,119,0.097862,71,B4,96,1
693000,576.217303,119,0.097862,69,A4,96,1
693120,576.315988,119,0.097861,68,G4#,96,1
693240,576.414672,119,0.097862,69,A4,96,1
693360,576.513356,119,0.097862,67,G4,96,1
693480,576.61204,119,0.097862,65,F4,96,1
693600,576.710725,119,0.097861,64,E4,96,1
693600,576.710725,599,0.492598,29,F1,105,2
693720,576.809409,119,0.097862,62,D4,96,1
693840,576.908093,119,0.097862,60,C4,96,1
693960,577.006777,119,0.097862,59,B3,96,1
694080,577.105462,119,0.097861,57,A3,96,1
694200,577.204146,119,0.097862,55,G3,96,1
694200,577.204146,119,0.097862,31,G1,96,2
694320,577.30283,119,0.097862,53,F3,96,1
694320,577.30283,119,0.097862,33,A1,96,2
694440,577.401514,119,0.097862,52,E3,96,1
694440,577.401514,119,0.097862,35,B1,96,2
694560,577.500199,119,0.097861,50,D3,96,1
694560,577.500199,119,0.097861,36,C2,96,2
694680,577.598883,119,0.097862,48,C3,96,1
694680,577.598883,119,0.097862,38,D2,96,2
694800,577.697567,119,0.097862,47,B2,96,1
694800,577.697567,119,0.097862,40,E2,96,2
694920,577.796251,119,0.097862,45,A2,96,1
694920,577.796251,119,0.097862,41,F2,96,2
695040,577.894936,119,0.097861,43,G2,96,1
695040,577.894936,479,0.393914,40,E2,96,2
695040,577.894936,479,0.393914,36,C2,96,2
695040,577.894936,479,0.393914,31,G1,96,2
695160,577.99362,119,0.097862,48,C3,49,1
695280,578.092304,119,0.097862,47,B2,49,1
695400,578.190988,119,0.097862,50,D3,49,1
695520,578.289673,119,0.097861,48,C3,49,1
695640,578.388357,119,0.097862,52,E3,49,1
695760,578.487041,119,0.097862,51,D3#,49,1
695880,578.585725,119,0.097862,53,F3,49,1
696000,578.68441,119,0.097861,52,E3,49,1
696120,578.783094,119,0.097862,55,G3,49,1
696240,578.881778,119,0.097862,54,F3#,49,1
696360,578.980462,119,0.097862,57,A3,49,1
696480,579.079147,119,0.097861,55,G3,49,1
696600,579.177831,119,0.097862,60,C4,49,1
696720,579.276515,119,0.097862,59,B3,49,1
696840,579.375199,119,0.097862,62,D4,49,1
696960,579.473884,119,0.097861,60,C4,49,1
697080,579.572568,119,0.097862,64,E4,49,1
697200,579.671252,119,0.097862,63,D4#,49,1
697320,579.769936,119,0.097862,65,F4,49,1
697440,579.868621,119,0.097861,64,E4,49,1
697560,579.967305,119,0.097862,67,G4,49,1
697680,580.065989,119,0.097862,66,F4#,49,1
697800,580.164673,119,0.097862,69,A4,49,1
697920,580.263358,119,0.097861,67,G4,49,1
698040,580.362042,119,0.097862,72,C5,49,1
698160,580.460726,119,0.097862,71,B4,49,1
698280,580.55941,119,0.097862,74,D5,49,1
698400,580.658095,119,0.097861,72,C5,49,1
698520,580.756779,119,0.097862,76,E5,49,1
698640,580.855463,119,0.097862,75,D5#,49,1
698760,580.954147,119,0.097862,77,F5,49,1
698880,581.052832,119,0.097861,76,E5,49,1
699000,581.151516,119,0.097862,79,G5,49,1
699120,581.2502,119,0.097862,78,F5#,49,1
699240,581.348884,119,0.097862,81,A5,49,1
699360,581.447569,59,0.048519,79,G5,49,1
699480,581.546253,119,0.097862,84,C6,49,1
699480,581.546253,119,0.097862,76,E5,49,2
699600,581.644937,119,0.097862,83,B5,49,1
699600,581.644937,119,0.097862,75,D5#,49,2
699720,581.743621,119,0.097862,84,C6,49,1
699720,581.743621,119,0.097862,76,E5,49,2
699840,581.842306,59,0.048519,79,G5,49,1
699840,581.842306,59,0.048519,67,G4,49,2
699960,581.94099,119,0.097862,88,E6,49,1
699960,581.94099,119,0.097862,72,C5,49,2
700080,582.039674,119,0.097862,87,D6#,49,1
700080,582.039674,119,0.097862,71,B4,49,2
700200,582.138358,119,0.097862,88,E6,49,1
700200,582.138358,119,0.097862,72,C5,49,2
700320,582.237043,59,0.048519,79,G5,49,1
700320,582.237043,59,0.048519,67,G4,49,2
700440,582.335727,119,0.097862,84,C6,49,1
700440,582.335727,119,0.097862,76,E5,49,2
700560,582.434411,119,0.097862,83,B5,49,1
700560,582.434411,119,0.097862,75,D5#,49,2
700680,582.533095,119,0.097862,84,C6,49,1
700680,582.533095,119,0.097862,76,E5,49,2
700800,582.63178,59,0.048519,79,G5,49,1
700800,582.63178,59,0.048519,67,G4,49,2
700920,582.730464,119,0.097862,88,E6,49,1
700920,582.730464,119,0.097862,72,C5,49,2
701040,582.829148,119,0.097862,87,D6#,49,1
701040,582.829148,119,0.097862,71,B4,49,2
701160,582.927832,119,0.097862,88,E6,49,1
701160,582.927832,119,0.097862,72,C5,49,2
701280,583.026517,59,0.048519,79,G5,49,1
701280,583.026517,59,0.048519,67,G4,49,2
701400,583.125201,119,0.097862,84,C6,49,1
701400,583.125201,119,0.097862,76,E5,49,2
701520,583.223885,119,0.097862,83,B5,49,1
701520,583.223885,119,0.097862,75,D5#,49,2
701640,583.322569,119,0.097862,84,C6,49,1
701640,583.322569,119,0.097862,76,E5,49,2
701760,583.421254,59,0.048519,79,G5,49,1
701760,583.421254,59,0.048519,67,G4,49,2
701880,583.519938,119,0.097862,88,E6,49,1
701880,583.519938,119,0.097862,72,C5,49,2
702000,583.618622,119,0.097862,87,D6#,49,1
702000,583.618622,119,0.097862,71,B4,49,2
702120,583.717306,119,0.097862,88,E6,49,1
702120,583.717306,119,0.097862,72,C5,49,2
702240,583.815991,59,0.048519,79,G5,49,1
702240,583.815991,59,0.048519,67,G4,49,2
702360,583.914675,119,0.097862,84,C6,49,1
702360,583.914675,119,0.097862,76,E5,49,2
702480,584.013359,119,0.097862,83,B5,49,1
702480,584.013359,119,0.097862,75,D5#,49,2
702600,584.112043,119,0.097862,84,C6,49,1
702600,584.112043,119,0.097862,76,E5,49,2
702720,584.210728,1479,2.43256,89,F6,64,1
702720,584.210728,1639,2.695717,83,B5,64,1
702720,584.210728,1919,3.156243,77,F5,64,2
702720,584.210728,1919,3.156243,74,D5,64,2
702720,584.210728,1919,3.156243,67,G4,64,2
704160,586.579144,39,0.064144,89,F6,49,1
704200,586.644933,39,0.064144,88,E6,49,1
704240,586.710722,39,0.064145,86,D6,49,1
704280,586.776512,39,0.064144,84,C6,49,1
704320,586.842301,39,0.064144,83,B5,49,1
704360,586.90809,39,0.064145,81,A5,49,1
704400,586.97388,39,0.064144,79,G5,49,1
704440,587.039669,39,0.064144,77,F5,49,1
704480,587.105458,39,0.064145,76,E5,49,1
704520,587.171248,39,0.064144,74,D5,49,1
704560,587.237037,39,0.064144,72,C5,49,1
704600,587.302826,39,0.064145,71,B4,49,1
704640,587.368616,1499,2.465455,77,F5,64,1
704640,587.368616,1739,2.860191,71,B4,64,1
704640,587.368616,1919,3.156243,65,F4,64,2
704640,587.368616,1919,3.156243,62,D4,64,2
704640,587.368616,1919,3.156243,55,G3,64,2
706080,589.737032,59,0.097039,77,F5,49,1
706140,589.835716,59,0.097039,76,E5,49,1
706200,589.9344,59,0.097039,74,D5,49,1
706260,590.033084,59,0.097039,72,C5,49,1
706320,590.131768,59,0.097039,71,B4,49,1
706380,590.230452,59,0.097039,69,A4,49,1
706440,590.329136,59,0.097039,67,G4,49,1
706500,590.42782,59,0.097039,65,F4,49,1
706560,590.526504,959,0.788651,64,E4,49,1
706560,590.526504,959,0.788651,60,C4,49,1
706560,590.526504,959,0.788651,55,G3,49,1
706560,590.526504,959,0.788651,48,C3,49,2
706560,590.526504,959,0.788651,36,C2,49,2
707520,591.315978,479,0.393914,62,D4,49,1
707520,591.315978,479,0.393914,59,B3,49,1
707520,591.315978,479,0.393914,53,F3,49,1
707520,591.315978,479,0.393914,44,G2#,49,2
707520,591.315978,479,0.393914,32,G1#,49,2
708000,591.710715,479,0.393914,60,C4,49,1
708000,591.710715,479,0.393914,57,A3,49,1
708000,591.710715,479,0.393914,52,E3,49,1
708000,591.710715,479,0.393914,45,A2,49,2
708000,591.710715,479,0.393914,33,A1,49,2
708480,592.105452,959,0.788651,59,B3,49,1
708480,592.105452,959,0.788651,56,G3#,49,1
708480,592.105452,959,0.788651,50,D3,49,2
708480,592.105452,959,0.788651,40,E2,49,2
709440,592.894926,959,0.788651,57,A3,49,1
709440,592.894926,959,0.788651,48,C3,49,2
709440,592.894926,959,0.788651,41,F2,49,2
710400,593.6844,959,0.788651,67,G4,54,1
710400,593.6844,959,0.788651,65,F4,54,1
710400,593.6844,959,0.788651,71,B4,54,1
710400,593.6844,959,0.788651,59,B3,54,2
710400,593.6844,959,0.788651,55,G3,54,2
710400,593.6844,959,0.788651,53,F3,54,2
710400,593.6844,959,0.788651,50,D3,54,2
711360,594.473874,479,0.393914,67,G4,59,1
711360,594.473874,479,0.393914,72,C5,59,1
711360,594.473874,479,0.393914,60,C4,59,2
711360,594.473874,479,0.393914,55,G3,59,2
711360,594.473874,479,0.393914,52,E3,59,2
711840,594.868611,479,0.393914,72,C5,60,1
711840,594.868611,479,0.393914,69,A4,60,1
711840,594.868611,479,0.393914,74,D5,60,1
711840,594.868611,479,0.393914,62,D4,60,2
711840,594.868611,479,0.393914,60,C4,60,2
711840,594.868611,479,0.393914,57,A3,60,2
711840,594.868611,479,0.393914,53,F3,60,2
712320,595.263348,959,0.788651,72,C5,64,1
712320,595.263348,959,0.788651,67,G4,64,1
712320,595.263348,959,0.788651,76,E5,64,1
712320,595.263348,1919,1.578125,55,G3,64,2
712320,595.263348,959,0.788651,64,E4,64,2
712320,595.263348,959,0.788651,60,C4,64,2
713280,596.052822,959,0.788651,71,B4,59,1
713280,596.052822,959,0.788651,67,G4,59,1
713280,596.052822,479,0.393914,74,D5,59,1
713280,596.052822,959,0.788651,62,D4,59,2
713280,596.052822,959,0.788651,59,B3,59,2
713760,596.447559,239,0.196546,79,G5,54,1
714000,596.644927,239,0.196546,77,F5,49,1
714240,596.842296,959,0.788651,76,E5,49,2
714240,596.842296,959,0.788651,72,C5,49,2
714720,597.237033,479,0.393914,88,E6,49,1
714720,597.237033,479,0.393914,84,C6,49,1
715200,597.63177,479,0.393914,86,D6,49,1
715200,597.63177,479,0.393914,83,B5,49,1
715200,597.63177,479,0.393914,77,F5,49,1
715200,597.63177,479,0.393914,74,D5,49,2
715200,597.63177,479,0.393914,71,B4,49,2
715200,597.63177,479,0.393914,68,G4#,49,2
715680,598.026507,479,0.393914,84,C6,49,1
715680,598.026507,479,0.393914,81,A5,49,1
715680,598.026507,479,0.393914,76,E5,49,1
715680,598.026507,479,0.393914,72,C5,49,2
715680,598.026507,479,0.393914,69,A4,49,2
716160,598.421244,959,0.788651,80,G5#,49,1
716160,598.421244,959,0.788651,74,D5,49,1
716160,598.421244,959,0.788651,83,B5,49,1
716160,598.421244,959,0.788651,71,B4,49,2
716160,598.421244,959,0.788651,68,G4#,49,2
716160,598.421244,959,0.788651,64,E4,49,2
717120,599.210718,959,0.788651,72,C5,49,1
717120,599.210718,959,0.788651,81,A5,49,1
717120,599.210718,959,0.788651,69,A4,49,2
717120,599.210718,959,0.788651,65,F4,49,2
718080,600.000192,479,0.393914,76,E5,54,1
718080,600.000192,479,0.393914,72,C5,54,1
718080,600.000192,959,0.788651,79,G5,54,1
718080,600.000192,1919,1.972038,55,G3,54,2
718080,600.000192,479,0.393914,64,E4,54,2
718080,600.000192,479,0.393914,60,C4,54,2
718560,600.394929,1439,1.577301,77,F5,59,1
718560,600.394929,1439,1.577301,74,D5,59,1
718560,600.394929,1439,1.577301,65,F4,59,2
718560,600.394929,1439,1.577301,62,D4,59,2
719040,600.789666,479,0.393914,81,A5,64,1
719520,601.184403,479,0.787827,83,B5,49,1
720000,601.973875,479,0.393914,64,E4,54,1
720000,601.973875,479,0.393914,60,C4,54,1
720000,601.973875,1919,1.578125,67,G4,54,1
720000,601.973875,3839,3.945721,43,G2,54,2
720000,601.973875,479,0.393914,52,E3,54,2
720000,601.973875,479,0.393914,48,C3,54,2
720480,602.368612,3359,3.550984,65,F4,59,1
720480,602.368612,3359,3.550984,62,D4,59,1
720480,602.368612,3359,3.550984,53,F3,59,2
720480,602.368612,3359,3.550984,50,D3,59,2
721920,603.552823,959,0.788651,68,G4#,64,1
722880,604.342297,959,1.577299,71,B4,49,1
723840,605.921241,479,0.421654,52,E3,54,1
723840,605.921241,479,0.421654,48,C3,54,1
723840,605.921241,1919,1.785223,55,G3,54,1
723840,605.921241,3839,4.734934,31,G1,54,2
723840,605.921241,479,0.421654,40,E2,54,2
723840,605.921241,479,0.421654,36,C2,54,2
724320,606.343776,3359,4.312399,53,F3,59,1
724320,606.343776,3359,4.312399,50,D3,59,1
724320,606.343776,3359,4.312399,41,F2,59,2
724320,606.343776,3359,4.312399,38,D2,59,2
725760,607.707411,959,0.982583,57,A3,64,1
726720,608.691019,959,1.965156,59,B3,49,1
727680,610.658225,239,0.196546,60,C4,33,1
727680,610.658225,239,0.196546,52,E3,33,1
727680,610.658225,239,0.196546,48,C3,33,2
727680,610.658225,239,0.196546,36,C2,33,2
727920,610.855593,239,0.196546,64,E4,33,1
727920,610.855593,239,0.196546,60,C4,33,1
727920,610.855593,239,0.196546,55,G3,33,2
727920,610.855593,239,0.196546,48,C3,33,2
728160,611.052962,239,0.196546,64,E4,33,1
728160,611.052962,239,0.196546,60,C4,33,1
728160,611.052962,239,0.196546,55,G3,33,2
728160,611.052962,239,0.196546,48,C3,33,2
728400,611.25033,239,0.196546,64,E4,33,1
728400,611.25033,239,0.196546,60,C4,33,1
728400,611.25033,239,0.196546,55,G3,33,2
728400,611.25033,239,0.196546,48,C3,33,2
728640,611.447699,239,0.196546,64,E4,33,1
728640,611.447699,239,0.196546,60,C4,33,1
728640,611.447699,239,0.196546,55,G3,33,2
728640,611.447699,239,0.196546,48,C3,33,2
728880,611.645067,239,0.196546,64,E4,33,1
728880,611.645067,239,0.196546,60,C4,33,1
728880,611.645067,239,0.196546,55,G3,33,2
728880,611.645067,239,0.196546,48,C3,33,2
729120,611.842436,239,0.196546,64,E4,33,1
729120,611.842436,239,0.196546,60,C4,33,1
729120,611.842436,239,0.196546,55,G3,33,2
729120,611.842436,239,0.196546,48,C3,33,2
729360,612.039804,239,0.196546,64,E4,33,1
729360,612.039804,239,0.196546,60,C4,33,1
729360,612.039804,239,0.196546,55,G3,33,2
729360,612.039804,239,0.196546,48,C3,33,2
729600,612.237173,239,0.196546,64,E4,33,1
729600,612.237173,239,0.196546,60,C4,33,1
729600,612.237173,239,0.196546,55,G3,33,2
729600,612.237173,239,0.196546,48,C3,33,2
729840,612.434541,239,0.196546,64,E4,33,1
729840,612.434541,239,0.196546,60,C4,33,1
729840,612.434541,239,0.196546,55,G3,33,2
729840,612.434541,239,0.196546,48,C3,33,2
730080,612.63191,239,0.196546,64,E4,33,1
730080,612.63191,239,0.196546,60,C4,33,1
730080,612.63191,239,0.196546,55,G3,33,2
730080,612.63191,239,0.196546,48,C3,33,2
730320,612.829278,239,0.196546,64,E4,33,1
730320,612.829278,239,0.196546,60,C4,33,1
730320,612.829278,239,0.196546,55,G3,33,2
730320,612.829278,239,0.196546,48,C3,33,2
730560,613.026647,239,0.196546,64,E4,33,1
730560,613.026647,239,0.196546,60,C4,33,1
730560,613.026647,239,0.196546,55,G3,33,2
730560,613.026647,239,0.196546,48,C3,33,2
730800,613.224015,239,0.196546,64,E4,33,1
730800,613.224015,239,0.196546,60,C4,33,1
730800,613.224015,239,0.196546,55,G3,33,2
730800,613.224015,239,0.196546,48,C3,33,2
731040,613.421384,239,0.196546,66,F4#,33,1
731040,613.421384,239,0.196546,62,D4,33,1
731040,613.421384,239,0.196546,57,A3,33,2
731040,613.421384,239,0.196546,48,C3,33,2
731280,613.618752,239,0.196546,66,F4#,33,1
731280,613.618752,239,0.196546,62,D4,33,1
731280,613.618752,239,0.196546,57,A3,33,2
731280,613.618752,239,0.196546,48,C3,33,2
731520,613.816121,239,0.196546,67,G4,48,1
731520,613.816121,239,0.196546,55,G3,48,2
731520,613.816121,239,0.196546,50,D3,48,2
731520,613.816121,239,0.196546,47,B2,48,2
731760,614.013489,119,0.097862,71,B4,48,1
731760,614.013489,239,0.196546,55,G3,48,2
731760,614.013489,239,0.196546,50,D3,48,2
731760,614.013489,239,0.196546,47,B2,48,2
731880,614.112173,119,0.097862,69,A4,48,1
732000,614.210858,119,0.097861,67,G4,48,1
732000,614.210858,239,0.196546,55,G3,48,2
732000,614.210858,239,0.196546,50,D3,48,2
732000,614.210858,239,0.196546,47,B2,48,2
732240,614.408226,239,0.196546,55,G3,48,2
732240,614.408226,239,0.196546,50,D3,48,2
732240,614.408226,239,0.196546,47,B2,48,2
732480,614.605595,239,0.196546,72,C5,63,1
732480,614.605595,239,0.196546,55,G3,63,2
732480,614.605595,239,0.196546,48,C3,63,2
732480,614.605595,239,0.196546,46,A2#,63,2
732720,614.802963,119,0.097862,76,E5,63,1
732720,614.802963,239,0.196546,55,G3,63,2
732720,614.802963,239,0.196546,48,C3,63,2
732720,614.802963,239,0.196546,46,A2#,63,2
732840,614.901647,119,0.097862,74,D5,63,1
732960,615.000332,119,0.097861,72,C5,63,1
732960,615.000332,239,0.196546,55,G3,63,2
732960,615.000332,239,0.196546,48,C3,63,2
732960,615.000332,239,0.196546,46,A2#,63,2
733200,615.1977,239,0.196546,55,G3,63,2
733200,615.1977,239,0.196546,48,C3,63,2
733200,615.1977,239,0.196546,46,A2#,63,2
733440,615.395069,239,0.196546,77,F5,78,1
733440,615.395069,239,0.196546,53,F3,78,2
733440,615.395069,239,0.196546,48,C3,78,2
733440,615.395069,239,0.196546,45,A2,78,2
733680,615.592437,119,0.097862,81,A5,78,1
733680,615.592437,239,0.196546,53,F3,78,2
733680,615.592437,239,0.196546,48,C3,78,2
733680,615.592437,239,0.196546,45,A2,78,2
733800,615.691121,119,0.097862,79,G5,78,1
733920,615.789806,119,0.097861,77,F5,78,1
733920,615.789806,239,0.196546,53,F3,78,2
733920,615.789806,239,0.196546,48,C3,78,2
733920,615.789806,239,0.196546,45,A2,78,2
734160,615.987174,239,0.196546,53,F3,78,2
734160,615.987174,239,0.196546,48,C3,78,2
734160,615.987174,239,0.196546,45,A2,78,2
734400,616.184543,119,0.097861,89,F6,93,1
734400,616.184543,239,0.196546,53,F3,93,2
734400,616.184543,239,0.196546,48,C3,93,2
734400,616.184543,239,0.196546,44,G2#,93,2
734520,616.283227,119,0.097862,88,E6,93,1
734640,616.381911,119,0.097862,89,F6,93,1
734640,616.381911,239,0.196546,44,G2#,93,2
734640,616.381911,239,0.196546,32,G1#,93,2
734760,616.480595,119,0.097862,88,E6,93,1
734880,616.57928,119,0.097861,89,F6,93,1
734880,616.57928,239,0.196546,44,G2#,93,2
734880,616.57928,239,0.196546,32,G1#,93,2
735000,616.677964,119,0.097862,88,E6,93,1
735120,616.776648,119,0.097862,89,F6,93,1
735120,616.776648,239,0.196546,44,G2#,93,2
735120,616.776648,239,0.196546,32,G1#,93,2
735240,616.875332,119,0.097862,88,E6,93,1
735360,616.974017,119,0.097861,89,F6,112,1
735360,616.974017,119,0.097861,43,G2,112,2
735360,616.974017,119,0.097861,31,G1,112,2
735480,617.072701,119,0.097862,88,E6,112,1
735480,617.072701,119,0.097862,33,A1,112,2
735600,617.171385,119,0.097862,86,D6,112,1
735600,617.171385,119,0.097862,35,B1,112,2
735720,617.270069,119,0.097862,84,C6,112,1
735720,617.270069,119,0.097862,36,C2,112,2
735840,617.368754,119,0.097861,83,B5,112,1
735840,617.368754,119,0.097861,38,D2,112,2
735960,617.467438,119,0.097862,81,A5,112,1
735960,617.467438,119,0.097862,40,E2,112,2
736080,617.566122,119,0.097862,79,G5,112,1
736080,617.566122,119,0.097862,41,F2,112,2
736200,617.664806,119,0.097862,77,F5,112,1
736200,617.664806,119,0.097862,43,G2,112,2
736320,617.763491,119,0.097861,76,E5,112,1
736320,617.763491,119,0.097861,45,A2,112,2
736440,617.862175,119,0.097862,74,D5,112,1
736440,617.862175,119,0.097862,47,B2,112,2
736560,617.960859,119,0.097862,72,C5,112,1
736560,617.960859,119,0.097862,48,C3,112,2
736680,618.059543,119,0.097862,71,B4,112,1
736680,618.059543,119,0.097862,50,D3,112,2
736800,618.158228,119,0.097861,69,A4,112,1
736800,618.158228,119,0.097861,52,E3,112,2
736920,618.256912,119,0.097862,67,G4,112,1
736920,618.256912,119,0.097862,53,F3,112,2
737040,618.355596,119,0.097862,65,F4,112,1
737040,618.355596,119,0.097862,55,G3,112,2
737160,618.45428,119,0.097862,64,E4,112,1
737160,618.45428,119,0.097862,57,A3,112,2
737280,618.552965,239,0.196546,62,D4,112,1
737280,618.552965,239,0.196546,53,F3,112,2
737280,618.552965,239,0.196546,41,F2,112,2
737760,618.947702,239,0.196546,79,G5,122,1
737760,618.947702,239,0.196546,74,D5,122,1
737760,618.947702,239,0.196546,71,B4,122,1
737760,618.947702,239,0.196546,67,G4,122,1
737760,618.947702,239,0.196546,55,G3,122,2
737760,618.947702,239,0.196546,50,D3,122,2
737760,618.947702,239,0.196546,47,B2,122,2
737760,618.947702,239,0.196546,43,G2,122,2
739200,620.131913,239,0.196546,76,E5,112,1
739200,620.131913,239,0.196546,72,C5,112,1
739200,620.131913,239,0.196546,67,G4,112,1
739200,620.131913,239,0.196546,64,E4,112,1
739200,620.131913,239,0.196546,60,C4,112,2
739200,620.131913,239,0.196546,55,G3,112,2
739200,620.131913,239,0.196546,52,E3,112,2
739200,620.131913,239,0.196546,48,C3,112,2
740160,620.921387,239,0.196546,79,G5,112,1
740160,620.921387,239,0.196546,74,D5,112,1
740160,620.921387,239,0.196546,71,B4,112,1
740160,620.921387,239,0.196546,67,G4,112,1
740160,620.921387,239,0.196546,55,G3,112,2
740160,620.921387,239,0.196546,50,D3,112,2
740160,620.921387,239,0.196546,47,B2,112,2
740160,620.921387,239,0.196546,43,G2,112,2
741120,621.710861,239,0.196546,84,C6,112,1
741120,621.710861,239,0.196546,79,G5,112,1
741120,621.710861,239,0.196546,76,E5,112,1
741120,621.710861,239,0.196546,72,C5,112,1
741120,621.710861,239,0.196546,48,C3,112,2
741120,621.710861,239,0.196546,43,G2,112,2
741120,621.710861,239,0.196546,40,E2,112,2
741120,621.710861,239,0.196546,36,C2,112,2
